<svg width="22" height="19" viewBox="0 0 22 19" fill="none" xmlns="http://www.w3.org/2000/svg">
<path d="M20.5625 2.5C20.8438 2.5 21.125 2.25391 21.125 1.9375V0.8125C21.125 0.53125 20.8438 0.25 20.5625 0.25H1.4375C1.12109 0.25 0.875 0.53125 0.875 0.8125V1.9375C0.875 2.25391 1.12109 2.5 1.4375 2.5H1.96484V16H1.4375C1.12109 16 0.875 16.2812 0.875 16.5625V17.6875C0.875 18.0039 1.12109 18.25 1.4375 18.25H9.875V15.4375C9.875 15.1562 10.1211 14.875 10.4375 14.875H11.5625C11.8438 14.875 12.125 15.1562 12.125 15.4375V18.25H20.5625C20.8438 18.25 21.125 18.0039 21.125 17.6875V16.5625C21.125 16.2812 20.8438 16 20.5625 16H20V2.5H20.5625ZM9.875 4.08203C9.875 3.87109 10.0859 3.625 10.2969 3.625H11.668C11.8789 3.625 12.125 3.87109 12.125 4.08203V5.45312C12.125 5.66406 11.8789 5.875 11.668 5.875H10.2969C10.0859 5.875 9.875 5.66406 9.875 5.45312V4.08203ZM9.875 7.45703C9.875 7.24609 10.0859 7 10.2969 7H11.668C11.8789 7 12.125 7.24609 12.125 7.45703V8.82812C12.125 9.03906 11.8789 9.25 11.668 9.25H10.2969C10.0859 9.25 9.875 9.03906 9.875 8.82812V7.45703ZM5.375 4.08203C5.375 3.87109 5.58594 3.625 5.79688 3.625H7.16797C7.37891 3.625 7.625 3.87109 7.625 4.08203V5.45312C7.625 5.66406 7.37891 5.875 7.16797 5.875H5.79688C5.58594 5.875 5.375 5.66406 5.375 5.45312V4.08203ZM7.16797 9.25H5.79688C5.58594 9.25 5.375 9.03906 5.375 8.82812V7.45703C5.375 7.24609 5.58594 7 5.79688 7H7.16797C7.37891 7 7.625 7.24609 7.625 7.45703V8.82812C7.625 9.03906 7.37891 9.25 7.16797 9.25ZM7.625 13.75C7.625 11.8867 9.10156 10.375 11 10.375C12.8633 10.375 14.375 11.8867 14.375 13.75H7.625ZM16.625 8.82812C16.625 9.03906 16.3789 9.25 16.168 9.25H14.7969C14.5859 9.25 14.375 9.03906 14.375 8.82812V7.45703C14.375 7.24609 14.5859 7 14.7969 7H16.168C16.3789 7 16.625 7.24609 16.625 7.45703V8.82812ZM16.625 5.45312C16.625 5.66406 16.3789 5.875 16.168 5.875H14.7969C14.5859 5.875 14.375 5.66406 14.375 5.45312V4.08203C14.375 3.87109 14.5859 3.625 14.7969 3.625H16.168C16.3789 3.625 16.625 3.87109 16.625 4.08203V5.45312Z" fill="#EB384D"/>
</svg>
