<svg width="29" height="64" viewBox="0 0 29 64" fill="none" xmlns="http://www.w3.org/2000/svg">
<path d="M14.1465 38.6783L14.7324 38.1217C14.8789 37.9752 14.8789 37.7408 14.7324 37.6237L10.1914 33.0533H20.2109C20.3867 33.0533 20.5625 32.9069 20.5625 32.7018V31.8815C20.5625 31.7057 20.3867 31.5299 20.2109 31.5299H10.1914L14.7324 26.9889C14.8789 26.8717 14.8789 26.6373 14.7324 26.4908L14.1465 25.9342C14.0293 25.7877 13.7949 25.7877 13.6484 25.9342L7.52539 32.0573C7.37891 32.2037 7.37891 32.4088 7.52539 32.5553L13.6484 38.6783C13.7949 38.8248 14.0293 38.8248 14.1465 38.6783Z" fill="#9F9F9F"/>
<line x1="14.5" y1="-2.73196e-08" x2="14.5" y2="17.3333" stroke="#E0E0E0"/>
<line x1="14.5" y1="47.6666" x2="14.5" y2="63.9166" stroke="#E0E0E0"/>
<circle cx="14.5" cy="32.5" r="14" stroke="#E0E0E0"/>
</svg>
