<svg width="334" height="263" viewBox="0 0 334 263" fill="none" xmlns="http://www.w3.org/2000/svg">
<path d="M284.701 133.4C284.701 139.7 287.401 145.4 291.701 149.5C291.901 149.7 292.101 149.8 292.301 150C292.401 149.8 292.601 149.7 292.701 149.5H320.901C321.001 149.7 321.101 149.8 321.301 150C321.501 149.8 321.701 149.7 321.901 149.5C326.201 145.5 328.901 139.8 328.901 133.4C328.901 131.4 328.601 129.4 328.101 127.6C325.501 118.3 317.001 111.4 306.901 111.4C298.501 111.4 291.201 116.1 287.501 123C285.701 126.1 284.701 129.7 284.701 133.4Z" fill="#FAFCFC"/>
<path d="M265.301 140.7C265.301 144 266.301 147 268.101 149.5C268.201 149.7 268.401 149.9 268.501 150C268.701 149.8 268.901 149.7 269.101 149.5H292.601C294.401 147 295.401 144 295.401 140.7C295.401 132.4 288.701 125.6 280.401 125.6C278.701 125.6 277.201 125.9 275.701 126.4C269.701 128.4 265.301 134 265.301 140.7Z" fill="#FAFCFC"/>
<path d="M235.801 137C235.801 141.7 237.401 146 240.101 149.4H270.301C270.501 149.6 270.701 149.8 270.901 150C271.101 149.8 271.201 149.6 271.401 149.4C274.101 146 275.701 141.7 275.701 137C275.701 129.5 271.501 122.9 265.401 119.5C262.501 117.9 259.201 117 255.701 117C244.801 117 235.801 126 235.801 137Z" fill="#FAFCFC"/>
<path d="M318.201 149.5H317.201C317.301 149.7 317.501 149.9 317.601 150C317.801 149.8 318.001 149.7 318.201 149.5Z" fill="#FAFCFC"/>
<path d="M286.5 149.5C286.7 149.7 286.9 149.9 287.1 150C287.3 149.8 287.4 149.7 287.5 149.5H286.5Z" fill="#FAFCFC"/>
<path d="M120.6 42.2C120.6 47.4 118.8 52.1 115.8 55.8H7C2.6 50.5 0 43.6 0 36.2C0 19.1 13.8 5.29999 30.9 5.29999C44.3 5.29999 55.7 13.8 60 25.8C61.8 25.2 63.8 24.9 65.8 24.9C71.3 24.9 76.4 27.1 80 30.8C83.8 24.5 90.8 20.3 98.7 20.3C110.8 20.3 120.6 30.1 120.6 42.2Z" fill="#FAFCFC"/>
<path d="M203.8 259.3H137.8C136 259.3 134.7 257.8 134.8 256.1L142.8 155.1C142.9 153.5 144.2 152.3 145.8 152.3H163.7C164.9 152.3 166 153.1 166.5 154.2L190.7 215.1L206.6 255.1C207.4 257.2 206 259.3 203.8 259.3Z" fill="#79B8B8"/>
<path d="M207.599 259.3H141.599C139.799 259.3 138.499 257.8 138.599 256.1L146.599 155.1C146.699 153.5 147.999 152.3 149.599 152.3H167.499C168.699 152.3 169.799 153.1 170.299 154.2L194.499 215.1L210.399 255.1C211.199 257.2 209.699 259.3 207.599 259.3Z" fill="#98D0D2"/>
<path d="M207.6 259.3H150.4L194.5 215.2L210.4 255.2C211.2 257.2 209.7 259.3 207.6 259.3Z" fill="#86C9CA"/>
<path d="M196 147.5V183.8H168.2V155.2C168.2 149.4 163.5 144.7 157.7 144.7H85.4004V117.3H165.8C182.5 117.3 196 130.9 196 147.5Z" fill="#79B8B8"/>
<path d="M199 145V181.3H171.2V152.7C171.2 146.9 166.5 142.2 160.7 142.2H123.4V114.8H168.8C185.5 114.8 199 128.3 199 145Z" fill="#98D0D2"/>
<path d="M158.399 114.6H126.199V142H158.399V114.6Z" fill="#86C9CA"/>
<path d="M199 159.7C199 166.3 199 173 199 179.6H171.2C171.2 173.4 171.1 167.1 171.1 160.9C180.5 160.5 189.7 160.1 199 159.7Z" fill="#8DCBCB"/>
<path d="M186.1 182.2H164.4C160.6 182.2 157.5 179.1 157.5 175.3C157.5 171.5 160.6 168.4 164.4 168.4H186.1C189.9 168.4 193 171.5 193 175.3C193 179.1 189.9 182.2 186.1 182.2Z" fill="#79B8B8"/>
<path d="M154.001 233.7C147.001 240.3 118.701 221.9 87.8008 191.5C111.201 212.5 133.001 223.8 139.901 217.5C162.101 197.1 165.501 164.1 150.401 137C174.201 171.9 176.601 212.4 154.001 233.7Z" fill="#AED8DE"/>
<path d="M52.3001 152.1C30.9001 125.1 19.5001 102.6 25.5001 97C49.7001 74.2 94.2001 81.4 128.9 112.4C101.3 91.7 63.3001 91.5 39.3001 113.6C33.6001 118.7 39.3001 133.9 52.3001 152.1Z" fill="#C6E3E5"/>
<path d="M237.9 259.3H171.9C170.1 259.3 168.8 257.8 168.9 256.1L176.9 155.1C177 153.5 178.3 152.3 179.9 152.3H197.8C199 152.3 200.1 153.1 200.6 154.2L224.8 215.1L240.7 255.1C241.5 257.2 240.1 259.3 237.9 259.3Z" fill="#79B8B8"/>
<path d="M241.5 259.3H175.5C173.7 259.3 172.4 257.8 172.5 256.1L180.5 155.1C180.6 153.5 181.9 152.3 183.5 152.3H201.4C202.6 152.3 203.7 153.1 204.2 154.2L228.4 215.1L244.3 255.1C245.1 257.2 243.6 259.3 241.5 259.3Z" fill="#B6DCE2"/>
<path d="M241.501 259.3H184.301L228.401 215.2L244.301 255.2C245.101 257.2 243.601 259.3 241.501 259.3Z" fill="#AED8DE"/>
<path d="M331.595 258.809H7.46238C6.08104 258.809 5 259.707 5 260.904C5 262.042 6.1411 263 7.46238 263H331.535C332.917 263 333.998 262.102 333.998 260.904C334.058 259.767 332.917 258.809 331.595 258.809Z" fill="#7BC3C3"/>
<path d="M217.1 182H195.4C191.6 182 188.5 178.9 188.5 175.1C188.5 171.3 191.6 168.2 195.4 168.2H217.1C220.9 168.2 224 171.3 224 175.1C224 178.9 220.9 182 217.1 182Z" fill="#86C9CA"/>
<path d="M224 175.1C224 177 223.2 178.7 222 179.9C220.8 181.1 219.1 181.9 217.2 181.9H195.5C191.7 181.9 188.6 178.8 188.6 175C188.6 174.7 188.6 174.4 188.7 174.1C188.9 172.6 189.6 171.2 190.6 170.2C191.8 169 193.5 168.2 195.4 168.2H217.1C220.6 168.2 223.4 170.8 223.9 174.1C223.9 174.5 224 174.8 224 175.1Z" fill="#C6E3E5"/>
<path d="M224 174.2V175.1C224 177 223.2 178.7 222 179.9C220.8 181.1 219.1 181.9 217.2 181.9H195.5C191.7 181.9 188.6 178.8 188.6 175V174.1H224V174.2Z" fill="#86C9CA"/>
<path d="M139.9 217.4C133 223.7 111.2 212.4 87.7997 191.4C83.6997 187.4 79.5997 183.2 75.3997 178.8C66.7997 169.7 58.9997 160.7 52.2997 152.1C39.2997 133.9 33.6997 118.7 39.1997 113.6C63.1997 91.5 101.2 91.7 128.8 112.4C131.7 115 134.5 117.7 137.2 120.6C142.1 125.8 146.5 131.3 150.3 136.9C150.3 136.9 150.3 136.9 150.3 137C165.5 164 162.1 197 139.9 217.4Z" fill="#B6DCE2"/>
<path d="M120.801 112.4C124.101 114.9 127.301 117.7 130.301 120.7C135.201 125.7 139.201 131.2 142.401 136.9C138.601 131.3 134.201 125.8 129.301 120.6C126.501 117.7 123.701 115 120.801 112.4Z" fill="#B6DCE2"/>
<path d="M153.5 234.2C150.2 237.3 142.2 234.8 131.4 228.2C116.3 218.9 95.6996 201.4 74.8997 179.3C39.3997 141.6 16.9996 105 24.8996 97.6C28.3996 94.3 37.0996 97.2 48.7996 104.7C51.3996 106.3 54.0997 108.2 56.8997 110.3C70.5997 120.3 86.9996 134.9 103.5 152.5C119.2 169.2 132.3 185.6 141.3 199.4C143.4 202.6 145.3 205.7 147 208.7C147.1 208.9 147.3 209.2 147.4 209.4C154.5 221.7 157 230.9 153.5 234.2Z" fill="#7BC3C3"/>
<path d="M147.401 209.2C132.501 199.7 112.601 182.6 92.7008 161.5C73.1008 140.7 57.5008 120.1 48.8008 104.7C51.4008 106.3 54.1008 108.2 56.9008 110.3C70.6008 120.3 87.0008 134.9 103.501 152.5C119.201 169.2 132.301 185.6 141.301 199.4C143.401 202.6 145.301 205.7 147.001 208.7C147.201 208.7 147.301 209 147.401 209.2Z" fill="#79B8B8"/>
<path d="M149.599 127.9C152.029 127.9 153.999 125.93 153.999 123.5C153.999 121.07 152.029 119.1 149.599 119.1C147.169 119.1 145.199 121.07 145.199 123.5C145.199 125.93 147.169 127.9 149.599 127.9Z" fill="#B6DCE2"/>
<path d="M64.3 197.7C67.5033 197.7 70.1 195.103 70.1 191.9C70.1 188.697 67.5033 186.1 64.3 186.1C61.0968 186.1 58.5 188.697 58.5 191.9C58.5 195.103 61.0968 197.7 64.3 197.7Z" fill="#AED8DE"/>
<path d="M68.3004 196C66.0004 198.3 62.4004 198.3 60.1004 196C59.0004 194.9 58.5004 193.5 58.4004 192.1C58.4004 190.6 58.9004 189 60.1004 187.8C62.4004 185.5 66.0004 185.5 68.3004 187.8C68.9004 188.4 69.3004 189.1 69.6004 189.8C70.4004 191.9 70.0004 194.4 68.3004 196Z" fill="#98D0D2"/>
<path d="M69.6004 189.9C69.7004 191.4 69.1004 193 67.9004 194.2C65.6004 196.5 62.0004 196.5 59.7004 194.2C59.1004 193.6 58.7004 192.9 58.4004 192.2C58.4004 190.7 58.9004 189.1 60.1004 187.9C62.4004 185.6 66.0004 185.6 68.3004 187.9C68.9004 188.5 69.4004 189.1 69.6004 189.9Z" fill="#AED8DE"/>
<path d="M224 175.1C224 177 223.2 178.7 222 179.9C220.8 181.1 219.1 181.9 217.2 181.9H217.4C213.6 181.9 210.5 178.8 210.5 175C210.5 174.7 210.5 174.4 210.6 174.1C210.8 172.6 211.5 171.2 212.5 170.2C213.7 169 215.4 168.2 217.3 168.2H217.1C220.6 168.2 223.4 170.8 223.9 174.1C224 174.5 224 174.8 224 175.1Z" fill="#98D0D2"/>
<path d="M105.115 154.006L102.074 150.965L65.3757 187.664L68.4163 190.704L105.115 154.006Z" fill="#AED8DE"/>
<path d="M105.15 154.032L102.109 150.991L93.907 159.194L96.9475 162.234L105.15 154.032Z" fill="#98D0D2"/>
<path d="M188.699 92.5H174.199L188.599 78H188.699H174.199" stroke="#7BC3C3" stroke-width="3.6542" stroke-miterlimit="10" stroke-linecap="round" stroke-linejoin="round"/>
<path d="M225 65H206L224.9 46H225H206" stroke="#7BC3C3" stroke-width="4.822" stroke-miterlimit="10" stroke-linecap="round" stroke-linejoin="round"/>
<path d="M256.701 27.9H232.801L256.601 4H256.701H232.801" stroke="#7BC3C3" stroke-width="6.0364" stroke-miterlimit="10" stroke-linecap="round" stroke-linejoin="round"/>
<path d="M265.5 30.9C267.212 30.9 268.6 29.5121 268.6 27.8C268.6 26.0879 267.212 24.7 265.5 24.7C263.788 24.7 262.4 26.0879 262.4 27.8C262.4 29.5121 263.788 30.9 265.5 30.9Z" fill="#7BC3C3"/>
<path d="M274.901 30.9C276.613 30.9 278.001 29.5121 278.001 27.8C278.001 26.0879 276.613 24.7 274.901 24.7C273.189 24.7 271.801 26.0879 271.801 27.8C271.801 29.5121 273.189 30.9 274.901 30.9Z" fill="#7BC3C3"/>
<path d="M232.6 67.5C234.036 67.5 235.2 66.3359 235.2 64.9C235.2 63.464 234.036 62.3 232.6 62.3C231.164 62.3 230 63.464 230 64.9C230 66.3359 231.164 67.5 232.6 67.5Z" fill="#7BC3C3"/>
<path d="M240.299 67.5C241.735 67.5 242.899 66.3359 242.899 64.9C242.899 63.464 241.735 62.3 240.299 62.3C238.863 62.3 237.699 63.464 237.699 64.9C237.699 66.3359 238.863 67.5 240.299 67.5Z" fill="#7BC3C3"/>
<path d="M194.2 94.2C195.195 94.2 196 93.3941 196 92.4C196 91.4059 195.195 90.6 194.2 90.6C193.206 90.6 192.4 91.4059 192.4 92.4C192.4 93.3941 193.206 94.2 194.2 94.2Z" fill="#7BC3C3"/>
<path d="M199.7 94.2C200.695 94.2 201.5 93.3941 201.5 92.4C201.5 91.4059 200.695 90.6 199.7 90.6C198.706 90.6 197.9 91.4059 197.9 92.4C197.9 93.3941 198.706 94.2 199.7 94.2Z" fill="#7BC3C3"/>
</svg>
