<svg width="27" height="12" viewBox="0 0 27 12" fill="none" xmlns="http://www.w3.org/2000/svg">
<path d="M21.4648 1.41406L20.9961 1.85938C20.9023 1.97656 20.9023 2.16406 20.9961 2.25781L25.2383 6.5L20.9961 10.7656C20.9023 10.8594 20.9023 11.0469 20.9961 11.1641L21.4648 11.6094C21.582 11.7266 21.7461 11.7266 21.8633 11.6094L26.7852 6.71094C26.8789 6.59375 26.8789 6.42969 26.7852 6.3125L21.8633 1.41406C21.7461 1.29688 21.582 1.29688 21.4648 1.41406Z" fill="#888888"/>
<path d="M6.31641 11.6094L6.78516 11.1641C6.87891 11.0469 6.87891 10.8594 6.78516 10.7656L2.54297 6.5L6.78516 2.25781C6.87891 2.16406 6.87891 1.97656 6.78516 1.85938L6.31641 1.41406C6.19922 1.29688 6.03516 1.29688 5.91797 1.41406L0.996094 6.3125C0.902344 6.42969 0.902344 6.59375 0.996094 6.71094L5.91797 11.6094C6.03516 11.7266 6.19922 11.7266 6.31641 11.6094Z" fill="#888888"/>
</svg>
