<svg width="100" height="100" viewBox="0 0 100 100" fill="none" xmlns="http://www.w3.org/2000/svg">
<path d="M29.407 42.1602H18.0433L17.6726 40.5201H28.8378L29.407 42.1602Z" fill="#5B307F"/>
<path d="M30.2475 44.5705H18.586L18.2153 42.9304H29.6784L30.2475 44.5705Z" fill="#5B307F"/>
<path d="M31.088 46.9808H19.1286L18.758 45.3407H30.5188L31.088 46.9808Z" fill="#5B307F"/>
<path d="M61.056 52.99H20.4722L19.3007 47.751H42.2135C42.3972 47.747 42.5758 47.6893 42.7274 47.5852C42.879 47.481 42.9971 47.3348 43.0673 47.1644C43.1375 46.994 43.1567 46.8068 43.1226 46.6256C43.0885 46.4445 43.0026 46.2772 42.8753 46.1442L25.6279 27.9307C25.5362 27.8326 25.4137 27.7692 25.2808 27.7512C25.148 27.7332 25.0131 27.7617 24.8988 27.8319C24.7845 27.9021 24.6979 28.0097 24.6534 28.1366C24.609 28.2634 24.6096 28.4018 24.655 28.5283L28.5664 39.7499H17.5005L13 19.79H30.585L61.056 52.99Z" fill="#5B307F"/>
<path d="M71.6785 64.5303H23.0798L20.6509 53.7337H61.7642L71.6785 64.5303Z" fill="#FE9E39"/>
<path d="M87 81.21H68.6473L60.189 71.5687H40.7773L43.9475 81.21H26.839L23.2519 65.3006H72.3867L87 81.21Z" fill="#5B307F"/>
<path d="M33.8545 58.2622C35.8825 57.7754 37.9918 57.7369 40.0361 58.1493C40.2479 58.1958 40.3802 57.9634 40.2081 57.8571C39.2929 57.2189 38.2565 56.7763 37.1634 56.557C36.0704 56.3377 34.9441 56.3463 33.8545 56.5822C31.4539 57.1012 28.9692 57.0876 26.5743 56.5424C26.3691 56.4959 26.2368 56.715 26.3956 56.8279C27.475 57.5661 28.6939 58.0742 29.9769 58.3209C31.2598 58.5676 32.5796 58.5476 33.8545 58.2622Z" fill="#FEFEFE"/>
<path d="M33.8545 59.7362C31.4535 60.2538 28.9686 60.238 26.5743 59.6898C26.3691 59.6433 26.2368 59.8624 26.3956 59.9819C27.4725 60.7173 28.6882 61.2234 29.9677 61.469C31.2472 61.7145 32.5633 61.6943 33.8347 61.4095C35.8627 60.9227 37.9719 60.8842 40.0162 61.2966C40.228 61.3431 40.3604 61.1174 40.1883 61.0045C39.2748 60.3704 38.2416 59.9307 37.1522 59.7126C36.0629 59.4945 34.9406 59.5025 33.8545 59.7362Z" fill="#FEFEFE"/>
<path d="M44.3447 60.1147L43.8946 61.6685H43.3056L44.7682 56.7217H45.4301L46.9192 61.6685H46.3169L45.847 60.1147H44.3447ZM45.7809 59.63L45.3507 58.2024C45.2514 57.8837 45.1852 57.5849 45.1256 57.2994C45.0595 57.5982 44.9867 57.897 44.9006 58.1958L44.4638 59.63H45.7809Z" fill="#FEFEFE"/>
<path d="M47.9384 57.2662H46.6147V56.7217H49.8511V57.2662H48.5274V61.6685H47.9582L47.9384 57.2662Z" fill="#FEFEFE"/>
<path d="M50.3343 56.7881C50.6808 56.7192 51.0333 56.6858 51.3866 56.6885C51.6133 56.6631 51.8428 56.6854 52.0605 56.754C52.2781 56.8226 52.4791 56.936 52.6507 57.0869C52.7939 57.2522 52.8968 57.4487 52.951 57.6608C53.0053 57.873 53.0094 58.0949 52.9631 58.3089C52.9169 58.523 52.8215 58.7233 52.6845 58.8938C52.5475 59.0643 52.3728 59.2005 52.1742 59.2914C52.36 59.387 52.5183 59.5287 52.6342 59.703C52.75 59.8773 52.8195 60.0785 52.836 60.2874C52.9111 60.7388 53.024 61.183 53.1735 61.6154H52.5911C52.4574 61.2314 52.3599 60.8357 52.2999 60.4334C52.1675 59.7694 51.9359 59.4972 51.4197 59.4706H50.8902V61.6154H50.3276L50.3343 56.7881ZM50.8968 59.039H51.4726C51.6007 59.0515 51.7299 59.0363 51.8516 58.9943C51.9733 58.9524 52.0846 58.8849 52.1781 58.7961C52.2716 58.7074 52.345 58.5996 52.3934 58.48C52.4418 58.3604 52.4641 58.2318 52.4587 58.1028C52.4587 57.4388 52.0484 57.1865 51.4528 57.1798C51.2655 57.1722 51.0782 57.1924 50.8968 57.2396V59.039Z" fill="#FEFEFE"/>
<path d="M54.5634 60.1147L54.1067 61.6685H53.5243L55.0068 56.7217H55.6687L57.1644 61.6685H56.5555L56.0922 60.1147H54.5634ZM56.0194 59.63L55.5958 58.2024C55.4966 57.8837 55.4304 57.5849 55.3642 57.2994C55.3024 57.6004 55.2296 57.8992 55.1458 58.1958L54.6958 59.63H56.0194Z" fill="#FEFEFE"/>
<path d="M57.8262 56.7217H58.3887V59.1054C58.5079 58.9195 58.6204 58.7402 58.7329 58.5809L60.0566 56.7217H60.7581L59.1697 58.8199L60.8772 61.6685H60.2154L58.7792 59.2382L58.3623 59.7827V61.6685H57.7997L57.8262 56.7217Z" fill="#FEFEFE"/>
</svg>
