<svg width="100" height="100" viewBox="0 0 100 100" fill="none" xmlns="http://www.w3.org/2000/svg">
<path d="M88.3721 73.5134C83.9905 68.0925 78.0153 64.1964 71.2975 62.3798C70.8399 62.2547 70.3739 62.1545 69.9079 62.0627C61.9364 60.5771 63.6922 61.3449 62.5605 61.37C56.4529 60.8442 50.2788 61.2782 44.2128 60.1431C41.9911 59.5589 39.8027 58.8411 37.6143 58.115C29.934 54.9936 23.7848 50.3365 20.781 42.2409C19.9489 40.0626 18.9837 37.9427 18.1516 35.7727C16.8119 32.259 15.1394 29.0124 11.6279 26.8675C13.8496 26.6338 15.4223 25.1232 17.3944 24.5139C18.8866 24.0838 20.4859 24.2359 21.871 24.9396C24.0269 26.0019 25.9946 27.4116 27.6957 29.1126C28.7164 30.0685 29.948 30.7687 31.2901 31.156C32.6321 31.5433 34.0464 31.6067 35.4175 31.341C47.5245 29.5716 58.2253 32.6096 67.2286 41.0891C70.3341 43.934 73.1239 47.1073 75.5495 50.5535L78.0458 54.1006C77.896 53.917 76.5064 52.2311 75.0503 50.5619C74.0601 49.4185 73.0283 48.3251 71.9549 47.3069L71.5388 46.8729C67.3908 42.9045 62.1909 40.2185 56.5611 39.1362C53.5905 38.5686 50.6199 38.2264 47.691 39.3615C46.5491 39.7672 45.5303 40.4602 44.7322 41.3742C43.934 42.2881 43.3833 43.3924 43.1327 44.5811C42.8822 45.7698 42.9402 47.0032 43.3012 48.1629C43.6623 49.3227 44.3143 50.37 45.1947 51.2045C46.8769 52.8375 48.9958 53.9451 51.2939 54.3927C56.9771 55.7281 62.7852 56.4959 68.3519 58.3738C71.4964 59.3758 74.5191 60.7279 77.3635 62.4049C77.4785 62.479 77.598 62.5459 77.7213 62.6052L77.8794 62.697C79.4688 63.5926 80.9583 64.6558 82.3228 65.8685C84.195 67.521 87.3486 70.6007 88.3721 73.5134Z" fill="#023C85"/>
<path d="M86.8576 75.9171C86.0878 76.5795 85.1856 77.069 84.2115 77.3526C83.7955 77.4945 83.6457 76.7517 83.3794 76.3928C80.4665 71.8858 76.4194 68.2295 71.6469 65.7934C70.0225 64.9971 68.3105 64.3948 66.5461 63.999C65.3659 63.5862 64.1264 63.3691 62.8766 63.3563C57.7259 62.2547 52.4171 62.2463 47.2914 61.0194C46.1931 60.8358 45.1529 60.3851 44.0379 60.2766C43.8632 60.1431 43.3223 60.1348 43.4139 59.9428C49.355 60.7357 55.8953 60.3685 61.8198 60.7774C74.9669 62.48 81.5238 68.389 85.6843 73.6887C85.8778 73.8997 86.0505 74.1289 86.2002 74.3731C86.4249 74.8989 87.3485 75.4247 86.8576 75.9171Z" fill="#019602"/>
<path d="M78.2871 74.1728C77.5049 74.4148 76.781 76.1758 75.7908 74.6401C72.1712 68.8647 66.6378 65.9937 60.3388 64.3161C55.9037 63.1393 51.4104 62.1795 46.9504 61.1279C46.8505 61.0528 46.8172 60.9861 46.8672 60.9276C46.8795 60.9044 46.8973 60.8847 46.9191 60.8701C46.9409 60.8555 46.9659 60.8466 46.992 60.8442C50.2621 61.3366 53.5655 61.5452 56.8606 61.9208C57.934 62.046 58.9991 62.1879 60.0642 62.3631H60.2473C62.7449 62.831 65.1837 63.5727 67.5198 64.5748C68.3519 64.9254 69.0841 65.3093 69.833 65.7182L70.0161 65.8184C73.1833 67.5707 75.9788 69.9267 78.2455 72.754C78.6199 73.2297 79.2856 73.864 78.2871 74.1728Z" fill="#C71A24"/>
<path d="M73.952 73.1963C69.864 77.3444 64.7532 80.332 59.1398 81.8549C53.5265 83.3779 47.611 83.3817 41.9957 81.8662C36.3804 80.3506 31.2657 77.3697 27.1723 73.227C23.0789 69.0842 20.153 63.9276 18.6925 58.2819C20.2615 63.6653 23.2143 68.5401 27.2547 72.4174C31.2951 76.2947 36.2811 79.0381 41.7124 80.3723C47.1436 81.7065 52.8292 81.5847 58.1987 80.019C63.5682 78.4533 68.4328 75.4988 72.3044 71.452C72.9073 71.9799 73.4589 72.564 73.952 73.1963Z" fill="#023C85"/>
<path d="M83.4461 50.0027C83.4519 55.2083 82.2226 60.3406 79.8598 64.9755L77.8378 63.565C80.5933 57.987 81.6668 51.724 80.9268 45.5432C80.1869 39.3625 77.6655 33.5324 73.6717 28.7674C69.6778 24.0024 64.385 20.5093 58.4416 18.7161C52.4982 16.9229 46.1624 16.9075 40.2104 18.6717C45.1566 17.0302 50.4204 16.5894 55.5695 17.3855C60.7185 18.1816 65.6057 20.1918 69.8294 23.251C74.0531 26.3102 77.4928 30.331 79.8658 34.9831C82.2387 39.6351 83.4772 44.7855 83.4794 50.011L83.4461 50.0027Z" fill="#023C85"/>
<path d="M47.017 60.8442C47.017 60.8442 43.88 60.1097 40.7014 59.1332C40.7014 59.1332 43.0812 60.4853 49.8545 61.7956" fill="#C71A24"/>
</svg>
