<svg width="100" height="100" viewBox="0 0 100 100" fill="none" xmlns="http://www.w3.org/2000/svg">
<path fill-rule="evenodd" clip-rule="evenodd" d="M17.6209 50.6985C16.0294 40.8406 15.5997 29.9549 9.37498 25.0293C16.7076 22.4263 20.7903 24.9492 26.3838 30.4688C31.9773 35.9884 40.015 32.5846 46.9313 33.1385C58.6756 33.846 63.9669 40.1732 68.1302 43.8574C62.9261 39.3523 55.8889 34.5802 46.468 35.2876C40.6932 34.8471 31.7422 40.0331 23.859 31.9038C20.9246 29.1874 17.5201 26.5644 14.9349 27.0516C18.1379 30.2419 17.9365 50.1179 17.6209 50.6985Z" fill="#006CB5"/>
<path fill-rule="evenodd" clip-rule="evenodd" d="M18.4132 75.5869V69.0662C25.4369 66.1228 32.1317 63.4931 39.6792 62.7122L34.4617 68.4922C28.9219 70.5612 23.9664 72.984 18.4132 75.5869Z" fill="#006CB5"/>
<path fill-rule="evenodd" clip-rule="evenodd" d="M18.3998 63.7267V56.2315C27.1828 52.7008 37.3693 50.6452 48.4623 52.3471C47.1193 54.3494 45.6957 56.0046 44.3528 58.0336C35.563 58.1737 27.7872 59.4419 18.3998 63.7267Z" fill="#006CB5"/>
<path fill-rule="evenodd" clip-rule="evenodd" d="M19.3264 52.6274C27.0754 48.6229 34.6431 44.1911 43.829 43.5838C49.4091 43.5504 53.8342 43.6772 58.2929 46.4003C57.0573 47.7352 55.6069 49.2502 54.3512 50.5851C50.7722 48.8498 47.0589 47.9754 40.7469 48.0021C33.4411 48.4293 26.7262 50.7586 19.3264 52.6274Z" fill="#EB7E3C"/>
<path fill-rule="evenodd" clip-rule="evenodd" d="M38.4236 68.2519C39.6457 66.6434 41.9959 64.0671 43.218 62.4586C49.1875 61.9781 56.9298 63.4998 62.1271 66.4231C71.2526 71.3888 77.9138 75.2999 90.625 74.459C82.3657 78.3834 73.9923 73.9451 65.7195 70.7748C56.9768 66.7902 47.8848 67.471 38.4236 68.2519Z" fill="#EB7E3C"/>
<path fill-rule="evenodd" clip-rule="evenodd" d="M49.3957 58.414L46.891 58.1537L51.0005 52.6274L53.2366 53.455L49.3957 58.414Z" fill="#EB7E3C"/>
<path fill-rule="evenodd" clip-rule="evenodd" d="M51.0476 58.7077L54.6333 54.0357C60.4081 57.8 66.2098 62.0448 71.9174 65.3286C77.625 68.6123 82.2785 69.1863 88.3621 69.8137C82.3187 71.3154 77.1751 70.4811 69.8224 67.3442C62.4696 64.2073 57.1984 61.2306 51.0476 58.7077Z" fill="#006CB5"/>
<path fill-rule="evenodd" clip-rule="evenodd" d="M56.5066 51.8065C57.628 50.7052 59.0851 48.8965 60.2065 47.8019C63.7654 51.2659 65.706 54.0357 71.5748 58.0403C77.4436 62.0448 82.7618 65.5622 88.0397 64.7946C83.44 66.5833 77.8667 64.9348 71.3532 61.2439C64.8398 57.553 61.1466 54.9501 56.5066 51.8065Z" fill="#006CB5"/>
</svg>
