<svg xmlns="http://www.w3.org/2000/svg" xmlns:xlink="http://www.w3.org/1999/xlink" viewBox="0 0 900 80"><defs><style>.cls-1{fill:none;}.cls-12,.cls-2{fill:#fff;}.cls-3{fill:#eb384d;}.cls-4{fill:#f1f9fa;}.cls-5{fill:#c4f0f5;}.cls-6{fill:#e5fdff;}.cls-7{fill:#92dce0;}.cls-8{fill:#a1d3d3;}.cls-9{fill:#ffcd4f;}.cls-10{fill:#b1dbdd;}.cls-11{clip-path:url(#clip-path);}.cls-12{opacity:0.69;}.cls-13{fill:#f7b5bf;}.cls-14{opacity:0.5;}</style><clipPath id="clip-path"><path class="cls-1" d="M189.16,58.78c-.36-.38-1.17-1.82-1.85-5.56a75.59,75.59,0,0,1-1-13.18,75.62,75.62,0,0,1,1-13.19c.68-3.74,1.49-5.18,1.85-5.55.37.37,1.17,1.81,1.86,5.55s5.91,8.29,5.91,13.19-5.24,9.57-5.91,13.18S189.53,58.4,189.16,58.78Z"/></clipPath></defs><title>Artboard 14 copy 20</title><g id="Layer_1" data-name="Layer 1"><rect class="cls-2" x="-12.94" y="-7.64" width="925.88" height="100"/><path class="cls-3" d="M629.66,47.12a6.68,6.68,0,0,1-2.17-.31,4.14,4.14,0,0,1-1.55-.94,3,3,0,0,1-.6-.84,4.22,4.22,0,0,1-.31-.88,4.17,4.17,0,0,1-.12-.82c0-.25,0-.48,0-.67s0-.61,0-1.15,0-1.18,0-1.94c0-.46,0-1,0-1.47s0-1,0-1.58,0-1.07,0-1.61,0-1.06-.08-1.56-.07-1-.12-1.41-.1-.83-.16-1.17l2.72-.81c.08.42.15.93.21,1.52s.11,1.23.14,1.9.07,1.35.09,2,0,1.36,0,2c0,.18,0,.38,0,.59s0,.42,0,.63v1.91c0,.24,0,.48,0,.7s0,.45,0,.67,0,.43,0,.66a6.43,6.43,0,0,0,0,.77.8.8,0,0,0,.22.54,2.29,2.29,0,0,0,1.62.43h.1a1.27,1.27,0,0,1,.54.11,1.52,1.52,0,0,1,.44.31,1.33,1.33,0,0,1,.42,1,1.42,1.42,0,0,1-.11.55,1.4,1.4,0,0,1-.31.44,1.46,1.46,0,0,1-.44.29A1.45,1.45,0,0,1,629.66,47.12Z"/><path class="cls-3" d="M643,44.32a1.29,1.29,0,0,1,1,.41,1.31,1.31,0,0,1,.41,1,1.34,1.34,0,0,1-.41,1,1.41,1.41,0,0,1-1,.41h0a3.08,3.08,0,0,1-2.42-.83L640.3,46l-.23.24a2.8,2.8,0,0,1-2,.8,4.75,4.75,0,0,1-1.5-.29,9,9,0,0,1-1.46-.6,12.92,12.92,0,0,1-1.53-.9,4,4,0,0,1-.94.93,4.82,4.82,0,0,1-2.88.92,1.42,1.42,0,0,1-1.39-1.39,1.35,1.35,0,0,1,.42-1,1.31,1.31,0,0,1,1-.41A2.9,2.9,0,0,0,632,43.18a8.45,8.45,0,0,0,.78-1.15c.15-.29.36-.69.61-1.21l.28-.55a6.37,6.37,0,0,1,1.4-2,3,3,0,0,1,2.12-.79,3.87,3.87,0,0,1,2.62,1,4.59,4.59,0,0,1,1.47,3.1v.15a.19.19,0,0,1,0,.08v0a.22.22,0,0,0,0,.08,2.29,2.29,0,0,0,0,.25,5.36,5.36,0,0,0,.13.77,1.49,1.49,0,0,0,1.51,1.32Zm-4.56.17c.52-.15.8-.6.83-1.34a3,3,0,0,0-.37-1.68,2.7,2.7,0,0,0-.92-1,1.58,1.58,0,0,0-1.19-.25c-.23.05-.58.53-1,1.43l-.39.79-.12.26a.27.27,0,0,0-.05.11l-.11.26a10.16,10.16,0,0,0,3.17,1.44Z"/><path class="cls-3" d="M641.65,45.74a1.34,1.34,0,0,1,.1-.52,1.44,1.44,0,0,1,.28-.44,1.6,1.6,0,0,1,.42-.3,1.29,1.29,0,0,1,.51-.14,2.54,2.54,0,0,0,1.16-.26,3,3,0,0,0,.88-.7,4.58,4.58,0,0,0,.65-1,9.42,9.42,0,0,0,.47-1.14c.13-.39.25-.78.35-1.16s.18-.72.26-1l2.72.59c-.06.21-.15.47-.25.78s-.21.65-.31,1a7.91,7.91,0,0,0-.25,1.07,3.65,3.65,0,0,0-.07,1,1.32,1.32,0,0,0,.23.7.78.78,0,0,0,.66.27,1.51,1.51,0,0,0,.88-.28,2.87,2.87,0,0,0,.7-.73,5.26,5.26,0,0,0,.55-1,10.9,10.9,0,0,0,.4-1.18c.11-.4.21-.79.28-1.18s.14-.72.18-1l2.55.49c0,.23-.06.46-.11.71s-.1.5-.14.76-.1.54-.14.83a8.53,8.53,0,0,0-.05.89,2.87,2.87,0,0,0,.07.67,1.67,1.67,0,0,0,.24.56,1.23,1.23,0,0,0,.45.39,1.52,1.52,0,0,0,.68.16,1.93,1.93,0,0,0,1.25-.39,1.44,1.44,0,0,0,.5-1.2,6,6,0,0,0-.16-1.27c-.11-.46-.24-.9-.38-1.34s-.31-.85-.48-1.23-.31-.7-.43-.95l2.34-1.31.21.44q.15.33.33.78c.12.31.25.65.39,1s.25.79.36,1.21a13,13,0,0,1,.27,1.3,8.37,8.37,0,0,1,.11,1.31,5.09,5.09,0,0,1-.31,1.83,3.86,3.86,0,0,1-.91,1.39,4.09,4.09,0,0,1-1.49.88,5.73,5.73,0,0,1-2,.3,3,3,0,0,1-1-.13,2.71,2.71,0,0,1-.8-.39,3.66,3.66,0,0,1-.63-.55,6.92,6.92,0,0,1-.49-.65,5.27,5.27,0,0,1-.55.68,3.2,3.2,0,0,1-.67.53,3.78,3.78,0,0,1-.87.36,4.67,4.67,0,0,1-1.12.15,2.91,2.91,0,0,1-1-.12,3,3,0,0,1-.79-.37,3.38,3.38,0,0,1-.64-.55,4.88,4.88,0,0,1-.53-.67,5.26,5.26,0,0,1-.48.6,2.61,2.61,0,0,1-.66.5,4.1,4.1,0,0,1-.94.36,5.63,5.63,0,0,1-1.31.13H643a1.46,1.46,0,0,1-.51-.12,1.43,1.43,0,0,1-.42-.31,1.39,1.39,0,0,1-.28-.43A1.35,1.35,0,0,1,641.65,45.74ZM653,34.21l-1.85,1.85-1.87-1.86,1.85-1.86Zm-1.5-3.14,1.7-1.7,1.7,1.71-1.69,1.69Zm5.61,3.15-1.85,1.86-1.87-1.87,1.85-1.85Z"/><path class="cls-3" d="M674.48,52.85a7,7,0,0,0,1.59.09,7.93,7.93,0,0,0,1.55-.21,7.8,7.8,0,0,0,1.44-.46,7.51,7.51,0,0,0,1.26-.67L681.79,54a12.49,12.49,0,0,1-1.3.7,9.23,9.23,0,0,1-1.38.55,9.86,9.86,0,0,1-1.47.36,9.18,9.18,0,0,1-1.59.1,15.54,15.54,0,0,1-2.11-.21,9.4,9.4,0,0,1-2.08-.62,8.07,8.07,0,0,1-1.85-1.1,6.46,6.46,0,0,1-1.44-1.7h0a5.66,5.66,0,0,1-.6-1.39,5.19,5.19,0,0,1-.23-1.57,5.76,5.76,0,0,1,.24-1.64,8.77,8.77,0,0,1,.59-1.45,6.87,6.87,0,0,1,.78-1.1,8.8,8.8,0,0,1,1-1,9.63,9.63,0,0,1,1.12-.81,9.9,9.9,0,0,1,1.2-.64l-.71-.65-.7-.61-.63-.53-.49-.42L669.9,38a10.33,10.33,0,0,1,1-.81,9.5,9.5,0,0,1,1.1-.64,8.94,8.94,0,0,1,1.06-.48,8.3,8.3,0,0,1,.92-.28,8.77,8.77,0,0,1,1.21-.21,11.67,11.67,0,0,1,1.18-.07,9.34,9.34,0,0,1,1.21.08,6.31,6.31,0,0,1,1.1.26h0A3.84,3.84,0,0,1,680.62,37a2.64,2.64,0,0,1,.62,1.87,4.38,4.38,0,0,1-1.83,3.44,6.75,6.75,0,0,1-.71.48l-.77.43a8,8,0,0,0,.93.44,7.49,7.49,0,0,0,1,.34,10.08,10.08,0,0,0,1,.23,6.58,6.58,0,0,0,1,.08,1.41,1.41,0,0,1,.54.11,1.4,1.4,0,0,1,.73.76,1.36,1.36,0,0,1,0,1.07,1.35,1.35,0,0,1-.29.44,1.32,1.32,0,0,1-.44.3,1.24,1.24,0,0,1-.54.11,8.06,8.06,0,0,1-1.77-.19,10.66,10.66,0,0,1-1.72-.53,13.8,13.8,0,0,1-1.69-.82A19,19,0,0,1,675,44.54c-.53.21-1.06.46-1.61.74a9,9,0,0,0-1.48,1,4.8,4.8,0,0,0-1.09,1.26,3,3,0,0,0-.43,1.6,2.46,2.46,0,0,0,.2,1,3.62,3.62,0,0,0,.53.86,4.6,4.6,0,0,0,.75.71,7,7,0,0,0,.88.58,5.88,5.88,0,0,0,.89.41A5,5,0,0,0,674.48,52.85Zm1.94-14.66a7.31,7.31,0,0,0-.91.06c-.32,0-.64.09-1,.16a7.7,7.7,0,0,0-.89.25,5,5,0,0,0-.76.32l.51.55.61.65.65.66c.23.22.45.43.67.62.47-.21.92-.41,1.33-.62a7.51,7.51,0,0,0,1.08-.65,3.31,3.31,0,0,0,.74-.69,1.29,1.29,0,0,0,.28-.74s0-.07-.14-.13a1.79,1.79,0,0,0-.42-.17,5.35,5.35,0,0,0-.73-.17A6.19,6.19,0,0,0,676.42,38.19Zm1.13-6.28L675.48,34l-2.09-2.09,2.08-2.07Z"/><path class="cls-3" d="M680.44,45.73a1.42,1.42,0,0,1,.11-.55,1.23,1.23,0,0,1,.3-.44,1.35,1.35,0,0,1,.44-.29,1.24,1.24,0,0,1,.54-.11h.83c.57,0,1.11,0,1.63-.08a5.17,5.17,0,0,0,1.38-.32,2.29,2.29,0,0,0,1-.69,2,2,0,0,0,.4-1.19,3.71,3.71,0,0,0,0-.58c0-.19-.06-.39-.1-.6s-.11-.45-.18-.7-.16-.55-.25-.89l2.66-.75c.09.35.17.67.23,1s.1.56.14.82.07.54.09.81,0,.58.08.91.06.51.1.78a3,3,0,0,0,.22.75,1.49,1.49,0,0,0,.44.55,1.12,1.12,0,0,0,.73.22,1.26,1.26,0,0,1,.55.11,1.51,1.51,0,0,1,.45.29,1.55,1.55,0,0,1,.3.44,1.42,1.42,0,0,1,.1.55,1.26,1.26,0,0,1-.11.55,1.55,1.55,0,0,1-.3.44,1.6,1.6,0,0,1-.44.29,1.41,1.41,0,0,1-.54.11,4.22,4.22,0,0,1-1.8-.35,3.88,3.88,0,0,1-1.23-.9,4.26,4.26,0,0,1-1.08.59,7.85,7.85,0,0,1-1.35.38,14.25,14.25,0,0,1-1.52.22c-.52,0-1,.06-1.54.06h-.83a1.41,1.41,0,0,1-.54-.11,1.35,1.35,0,0,1-.44-.29,1.23,1.23,0,0,1-.3-.44A1.42,1.42,0,0,1,680.44,45.73Zm5.12,5.2-1.84,1.84-1.87-1.86,1.84-1.85Zm4.11,0-1.85,1.85L686,50.93l1.85-1.85Z"/><path class="cls-3" d="M689.77,45.73a1.33,1.33,0,0,1,.11-.54,1.43,1.43,0,0,1,.74-.74,1.22,1.22,0,0,1,.54-.11h1l.5,0,.33,0,.23-.06a.42.42,0,0,0,.14-.09.73.73,0,0,0,.2-.27,1.78,1.78,0,0,0,.13-.39c0-.14.06-.3.08-.47s0-.33,0-.5v0c0-.2,0-.52,0-.94s0-.93,0-1.5,0-1.19,0-1.86,0-1.36,0-2.06c0-1.17,0-2.24,0-3.21s-.09-1.81-.17-2.52l2.76-.36c.11.8.18,1.74.22,2.83s.06,2.25.06,3.51c0,1,0,2,0,3s0,2.05,0,3.13a4,4,0,0,0,.05.53,1.61,1.61,0,0,0,.23.62,1.5,1.5,0,0,0,.49.44,1.93,1.93,0,0,0,.94.18,1.29,1.29,0,0,1,.55.11,1.32,1.32,0,0,1,.44.3,1.4,1.4,0,0,1,.31.44,1.33,1.33,0,0,1,.11.54,1.42,1.42,0,0,1-.11.55,1.4,1.4,0,0,1-.31.44,1.42,1.42,0,0,1-1,.4,5.12,5.12,0,0,1-1.79-.23,2.69,2.69,0,0,1-1.24-.85,2.55,2.55,0,0,1-.64.56,3,3,0,0,1-.7.32,3.12,3.12,0,0,1-.75.15c-.26,0-.53,0-.8,0h-1.28a1.37,1.37,0,0,1-.54-.11,1.35,1.35,0,0,1-.44-.29,1.23,1.23,0,0,1-.3-.44A1.42,1.42,0,0,1,689.77,45.73Z"/><path class="cls-3" d="M697,45.73a1.33,1.33,0,0,1,.11-.54,1.35,1.35,0,0,1,.29-.44,1.32,1.32,0,0,1,.44-.3,1.29,1.29,0,0,1,.55-.11h.19a4.59,4.59,0,0,0,2.52-.57,1.92,1.92,0,0,0,.86-1.71,3.48,3.48,0,0,0,0-.58c0-.17-.07-.36-.12-.56s-.12-.42-.2-.66-.16-.52-.24-.83l2.67-.75c.13.51.25,1,.37,1.61a9.18,9.18,0,0,1,.16,1.77,5.3,5.3,0,0,0,.06.77,2.56,2.56,0,0,0,.23.74,1.65,1.65,0,0,0,.46.55,1.16,1.16,0,0,0,.74.22,1.24,1.24,0,0,1,.54.11,1.4,1.4,0,0,1,.75.74,1.19,1.19,0,0,1,.12.54,1.26,1.26,0,0,1-.12.55,1.37,1.37,0,0,1-.3.44,1.6,1.6,0,0,1-.44.29,1.41,1.41,0,0,1-.54.11,4.32,4.32,0,0,1-1.78-.33,3.72,3.72,0,0,1-1.24-.88,6.87,6.87,0,0,1-4.45,1.21h-.19a1.42,1.42,0,0,1-1-.4,1.35,1.35,0,0,1-.29-.44A1.42,1.42,0,0,1,697,45.73Zm7.7,5-2.08,2.07-2.09-2.08,2.08-2.08Z"/><path class="cls-3" d="M704.43,45.73a1.42,1.42,0,0,1,.11-.55,1.23,1.23,0,0,1,.3-.44,1.46,1.46,0,0,1,.44-.29,1.24,1.24,0,0,1,.54-.11h1.73c.36,0,.73,0,1.13,0a10.3,10.3,0,0,0,1.15-.15,4.6,4.6,0,0,0,1-.32,1.55,1.55,0,0,0,.67-.51,1.31,1.31,0,0,0,.17-.64,4.23,4.23,0,0,0-.11-.89,10.17,10.17,0,0,0-.31-1c-.13-.35-.26-.69-.41-1s-.28-.64-.42-.94-.26-.54-.36-.74l2.53-1.25a9.28,9.28,0,0,1,.58,1.25,12.91,12.91,0,0,1,.51,1.52,15.38,15.38,0,0,1,.35,1.54,7.93,7.93,0,0,1,.14,1.35,4.67,4.67,0,0,1-.36,1.88A4,4,0,0,1,712.64,46a5,5,0,0,1-1.78.92,5.74,5.74,0,0,1-.79.14l-1,.07-.93,0h-2.36a1.41,1.41,0,0,1-.54-.11,1.46,1.46,0,0,1-.44-.29,1.23,1.23,0,0,1-.3-.44A1.42,1.42,0,0,1,704.43,45.73Zm6.21-12.48-1.85,1.85-1.87-1.86,1.85-1.86Zm4.11,0-1.85,1.86L711,33.25l1.85-1.85Z"/><path class="cls-3" d="M725.58,43.36a5.44,5.44,0,0,0-.56,1.08,9.45,9.45,0,0,0-.39,1.35,9.6,9.6,0,0,0-.17,1.91,3.3,3.3,0,0,0,.71,2.13,3.88,3.88,0,0,0,.75.71,5,5,0,0,0,.86.49,5.39,5.39,0,0,0,.88.3,5.06,5.06,0,0,0,.78.13h.3a5.49,5.49,0,0,0,1.59-.26,4.82,4.82,0,0,0,1.54-.8A4.51,4.51,0,0,0,733,49a4.4,4.4,0,0,0,.46-2.1c0-.57,0-1.24,0-2s-.05-1.6-.08-2.47-.07-1.77-.12-2.7-.08-1.84-.13-2.72c-.1-2.06-.22-4.22-.34-6.48l2.83-.53c.06,1.38.12,2.8.18,4.25,0,.62,0,1.27.07,2s0,1.39.07,2.1,0,1.44.07,2.16.05,1.42.07,2.11a3,3,0,0,0,.13.52,1.93,1.93,0,0,0,.31.58,2,2,0,0,0,.55.48,1.75,1.75,0,0,0,.87.2,1.46,1.46,0,0,1,.55.11,1.4,1.4,0,0,1,.44.31,1.23,1.23,0,0,1,.3.44,1.41,1.41,0,0,1,.11.54,1.33,1.33,0,0,1-.11.54,1.43,1.43,0,0,1-.74.74,1.45,1.45,0,0,1-.55.1,5,5,0,0,1-1-.08,4.22,4.22,0,0,1-.78-.21V47a8.28,8.28,0,0,1-.33,2.44,6.88,6.88,0,0,1-.89,1.89,6.11,6.11,0,0,1-1.31,1.37,7.84,7.84,0,0,1-1.56.93,7.37,7.37,0,0,1-1.66.51,8.34,8.34,0,0,1-1.6.16h-.42A9.93,9.93,0,0,1,727,54a8.13,8.13,0,0,1-1.47-.54,7.29,7.29,0,0,1-1.36-.87A5.32,5.32,0,0,1,723,51.36a5.78,5.78,0,0,1-.77-1.62,6.28,6.28,0,0,1-.28-2.05,12.43,12.43,0,0,1,.21-2.47,11.1,11.1,0,0,1,.44-1.68,6.26,6.26,0,0,1,.63-1.27Z"/><path class="cls-3" d="M736.54,45.74a1.41,1.41,0,0,1,.11-.54,1.55,1.55,0,0,1,.3-.44,1.57,1.57,0,0,1,.45-.31,1.42,1.42,0,0,1,.55-.11h2a13.71,13.71,0,0,0,2.69-.27,22.45,22.45,0,0,0,2.68-.7c.87-.29,1.72-.61,2.55-1s1.6-.71,2.34-1.07a4.85,4.85,0,0,1-.93-.23c-.33-.12-.66-.25-1-.4s-.69-.3-1-.47-.71-.31-1.07-.45a8.25,8.25,0,0,0-1.07-.33,4.19,4.19,0,0,0-1.05-.13,2,2,0,0,0-.76.14,3.53,3.53,0,0,0-1.26.86,6,6,0,0,0-.44.48,5.27,5.27,0,0,0-.38.53L739,40.14a7.29,7.29,0,0,1,1-1.37,8.24,8.24,0,0,1,1.27-1.17,6.81,6.81,0,0,1,1.4-.8,3.58,3.58,0,0,1,1.38-.3,4.76,4.76,0,0,1,1.12.13,10.14,10.14,0,0,1,1.13.32c.38.14.77.29,1.16.47l1.18.54q.63.3,1.38.6a15.7,15.7,0,0,0,1.55.53,12.67,12.67,0,0,0,1.59.38,8.23,8.23,0,0,0,1.52.15l-.46,2.65c-.28.12-.54.24-.8.38s-.51.26-.78.38a1.64,1.64,0,0,0,.66.72,3.4,3.4,0,0,0,1,.39,5.6,5.6,0,0,0,1,.17l.72,0h.16a1.5,1.5,0,0,1,.55.11,1.52,1.52,0,0,1,.44.31,1.23,1.23,0,0,1,.3.44,1.41,1.41,0,0,1,.11.54,1.33,1.33,0,0,1-.11.54,1.23,1.23,0,0,1-.3.44,1.32,1.32,0,0,1-.44.3,1.49,1.49,0,0,1-.55.1h-.16a9.34,9.34,0,0,1-2-.19,7.19,7.19,0,0,1-1.66-.55,4.87,4.87,0,0,1-1.29-.9,4.13,4.13,0,0,1-.88-1.2c-.73.37-1.49.72-2.27,1.06s-1.6.64-2.44.91a23.32,23.32,0,0,1-2.62.64,16.41,16.41,0,0,1-2.84.24h-2a1.42,1.42,0,0,1-.55-.1,1.37,1.37,0,0,1-.45-.3,1.55,1.55,0,0,1-.3-.44A1.33,1.33,0,0,1,736.54,45.74Z"/><path class="cls-3" d="M754.69,45.73a1.19,1.19,0,0,1,.11-.54,1.42,1.42,0,0,1,.29-.43,1.28,1.28,0,0,1,.43-.3,1.64,1.64,0,0,1,.55-.12,3,3,0,0,0,1.38-.3,3.94,3.94,0,0,0,1-.78,6,6,0,0,0,.79-1.07c.23-.4.44-.8.64-1.2s.39-.76.6-1.14a6.43,6.43,0,0,1,.67-1,3.81,3.81,0,0,1,1.2-1,3,3,0,0,1,1.42-.35,3.76,3.76,0,0,1,1.64.37A4.08,4.08,0,0,1,766.78,39a4.67,4.67,0,0,1,.75,1.26,5.53,5.53,0,0,1,.37,1.53v0a5.25,5.25,0,0,1,.07.91,6.38,6.38,0,0,1-.09,1.08,5.57,5.57,0,0,1-.28,1,3.76,3.76,0,0,1-.94,1.39,3.21,3.21,0,0,1-1.32.78,2,2,0,0,1-.48.09,3.91,3.91,0,0,1-.49,0,5,5,0,0,1-1-.11,7.93,7.93,0,0,1-1-.31l-.51-.24-.57-.29-.59-.35-.54-.35a7.42,7.42,0,0,1-.87.74,5,5,0,0,1-1,.56,4.71,4.71,0,0,1-1.06.35,6.44,6.44,0,0,1-1.2.11,1.42,1.42,0,0,1-.55-.11,1.28,1.28,0,0,1-.43-.3,1.35,1.35,0,0,1-.29-.44A1.19,1.19,0,0,1,754.69,45.73Zm7.12-2.66a6.19,6.19,0,0,0,.81.48,8.6,8.6,0,0,0,.89.39c.29.1.56.19.81.25a2.72,2.72,0,0,0,.6.09,1.27,1.27,0,0,0,.28,0,.43.43,0,0,0,.22-.14.87.87,0,0,0,.2-.3,1.91,1.91,0,0,0,.14-.46,1.64,1.64,0,0,0,0-1,3.74,3.74,0,0,0-.19-.52c-.09-.19-.19-.38-.31-.58a3.08,3.08,0,0,0-.42-.52,2.15,2.15,0,0,0-.52-.39,1.33,1.33,0,0,0-.63-.15q-.3,0-.6.48c-.2.32-.46.79-.78,1.42Z"/><path class="cls-3" d="M233.14,46a1,1,0,0,0-.77.31,1,1,0,0,0-.28.74.93.93,0,0,0,.28.71,1.06,1.06,0,0,0,.77.28,1.08,1.08,0,0,0,.78-.28.94.94,0,0,0,.29-.71,1,1,0,0,0-.29-.74A1.06,1.06,0,0,0,233.14,46Z"/><rect class="cls-3" x="247.99" y="49.28" width="1.89" height="1.91" transform="translate(37.85 191.43) rotate(-45.19)"/><rect class="cls-3" x="251.24" y="49.3" width="1.88" height="1.91" transform="translate(38.33 193.04) rotate(-45)"/><rect class="cls-3" x="257.86" y="35.53" width="1.9" height="1.91" transform="translate(50 193.69) rotate(-45)"/><path class="cls-3" d="M270.35,32.78l-.29-.67-3.61,1.55-3.62,1.55c0,.28-.06.55-.1.82s-.06.55-.09.84c.33.27.66.56,1,.86s.64.6.93.9.58.61.84.91.5.59.7.86a7.49,7.49,0,0,1,.5.75,2.33,2.33,0,0,1,.27.61,3.47,3.47,0,0,1,.14,1,2.41,2.41,0,0,1-.39,1.36,1.77,1.77,0,0,1-.74.64,4,4,0,0,1-1,.32,7.24,7.24,0,0,1-1.17.12l-1.18,0h-.86a2,2,0,0,1-.83-.15,1.12,1.12,0,0,1-.48-.43,1.93,1.93,0,0,1-.23-.69A8,8,0,0,1,260,43a9.28,9.28,0,0,0-.14-1.23c-.07-.43-.18-.91-.32-1.43-.24.07-.47.13-.67.2s-.43.13-.69.19c.06.23.11.44.15.62s.08.37.11.54a4.28,4.28,0,0,1,.07.48,3.87,3.87,0,0,1,0,.48,2.07,2.07,0,0,1-.77,1.76,4,4,0,0,1-2.39.58h-.24a1.58,1.58,0,0,1-.84-.19,1.28,1.28,0,0,1-.48-.47,2.31,2.31,0,0,1-.24-.67c0-.25-.08-.5-.11-.75s-.06-.46-.08-.67,0-.4-.07-.61-.06-.41-.11-.63-.1-.46-.17-.72l-.67.19-.69.2c.06.23.11.44.15.62s.07.35.1.52a3.87,3.87,0,0,1,.06.46l0,.47a1.8,1.8,0,0,1-.3,1.17,2,2,0,0,1-.88.68,5,5,0,0,1-1.3.32,15.09,15.09,0,0,1-1.54.08h-.7a3.26,3.26,0,0,1-1-.12,1.51,1.51,0,0,1-1-.88c-.1-.21-.2-.45-.31-.71l-1.29-3.1c-.36-.87-.66-1.59-.89-2.16s-.51-1.22-.69-1.67l-.65.27-.67.29L243.71,44a2.3,2.3,0,0,1-.27.22l-.39.23-.46.24a5,5,0,0,1-.48.21,3.37,3.37,0,0,1-.73.19,4.13,4.13,0,0,1-.76.07,4.2,4.2,0,0,1-1.48-.3,5.11,5.11,0,0,1-1.51-.92c-.15.2-.28.4-.41.57l-.42.58a5.31,5.31,0,0,0,.78.64,5.16,5.16,0,0,0,1.83.79,4.75,4.75,0,0,0,1,.1,7.59,7.59,0,0,0,1.22-.09,5.8,5.8,0,0,0,1-.29h0l.47-.2.49-.23a4.73,4.73,0,0,0,.45-.23l.37-.24a3.61,3.61,0,0,0,.47.49,3,3,0,0,0,.62.41,3.14,3.14,0,0,0,.8.28,4.52,4.52,0,0,0,1,.1h.7a11.93,11.93,0,0,0,1.32-.07,8.81,8.81,0,0,0,1.3-.22,7.17,7.17,0,0,0,1.16-.38,3,3,0,0,0,.88-.59,3.14,3.14,0,0,0,.46.5,2.73,2.73,0,0,0,.56.4,3.61,3.61,0,0,0,.67.27,3.47,3.47,0,0,0,.81.09h.22a7.16,7.16,0,0,0,2.21-.3,4.07,4.07,0,0,0,1.55-.92,3.64,3.64,0,0,0,.46.5,3,3,0,0,0,1.22.63,3,3,0,0,0,.43,0,1.09,1.09,0,0,0,.26,0h3.33l.38-.05a3.56,3.56,0,0,0,2.63-1.72h0a4.48,4.48,0,0,0,.37-.89,3.59,3.59,0,0,0,.15-1.07,4.79,4.79,0,0,0-.11-1,5.2,5.2,0,0,0-.37-1.09,7.38,7.38,0,0,0-.67-1.2,10.86,10.86,0,0,0-1-1.3c-.36-.39-.73-.77-1.12-1.12s-.76-.67-1.11-1l6.65-2.79Z"/><rect class="cls-3" x="297.75" y="49.28" width="1.89" height="1.91" transform="translate(52.54 226.73) rotate(-45.19)"/><rect class="cls-3" x="301.01" y="49.3" width="1.88" height="1.91" transform="translate(52.9 228.23) rotate(-45)"/><path class="cls-3" d="M319.72,32.78c-.1-.21-.2-.44-.3-.67l-3.61,1.55-3.62,1.55-.09.82c0,.27-.07.55-.1.84.34.27.67.56,1,.86s.64.6.94.9.58.61.84.91.49.59.69.86.37.52.51.75a2.33,2.33,0,0,1,.27.61,3.85,3.85,0,0,1,.13,1,2.41,2.41,0,0,1-.39,1.36,1.77,1.77,0,0,1-.74.64,4.06,4.06,0,0,1-1,.32,7.49,7.49,0,0,1-1.18.12l-1.18,0H311a2.49,2.49,0,0,1-.59-.06A1.34,1.34,0,0,1,310,45a1.19,1.19,0,0,1-.31-.23,2.17,2.17,0,0,1-.24-.29,2.11,2.11,0,0,1-.16-.34c0-.11-.07-.22-.1-.32s0-.21,0-.31,0-.17,0-.25c0-.71,0-1.52,0-2.4s0-1.8,0-2.76c0-.48,0-1,0-1.45s0-1,0-1.42,0-.88-.06-1.28,0-.74-.08-1l-.69.09-.72.1c0,.27.05.58.06.94s0,.74,0,1.16,0,.85,0,1.3,0,.91,0,1.38,0,1.16,0,1.72,0,1.09,0,1.57,0,.89,0,1.25,0,.63,0,.81,0,.33-.05.49a3.41,3.41,0,0,1-.09.48,2.19,2.19,0,0,1-.17.41,1,1,0,0,1-.24.31.76.76,0,0,1-.19.12l-.25.08-.35,0-.49,0h-.92a1.58,1.58,0,0,1-.84-.19,1.32,1.32,0,0,1-.47-.47,1.85,1.85,0,0,1-.24-.67q-.08-.37-.12-.75c0-.24-.05-.46-.07-.67s-.05-.4-.08-.61-.06-.41-.1-.63a6.3,6.3,0,0,0-.18-.72l-.67.19c-.2.07-.43.13-.69.2.06.23.11.44.15.62s.08.35.11.52,0,.31,0,.46a3.59,3.59,0,0,1,0,.47,1.86,1.86,0,0,1-.29,1.17,2.09,2.09,0,0,1-.88.68,5.26,5.26,0,0,1-1.3.32,15.45,15.45,0,0,1-1.55.08h-.74a4.51,4.51,0,0,1-1.89-.37,3.78,3.78,0,0,1-1-.65,4.24,4.24,0,0,1-.67-.81,4.42,4.42,0,0,1-.46-.89c-.12-.31-.24-.62-.34-.92a6.41,6.41,0,0,0-.66-1.38,9.89,9.89,0,0,0-1-1.38,14.94,14.94,0,0,0-1.32-1.32,16.66,16.66,0,0,0-1.54-1.2l7.36-3.12L295,31.81l-7.92,3.41-.09.83c0,.27-.06.55-.09.85.24.18.52.41.84.67s.64.54,1,.85.67.63,1,1a9,9,0,0,1,.87,1,6.18,6.18,0,0,1,.61,1.07,2.45,2.45,0,0,1,.24,1,1.79,1.79,0,0,1-.41,1.13,3,3,0,0,1-1.35.88,6.55,6.55,0,0,1-.66.21,7.83,7.83,0,0,1-.89.21c-.34.06-.72.11-1.15.15s-.89.06-1.4.06H284.3l-.53,0-.57,0-.57,0a9.67,9.67,0,0,1-2.84-.66,2.89,2.89,0,0,1-1.48-1.21,2.12,2.12,0,0,1-.2-.9,3.51,3.51,0,0,1,.23-1.17h0a1.9,1.9,0,0,1,.11-.27c.05-.12.11-.23.17-.35s.15-.28.24-.43l-1.16-.86-.31.55a7.74,7.74,0,0,0-.39.81,3.45,3.45,0,0,0-.26.83,3.5,3.5,0,0,0-.08.78,3.46,3.46,0,0,0,.1.87,4.09,4.09,0,0,0,.27.77h0a5.19,5.19,0,0,0,.44.67,2.57,2.57,0,0,0,.5.49,5.27,5.27,0,0,0,1.1.68,7.69,7.69,0,0,0,1.22.43,10.91,10.91,0,0,0,1.29.26c.43.06.86.12,1.3.16s1.17.08,1.81.08h.84a17.73,17.73,0,0,0,2.77-.2,8.53,8.53,0,0,0,2.17-.64h0a6.54,6.54,0,0,0,1-.6,3.11,3.11,0,0,0,.86-1A5.66,5.66,0,0,0,294.4,46a6.07,6.07,0,0,0,2.69.61h.7a12,12,0,0,0,1.33-.07,9,9,0,0,0,1.3-.22,7,7,0,0,0,1.15-.38,3.07,3.07,0,0,0,.89-.59,2.73,2.73,0,0,0,.46.5,2.48,2.48,0,0,0,.56.4,2.83,2.83,0,0,0,1.47.36h1.11a3.7,3.7,0,0,0,.46,0,3,3,0,0,0,.5-.07,2.59,2.59,0,0,0,.51-.18A2,2,0,0,0,308,46l.21-.19.26-.27A2.63,2.63,0,0,0,309,46a3.88,3.88,0,0,0,.57.33,4.3,4.3,0,0,0,.69.22,3.21,3.21,0,0,0,.55,0l.15,0h3.33l.37-.05a3.56,3.56,0,0,0,2.63-1.72h0a4.48,4.48,0,0,0,.37-.89,3.59,3.59,0,0,0,.15-1.07,4.16,4.16,0,0,0-.11-1,5.14,5.14,0,0,0-.36-1.09,9.28,9.28,0,0,0-.67-1.2,11,11,0,0,0-1-1.3,14.79,14.79,0,0,0-1.12-1.12q-.58-.52-1.11-1L320,33.44Z"/><rect class="cls-3" x="335.14" y="36.8" width="1.88" height="1.91" transform="translate(71.05 247.84) rotate(-44.81)"/><rect class="cls-3" x="331.89" y="36.78" width="1.89" height="1.91" transform="translate(70.87 246.5) rotate(-45.02)"/><path class="cls-3" d="M342.41,42.52a8.46,8.46,0,0,0-.36-1.15c-.15-.38-.3-.74-.46-1.07s-.31-.62-.46-.87-.27-.44-.34-.57l-1.22.78c.09.14.21.36.38.65s.35.62.53,1a9.84,9.84,0,0,1,.48,1.19,4.65,4.65,0,0,1,.27,1.21,9.17,9.17,0,0,1-1.73.73,15,15,0,0,1-1.84.45c-.61.11-1.22.18-1.81.23s-1.13.06-1.62.06A18.47,18.47,0,0,1,331.9,45a13.44,13.44,0,0,1-1.88-.39,5.63,5.63,0,0,1-1.37-.62,1.89,1.89,0,0,1-1-1.71,2.32,2.32,0,0,1,.07-.56,4.51,4.51,0,0,1,.18-.61c.12-.23.21-.42.27-.55l.13-.29.07-.13a.43.43,0,0,0,0-.07l-1.15-.86c-.08.13-.18.3-.31.54a8.17,8.17,0,0,0-.37.82,5.54,5.54,0,0,0-.26.88,4.14,4.14,0,0,0-.09.84,3.16,3.16,0,0,0,.37,1.54,3.27,3.27,0,0,0,.94,1.15,5.61,5.61,0,0,0,1.51.85,12.27,12.27,0,0,0,2.29.54,21.1,21.1,0,0,0,2.9.21,14.16,14.16,0,0,0,1.88-.11c.68-.08,1.36-.2,2-.34a19.58,19.58,0,0,0,1.91-.53,9.07,9.07,0,0,0,1.54-.67,2.56,2.56,0,0,0,.73-.68,1.35,1.35,0,0,0,.23-.75,2.49,2.49,0,0,0,0-.47A5.27,5.27,0,0,0,342.41,42.52Z"/><rect class="cls-3" x="353.42" y="33.78" width="1.9" height="1.91" transform="translate(79.31 260.85) rotate(-45.02)"/><rect class="cls-3" x="363.24" y="49.3" width="1.88" height="1.91" transform="translate(71.13 272.23) rotate(-45)"/><rect class="cls-3" x="359.99" y="49.28" width="1.89" height="1.91" transform="translate(70.91 270.88) rotate(-45.19)"/><rect class="cls-3" x="375.84" y="49.11" width="1.9" height="1.91" transform="translate(74.96 281.1) rotate(-45)"/><path class="cls-3" d="M385.54,40.6c-.08-.22-.15-.44-.23-.65s-.15-.39-.22-.57l-.2-.47-.15-.33-1.3.65.15.34c.07.14.13.29.2.46l.21.52a4.11,4.11,0,0,1,.17.49c.14.43.25.82.33,1.18a4,4,0,0,1,.13,1,2,2,0,0,1-.14.8h0a1.38,1.38,0,0,1-.66.67,3.91,3.91,0,0,1-1,.36,9.16,9.16,0,0,1-1.2.14l-1.12,0h-.81a2,2,0,0,1-.83-.15,1.25,1.25,0,0,1-.48-.43,1.75,1.75,0,0,1-.22-.69,7.89,7.89,0,0,1-.08-.92,9.2,9.2,0,0,0-.13-1.23c-.08-.43-.19-.91-.33-1.43-.24.07-.47.13-.67.2s-.43.13-.69.19c.06.23.11.44.16.62s.08.37.11.54.05.33.07.48,0,.32,0,.48a2.07,2.07,0,0,1-.77,1.76,4,4,0,0,1-2.39.58h-.18a2.58,2.58,0,0,1-.6-.06,1.43,1.43,0,0,1-.44-.15,1.19,1.19,0,0,1-.31-.23,1.82,1.82,0,0,1-.4-.63,2.23,2.23,0,0,1-.09-.32,1.81,1.81,0,0,1-.05-.31v-.25c0-.71,0-1.52,0-2.4s0-1.8,0-2.76c0-.48,0-1,0-1.45s0-1,0-1.42,0-.88-.06-1.28,0-.74-.07-1l-.7.09-.72.1c0,.27.05.58.07.94s0,.74,0,1.16,0,.85,0,1.3,0,.91,0,1.38,0,1.16,0,1.72,0,1.09,0,1.57,0,.89,0,1.25,0,.63,0,.81a4.07,4.07,0,0,1-.05.49,3.41,3.41,0,0,1-.09.48,1.68,1.68,0,0,1-.17.41,1,1,0,0,1-.24.31.76.76,0,0,1-.19.12,1.23,1.23,0,0,1-.25.08l-.35,0-.49,0h-.91a1.54,1.54,0,0,1-.84-.19,1.28,1.28,0,0,1-.48-.47,2.05,2.05,0,0,1-.24-.67c-.05-.25-.08-.5-.11-.75s-.06-.46-.08-.67-.05-.4-.08-.61-.06-.41-.1-.63-.1-.46-.17-.72c-.25.06-.47.13-.67.19l-.69.2c.06.23.11.44.15.62s.07.35.1.52l.06.46c0,.15,0,.31,0,.47a1.86,1.86,0,0,1-.29,1.17,2.09,2.09,0,0,1-.88.68,5.15,5.15,0,0,1-1.3.32,15.25,15.25,0,0,1-1.54.08h-.73a12.26,12.26,0,0,1-1.9-.15,7.9,7.9,0,0,1-1.74-.46,7.45,7.45,0,0,0,1-.9,9,9,0,0,0,.89-1.09,5.16,5.16,0,0,0,.6-1.09,1.87,1.87,0,0,0,.18-.93,1.34,1.34,0,0,0-.06-.36,1.39,1.39,0,0,0-.22-.44,2,2,0,0,0-.43-.47,3.18,3.18,0,0,0-.72-.43,5.91,5.91,0,0,0-1.19-.35,7.42,7.42,0,0,0-1.34-.13l-.39,0-.42,0c-.25,0-.52.08-.82.14a7,7,0,0,0-.91.26,5.78,5.78,0,0,0-1,.43,5.07,5.07,0,0,0-.92.64l-.1,1.12.73.85c.37.45.75.9,1.14,1.33A15.15,15.15,0,0,0,353,44.47a7.66,7.66,0,0,1-.92.3q-.53.12-1.08.21c-.37.06-.73.1-1.1.14s-.71.05-1,.05h-.11a4.13,4.13,0,0,1-1-.14,1.6,1.6,0,0,1-.65-.36,1,1,0,0,1-.29-.57,6,6,0,0,1,0-.78v-.4c0-.18,0-.45,0-.8V39.93c0-.33,0-.67,0-1,0-.52,0-1,0-1.6s0-1.07,0-1.57-.05-1-.08-1.42-.08-.82-.14-1.14l-1.42.26c0,.29.09.66.12,1.11s.06.93.09,1.45,0,1,0,1.6,0,1,0,1.53c0,.26,0,.53,0,.82s0,.54,0,.76c0,.64,0,1.18,0,1.62s0,.72,0,.82v.17c0,.14,0,.3,0,.5a3.41,3.41,0,0,0,.08.61,2.93,2.93,0,0,0,.22.65,2.06,2.06,0,0,0,.43.61,2.84,2.84,0,0,0,1.15.69,5.16,5.16,0,0,0,1.62.22h.06a13.29,13.29,0,0,0,1.38-.07,14.32,14.32,0,0,0,1.44-.22c.47-.1.94-.22,1.4-.36a9.73,9.73,0,0,0,1.28-.5,7.66,7.66,0,0,0,2.27.88,12.75,12.75,0,0,0,2.68.27H360a11.93,11.93,0,0,0,1.32-.07,9,9,0,0,0,1.3-.22,7.51,7.51,0,0,0,1.16-.38,3.15,3.15,0,0,0,.88-.59,3.14,3.14,0,0,0,.46.5,2.48,2.48,0,0,0,.56.4,2.83,2.83,0,0,0,1.47.36h1.11a3.7,3.7,0,0,0,.46,0,3,3,0,0,0,.5-.07,2.59,2.59,0,0,0,.51-.18,2,2,0,0,0,.49-.3l.21-.19.26-.27a2.63,2.63,0,0,0,.46.41,3.88,3.88,0,0,0,.57.33,4.3,4.3,0,0,0,.69.22,3.53,3.53,0,0,0,.82.07h.18a7.16,7.16,0,0,0,2.21-.3,4.07,4.07,0,0,0,1.55-.92,3.64,3.64,0,0,0,.46.5,3,3,0,0,0,1.22.63l.3,0a.87.87,0,0,0,.28.05h2l.75,0,.77-.05a2.68,2.68,0,0,0,.61-.11,3.27,3.27,0,0,0,1.32-.69,3.4,3.4,0,0,0,.87-1.15,3.48,3.48,0,0,0,.26-1.39,6.48,6.48,0,0,0-.12-1.19A14,14,0,0,0,385.54,40.6Zm-30.62,2.77a2.92,2.92,0,0,1-.56.38c-.24-.2-.49-.41-.72-.64s-.47-.46-.71-.72-.48-.54-.73-.83l-.79-1a6.49,6.49,0,0,1,1.45-.61,5.56,5.56,0,0,1,1.42-.19,5.35,5.35,0,0,1,1.39.18,4.14,4.14,0,0,1,1.21.54,1.08,1.08,0,0,1-.11.44,4.08,4.08,0,0,1-.31.57,6.79,6.79,0,0,1-.44.65,8,8,0,0,1-.53.63A5.9,5.9,0,0,1,354.92,43.37Z"/><rect class="cls-3" x="381.07" y="34.44" width="1.89" height="1.91" transform="translate(86.95 280.6) rotate(-45.02)"/><rect class="cls-3" x="384.32" y="34.45" width="1.88" height="1.91" transform="translate(87.8 282.79) rotate(-45)"/><rect class="cls-3" x="410.61" y="48.96" width="1.89" height="1.91" transform="translate(85.99 306.58) rotate(-45.17)"/><path class="cls-3" d="M415.61,44.56a3.49,3.49,0,0,0,.25-1.39,6.48,6.48,0,0,0-.12-1.19,11.65,11.65,0,0,0-.35-1.38c-.07-.22-.15-.44-.23-.65s-.15-.39-.22-.57-.14-.33-.2-.47l-.15-.33-1.29.65a2.76,2.76,0,0,0,.15.34c.06.14.13.29.19.46l.21.52c.07.17.13.34.18.49.13.43.24.82.33,1.18a4.49,4.49,0,0,1,.12,1,2,2,0,0,1-.14.8h0a1.38,1.38,0,0,1-.66.67,3.91,3.91,0,0,1-1,.36,9.21,9.21,0,0,1-1.19.14l-1.13,0h-.61l-3.68,0a3.21,3.21,0,0,0,.93-.76,5.11,5.11,0,0,0,.71-1,5.64,5.64,0,0,0,.43-1.11,3.58,3.58,0,0,0,.11-1,2.39,2.39,0,0,0-.35-1.16,3.2,3.2,0,0,0-.8-.88,3.67,3.67,0,0,0-1.08-.55,3.84,3.84,0,0,0-1.19-.19l-.31,0-.31,0a8.74,8.74,0,0,0-4.41,2.62l0-1.52c0-.23,0-.41,0-.54s0-.26,0-.39,0-.28,0-.44,0-.39-.05-.69l0-.42c0-.24,0-.5-.08-.79s-.05-.59-.08-.89-.06-.61-.1-.91-.06-.57-.09-.83-.05-.48-.07-.67,0-.33-.05-.42l-1.42.31c0,.13.05.33.08.61s.08.6.12,1,.09.83.14,1.32.09,1,.13,1.57.07,1,.09,1.47,0,.83,0,1.21c0,.22,0,.43,0,.63s0,.4,0,.6,0,.42,0,.66a6.38,6.38,0,0,1-.09.79l-.22.33c-.25.31-.49.61-.71.91l-.52.74c-.42-.1-.83-.22-1.22-.33s-.76-.25-1.12-.39l-.25.66c-.07.2-.16.43-.26.68a18.76,18.76,0,0,0,2.83.83,16.57,16.57,0,0,0,2.72.37h0l.7,0h11.08l.75,0,.77-.05a2.68,2.68,0,0,0,.61-.11,3.31,3.31,0,0,0,1.33-.69A3.68,3.68,0,0,0,415.61,44.56Zm-10.82-.36a7.13,7.13,0,0,1-1.21.54,6.69,6.69,0,0,1-1.19.3c-.4.05-.79.09-1.16.11l-2.91-.09,1.6-2a14.27,14.27,0,0,1,2.38-2.17,5.16,5.16,0,0,1,2.1-.94,2.58,2.58,0,0,1,.42,0,3,3,0,0,1,.65.08,2,2,0,0,1,.61.24,1.62,1.62,0,0,1,.48.42,1.26,1.26,0,0,1,.24.62,2.25,2.25,0,0,1,0,.57,2.78,2.78,0,0,1-.17.56,4.11,4.11,0,0,1-.27.51,3.85,3.85,0,0,1-.33.42A6.41,6.41,0,0,1,404.79,44.2Z"/><rect class="cls-3" x="413.86" y="48.98" width="1.88" height="1.91" transform="translate(86.28 308.05) rotate(-45.02)"/><path class="cls-3" d="M420.26,38.43c0-.37,0-.77-.05-1.2s0-.87-.07-1.32-.06-.89-.09-1.3-.07-.77-.11-1.12c0-.18,0-.32-.05-.43a1.78,1.78,0,0,1,0-.28c0-.07,0-.12,0-.14a.18.18,0,0,1,0-.06l-1.43.22c0,.19.06.53.11,1s.1,1.07.16,1.79.1,1.56.14,2.52.06,2,.06,3.13c0,.42,0,.83,0,1.26s0,.85,0,1.29,0,.89-.06,1.36,0,.94-.07,1.44l1.43.08c.07-1,.11-1.94.14-2.84s0-1.75,0-2.57c0-.52,0-1,0-1.49S420.27,38.86,420.26,38.43Z"/><polygon class="cls-3" points="429.04 46.6 429.03 46.6 429.03 46.6 429.04 46.6"/><rect class="cls-3" x="438.44" y="35.27" width="1.89" height="1.91" transform="translate(102.97 321.18) rotate(-44.98)"/><rect class="cls-3" x="436.73" y="32.71" width="1.7" height="1.72" transform="translate(104.43 319.25) rotate(-45)"/><polygon class="cls-3" points="437.02 36.22 435.67 34.87 434.33 36.21 435.68 37.56 437.02 36.22"/><path class="cls-3" d="M442.4,40.63a11,11,0,0,0-.46-1.15c-.15-.34-.27-.59-.35-.76l-1.27.68c.11.22.23.49.37.82s.27.68.39,1.05.22.76.31,1.14a5.25,5.25,0,0,1,.12,1.08,2.71,2.71,0,0,1-.09.71,1.73,1.73,0,0,1-.28.56,1.37,1.37,0,0,1-.48.38,1.67,1.67,0,0,1-.69.14,1.55,1.55,0,0,1-.76-.17,1.3,1.3,0,0,1-.47-.43,2,2,0,0,1-.24-.62,4.44,4.44,0,0,1-.06-.74,5.56,5.56,0,0,1,0-.67c0-.25.06-.5.1-.74s.07-.47.11-.69.06-.38.09-.51h0l-.68-.12-.71-.14c0,.27-.1.57-.17.92s-.16.69-.27,1a10,10,0,0,1-.39,1,4.42,4.42,0,0,1-.52.91,2.49,2.49,0,0,1-.69.65,1.63,1.63,0,0,1-.87.24,1.13,1.13,0,0,1-.58-.13,1,1,0,0,1-.36-.33,1.26,1.26,0,0,1-.18-.48,3.19,3.19,0,0,1-.05-.54,4.76,4.76,0,0,1,.06-.72c0-.26.1-.51.16-.76s.12-.48.19-.71.12-.42.17-.58l-1.43-.29c-.06.31-.14.62-.23,1a8.8,8.8,0,0,1-.35,1,7.44,7.44,0,0,1-.46.94,3.73,3.73,0,0,1-.62.79,2.91,2.91,0,0,1-.79.56,2.52,2.52,0,0,1-1,.23,1.84,1.84,0,0,1-.86-.23,2.45,2.45,0,0,1-.77-.69,5.93,5.93,0,0,1-.72-1.2c-.22-.49-.45-1.08-.69-1.76l-1.37.42c.08.24.16.53.27.86s.19.68.29,1,.19.73.27,1.1.14.72.19,1.05c0,.06,0,.12,0,.18s0,.12,0,.19a3.76,3.76,0,0,1-.2,1.19,4.76,4.76,0,0,1-.53,1.12,7,7,0,0,1-.81,1,10.26,10.26,0,0,1-1,.94,11.09,11.09,0,0,1-1.16.84c-.41.26-.82.5-1.24.72.11.23.21.44.31.63s.21.4.33.65a15,15,0,0,0,1.44-.84,13.55,13.55,0,0,0,1.35-1,12.87,12.87,0,0,0,1.19-1.14,8.41,8.41,0,0,0,.93-1.27,6.12,6.12,0,0,0,.63-1.38,5.23,5.23,0,0,0,.22-1.47v-.49a3.7,3.7,0,0,0,.65.54,2.71,2.71,0,0,0,.57.28,2,2,0,0,0,.47.1h.33a4.72,4.72,0,0,0,.87-.1,3.52,3.52,0,0,0,.81-.28,3.32,3.32,0,0,0,.7-.44,6.87,6.87,0,0,0,.63-.58,2.26,2.26,0,0,0,.44.65,2.9,2.9,0,0,0,.58.48,3,3,0,0,0,.67.29,2.5,2.5,0,0,0,.66.09,2.84,2.84,0,0,0,1.43-.4,5.52,5.52,0,0,0,1.3-1.1,3.41,3.41,0,0,0,.49.59,3.75,3.75,0,0,0,.6.47,3,3,0,0,0,.65.32,2,2,0,0,0,.67.12,3.92,3.92,0,0,0,1.47-.22,2.67,2.67,0,0,0,1-.65,2.57,2.57,0,0,0,.62-1,4.05,4.05,0,0,0,.21-1.34,6.57,6.57,0,0,0-.17-1.44A13.36,13.36,0,0,0,442.4,40.63Z"/><path class="cls-3" d="M454.9,45.46c0-.18-.06-.38-.1-.61s-.09-.45-.14-.69-.11-.48-.17-.73-.13-.48-.19-.71c-.14-.53-.29-1.09-.45-1.65l-1.39.43c0,.08.06.21.12.38l.18.6c.07.23.14.47.21.74s.14.53.21.81.13.55.18.81.09.51.11.74a1.37,1.37,0,0,1,0,.19,1.09,1.09,0,0,1,0,.18,3.86,3.86,0,0,1-.42,1.75A6.87,6.87,0,0,1,452,49.28a10.65,10.65,0,0,1-1.59,1.38,16.18,16.18,0,0,1-1.86,1.13l.63,1.28a15.27,15.27,0,0,0,1.46-.84,13.6,13.6,0,0,0,1.36-1,11.66,11.66,0,0,0,1.18-1.15,7.86,7.86,0,0,0,.93-1.26,6.36,6.36,0,0,0,.62-1.39,4.91,4.91,0,0,0,.22-1.48,2.26,2.26,0,0,0,0-.27A1.62,1.62,0,0,1,454.9,45.46Z"/><rect class="cls-3" x="452.14" y="36.17" width="1.9" height="1.91" transform="translate(106.45 331.25) rotate(-45)"/><path class="cls-3" d="M459.23,38.43c0-.37,0-.77-.05-1.2s0-.87-.07-1.32-.06-.89-.09-1.3-.07-.77-.11-1.12c0-.18,0-.32-.05-.43a1.78,1.78,0,0,1,0-.28c0-.07,0-.12,0-.14a.18.18,0,0,1,0-.06l-1.43.22c0,.19.06.53.11,1s.1,1.07.16,1.79.1,1.56.14,2.52.06,2,.06,3.13c0,.42,0,.83,0,1.26s0,.85,0,1.29,0,.89-.05,1.36-.05.94-.08,1.44l1.43.08c.07-1,.11-1.94.14-2.84s0-1.75,0-2.57c0-.52,0-1,0-1.49S459.24,38.86,459.23,38.43Z"/><path class="cls-3" d="M472,41.63h0Z"/><path class="cls-3" d="M477.33,51a8,8,0,0,1-1.1.45,6.65,6.65,0,0,1-1.15.28,7.55,7.55,0,0,1-1.16.09,6.74,6.74,0,0,1-2-.29,4.89,4.89,0,0,1-1.64-.84,3.78,3.78,0,0,1-1.09-1.38,3.74,3.74,0,0,1-.32-1.89h0a4.29,4.29,0,0,1,.22-1.11,4.45,4.45,0,0,1,.45-.93,4.65,4.65,0,0,1,.6-.77,7,7,0,0,1,.66-.59c.23-.18.44-.32.64-.45s.38-.22.53-.29.54-.26.81-.37a8.18,8.18,0,0,1,.88-.31c.31-.1.67-.19,1.07-.28s.86-.18,1.4-.27l1.19-.2,1-.17a6.29,6.29,0,0,1-.11-.74c0-.24-.07-.49-.12-.74l-.59.14-.63.13-.78.13-.48,0h-.46a5.1,5.1,0,0,1-1.3-.15,3.09,3.09,0,0,1-.93-.41,1.58,1.58,0,0,1-.7-1.25,2.49,2.49,0,0,1,.12-1.05,2.16,2.16,0,0,1,.51-.77,2.38,2.38,0,0,1,.77-.5,3.76,3.76,0,0,1,.94-.27,2.43,2.43,0,0,1,.89.16,5.15,5.15,0,0,1,.85.41,7.63,7.63,0,0,1,.88.6l.45-.55.46-.57a8.1,8.1,0,0,0-.78-.61,6.45,6.45,0,0,0-.89-.49,5.38,5.38,0,0,0-1-.31,3.53,3.53,0,0,0-1-.07,3.89,3.89,0,0,0-2.6,1.14,3.74,3.74,0,0,0-.82,1.17,3.42,3.42,0,0,0-.31,1.42,3.56,3.56,0,0,0,.34,1.55,3,3,0,0,0,1,1.17l.43.22-.51.17a8.53,8.53,0,0,0-.91.45c-.31.18-.61.37-.89.57a8.5,8.5,0,0,0-.8.66,6.35,6.35,0,0,0-.67.71,6.44,6.44,0,0,0-.9,1.56,5.05,5.05,0,0,0-.38,1.71,5.91,5.91,0,0,0,.24,2.14,4.62,4.62,0,0,0,1,1.81,5.81,5.81,0,0,0,1.15,1,7.74,7.74,0,0,0,1.29.64,7.05,7.05,0,0,0,1.35.35,8.73,8.73,0,0,0,1.34.1q.6,0,1.23-.06a7.06,7.06,0,0,0,1.31-.26,6.79,6.79,0,0,0,1.35-.54,7.73,7.73,0,0,0,1.4-.91l-.85-1.21A6.47,6.47,0,0,1,477.33,51Z"/><path class="cls-3" d="M506.48,40.2a3.65,3.65,0,0,0-.59-.84,2.9,2.9,0,0,0-.71-.51,4,4,0,0,0-.79-.3,4.81,4.81,0,0,0-.84-.1,5,5,0,0,0-.86.07,6.44,6.44,0,0,0-2.07.84,14.17,14.17,0,0,0-2.35,1.81v-.41c0-.16,0-.32,0-.49s0-.34,0-.5,0-.29,0-.4c0-1.15,0-2.26-.1-3.34s-.17-2.13-.3-3.18l-1.49.27.19,2c.06.68.12,1.4.16,2.17s.06,1.51.05,2.24,0,1.46-.06,2-.09,1.08-.16,1.48a12,12,0,0,0-.78,1.07c-.19.31-.33.55-.43.73h0l-.12.21-.1.16h-1.78l-.38-.08a2.48,2.48,0,0,1-.6-.25h0a1.48,1.48,0,0,1-.4-.32,1.36,1.36,0,0,1-.25-.39,2.24,2.24,0,0,1-.13-.48c0-.17-.05-.35-.07-.55q-.06-1-.15-2.16c0-.76-.11-1.51-.17-2.25s-.12-1.46-.18-2.13-.12-1.28-.17-1.8l-.12-1.25c0-.31-.05-.47-.05-.48l-1.44.15,0,.22c0,.22,0,.51.09.88s.07.78.12,1.25.09,1,.14,1.54.1,1.12.15,1.71.09,1.17.14,1.77.08,1.17.12,1.73h0s0,.09,0,.14v.14a2.19,2.19,0,0,1-.14.77,2.8,2.8,0,0,1-.38.7,3.39,3.39,0,0,1-.58.62,4.49,4.49,0,0,1-.73.5,20.79,20.79,0,0,0-1.05-3.3,31.27,31.27,0,0,0-1.78-3.67l-.72-1.21c-.23-.38-.44-.73-.64-1s-.36-.58-.51-.8l-.35-.5-1.17.84.51.77c.24.37.52.81.84,1.33s.65,1.11,1,1.76.69,1.33,1,2,.62,1.43.88,2.16a14,14,0,0,1,.59,2.14c-.33.07-.65.12-1,.16a6.87,6.87,0,0,1-.88,0h-.47l-.42,0c-.05.24-.09.47-.13.69l-.13.72a9,9,0,0,0,1.17.08,9.55,9.55,0,0,0,2-.21h0a8.4,8.4,0,0,0,2-.77A6.52,6.52,0,0,0,490.69,45a3.49,3.49,0,0,0,.79.92,3,3,0,0,0,.81.49,2.3,2.3,0,0,0,.67.19l.39,0h5.82c.45,0,.93,0,1.44-.07a8.48,8.48,0,0,0,1.59-.29,9.09,9.09,0,0,0,1.64-.64,7.8,7.8,0,0,0,1.62-1.13,5.65,5.65,0,0,0,.49-.61,5.85,5.85,0,0,0,.44-.78,5,5,0,0,0,.29-.9,3.07,3.07,0,0,0,.07-1A2.85,2.85,0,0,0,506.48,40.2Zm-1,1.7A2.42,2.42,0,0,1,504.9,43a4.36,4.36,0,0,1-.43.43,7,7,0,0,1-1.54,1,7.82,7.82,0,0,1-1.52.52,7.66,7.66,0,0,1-1.47.21c-.48,0-.94,0-1.38,0h-1.74l.73-1,.45-.59.27-.33.17-.2h0a14.4,14.4,0,0,1,2.38-2.15,5.91,5.91,0,0,1,2.09-1,2.94,2.94,0,0,1,.79,0,2.89,2.89,0,0,1,.78.2,2,2,0,0,1,.63.45,1.37,1.37,0,0,1,.35.7A1.9,1.9,0,0,1,505.45,41.9Z"/><path class="cls-3" d="M510.67,38.43c0-.37,0-.77,0-1.2s-.05-.87-.08-1.32-.06-.89-.09-1.3-.06-.77-.11-1.12c0-.18,0-.32-.05-.43s0-.21,0-.28a.88.88,0,0,0,0-.14.35.35,0,0,0,0-.06l-1.43.22c0,.19.06.53.11,1s.11,1.07.16,1.79.1,1.56.14,2.52.06,2,.06,3.13c0,.42,0,.83,0,1.26s0,.85,0,1.29,0,.89-.05,1.36-.05.94-.08,1.44l1.43.08c.07-1,.12-1.94.14-2.84s0-1.75,0-2.57c0-.52,0-1,0-1.49S510.68,38.86,510.67,38.43Z"/><rect class="cls-3" x="527.8" y="36.85" width="1.88" height="1.91" transform="translate(126.88 383.49) rotate(-44.79)"/><rect class="cls-3" x="524.55" y="36.83" width="1.89" height="1.91" transform="translate(127.2 382.65) rotate(-45)"/><rect class="cls-3" x="553.55" y="49.15" width="1.9" height="1.91" transform="translate(126.72 406.45) rotate(-44.96)"/><path class="cls-3" d="M560.81,42.22q-.07-.31-.15-.72c-.37-.14-.71-.28-1-.42l-.88-.41-.85-.42-1-.47-1-.44c-.31-.15-.62-.27-.92-.38a9,9,0,0,0-.9-.27,4.47,4.47,0,0,0-.87-.1,3.34,3.34,0,0,0-1.61.42,4.88,4.88,0,0,0-1.45,1.24,8.35,8.35,0,0,0-.54.72c-.12.21-.22.38-.29.52l1.23.73c.05-.09.11-.2.2-.34a3.72,3.72,0,0,1,.31-.46,6,6,0,0,1,.41-.5,3.5,3.5,0,0,1,.5-.44,2.23,2.23,0,0,1,.58-.33,1.8,1.8,0,0,1,.66-.12,3.2,3.2,0,0,1,.65.08,7,7,0,0,1,.74.24c.26.1.52.22.8.34l.85.4,2.72,1.13c-.75.38-1.53.74-2.33,1.09s-1.61.67-2.43.95a22.47,22.47,0,0,1-2.5.66,13.31,13.31,0,0,1-2.49.25H547.5a3.11,3.11,0,0,0-1,.16,4.22,4.22,0,0,0-1,.46,4.34,4.34,0,0,0-.85.7,4.31,4.31,0,0,0-1.08,2,3.72,3.72,0,0,0-.09,1.16,3.25,3.25,0,0,1-.76-.65,7.47,7.47,0,0,1-.63-.85,7.23,7.23,0,0,1-.5-.88c-.14-.29-.25-.54-.33-.74a7.16,7.16,0,0,0,1.23-.32,5.48,5.48,0,0,0,1.08-.55,3.76,3.76,0,0,0,.87-.77,3.19,3.19,0,0,0,.57-1,2.15,2.15,0,0,0,.19-.62,3.54,3.54,0,0,0,.07-.75,6.09,6.09,0,0,0-.16-1.31,4.87,4.87,0,0,0-.45-1.25A3.12,3.12,0,0,0,544,39a1.46,1.46,0,0,0-1-.36,2.19,2.19,0,0,0-1.08.42,4,4,0,0,0-.88.91,7,7,0,0,0-.69,1.24,10,10,0,0,0-.76,2.79,6.34,6.34,0,0,0-.06,1.2h-1.36a2.82,2.82,0,0,1-2.32-.89,2.09,2.09,0,0,1-.41-.83,3.9,3.9,0,0,1-.13-.87,4.21,4.21,0,0,1,.1-.95c0-.17.07-.3.09-.4s.05-.21.08-.33l-.68-.2-.7-.19c-.08.27-.18.54-.28.82a6.66,6.66,0,0,1-.37.82,5,5,0,0,1-.53.8,4.76,4.76,0,0,1-.71.71h0a6,6,0,0,1-2.41,1.15,14.2,14.2,0,0,1-3.49.37,16.69,16.69,0,0,1-2.08-.13,9.35,9.35,0,0,1-1.69-.39,5.52,5.52,0,0,1-1.29-.61,2.56,2.56,0,0,1-1.12-1.58,3.51,3.51,0,0,1-.09-.77,3.27,3.27,0,0,1,.08-.7,5.38,5.38,0,0,1,.18-.64,5.58,5.58,0,0,1,.21-.52c.07-.16.13-.28.16-.37l-.63-.35-.64-.36-.27.66a7.41,7.41,0,0,0-.33,1.08,5.86,5.86,0,0,0-.12.63,5.07,5.07,0,0,0,0,.68,4.82,4.82,0,0,0,.13,1.12,4,4,0,0,0,.45,1.1,4.61,4.61,0,0,0,2.58,2,13.92,13.92,0,0,0,4.51.64c3.4,0,6-.89,7.67-2.68a3.71,3.71,0,0,0,.64,1.22h0a4,4,0,0,0,3.36,1.42h1.71L540,47a9.72,9.72,0,0,0,.62,1.48,10.61,10.61,0,0,0,.93,1.47,11,11,0,0,0,1.27,1.4,11.22,11.22,0,0,0,1.64,1.25l1-1.15a2.35,2.35,0,0,1-.52-.84,2.51,2.51,0,0,1-.16-.9,2.77,2.77,0,0,1,.22-1.1,3,3,0,0,1,.6-1,3.08,3.08,0,0,1,.87-.7,2.48,2.48,0,0,1,1.06-.3h1.89a14.35,14.35,0,0,0,2.67-.25,20.22,20.22,0,0,0,2.6-.67c.84-.27,1.65-.57,2.42-.9s1.49-.67,2.15-1l.53-.27.38-.19a3.34,3.34,0,0,1,.38-.17l.51-.22C560.91,42.68,560.86,42.44,560.81,42.22ZM541,45l0-.31c0-.1,0-.19,0-.27a4.79,4.79,0,0,1,.09-.89,7.83,7.83,0,0,1,.22-.93,7.62,7.62,0,0,1,.33-.91A5,5,0,0,1,542,41a3.07,3.07,0,0,1,.49-.56.92.92,0,0,1,.51-.24l.13,0a1.92,1.92,0,0,1,.64.83,2.67,2.67,0,0,1,.21,1.06,3.64,3.64,0,0,1-.18,1.07,3.4,3.4,0,0,1-.51,1,2.84,2.84,0,0,1-.81.7,2.12,2.12,0,0,1-1.06.27h-.17Z"/><rect class="cls-3" x="587.67" y="10.67" width="0.72" height="59" rx="0.36"/><path class="cls-4" d="M199.52,52.23c-6.93,16.21-25.24,23.18-39.59,22-3.92-.32-11.8-1-18-6.8-11.82-11.17-10-34.53,1.31-48.29,1.46-1.77,11.54-13.64,27.26-13.48a34.55,34.55,0,0,1,20.56,7.43,31.41,31.41,0,0,1,6.44,7.31C203.35,29.45,203.86,42.1,199.52,52.23Z"/><path class="cls-5" d="M152.27,50.61h0a.1.1,0,0,1,0-.12c.06-.1.12-.2.19-.3a.08.08,0,0,1,.12,0,.08.08,0,0,1,0,.12l-.18.29A.12.12,0,0,1,152.27,50.61Z"/><path class="cls-5" d="M173.07,53.73a.09.09,0,0,1-.08-.06c-.06-.22-.12-.43-.19-.64A.09.09,0,1,1,173,53c.07.21.13.43.19.64a.09.09,0,0,1-.07.11Zm-.57-1.66a.1.1,0,0,1-.08,0,6.54,6.54,0,0,0-.28-.6.09.09,0,0,1,0-.12.1.1,0,0,1,.12,0c.1.2.19.4.28.61a.08.08,0,0,1,0,.11Zm-.82-1.55a.13.13,0,0,1-.07,0c-.12-.19-.24-.38-.37-.56a.08.08,0,0,1,0-.12.11.11,0,0,1,.12,0l.38.56a.09.09,0,0,1,0,.12ZM153.1,49.44l0,0a.08.08,0,0,1,0-.12c.14-.18.29-.35.44-.51a.09.09,0,1,1,.13.11,5.27,5.27,0,0,0-.43.51A.11.11,0,0,1,153.1,49.44Zm17.54-.33a.09.09,0,0,1-.07,0,5.23,5.23,0,0,0-.45-.49.08.08,0,0,1,0-.12.07.07,0,0,1,.12,0c.15.16.31.32.45.49a.11.11,0,0,1,0,.13Zm-16.34-1a.09.09,0,0,1-.06,0,.09.09,0,0,1,0-.12c.17-.15.34-.3.52-.44a.09.09,0,0,1,.12,0,.08.08,0,0,1,0,.12l-.5.44Zm15.09-.29,0,0-.52-.41a.08.08,0,0,1,0-.12.08.08,0,0,1,.12,0c.18.13.36.27.53.42a.09.09,0,0,1-.06.15Zm-13.7-.79a.12.12,0,0,1-.08,0,.1.1,0,0,1,0-.12l.57-.36a.1.1,0,0,1,.12,0,.09.09,0,0,1,0,.12l-.57.35ZM168,46.84h-.05l-.57-.33a.09.09,0,1,1,.08-.15c.2.1.39.22.58.33a.09.09,0,0,1,0,.12A.07.07,0,0,1,168,46.84Zm-10.75-.62a.08.08,0,0,1-.08,0,.08.08,0,0,1,0-.11c.2-.1.41-.19.62-.27a.08.08,0,0,1,.11.05.08.08,0,0,1,0,.11l-.61.26Zm9.19-.17h0l-.62-.24a.09.09,0,1,1,.06-.16q.31.11.63.24a.08.08,0,0,1,0,.11A.07.07,0,0,1,166.41,46.05Zm-7.55-.44a.1.1,0,0,1-.08-.06.09.09,0,0,1,.06-.11l.65-.17a.09.09,0,0,1,.11.07.09.09,0,0,1-.07.1l-.64.16Zm5.88-.11h0c-.22-.06-.44-.1-.65-.14a.09.09,0,0,1-.07-.1.08.08,0,0,1,.1-.07l.66.14a.09.09,0,0,1,.06.1A.08.08,0,0,1,164.74,45.5Zm-4.16-.24a.09.09,0,0,1-.08-.08.09.09,0,0,1,.07-.1l.67-.06a.1.1,0,0,1,.1.08.09.09,0,0,1-.08.09l-.67.07Zm2.43,0h0l-.67,0a.09.09,0,0,1,0-.17h0l.67,0a.08.08,0,0,1,.08.09A.08.08,0,0,1,163,45.21Z"/><path class="cls-5" d="M173.34,55.14a.08.08,0,0,1-.08-.07c0-.12,0-.23,0-.34a.09.09,0,0,1,.17,0c0,.11,0,.23.05.34a.1.1,0,0,1-.08.1Z"/><path class="cls-5" d="M171,63.65a.06.06,0,0,1-.05,0,.08.08,0,0,1,0-.12l.2-.27a.09.09,0,0,1,.13,0,.09.09,0,0,1,0,.12l-.21.28A.08.08,0,0,1,171,63.65Z"/><path class="cls-5" d="M162,68h0c-.23,0-.47,0-.7,0a.09.09,0,0,1-.09-.09.1.1,0,0,1,.1-.08c.23,0,.46,0,.69,0a.08.08,0,0,1,.09.08A.09.09,0,0,1,162,68Zm1.15,0a.09.09,0,0,1-.09-.08.1.1,0,0,1,.08-.1l.69-.08a.08.08,0,0,1,.1.07.09.09,0,0,1-.07.1l-.71.09Zm-3-.11h0l-.69-.14a.09.09,0,0,1,0-.17c.23.06.46.1.69.14a.08.08,0,0,1,.07.1A.08.08,0,0,1,160.13,67.86Zm4.79-.22a.08.08,0,0,1-.08-.06.1.1,0,0,1,.06-.11c.23-.06.45-.12.67-.2a.09.09,0,0,1,.11.06.09.09,0,0,1-.05.11l-.68.2Zm-6.58-.23h0l-.67-.25a.08.08,0,0,1,0-.11.08.08,0,0,1,.11,0c.21.09.43.17.65.24a.1.1,0,0,1,.06.11A.09.09,0,0,1,158.34,67.41Zm8.32-.38a.08.08,0,0,1-.07,0,.09.09,0,0,1,0-.12q.31-.14.63-.3a.08.08,0,0,1,.11,0,.07.07,0,0,1,0,.11c-.21.11-.43.22-.64.31Zm-10-.35h0c-.21-.11-.41-.23-.61-.35a.08.08,0,0,1,0-.12.09.09,0,0,1,.12,0l.6.35a.09.09,0,0,1,0,.12A.12.12,0,0,1,156.64,66.68Zm11.64-.54a.09.09,0,0,1-.07,0,.09.09,0,0,1,0-.12c.19-.12.38-.26.57-.4a.09.09,0,1,1,.1.14c-.19.14-.38.28-.58.41Zm-13.19-.45-.05,0c-.19-.14-.38-.3-.55-.45a.09.09,0,0,1,.11-.13c.17.15.36.3.54.44a.08.08,0,0,1,0,.12A.13.13,0,0,1,155.09,65.69ZM169.74,65a.07.07,0,0,1-.06,0,.08.08,0,0,1,0-.12c.17-.16.34-.32.5-.49a.07.07,0,0,1,.12,0,.08.08,0,0,1,0,.12l-.51.49Zm-16-.56a.09.09,0,0,1-.07,0c-.16-.17-.32-.34-.47-.53a.09.09,0,0,1,0-.12.09.09,0,0,1,.12,0c.15.18.31.36.47.53a.09.09,0,0,1,0,.12ZM152.56,63a.08.08,0,0,1-.07,0c-.13-.2-.26-.4-.38-.6a.08.08,0,0,1,0-.12.09.09,0,0,1,.12,0c.11.2.24.4.37.59a.08.08,0,0,1,0,.12Zm-.91-1.6a.08.08,0,0,1-.08,0c-.1-.21-.19-.43-.28-.65a.08.08,0,0,1,.05-.11.08.08,0,0,1,.11,0c.08.22.18.44.28.65a.08.08,0,0,1,0,.11ZM151,59.68a.1.1,0,0,1-.09-.07c-.06-.22-.12-.45-.17-.68a.09.09,0,0,1,.07-.11.08.08,0,0,1,.1.07c.05.23.11.45.17.68a.08.08,0,0,1-.06.1Z"/><path class="cls-5" d="M150.65,57.86a.08.08,0,0,1-.08-.07c0-.12,0-.24,0-.35a.07.07,0,0,1,.07-.09.09.09,0,0,1,.1.08l0,.34a.08.08,0,0,1-.08.09Z"/><path class="cls-5" d="M153.24,56.11a.13.13,0,0,0,.07.14l1.48.78a7.39,7.39,0,0,0,.56,2.29l-.95,1.37a.15.15,0,0,0,0,.16l1.19,1.61a.12.12,0,0,0,.15,0l1.59-.49a7.46,7.46,0,0,0,2,1.22l.3,1.64a.14.14,0,0,0,.11.11l2,.3a.13.13,0,0,0,.14-.07l.78-1.48a7.18,7.18,0,0,0,2.29-.56l1.37.95a.13.13,0,0,0,.16,0l1.61-1.19a.12.12,0,0,0,0-.15l-.5-1.59a7.08,7.08,0,0,0,1.22-2l1.65-.3a.15.15,0,0,0,.11-.12l.3-2a.15.15,0,0,0-.07-.15l-1.48-.77a7.12,7.12,0,0,0-.56-2.29l.95-1.37a.15.15,0,0,0,0-.16l-1.19-1.62a.16.16,0,0,0-.15,0l-1.59.5a7.31,7.31,0,0,0-2-1.22l-.3-1.64a.14.14,0,0,0-.12-.11l-2-.31a.14.14,0,0,0-.14.07l-.77,1.48a7.39,7.39,0,0,0-2.29.56l-1.37-.95a.15.15,0,0,0-.16,0L156.07,50a.16.16,0,0,0,0,.15l.5,1.59a7.36,7.36,0,0,0-1.22,2l-1.64.3a.12.12,0,0,0-.11.11Z"/><path class="cls-2" d="M162.08,58.36a1.84,1.84,0,0,1-1.21-.44,1.87,1.87,0,0,1-.69-1.29,1.91,1.91,0,1,1,3.8-.36,1.88,1.88,0,0,1-.43,1.4A1.91,1.91,0,0,1,162.08,58.36Zm0-3.56a1.65,1.65,0,0,0-1.64,1.81,1.61,1.61,0,0,0,.59,1.11h0a1.65,1.65,0,0,0,2.1-2.54A1.67,1.67,0,0,0,162.08,54.8Z"/><path class="cls-2" d="M162.13,61.42a5,5,0,0,1-.76-.06,4.9,4.9,0,0,1-3.24-2h0a4.17,4.17,0,0,1-.43-.69h0v0h0v0l0,0-.06-.12.24-.11a5.32,5.32,0,0,0,.5.87h0a4.7,4.7,0,0,0,8.49-2.79,4.7,4.7,0,0,0-7.48-3.78,4.73,4.73,0,0,0-1.55,2l-.24-.1a5,5,0,0,1,5.33-3,5,5,0,0,1,4.2,4.9,5,5,0,0,1-5,5Z"/><path class="cls-5" d="M173.32,62.39l0,0a.08.08,0,0,1,0-.12c.06-.1.13-.19.2-.29a.09.09,0,0,1,.12,0,.09.09,0,0,1,0,.12,2.22,2.22,0,0,0-.19.27A.1.1,0,0,1,173.32,62.39Z"/><path class="cls-5" d="M179.5,62.46s-.05,0-.07-.05a3.39,3.39,0,0,0-.27-.39l-.11-.14a.09.09,0,0,1,0-.12.09.09,0,0,1,.13,0l.12.14a4.38,4.38,0,0,1,.28.42.08.08,0,0,1,0,.11Zm-5.2-1.12a.08.08,0,0,1-.07,0,.08.08,0,0,1,0-.12,3.56,3.56,0,0,1,.6-.34.08.08,0,0,1,.07.15,4,4,0,0,0-.57.33Zm4-.14h-.05a3.59,3.59,0,0,0-.59-.29.1.1,0,0,1,0-.11.08.08,0,0,1,.11,0,3.23,3.23,0,0,1,.62.3.09.09,0,0,1,0,.12A.07.07,0,0,1,178.28,61.2Zm-2.35-.5a.08.08,0,0,1-.08-.08.07.07,0,0,1,.07-.09,4,4,0,0,1,.69,0,.09.09,0,0,1,.08.1.09.09,0,0,1-.09.08,2.92,2.92,0,0,0-.66,0Z"/><path class="cls-5" d="M180,63.82a.1.1,0,0,1-.09-.08,1.91,1.91,0,0,0-.06-.33.08.08,0,0,1,.07-.1.08.08,0,0,1,.1.06,2.14,2.14,0,0,1,.06.35.07.07,0,0,1-.07.09Z"/><path class="cls-5" d="M179.07,66.68l0,0a.08.08,0,0,1,0-.12c.07-.09.15-.17.21-.26a.09.09,0,1,1,.14.1l-.22.27A.09.09,0,0,1,179.07,66.68Z"/><path class="cls-5" d="M176.39,67.88l-.47,0a.09.09,0,0,1-.07-.1.08.08,0,0,1,.1-.07,4.56,4.56,0,0,0,.64,0,.08.08,0,0,1,.09.08.08.08,0,0,1-.08.09Zm1.26-.23a.08.08,0,0,1-.08-.05.09.09,0,0,1,.05-.12,2.58,2.58,0,0,0,.58-.28.1.1,0,0,1,.12,0,.09.09,0,0,1,0,.12,3.45,3.45,0,0,1-.61.3Zm-2.75-.1h0a3.78,3.78,0,0,1-.59-.34.08.08,0,0,1,0-.12.08.08,0,0,1,.12,0,3.39,3.39,0,0,0,.56.32.08.08,0,0,1,0,.11A.07.07,0,0,1,174.9,67.55Zm-1.35-1.06a.1.1,0,0,1-.07,0,4.28,4.28,0,0,1-.37-.57.1.1,0,0,1,0-.12.1.1,0,0,1,.12,0,3.19,3.19,0,0,0,.35.55.08.08,0,0,1,0,.12Z"/><path class="cls-5" d="M172.84,64.91a.08.08,0,0,1-.08-.07c0-.12,0-.24,0-.35a.11.11,0,0,1,.08-.1.1.1,0,0,1,.1.08c0,.11,0,.23,0,.34a.09.09,0,0,1-.07.1Z"/><path class="cls-5" d="M173.63,64.06a0,0,0,0,0,0,0l.47.24a2,2,0,0,0,.17.72l-.3.44a0,0,0,0,0,0,0l.38.5a0,0,0,0,0,0,0l.5-.16a2.07,2.07,0,0,0,.63.39l.1.52a0,0,0,0,0,0,0l.63.1a.05.05,0,0,0,0,0l.25-.47a2.31,2.31,0,0,0,.72-.18l.43.3h.05l.51-.37a.08.08,0,0,0,0,0l-.16-.5a2.31,2.31,0,0,0,.38-.64l.52-.09a.08.08,0,0,0,0,0l.09-.62a0,0,0,0,0,0,0l-.47-.24a2,2,0,0,0-.17-.72l.3-.44a0,0,0,0,0,0,0l-.38-.5s0,0,0,0l-.51.16a2.07,2.07,0,0,0-.63-.39l-.1-.52a0,0,0,0,0,0,0l-.63-.1,0,0-.25.47a2.31,2.31,0,0,0-.72.18l-.43-.3H175l-.51.37a.08.08,0,0,0,0,.05l.16.5a2.31,2.31,0,0,0-.38.64l-.52.09a.08.08,0,0,0,0,0Z"/><path class="cls-2" d="M176.41,64.86a.64.64,0,0,1-.43-.16h0a.69.69,0,0,1-.1-1,.69.69,0,0,1,1-.09.67.67,0,0,1,.25.46.7.7,0,0,1-.15.51A.72.72,0,0,1,176.41,64.86Zm-.27-.36a.41.41,0,0,0,.32.1.45.45,0,0,0,.29-.16.38.38,0,0,0,.09-.31.4.4,0,0,0-.15-.29.43.43,0,1,0-.55.66Z"/><path class="cls-2" d="M176.43,65.82a1.63,1.63,0,0,1-1.33-.67l0,0a1.35,1.35,0,0,1-.15-.26h0v0l.24-.1a2.15,2.15,0,0,0,.14.26l0,0a1.4,1.4,0,0,0,1.41.51,1.34,1.34,0,0,0,.52-.23h0a1.4,1.4,0,0,0,.56-.91,1.48,1.48,0,0,0,0-.21,1.34,1.34,0,0,0-.27-.82,1.39,1.39,0,0,0-2-.3,1.45,1.45,0,0,0-.46.58l-.24-.1a1.69,1.69,0,0,1,.55-.69,1.65,1.65,0,0,1,2.63,1.33,1.06,1.06,0,0,1,0,.25,1.62,1.62,0,0,1-.65,1.08A1.64,1.64,0,0,1,176.43,65.82Z"/><path class="cls-6" d="M151.82,47.26s.19-8.12-3.55-10.3-10.86-3.53-11.13-15.2c-.15-6.83-.32-9.81-.44-11.12a.78.78,0,0,1,.91-.82c3.55.67,15.06,3.42,17.47,11.27C158,30.41,151.82,47.26,151.82,47.26Z"/><path class="cls-2" d="M140.35,13.07a44.76,44.76,0,0,1,10.79,15.75,28.62,28.62,0,0,1,1.6,7,32.29,32.29,0,0,1-.25,8.79.26.26,0,0,1-.3.21.26.26,0,0,1-.21-.3,35.66,35.66,0,0,0-.83-12.83c-1.41-5.26-4.57-10.35-7.83-14.67l-.34-.43c-2.53-3.25-3.06-3.27-2.83-3.5A.15.15,0,0,1,140.35,13.07Z"/><path class="cls-5" d="M148.2,37c-.37-2.46-.8-5.6-2.83-7.32-2.36-2-10.41-.74-13-.26a.39.39,0,0,0-.18.69c1.26,1.06,4,3.56,4.66,6.08a8.56,8.56,0,0,0,4.54,5.18,9.52,9.52,0,0,0,3.2.69c1.44.25,2.7,1.1,4.18,1.17A39.49,39.49,0,0,0,148.2,37Z"/><path class="cls-4" d="M136,30.87c3.36.14,7,1.67,8.79,4.54l.18.28a66,66,0,0,1,3.91,9,.1.1,0,0,1-.06.11.08.08,0,0,1-.11,0c-.88-2.14-2.13-4.86-3.13-6.89-1.07-2.21-1.83-3.71-4.27-5.15A13.74,13.74,0,0,0,136,31a.06.06,0,0,1-.06-.08A.06.06,0,0,1,136,30.87Z"/><path class="cls-7" d="M138.33,47.78S145,65.37,147.11,69c2.45,4.25,9.6,1.54,9.24-2s-8.7-18.26-8.7-18.26Z"/><polygon class="cls-8" points="147.35 34.96 188.81 20.58 188.38 59.49 146.22 50.08 147.35 34.96"/><ellipse class="cls-9" cx="188.85" cy="40.15" rx="4.07" ry="19.99"/><path class="cls-10" d="M189.16,58.78c-.36-.38-1.17-1.82-1.85-5.56a75.59,75.59,0,0,1-1-13.18,75.62,75.62,0,0,1,1-13.19c.68-3.74,1.49-5.18,1.85-5.55.37.37,1.17,1.81,1.86,5.55a75.71,75.71,0,0,1,1,13.19,75.67,75.67,0,0,1-1,13.18C190.33,57,189.53,58.4,189.16,58.78Z"/><g class="cls-11"><path class="cls-7" d="M194.39,39.89c0,3.39-1.83,6.15-5.46,6.15a6.37,6.37,0,0,1-6.56-6.15,6.36,6.36,0,0,1,6.56-6.15C192.56,33.74,194.39,36.49,194.39,39.89Z"/></g><path class="cls-7" d="M140.66,34.12a23.21,23.21,0,0,1,7.77.39,41.69,41.69,0,0,0,.31,16.25h-8.53a2.76,2.76,0,0,1-2.73-2.34,38.43,38.43,0,0,1-.39-10.85A4.1,4.1,0,0,1,140.66,34.12Z"/><path class="cls-2" d="M145.78,38.11h-6.65a.6.6,0,0,1-.53-.32.58.58,0,0,1,0-.62.16.16,0,0,1,.23-.05.18.18,0,0,1,0,.24.26.26,0,0,0,0,.27.27.27,0,0,0,.23.14h6.65a.26.26,0,0,0,.26-.27V37a.25.25,0,0,0-.26-.26h-6.7a.18.18,0,0,1-.17-.17.18.18,0,0,1,.17-.18h6.7a.62.62,0,0,1,.61.61v.47A.61.61,0,0,1,145.78,38.11Z"/><path class="cls-2" d="M145.19,41.05h-6.65a.61.61,0,0,1-.53-.31.6.6,0,0,1,0-.62.18.18,0,0,1,.24,0,.16.16,0,0,1,0,.23.26.26,0,0,0,0,.27.25.25,0,0,0,.23.14h6.65a.26.26,0,0,0,.26-.26V40a.26.26,0,0,0-.26-.26h-6.7a.18.18,0,0,1-.17-.17.17.17,0,0,1,.17-.17h6.7a.6.6,0,0,1,.6.6v.48A.6.6,0,0,1,145.19,41.05Z"/><path class="cls-12" d="M153.37,33.91a.17.17,0,0,1-.16-.12.18.18,0,0,1,.11-.22l31.41-10a.16.16,0,0,1,.21.11.16.16,0,0,1-.11.21l-31.4,10Z"/><path class="cls-12" d="M149.13,35.64a.18.18,0,0,1-.16-.1.17.17,0,0,1,.09-.23l1.62-.66a.17.17,0,0,1,.22.1.16.16,0,0,1-.09.22l-1.62.66Z"/><path class="cls-2" d="M145.78,44.5h-6.65a.6.6,0,0,1-.53-.32.58.58,0,0,1,0-.62.17.17,0,0,1,.23-.05.18.18,0,0,1,0,.24.26.26,0,0,0,0,.27.27.27,0,0,0,.23.14h6.65a.26.26,0,0,0,.26-.27v-.47a.26.26,0,0,0-.26-.26h-6.7a.18.18,0,0,1-.17-.17.18.18,0,0,1,.17-.18h6.7a.62.62,0,0,1,.61.61v.47A.61.61,0,0,1,145.78,44.5Z"/><path class="cls-2" d="M146.4,48.33h-6.64a.6.6,0,0,1-.51-.94.16.16,0,0,1,.23,0,.17.17,0,0,1,.05.24.29.29,0,0,0,0,.27.28.28,0,0,0,.24.13h6.64a.26.26,0,0,0,.27-.26v-.47a.27.27,0,0,0-.27-.27h-6.69a.16.16,0,0,1-.17-.17.17.17,0,0,1,.17-.17h6.69a.61.61,0,0,1,.61.61v.47A.61.61,0,0,1,146.4,48.33Z"/><path class="cls-2" d="M152.34,69.13a4.2,4.2,0,0,1-.93-.1,4.26,4.26,0,0,1-3-2.44l-5.31-11.8a.18.18,0,0,1,.08-.23.17.17,0,0,1,.23.09l5.31,11.79a4,4,0,0,0,2.78,2.26,3.86,3.86,0,0,0,3.39-.87l.15-.14a.17.17,0,0,1,.24,0,.16.16,0,0,1,0,.24l-.15.14A4.16,4.16,0,0,1,152.34,69.13Z"/><path class="cls-2" d="M142.46,53.15a.17.17,0,0,1-.16-.11l-.59-1.31a.18.18,0,0,1,.08-.23.17.17,0,0,1,.23.09l.59,1.31a.18.18,0,0,1-.08.23Z"/><path class="cls-2" d="M193.41,39.71a.18.18,0,0,1-.17-.16,4.81,4.81,0,0,0-1.71-3.69,6,6,0,0,0-4.31-.88.17.17,0,0,1-.2-.14.19.19,0,0,1,.14-.2,6.29,6.29,0,0,1,4.58,1,5.15,5.15,0,0,1,1.84,3.94.17.17,0,0,1-.15.18Z"/><polygon class="cls-13" points="202.44 51.04 197.34 50.41 198 47.81 192.38 46.09 200.64 46.5 199.55 49.17 202.44 51.04"/><polygon class="cls-13" points="198.74 66.03 195.31 63.58 196.8 61.97 193.4 58.53 199.21 62.05 197.38 63.55 198.74 66.03"/><polygon class="cls-13" points="203.89 19.65 199.85 26 197.88 24.38 194.1 28.53 197.82 21.56 199.69 23.6 203.89 19.65"/></g></svg>