<svg xmlns="http://www.w3.org/2000/svg" xmlns:xlink="http://www.w3.org/1999/xlink" viewBox="0 0 900 80"><defs><style>.cls-1{fill:none;}.cls-12,.cls-2{fill:#fff;}.cls-3{fill:#eb384d;}.cls-4{fill:#f1f9fa;}.cls-5{fill:#c4f0f5;}.cls-6{fill:#e5fdff;}.cls-7{fill:#92dce0;}.cls-8{fill:#a1d3d3;}.cls-9{fill:#ffcd4f;}.cls-10{fill:#b1dbdd;}.cls-11{clip-path:url(#clip-path);}.cls-12{opacity:0.69;}.cls-13{fill:#f7b5bf;}.cls-14{opacity:0.5;}</style><clipPath id="clip-path"><path class="cls-1" d="M128.79,58.78c-.36-.38-1.17-1.82-1.85-5.56a75.67,75.67,0,0,1-1-13.18,75.71,75.71,0,0,1,1-13.19c.68-3.74,1.49-5.18,1.85-5.55.37.37,1.17,1.81,1.86,5.55s5.91,8.29,5.91,13.19-5.24,9.57-5.91,13.18S129.16,58.4,128.79,58.78Z"/></clipPath></defs><title>mobile ads banner0</title><g id="Layer_1" data-name="Layer 1"><rect class="cls-2" x="-12.94" y="-7.64" width="925.88" height="100"/><path class="cls-3" d="M653.44,48.37a8.38,8.38,0,0,1-2.76-.4,5.26,5.26,0,0,1-2-1.19,3.71,3.71,0,0,1-.77-1.08,5.8,5.8,0,0,1-.4-1.12,5.62,5.62,0,0,1-.14-1c0-.32,0-.61,0-.85s0-.78,0-1.46,0-1.51,0-2.48V36.89c0-.66,0-1.33,0-2s0-1.36,0-2-.06-1.35-.1-2-.09-1.23-.15-1.79-.14-1.05-.22-1.49l3.48-1c.1.53.18,1.18.26,1.93s.13,1.56.18,2.42.08,1.72.11,2.61,0,1.74,0,2.54c0,.24,0,.5,0,.76s0,.54,0,.8,0,.52,0,.77V39c0,.35,0,.68,0,1s0,.6,0,.89,0,.57,0,.84v.85c0,.35,0,.68,0,1a1.09,1.09,0,0,0,.28.68,2.94,2.94,0,0,0,2.06.54h.13a1.57,1.57,0,0,1,.68.15,1.73,1.73,0,0,1,.57.38,2.06,2.06,0,0,1,.39.57,1.81,1.81,0,0,1,.14.69,1.74,1.74,0,0,1-.14.69,1.92,1.92,0,0,1-.39.57,1.87,1.87,0,0,1-.57.37A1.72,1.72,0,0,1,653.44,48.37Z"/><path class="cls-3" d="M670.38,44.8a1.65,1.65,0,0,1,1.24.52,1.76,1.76,0,0,1,0,2.52,1.74,1.74,0,0,1-1.24.53h0a4,4,0,0,1-3.08-1L667,47l-.29.3a3.58,3.58,0,0,1-2.61,1,6.21,6.21,0,0,1-1.91-.36,12.41,12.41,0,0,1-1.85-.77,16.81,16.81,0,0,1-2-1.14,5.11,5.11,0,0,1-1.19,1.18,6.11,6.11,0,0,1-3.67,1.17,1.65,1.65,0,0,1-1.24-.52,1.69,1.69,0,0,1-.53-1.25,1.74,1.74,0,0,1,.53-1.26,1.65,1.65,0,0,1,1.24-.52,3.7,3.7,0,0,0,2.87-1.5,9.81,9.81,0,0,0,1-1.45c.2-.37.46-.88.79-1.55l.34-.69a8.24,8.24,0,0,1,1.79-2.49,3.91,3.91,0,0,1,2.7-1,4.91,4.91,0,0,1,3.33,1.26,5.74,5.74,0,0,1,1.87,3.94v.2a.3.3,0,0,1,0,.1v.06a.38.38,0,0,0,0,.1l0,.32a6.41,6.41,0,0,0,.17,1,1.89,1.89,0,0,0,1.92,1.68Zm-5.82.22c.68-.19,1-.76,1.07-1.7a3.92,3.92,0,0,0-.47-2.15A3.45,3.45,0,0,0,664,39.9a2,2,0,0,0-1.51-.32q-.45.09-1.32,1.83c-.16.31-.33.64-.5,1q-.09.18-.15.33l-.07.14-.14.33c2.14,1.23,3.49,1.85,4,1.85A.75.75,0,0,0,664.56,45Z"/><path class="cls-3" d="M668.7,46.61a1.85,1.85,0,0,1,.13-.66,1.8,1.8,0,0,1,.36-.56,2.41,2.41,0,0,1,.54-.39,1.61,1.61,0,0,1,.65-.17,3.19,3.19,0,0,0,1.47-.34,3.67,3.67,0,0,0,1.12-.88,5.85,5.85,0,0,0,.83-1.26,12.43,12.43,0,0,0,.6-1.46c.17-.49.32-1,.44-1.47s.24-.92.34-1.31l3.46.76q-.12.39-.33,1c-.13.4-.26.83-.39,1.28a12.6,12.6,0,0,0-.32,1.35,4.9,4.9,0,0,0-.08,1.23,1.68,1.68,0,0,0,.3.89,1,1,0,0,0,.83.34,2,2,0,0,0,1.13-.35,4,4,0,0,0,.89-.93,7,7,0,0,0,.69-1.31,13.24,13.24,0,0,0,.51-1.5q.21-.77.36-1.5c.1-.49.17-.93.23-1.32l3.24.63c0,.28-.07.58-.13.9s-.13.63-.19,1-.12.69-.17,1.05a10.39,10.39,0,0,0-.07,1.13,3.91,3.91,0,0,0,.09.86,2.07,2.07,0,0,0,.31.71,1.46,1.46,0,0,0,.57.5,2,2,0,0,0,.86.2,2.46,2.46,0,0,0,1.61-.5A1.84,1.84,0,0,0,689.2,43a7.46,7.46,0,0,0-.2-1.62c-.14-.58-.3-1.15-.49-1.71s-.39-1.08-.6-1.56-.39-.89-.55-1.21l3-1.66a5.07,5.07,0,0,1,.27.56c.13.27.27.6.43,1s.32.82.49,1.31.32,1,.46,1.54.25,1.08.35,1.65a10.65,10.65,0,0,1,.14,1.67,6.52,6.52,0,0,1-.4,2.32A4.59,4.59,0,0,1,690.91,47,5.1,5.1,0,0,1,689,48.15a7.37,7.37,0,0,1-2.58.38,3.82,3.82,0,0,1-1.26-.16,4.11,4.11,0,0,1-1-.49,4.24,4.24,0,0,1-.8-.72,6.57,6.57,0,0,1-.63-.81,6.6,6.6,0,0,1-.7.85,3.85,3.85,0,0,1-.86.68,4.64,4.64,0,0,1-1.11.47,5.91,5.91,0,0,1-1.42.18,3.8,3.8,0,0,1-2.23-.63,4.17,4.17,0,0,1-.82-.7,6.86,6.86,0,0,1-.67-.84,7,7,0,0,1-.61.76,3.72,3.72,0,0,1-.84.64,5.2,5.2,0,0,1-1.2.45,7.28,7.28,0,0,1-1.67.17h-.23a1.6,1.6,0,0,1-.65-.16,1.74,1.74,0,0,1-.54-.39,1.74,1.74,0,0,1-.49-1.22Zm14.4-14.68-2.36,2.35-2.38-2.37,2.36-2.36Zm-1.91-4,2.15-2.16,2.18,2.17-2.16,2.16Zm7.14,4L686,34.31l-2.38-2.38L686,29.57Z"/><path class="cls-3" d="M710.5,55.66a9.89,9.89,0,0,0,2,.12,11.41,11.41,0,0,0,2-.26,11.28,11.28,0,0,0,1.84-.59,10.68,10.68,0,0,0,1.61-.86l1.87,3.1c-.54.32-1.09.62-1.66.89a13.3,13.3,0,0,1-1.75.7,14.31,14.31,0,0,1-1.88.45,10.3,10.3,0,0,1-2,.13,18,18,0,0,1-2.69-.27,12.06,12.06,0,0,1-2.65-.78,10.25,10.25,0,0,1-2.35-1.41A7.72,7.72,0,0,1,703,54.72h0a7.63,7.63,0,0,1-.78-1.76,7.11,7.11,0,0,1-.29-2,7.4,7.4,0,0,1,.31-2.09A10.47,10.47,0,0,1,703,47a9.22,9.22,0,0,1,1-1.39,11.11,11.11,0,0,1,1.25-1.22,11.94,11.94,0,0,1,1.42-1,15.11,15.11,0,0,1,1.52-.83c-.29-.27-.59-.55-.9-.82l-.9-.77c-.28-.25-.55-.47-.8-.68l-.62-.53-.26-3a11.11,11.11,0,0,1,1.32-1,13.42,13.42,0,0,1,1.4-.82,11.2,11.2,0,0,1,1.35-.6,9.6,9.6,0,0,1,1.17-.37,12.08,12.08,0,0,1,1.54-.26,12.87,12.87,0,0,1,1.51-.09,10.94,10.94,0,0,1,1.54.11,8.31,8.31,0,0,1,1.39.32h0a4.92,4.92,0,0,1,2.43,1.49,3.35,3.35,0,0,1,.79,2.38,5.59,5.59,0,0,1-2.32,4.38,7.2,7.2,0,0,1-.91.61l-1,.55a11.91,11.91,0,0,0,1.19.56,11.36,11.36,0,0,0,1.28.44,12.79,12.79,0,0,0,1.31.28,7.64,7.64,0,0,0,1.25.11,1.58,1.58,0,0,1,.69.14,1.83,1.83,0,0,1,.55.39,2.18,2.18,0,0,1,.38.57,1.87,1.87,0,0,1,0,1.37,2,2,0,0,1-.38.56,1.64,1.64,0,0,1-.55.38,1.58,1.58,0,0,1-.69.14,10.64,10.64,0,0,1-2.26-.24,13.09,13.09,0,0,1-2.18-.68,18.41,18.41,0,0,1-2.15-1c-.71-.4-1.42-.84-2.12-1.33a21.63,21.63,0,0,0-2.05.94,10.82,10.82,0,0,0-1.89,1.24,6.42,6.42,0,0,0-1.39,1.61,3.88,3.88,0,0,0-.54,2,3.05,3.05,0,0,0,.26,1.23,4.92,4.92,0,0,0,.67,1.09,6.4,6.4,0,0,0,1,.91,8.48,8.48,0,0,0,1.11.73,7.2,7.2,0,0,0,1.14.52A6.14,6.14,0,0,0,710.5,55.66ZM713,37a9.43,9.43,0,0,0-1.16.08,12.23,12.23,0,0,0-1.21.21,10.62,10.62,0,0,0-1.14.31,7.28,7.28,0,0,0-1,.41l.65.7.77.82c.27.29.55.57.84.85s.56.55.84.79c.61-.26,1.18-.52,1.7-.79a9.67,9.67,0,0,0,1.38-.83,4.37,4.37,0,0,0,.93-.87,1.65,1.65,0,0,0,.36-.94s-.07-.1-.18-.17a2.16,2.16,0,0,0-.53-.22,7.61,7.61,0,0,0-.93-.22A9.37,9.37,0,0,0,713,37Zm1.44-8-2.64,2.64L709.12,29l2.64-2.64Z"/><path class="cls-3" d="M718.1,46.6a1.78,1.78,0,0,1,.14-.7,1.71,1.71,0,0,1,.37-.56,2,2,0,0,1,.56-.38,1.82,1.82,0,0,1,.7-.13h1c.72,0,1.41,0,2.07-.1a6.41,6.41,0,0,0,1.76-.41,3,3,0,0,0,1.23-.89,2.51,2.51,0,0,0,.51-1.51,4.54,4.54,0,0,0,0-.74c0-.24-.07-.49-.13-.76s-.14-.57-.23-.9-.2-.69-.32-1.12l3.39-.95c.12.44.22.84.29,1.21a10.5,10.5,0,0,1,.18,1.05c.05.34.09.68.12,1s.07.74.1,1.16.07.65.13,1a3.4,3.4,0,0,0,.28,1,2,2,0,0,0,.56.71,1.47,1.47,0,0,0,.93.28,1.82,1.82,0,0,1,.7.13,2,2,0,0,1,.57.38,1.59,1.59,0,0,1,.38.56,1.78,1.78,0,0,1,.14.7,1.58,1.58,0,0,1-.15.69,1.92,1.92,0,0,1-.39.57,2,2,0,0,1-.56.37,1.72,1.72,0,0,1-.68.14,5.28,5.28,0,0,1-2.29-.45,4.92,4.92,0,0,1-1.57-1.14,5.57,5.57,0,0,1-1.37.74,10,10,0,0,1-1.73.49,14.79,14.79,0,0,1-1.92.27c-.67.06-1.32.09-2,.09h-1a1.82,1.82,0,0,1-.7-.14,2,2,0,0,1-.56-.37,1.87,1.87,0,0,1-.37-.57A1.74,1.74,0,0,1,718.1,46.6Zm6.52,6.61-2.35,2.35-2.38-2.36,2.35-2.37Zm5.23,0-2.35,2.36-2.38-2.38,2.35-2.35Z"/><path class="cls-3" d="M730,46.6a1.82,1.82,0,0,1,.14-.7,1.91,1.91,0,0,1,.38-.56,2,2,0,0,1,.56-.38,1.82,1.82,0,0,1,.7-.13h1.3l.63,0,.43,0a1.58,1.58,0,0,0,.28-.08.54.54,0,0,0,.18-.11,1,1,0,0,0,.25-.34,2.09,2.09,0,0,0,.17-.5c0-.18.07-.39.1-.6l.06-.64v0c0-.26,0-.66,0-1.2s0-1.18,0-1.9,0-1.52,0-2.38,0-1.73,0-2.61c0-1.5,0-2.86-.05-4.09s-.11-2.31-.21-3.22l3.51-.46c.13,1,.22,2.23.28,3.61s.07,2.87.07,4.47c0,1.3,0,2.58-.05,3.86s0,2.6,0,4a5,5,0,0,0,.07.68,2.1,2.1,0,0,0,.29.79,1.92,1.92,0,0,0,.63.56,2.45,2.45,0,0,0,1.19.23,1.82,1.82,0,0,1,.7.13,2,2,0,0,1,.56.38,2.17,2.17,0,0,1,.39.56,1.66,1.66,0,0,1,.15.7,1.58,1.58,0,0,1-.15.69,1.92,1.92,0,0,1-.39.57,2,2,0,0,1-.56.37,1.82,1.82,0,0,1-.7.14,6.48,6.48,0,0,1-2.27-.3,1.26,1.26,0,0,0-2.4-.37,3.77,3.77,0,0,1-.89.41,5.11,5.11,0,0,1-1,.2c-.33,0-.67,0-1,.06h-1.63a1.82,1.82,0,0,1-.7-.14,2,2,0,0,1-.56-.37A1.8,1.8,0,0,1,730,46.6Z"/><path class="cls-3" d="M739.22,46.6a1.65,1.65,0,0,1,.14-.7,1.88,1.88,0,0,1,.37-.56,1.85,1.85,0,0,1,.56-.38,1.82,1.82,0,0,1,.7-.13h.24a5.86,5.86,0,0,0,3.21-.73,2.46,2.46,0,0,0,1.09-2.18,4.23,4.23,0,0,0-.06-.73,6,6,0,0,0-.16-.72c-.06-.25-.15-.53-.25-.83s-.2-.67-.31-1.07l3.41-1c.17.66.32,1.34.46,2.06a10.87,10.87,0,0,1,.22,2.25,6.75,6.75,0,0,0,.07,1,3.13,3.13,0,0,0,.29.94,2.13,2.13,0,0,0,.58.71,1.57,1.57,0,0,0,1,.28,1.8,1.8,0,0,1,.69.13,2.18,2.18,0,0,1,.57.38,1.91,1.91,0,0,1,.38.56,1.66,1.66,0,0,1,.15.7,1.58,1.58,0,0,1-.15.69,1.73,1.73,0,0,1-.38.57,2,2,0,0,1-.57.37,1.67,1.67,0,0,1-.67.14,5.36,5.36,0,0,1-2.28-.43,4.74,4.74,0,0,1-1.57-1.11q-1.87,1.55-5.67,1.54H741a1.8,1.8,0,0,1-1.26-.51,1.7,1.7,0,0,1-.37-.57A1.58,1.58,0,0,1,739.22,46.6ZM749,53l-2.65,2.64-2.65-2.66,2.64-2.64Z"/><path class="cls-3" d="M748.64,46.6a1.78,1.78,0,0,1,.14-.7,1.59,1.59,0,0,1,.38-.56,2,2,0,0,1,.56-.38,1.77,1.77,0,0,1,.69-.13h2.2c.46,0,.94,0,1.44,0a10.94,10.94,0,0,0,1.46-.2,5.73,5.73,0,0,0,1.27-.4,1.91,1.91,0,0,0,.84-.66,1.47,1.47,0,0,0,.22-.81,4.63,4.63,0,0,0-.14-1.12,12.27,12.27,0,0,0-.39-1.28c-.16-.45-.33-.88-.52-1.31s-.36-.81-.54-1.19l-.45-.94L759,35.28a12,12,0,0,1,.74,1.59c.25.63.46,1.27.65,1.93s.33,1.32.45,2a10.47,10.47,0,0,1,.17,1.71,5.87,5.87,0,0,1-.46,2.4,5.16,5.16,0,0,1-1.48,2,6.43,6.43,0,0,1-2.27,1.17,6.63,6.63,0,0,1-1,.17c-.4,0-.81.08-1.23.1s-.81,0-1.18,0h-3a1.77,1.77,0,0,1-.69-.14,2,2,0,0,1-.56-.37,1.8,1.8,0,0,1-.52-1.26Zm7.91-15.89-2.36,2.35-2.38-2.37,2.35-2.36Zm5.23,0-2.36,2.37L757,30.71l2.36-2.35Z"/><path class="cls-3" d="M775.56,43.58a7.27,7.27,0,0,0-.7,1.37,10.66,10.66,0,0,0-.5,1.72,11.58,11.58,0,0,0-.22,2.43,4.29,4.29,0,0,0,.25,1.52,4.47,4.47,0,0,0,.66,1.2,4.75,4.75,0,0,0,1,.9,6.76,6.76,0,0,0,1.1.63,7.4,7.4,0,0,0,1.12.38,5.63,5.63,0,0,0,1,.16h.38a7.12,7.12,0,0,0,2-.32,6.1,6.1,0,0,0,2-1,5.53,5.53,0,0,0,1.49-1.8,5.59,5.59,0,0,0,.58-2.66c0-.73,0-1.59,0-2.57s-.06-2-.1-3.15-.09-2.26-.14-3.44-.12-2.33-.17-3.46q-.19-3.94-.44-8.25l3.61-.68c.07,1.77.15,3.57.22,5.41,0,.79.06,1.62.09,2.5s.06,1.77.09,2.68.07,1.83.1,2.75,0,1.81.08,2.67a3.87,3.87,0,0,0,.17.67,2.4,2.4,0,0,0,.39.74,2.46,2.46,0,0,0,.7.61,2.2,2.2,0,0,0,1.11.26A1.61,1.61,0,0,1,792,45a1.92,1.92,0,0,1,.57.39,1.79,1.79,0,0,1,.38.56,1.81,1.81,0,0,1,.14.69,1.74,1.74,0,0,1-.14.69,1.79,1.79,0,0,1-.38.56,1.73,1.73,0,0,1-.57.38,2,2,0,0,1-.69.13,6.9,6.9,0,0,1-1.29-.1,4.51,4.51,0,0,1-1-.28v.16a10.58,10.58,0,0,1-.43,3.11,8.6,8.6,0,0,1-1.14,2.4,7.53,7.53,0,0,1-1.67,1.75,10.05,10.05,0,0,1-2,1.18,10.3,10.3,0,0,1-2.11.66,11.53,11.53,0,0,1-2,.2h-.27l-.26,0a10.61,10.61,0,0,1-1.83-.31,9.49,9.49,0,0,1-3.6-1.78,7,7,0,0,1-1.44-1.57,7.62,7.62,0,0,1-1-2.07,8.16,8.16,0,0,1-.36-2.61,17.24,17.24,0,0,1,.27-3.14,13.69,13.69,0,0,1,.57-2.14,6.9,6.9,0,0,1,.8-1.61Z"/><path class="cls-3" d="M789.53,46.61a1.81,1.81,0,0,1,.14-.69,1.79,1.79,0,0,1,.38-.56,2,2,0,0,1,.56-.39,1.65,1.65,0,0,1,.7-.14h2.54a18.29,18.29,0,0,0,3.43-.34,28.35,28.35,0,0,0,3.4-.9c1.12-.37,2.2-.78,3.26-1.23s2-.91,3-1.37a5.48,5.48,0,0,1-1.18-.29c-.41-.15-.83-.32-1.27-.51s-.87-.38-1.33-.59-.9-.4-1.35-.57a9.86,9.86,0,0,0-1.37-.43,5.64,5.64,0,0,0-1.33-.17,2.52,2.52,0,0,0-1,.19,4.06,4.06,0,0,0-.87.47,4.91,4.91,0,0,0-.73.61c-.22.22-.4.43-.56.62s-.31.41-.49.67l-2.77-1.51a9.18,9.18,0,0,1,1.24-1.75,10.21,10.21,0,0,1,1.61-1.48,8.23,8.23,0,0,1,1.78-1,4.56,4.56,0,0,1,1.77-.38,6.92,6.92,0,0,1,1.42.15,14.43,14.43,0,0,1,1.44.42q.72.26,1.47.6l1.51.68c.53.26,1.12.52,1.76.77s1.29.48,2,.68a18.64,18.64,0,0,0,2,.48,10.35,10.35,0,0,0,1.94.19L812,42.2a10.39,10.39,0,0,0-1,.47c-.32.17-.66.34-1,.49a2.14,2.14,0,0,0,.84.92,5.25,5.25,0,0,0,1.2.5,6.08,6.08,0,0,0,1.22.2c.39,0,.7,0,.92,0h.19a1.62,1.62,0,0,1,.7.14,1.92,1.92,0,0,1,.57.39,1.79,1.79,0,0,1,.38.56,1.81,1.81,0,0,1,.14.69,1.74,1.74,0,0,1-.14.69,1.79,1.79,0,0,1-.38.56,1.73,1.73,0,0,1-.57.38,2,2,0,0,1-.7.13h-.19a11.83,11.83,0,0,1-2.52-.25,8.86,8.86,0,0,1-2.11-.7,6.31,6.31,0,0,1-1.64-1.14,5.21,5.21,0,0,1-1.12-1.52c-.93.46-1.9.9-2.89,1.34a30.88,30.88,0,0,1-3.1,1.15,27.15,27.15,0,0,1-3.34.82,20.32,20.32,0,0,1-3.62.31h-2.54a2,2,0,0,1-.7-.13,1.8,1.8,0,0,1-.94-.94A1.74,1.74,0,0,1,789.53,46.61Z"/><path class="cls-3" d="M812.63,46.6a1.58,1.58,0,0,1,.14-.69,1.72,1.72,0,0,1,.37-.55,1.75,1.75,0,0,1,.55-.38,1.66,1.66,0,0,1,.7-.15,3.73,3.73,0,0,0,1.75-.39,4.58,4.58,0,0,0,1.32-1,6.65,6.65,0,0,0,1-1.37c.29-.5.57-1,.83-1.52s.49-1,.75-1.45a9.73,9.73,0,0,1,.85-1.3,5.19,5.19,0,0,1,1.53-1.23,3.82,3.82,0,0,1,1.81-.45,4.74,4.74,0,0,1,2.09.47A5.35,5.35,0,0,1,828,38a6.27,6.27,0,0,1,1,1.61,7.74,7.74,0,0,1,.48,2v0a8.45,8.45,0,0,1,.08,1.16,7.87,7.87,0,0,1-.12,1.38,7.53,7.53,0,0,1-.35,1.28,4.77,4.77,0,0,1-1.19,1.77,4.4,4.4,0,0,1-1.69,1,4.34,4.34,0,0,1-.61.11,4.21,4.21,0,0,1-.62,0,5.43,5.43,0,0,1-1.23-.15,7.74,7.74,0,0,1-1.3-.39c-.2-.08-.41-.18-.65-.3s-.49-.24-.74-.38l-.74-.43-.68-.45a10.73,10.73,0,0,1-1.12.94,6.94,6.94,0,0,1-1.23.72,6.85,6.85,0,0,1-1.35.43,7.49,7.49,0,0,1-1.53.15,1.82,1.82,0,0,1-.7-.14,1.76,1.76,0,0,1-.92-.94A1.58,1.58,0,0,1,812.63,46.6Zm9.06-3.4a6.86,6.86,0,0,0,1,.62,12.23,12.23,0,0,0,1.14.49,9.42,9.42,0,0,0,1,.33,3.31,3.31,0,0,0,.76.12,1.34,1.34,0,0,0,.35,0,.47.47,0,0,0,.28-.17,1.26,1.26,0,0,0,.26-.39,3.62,3.62,0,0,0,.18-.58,3,3,0,0,0,0-.75,2.64,2.64,0,0,0-.1-.49c-.06-.2-.15-.42-.25-.66a5.27,5.27,0,0,0-.4-.73,3.54,3.54,0,0,0-.53-.68,3.14,3.14,0,0,0-.66-.49,1.69,1.69,0,0,0-.8-.19c-.26,0-.51.2-.77.61s-.58,1-1,1.81Z"/><path class="cls-3" d="M165.57,47a1.33,1.33,0,0,0-1,.38,1.3,1.3,0,0,0-.36.94,1.2,1.2,0,0,0,.36.91,1.53,1.53,0,0,0,2,0,1.17,1.17,0,0,0,.37-.91,1.27,1.27,0,0,0-.37-.94A1.34,1.34,0,0,0,165.57,47Z"/><polygon class="cls-3" points="183.97 52.33 185.69 54.04 187.39 52.34 185.67 50.62 183.97 52.33"/><polygon class="cls-3" points="188.11 52.34 189.83 54.07 191.51 52.37 189.81 50.65 188.11 52.34"/><rect class="cls-3" x="197.04" y="33.62" width="2.42" height="2.43" transform="translate(33.44 150.39) rotate(-45)"/><path class="cls-3" d="M213,30.11c-.12-.27-.25-.56-.37-.85l-4.6,2-4.61,2c0,.36-.08.7-.12,1s-.08.69-.12,1.06c.42.35.84.72,1.26,1.1s.81.76,1.19,1.15.74.77,1.07,1.15.63.75.88,1.1a10.21,10.21,0,0,1,.65,1,3.07,3.07,0,0,1,.34.78,4.6,4.6,0,0,1,.18,1.2,3.11,3.11,0,0,1-.5,1.74,2.36,2.36,0,0,1-.94.8,5.43,5.43,0,0,1-1.31.42,11.9,11.9,0,0,1-1.5.15l-1.5,0h-1.09a2.45,2.45,0,0,1-1.06-.19,1.48,1.48,0,0,1-.61-.55,2.29,2.29,0,0,1-.29-.87c-.05-.34-.08-.74-.1-1.18a9.77,9.77,0,0,0-.17-1.56c-.09-.55-.23-1.15-.41-1.82-.31.08-.59.17-.85.25l-.88.25c.08.29.14.55.2.79s.1.47.14.68a4.65,4.65,0,0,1,.08.61c0,.2,0,.41,0,.62a2.61,2.61,0,0,1-1,2.23,5,5,0,0,1-3.05.74h-.3a2.15,2.15,0,0,1-1.07-.23,1.7,1.7,0,0,1-.61-.61,2.85,2.85,0,0,1-.3-.85q-.09-.46-.15-1c0-.3-.07-.58-.1-.84s-.06-.52-.09-.78-.08-.53-.13-.81-.13-.58-.22-.92l-.86.25c-.26.08-.55.17-.88.25.08.3.14.56.2.79s.09.45.12.66.06.4.08.59,0,.39,0,.6a2.27,2.27,0,0,1-.37,1.48,2.52,2.52,0,0,1-1.12.87,6,6,0,0,1-1.66.41,17.6,17.6,0,0,1-2,.1h-.9a4.23,4.23,0,0,1-1.24-.15,2,2,0,0,1-.78-.44,2,2,0,0,1-.5-.68c-.12-.27-.25-.57-.38-.9l-1.65-4c-.46-1.1-.84-2-1.13-2.74s-.65-1.55-.88-2.13l-.82.35-.86.36L179,44.36a2.69,2.69,0,0,1-.34.27,5.5,5.5,0,0,1-.5.3l-.58.3-.61.27a4.48,4.48,0,0,1-.93.25,5.67,5.67,0,0,1-1,.08,5.21,5.21,0,0,1-1.89-.38,6.48,6.48,0,0,1-1.92-1.17l-.52.72c-.17.22-.35.47-.54.74a6.79,6.79,0,0,0,2.12,1.44,7.38,7.38,0,0,0,1.21.38,5.9,5.9,0,0,0,1.25.13,9.12,9.12,0,0,0,1.55-.12,7.13,7.13,0,0,0,1.32-.36h0l.59-.26.62-.28a6.49,6.49,0,0,0,.59-.31,4.81,4.81,0,0,0,.47-.3,4.42,4.42,0,0,0,.6.63,3.49,3.49,0,0,0,.79.52,4.61,4.61,0,0,0,1,.36,6.29,6.29,0,0,0,1.29.12h.9a16,16,0,0,0,1.68-.08,12.23,12.23,0,0,0,1.66-.28,7.93,7.93,0,0,0,1.47-.5,3.69,3.69,0,0,0,1.13-.74,3.9,3.9,0,0,0,.58.64,5.11,5.11,0,0,0,.71.51,3.84,3.84,0,0,0,.86.33,4.08,4.08,0,0,0,1,.12h.28a9,9,0,0,0,2.82-.38,5,5,0,0,0,2-1.17,4.4,4.4,0,0,0,.59.63,3.58,3.58,0,0,0,.71.49,3.74,3.74,0,0,0,.85.32,4.46,4.46,0,0,0,.54.06,1.2,1.2,0,0,0,.33,0l3.76,0,.49,0a3.55,3.55,0,0,0,.47-.06,4.53,4.53,0,0,0,3.35-2.19h0a6.08,6.08,0,0,0,.47-1.13,4.58,4.58,0,0,0,.19-1.37,5.53,5.53,0,0,0-.14-1.23,7.43,7.43,0,0,0-.46-1.38,10.45,10.45,0,0,0-.86-1.52,14.62,14.62,0,0,0-1.3-1.66,17.41,17.41,0,0,0-1.43-1.42q-.75-.67-1.41-1.23l8.46-3.56C213.2,30.66,213.08,30.39,213,30.11Z"/><polygon class="cls-3" points="247.33 52.33 249.05 54.04 250.75 52.34 249.03 50.62 247.33 52.33"/><polygon class="cls-3" points="251.47 52.34 253.19 54.07 254.88 52.37 253.17 50.65 251.47 52.34"/><path class="cls-3" d="M275.8,30.11c-.12-.27-.25-.56-.37-.85l-4.6,2-4.61,2-.12,1c0,.34-.08.69-.12,1.06.42.35.85.72,1.26,1.1s.81.76,1.19,1.15.74.77,1.07,1.15.63.75.88,1.1a10.21,10.21,0,0,1,.65,1,3.07,3.07,0,0,1,.34.78,4.6,4.6,0,0,1,.18,1.2,3.11,3.11,0,0,1-.5,1.74,2.29,2.29,0,0,1-.94.8,5.43,5.43,0,0,1-1.31.42,11.9,11.9,0,0,1-1.5.15l-1.5,0h-1.06a3.49,3.49,0,0,1-.77-.07,2.09,2.09,0,0,1-.55-.19,1.5,1.5,0,0,1-.4-.3,2.69,2.69,0,0,1-.3-.37,4.11,4.11,0,0,1-.21-.42q-.08-.22-.12-.42c0-.14,0-.26-.05-.39s0-.22,0-.31c0-.92,0-1.94.05-3.06s0-2.3,0-3.52c0-.61,0-1.22,0-1.85s0-1.22,0-1.8,0-1.12-.07-1.63-.06-.94-.1-1.32l-.88.13-.92.12c0,.34.06.74.08,1.19s0,.95,0,1.48,0,1.08,0,1.66,0,1.16,0,1.75,0,1.48,0,2.2,0,1.38,0,2,0,1.14,0,1.6,0,.8,0,1,0,.42-.06.63a3.65,3.65,0,0,1-.13.61,2.44,2.44,0,0,1-.21.53,1.1,1.1,0,0,1-.31.39,1,1,0,0,1-.24.15,1.21,1.21,0,0,1-.32.1,3.71,3.71,0,0,1-.44.07l-.63,0H257a2.18,2.18,0,0,1-1.07-.23,1.7,1.7,0,0,1-.61-.61,2.85,2.85,0,0,1-.3-.85q-.09-.46-.15-1c0-.3-.07-.58-.09-.84s-.06-.52-.1-.78-.08-.53-.13-.81-.13-.58-.22-.92l-.86.25c-.26.08-.55.17-.88.25.08.3.15.56.2.79s.09.45.13.66.06.4.07.59a5.74,5.74,0,0,1,0,.6,2.27,2.27,0,0,1-.37,1.48,2.52,2.52,0,0,1-1.12.87,5.94,5.94,0,0,1-1.66.41,17.6,17.6,0,0,1-2,.1h-.95a5.85,5.85,0,0,1-2.41-.46,5,5,0,0,1-1.25-.83,6.27,6.27,0,0,1-.86-1,7.71,7.71,0,0,1-.59-1.14l-.43-1.17a8,8,0,0,0-.84-1.76,12.93,12.93,0,0,0-1.31-1.76,17.68,17.68,0,0,0-1.68-1.67,22.76,22.76,0,0,0-1.95-1.54l9.37-4-.69-1.69-10.09,4.34c0,.37-.08.72-.12,1.06S234,35,234,35.35l1.07.85c.4.33.81.69,1.24,1.08s.85.81,1.26,1.24a11.91,11.91,0,0,1,1.1,1.33,7,7,0,0,1,.78,1.36,3.18,3.18,0,0,1,.3,1.3,2.26,2.26,0,0,1-.51,1.44,3.92,3.92,0,0,1-1.72,1.12l-.85.27a8.29,8.29,0,0,1-1.13.26c-.43.08-.92.14-1.46.19s-1.13.08-1.78.08h-1.57l-.68,0-.73,0-.72,0A12.08,12.08,0,0,1,225,44.9a3.63,3.63,0,0,1-1.89-1.54,2.63,2.63,0,0,1-.25-1.14,4.18,4.18,0,0,1,.29-1.49h0a2.76,2.76,0,0,1,.14-.34c.07-.15.14-.3.22-.45a5,5,0,0,1,.3-.54l-1.48-1.1-.38.69a10.37,10.37,0,0,0-.51,1,4.31,4.31,0,0,0-.33,1,5,5,0,0,0-.1,1,4.44,4.44,0,0,0,.13,1.11,4.38,4.38,0,0,0,.35,1l0,0A6.74,6.74,0,0,0,222,45a3.81,3.81,0,0,0,.64.63,6.51,6.51,0,0,0,1.4.86,10.57,10.57,0,0,0,1.55.55,15.18,15.18,0,0,0,1.63.33c.56.08,1.11.15,1.66.2.72.07,1.49.1,2.32.1h1.07a21,21,0,0,0,3.52-.26,10.94,10.94,0,0,0,2.76-.8h0a8.53,8.53,0,0,0,1.26-.77,4.11,4.11,0,0,0,1.09-1.26,7.09,7.09,0,0,0,2.69,2.31,7.61,7.61,0,0,0,3.43.78h.89a16.31,16.31,0,0,0,1.69-.08,12.34,12.34,0,0,0,1.65-.28,7.93,7.93,0,0,0,1.47-.5,3.69,3.69,0,0,0,1.13-.74,3.9,3.9,0,0,0,.58.64,4.66,4.66,0,0,0,.72.51,3.76,3.76,0,0,0,.85.33,4.08,4.08,0,0,0,1,.12h1.41c.19,0,.38,0,.59,0a3.73,3.73,0,0,0,.63-.1,3.32,3.32,0,0,0,.65-.22,2.87,2.87,0,0,0,.89-.63c.1-.09.21-.21.33-.34a3.72,3.72,0,0,0,.59.52,4.34,4.34,0,0,0,.73.42,4.53,4.53,0,0,0,.88.28,3.85,3.85,0,0,0,.69.06,1.25,1.25,0,0,0,.19,0l3.76,0,.49,0a3.55,3.55,0,0,0,.47-.06,4.53,4.53,0,0,0,3.35-2.19h0a6.08,6.08,0,0,0,.47-1.13,4.58,4.58,0,0,0,.19-1.37,5.53,5.53,0,0,0-.14-1.23,7.43,7.43,0,0,0-.46-1.38,10.45,10.45,0,0,0-.86-1.52,13.56,13.56,0,0,0-1.3-1.66,17.41,17.41,0,0,0-1.43-1.42q-.75-.67-1.41-1.23l8.46-3.56C276.05,30.66,275.93,30.39,275.8,30.11Z"/><rect class="cls-3" x="295.44" y="35.23" width="2.4" height="2.43" transform="translate(60.52 219.66) rotate(-44.81)"/><polygon class="cls-3" points="294.21 36.43 292.49 34.71 290.79 36.42 292.51 38.13 294.21 36.43"/><path class="cls-3" d="M304.7,42.51a11.21,11.21,0,0,0-.46-1.46c-.19-.49-.39-.95-.59-1.36s-.4-.79-.59-1.12l-.43-.72-1.55,1,.49.82c.22.37.44.79.67,1.26a12.85,12.85,0,0,1,.61,1.51A6.61,6.61,0,0,1,303.2,44a11.72,11.72,0,0,1-2.21.93,19.92,19.92,0,0,1-2.34.57c-.78.14-1.55.23-2.3.29s-1.44.08-2.07.08a22.3,22.3,0,0,1-3-.18,15.13,15.13,0,0,1-2.39-.5,7,7,0,0,1-1.75-.78,3,3,0,0,1-1-1,2.63,2.63,0,0,1-.18-.54,2.46,2.46,0,0,1-.07-.6,3.68,3.68,0,0,1,.08-.71,6.86,6.86,0,0,1,.24-.78l.34-.7c.08-.17.14-.29.17-.37l.08-.17.06-.08-1.46-1.1L285,39a9.39,9.39,0,0,0-.47,1,8,8,0,0,0-.33,1.13,5.08,5.08,0,0,0-.12,1.07,4.31,4.31,0,0,0,1.67,3.42,7,7,0,0,0,1.93,1.09,15.28,15.28,0,0,0,2.9.69,27.64,27.64,0,0,0,3.7.26,18.68,18.68,0,0,0,2.39-.14,25,25,0,0,0,2.59-.44,21.15,21.15,0,0,0,2.44-.67,11.7,11.7,0,0,0,1.95-.85,3.21,3.21,0,0,0,.94-.87,1.7,1.7,0,0,0,.28-.95,3,3,0,0,0-.05-.6Q304.78,42.86,304.7,42.51Z"/><rect class="cls-3" x="318.71" y="31.38" width="2.42" height="2.43" transform="translate(70.72 235.86) rotate(-45.02)"/><polygon class="cls-3" points="330.7 52.34 332.43 54.07 334.11 52.37 332.4 50.65 330.7 52.34"/><polygon class="cls-3" points="326.57 52.33 328.29 54.04 329.99 52.34 328.26 50.62 326.57 52.33"/><rect class="cls-3" x="347.26" y="50.9" width="2.42" height="2.43" transform="translate(65.21 261.67) rotate(-45)"/><path class="cls-3" d="M359.6,40.07c-.09-.29-.18-.56-.28-.83l-.28-.73c-.1-.22-.18-.42-.26-.59l-.19-.42-1.65.82.19.44c.08.17.17.37.25.58s.18.43.27.66.16.43.22.63q.25.81.42,1.5a5.19,5.19,0,0,1,.16,1.23,2.42,2.42,0,0,1-.18,1h0a1.75,1.75,0,0,1-.83.85,4.9,4.9,0,0,1-1.32.46,9.43,9.43,0,0,1-1.52.17l-1.44,0h-1a2.45,2.45,0,0,1-1.06-.19,1.48,1.48,0,0,1-.61-.55,2.29,2.29,0,0,1-.29-.87c-.05-.34-.08-.74-.1-1.18a11,11,0,0,0-.16-1.56c-.1-.55-.24-1.15-.42-1.82-.31.08-.59.17-.85.25l-.88.25c.08.29.14.55.2.79s.1.47.14.68.07.42.09.61,0,.41,0,.62a2.61,2.61,0,0,1-1,2.23,5,5,0,0,1-3.05.74H344a3.33,3.33,0,0,1-.76-.07,2,2,0,0,1-.56-.19,1.68,1.68,0,0,1-.4-.3,2.34,2.34,0,0,1-.5-.79,2.72,2.72,0,0,1-.12-.42,2.85,2.85,0,0,1-.06-.39c0-.11,0-.22,0-.31q0-1.38.06-3.06c0-1.13,0-2.3,0-3.52,0-.61,0-1.22,0-1.85s0-1.22,0-1.8,0-1.12-.07-1.63-.06-.94-.1-1.32l-.88.13-.92.12c0,.34.06.74.08,1.19s0,.95.06,1.48,0,1.08,0,1.66v1.75c0,.74,0,1.48,0,2.2s0,1.38,0,2,0,1.14,0,1.6,0,.8,0,1,0,.42-.06.63a5.07,5.07,0,0,1-.12.61,4.18,4.18,0,0,1-.21.53,1.24,1.24,0,0,1-.32.39.91.91,0,0,1-.23.15,1.34,1.34,0,0,1-.32.1l-.45.07-.62,0h-1.16a2.22,2.22,0,0,1-1.08-.23,1.67,1.67,0,0,1-.6-.61,2.61,2.61,0,0,1-.31-.85c-.05-.31-.1-.63-.14-1s-.07-.58-.1-.84l-.09-.78c0-.26-.08-.53-.14-.81a8.58,8.58,0,0,0-.22-.92l-.85.25c-.26.08-.56.17-.88.25.08.3.14.56.19.79s.09.45.13.66.06.4.08.59,0,.39,0,.6a2.33,2.33,0,0,1-.37,1.48,2.58,2.58,0,0,1-1.12.87,6,6,0,0,1-1.66.41,17.73,17.73,0,0,1-2,.1h-.92a15.3,15.3,0,0,1-2.43-.19,10.64,10.64,0,0,1-2.21-.58A11,11,0,0,0,322.84,44,12.9,12.9,0,0,0,324,42.58a6.94,6.94,0,0,0,.77-1.39A2.39,2.39,0,0,0,325,40a1.65,1.65,0,0,0-.07-.45,1.87,1.87,0,0,0-.28-.57,2.7,2.7,0,0,0-.55-.59,3.84,3.84,0,0,0-.91-.55,7.08,7.08,0,0,0-1.52-.45,8.75,8.75,0,0,0-1.7-.16l-.5,0-.54,0c-.31,0-.66.1-1,.17a8.3,8.3,0,0,0-1.16.34,8.7,8.7,0,0,0-1.23.54,6.51,6.51,0,0,0-1.17.82l-.12,1.43.92,1.08c.48.58,1,1.14,1.46,1.69a20.46,20.46,0,0,0,1.6,1.64,8.53,8.53,0,0,1-1.17.37c-.45.11-.9.2-1.37.27s-.94.14-1.41.18-.9.06-1.3.06h-.14a4.89,4.89,0,0,1-1.32-.18,1.9,1.9,0,0,1-.82-.46,1.15,1.15,0,0,1-.37-.72,6,6,0,0,1-.05-1V43c0-.23,0-.57,0-1V39.22c0-.43,0-.86,0-1.31,0-.67,0-1.35,0-2s0-1.37-.07-2-.06-1.24-.11-1.8-.1-1-.17-1.45l-1.82.32a12.91,12.91,0,0,1,.16,1.42c0,.57.08,1.19.11,1.85s.06,1.33.07,2,0,1.34,0,2c0,.32,0,.67,0,1s0,.69,0,1c0,.81,0,1.5,0,2.06s0,.91,0,1v.21c0,.18,0,.39,0,.64a4.39,4.39,0,0,0,.1.78,4,4,0,0,0,.28.82,2.71,2.71,0,0,0,.55.78,3.64,3.64,0,0,0,1.47.88,6.58,6.58,0,0,0,2.06.28l.08,0a15.41,15.41,0,0,0,1.75-.1,16.52,16.52,0,0,0,1.83-.28,17.35,17.35,0,0,0,1.79-.45,13.33,13.33,0,0,0,1.62-.64,10,10,0,0,0,2.9,1.12,16.11,16.11,0,0,0,3.42.35l.06,0h.86a16.12,16.12,0,0,0,1.68-.08,12.49,12.49,0,0,0,1.66-.28,7.93,7.93,0,0,0,1.47-.5,3.64,3.64,0,0,0,1.12-.74,4.48,4.48,0,0,0,.59.64,4.14,4.14,0,0,0,.71.51,3.84,3.84,0,0,0,.86.33,4.08,4.08,0,0,0,1,.12h1.4c.19,0,.39,0,.59,0a3.69,3.69,0,0,0,.64-.1,3.56,3.56,0,0,0,.65-.22,2.78,2.78,0,0,0,.62-.39,2.6,2.6,0,0,0,.27-.24l.33-.34a3.64,3.64,0,0,0,.58.52,4.31,4.31,0,0,0,1.61.7,4.34,4.34,0,0,0,1,.09h.23a9,9,0,0,0,2.82-.38,5,5,0,0,0,2-1.17,4.4,4.4,0,0,0,.59.63,3.58,3.58,0,0,0,.71.49,3.74,3.74,0,0,0,.85.32c.11,0,.25,0,.38,0a.81.81,0,0,0,.35.07h2.5l1,0c.34,0,.67,0,1-.07a4.09,4.09,0,0,0,.78-.14,4.23,4.23,0,0,0,1.68-.88,3.94,3.94,0,0,0,1.44-3.23,8.48,8.48,0,0,0-.15-1.52A13.06,13.06,0,0,0,359.6,40.07Zm-39,3.52a4.34,4.34,0,0,1-.71.49q-.48-.39-.93-.81c-.29-.29-.6-.6-.9-.93s-.61-.68-.93-1.06-.65-.77-1-1.2a7.34,7.34,0,0,1,1.85-.77,6.76,6.76,0,0,1,3.57,0,5.49,5.49,0,0,1,1.56.69,1.42,1.42,0,0,1-.15.55,6.76,6.76,0,0,1-.39.74c-.16.26-.35.53-.56.82s-.44.55-.68.8A7.85,7.85,0,0,1,320.63,43.59Z"/><polygon class="cls-3" points="356.83 33.44 355.11 31.72 353.41 33.43 355.13 35.14 356.83 33.44"/><polygon class="cls-3" points="357.55 33.44 359.27 35.16 360.95 33.47 359.24 31.75 357.55 33.44"/><polygon class="cls-3" points="391.02 51.93 392.74 53.64 394.44 51.94 392.72 50.22 391.02 51.93"/><path class="cls-3" d="M397.89,45.11a4.37,4.37,0,0,0,.33-1.77,7.71,7.71,0,0,0-.16-1.52,12.92,12.92,0,0,0-.45-1.75c-.09-.29-.19-.56-.28-.83l-.29-.73-.25-.59-.19-.42-1.65.82.19.44c.08.17.17.37.25.58s.18.43.26.66.17.43.23.63q.25.81.42,1.5a5.19,5.19,0,0,1,.16,1.23,2.26,2.26,0,0,1-.19,1h0a1.71,1.71,0,0,1-.83.85,4.83,4.83,0,0,1-1.31.46,9.43,9.43,0,0,1-1.52.17l-1.44,0h-.78l-4.68,0a4.38,4.38,0,0,0,1.19-1,7,7,0,0,0,.89-1.31,6.21,6.21,0,0,0,.55-1.42,4.53,4.53,0,0,0,.15-1.32,3,3,0,0,0-.45-1.47,4,4,0,0,0-1-1.12,4.49,4.49,0,0,0-1.38-.7,4.69,4.69,0,0,0-1.51-.25,2.6,2.6,0,0,0-.4,0l-.39.05c-1.66.24-3.53,1.36-5.62,3.34l0-1.94c0-.29,0-.52,0-.69s0-.33,0-.5,0-.35,0-.56,0-.5-.07-.87l-.05-.54c0-.31-.06-.64-.1-1s-.07-.75-.11-1.13l-.12-1.15c0-.38-.08-.74-.12-1.06s-.06-.61-.09-.86,0-.42-.06-.54l-1.81.41c0,.16.06.42.11.77s.1.77.15,1.27.11,1,.17,1.68.11,1.28.17,2,.09,1.33.12,1.88,0,1.06,0,1.54c0,.28,0,.54,0,.79s0,.51,0,.77,0,.54,0,.84-.06.63-.11,1l-.29.42q-.48.6-.9,1.17c-.28.38-.5.7-.66.94-.54-.14-1.06-.28-1.55-.43s-1-.31-1.43-.49l-.32.83-.33.88a26,26,0,0,0,3.6,1.06,22.54,22.54,0,0,0,3.47.47h0l.9,0h1l.48,0h12.59l1,0c.34,0,.66,0,1-.07a4.09,4.09,0,0,0,.78-.14,4.23,4.23,0,0,0,1.68-.88A4.33,4.33,0,0,0,397.89,45.11Zm-13.77-.47a8.75,8.75,0,0,1-1.54.7,7.82,7.82,0,0,1-1.52.37c-.51.08-1,.12-1.48.15l-3.69-.12,2-2.58a18.14,18.14,0,0,1,3-2.77,6.7,6.7,0,0,1,2.67-1.19,2.93,2.93,0,0,1,.53,0,4,4,0,0,1,.83.1,2.89,2.89,0,0,1,.79.31,2,2,0,0,1,.6.53,1.68,1.68,0,0,1,.3.79,2.18,2.18,0,0,1,0,.72,3.53,3.53,0,0,1-.22.72,3.68,3.68,0,0,1-.35.65,3.46,3.46,0,0,1-.41.54A8.06,8.06,0,0,1,384.12,44.64Z"/><polygon class="cls-3" points="395.16 51.94 396.88 53.66 398.56 51.96 396.86 50.24 395.16 51.94"/><path class="cls-3" d="M403.81,37.3q0-.7-.06-1.53t-.09-1.68c0-.59-.08-1.14-.11-1.65s-.09-1-.14-1.43c0-.22-.05-.41-.07-.55s0-.26,0-.35,0-.15,0-.18a.28.28,0,0,1,0-.08l-1.83.28c0,.25.08.67.15,1.28s.13,1.36.2,2.28.13,2,.18,3.2.08,2.54.08,4c0,.53,0,1.06,0,1.6s0,1.09,0,1.65,0,1.13-.07,1.72-.06,1.21-.1,1.84l1.83.11c.08-1.27.14-2.48.17-3.62s.05-2.24.05-3.27c0-.67,0-1.3,0-1.9S403.83,37.84,403.81,37.3Z"/><polygon class="cls-3" points="414.99 47.71 414.99 47.7 414.98 47.71 414.99 47.71"/><rect class="cls-3" x="426.96" y="33.28" width="2.4" height="2.43" transform="translate(100.91 312.74) rotate(-44.98)"/><rect class="cls-3" x="424.78" y="30.02" width="2.17" height="2.19" transform="translate(102.73 310.24) rotate(-45)"/><polygon class="cls-3" points="425.15 34.49 423.43 32.77 421.73 34.48 423.45 36.2 425.15 34.49"/><path class="cls-3" d="M432,40.11a15.83,15.83,0,0,0-.58-1.48l-.45-1-1.61.86c.14.28.29.63.47,1s.34.87.49,1.34a12.43,12.43,0,0,1,.39,1.45,6.28,6.28,0,0,1,.16,1.37,3.16,3.16,0,0,1-.12.9,1.86,1.86,0,0,1-.35.72,1.64,1.64,0,0,1-.61.49,2.16,2.16,0,0,1-.88.17,2,2,0,0,1-1-.21,1.52,1.52,0,0,1-.6-.55,2,2,0,0,1-.3-.79,4.76,4.76,0,0,1-.09-.94,7.05,7.05,0,0,1,.06-.86c0-.32.07-.63.12-.94s.09-.6.14-.87.08-.49.11-.65h0l-.86-.17-.9-.17c-.06.34-.13.73-.22,1.17a13.67,13.67,0,0,1-.34,1.33,10.8,10.8,0,0,1-.5,1.34,5.68,5.68,0,0,1-.67,1.16,3.21,3.21,0,0,1-.87.82,2.11,2.11,0,0,1-1.11.31,1.43,1.43,0,0,1-.73-.17,1.17,1.17,0,0,1-.46-.42,1.73,1.73,0,0,1-.24-.61,3.85,3.85,0,0,1-.06-.69,6.25,6.25,0,0,1,.08-.92c.05-.32.12-.64.2-1s.16-.62.24-.91.16-.53.22-.74l-1.82-.36c-.08.39-.18.79-.3,1.21a11.7,11.7,0,0,1-.43,1.26,8.84,8.84,0,0,1-.6,1.19,4.61,4.61,0,0,1-.78,1,3.7,3.7,0,0,1-1,.71,3.09,3.09,0,0,1-1.23.29,2.43,2.43,0,0,1-1.1-.28,3.5,3.5,0,0,1-1-.89,8.13,8.13,0,0,1-.9-1.53,21.91,21.91,0,0,1-.88-2.24l-1.75.54c.1.31.21.67.34,1.09s.25.87.37,1.34.24.93.35,1.4.18.92.24,1.34c0,.08,0,.15,0,.23a1.85,1.85,0,0,1,0,.23,4.61,4.61,0,0,1-.25,1.52,5.78,5.78,0,0,1-.68,1.42,8.41,8.41,0,0,1-1,1.32,11.41,11.41,0,0,1-1.3,1.2A18,18,0,0,1,406,53.64c-.52.33-1,.63-1.59.91.15.3.28.57.41.81s.26.51.41.82A18.94,18.94,0,0,0,407,55.11a16.8,16.8,0,0,0,1.73-1.28,13.8,13.8,0,0,0,1.5-1.46,10.68,10.68,0,0,0,1.2-1.61,7.91,7.91,0,0,0,.79-1.76,6.23,6.23,0,0,0,.28-1.87v-.62a4.88,4.88,0,0,0,.83.69,3.42,3.42,0,0,0,.73.35,2.65,2.65,0,0,0,.59.13h.25l.07,0,.09,0h0a6.29,6.29,0,0,0,1.11-.12,5.54,5.54,0,0,0,1-.36,4.82,4.82,0,0,0,.89-.57,6.16,6.16,0,0,0,.8-.74,2.84,2.84,0,0,0,.55.84,3.93,3.93,0,0,0,.75.61,3.43,3.43,0,0,0,.84.36,3.28,3.28,0,0,0,.85.12,3.64,3.64,0,0,0,1.82-.51,6.69,6.69,0,0,0,1.65-1.4,4.48,4.48,0,0,0,.63.75,5.35,5.35,0,0,0,.76.61,4.21,4.21,0,0,0,.83.4,2.58,2.58,0,0,0,.85.15,5.4,5.4,0,0,0,1.88-.27,3.69,3.69,0,0,0,1.33-.84,3.5,3.5,0,0,0,.79-1.3,5.43,5.43,0,0,0,.26-1.71,7.75,7.75,0,0,0-.22-1.83A16.14,16.14,0,0,0,432,40.11Z"/><path class="cls-3" d="M447.92,46.25c0-.23-.08-.49-.13-.77s-.12-.58-.18-.88-.14-.62-.22-.93-.15-.61-.23-.9c-.18-.69-.37-1.39-.58-2.11l-1.77.55c0,.11.08.27.16.49s.14.47.23.76.17.6.26.94.19.68.27,1,.16.7.23,1,.11.65.14.93l0,.25c0,.08,0,.15,0,.23a4.85,4.85,0,0,1-.54,2.22,8.43,8.43,0,0,1-1.42,2,12.77,12.77,0,0,1-2,1.75,19.08,19.08,0,0,1-2.36,1.44l.8,1.63c.63-.32,1.25-.68,1.86-1.07a15.58,15.58,0,0,0,1.72-1.27,13.93,13.93,0,0,0,1.51-1.46,10,10,0,0,0,1.19-1.61,8,8,0,0,0,.79-1.77,6.3,6.3,0,0,0,.28-1.88,1.78,1.78,0,0,0,0-.34A2.81,2.81,0,0,1,447.92,46.25Z"/><rect class="cls-3" x="444.4" y="34.43" width="2.42" height="2.43" transform="translate(105.31 325.53) rotate(-45)"/><path class="cls-3" d="M453.43,37.3q0-.7-.06-1.53t-.09-1.68q-.06-.89-.12-1.65c0-.51-.08-1-.14-1.43,0-.22,0-.41-.06-.55s0-.26,0-.35,0-.15,0-.18a.28.28,0,0,1,0-.08l-1.83.28c0,.25.08.67.14,1.28s.14,1.36.21,2.28.13,2,.18,3.2.07,2.54.07,4c0,.53,0,1.06,0,1.6s0,1.09,0,1.65,0,1.13-.07,1.72-.06,1.21-.1,1.84l1.83.11c.08-1.27.14-2.48.17-3.62s.05-2.24.05-3.27c0-.67,0-1.3,0-1.9S453.45,37.84,453.43,37.3Z"/><path class="cls-3" d="M469.72,41.38h0Z"/><path class="cls-3" d="M476.47,53.25a10,10,0,0,1-1.4.57,9.39,9.39,0,0,1-1.46.35,9.11,9.11,0,0,1-1.47.12,8.64,8.64,0,0,1-2.5-.37,6.36,6.36,0,0,1-2.09-1.07,4.88,4.88,0,0,1-1.39-1.76,4.82,4.82,0,0,1-.4-2.41h0a4.84,4.84,0,0,1,.28-1.4,6,6,0,0,1,.57-1.19,5.77,5.77,0,0,1,.77-1A7.76,7.76,0,0,1,469,43.8c.26-.15.48-.28.67-.37.35-.17.69-.33,1-.47a9.56,9.56,0,0,1,1.11-.4,14.11,14.11,0,0,1,1.37-.36c.5-.11,1.1-.22,1.78-.34l1.51-.25,1.24-.22a7.62,7.62,0,0,1-.14-.94c0-.31-.09-.63-.16-1l-.74.19c-.23.05-.5.11-.81.16s-.63.11-1,.16a6,6,0,0,1-.61.06,5.72,5.72,0,0,1-.58,0,6,6,0,0,1-1.66-.2,4.1,4.1,0,0,1-1.19-.51,2.06,2.06,0,0,1-.89-1.59,3,3,0,0,1,.16-1.34,2.65,2.65,0,0,1,.64-1,3.19,3.19,0,0,1,1-.64,5.34,5.34,0,0,1,1.2-.34,2.91,2.91,0,0,1,1.12.21,7.33,7.33,0,0,1,1.09.51,10.68,10.68,0,0,1,1.12.77c.18-.22.37-.45.57-.71l.58-.71a7.74,7.74,0,0,0-1-.78,7.32,7.32,0,0,0-1.13-.62,6,6,0,0,0-1.22-.4,4.73,4.73,0,0,0-1.24-.1,4.94,4.94,0,0,0-1.8.43,5.12,5.12,0,0,0-1.51,1,5,5,0,0,0-1,1.48,4.35,4.35,0,0,0-.39,1.82,4.55,4.55,0,0,0,.43,2,3.8,3.8,0,0,0,1.27,1.49l.54.28-.64.22a9.57,9.57,0,0,0-1.16.57c-.39.23-.77.47-1.13.73a11.89,11.89,0,0,0-1,.83,9.12,9.12,0,0,0-.86.91,8.26,8.26,0,0,0-1.14,2,6.52,6.52,0,0,0-.49,2.17,7.81,7.81,0,0,0,.31,2.73,5.87,5.87,0,0,0,1.32,2.3A7.07,7.07,0,0,0,467,54.84a8.71,8.71,0,0,0,3.36,1.27,12.54,12.54,0,0,0,1.71.13c.51,0,1,0,1.57-.08a9.37,9.37,0,0,0,1.66-.33,10.06,10.06,0,0,0,1.72-.68A10.3,10.3,0,0,0,478.84,54l-1.08-1.54A8.22,8.22,0,0,1,476.47,53.25Z"/><path class="cls-3" d="M513.59,39.56a4.35,4.35,0,0,0-.74-1.07,4,4,0,0,0-.91-.65,4.27,4.27,0,0,0-1-.38,5.49,5.49,0,0,0-1.07-.13,6.59,6.59,0,0,0-1.09.09,8.1,8.1,0,0,0-2.64,1.07,17.81,17.81,0,0,0-3,2.3c0-.15,0-.32,0-.52s0-.41,0-.63,0-.43,0-.63V38.5c0-1.47,0-2.88-.12-4.25s-.22-2.72-.39-4.05l-1.89.34L501,33c.09.86.15,1.78.21,2.76s.07,1.92.06,2.85,0,1.86-.08,2.6-.11,1.37-.2,1.89a13.56,13.56,0,0,0-1,1.36l-.56.93h0a1.51,1.51,0,0,1-.15.26l-.12.2h-2.28l-.48-.11a2.82,2.82,0,0,1-.77-.31h0a1.84,1.84,0,0,1-.82-.91,3,3,0,0,1-.17-.6c0-.22-.06-.46-.09-.71-.05-.87-.11-1.79-.18-2.75s-.15-1.92-.22-2.87-.16-1.85-.24-2.71l-.21-2.29q-.09-1-.15-1.59c-.05-.39-.07-.6-.07-.61l-1.83.19,0,.28c0,.28.06.65.11,1.12s.09,1,.15,1.6.12,1.25.18,2,.13,1.43.19,2.18l.18,2.25c.06.76.11,1.5.16,2.2h0c0,.06,0,.12,0,.18a1.09,1.09,0,0,1,0,.18,2.7,2.7,0,0,1-.18,1,3.26,3.26,0,0,1-.48.9,4.59,4.59,0,0,1-.75.78,5.48,5.48,0,0,1-.93.64,27.12,27.12,0,0,0-1.32-4.2,41.49,41.49,0,0,0-2.28-4.68c-.31-.54-.61-1.06-.91-1.54L485,34.07c-.25-.4-.47-.73-.66-1s-.33-.49-.44-.64l-1.49,1.07.65,1c.31.47.66,1,1.07,1.7s.83,1.42,1.28,2.24.89,1.69,1.3,2.59.79,1.81,1.12,2.74a16.58,16.58,0,0,1,.75,2.72c-.42.09-.83.16-1.22.21a9,9,0,0,1-1.12.07h-.59a4.87,4.87,0,0,1-.55-.06c-.05.31-.1.6-.15.88s-.11.58-.17.91a10.42,10.42,0,0,0,1.48.11,12,12,0,0,0,2.5-.27h0a10.32,10.32,0,0,0,2.59-1,8.22,8.22,0,0,0,2.11-1.71,4.3,4.3,0,0,0,1,1.18,4.49,4.49,0,0,0,1,.63,3.08,3.08,0,0,0,.86.23,4.48,4.48,0,0,0,.49,0h.54l6.88,0q.85,0,1.83-.09a11.5,11.5,0,0,0,2-.37,11.88,11.88,0,0,0,2.09-.82A10.26,10.26,0,0,0,512.3,45a7.88,7.88,0,0,0,.62-.78,6.68,6.68,0,0,0,.55-1,5.74,5.74,0,0,0,.38-1.15,4.17,4.17,0,0,0,.09-1.22A3.56,3.56,0,0,0,513.59,39.56Zm-1.31,2.15a2.69,2.69,0,0,1-.25.74,3.54,3.54,0,0,1-.44.65,5.92,5.92,0,0,1-.56.56,8.3,8.3,0,0,1-2,1.24,10,10,0,0,1-3.8.93c-.62,0-1.2.05-1.76.05h-2.22l.94-1.24.57-.75.34-.42.22-.25h0a18.62,18.62,0,0,1,3-2.74A7.76,7.76,0,0,1,509,39.23a4.22,4.22,0,0,1,1,0,3.29,3.29,0,0,1,1,.26,2.3,2.3,0,0,1,.81.57,1.67,1.67,0,0,1,.44.89A2.33,2.33,0,0,1,512.28,41.71Z"/><path class="cls-3" d="M518.93,37.3q0-.7-.06-1.53t-.09-1.68q-.06-.89-.12-1.65c0-.51-.08-1-.14-1.43,0-.22,0-.41-.06-.55s0-.26,0-.35a1.06,1.06,0,0,0,0-.18s0-.06,0-.08l-1.82.28c0,.25.08.67.14,1.28s.14,1.36.21,2.28.13,2,.18,3.2.07,2.54.07,4c0,.53,0,1.06,0,1.6s0,1.09,0,1.65,0,1.13-.07,1.72-.06,1.21-.1,1.84l1.83.11c.08-1.27.14-2.48.17-3.62s0-2.24,0-3.27c0-.67,0-1.3,0-1.9S519,37.84,518.93,37.3Z"/><polygon class="cls-3" points="543.64 36.51 541.93 34.79 540.23 36.49 541.95 38.21 543.64 36.51"/><polygon class="cls-3" points="539.51 36.49 537.79 34.77 536.1 36.48 537.82 38.19 539.51 36.49"/><rect class="cls-3" x="573.52" y="50.95" width="2.42" height="2.43" transform="translate(131.18 421.35) rotate(-44.96)"/><path class="cls-3" d="M582.77,42.13c-.06-.27-.13-.58-.19-.92-.48-.18-.91-.36-1.29-.53l-1.12-.52-1.08-.54-1.23-.6-1.21-.56c-.4-.18-.79-.34-1.18-.48a8.77,8.77,0,0,0-1.15-.34,4.67,4.67,0,0,0-1.11-.13,4.28,4.28,0,0,0-2,.53,6.12,6.12,0,0,0-1.85,1.58,7.32,7.32,0,0,0-.68.92c-.16.26-.28.48-.37.66l1.56.93.26-.44a5,5,0,0,1,.39-.59,7.43,7.43,0,0,1,.52-.62,4.92,4.92,0,0,1,.64-.57,3.54,3.54,0,0,1,.73-.42,2.4,2.4,0,0,1,.84-.15,3.16,3.16,0,0,1,.83.11,6.76,6.76,0,0,1,.94.3l1,.43,1.07.5,3.47,1.45c-.95.48-1.94.94-3,1.39s-2.06.85-3.1,1.2a25.85,25.85,0,0,1-3.19.84,15.57,15.57,0,0,1-3.17.32h-2.31a4,4,0,0,0-1.26.21,5.44,5.44,0,0,0-1.22.58,5.8,5.8,0,0,0-1.09.9,5.61,5.61,0,0,0-.85,1.15,5.18,5.18,0,0,0-.52,1.34,4.53,4.53,0,0,0-.12,1.47,3.81,3.81,0,0,1-1-.82,8.55,8.55,0,0,1-.81-1.09,9,9,0,0,1-.63-1.12c-.18-.36-.32-.68-.42-.93a9,9,0,0,0,1.56-.42,6.36,6.36,0,0,0,1.38-.69,5,5,0,0,0,1.1-1,4.15,4.15,0,0,0,.74-1.3,3.59,3.59,0,0,0,.24-.78,5.64,5.64,0,0,0,.08-1,7.6,7.6,0,0,0-.2-1.67,6.51,6.51,0,0,0-.57-1.59,3.93,3.93,0,0,0-.92-1.18,1.88,1.88,0,0,0-1.24-.46,2.79,2.79,0,0,0-1.37.53,5.45,5.45,0,0,0-1.12,1.17,9.13,9.13,0,0,0-.88,1.58,14.44,14.44,0,0,0-.62,1.78,13.35,13.35,0,0,0-.35,1.76,9.34,9.34,0,0,0-.08,1.53h-1.54l-.09,0-.1,0a3.58,3.58,0,0,1-3-1.13,2.59,2.59,0,0,1-.52-1,5.76,5.76,0,0,1-.17-1.11,6.43,6.43,0,0,1,.13-1.22l.12-.5c0-.13.06-.27.1-.43l-.87-.24-.89-.25c-.11.34-.22.69-.35,1a11.13,11.13,0,0,1-.48,1.06,7.68,7.68,0,0,1-.67,1,6,6,0,0,1-.91.9h0a7.71,7.71,0,0,1-3.07,1.47,18.56,18.56,0,0,1-4.45.46,19.64,19.64,0,0,1-2.64-.17,11.29,11.29,0,0,1-2.16-.49,6.57,6.57,0,0,1-1.64-.78,3.67,3.67,0,0,1-1-1.07,3.48,3.48,0,0,1-.37-.94,4.17,4.17,0,0,1-.12-1,4.41,4.41,0,0,1,.1-.89c.07-.29.15-.56.23-.81a4.24,4.24,0,0,1,.27-.67l.21-.46-.81-.45-.81-.46c-.09.18-.2.46-.35.84a10.5,10.5,0,0,0-.42,1.38c-.06.25-.11.51-.15.8a6.11,6.11,0,0,0-.06.86,6.42,6.42,0,0,0,.17,1.43,4.83,4.83,0,0,0,.58,1.4,5.87,5.87,0,0,0,3.28,2.5,18.37,18.37,0,0,0,5.74.81q6.51,0,9.77-3.41a5,5,0,0,0,.81,1.55h0a5.12,5.12,0,0,0,4.29,1.81H556l.17.46A12,12,0,0,0,557,50a12.73,12.73,0,0,0,1.18,1.88,13.38,13.38,0,0,0,1.62,1.78,13.15,13.15,0,0,0,2.09,1.58l1.21-1.45a3.35,3.35,0,0,1-.67-1.07,3.43,3.43,0,0,1-.2-1.15,3.66,3.66,0,0,1,.28-1.41,4.35,4.35,0,0,1,.76-1.23,4.15,4.15,0,0,1,1.11-.89,3.26,3.26,0,0,1,1.36-.38h2.39a17.79,17.79,0,0,0,3.4-.32,29.85,29.85,0,0,0,3.32-.84c1.07-.35,2.1-.73,3.08-1.16s1.9-.84,2.73-1.26l.68-.34.48-.24c.15-.08.31-.15.48-.22L583,43C582.89,42.71,582.83,42.41,582.77,42.13Zm-25.24,3.59c0-.13,0-.26,0-.39s0-.25,0-.36a6.62,6.62,0,0,1,.11-1.12,10.24,10.24,0,0,1,.28-1.19,9.34,9.34,0,0,1,.43-1.15,6.55,6.55,0,0,1,.53-1,4,4,0,0,1,.62-.71,1.19,1.19,0,0,1,.65-.31l.16,0a2.44,2.44,0,0,1,.83,1.05,3.56,3.56,0,0,1,.25,1.35,4.09,4.09,0,0,1-.23,1.36,3.87,3.87,0,0,1-.65,1.22,3.35,3.35,0,0,1-1,.89,2.72,2.72,0,0,1-1.35.35l-.22,0Z"/><rect class="cls-3" x="614.56" y="10.67" width="0.72" height="59" rx="0.36"/><path class="cls-4" d="M139.15,52.23c-6.93,16.21-25.24,23.18-39.59,22-3.92-.32-11.8-1-18-6.8-11.82-11.17-10-34.53,1.31-48.29,1.46-1.77,11.54-13.64,27.26-13.48a34.55,34.55,0,0,1,20.56,7.43,31.61,31.61,0,0,1,6.45,7.31C143,29.45,143.49,42.1,139.15,52.23Z"/><path class="cls-5" d="M91.9,50.61h0a.1.1,0,0,1,0-.12c.06-.1.12-.2.19-.3a.08.08,0,0,1,.12,0,.08.08,0,0,1,0,.12l-.18.29A.12.12,0,0,1,91.9,50.61Z"/><path class="cls-5" d="M112.7,53.73a.09.09,0,0,1-.08-.06c-.06-.22-.12-.43-.19-.64a.09.09,0,0,1,.06-.11c.05,0,.09,0,.11.06.07.21.13.43.19.64a.09.09,0,0,1-.07.11Zm-.57-1.66a.1.1,0,0,1-.08,0,6.54,6.54,0,0,0-.28-.6.09.09,0,0,1,0-.12.1.1,0,0,1,.12,0c.1.2.19.4.28.61a.08.08,0,0,1,0,.11Zm-.81-1.55a.12.12,0,0,1-.08,0c-.12-.19-.24-.38-.37-.56a.08.08,0,0,1,0-.12.11.11,0,0,1,.12,0l.38.56a.09.09,0,0,1,0,.12ZM92.73,49.44l0,0a.08.08,0,0,1,0-.12c.14-.18.29-.35.44-.51a.09.09,0,0,1,.13.11c-.15.16-.29.33-.43.51A.09.09,0,0,1,92.73,49.44Zm17.54-.33a.11.11,0,0,1-.07,0,5.23,5.23,0,0,0-.45-.49.08.08,0,0,1,0-.12.07.07,0,0,1,.12,0c.15.16.31.32.45.49a.09.09,0,0,1,0,.13Zm-16.34-1a.09.09,0,0,1-.06,0,.09.09,0,0,1,0-.12c.17-.15.34-.3.52-.44a.09.09,0,0,1,.12,0,.08.08,0,0,1,0,.12l-.5.44ZM109,47.87l0,0-.52-.41a.08.08,0,0,1,0-.12.08.08,0,0,1,.12,0c.18.13.36.27.53.42a.09.09,0,0,1-.06.15Zm-13.7-.79a.12.12,0,0,1-.08,0,.1.1,0,0,1,0-.12l.57-.36a.1.1,0,0,1,.12,0,.09.09,0,0,1,0,.12l-.57.35Zm12.28-.24h0L107,46.5a.09.09,0,1,1,.08-.15c.2.1.39.22.58.33a.08.08,0,0,1,0,.12A.07.07,0,0,1,107.6,46.84Zm-10.75-.62a.09.09,0,0,1-.08,0,.08.08,0,0,1,0-.11c.2-.1.41-.19.62-.27a.08.08,0,0,1,.11.05.08.08,0,0,1,0,.11l-.62.26Zm9.19-.17h0l-.62-.24a.09.09,0,0,1,.06-.16q.32.11.63.24a.1.1,0,0,1,.05.11A.09.09,0,0,1,106,46.05Zm-7.55-.44a.1.1,0,0,1-.08-.06.09.09,0,0,1,.06-.11l.65-.17a.09.09,0,0,1,.11.07.09.09,0,0,1-.07.1l-.64.16Zm5.88-.11h0c-.22-.06-.43-.1-.65-.14a.09.09,0,0,1-.07-.1.08.08,0,0,1,.1-.07l.66.14a.09.09,0,0,1,.06.1A.08.08,0,0,1,104.37,45.5Zm-4.16-.24a.09.09,0,0,1-.08-.08.09.09,0,0,1,.07-.1l.67-.06a.1.1,0,0,1,.1.08.09.09,0,0,1-.08.09l-.67.07Zm2.43,0h0l-.66,0a.09.09,0,0,1-.09-.09A.09.09,0,0,1,102,45h0l.67,0a.08.08,0,0,1,.08.09A.08.08,0,0,1,102.64,45.21Z"/><path class="cls-5" d="M113,55.14a.08.08,0,0,1-.08-.07c0-.12,0-.23,0-.34a.09.09,0,1,1,.17,0c0,.11,0,.23,0,.34a.1.1,0,0,1-.08.1Z"/><path class="cls-5" d="M110.63,63.65a.07.07,0,0,1-.06,0,.08.08,0,0,1,0-.12l.21-.27a.08.08,0,0,1,.12,0,.09.09,0,0,1,0,.12,2.92,2.92,0,0,1-.21.28A.07.07,0,0,1,110.63,63.65Z"/><path class="cls-5" d="M101.59,68h0c-.23,0-.47,0-.7,0a.08.08,0,0,1-.08-.09.08.08,0,0,1,.09-.08c.23,0,.46,0,.7,0a.08.08,0,0,1,.08.08A.09.09,0,0,1,101.59,68Zm1.15,0a.1.1,0,0,1-.09-.08.1.1,0,0,1,.08-.1l.69-.08a.08.08,0,0,1,.1.07.09.09,0,0,1-.07.1l-.7.09Zm-3-.11h0l-.69-.14a.09.09,0,0,1-.07-.1.09.09,0,0,1,.11-.07c.22.06.45.1.68.14a.08.08,0,0,1,.07.1A.08.08,0,0,1,99.76,67.86Zm4.79-.22a.08.08,0,0,1-.08-.06.1.1,0,0,1,.06-.11c.23-.06.45-.12.67-.2a.09.09,0,0,1,.11.06.09.09,0,0,1,0,.11l-.68.2ZM98,67.41h0l-.67-.25a.08.08,0,0,1,0-.11.08.08,0,0,1,.11,0c.21.09.43.17.65.24a.1.1,0,0,1,.06.11A.08.08,0,0,1,98,67.41ZM106.3,67a.08.08,0,0,1-.08,0,.09.09,0,0,1,0-.12q.31-.14.63-.3a.09.09,0,0,1,.12,0,.08.08,0,0,1,0,.11c-.21.11-.42.22-.64.31Zm-10-.35h0c-.21-.11-.41-.23-.61-.35a.09.09,0,0,1,0-.12.09.09,0,0,1,.12,0l.6.35a.09.09,0,0,1,0,.12A.12.12,0,0,1,96.27,66.68Zm11.64-.54a.09.09,0,0,1-.07,0,.1.1,0,0,1,0-.12c.19-.12.38-.26.57-.4a.09.09,0,0,1,.1.14c-.19.14-.38.28-.58.41Zm-13.19-.45,0,0c-.19-.14-.38-.3-.55-.45a.09.09,0,0,1,.11-.13c.17.15.36.3.54.44a.08.08,0,0,1,0,.12A.13.13,0,0,1,94.72,65.69ZM109.37,65a.07.07,0,0,1-.06,0,.08.08,0,0,1,0-.12c.17-.16.34-.32.5-.49a.07.07,0,0,1,.12,0,.08.08,0,0,1,0,.12l-.51.49A.09.09,0,0,1,109.37,65Zm-16-.56a.09.09,0,0,1-.07,0c-.16-.17-.32-.34-.47-.53a.09.09,0,0,1,0-.12.11.11,0,0,1,.13,0c.14.18.3.36.46.53a.09.09,0,0,1,0,.12ZM92.19,63a.09.09,0,0,1-.07,0c-.13-.2-.26-.4-.38-.6a.08.08,0,0,1,0-.12.09.09,0,0,1,.12,0c.11.2.24.4.37.59a.08.08,0,0,1,0,.12Zm-.91-1.6a.09.09,0,0,1-.08,0c-.1-.21-.19-.43-.28-.65a.08.08,0,0,1,0-.11.08.08,0,0,1,.11,0c.09.22.18.44.28.65a.08.08,0,0,1,0,.11Zm-.64-1.73a.1.1,0,0,1-.09-.07c-.06-.22-.12-.45-.17-.68a.09.09,0,0,1,.07-.11.08.08,0,0,1,.1.07c0,.23.11.45.17.68a.08.08,0,0,1-.06.1Z"/><path class="cls-5" d="M90.28,57.86a.08.08,0,0,1-.08-.07l0-.35a.08.08,0,0,1,.08-.09s.08,0,.09.08l0,.34a.08.08,0,0,1-.08.09Z"/><path class="cls-5" d="M92.87,56.11a.13.13,0,0,0,.07.14l1.48.78A7.39,7.39,0,0,0,95,59.32l-1,1.37a.15.15,0,0,0,0,.16l1.19,1.61a.12.12,0,0,0,.15,0L97,62a7.46,7.46,0,0,0,2,1.22l.3,1.64a.14.14,0,0,0,.11.11l2,.3a.13.13,0,0,0,.14-.07l.78-1.48a7.12,7.12,0,0,0,2.29-.56l1.37.95a.14.14,0,0,0,.16,0l1.61-1.19a.12.12,0,0,0,0-.15l-.49-1.59a7.56,7.56,0,0,0,1.22-2l1.64-.3a.15.15,0,0,0,.11-.12l.3-2a.15.15,0,0,0-.07-.15L109,55.88a7.12,7.12,0,0,0-.56-2.29l1-1.37a.15.15,0,0,0,0-.16l-1.19-1.62a.16.16,0,0,0-.15,0l-1.59.5a7.31,7.31,0,0,0-2-1.22l-.3-1.64a.14.14,0,0,0-.12-.11l-2-.31a.14.14,0,0,0-.14.07l-.77,1.48a7.39,7.39,0,0,0-2.29.56l-1.37-.95a.15.15,0,0,0-.16,0L95.7,50a.16.16,0,0,0,0,.15l.5,1.59a7.36,7.36,0,0,0-1.22,2l-1.64.3a.12.12,0,0,0-.11.11Z"/><path class="cls-2" d="M101.71,58.36a1.84,1.84,0,0,1-1.21-.44,1.9,1.9,0,0,1-.69-1.29,2,2,0,0,1,.43-1.39,1.9,1.9,0,0,1,3.37,1,1.88,1.88,0,0,1-.43,1.4A1.91,1.91,0,0,1,101.71,58.36Zm0-3.56a1.65,1.65,0,0,0-1.64,1.81,1.61,1.61,0,0,0,.59,1.11h0a1.65,1.65,0,0,0,2.1-2.54A1.67,1.67,0,0,0,101.71,54.8Z"/><path class="cls-2" d="M101.77,61.42a5,5,0,0,1-.77-.06,4.9,4.9,0,0,1-3.24-2h0a5,5,0,0,1-.43-.69h0v0h0v0l0,0a.61.61,0,0,1,0-.12l.23-.11a4.72,4.72,0,0,0,.51.87h0a4.7,4.7,0,1,0,1-6.57,4.73,4.73,0,0,0-1.55,2l-.24-.1a5,5,0,0,1,5.33-3,5,5,0,0,1,4.2,4.9,5,5,0,0,1-4.94,5Z"/><path class="cls-5" d="M113,62.39l0,0a.08.08,0,0,1,0-.12c.06-.1.13-.19.2-.29a.09.09,0,0,1,.12,0,.09.09,0,0,1,0,.12,2.22,2.22,0,0,0-.19.27A.1.1,0,0,1,113,62.39Z"/><path class="cls-5" d="M119.14,62.46a.1.1,0,0,1-.08-.05,3.39,3.39,0,0,0-.27-.39,1.71,1.71,0,0,0-.11-.14.09.09,0,0,1,.13-.11l.12.14a3.07,3.07,0,0,1,.28.42.08.08,0,0,1,0,.11Zm-5.21-1.12a.08.08,0,0,1-.07,0,.08.08,0,0,1,0-.12,3.56,3.56,0,0,1,.6-.34.08.08,0,0,1,.07.15,4,4,0,0,0-.57.33Zm4-.14h0a3.59,3.59,0,0,0-.59-.29.1.1,0,0,1,0-.11.09.09,0,0,1,.12,0,3.45,3.45,0,0,1,.61.3.08.08,0,0,1,0,.12A.07.07,0,0,1,117.91,61.2Zm-2.35-.5a.08.08,0,0,1-.08-.08.08.08,0,0,1,.07-.09,4,4,0,0,1,.69,0,.09.09,0,0,1,.08.1.09.09,0,0,1-.09.08,2.92,2.92,0,0,0-.66,0Z"/><path class="cls-5" d="M119.6,63.82a.1.1,0,0,1-.09-.08,1.91,1.91,0,0,0-.06-.33.08.08,0,0,1,.07-.1.08.08,0,0,1,.1.06,2.14,2.14,0,0,1,.06.35.07.07,0,0,1-.07.09Z"/><path class="cls-5" d="M118.7,66.68l0,0a.08.08,0,0,1,0-.12,2.39,2.39,0,0,0,.21-.26.08.08,0,0,1,.12,0,.08.08,0,0,1,0,.12l-.22.27A.09.09,0,0,1,118.7,66.68Z"/><path class="cls-5" d="M116,67.88a3.87,3.87,0,0,1-.48,0,.09.09,0,0,1-.07-.1.08.08,0,0,1,.1-.07,4.56,4.56,0,0,0,.64,0,.08.08,0,0,1,.09.08.08.08,0,0,1-.08.09Zm1.25-.23a.08.08,0,0,1-.08-.05.09.09,0,0,1,0-.12,2.58,2.58,0,0,0,.58-.28.1.1,0,0,1,.12,0,.09.09,0,0,1,0,.12,3.45,3.45,0,0,1-.61.3Zm-2.75-.1h0a3.78,3.78,0,0,1-.59-.34.08.08,0,0,1,0-.12.08.08,0,0,1,.12,0,3.39,3.39,0,0,0,.56.32.08.08,0,0,1,0,.11A.07.07,0,0,1,114.53,67.55Zm-1.35-1.06a.1.1,0,0,1-.07,0,4.28,4.28,0,0,1-.37-.57.1.1,0,0,1,0-.12.1.1,0,0,1,.12,0,3.19,3.19,0,0,0,.35.55.08.08,0,0,1,0,.12Z"/><path class="cls-5" d="M112.48,64.91a.09.09,0,0,1-.09-.07c0-.12,0-.24,0-.35a.09.09,0,0,1,.07-.1.1.1,0,0,1,.1.08c0,.11,0,.23,0,.34a.09.09,0,0,1-.07.1Z"/><path class="cls-5" d="M113.26,64.06s0,0,0,0l.47.24a2.23,2.23,0,0,0,.17.72l-.3.44a0,0,0,0,0,0,0l.38.5a0,0,0,0,0,0,0l.5-.16a2.2,2.2,0,0,0,.63.39l.1.52a0,0,0,0,0,0,0l.63.1,0,0,.25-.47a2.31,2.31,0,0,0,.72-.18l.43.3h.05l.51-.37s0,0,0,0l-.16-.5a2.61,2.61,0,0,0,.39-.64l.51-.09s0,0,0,0l.09-.62a0,0,0,0,0,0,0l-.46-.24a2.24,2.24,0,0,0-.18-.72l.3-.44a0,0,0,0,0,0,0l-.38-.5s0,0,0,0l-.51.16a2.07,2.07,0,0,0-.63-.39l-.1-.52a0,0,0,0,0,0,0l-.63-.1,0,0-.25.47a2.38,2.38,0,0,0-.72.18l-.43-.3h0l-.51.37a0,0,0,0,0,0,.05l.15.5a2.31,2.31,0,0,0-.38.64l-.52.09,0,0Z"/><path class="cls-2" d="M116.05,64.86a.65.65,0,0,1-.44-.16h0a.69.69,0,0,1-.1-1,.71.71,0,0,1,1-.09.65.65,0,0,1,.24.46.66.66,0,0,1-.15.51A.72.72,0,0,1,116.05,64.86Zm-.28-.36a.41.41,0,0,0,.32.1.45.45,0,0,0,.29-.16.43.43,0,0,0,.1-.31.44.44,0,0,0-.16-.29.43.43,0,1,0-.55.66Z"/><path class="cls-2" d="M116.06,65.82a1.63,1.63,0,0,1-1.33-.67l0,0a2.2,2.2,0,0,1-.15-.26h0v0l.24-.1a1.35,1.35,0,0,0,.15.26v0a1.4,1.4,0,0,0,1.41.51,1.34,1.34,0,0,0,.52-.23h0a1.4,1.4,0,0,0,.56-.91,1.48,1.48,0,0,0,0-.21,1.34,1.34,0,0,0-.27-.82,1.39,1.39,0,0,0-2-.3,1.45,1.45,0,0,0-.46.58l-.23-.1a1.59,1.59,0,0,1,.54-.69,1.65,1.65,0,0,1,2.63,1.33,1.06,1.06,0,0,1,0,.25A1.62,1.62,0,0,1,117,65.5,1.64,1.64,0,0,1,116.06,65.82Z"/><path class="cls-6" d="M91.45,47.26s.19-8.12-3.55-10.3S77,33.43,76.77,21.76c-.15-6.83-.32-9.81-.43-11.12a.76.76,0,0,1,.9-.82c3.55.67,15.06,3.42,17.47,11.27C97.58,30.41,91.45,47.26,91.45,47.26Z"/><path class="cls-2" d="M80,13.07A44.76,44.76,0,0,1,90.77,28.82a28.62,28.62,0,0,1,1.6,7,31.89,31.89,0,0,1-.25,8.79.26.26,0,0,1-.3.21.27.27,0,0,1-.21-.3,35.66,35.66,0,0,0-.83-12.83C89.37,26.41,86.21,21.32,83,17l-.34-.43c-2.53-3.25-3.06-3.27-2.83-3.5A.15.15,0,0,1,80,13.07Z"/><path class="cls-5" d="M87.83,37c-.37-2.46-.8-5.6-2.83-7.32-2.36-2-10.41-.74-13-.26a.39.39,0,0,0-.18.69c1.26,1.06,4,3.56,4.66,6.08A8.56,8.56,0,0,0,81,41.41a9.52,9.52,0,0,0,3.2.69c1.44.25,2.7,1.1,4.18,1.17A39.49,39.49,0,0,0,87.83,37Z"/><path class="cls-4" d="M75.66,30.87c3.36.14,7,1.67,8.79,4.54l.18.28a66,66,0,0,1,3.91,9,.1.1,0,0,1-.06.11.08.08,0,0,1-.11,0c-.88-2.14-2.13-4.86-3.13-6.89-1.07-2.21-1.82-3.71-4.27-5.15A13.74,13.74,0,0,0,75.65,31a.06.06,0,0,1-.06-.08A.06.06,0,0,1,75.66,30.87Z"/><path class="cls-7" d="M78,47.78S84.64,65.37,86.74,69c2.45,4.25,9.6,1.54,9.24-2s-8.7-18.26-8.7-18.26Z"/><polygon class="cls-8" points="86.98 34.96 128.45 20.58 128.01 59.49 85.85 50.08 86.98 34.96"/><ellipse class="cls-9" cx="128.49" cy="40.15" rx="4.07" ry="19.99"/><path class="cls-10" d="M128.79,58.78c-.36-.38-1.17-1.82-1.85-5.56a75.67,75.67,0,0,1-1-13.18,75.71,75.71,0,0,1,1-13.19c.68-3.74,1.49-5.18,1.85-5.55.37.37,1.17,1.81,1.86,5.55a75.71,75.71,0,0,1,1,13.19,75.67,75.67,0,0,1-1,13.18C130,57,129.16,58.4,128.79,58.78Z"/><g class="cls-11"><path class="cls-7" d="M134,39.89c0,3.39-1.83,6.15-5.46,6.15A6.37,6.37,0,0,1,122,39.89a6.36,6.36,0,0,1,6.56-6.15C132.19,33.74,134,36.49,134,39.89Z"/></g><path class="cls-7" d="M80.29,34.12a23.21,23.21,0,0,1,7.77.39,41.69,41.69,0,0,0,.31,16.25H79.84a2.76,2.76,0,0,1-2.73-2.34,38.43,38.43,0,0,1-.39-10.85A4.11,4.11,0,0,1,80.29,34.12Z"/><path class="cls-2" d="M85.41,38.11H78.76a.6.6,0,0,1-.53-.32.58.58,0,0,1,0-.62.16.16,0,0,1,.23-.05.18.18,0,0,1,.05.24.29.29,0,0,0,0,.27.27.27,0,0,0,.23.14h6.65a.27.27,0,0,0,.27-.27V37a.26.26,0,0,0-.27-.26H78.72a.18.18,0,0,1-.18-.17.18.18,0,0,1,.18-.18h6.69A.61.61,0,0,1,86,37v.47A.61.61,0,0,1,85.41,38.11Z"/><path class="cls-2" d="M84.82,41.05H78.17a.61.61,0,0,1-.53-.31.6.6,0,0,1,0-.62.18.18,0,0,1,.24,0,.16.16,0,0,1,0,.23.26.26,0,0,0,0,.27.25.25,0,0,0,.23.14h6.65a.26.26,0,0,0,.26-.26V40a.26.26,0,0,0-.26-.26h-6.7a.18.18,0,0,1-.17-.17.17.17,0,0,1,.17-.17h6.7a.6.6,0,0,1,.6.6v.48A.6.6,0,0,1,84.82,41.05Z"/><path class="cls-12" d="M93,33.91a.18.18,0,0,1-.16-.12.18.18,0,0,1,.11-.22l31.41-10a.17.17,0,0,1,.1.32l-31.4,10Z"/><path class="cls-12" d="M88.76,35.64a.18.18,0,0,1-.16-.1.18.18,0,0,1,.09-.23l1.62-.66a.17.17,0,0,1,.22.1.16.16,0,0,1-.09.22l-1.62.66Z"/><path class="cls-2" d="M85.41,44.5H78.76a.6.6,0,0,1-.53-.32.58.58,0,0,1,0-.62.17.17,0,0,1,.23-.05.18.18,0,0,1,.05.24.29.29,0,0,0,0,.27.27.27,0,0,0,.23.14h6.65a.27.27,0,0,0,.27-.27v-.47a.27.27,0,0,0-.27-.26H78.72a.18.18,0,0,1-.18-.17.18.18,0,0,1,.18-.18h6.69a.61.61,0,0,1,.61.61v.47A.61.61,0,0,1,85.41,44.5Z"/><path class="cls-2" d="M86,48.33H79.39a.61.61,0,0,1-.54-.32.62.62,0,0,1,0-.62.17.17,0,0,1,.23,0,.18.18,0,0,1,.06.24.26.26,0,0,0,0,.27.28.28,0,0,0,.24.13H86a.26.26,0,0,0,.27-.26v-.47A.27.27,0,0,0,86,47H79.34a.16.16,0,0,1-.17-.17.17.17,0,0,1,.17-.17H86a.61.61,0,0,1,.61.61v.47A.61.61,0,0,1,86,48.33Z"/><path class="cls-2" d="M92,69.13A4.2,4.2,0,0,1,91,69a4.26,4.26,0,0,1-3-2.44l-5.31-11.8a.18.18,0,0,1,.08-.23.17.17,0,0,1,.23.09l5.31,11.79a4,4,0,0,0,2.78,2.26,3.86,3.86,0,0,0,3.39-.87l.15-.14a.18.18,0,0,1,.25,0,.17.17,0,0,1,0,.24l-.15.14A4.16,4.16,0,0,1,92,69.13Z"/><path class="cls-2" d="M82.09,53.15a.17.17,0,0,1-.16-.11l-.59-1.31a.18.18,0,0,1,.08-.23.17.17,0,0,1,.23.09l.59,1.31a.18.18,0,0,1-.08.23Z"/><path class="cls-2" d="M133,39.71a.18.18,0,0,1-.17-.16,4.81,4.81,0,0,0-1.71-3.69,6,6,0,0,0-4.31-.88.17.17,0,0,1-.2-.14.19.19,0,0,1,.14-.2,6.29,6.29,0,0,1,4.58,1,5.19,5.19,0,0,1,1.85,3.94.18.18,0,0,1-.16.18Z"/><polygon class="cls-13" points="142.07 51.04 136.97 50.41 137.63 47.81 132 46.09 140.27 46.5 139.18 49.17 142.07 51.04"/><polygon class="cls-13" points="138.37 66.03 134.94 63.58 136.43 61.97 133.03 58.53 138.84 62.05 137.01 63.55 138.37 66.03"/><polygon class="cls-13" points="143.52 19.65 139.48 26 137.51 24.38 133.73 28.53 137.45 21.56 139.32 23.6 143.52 19.65"/></g></svg>