<svg xmlns="http://www.w3.org/2000/svg" xmlns:xlink="http://www.w3.org/1999/xlink" viewBox="0 0 250 250"><defs><style>.cls-1{fill:none;}.cls-12,.cls-2{fill:#fff;}.cls-3{fill:#eb384d;}.cls-4{fill:#f1f9fa;}.cls-5{fill:#c4f0f5;}.cls-6{fill:#e5fdff;}.cls-7{fill:#92dce0;}.cls-8{fill:#a1d3d3;}.cls-9{fill:#ffcd4f;}.cls-10{fill:#b1dbdd;}.cls-11{clip-path:url(#clip-path);}.cls-12{opacity:0.69;}.cls-13{fill:#f7b5bf;}.cls-14{opacity:0.5;}</style><clipPath id="clip-path"><path class="cls-1" d="M149.61,83.53c-.43-.44-1.36-2.11-2.16-6.44a88.58,88.58,0,0,1-1.19-15.29,88.62,88.62,0,0,1,1.19-15.3c.8-4.33,1.73-6,2.16-6.44.42.44,1.35,2.11,2.15,6.44s6.85,9.62,6.85,15.3-6.08,11.1-6.85,15.29S150,83.09,149.61,83.53Z"/></clipPath></defs><title>Artboard 14 copy 40</title><g id="Layer_1" data-name="Layer 1"><rect class="cls-2" x="-31.22" y="-19.8" width="333.78" height="292.12"/><path class="cls-3" d="M48.12,138.17a7.48,7.48,0,0,1-2.46-.35,4.59,4.59,0,0,1-1.76-1.07,3.16,3.16,0,0,1-.69-1,4.59,4.59,0,0,1-.35-1,4.43,4.43,0,0,1-.13-.92c0-.29,0-.55,0-.76s0-.7,0-1.31,0-1.35,0-2.21c0-.52,0-1.07,0-1.66s0-1.19,0-1.8,0-1.22,0-1.84,0-1.2-.09-1.77-.08-1.1-.13-1.6-.12-.94-.19-1.33l3.1-.92c.09.48.17,1,.23,1.73s.12,1.39.16,2.15.08,1.54.1,2.34,0,1.55,0,2.26c0,.22,0,.45,0,.68s0,.48,0,.71v2.18c0,.27,0,.54,0,.8s0,.5,0,.75V133a8.29,8.29,0,0,0,0,.88,1,1,0,0,0,.25.62A2.64,2.64,0,0,0,48,135h.11a1.42,1.42,0,0,1,.61.13,1.63,1.63,0,0,1,.51.34,1.75,1.75,0,0,1,.34.51,1.52,1.52,0,0,1,0,1.23,1.52,1.52,0,0,1-.34.51,1.6,1.6,0,0,1-.51.33A1.58,1.58,0,0,1,48.12,138.17Z"/><path class="cls-3" d="M63.24,135a1.48,1.48,0,0,1,1.11.46,1.56,1.56,0,0,1,.47,1.13,1.61,1.61,0,0,1-1.58,1.59h0a3.56,3.56,0,0,1-2.76-.94l-.26-.28-.26.27a3.17,3.17,0,0,1-2.32.9,5.29,5.29,0,0,1-1.7-.32,10.51,10.51,0,0,1-1.66-.69,16.47,16.47,0,0,1-1.74-1,4.79,4.79,0,0,1-1.06,1.05,5.46,5.46,0,0,1-3.28,1,1.61,1.61,0,0,1-1.58-1.58,1.56,1.56,0,0,1,.47-1.13,1.52,1.52,0,0,1,1.11-.47,3.29,3.29,0,0,0,2.56-1.33,9.41,9.41,0,0,0,.88-1.3c.18-.33.41-.79.7-1.38l.31-.62a7.38,7.38,0,0,1,1.59-2.22,3.47,3.47,0,0,1,2.41-.89,4.39,4.39,0,0,1,3,1.12,5.14,5.14,0,0,1,1.67,3.52v.18a.19.19,0,0,1,0,.08v.06s0,.06,0,.09l0,.28a5.18,5.18,0,0,0,.15.88,1.69,1.69,0,0,0,1.71,1.5Zm-5.19.19c.6-.17.92-.68,1-1.52a3.39,3.39,0,0,0-.42-1.91,3,3,0,0,0-1-1.14,1.8,1.8,0,0,0-1.34-.28c-.28.06-.67.6-1.19,1.63l-.44.89c-.05.11-.1.2-.14.3a.57.57,0,0,0-.06.12l-.13.29a11.5,11.5,0,0,0,3.61,1.65A.66.66,0,0,0,58.05,135.18Z"/><path class="cls-3" d="M61.74,136.6a1.52,1.52,0,0,1,.12-.59,1.66,1.66,0,0,1,.32-.49,1.85,1.85,0,0,1,.48-.35,1.61,1.61,0,0,1,.58-.16,2.85,2.85,0,0,0,1.32-.3,3.3,3.3,0,0,0,1-.79,5.55,5.55,0,0,0,.73-1.12,11.46,11.46,0,0,0,.54-1.3c.15-.44.28-.88.39-1.31s.21-.82.31-1.17l3.08.68c-.07.23-.17.52-.29.88s-.23.74-.35,1.14-.21.8-.28,1.21a4.32,4.32,0,0,0-.08,1.1,1.55,1.55,0,0,0,.27.79.88.88,0,0,0,.75.3,1.69,1.69,0,0,0,1-.31,3.31,3.31,0,0,0,.79-.83,5.87,5.87,0,0,0,.62-1.17,11.74,11.74,0,0,0,.46-1.34c.12-.46.23-.9.32-1.34s.15-.83.2-1.17l2.89.55c0,.26-.06.53-.11.81s-.11.57-.17.87-.11.61-.15.94a8.14,8.14,0,0,0-.06,1,3.71,3.71,0,0,0,.08.77,1.63,1.63,0,0,0,.27.63,1.39,1.39,0,0,0,.51.45,1.75,1.75,0,0,0,.77.18,2.2,2.2,0,0,0,1.43-.45,1.62,1.62,0,0,0,.56-1.35,6.45,6.45,0,0,0-.18-1.45,15.73,15.73,0,0,0-.43-1.53c-.17-.49-.35-1-.54-1.39s-.35-.79-.49-1.08l2.65-1.48c0,.09.13.25.24.5s.24.53.38.88.28.74.44,1.17.29.9.41,1.37.23,1,.31,1.48a9.55,9.55,0,0,1,.12,1.49,5.66,5.66,0,0,1-.35,2.07,4.08,4.08,0,0,1-1,1.58,4.42,4.42,0,0,1-1.68,1,6.55,6.55,0,0,1-2.3.34,3.33,3.33,0,0,1-1.13-.15,3.14,3.14,0,0,1-.9-.44,3.62,3.62,0,0,1-.72-.63,6.17,6.17,0,0,1-.56-.73,6.73,6.73,0,0,1-.62.77,3.53,3.53,0,0,1-.77.6,4,4,0,0,1-1,.41,4.8,4.8,0,0,1-1.26.17,3.45,3.45,0,0,1-1.1-.14,3.38,3.38,0,0,1-.9-.42,4.35,4.35,0,0,1-.73-.62,6.26,6.26,0,0,1-.6-.76,4.73,4.73,0,0,1-.54.68,3.7,3.7,0,0,1-.75.57,4.6,4.6,0,0,1-1.07.4,6.52,6.52,0,0,1-1.49.15h-.21a1.27,1.27,0,0,1-.58-.14,1.61,1.61,0,0,1-.48-.34,1.86,1.86,0,0,1-.32-.5A1.46,1.46,0,0,1,61.74,136.6Zm12.85-13.1-2.1,2.1-2.12-2.11,2.1-2.12Zm-1.7-3.57L74.81,118l1.94,1.94-1.92,1.93Zm6.37,3.58-2.1,2.11L75,123.5l2.1-2.1Z"/><path class="cls-3" d="M99.05,144.68a8.47,8.47,0,0,0,1.81.11,10.08,10.08,0,0,0,1.76-.24,9,9,0,0,0,1.64-.52,9.82,9.82,0,0,0,1.44-.77l1.67,2.77c-.48.29-1,.55-1.48.8a12.49,12.49,0,0,1-1.57.62,11.61,11.61,0,0,1-1.67.4,9.72,9.72,0,0,1-1.81.12,16.82,16.82,0,0,1-2.4-.24,11.25,11.25,0,0,1-2.36-.7,9,9,0,0,1-2.1-1.26,6.83,6.83,0,0,1-1.63-1.93h0a6.62,6.62,0,0,1-.7-1.57,6.35,6.35,0,0,1-.26-1.79,6.55,6.55,0,0,1,.28-1.86,9.28,9.28,0,0,1,.68-1.66,7.31,7.31,0,0,1,.87-1.24,10.4,10.4,0,0,1,1.11-1.09,11.51,11.51,0,0,1,1.28-.92A11.93,11.93,0,0,1,97,133l-.81-.73-.8-.69-.72-.61-.55-.47-.24-2.65a11.67,11.67,0,0,1,1.18-.92,13.49,13.49,0,0,1,1.25-.73,12.16,12.16,0,0,1,1.2-.54q.58-.21,1-.33a13.69,13.69,0,0,1,1.38-.23,12.16,12.16,0,0,1,1.34-.07,10.21,10.21,0,0,1,1.38.09,6.81,6.81,0,0,1,1.24.29h0A4.43,4.43,0,0,1,106,126.7a3,3,0,0,1,.71,2.13,5,5,0,0,1-2.08,3.91,7.61,7.61,0,0,1-.81.55c-.3.17-.59.34-.87.48a9.47,9.47,0,0,0,1.06.51,8.61,8.61,0,0,0,1.15.38,9.66,9.66,0,0,0,1.16.26,7.11,7.11,0,0,0,1.11.09,1.41,1.41,0,0,1,.62.13,1.61,1.61,0,0,1,.5.35,1.72,1.72,0,0,1,.33.51,1.53,1.53,0,0,1,.12.6,1.58,1.58,0,0,1-.45,1.12,1.43,1.43,0,0,1-.5.34,1.56,1.56,0,0,1-.62.12,9.66,9.66,0,0,1-2-.21,12.56,12.56,0,0,1-2-.61,16.77,16.77,0,0,1-1.92-.92c-.63-.36-1.26-.76-1.88-1.19a14.88,14.88,0,0,0-1.83.84,9.49,9.49,0,0,0-1.69,1.11,5.42,5.42,0,0,0-1.24,1.43,3.46,3.46,0,0,0-.48,1.82,2.6,2.6,0,0,0,.23,1.09,3.92,3.92,0,0,0,.6,1,5,5,0,0,0,.85.81,7.74,7.74,0,0,0,1,.66,6.55,6.55,0,0,0,1,.46A4.67,4.67,0,0,0,99.05,144.68ZM101.26,128a7.43,7.43,0,0,0-1,.07,9.73,9.73,0,0,0-1.08.18c-.35.08-.69.18-1,.29a6.37,6.37,0,0,0-.86.36l.59.62c.21.24.44.48.68.74s.49.51.75.76.5.48.75.7c.54-.23,1-.47,1.52-.71a9.75,9.75,0,0,0,1.23-.73,3.72,3.72,0,0,0,.83-.79,1.36,1.36,0,0,0,.32-.84s-.06-.08-.16-.14a1.42,1.42,0,0,0-.47-.2,7,7,0,0,0-.83-.19A7.72,7.72,0,0,0,101.26,128Zm1.29-7.13-2.36,2.36-2.37-2.37,2.36-2.36Z"/><path class="cls-3" d="M105.83,136.59A1.44,1.44,0,0,1,106,136a1.45,1.45,0,0,1,.33-.5,1.77,1.77,0,0,1,.5-.34,1.61,1.61,0,0,1,.63-.12h.93a18.2,18.2,0,0,0,1.85-.09,5.57,5.57,0,0,0,1.57-.36,2.73,2.73,0,0,0,1.1-.79,2.32,2.32,0,0,0,.45-1.35,3.61,3.61,0,0,0,0-.66,6.37,6.37,0,0,0-.11-.68c-.06-.25-.12-.51-.21-.8s-.17-.62-.28-1l3-.85c.1.39.19.75.26,1.08s.11.64.16.94.07.6.1.92.06.66.09,1,.07.58.11.89a3.06,3.06,0,0,0,.26.84,1.63,1.63,0,0,0,.49.63,1.29,1.29,0,0,0,.84.25,1.59,1.59,0,0,1,.62.12,2,2,0,0,1,.51.34,1.64,1.64,0,0,1,.34.5,1.59,1.59,0,0,1,.12.62,1.44,1.44,0,0,1-.13.62,1.58,1.58,0,0,1-1.45,1,4.84,4.84,0,0,1-2.05-.39,4.58,4.58,0,0,1-1.4-1,4.5,4.5,0,0,1-1.23.67,9.46,9.46,0,0,1-1.53.44,15.83,15.83,0,0,1-1.72.24c-.6.05-1.18.07-1.76.07h-.93a1.61,1.61,0,0,1-.63-.12,1.56,1.56,0,0,1-.5-.33,1.5,1.5,0,0,1-.33-.51A1.44,1.44,0,0,1,105.83,136.59Zm5.82,5.91-2.1,2.1-2.12-2.12,2.1-2.11Zm4.67,0-2.1,2.11-2.12-2.12,2.1-2.1Z"/><path class="cls-3" d="M116.43,136.59a1.44,1.44,0,0,1,.13-.62,1.67,1.67,0,0,1,.33-.5,2,2,0,0,1,.51-.34A1.54,1.54,0,0,1,118,135h1.16l.57,0,.38-.05a1.09,1.09,0,0,0,.25-.07.35.35,0,0,0,.16-.09.93.93,0,0,0,.23-.31,2.05,2.05,0,0,0,.15-.44,4.34,4.34,0,0,0,.09-.54c0-.19,0-.38,0-.57v0c0-.23,0-.59,0-1.08s0-1.05,0-1.7,0-1.35,0-2.11,0-1.55,0-2.34c0-1.33,0-2.55,0-3.65s-.1-2.06-.19-2.87l3.14-.41c.11.92.19,2,.24,3.22s.07,2.56.07,4c0,1.15,0,2.3,0,3.44s0,2.32,0,3.55a3.88,3.88,0,0,0,.06.61,1.76,1.76,0,0,0,.26.7,1.72,1.72,0,0,0,.56.5,2.26,2.26,0,0,0,1.06.2,1.59,1.59,0,0,1,.62.12,1.69,1.69,0,0,1,.51.34,2,2,0,0,1,.35.5,1.54,1.54,0,0,1,0,1.24,1.71,1.71,0,0,1-.35.51,1.5,1.5,0,0,1-.51.33,1.59,1.59,0,0,1-.62.12,6,6,0,0,1-2-.26,3.2,3.2,0,0,1-1.4-1,3.5,3.5,0,0,1-.73.63,3.18,3.18,0,0,1-.8.36,4.11,4.11,0,0,1-.86.18c-.29,0-.59,0-.9,0H118a1.54,1.54,0,0,1-.61-.12,1.72,1.72,0,0,1-.51-.33,1.5,1.5,0,0,1-.33-.51A1.44,1.44,0,0,1,116.43,136.59Z"/><path class="cls-3" d="M124.68,136.59a1.44,1.44,0,0,1,.13-.62,1.67,1.67,0,0,1,.33-.5,1.77,1.77,0,0,1,.5-.34,1.59,1.59,0,0,1,.62-.12h.21a5.23,5.23,0,0,0,2.87-.65,2.18,2.18,0,0,0,1-1.94,4.4,4.4,0,0,0,0-.65,5.84,5.84,0,0,0-.15-.64c-.06-.23-.13-.48-.22-.75s-.18-.59-.28-.95l3-.85q.22.87.42,1.83a10.88,10.88,0,0,1,.19,2,5.27,5.27,0,0,0,.07.87,2.75,2.75,0,0,0,.25.84,1.8,1.8,0,0,0,.52.63,1.34,1.34,0,0,0,.85.25,1.58,1.58,0,0,1,.61.12,1.82,1.82,0,0,1,.51.34,1.7,1.7,0,0,1,.34.5,1.54,1.54,0,0,1,0,1.24,1.52,1.52,0,0,1-.34.51,1.67,1.67,0,0,1-.5.33,1.54,1.54,0,0,1-.61.12,4.94,4.94,0,0,1-2-.37,4.51,4.51,0,0,1-1.4-1,7.83,7.83,0,0,1-5.07,1.37h-.21a1.59,1.59,0,0,1-.62-.12,1.56,1.56,0,0,1-.5-.33,1.5,1.5,0,0,1-.33-.51A1.44,1.44,0,0,1,124.68,136.59Zm8.75,5.67-2.36,2.36-2.37-2.37,2.36-2.36Z"/><path class="cls-3" d="M133.1,136.59a1.59,1.59,0,0,1,.12-.62,1.35,1.35,0,0,1,.34-.5,1.77,1.77,0,0,1,.5-.34,1.56,1.56,0,0,1,.62-.12h2c.4,0,.83,0,1.29,0a9,9,0,0,0,1.3-.18,5.34,5.34,0,0,0,1.13-.35,1.77,1.77,0,0,0,.75-.59,1.29,1.29,0,0,0,.19-.73,3.68,3.68,0,0,0-.12-1,10.39,10.39,0,0,0-.35-1.14c-.14-.4-.29-.79-.46-1.16s-.33-.73-.49-1.07l-.4-.84,2.88-1.42a12.07,12.07,0,0,1,.66,1.42,15.92,15.92,0,0,1,.57,1.73c.17.59.3,1.17.41,1.75a9.14,9.14,0,0,1,.15,1.53,5.37,5.37,0,0,1-.41,2.14,4.57,4.57,0,0,1-1.32,1.78,5.11,5.11,0,0,1-2.92,1.2c-.36,0-.72.07-1.09.09l-1.06,0h-2.67a1.58,1.58,0,0,1-1.12-.45,1.39,1.39,0,0,1-.34-.51A1.59,1.59,0,0,1,133.1,136.59Zm7.05-14.18-2.1,2.1-2.13-2.11,2.1-2.11Zm4.67,0-2.1,2.12-2.13-2.13,2.1-2.1Z"/><path class="cls-3" d="M157.12,133.9a5.78,5.78,0,0,0-.62,1.22,9,9,0,0,0-.45,1.54,10.55,10.55,0,0,0-.2,2.17,4.17,4.17,0,0,0,.22,1.36,3.65,3.65,0,0,0,.6,1.06,4.35,4.35,0,0,0,.85.81,5.63,5.63,0,0,0,1,.56,5.81,5.81,0,0,0,1,.34,5.47,5.47,0,0,0,.88.14h.35a5.92,5.92,0,0,0,1.8-.29,5.47,5.47,0,0,0,1.76-.91,5.17,5.17,0,0,0,1.33-1.61,4.94,4.94,0,0,0,.52-2.37c0-.66,0-1.42,0-2.3s-.05-1.82-.09-2.81-.08-2-.13-3.07-.1-2.08-.15-3.09c-.11-2.35-.25-4.8-.39-7.36l3.22-.61c.07,1.58.13,3.19.2,4.83,0,.7.05,1.44.08,2.23s.06,1.58.08,2.39l.09,2.45c0,.82.05,1.62.07,2.39a2.91,2.91,0,0,0,.15.6,2.12,2.12,0,0,0,1,1.2,2,2,0,0,0,1,.23,1.48,1.48,0,0,1,.63.13,1.61,1.61,0,0,1,.5.35,1.43,1.43,0,0,1,.34.5,1.63,1.63,0,0,1,.13.61,1.56,1.56,0,0,1-.13.62,1.62,1.62,0,0,1-.84.84,1.85,1.85,0,0,1-.63.11,7.68,7.68,0,0,1-1.15-.08,4.23,4.23,0,0,1-.87-.25V138a9.42,9.42,0,0,1-.38,2.77,7.64,7.64,0,0,1-1,2.15,6.92,6.92,0,0,1-1.49,1.56,8.42,8.42,0,0,1-1.77,1,8.88,8.88,0,0,1-1.88.59,9.94,9.94,0,0,1-1.83.18h-.23l-.24,0a10.25,10.25,0,0,1-1.63-.27,8.79,8.79,0,0,1-1.66-.62,7.92,7.92,0,0,1-1.55-1,6.34,6.34,0,0,1-1.29-1.39,7,7,0,0,1-.87-1.85,7.38,7.38,0,0,1-.32-2.33,15.83,15.83,0,0,1,.24-2.81,12.72,12.72,0,0,1,.5-1.9,6.32,6.32,0,0,1,.72-1.45Z"/><path class="cls-3" d="M169.59,136.6a1.62,1.62,0,0,1,.12-.61,1.58,1.58,0,0,1,.34-.5,1.65,1.65,0,0,1,.51-.35,1.44,1.44,0,0,1,.62-.13h2.26a16.13,16.13,0,0,0,3.07-.3,24.11,24.11,0,0,0,3-.8c1-.33,2-.69,2.91-1.1s1.82-.81,2.65-1.22a4.74,4.74,0,0,1-1-.26c-.37-.13-.75-.28-1.13-.45l-1.19-.53c-.4-.19-.81-.36-1.21-.52a10.74,10.74,0,0,0-1.22-.38,4.91,4.91,0,0,0-1.19-.15,2.36,2.36,0,0,0-.87.17,4.21,4.21,0,0,0-.78.42,4.39,4.39,0,0,0-.65.55c-.2.2-.36.38-.5.55s-.28.37-.44.6l-2.47-1.35a8.36,8.36,0,0,1,1.1-1.56,9.88,9.88,0,0,1,1.44-1.32,7.41,7.41,0,0,1,1.6-.92,4.2,4.2,0,0,1,1.57-.34,5.57,5.57,0,0,1,1.27.15,9.19,9.19,0,0,1,1.28.37c.43.15.87.33,1.32.53l1.34.61c.48.23,1,.46,1.57.69s1.16.42,1.76.6a16.4,16.4,0,0,0,1.81.43,9.64,9.64,0,0,0,1.73.17l-.53,3c-.31.14-.61.28-.9.43l-.89.44a1.78,1.78,0,0,0,.75.81,4.35,4.35,0,0,0,1.07.45,5.5,5.5,0,0,0,1.09.18c.35,0,.62,0,.82,0h.17a1.48,1.48,0,0,1,.63.13,1.61,1.61,0,0,1,.5.35,1.43,1.43,0,0,1,.34.5,1.46,1.46,0,0,1,.13.61,1.41,1.41,0,0,1-.13.62,1.62,1.62,0,0,1-.84.84,1.85,1.85,0,0,1-.63.11h-.17a11.32,11.32,0,0,1-2.25-.21,8.47,8.47,0,0,1-1.88-.63,5.65,5.65,0,0,1-1.47-1,4.74,4.74,0,0,1-1-1.36q-1.25.62-2.58,1.2c-.89.38-1.81.73-2.76,1a25.11,25.11,0,0,1-3,.73,18.77,18.77,0,0,1-3.23.27h-2.26a1.8,1.8,0,0,1-.62-.11,1.47,1.47,0,0,1-.51-.34,1.58,1.58,0,0,1-.34-.5A1.56,1.56,0,0,1,169.59,136.6Z"/><path class="cls-3" d="M190.2,136.59a1.55,1.55,0,0,1,.13-.61,1.51,1.51,0,0,1,.33-.49,1.49,1.49,0,0,1,.49-.34,1.65,1.65,0,0,1,.62-.14,3.34,3.34,0,0,0,1.57-.34,4.28,4.28,0,0,0,1.18-.88,6.29,6.29,0,0,0,.9-1.23c.26-.45.51-.9.74-1.35s.44-.87.67-1.3a8.62,8.62,0,0,1,.76-1.16,4.59,4.59,0,0,1,1.37-1.1,3.34,3.34,0,0,1,1.61-.4,4.13,4.13,0,0,1,1.86.42,4.73,4.73,0,0,1,1.52,1.21,5.42,5.42,0,0,1,.85,1.44,6.16,6.16,0,0,1,.42,1.74v0a5.7,5.7,0,0,1,.08,1,7.12,7.12,0,0,1-.11,1.23,6,6,0,0,1-.31,1.14,4.19,4.19,0,0,1-1.06,1.58,3.8,3.8,0,0,1-1.51.89,3.45,3.45,0,0,1-.54.11,5.25,5.25,0,0,1-.56,0,4.9,4.9,0,0,1-1.1-.13,8.53,8.53,0,0,1-1.16-.35l-.58-.27c-.21-.1-.43-.21-.65-.34s-.45-.25-.67-.39l-.61-.4a8.83,8.83,0,0,1-1,.85,5.93,5.93,0,0,1-1.09.63,5,5,0,0,1-1.21.39,6.57,6.57,0,0,1-1.37.13,1.63,1.63,0,0,1-.62-.12,1.66,1.66,0,0,1-.49-.34,1.56,1.56,0,0,1-.33-.5A1.6,1.6,0,0,1,190.2,136.59Zm8.1-3a5.76,5.76,0,0,0,.92.56c.34.16.68.31,1,.43a7,7,0,0,0,.93.29,3,3,0,0,0,.68.11,1.06,1.06,0,0,0,.31,0,.48.48,0,0,0,.25-.15,1.06,1.06,0,0,0,.23-.36,2.19,2.19,0,0,0,.16-.51,2.39,2.39,0,0,0,0-.67,2.55,2.55,0,0,0-.09-.43,6,6,0,0,0-.23-.6,4.63,4.63,0,0,0-.35-.65,4,4,0,0,0-.47-.6,2.58,2.58,0,0,0-.6-.44,1.55,1.55,0,0,0-.71-.17c-.23,0-.46.18-.68.54s-.52.9-.89,1.62Z"/><path class="cls-3" d="M47.59,213a1,1,0,0,0-1.05,1,.94.94,0,0,0,.28.72,1.2,1.2,0,0,0,1.54,0,.91.91,0,0,0,.29-.72,1,1,0,0,0-.29-.73A1,1,0,0,0,47.59,213Z"/><rect class="cls-3" x="62.44" y="216.28" width="1.89" height="1.91" transform="translate(-135.4 109.09) rotate(-45.19)"/><rect class="cls-3" x="65.69" y="216.3" width="1.88" height="1.91" transform="translate(-134.11 110.74) rotate(-45)"/><rect class="cls-3" x="72.3" y="202.53" width="1.9" height="1.91" transform="translate(-122.43 111.4) rotate(-45)"/><path class="cls-3" d="M84.8,199.78c-.1-.21-.2-.44-.29-.67l-3.62,1.55-3.61,1.55c0,.28-.07.55-.1.82s-.06.55-.1.84c.34.27.67.56,1,.86s.64.6.94.9.58.61.84.91.49.59.7.86.36.52.5.75a2.33,2.33,0,0,1,.27.61,3.9,3.9,0,0,1,.14,1,2.34,2.34,0,0,1-.4,1.36,1.75,1.75,0,0,1-.73.64,4.13,4.13,0,0,1-1,.32,7.48,7.48,0,0,1-1.17.12l-1.18,0h-.86a1.92,1.92,0,0,1-.83-.15,1.12,1.12,0,0,1-.48-.43,1.93,1.93,0,0,1-.23-.69,7.89,7.89,0,0,1-.08-.92,7.8,7.8,0,0,0-.13-1.23c-.08-.43-.18-.91-.32-1.43-.25.07-.47.13-.67.2l-.69.19c.06.23.11.43.15.62s.08.37.11.54,0,.32.07.48,0,.32,0,.48a2.08,2.08,0,0,1-.76,1.76,4.06,4.06,0,0,1-2.4.58h-.23a1.54,1.54,0,0,1-.84-.19,1.28,1.28,0,0,1-.48-.47,1.85,1.85,0,0,1-.24-.67,6.46,6.46,0,0,1-.11-.75c0-.24-.06-.46-.08-.67s-.05-.4-.08-.61-.06-.41-.1-.63-.1-.46-.17-.72l-.68.19c-.2.07-.43.13-.68.2.06.23.11.44.15.62s.07.35.1.51,0,.32.06.47,0,.31,0,.47a1.86,1.86,0,0,1-.29,1.17,2.09,2.09,0,0,1-.88.68,4.77,4.77,0,0,1-1.3.31,12.75,12.75,0,0,1-1.54.09h-.71a3.24,3.24,0,0,1-1-.12,1.61,1.61,0,0,1-.62-.34,1.78,1.78,0,0,1-.39-.54c-.1-.21-.2-.45-.3-.71l-1.29-3.1c-.36-.87-.66-1.59-.89-2.16l-.7-1.67-.64.27-.67.29L58.16,211a2.3,2.3,0,0,1-.27.22l-.39.23-.46.24-.48.21a3.53,3.53,0,0,1-.73.19,4.29,4.29,0,0,1-.76.07,4.15,4.15,0,0,1-1.48-.3,5.11,5.11,0,0,1-1.51-.92c-.15.2-.29.39-.41.57s-.27.36-.42.58a4.93,4.93,0,0,0,.78.64,5.81,5.81,0,0,0,.88.49,5.5,5.5,0,0,0,1,.3,4.66,4.66,0,0,0,1,.1,7.5,7.5,0,0,0,1.22-.09,5.91,5.91,0,0,0,1-.29h0l.46-.2.49-.23a3.94,3.94,0,0,0,.46-.23c.14-.09.27-.17.37-.25a2.77,2.77,0,0,0,.47.5,3,3,0,0,0,.62.41,3.58,3.58,0,0,0,.8.28,4.49,4.49,0,0,0,1,.1h.71a11.93,11.93,0,0,0,1.32-.07,9,9,0,0,0,1.3-.22,7.51,7.51,0,0,0,1.16-.38,3.15,3.15,0,0,0,.88-.59,3.64,3.64,0,0,0,.46.5,2.73,2.73,0,0,0,.56.4,2.83,2.83,0,0,0,1.47.36h.22a7.18,7.18,0,0,0,2.22-.3,4.07,4.07,0,0,0,1.55-.92,3.1,3.1,0,0,0,.46.5,2.69,2.69,0,0,0,.55.38,3,3,0,0,0,.67.25c.13,0,.29,0,.43.05a1,1,0,0,0,.26,0h3.33l.38-.05a3.58,3.58,0,0,0,2.63-1.72h0a5.17,5.17,0,0,0,.37-.89,3.64,3.64,0,0,0,.15-1.07,5,5,0,0,0-.11-1,6,6,0,0,0-.37-1.08,8.22,8.22,0,0,0-.67-1.2,11,11,0,0,0-1-1.3,13,13,0,0,0-1.11-1.12l-1.11-1,6.64-2.8C85,200.22,84.9,200,84.8,199.78Z"/><rect class="cls-3" x="112.2" y="216.28" width="1.89" height="1.91" transform="translate(-120.71 144.4) rotate(-45.19)"/><rect class="cls-3" x="115.45" y="216.3" width="1.88" height="1.91" transform="translate(-119.53 145.93) rotate(-45)"/><path class="cls-3" d="M134.16,199.78l-.29-.67-3.61,1.55-3.62,1.55c0,.28-.06.55-.1.82l-.09.84c.33.27.66.56,1,.86s.64.6.93.9.58.61.84.91.5.59.7.86a7.49,7.49,0,0,1,.5.75,2.33,2.33,0,0,1,.27.61,3.47,3.47,0,0,1,.14,1,2.41,2.41,0,0,1-.39,1.36,1.77,1.77,0,0,1-.74.64,4,4,0,0,1-1,.32,7.24,7.24,0,0,1-1.17.12l-1.18,0h-.84a2.64,2.64,0,0,1-.6-.06,1.36,1.36,0,0,1-.43-.15,1.24,1.24,0,0,1-.32-.23,3.25,3.25,0,0,1-.23-.29,1.5,1.5,0,0,1-.16-.34,1.39,1.39,0,0,1-.1-.33c0-.1,0-.2,0-.3a2.18,2.18,0,0,1,0-.25c0-.72,0-1.52,0-2.4s0-1.8,0-2.77c0-.47,0-1,0-1.44s0-1,0-1.42,0-.88,0-1.28,0-.74-.08-1l-.69.09-.72.1c0,.27,0,.58.06.94s0,.74,0,1.15,0,.86,0,1.31v1.37c0,.59,0,1.16,0,1.73s0,1.09,0,1.57,0,.89,0,1.25,0,.63,0,.8,0,.33,0,.5a2.4,2.4,0,0,1-.1.48,2.5,2.5,0,0,1-.16.41,1,1,0,0,1-.25.31.52.52,0,0,1-.19.12,1.23,1.23,0,0,1-.25.08l-.35,0-.49,0h-.91a1.58,1.58,0,0,1-.84-.19,1.28,1.28,0,0,1-.48-.47,2.31,2.31,0,0,1-.24-.67c0-.25-.08-.5-.11-.75s-.06-.46-.08-.67,0-.4-.07-.61-.06-.41-.11-.63-.1-.46-.17-.72l-.67.19c-.2.07-.43.13-.69.2.06.23.11.44.15.62s.07.35.1.51a4.32,4.32,0,0,1,.06.47l0,.47a1.86,1.86,0,0,1-.29,1.17,2.15,2.15,0,0,1-.88.68,4.84,4.84,0,0,1-1.31.31,12.63,12.63,0,0,1-1.54.09h-.75a4.57,4.57,0,0,1-1.89-.37,3.72,3.72,0,0,1-1-.65,4.24,4.24,0,0,1-.67-.81,5,5,0,0,1-.47-.89c-.12-.31-.23-.62-.33-.92a7,7,0,0,0-.67-1.38,9.8,9.8,0,0,0-1-1.38,16.44,16.44,0,0,0-1.32-1.32,18.12,18.12,0,0,0-1.54-1.2l7.36-3.12-.54-1.32-7.93,3.4q0,.43-.09.84c0,.27-.06.55-.09.85.24.18.53.41.84.67s.64.54,1,.84.66.64,1,1a10.2,10.2,0,0,1,.87,1,6.48,6.48,0,0,1,.61,1.07,2.59,2.59,0,0,1,.23,1,1.78,1.78,0,0,1-.4,1.13,3.19,3.19,0,0,1-1.35.88,6.55,6.55,0,0,1-.66.21,7.54,7.54,0,0,1-.9.21q-.51.09-1.14.15c-.42,0-.89.06-1.4.06H98.75l-.54,0-.57,0-.56,0a9.59,9.59,0,0,1-2.84-.66,2.85,2.85,0,0,1-1.48-1.21,2,2,0,0,1-.2-.9,3.48,3.48,0,0,1,.22-1.17h0c0-.06.06-.15.11-.27l.18-.35a4.65,4.65,0,0,1,.23-.43l-1.16-.86-.3.55c-.13.23-.26.5-.4.81a4.07,4.07,0,0,0-.26.82,4.41,4.41,0,0,0-.08.79,3.51,3.51,0,0,0,.11.87,3,3,0,0,0,.27.77h0a5.19,5.19,0,0,0,.44.67,2.89,2.89,0,0,0,.5.49,5,5,0,0,0,1.1.68,7.35,7.35,0,0,0,1.22.43,11.16,11.16,0,0,0,1.28.26c.44.06.87.12,1.3.16s1.18.08,1.82.08H100a17.83,17.83,0,0,0,2.77-.2,8.65,8.65,0,0,0,2.17-.64h0a6.54,6.54,0,0,0,1-.6,3.24,3.24,0,0,0,.86-1,5.71,5.71,0,0,0,2.1,1.82,6.14,6.14,0,0,0,2.7.61h.7a11.93,11.93,0,0,0,1.32-.07,9,9,0,0,0,1.31-.22,7.38,7.38,0,0,0,1.15-.38,3.21,3.21,0,0,0,.89-.59,3,3,0,0,0,.45.5,2.73,2.73,0,0,0,.56.4,3.44,3.44,0,0,0,.68.27,3.32,3.32,0,0,0,.8.09h1.1a3.86,3.86,0,0,0,.47,0,4.44,4.44,0,0,0,.49-.07,2.59,2.59,0,0,0,.51-.18,2.37,2.37,0,0,0,.5-.3l.2-.19.26-.27a3.63,3.63,0,0,0,.46.41,3.6,3.6,0,0,0,.58.32,3.49,3.49,0,0,0,.69.23,4.71,4.71,0,0,0,.54,0l.15,0h3.33l.38-.05a3.56,3.56,0,0,0,2.63-1.72h0a4.48,4.48,0,0,0,.37-.89,3.64,3.64,0,0,0,.15-1.07,5,5,0,0,0-.11-1,5.33,5.33,0,0,0-.37-1.08,8.22,8.22,0,0,0-.67-1.2,10.86,10.86,0,0,0-1-1.3,14.79,14.79,0,0,0-1.12-1.12q-.58-.52-1.11-1l6.65-2.8C134.35,200.22,134.26,200,134.16,199.78Z"/><rect class="cls-3" x="149.59" y="203.8" width="1.88" height="1.91" transform="translate(-100.57 165.59) rotate(-44.81)"/><rect class="cls-3" x="146.33" y="203.78" width="1.89" height="1.91" transform="translate(-101.65 164.2) rotate(-45.02)"/><path class="cls-3" d="M156.86,209.52a10.15,10.15,0,0,0-.36-1.15c-.15-.39-.31-.74-.46-1.07s-.32-.62-.47-.87l-.34-.57-1.21.78.38.65c.17.29.35.62.53,1a9.69,9.69,0,0,1,.48,1.18,5.72,5.72,0,0,1,.27,1.22,9.17,9.17,0,0,1-1.73.73,15.4,15.4,0,0,1-1.84.45,16.83,16.83,0,0,1-1.81.22c-.59,0-1.13.07-1.62.07a18.35,18.35,0,0,1-2.33-.14,12.08,12.08,0,0,1-1.88-.4,5.28,5.28,0,0,1-1.37-.61,2.54,2.54,0,0,1-.82-.81,1.81,1.81,0,0,1-.14-.43,1.84,1.84,0,0,1-.06-.47,2.86,2.86,0,0,1,.07-.56c0-.19.11-.39.19-.61s.2-.42.26-.55l.14-.29.06-.13,0-.07-1.15-.86c-.08.13-.18.3-.31.54a6.23,6.23,0,0,0-.37.81,6,6,0,0,0-.26.89,4.14,4.14,0,0,0-.09.84,3.27,3.27,0,0,0,.36,1.54A3.39,3.39,0,0,0,142,212a5.67,5.67,0,0,0,1.52.85,12.15,12.15,0,0,0,2.28.54,21.37,21.37,0,0,0,2.91.21,14.16,14.16,0,0,0,1.88-.11c.68-.08,1.36-.2,2-.34a19.58,19.58,0,0,0,1.91-.53,9.44,9.44,0,0,0,1.54-.67,2.56,2.56,0,0,0,.73-.68,1.34,1.34,0,0,0,.22-.75,4,4,0,0,0,0-.48C156.93,209.87,156.9,209.7,156.86,209.52Z"/><rect class="cls-3" x="167.87" y="200.78" width="1.9" height="1.91" transform="translate(-93.21 178.55) rotate(-45.02)"/><rect class="cls-3" x="177.68" y="216.3" width="1.88" height="1.91" transform="translate(-101.3 189.94) rotate(-45)"/><rect class="cls-3" x="174.43" y="216.28" width="1.89" height="1.91" transform="translate(-102.34 188.54) rotate(-45.19)"/><rect class="cls-3" x="190.29" y="216.11" width="1.9" height="1.91" transform="translate(-97.48 198.8) rotate(-45)"/><path class="cls-3" d="M200,207.6c-.07-.22-.15-.44-.22-.65l-.22-.57-.21-.47a3.54,3.54,0,0,1-.14-.33l-1.3.65.15.34c.07.14.13.29.2.46s.13.34.2.52.13.34.18.49c.14.43.25.82.33,1.18a4,4,0,0,1,.13,1,1.81,1.81,0,0,1-.15.8h0a1.36,1.36,0,0,1-.65.67,4,4,0,0,1-1,.36,7.6,7.6,0,0,1-1.19.13l-1.13,0h-.8a1.92,1.92,0,0,1-.83-.15,1.12,1.12,0,0,1-.48-.43,1.93,1.93,0,0,1-.23-.69c0-.27-.06-.58-.08-.92a7.8,7.8,0,0,0-.13-1.23c-.07-.43-.18-.91-.32-1.43-.25.07-.47.13-.67.2l-.69.19c.06.23.11.43.15.62s.08.37.11.54a4,4,0,0,1,.07.48,3.85,3.85,0,0,1,0,.48,2.08,2.08,0,0,1-.76,1.76,4,4,0,0,1-2.4.58h-.18a2.64,2.64,0,0,1-.6-.06,1.36,1.36,0,0,1-.43-.15,1,1,0,0,1-.31-.23,2.17,2.17,0,0,1-.24-.29,2.11,2.11,0,0,1-.16-.34,2.07,2.07,0,0,1-.1-.33c0-.1,0-.2,0-.3a2.18,2.18,0,0,1,0-.25c0-.72,0-1.52,0-2.4s0-1.8,0-2.77c0-.47,0-1,0-1.44s0-1,0-1.42,0-.88-.06-1.28-.05-.74-.08-1L185,200l-.72.1c0,.27,0,.58.06.94s0,.74,0,1.15,0,.86,0,1.31,0,.91,0,1.37,0,1.16,0,1.73,0,1.09,0,1.57,0,.89,0,1.25,0,.63,0,.8,0,.33-.05.5a3.41,3.41,0,0,1-.09.48,2.52,2.52,0,0,1-.17.41,1,1,0,0,1-.25.31.57.57,0,0,1-.18.12l-.25.08-.36,0-.48,0h-.92a1.58,1.58,0,0,1-.84-.19,1.35,1.35,0,0,1-.48-.47,2,2,0,0,1-.23-.67q-.08-.37-.12-.75c0-.24-.06-.46-.08-.67s0-.4-.07-.61-.06-.41-.1-.63-.1-.46-.18-.72l-.67.19c-.2.07-.43.13-.69.2.06.23.11.44.15.62s.08.35.1.51a4.32,4.32,0,0,1,.06.47l0,.47a1.86,1.86,0,0,1-.29,1.17,2.15,2.15,0,0,1-.88.68,4.86,4.86,0,0,1-1.3.31,12.92,12.92,0,0,1-1.55.09h-.72a12.16,12.16,0,0,1-1.9-.15,7.9,7.9,0,0,1-1.74-.46,8.12,8.12,0,0,0,1-.9,9.77,9.77,0,0,0,.88-1.09,5.72,5.72,0,0,0,.61-1.09,1.85,1.85,0,0,0,.17-.93,1.81,1.81,0,0,0-.05-.36,2,2,0,0,0-.22-.44,2.29,2.29,0,0,0-.43-.47,3.42,3.42,0,0,0-.72-.43,6,6,0,0,0-1.2-.35,6.45,6.45,0,0,0-1.33-.13l-.39,0-.42,0c-.25,0-.52.08-.82.14a5.83,5.83,0,0,0-.92.26,6.62,6.62,0,0,0-1,.43,4.62,4.62,0,0,0-.92.64L164.3,208l.72.85c.38.45.76.9,1.14,1.33s.81.86,1.26,1.28a6.64,6.64,0,0,1-.92.3c-.35.08-.7.15-1.07.21s-.74.1-1.11.14-.71,0-1,0h-.11a4.13,4.13,0,0,1-1-.14,1.5,1.5,0,0,1-.65-.37.88.88,0,0,1-.29-.57,3.69,3.69,0,0,1,0-.77v-.4c0-.18,0-.45,0-.8s0-.77,0-1.23c0-.31,0-.63,0-1s0-.67,0-1c0-.52,0-1.05,0-1.6s0-1.07,0-1.57-.05-1-.09-1.42-.08-.82-.13-1.14l-1.43.26c0,.29.09.66.13,1.11s.06.93.08,1.45.05,1,.06,1.59,0,1.06,0,1.54c0,.26,0,.53,0,.82v.76c0,.64,0,1.18,0,1.62s0,.72,0,.82v.16c0,.14,0,.31,0,.51a3.36,3.36,0,0,0,.07.61,3.56,3.56,0,0,0,.22.65,2.1,2.1,0,0,0,.44.61,2.84,2.84,0,0,0,1.15.69,5.47,5.47,0,0,0,1.62.22h.06a13.56,13.56,0,0,0,1.38-.07,14.13,14.13,0,0,0,1.43-.22c.48-.1.95-.22,1.4-.36a10,10,0,0,0,1.28-.5,8.13,8.13,0,0,0,2.28.88,12.68,12.68,0,0,0,2.68.27h.72a12.1,12.1,0,0,0,1.33-.07,9,9,0,0,0,1.3-.22,7.38,7.38,0,0,0,1.15-.38,3.07,3.07,0,0,0,.89-.59,3,3,0,0,0,.45.5,2.54,2.54,0,0,0,.57.4,3.12,3.12,0,0,0,.67.27,3.32,3.32,0,0,0,.8.09h1.1a3.77,3.77,0,0,0,.47,0,4.44,4.44,0,0,0,.49-.07,2.68,2.68,0,0,0,.52-.18,2.31,2.31,0,0,0,.49-.3l.2-.19.26-.27a3.11,3.11,0,0,0,1,.73,3.28,3.28,0,0,0,1.5.3h.18a7.18,7.18,0,0,0,2.22-.3,4.07,4.07,0,0,0,1.55-.92,3.64,3.64,0,0,0,.46.5,2.8,2.8,0,0,0,1.22.63,2.77,2.77,0,0,0,.3,0,.67.67,0,0,0,.28.06h2l.76,0,.77-.05a3.56,3.56,0,0,0,.61-.11,3.34,3.34,0,0,0,1.32-.69,3.4,3.4,0,0,0,.87-1.15,3.48,3.48,0,0,0,.26-1.39,6.48,6.48,0,0,0-.12-1.19A11.34,11.34,0,0,0,200,207.6Zm-30.61,2.77a3.27,3.27,0,0,1-.56.38,8.67,8.67,0,0,1-.72-.64c-.24-.22-.47-.46-.71-.72s-.48-.54-.73-.83l-.8-.95a6.23,6.23,0,0,1,1.45-.61,5.63,5.63,0,0,1,1.43-.19,5.28,5.28,0,0,1,1.38.18,4.09,4.09,0,0,1,1.22.54,1.33,1.33,0,0,1-.11.44,4.73,4.73,0,0,1-.31.57c-.13.21-.27.42-.44.65a8,8,0,0,1-.53.63C169.75,210,169.56,210.2,169.37,210.37Z"/><rect class="cls-3" x="195.51" y="201.44" width="1.89" height="1.91" transform="translate(-85.57 198.3) rotate(-45.02)"/><rect class="cls-3" x="198.76" y="201.45" width="1.88" height="1.91" transform="translate(-84.63 200.5) rotate(-45)"/><rect class="cls-3" x="56.96" y="184.31" width="1.89" height="1.91" transform="translate(-114.3 95.71) rotate(-45.17)"/><path class="cls-3" d="M62,179.91a3.48,3.48,0,0,0,.26-1.39,6.48,6.48,0,0,0-.12-1.19,11.34,11.34,0,0,0-.36-1.38c-.07-.22-.15-.44-.22-.65s-.15-.39-.23-.57-.14-.33-.2-.47a3.54,3.54,0,0,1-.14-.33l-1.3.65.15.34.2.46c.06.17.13.34.2.52s.13.34.18.49c.13.43.24.82.33,1.18a4.56,4.56,0,0,1,.13,1,1.81,1.81,0,0,1-.15.8h0A1.36,1.36,0,0,1,60,180a4,4,0,0,1-1,.36,7.6,7.6,0,0,1-1.19.13l-1.13,0h-.61l-3.68,0a3.38,3.38,0,0,0,.94-.76,5.85,5.85,0,0,0,.7-1,5.08,5.08,0,0,0,.43-1.11,3.58,3.58,0,0,0,.11-1,2.39,2.39,0,0,0-.35-1.16,3.05,3.05,0,0,0-.8-.88,3.67,3.67,0,0,0-1.08-.55,3.79,3.79,0,0,0-1.19-.19l-.31,0-.31,0a8.82,8.82,0,0,0-4.41,2.62l0-1.52c0-.23,0-.41,0-.54s0-.26,0-.39,0-.28,0-.44,0-.39-.06-.69l0-.42c0-.24-.05-.51-.08-.79l-.09-.89-.09-.91c0-.3-.07-.57-.1-.83s-.05-.48-.07-.67,0-.33-.05-.43l-1.41.32c0,.13,0,.33.08.61s.07.6.12,1,.08.83.13,1.32.09,1,.13,1.57.08,1,.1,1.47,0,.83,0,1.21c0,.22,0,.43,0,.63s0,.4,0,.6,0,.42,0,.66,0,.5-.08.79l-.23.33c-.25.31-.49.61-.7.91l-.53.74-1.21-.33c-.39-.12-.76-.25-1.12-.39-.09.23-.18.45-.25.66s-.17.43-.26.68a18.32,18.32,0,0,0,2.82.83,16.54,16.54,0,0,0,2.73.37h0l.7,0H57.63l.76,0,.77,0a2.8,2.8,0,0,0,.61-.11,3.34,3.34,0,0,0,1.32-.69A3.4,3.4,0,0,0,62,179.91Zm-10.81-.36a7.5,7.5,0,0,1-1.21.54,6.8,6.8,0,0,1-1.2.3c-.4.05-.78.09-1.16.11l-2.9-.09,1.59-2a14.29,14.29,0,0,1,2.39-2.17,5.07,5.07,0,0,1,2.09-.94,2.77,2.77,0,0,1,.42,0,3,3,0,0,1,.65.08,2.22,2.22,0,0,1,.62.24,1.58,1.58,0,0,1,.47.42,1.26,1.26,0,0,1,.24.62,1.85,1.85,0,0,1,0,.57,2.81,2.81,0,0,1-.18.56,2.49,2.49,0,0,1-.27.51,3.83,3.83,0,0,1-.32.42A7.13,7.13,0,0,1,51.15,179.55Z"/><rect class="cls-3" x="60.21" y="184.33" width="1.88" height="1.91" transform="translate(-113.14 97.57) rotate(-45.02)"/><path class="cls-3" d="M66.61,173.78c0-.37,0-.77,0-1.2s0-.87-.08-1.32-.06-.9-.09-1.3-.07-.77-.11-1.12c0-.18,0-.32-.05-.43s0-.21,0-.28a.88.88,0,0,0,0-.14.18.18,0,0,1,0-.06l-1.43.22c0,.19.06.53.11,1s.11,1.07.16,1.79.1,1.56.14,2.52.06,2,.06,3.13c0,.42,0,.83,0,1.26s0,.85,0,1.29,0,.89-.05,1.35,0,.95-.08,1.45l1.43.08c.07-1,.12-1.94.14-2.84s0-1.75,0-2.57c0-.52,0-1,0-1.49S66.62,174.21,66.61,173.78Z"/><polygon class="cls-3" points="75.39 181.95 75.39 181.95 75.38 181.95 75.39 181.95"/><rect class="cls-3" x="84.79" y="170.62" width="1.89" height="1.91" transform="translate(-96.19 110.81) rotate(-44.98)"/><rect class="cls-3" x="83.08" y="168.06" width="1.7" height="1.72" transform="translate(-94.86 108.82) rotate(-45)"/><polygon class="cls-3" points="83.37 171.57 82.02 170.22 80.68 171.56 82.04 172.91 83.37 171.57"/><path class="cls-3" d="M88.75,176c-.15-.43-.3-.82-.45-1.16l-.36-.75-1.27.68c.11.22.24.49.37.82s.27.68.39,1.05.22.76.31,1.14a5.25,5.25,0,0,1,.12,1.08,2.71,2.71,0,0,1-.09.71,1.55,1.55,0,0,1-.28.56,1.21,1.21,0,0,1-.48.38,1.6,1.6,0,0,1-.69.14,1.49,1.49,0,0,1-.75-.17,1.33,1.33,0,0,1-.48-.43,1.77,1.77,0,0,1-.23-.62,4.42,4.42,0,0,1-.07-.74c0-.2,0-.42,0-.67s.06-.5.1-.74.07-.47.11-.69.07-.38.09-.51h0l-.68-.12-.71-.14c0,.27-.09.57-.17.92s-.16.69-.26,1a10,10,0,0,1-.39,1,4.44,4.44,0,0,1-.53.91,2.49,2.49,0,0,1-.69.65,1.63,1.63,0,0,1-.87.24,1.09,1.09,0,0,1-.57-.13.83.83,0,0,1-.36-.33,1.46,1.46,0,0,1-.19-.48,3.29,3.29,0,0,1,0-.54,3.73,3.73,0,0,1,.07-.72c0-.26.09-.51.15-.76s.13-.49.19-.71l.18-.58-1.44-.29c-.06.31-.14.62-.23,1a8.74,8.74,0,0,1-.34,1,7.49,7.49,0,0,1-.47.94,3.44,3.44,0,0,1-.62.79,2.77,2.77,0,0,1-.79.56,2.33,2.33,0,0,1-1,.22,1.76,1.76,0,0,1-.87-.22,2.45,2.45,0,0,1-.77-.69,5.51,5.51,0,0,1-.71-1.2,18.06,18.06,0,0,1-.69-1.76l-1.37.42.26.86c.1.33.2.68.29,1.05s.19.73.27,1.1a9,9,0,0,1,.19,1.05,1.09,1.09,0,0,1,0,.18,1.15,1.15,0,0,1,0,.19,3.75,3.75,0,0,1-.19,1.19,5.24,5.24,0,0,1-.54,1.12,6.9,6.9,0,0,1-.81,1,9.16,9.16,0,0,1-1,.94,12.4,12.4,0,0,1-1.17.84c-.4.26-.82.5-1.24.72.11.23.22.44.32.63s.21.4.32.65a15,15,0,0,0,1.44-.84,13.69,13.69,0,0,0,1.36-1,12.75,12.75,0,0,0,1.18-1.14,9.24,9.24,0,0,0,.94-1.27,6.56,6.56,0,0,0,.62-1.38,4.91,4.91,0,0,0,.22-1.48V181a3.7,3.7,0,0,0,.65.54,2.76,2.76,0,0,0,.58.28,1.83,1.83,0,0,0,.46.1h.33a4.72,4.72,0,0,0,.87-.1,3.52,3.52,0,0,0,.81-.28,3.67,3.67,0,0,0,.71-.44c.21-.18.42-.37.63-.58a2,2,0,0,0,.43.65,2.7,2.7,0,0,0,.59.48,2.76,2.76,0,0,0,.66.29,2.61,2.61,0,0,0,.66.09,2.82,2.82,0,0,0,1.43-.4,5.32,5.32,0,0,0,1.3-1.1,3.94,3.94,0,0,0,.49.59,3.75,3.75,0,0,0,.6.47,2.87,2.87,0,0,0,.66.32,1.92,1.92,0,0,0,.66.12,4.14,4.14,0,0,0,1.47-.22,2.59,2.59,0,0,0,1.67-1.68,4.33,4.33,0,0,0,.2-1.34,6,6,0,0,0-.17-1.44A13.36,13.36,0,0,0,88.75,176Z"/><path class="cls-3" d="M101.25,180.81c0-.18-.06-.38-.1-.61s-.09-.45-.14-.69-.11-.48-.17-.73l-.18-.71c-.14-.54-.3-1.09-.46-1.65l-1.39.43c0,.08.07.21.12.38s.12.37.18.6.14.47.21.74.15.53.21.81.13.55.18.81.09.51.12.74c0,.07,0,.13,0,.19a1.09,1.09,0,0,1,0,.18,3.86,3.86,0,0,1-.42,1.75,6.87,6.87,0,0,1-1.11,1.58A9.73,9.73,0,0,1,96.73,186a16.06,16.06,0,0,1-1.85,1.13l.63,1.28a15.12,15.12,0,0,0,1.45-.84,13.6,13.6,0,0,0,1.36-1,11.66,11.66,0,0,0,1.18-1.15,7.93,7.93,0,0,0,.94-1.26,6.83,6.83,0,0,0,.61-1.39,4.92,4.92,0,0,0,.23-1.48,2.13,2.13,0,0,0,0-.27A1.62,1.62,0,0,1,101.25,180.81Z"/><rect class="cls-3" x="98.49" y="171.52" width="1.9" height="1.91" transform="translate(-92.84 120.83) rotate(-45)"/><path class="cls-3" d="M105.58,173.78c0-.37,0-.77,0-1.2s-.05-.87-.08-1.32-.06-.9-.09-1.3-.06-.77-.11-1.12c0-.18,0-.32-.05-.43s0-.21,0-.28a.88.88,0,0,0,0-.14.18.18,0,0,1,0-.06l-1.43.22c0,.19.06.53.11,1s.11,1.07.16,1.79.1,1.56.14,2.52.06,2,.06,3.13c0,.42,0,.83,0,1.26s0,.85,0,1.29,0,.89-.05,1.35,0,.95-.08,1.45l1.43.08c.07-1,.12-1.94.14-2.84s0-1.75,0-2.57c0-.52,0-1,0-1.49S105.59,174.21,105.58,173.78Z"/><path class="cls-3" d="M118.38,177Z"/><path class="cls-3" d="M123.68,186.3a7.47,7.47,0,0,1-1.1.45,6.65,6.65,0,0,1-1.15.28,7.43,7.43,0,0,1-1.15.09,6.69,6.69,0,0,1-2-.29,5,5,0,0,1-1.65-.84,3.78,3.78,0,0,1-1.09-1.38,3.85,3.85,0,0,1-.32-1.89h0a4.29,4.29,0,0,1,.22-1.11,5,5,0,0,1,.46-.93,5.21,5.21,0,0,1,.59-.77,6,6,0,0,1,.67-.59,6.87,6.87,0,0,1,.63-.45c.21-.12.38-.22.53-.29s.54-.26.81-.37a8.18,8.18,0,0,1,.88-.31c.32-.1.67-.19,1.07-.28s.87-.18,1.4-.27l1.19-.2,1-.17a6.29,6.29,0,0,1-.11-.74c0-.24-.07-.49-.12-.74l-.58.14-.64.13c-.24.05-.5.09-.78.13L122,176h-.46a5.19,5.19,0,0,1-1.31-.15,3.34,3.34,0,0,1-.93-.41,1.62,1.62,0,0,1-.7-1.25,2.34,2.34,0,0,1,.13-1,2,2,0,0,1,.5-.77,2.43,2.43,0,0,1,.78-.5,3.64,3.64,0,0,1,.94-.27,2.38,2.38,0,0,1,.88.16,5.15,5.15,0,0,1,.85.41,7.72,7.72,0,0,1,.89.6l.44-.55.46-.57a8.1,8.1,0,0,0-.78-.61,5.92,5.92,0,0,0-.89-.49,5.38,5.38,0,0,0-1-.31,3.53,3.53,0,0,0-1-.07,3.64,3.64,0,0,0-1.41.33,4,4,0,0,0-2,2,3.41,3.41,0,0,0-.3,1.42,3.46,3.46,0,0,0,.34,1.55,2.94,2.94,0,0,0,1,1.17l.43.22-.51.17a9.59,9.59,0,0,0-.91.45c-.31.18-.6.37-.89.57a8.54,8.54,0,0,0-.79.65,7.57,7.57,0,0,0-.68.72,6.44,6.44,0,0,0-.9,1.56,5.3,5.3,0,0,0-.38,1.71,5.91,5.91,0,0,0,.24,2.14,4.62,4.62,0,0,0,1,1.81,5.81,5.81,0,0,0,1.15,1,7.74,7.74,0,0,0,1.29.64,7.05,7.05,0,0,0,1.35.35,8.82,8.82,0,0,0,1.34.1c.4,0,.82,0,1.24-.06a7.73,7.73,0,0,0,2.66-.8,8.49,8.49,0,0,0,1.4-.91l-.85-1.21A7.08,7.08,0,0,1,123.68,186.3Z"/><path class="cls-3" d="M152.83,175.55a3.94,3.94,0,0,0-.58-.84,3,3,0,0,0-.72-.51,3.78,3.78,0,0,0-.79-.3,4.6,4.6,0,0,0-.84-.1,5,5,0,0,0-.86.07,6.44,6.44,0,0,0-2.07.84,14.6,14.6,0,0,0-2.35,1.81c0-.12,0-.25,0-.41s0-.33,0-.5,0-.33,0-.49v-.4c0-1.15,0-2.26-.1-3.34s-.17-2.13-.3-3.18l-1.49.27.19,2c.07.68.12,1.4.16,2.17s.06,1.51,0,2.24,0,1.46-.06,2-.09,1.07-.16,1.48a11.63,11.63,0,0,0-.77,1.07c-.19.31-.34.55-.44.73h0l-.12.21c-.05.07-.08.13-.1.16h-1.79l-.38-.08a2.48,2.48,0,0,1-.6-.25h0a1.65,1.65,0,0,1-.4-.32,1.5,1.5,0,0,1-.25-.4A2,2,0,0,1,138,179c0-.17-.05-.35-.07-.55,0-.68-.09-1.4-.14-2.16l-.18-2.25c-.06-.74-.12-1.46-.18-2.13s-.12-1.28-.16-1.8-.09-.94-.13-1.25-.05-.47-.05-.48l-1.44.15,0,.22c0,.22,0,.51.08.88s.08.78.12,1.25.1,1,.14,1.54.1,1.12.15,1.71.1,1.17.14,1.77.09,1.17.12,1.73h0s0,.09,0,.14v.14a2.19,2.19,0,0,1-.13.77,2.84,2.84,0,0,1-.39.7,3.39,3.39,0,0,1-.58.62,4.49,4.49,0,0,1-.73.5,20.7,20.7,0,0,0-1-3.3,33.11,33.11,0,0,0-1.79-3.67c-.25-.43-.48-.83-.71-1.21s-.45-.73-.64-1-.37-.58-.52-.8l-.34-.5-1.18.84c.1.14.27.4.51.77s.52.81.84,1.33.65,1.11,1,1.76.7,1.33,1,2,.62,1.43.88,2.16a13,13,0,0,1,.59,2.14c-.33.07-.65.12-1,.16a6.78,6.78,0,0,1-.88.05h-.46l-.43-.05c0,.24-.09.47-.12.69s-.09.45-.14.72a9.2,9.2,0,0,0,1.17.08,9.55,9.55,0,0,0,2-.21h0a8.56,8.56,0,0,0,2-.77,6.48,6.48,0,0,0,1.65-1.34,3.68,3.68,0,0,0,.79.92,3.3,3.3,0,0,0,.81.49,2.38,2.38,0,0,0,.67.19l.39,0h5.83c.44,0,.92,0,1.44-.07a8.38,8.38,0,0,0,1.58-.29,8.81,8.81,0,0,0,1.64-.64,7.59,7.59,0,0,0,1.63-1.13,4.63,4.63,0,0,0,.48-.61,4.92,4.92,0,0,0,.44-.78,4.32,4.32,0,0,0,.3-.9,3.07,3.07,0,0,0,.06-1A2.85,2.85,0,0,0,152.83,175.55Zm-1,1.69a1.9,1.9,0,0,1-.2.58,2.59,2.59,0,0,1-.34.52,4.47,4.47,0,0,1-.44.43,6.73,6.73,0,0,1-1.54,1,7.82,7.82,0,0,1-1.52.52,7.66,7.66,0,0,1-1.47.21c-.48,0-.94,0-1.38,0h-1.74c.31-.4.55-.73.73-1s.34-.45.46-.59.2-.26.26-.33l.18-.2h0a14.38,14.38,0,0,1,2.37-2.15,6,6,0,0,1,2.09-1,2.58,2.58,0,0,1,.79,0,2.79,2.79,0,0,1,.78.2,2.06,2.06,0,0,1,.64.45,1.36,1.36,0,0,1,.34.7A1.84,1.84,0,0,1,151.8,177.24Z"/><path class="cls-3" d="M157,173.78c0-.37,0-.77,0-1.2s0-.87-.07-1.32-.07-.9-.09-1.3-.07-.77-.11-1.12c0-.18,0-.32-.06-.43s0-.21,0-.28a.37.37,0,0,0,0-.14v-.06l-1.44.22c0,.19.07.53.12,1s.1,1.07.16,1.79.1,1.56.14,2.52.06,2,.06,3.13c0,.42,0,.83,0,1.26l0,1.29-.06,1.35c0,.47,0,.95-.08,1.45l1.44.08c.06-1,.11-1.94.13-2.84s0-1.75,0-2.57c0-.52,0-1,0-1.49S157,174.21,157,173.78Z"/><rect class="cls-3" x="174.16" y="172.2" width="1.88" height="1.91" transform="translate(-71.15 173.63) rotate(-44.79)"/><rect class="cls-3" x="170.9" y="172.18" width="1.89" height="1.91" transform="translate(-72.09 172.22) rotate(-45)"/><rect class="cls-3" x="199.9" y="184.5" width="1.9" height="1.91" transform="translate(-72.31 196.14) rotate(-44.96)"/><path class="cls-3" d="M207.16,177.57l-.14-.72q-.57-.21-1-.42l-.87-.41-.86-.42c-.28-.15-.61-.3-1-.47l-.95-.44c-.32-.15-.62-.27-.93-.38a7.69,7.69,0,0,0-.9-.27,4.3,4.3,0,0,0-.87-.1,3.34,3.34,0,0,0-1.61.42,4.88,4.88,0,0,0-1.45,1.24,6.4,6.4,0,0,0-.53.72c-.13.21-.22.38-.29.52l1.22.73.2-.34a5.31,5.31,0,0,1,.31-.46c.13-.17.26-.33.41-.5a5.35,5.35,0,0,1,.5-.45,2.52,2.52,0,0,1,.58-.32,1.84,1.84,0,0,1,.66-.12,3.11,3.11,0,0,1,.65.08,6.33,6.33,0,0,1,.74.24c.26.1.53.22.8.34l.85.4,2.72,1.13c-.75.38-1.52.74-2.32,1.09s-1.62.67-2.44,1a22.47,22.47,0,0,1-2.5.66,13.31,13.31,0,0,1-2.49.25h-1.81a3.11,3.11,0,0,0-1,.16,4.1,4.1,0,0,0-1,.46,4.65,4.65,0,0,0-.85.7,5,5,0,0,0-.67.91,4.17,4.17,0,0,0-.41,1.05,3.68,3.68,0,0,0-.09,1.15,2.78,2.78,0,0,1-.75-.64,6.52,6.52,0,0,1-.64-.85,8.86,8.86,0,0,1-.5-.88c-.14-.29-.25-.54-.33-.74a6.93,6.93,0,0,0,1.23-.32A5.48,5.48,0,0,0,190,181a3.76,3.76,0,0,0,.87-.77,3.19,3.19,0,0,0,.57-1,2.51,2.51,0,0,0,.2-.62,4.38,4.38,0,0,0,.06-.75,5.52,5.52,0,0,0-.16-1.31,4.87,4.87,0,0,0-.45-1.25,2.83,2.83,0,0,0-.72-.93,1.44,1.44,0,0,0-1-.36,2.12,2.12,0,0,0-1.07.42,4.06,4.06,0,0,0-.89.91,6.39,6.39,0,0,0-.68,1.24,10.58,10.58,0,0,0-.49,1.4,10.7,10.7,0,0,0-.28,1.39,6.34,6.34,0,0,0-.06,1.2h-1.36a2.78,2.78,0,0,1-2.31-.89,2,2,0,0,1-.42-.83,4.58,4.58,0,0,1-.13-.87,4.88,4.88,0,0,1,.1-1c0-.17.07-.3.09-.4s0-.21.09-.34l-.69-.19-.7-.19c-.08.27-.17.54-.28.82a5.44,5.44,0,0,1-.37.82,5.75,5.75,0,0,1-.52.8,5.38,5.38,0,0,1-.72.71h0a6,6,0,0,1-2.42,1.15,14.14,14.14,0,0,1-3.49.37,16.4,16.4,0,0,1-2.07-.13A9.28,9.28,0,0,1,169,180a5.25,5.25,0,0,1-1.28-.61,2.87,2.87,0,0,1-.83-.84,2.92,2.92,0,0,1-.29-.74,3.51,3.51,0,0,1-.09-.77,3.26,3.26,0,0,1,.07-.7c.06-.23.12-.44.18-.64a5.58,5.58,0,0,1,.21-.52c.08-.16.13-.28.17-.37l-.63-.35-.64-.36c-.07.14-.16.36-.28.66a11.12,11.12,0,0,0-.33,1.08c0,.2-.08.41-.11.63a5.06,5.06,0,0,0,0,.68,4.82,4.82,0,0,0,.13,1.12,4,4,0,0,0,.45,1.1,4.61,4.61,0,0,0,2.58,2,14.24,14.24,0,0,0,4.51.64q5.11,0,7.68-2.68a4,4,0,0,0,.63,1.22h0a4.06,4.06,0,0,0,3.37,1.42h1.7l.13.36a11.41,11.41,0,0,0,.62,1.48,10.61,10.61,0,0,0,.93,1.47,11,11,0,0,0,1.27,1.4,10.81,10.81,0,0,0,1.65,1.25l.95-1.15a2.38,2.38,0,0,1-.53-.84,2.51,2.51,0,0,1-.16-.9,2.85,2.85,0,0,1,.22-1.11,3.53,3.53,0,0,1,.6-1,3,3,0,0,1,.88-.7,2.45,2.45,0,0,1,1.06-.3h1.88a14.19,14.19,0,0,0,2.67-.25,20.22,20.22,0,0,0,2.6-.67q1.26-.41,2.43-.9c.77-.34,1.48-.67,2.14-1l.53-.27.38-.19a3.34,3.34,0,0,1,.38-.17l.51-.22C207.26,178,207.21,177.79,207.16,177.57Zm-19.82,2.82,0-.31a2.62,2.62,0,0,1,0-.27,4.74,4.74,0,0,1,.08-.89,7.83,7.83,0,0,1,.22-.93c.1-.31.21-.61.34-.91a3.74,3.74,0,0,1,.42-.77,2.7,2.7,0,0,1,.48-.56.92.92,0,0,1,.51-.24l.13,0a2,2,0,0,1,.65.83,2.86,2.86,0,0,1,.2,1.06,3.39,3.39,0,0,1-.69,2,2.73,2.73,0,0,1-.81.7,2.12,2.12,0,0,1-1.06.27h-.17Z"/><rect class="cls-3" x="125" y="73.31" width="0.72" height="165.27" rx="0.36" transform="translate(281.3 30.58) rotate(90)"/><path class="cls-4" d="M161.62,75.94c-8.05,18.8-29.28,26.88-45.92,25.5-4.54-.38-13.68-1.13-20.82-7.88-13.7-13-11.59-40.06,1.53-56,1.69-2,13.38-15.81,31.61-15.63a40,40,0,0,1,23.84,8.61A36.85,36.85,0,0,1,159.34,39C166.06,49.52,166.65,64.19,161.62,75.94Z"/><path class="cls-5" d="M106.83,74.06l-.06,0a.11.11,0,0,1,0-.14l.22-.34a.11.11,0,0,1,.14,0,.09.09,0,0,1,0,.13l-.21.34A.1.1,0,0,1,106.83,74.06Z"/><path class="cls-5" d="M130.94,77.68a.09.09,0,0,1-.09-.08c-.07-.25-.14-.49-.22-.74a.1.1,0,0,1,.07-.12.09.09,0,0,1,.12.06c.08.25.16.5.22.75a.09.09,0,0,1-.07.12Zm-.66-1.93a.11.11,0,0,1-.09-.06c-.1-.23-.21-.47-.32-.7a.09.09,0,0,1,0-.13.1.1,0,0,1,.14,0l.33.71a.1.1,0,0,1-.06.13Zm-.94-1.8a.11.11,0,0,1-.09,0c-.14-.21-.28-.43-.43-.64a.11.11,0,0,1,0-.14.1.1,0,0,1,.14,0c.16.21.3.43.44.65a.09.09,0,0,1,0,.13A.06.06,0,0,1,129.34,74ZM107.78,72.7l-.06,0a.11.11,0,0,1,0-.14l.51-.6a.1.1,0,0,1,.14,0,.09.09,0,0,1,0,.14c-.17.19-.34.38-.5.58A.09.09,0,0,1,107.78,72.7Zm20.34-.39a.09.09,0,0,1-.07,0l-.52-.57a.1.1,0,1,1,.14-.14c.18.19.36.38.53.58a.11.11,0,0,1,0,.14A.08.08,0,0,1,128.12,72.31Zm-18.94-1.09a.09.09,0,0,1-.08,0,.11.11,0,0,1,0-.14l.59-.51a.1.1,0,0,1,.13.16l-.59.5A.07.07,0,0,1,109.18,71.22Zm17.5-.34-.07,0c-.19-.17-.4-.33-.6-.48a.11.11,0,0,1,0-.14.09.09,0,0,1,.14,0c.21.15.41.32.61.49a.1.1,0,0,1,0,.14A.11.11,0,0,1,126.68,70.88ZM110.78,70a.09.09,0,0,1-.08,0,.1.1,0,0,1,0-.14l.66-.42a.1.1,0,0,1,.1.18c-.22.13-.44.26-.65.41ZM125,69.69H125c-.21-.14-.44-.27-.66-.39a.1.1,0,0,1,0-.13.1.1,0,0,1,.14,0l.68.38a.1.1,0,0,1,0,.14A.1.1,0,0,1,125,69.69ZM112.56,69a.09.09,0,0,1-.09-.06.09.09,0,0,1,0-.13,7.8,7.8,0,0,1,.72-.31.1.1,0,0,1,.13.06.09.09,0,0,1-.06.12l-.71.31Zm10.65-.2h0l-.71-.28a.09.09,0,0,1-.07-.12.11.11,0,0,1,.13-.07l.73.28a.1.1,0,0,1,.06.13A.12.12,0,0,1,123.21,68.77Zm-8.74-.51a.1.1,0,0,1-.1-.08.11.11,0,0,1,.07-.12c.25-.07.5-.14.76-.19a.11.11,0,0,1,.12.07.1.1,0,0,1-.08.12l-.75.19S114.48,68.26,114.47,68.26Zm6.81-.13h0c-.25-.06-.51-.12-.76-.16a.11.11,0,0,1-.08-.12.1.1,0,0,1,.12-.08l.76.16a.11.11,0,0,1,.08.13A.12.12,0,0,1,121.28,68.13Zm-4.82-.28a.1.1,0,0,1,0-.2c.26,0,.52-.06.78-.07a.09.09,0,0,1,.1.09.09.09,0,0,1-.09.11c-.25,0-.51,0-.77.07Zm2.81,0h0l-.77,0a.09.09,0,0,1-.09-.1.1.1,0,0,1,.1-.1h0l.78,0a.1.1,0,0,1,.09.11A.1.1,0,0,1,119.27,67.8Z"/><path class="cls-5" d="M131.26,79.31a.1.1,0,0,1-.1-.08l-.06-.4a.1.1,0,0,1,.2,0l.06.4a.1.1,0,0,1-.09.11Z"/><path class="cls-5" d="M128.54,89.18a.08.08,0,0,1-.07,0,.1.1,0,0,1,0-.14l.24-.31a.09.09,0,0,1,.14,0,.11.11,0,0,1,0,.14l-.25.32A.09.09,0,0,1,128.54,89.18Z"/><path class="cls-5" d="M118.06,94.25h0l-.82,0a.1.1,0,0,1-.09-.11.09.09,0,0,1,.1-.09l.81,0a.09.09,0,0,1,.1.1A.1.1,0,0,1,118.06,94.25Zm1.33-.06a.1.1,0,0,1-.1-.09.09.09,0,0,1,.09-.11c.27,0,.54-.06.8-.11a.11.11,0,0,1,.12.09.11.11,0,0,1-.09.11l-.81.11Zm-3.46-.13h0c-.27,0-.54-.1-.8-.16a.1.1,0,0,1-.08-.12.1.1,0,0,1,.12-.07l.8.16A.09.09,0,0,1,116,94,.1.1,0,0,1,115.93,94.06Zm5.56-.25a.1.1,0,0,1-.09-.07.11.11,0,0,1,.07-.13,7.67,7.67,0,0,0,.78-.23.1.1,0,0,1,.12.07.09.09,0,0,1-.06.12c-.26.09-.53.17-.79.24Zm-7.64-.27h0l-.77-.29a.1.1,0,0,1,0-.13.09.09,0,0,1,.13-.05l.76.28a.1.1,0,0,1,.06.13A.09.09,0,0,1,113.85,93.54Zm9.66-.44a.11.11,0,0,1-.09-.06.1.1,0,0,1,0-.13c.25-.11.49-.23.73-.36a.11.11,0,0,1,.14,0,.1.1,0,0,1,0,.13c-.24.13-.49.25-.74.36Zm-11.62-.4,0,0c-.24-.12-.48-.26-.71-.4a.1.1,0,0,1,0-.14.1.1,0,0,1,.13,0c.23.15.47.28.71.41a.1.1,0,0,1,0,.19Zm13.5-.63a.1.1,0,0,1-.08,0,.09.09,0,0,1,0-.13l.66-.47a.1.1,0,1,1,.12.16l-.67.47Zm-15.3-.53-.06,0c-.22-.16-.43-.34-.64-.52a.1.1,0,1,1,.13-.15c.2.18.42.35.63.51a.11.11,0,0,1,0,.14A.09.09,0,0,1,110.09,91.54Zm17-.79a.09.09,0,0,1-.07,0,.1.1,0,0,1,0-.14,7.8,7.8,0,0,0,.58-.57.1.1,0,0,1,.14,0,.11.11,0,0,1,0,.14c-.19.2-.39.39-.59.58Zm-18.58-.64a.08.08,0,0,1-.07,0c-.19-.2-.38-.41-.55-.62a.1.1,0,1,1,.15-.12l.54.6a.1.1,0,0,1,0,.14A.11.11,0,0,1,108.5,90.11Zm-1.34-1.67a.1.1,0,0,1-.09,0c-.15-.23-.3-.46-.44-.7a.09.09,0,0,1,0-.13.1.1,0,0,1,.13,0c.14.23.29.46.44.69a.09.09,0,0,1,0,.13S107.18,88.44,107.16,88.44Zm-1.06-1.86a.09.09,0,0,1-.09-.06c-.12-.24-.23-.5-.33-.75a.1.1,0,0,1,.06-.13.1.1,0,0,1,.13,0c.1.25.21.51.32.75a.1.1,0,0,1,0,.13Zm-.74-2a.09.09,0,0,1-.1-.07c-.07-.26-.14-.53-.2-.8a.12.12,0,0,1,.08-.12.11.11,0,0,1,.12.08c0,.26.12.53.19.79a.09.09,0,0,1-.07.12Z"/><path class="cls-5" d="M105,82.47a.1.1,0,0,1-.1-.09c0-.13,0-.27,0-.4a.1.1,0,1,1,.2,0c0,.13,0,.27,0,.4a.12.12,0,0,1-.09.11Z"/><path class="cls-5" d="M108,80.44a.15.15,0,0,0,.08.16l1.71.9a8.51,8.51,0,0,0,.65,2.65l-1.1,1.59a.17.17,0,0,0,0,.19l1.37,1.87a.15.15,0,0,0,.17.06l1.85-.58A8.43,8.43,0,0,0,115,88.7l.34,1.9a.17.17,0,0,0,.14.13l2.29.35A.17.17,0,0,0,118,91l.9-1.71a8.58,8.58,0,0,0,2.65-.65l1.59,1.1a.15.15,0,0,0,.18,0l1.88-1.38a.16.16,0,0,0,0-.17l-.57-1.85A8.67,8.67,0,0,0,126.07,84l1.9-.34a.16.16,0,0,0,.13-.13l.35-2.3a.15.15,0,0,0-.08-.16l-1.72-.9a8.3,8.3,0,0,0-.65-2.66l1.1-1.59a.15.15,0,0,0,0-.18l-1.37-1.87a.16.16,0,0,0-.18-.06l-1.84.57A8.39,8.39,0,0,0,121.37,73L121,71.06a.16.16,0,0,0-.13-.13l-2.29-.35a.17.17,0,0,0-.17.09l-.9,1.71a8.24,8.24,0,0,0-2.65.65l-1.59-1.1a.17.17,0,0,0-.19,0l-1.87,1.37a.17.17,0,0,0-.06.18l.58,1.85a8.24,8.24,0,0,0-1.42,2.33l-1.9.35a.15.15,0,0,0-.13.13Z"/><path class="cls-2" d="M118.2,83a2.21,2.21,0,0,1-1.71-3.61,2.21,2.21,0,0,1,3.91,1.19,2.16,2.16,0,0,1-.5,1.62A2.19,2.19,0,0,1,118.2,83Zm0-4.12A1.92,1.92,0,0,0,117,82.31h0a1.92,1.92,0,0,0,2.69-.26,1.87,1.87,0,0,0,.43-1.4,1.89,1.89,0,0,0-.68-1.29A2,2,0,0,0,118.2,78.92Z"/><path class="cls-2" d="M118.26,86.59a5.22,5.22,0,0,1-.88-.07,5.71,5.71,0,0,1-3.77-2.28h0a5.9,5.9,0,0,1-.49-.8h0v-.06l0,0-.06-.15.27-.12a5.54,5.54,0,0,0,.58,1h0A5.45,5.45,0,1,0,115,76.44a5.57,5.57,0,0,0-1.8,2.28l-.27-.11a5.73,5.73,0,0,1,6.17-3.46A5.76,5.76,0,0,1,124,80.83a5.76,5.76,0,0,1-5.74,5.76Z"/><path class="cls-5" d="M131.23,87.71h0a.11.11,0,0,1,0-.14l.23-.34a.11.11,0,0,1,.14,0,.11.11,0,0,1,0,.14l-.22.33A.1.1,0,0,1,131.23,87.71Z"/><path class="cls-5" d="M138.4,87.8a.1.1,0,0,1-.08,0,3.76,3.76,0,0,0-.32-.46,1,1,0,0,0-.13-.16.11.11,0,0,1,0-.14.09.09,0,0,1,.14,0l.14.16a5.25,5.25,0,0,1,.33.49.09.09,0,0,1,0,.13Zm-6-1.3a.09.09,0,0,1-.08,0,.11.11,0,0,1,0-.14,4,4,0,0,1,.69-.4.11.11,0,0,1,.14,0,.1.1,0,0,1,0,.13,3.9,3.9,0,0,0-.66.38A.07.07,0,0,1,132.37,86.5Zm4.61-.16h0a3.93,3.93,0,0,0-.68-.34.1.1,0,0,1-.06-.13.1.1,0,0,1,.13-.06,4.3,4.3,0,0,1,.71.36.09.09,0,0,1,0,.13A.09.09,0,0,1,137,86.34Zm-2.72-.58a.1.1,0,0,1,0-.2,5.3,5.3,0,0,1,.8,0,.1.1,0,0,1,.09.11.09.09,0,0,1-.1.09,5,5,0,0,0-.77,0Z"/><path class="cls-5" d="M138.94,89.37a.1.1,0,0,1-.1-.08c0-.13,0-.26-.07-.39a.1.1,0,1,1,.2,0c0,.13.05.26.07.4a.1.1,0,0,1-.09.11Z"/><path class="cls-5" d="M137.9,92.7a.09.09,0,0,1-.06,0,.1.1,0,0,1,0-.14l.25-.3a.1.1,0,0,1,.14,0,.11.11,0,0,1,0,.14,4,4,0,0,1-.26.32A.12.12,0,0,1,137.9,92.7Z"/><path class="cls-5" d="M134.8,94.08a5.07,5.07,0,0,1-.55,0,.12.12,0,0,1-.09-.11.1.1,0,0,1,.12-.09,4.66,4.66,0,0,0,.75,0,.09.09,0,0,1,.1.09.12.12,0,0,1-.09.11Zm1.45-.26a.09.09,0,0,1-.09-.06.09.09,0,0,1,.06-.13,4.17,4.17,0,0,0,.67-.33.1.1,0,0,1,.14,0,.09.09,0,0,1,0,.13,3.77,3.77,0,0,1-.7.34Zm-3.18-.11h0a5.17,5.17,0,0,1-.68-.39.1.1,0,0,1,0-.14.09.09,0,0,1,.14,0,4.56,4.56,0,0,0,.65.37.1.1,0,0,1,0,.13A.11.11,0,0,1,133.07,93.71Zm-1.57-1.24a.09.09,0,0,1-.08,0,4.66,4.66,0,0,1-.43-.66.11.11,0,0,1,0-.14.1.1,0,0,1,.13.05,4.25,4.25,0,0,0,.41.63.11.11,0,0,1,0,.14Z"/><path class="cls-5" d="M130.68,90.64a.11.11,0,0,1-.1-.08c0-.14,0-.27-.05-.41a.12.12,0,0,1,.09-.11.1.1,0,0,1,.11.09c0,.13,0,.26.05.39a.1.1,0,0,1-.08.12Z"/><path class="cls-5" d="M131.59,89.66a.08.08,0,0,0,0,0l.54.28a2.73,2.73,0,0,0,.21.84l-.35.5a.06.06,0,0,0,0,.06l.44.59a0,0,0,0,0,.05,0l.58-.18a2.68,2.68,0,0,0,.74.44l.11.6s0,0,0,0l.73.11a.05.05,0,0,0,.05,0l.28-.54a2.71,2.71,0,0,0,.84-.2l.5.34h.06l.59-.43s0,0,0-.06l-.18-.58a2.42,2.42,0,0,0,.44-.74l.6-.11a0,0,0,0,0,0,0l.11-.72a0,0,0,0,0,0,0l-.54-.29a2.48,2.48,0,0,0-.21-.83l.35-.51a0,0,0,0,0,0,0l-.43-.59s0,0-.06,0l-.58.18a2.67,2.67,0,0,0-.74-.45l-.11-.6a0,0,0,0,0,0,0l-.72-.11a.07.07,0,0,0-.06,0l-.28.54a2.78,2.78,0,0,0-.84.2l-.5-.35a0,0,0,0,0-.06,0l-.59.43a0,0,0,0,0,0,0l.18.59a2.77,2.77,0,0,0-.45.73l-.6.11s0,0,0,0Z"/><path class="cls-2" d="M134.82,90.58a.81.81,0,0,1-.51-.18h0a.8.8,0,1,1,1-1.23.75.75,0,0,1,.29.54.8.8,0,0,1-.8.87Zm-.32-.41a.56.56,0,0,0,.37.11.5.5,0,0,0,.45-.54.48.48,0,0,0-.18-.34.49.49,0,0,0-.7.07.49.49,0,0,0,.06.7Z"/><path class="cls-2" d="M134.84,91.7a1.93,1.93,0,0,1-1.55-.78v0a2.38,2.38,0,0,1-.18-.3h0l.27-.13a2.14,2.14,0,0,0,.17.3l0,0a1.62,1.62,0,0,0,1.63.59,1.51,1.51,0,0,0,.61-.27h0a1.58,1.58,0,0,0,.64-1.06,1.06,1.06,0,0,0,0-.25,1.57,1.57,0,0,0-.31-1,1.62,1.62,0,0,0-2.26-.35,1.54,1.54,0,0,0-.53.68l-.28-.12a1.89,1.89,0,0,1,.63-.8,1.92,1.92,0,0,1,2.68.41,1.87,1.87,0,0,1,.37,1.13,1.51,1.51,0,0,1,0,.3,1.91,1.91,0,0,1-1.89,1.62Z"/><path class="cls-6" d="M106.29,70.17s.23-9.42-4.11-11.94-12.59-4.1-12.9-17.63c-.18-7.92-.38-11.38-.51-12.89a.89.89,0,0,1,1-.95c4.11.77,17.46,4,20.26,13.07C113.4,50.63,106.29,70.17,106.29,70.17Z"/><path class="cls-2" d="M93,30.52a51.77,51.77,0,0,1,12.51,18.27,33.06,33.06,0,0,1,1.85,8.1,37.18,37.18,0,0,1-.28,10.19.3.3,0,0,1-.6-.1,41.48,41.48,0,0,0-1-14.89c-1.64-6.09-5.31-12-9.09-17l-.39-.5c-2.94-3.77-3.55-3.79-3.28-4.06A.17.17,0,0,1,93,30.52Z"/><path class="cls-5" d="M102.1,58.33c-.43-2.87-.93-6.5-3.28-8.5-2.74-2.32-12.07-.85-15.12-.3a.46.46,0,0,0-.21.81c1.46,1.22,4.59,4.12,5.41,7a9.9,9.9,0,0,0,5.25,6,11.09,11.09,0,0,0,3.72.8c1.66.29,3.13,1.28,4.85,1.36A46.1,46.1,0,0,0,102.1,58.33Z"/><path class="cls-4" d="M88,51.16c3.89.16,8.07,1.94,10.19,5.27l.2.32a73.54,73.54,0,0,1,4.54,10.44.1.1,0,0,1-.06.13.1.1,0,0,1-.13-.06c-1-2.48-2.47-5.63-3.63-8-1.25-2.57-2.12-4.31-5-6a15.71,15.71,0,0,0-6.16-2,.09.09,0,1,1,0-.17Z"/><path class="cls-7" d="M90.66,70.77s7.74,20.41,10.18,24.65c2.84,4.93,11.13,1.79,10.71-2.33s-10.09-21.17-10.09-21.17Z"/><polygon class="cls-8" points="101.11 55.91 149.2 39.24 148.7 84.36 99.8 73.44 101.11 55.91"/><ellipse class="cls-9" cx="149.25" cy="61.93" rx="4.72" ry="23.19"/><path class="cls-10" d="M149.61,83.53c-.43-.44-1.36-2.11-2.16-6.44a88.58,88.58,0,0,1-1.19-15.29,88.62,88.62,0,0,1,1.19-15.3c.8-4.33,1.73-6,2.16-6.44.42.44,1.35,2.11,2.15,6.44A88.53,88.53,0,0,1,153,61.8a88.5,88.5,0,0,1-1.2,15.29C151,81.42,150,83.09,149.61,83.53Z"/><g class="cls-11"><path class="cls-7" d="M155.66,61.62c0,3.94-2.12,7.14-6.32,7.14a7.15,7.15,0,1,1,0-14.27C153.54,54.49,155.66,57.68,155.66,61.62Z"/></g><path class="cls-7" d="M93.36,54.94a27.06,27.06,0,0,1,9,.44,48.21,48.21,0,0,0,.36,18.85h-9.9a3.2,3.2,0,0,1-3.16-2.71,44.85,44.85,0,0,1-.46-12.58A4.75,4.75,0,0,1,93.36,54.94Z"/><path class="cls-2" d="M99.29,59.56h-7.7a.71.71,0,0,1-.62-.37.7.7,0,0,1,0-.71.19.19,0,0,1,.27-.06.2.2,0,0,1,.06.27.31.31,0,0,0,0,.32.29.29,0,0,0,.27.16h7.7a.31.31,0,0,0,.31-.31v-.55a.31.31,0,0,0-.31-.31H91.53a.19.19,0,0,1-.2-.19.2.2,0,0,1,.2-.2h7.76a.7.7,0,0,1,.71.7v.55A.7.7,0,0,1,99.29,59.56Z"/><path class="cls-2" d="M98.61,63H90.9a.7.7,0,0,1-.59-1.09.2.2,0,1,1,.33.22.31.31,0,0,0,0,.31.32.32,0,0,0,.27.16h7.71a.3.3,0,0,0,.3-.31v-.55a.29.29,0,0,0-.3-.3H90.84a.2.2,0,0,1,0-.4h7.77a.7.7,0,0,1,.7.7v.55A.7.7,0,0,1,98.61,63Z"/><path class="cls-12" d="M108.1,54.69a.21.21,0,0,1-.19-.14.2.2,0,0,1,.13-.25l36.42-11.59a.19.19,0,0,1,.25.13.2.2,0,0,1-.13.25L108.16,54.68Z"/><path class="cls-12" d="M103.18,56.7a.21.21,0,0,1-.19-.12.2.2,0,0,1,.11-.26l1.88-.77a.2.2,0,0,1,.15.37l-1.88.77Z"/><path class="cls-2" d="M99.29,67h-7.7a.7.7,0,0,1-.62-.36.71.71,0,0,1,0-.72.2.2,0,0,1,.33.21.31.31,0,0,0,0,.32.29.29,0,0,0,.27.16h7.7a.31.31,0,0,0,.31-.31v-.55a.31.31,0,0,0-.31-.31H91.53a.19.19,0,0,1-.2-.19.2.2,0,0,1,.2-.2h7.76a.7.7,0,0,1,.71.7v.55A.7.7,0,0,1,99.29,67Z"/><path class="cls-2" d="M100,71.41H92.31a.71.71,0,0,1-.62-.37.69.69,0,0,1,0-.71.19.19,0,0,1,.27-.06.2.2,0,0,1,.06.27.31.31,0,0,0,0,.31.3.3,0,0,0,.27.16H100a.29.29,0,0,0,.3-.3v-.55a.3.3,0,0,0-.3-.31H92.25a.2.2,0,0,1-.2-.2.19.19,0,0,1,.2-.19H100a.7.7,0,0,1,.7.7v.55A.71.71,0,0,1,100,71.41Z"/><path class="cls-2" d="M106.9,95.54a5,5,0,0,1-4.57-3L96.17,78.9a.2.2,0,0,1,.1-.26.2.2,0,0,1,.26.1l6.16,13.68A4.58,4.58,0,0,0,109.85,94l.18-.16a.19.19,0,0,1,.28,0,.2.2,0,0,1,0,.28l-.18.16A4.82,4.82,0,0,1,106.9,95.54Z"/><path class="cls-2" d="M95.44,77a.21.21,0,0,1-.18-.12l-.69-1.52a.21.21,0,0,1,.1-.27.2.2,0,0,1,.26.1l.69,1.53a.19.19,0,0,1-.1.26Z"/><path class="cls-2" d="M154.53,61.42a.19.19,0,0,1-.19-.19,5.6,5.6,0,0,0-2-4.27,7.05,7.05,0,0,0-5-1,.21.21,0,0,1-.24-.16.2.2,0,0,1,.16-.23,7.31,7.31,0,0,1,5.31,1.1,6,6,0,0,1,2.14,4.57.2.2,0,0,1-.18.21Z"/><polygon class="cls-13" points="165 74.56 159.09 73.82 159.86 70.81 153.33 68.82 162.91 69.29 161.65 72.39 165 74.56"/><polygon class="cls-13" points="160.71 91.94 156.73 89.1 158.46 87.23 154.52 83.24 161.26 87.32 159.13 89.07 160.71 91.94"/><polygon class="cls-13" points="166.68 38.16 162 45.52 159.72 43.63 155.33 48.46 159.65 40.37 161.81 42.73 166.68 38.16"/></g></svg>