<svg width="93" height="38" viewBox="0 0 93 38" fill="none" xmlns="http://www.w3.org/2000/svg">
<path d="M6.07028 29.4887C6.90908 24.4776 7.73609 19.5543 8.55839 14.6311C8.79401 13.1759 9.00135 11.7089 9.30059 10.2656C9.43489 9.62706 9.18514 9.60333 8.70212 9.6057C6.3271 9.61994 3.95208 9.59146 1.57942 9.62469C0.917334 9.63419 0.691141 9.49413 0.834867 8.78199C1.00576 8.01463 1.10203 7.23233 1.12232 6.44616C1.12232 5.70791 1.51816 5.68654 2.07893 5.68654C8.26387 5.70079 14.4512 5.68654 20.6361 5.70316C21.4113 5.70316 22.4362 5.3732 22.8839 5.84796C23.2114 6.19691 22.7944 7.25563 22.7048 7.99863C22.5328 9.46327 22.5328 9.46327 21.0744 9.46327C19.1894 9.46327 17.3257 9.49888 15.4525 9.44191C14.807 9.42292 14.6138 9.65555 14.5101 10.2395C13.5016 16.2191 12.4673 22.194 11.4471 28.1712C11.2114 29.4816 11.2444 29.4863 9.93911 29.4863L6.07028 29.4887Z" fill="#044389"/>
<path d="M47.2517 17.3917C49.4006 15.647 51.3962 14.0447 53.3778 12.4067C53.774 12.0571 54.2889 11.8751 54.8151 11.8987C56.3631 11.9367 57.9111 11.913 59.5934 11.913C55.807 13.9307 53.0102 16.9597 49.9613 19.6611C49.1767 20.3566 48.5099 20.7103 47.5109 20.2546C47.3224 20.1691 46.8818 19.7798 46.7452 20.2546C46.5967 20.7792 47.174 20.6866 47.452 20.7649C49.7443 21.384 51.9321 22.3441 53.9433 23.6135C55.6798 24.741 56.8649 26.322 57.699 28.2021C57.9511 28.7694 57.8592 28.9688 57.2066 28.9451C56.052 28.9023 54.8928 28.9071 53.7383 28.9451C53.194 28.9641 53.0079 28.7789 52.8783 28.2329C52.4542 26.5048 51.745 24.9096 50.4491 23.6349C49.5701 22.7757 48.4642 22.1898 47.2635 21.9471C46.7169 21.8308 46.4294 21.9281 46.3517 22.6046C46.1161 24.601 45.7886 26.5879 45.5341 28.5819C45.4611 29.1492 45.2796 29.3795 44.6694 29.3534C43.4913 29.2988 42.2944 29.3083 41.1092 29.3534C40.5084 29.3723 40.2846 29.2442 40.4024 28.5771C41.3001 23.1838 42.1671 17.7858 43.046 12.3901C43.1709 11.6139 43.3075 10.84 43.4206 10.0638C43.4842 9.63176 43.6397 9.42287 44.1392 9.44186C45.355 9.48458 46.5779 9.49645 47.7937 9.44186C48.477 9.40862 48.4722 9.70535 48.3851 10.2181C48.0269 12.2928 47.69 14.3699 47.3507 16.4493C47.273 16.7057 47.273 16.9573 47.2517 17.3917Z" fill="#044389"/>
<path d="M29.8508 30.0679C28.9429 30.096 28.0353 30.0002 27.1529 29.783C22.3793 28.6697 20.207 24.9761 21.4981 20.1715C21.9694 18.441 22.7304 16.8695 24.0169 15.6114C28.0483 11.6685 32.8384 9.82169 38.4791 10.4151C39.2863 10.5148 40.0714 10.749 40.8022 11.1083C41.297 11.3457 41.4196 11.5831 40.979 11.9961C40.1001 12.8459 39.2401 13.7147 38.3872 14.5907C38.1186 14.8637 37.9489 14.8518 37.6096 14.631C34.7233 12.7533 31.7192 12.6774 28.9177 14.631C26.1162 16.5847 25.2586 19.559 25.7204 22.8658C26.0903 25.5173 28.3758 27.3119 31.3917 27.5991C33.8563 27.8365 36.031 27.198 37.8782 25.5197C38.267 25.166 38.5969 24.9191 39.0445 25.4318C39.4922 25.9446 39.5158 26.3814 39.0563 26.8395C38.858 27.0401 38.6392 27.2191 38.4037 27.3736C35.7789 29.0139 32.9609 30.0228 29.8508 30.0679Z" fill="#054489"/>
<path d="M79.5308 17.4108C79.7098 16.352 79.9007 15.4001 80.0208 14.4411C80.0797 13.9664 80.2565 13.8097 80.7277 13.8287C81.5406 13.8643 82.3558 13.8026 83.164 13.8524C83.6918 13.8833 83.8708 13.6744 83.925 13.1878C84.0593 12.1599 84.2525 11.1392 84.3963 10.1018C84.4528 9.71487 84.5518 9.46562 85.023 9.47512C86.3354 9.49885 87.6478 9.50123 88.9578 9.47512C89.4785 9.47512 89.5162 9.7125 89.4455 10.116C89.2641 11.1368 89.1015 12.1623 88.9107 13.1806C88.8211 13.6554 88.9107 13.8643 89.4573 13.8405C90.3998 13.8002 91.3305 13.8405 92.2682 13.8216C92.7394 13.8073 92.869 13.9687 92.7536 14.4293C92.6381 14.8898 92.5839 15.355 92.5038 15.8179C92.2258 17.4108 92.2258 17.406 90.5836 17.3989C89.8343 17.3989 88.9201 17.1615 88.3829 17.4962C87.8457 17.8309 88.0059 18.8754 87.881 19.6065C87.3862 22.55 86.8891 25.4936 86.4461 28.4466C86.3283 29.2157 86.1115 29.5789 85.2468 29.5006C84.1874 29.4163 83.1231 29.4163 82.0636 29.5006C81.2296 29.5599 81.3568 29.1113 81.4322 28.5938C81.993 25.1185 82.5278 21.6385 83.1239 18.1727C83.2347 17.5199 83.1239 17.3633 82.4807 17.3941C81.5264 17.4464 80.5604 17.4108 79.5308 17.4108Z" fill="#044389"/>
<path d="M70.3421 21.1567C69.9602 21.2493 69.5643 21.267 69.1758 21.2089C68.5514 21.0973 67.8728 21.057 67.2908 21.7335C68.4689 22.5074 69.647 23.2575 70.811 24.0456C71.0183 24.188 71.5484 24.2213 71.3034 24.6533C71.129 24.9667 70.7379 24.8313 70.4481 24.7032C69.9627 24.4871 69.4797 24.264 69.0132 24.0148C67.7903 23.362 66.5746 22.7733 65.1184 23.2456C64.8121 23.3453 64.3668 23.464 64.1171 23.0083C63.8485 22.5193 64.1383 22.1893 64.5035 21.8214C63.0309 21.5104 61.6195 21.546 60.2011 21.6267C58.9547 21.6979 57.7036 21.819 56.4831 21.4202C56.2168 21.3324 55.9082 21.2849 55.8775 20.9264C55.8469 20.568 56.099 20.4374 56.3346 20.2736C57.0687 19.7452 57.9488 19.4621 58.851 19.4642C60.2247 19.4642 61.5983 19.355 62.972 19.3645C63.5893 19.3645 63.8155 19.1128 64.0158 18.5645C64.2019 18.0541 64.1171 17.3325 64.8923 17.1402C65.2952 17.0429 65.4342 17.0904 65.4672 17.5414C65.5072 18.1158 65.1797 18.904 65.7028 19.2031C66.1457 19.4665 66.8573 19.2814 67.4487 19.2814C68.9731 19.2814 70.5117 19.4594 71.9561 18.7307C72.5574 18.4677 73.1209 18.1244 73.6313 17.7099C75.1769 16.3189 75.0026 14.1492 73.2048 13.119C70.8322 11.7564 68.4689 12.0365 66.1764 13.3564C64.8383 14.1258 63.7618 15.2841 63.0874 16.6797C63.0081 16.897 62.8586 17.0812 62.6629 17.2026C62.4672 17.324 62.2366 17.3756 62.0083 17.3491C60.9951 17.3182 59.9796 17.3491 58.8322 17.3491C59.4076 16.4982 60.102 15.7354 60.8938 15.0845C64.0487 12.4472 67.5524 10.5363 71.7087 10.0995C73.3926 9.90715 75.0979 10.1086 76.692 10.6882C79.1188 11.5784 79.8139 13.6839 78.419 15.9106C77.3682 17.5722 75.7306 18.4933 74.0012 19.2648C73.8905 19.3146 73.7656 19.3051 73.7255 19.4594C73.5747 19.552 73.5983 19.6707 73.7255 19.7134C73.9093 19.7751 73.8716 19.5947 73.8975 19.495C74.1332 19.5283 74.5361 19.279 74.5078 19.7728C74.4866 20.1692 74.774 20.2238 74.9908 20.3757C75.1369 20.4778 75.3914 20.5229 75.3395 20.7484C75.2712 21.0475 74.9578 20.9858 74.8023 20.9169C73.3886 20.2357 72.0692 20.9573 70.7096 21.1163C70.6625 20.8101 71.2516 20.7247 70.9453 20.2926C70.6908 20.3259 70.5376 20.6416 70.2384 20.6107C70.0853 20.5941 69.8685 20.6938 69.9085 20.8339C69.9486 20.9739 70.1866 21.0546 70.3421 21.1567ZM72.809 19.7799C72.6789 19.8546 72.5443 19.9212 72.4061 19.9793C71.9608 20.136 71.8194 20.3662 72.0833 20.3876C72.3707 20.4137 72.6653 20.295 72.7972 19.7799H72.809ZM71.605 20.4256C71.5623 20.4007 71.5173 20.38 71.4707 20.3638C71.4589 20.3638 71.4118 20.4161 71.4165 20.4303C71.4377 20.4723 71.4629 20.512 71.4919 20.549L71.605 20.4256ZM73.3368 19.7585L73.252 19.6161C73.226 19.6636 73.1766 19.711 73.1766 19.7585C73.1766 19.806 73.2237 19.8535 73.252 19.9033L73.3368 19.7585Z" fill="#0689CC"/>
<path d="M18.2985 15.4857H19.2409C20.8903 15.4857 20.8903 15.4857 20.6052 17.0738C19.9313 20.9359 19.2527 24.7981 18.6213 28.6698C18.5223 29.2822 18.3644 29.5315 17.7094 29.503C16.4324 29.4508 15.153 29.4674 13.8736 29.503C13.3882 29.503 13.3081 29.3487 13.3835 28.9024C14.1218 24.6296 14.8435 20.3615 15.5488 16.0981C15.6266 15.6234 15.7844 15.4596 16.2557 15.4833C16.9248 15.5118 17.6128 15.4857 18.2985 15.4857Z" fill="#044389"/>
<path d="M59.6962 23.0509C61.1971 22.6949 61.9416 23.1791 62.4529 24.7838C63.1338 26.9202 65.1413 27.6324 67.1841 27.9481C69.8843 28.3778 72.3158 27.7416 74.4105 25.9161C74.6885 25.6787 74.9524 25.204 75.3954 25.731C75.7959 26.2057 75.6687 26.6069 75.2446 26.944C73.574 28.2662 71.6349 29.04 69.6133 29.5908C67.1558 30.2602 64.6654 30.3266 62.2456 29.465C59.8258 28.6033 58.0045 27.0911 57.4932 24.385C57.2576 23.1008 57.3047 23.0509 58.5723 23.0509H59.6962Z" fill="#0689CC"/>
<path d="M62.7851 2.70267C63.2752 1.86472 63.3365 1.16919 63.4732 0.51402C63.598 -0.0984223 64.0056 -0.0105913 64.3873 0.0273896C64.974 0.084361 64.623 0.473665 64.5758 0.720541C63.9939 3.19168 63.3978 5.65806 62.804 8.12919C62.7168 8.49239 62.6084 8.74164 62.1419 8.72739C61.6754 8.71315 61.4869 8.66568 61.6424 8.10071C62.0382 6.65506 62.3493 5.18805 62.6391 3.66169C61.6518 5.02188 60.3371 5.41593 58.7867 5.1382C58.3155 5.05511 58.2754 5.37558 58.2 5.67705C57.9927 6.49601 57.7453 7.3126 57.6181 8.14581C57.5003 8.90068 56.9748 8.75588 56.5649 8.68229C55.9782 8.57547 56.3717 8.14344 56.4329 7.88232C56.923 5.77438 57.4626 3.67831 57.9338 1.56799C58.061 0.993529 58.2896 0.770391 58.8763 0.824989C59.463 0.879586 60.0544 0.824989 60.6528 0.872465C61.673 0.948427 62.5401 1.27601 62.7851 2.70267ZM59.2344 4.77026C60.4596 4.77026 61.3385 3.8967 61.3432 2.75727C61.3432 2.02139 60.9992 1.60122 60.257 1.4944C59.5148 1.38758 59.0789 1.53713 58.9964 2.38695C58.9479 2.88319 58.8322 3.37039 58.6524 3.83498C58.3768 4.56374 58.6124 4.83198 59.2344 4.77026Z" fill="#0C8CCE"/>
<path d="M21.2061 12.3854C21.1808 12.8397 21.0239 13.2765 20.755 13.6419C20.486 14.0074 20.1166 14.2854 19.6926 14.4418C19.2685 14.5981 18.8082 14.6258 18.3687 14.5216C17.9291 14.4173 17.5295 14.1857 17.2192 13.8551C16.9088 13.5246 16.7014 13.1098 16.6225 12.6618C16.5436 12.2139 16.5966 11.7524 16.7751 11.3345C16.9536 10.9166 17.2496 10.5605 17.6267 10.3102C18.0039 10.0599 18.4455 9.9264 18.897 9.92615C19.2097 9.93224 19.5181 10.001 19.8042 10.1284C20.0902 10.2558 20.3482 10.4393 20.5632 10.6682C20.7781 10.8971 20.9456 11.1669 21.056 11.4617C21.1664 11.7565 21.2174 12.0705 21.2061 12.3854Z" fill="#054489"/>
<path d="M43.7456 8.49238L48.4744 1.16444C48.5922 0.986401 48.6818 0.741899 48.9457 0.782254C49.2661 0.832104 49.1624 1.12171 49.1813 1.31399C49.3227 3.6332 49.4475 5.95478 49.5866 8.27399C49.6078 8.6087 49.5606 8.86744 49.1601 8.7986C48.8703 8.74875 48.4108 8.96002 48.3896 8.38319C48.3896 8.19565 48.3778 8.00812 48.3661 7.81822C48.2789 6.2159 48.2789 6.24201 46.7167 6.16842C46.5039 6.13779 46.2868 6.17685 46.0977 6.27984C45.9085 6.38284 45.7571 6.54432 45.6659 6.74051C45.3855 7.22952 45.0439 7.69003 44.7588 8.1648C44.5373 8.54461 44.2781 8.72976 43.7456 8.49238ZM48.1116 3.34834L47.9231 3.28187C47.6521 3.69017 47.36 4.08659 47.1149 4.51151C46.9688 4.76788 46.5895 5.00288 46.7639 5.30673C46.9382 5.61058 47.327 5.41593 47.6215 5.4634C48.0527 5.53699 48.2506 5.38507 48.2011 4.91268C48.1469 4.39519 48.1399 3.87058 48.1116 3.34834Z" fill="#0C8CCE"/>
<path d="M66.5837 8.14584C66.136 8.35473 65.6977 8.59211 65.2359 8.7654C64.7058 8.9648 64.1568 8.94344 63.768 8.48292C63.3793 8.0224 63.4712 7.41708 63.7445 6.88297C64.1309 6.09962 64.8495 5.71031 65.6106 5.40172C66.0332 5.21243 66.4759 5.07226 66.93 4.98393C67.6746 4.87473 67.6911 4.35487 67.7052 3.79702C67.7052 3.36499 67.545 3.06589 67.0761 3.01604C66.5295 2.95907 66.0865 3.10624 65.8556 3.65934C65.832 3.71631 65.8226 3.78041 65.8014 3.83975C65.6577 4.22431 65.5328 4.64447 65.0309 4.67771C64.9755 4.68224 64.9198 4.6757 64.8669 4.65844C64.814 4.64119 64.765 4.61356 64.7227 4.57716C64.6804 4.54076 64.6458 4.4963 64.6206 4.44633C64.5955 4.39637 64.5804 4.34189 64.5762 4.28603C64.5126 3.83026 64.7623 3.49792 65.0969 3.2463C65.5233 2.92345 66.0181 2.70426 66.5424 2.60585C67.0668 2.50743 67.6067 2.53246 68.1199 2.67896C68.6854 2.81901 68.9799 3.23918 68.8621 3.81127C68.5416 5.34712 68.1764 6.87348 67.8206 8.39984C67.717 8.84136 67.3376 8.68232 67.0478 8.72979C66.5153 8.81525 66.7392 8.31913 66.5766 8.12447H66.6991V8.04614L66.5837 8.14584ZM67.4389 5.22131C66.4164 5.62486 65.5799 5.89547 65.005 6.61473C64.7082 6.98505 64.6045 7.41233 64.9131 7.83012C65.2218 8.24791 65.6059 8.11023 66.0135 7.97492C67.2952 7.54289 67.062 6.36074 67.4389 5.22131Z" fill="#0C8CCE"/>
<path d="M74.2342 4.07718C73.909 5.40889 73.5485 6.92575 73.1574 8.45211C73.0302 8.95298 72.5849 8.73934 72.2903 8.71085C71.7885 8.66338 72.0736 8.29544 72.1231 8.06755C72.3587 7.05868 72.6179 6.05694 72.8299 5.0457C72.9501 4.49497 73.3012 3.84218 72.5613 3.46711C72.0335 3.20125 70.6905 3.94188 70.5114 4.5923C70.1886 5.7792 69.8682 6.95424 69.6397 8.15301C69.5171 8.81055 69.1189 8.78682 68.6972 8.70136C68.1788 8.60166 68.4804 8.20286 68.537 7.95598C68.8786 6.45811 69.2438 4.96261 69.6255 3.47661C69.7056 3.16564 69.6255 2.65052 70.2075 2.67901C70.5868 2.698 71.1099 2.53183 70.7965 3.29857C70.74 3.43863 71.1453 3.37216 71.3243 3.25585C71.7525 2.93863 72.2462 2.7228 72.7687 2.62441C73.6781 2.5081 74.213 2.95675 74.2342 4.07718Z" fill="#0C8CCE"/>
<path d="M79.3939 6.40821C78.8143 7.92982 77.3205 8.95768 76.0623 8.88884C75.6229 8.87202 75.2 8.71586 74.8539 8.44262C74.5078 8.16939 74.2562 7.79303 74.1349 7.36723C73.5058 5.16433 75.7843 2.39647 78.0462 2.61961C78.3272 2.63797 78.5998 2.72411 78.8409 2.87076C79.082 3.01742 79.2846 3.2203 79.4316 3.46231C79.5813 3.66659 79.6797 3.90437 79.7183 4.15532C79.7568 4.40626 79.7345 4.66288 79.6531 4.90321C79.4552 5.37797 78.9462 5.10736 78.5622 5.1216C77.6904 5.15721 76.8163 5.15009 75.9445 5.1216C75.5486 5.1216 75.3814 5.24742 75.3554 5.64384C75.3083 6.41296 75.2588 7.19869 75.9775 7.69481C76.7362 8.21942 77.4831 7.88709 78.1593 7.45743C78.5433 7.24141 78.8567 6.88297 79.3939 6.40821ZM75.6005 4.66346C76.3639 4.66346 77.0377 4.63735 77.7069 4.66346C78.5268 4.70381 78.4986 4.23855 78.27 3.71394C78.0061 3.10861 77.5043 2.91159 76.8893 3.14897C76.2743 3.38635 75.8455 3.87535 75.6005 4.66821V4.66346Z" fill="#0C8CCE"/>
<path d="M52.3027 8.6799C51.8315 8.75349 51.6312 8.64192 51.7608 8.13393C52.1849 6.46039 52.5855 4.78211 52.986 3.10383C53.0614 2.78811 53.2004 2.56497 53.5491 2.65518C53.7659 2.71215 54.2277 2.38219 54.1382 3.03261C54.1075 3.26999 54.289 3.31985 54.5694 3.13706C54.8887 2.88537 55.2458 2.68663 55.6273 2.54836C55.776 2.49626 55.9372 2.49252 56.0881 2.53767C56.239 2.58282 56.372 2.67457 56.4684 2.79998C56.5395 2.88514 56.5817 2.99094 56.5889 3.10196C56.5961 3.21298 56.5679 3.32341 56.5085 3.41717C56.438 3.55845 56.3253 3.67386 56.1862 3.74712C56.0471 3.82037 55.8887 3.84778 55.7333 3.82547C54.1005 3.76375 53.9426 3.88244 53.5374 5.52749C53.3182 6.41292 53.0991 7.29597 52.9059 8.18378C52.8258 8.5446 52.6821 8.78198 52.3027 8.6799Z" fill="#0C8CCE"/>
<path d="M50.6139 8.68477C50.1827 8.73937 50.0178 8.59932 50.1426 8.15541C50.5785 6.42254 51.0121 4.68491 51.4173 2.93304C51.5446 2.38706 51.931 2.45828 52.2915 2.48914C52.8899 2.54374 52.5412 2.98289 52.4917 3.20128C52.1265 4.82259 51.7142 6.4344 51.3254 8.05097C51.2194 8.45451 51.1205 8.81296 50.6139 8.68477Z" fill="#0C8CCE"/>
<path d="M52.9066 1.52048C52.8945 1.70859 52.8136 1.88551 52.6796 2.01704C52.5456 2.14857 52.3679 2.22538 52.1809 2.23262C52.1036 2.2461 52.0241 2.23988 51.9497 2.21454C51.8753 2.18921 51.8084 2.14554 51.755 2.08753C51.7016 2.02951 51.6635 1.95897 51.6441 1.88233C51.6246 1.80568 51.6245 1.72536 51.6437 1.64866C51.6651 1.45502 51.7588 1.27683 51.9058 1.15028C52.0529 1.02374 52.2422 0.958346 52.4354 0.967378C52.7653 0.960256 52.9066 1.16915 52.9066 1.52048Z" fill="#0C8CCE"/>
<path d="M70.3417 21.1566C70.198 21.0546 69.9765 20.9786 69.9341 20.8457C69.8916 20.7127 70.1108 20.6083 70.2639 20.6225C70.5584 20.6534 70.7116 20.3377 70.9708 20.3044C71.2677 20.7365 70.6786 20.8219 70.7352 21.1282L70.3417 21.1566Z" fill="#0C8CCE"/>
<path d="M73.8975 19.5067C73.8715 19.6064 73.9092 19.7868 73.7255 19.7251C73.5912 19.6823 73.5676 19.5636 73.7255 19.4711C73.7845 19.472 73.8428 19.4841 73.8975 19.5067Z" fill="#0C8CCE"/>
<path d="M72.7968 19.7798C72.6648 20.2949 72.3703 20.4112 72.0711 20.3875C71.8072 20.3661 71.9486 20.1359 72.3939 19.9792C72.5321 19.9211 72.6667 19.8545 72.7968 19.7798Z" fill="#0C8CCE"/>
<path d="M71.5933 20.4254L71.4802 20.5489C71.4512 20.5119 71.426 20.4722 71.4048 20.4302C71.4048 20.4159 71.4472 20.3613 71.459 20.3637C71.5056 20.3799 71.5506 20.4005 71.5933 20.4254Z" fill="#0C8CCE"/>
<path d="M73.3248 19.7584L73.2399 19.9032C73.2117 19.8533 73.1646 19.8059 73.1646 19.7584C73.1646 19.7109 73.214 19.6634 73.2399 19.616L73.3248 19.7584Z" fill="#0C8CCE"/>
<path d="M66.5836 8.1458L66.6943 8.05322V8.13156H66.5718L66.5836 8.1458Z" fill="#FCFDFD"/>
<path d="M11.1691 35.0979C11.2392 35.0005 11.2911 34.8911 11.3223 34.775C11.3507 34.6797 11.3704 34.582 11.3812 34.4831C11.3906 34.3947 11.3906 34.3056 11.3812 34.2172C11.367 34.1299 11.3425 34.0446 11.3082 33.9632C11.2676 33.8736 11.222 33.7864 11.1715 33.7021C11.1344 33.6461 11.0942 33.5923 11.0513 33.5407C10.9971 33.4742 10.9359 33.4006 10.8652 33.3199L10.6296 33.0635C10.5495 32.9757 10.467 32.8879 10.394 32.7977C10.2055 32.5935 9.99812 32.3728 9.77429 32.1377L9.3596 32.5437L9.7413 32.9282C9.87089 33.0564 9.99577 33.1846 10.1159 33.3152C10.2361 33.4457 10.3515 33.5692 10.4458 33.695C10.537 33.8072 10.6197 33.9263 10.6932 34.051C10.7513 34.1525 10.7942 34.2621 10.8204 34.3763C10.8418 34.4696 10.831 34.5676 10.7898 34.654C10.737 34.7715 10.643 34.8653 10.5259 34.9175C10.4725 34.9434 10.4151 34.9602 10.3563 34.9673C10.2962 34.976 10.2355 34.98 10.1748 34.9792C10.0773 34.9799 9.97996 34.9687 9.88503 34.946C9.79235 34.9257 9.70166 34.8971 9.61407 34.8605C9.75986 34.739 9.87731 34.5866 9.95807 34.4142C10.0393 34.2348 10.0795 34.0393 10.0759 33.8421C10.0754 33.762 10.0651 33.6823 10.0452 33.6048C10.0228 33.5174 9.99036 33.433 9.94864 33.3531C9.90503 33.2683 9.85208 33.1887 9.79078 33.1158C9.72847 33.0384 9.65547 32.9705 9.57401 32.914C9.48867 32.8538 9.39499 32.8066 9.29598 32.7739C9.18814 32.7378 9.07505 32.7202 8.96141 32.7217C8.80766 32.7194 8.6549 32.7468 8.51138 32.8024C8.3788 32.8538 8.25723 32.9304 8.15324 33.0279C8.05269 33.1247 7.97255 33.241 7.91762 33.3698C7.86039 33.5064 7.83152 33.6535 7.8328 33.8018C7.82966 33.984 7.86333 34.1649 7.93176 34.3335C8.00635 34.4971 8.11575 34.6422 8.2522 34.7584C8.14382 34.7727 8.01658 34.7822 7.87521 34.7869H7.46524H7.11417C6.97983 34.7879 6.8457 34.776 6.71362 34.7513C6.62924 34.737 6.55252 34.6933 6.49685 34.6279C6.4444 34.5524 6.41418 34.4635 6.40967 34.3715C6.39688 34.2279 6.39138 34.0837 6.39318 33.9395V30.9865H5.81592V33.9442C5.81592 34.1033 5.81592 34.2481 5.83241 34.381C5.83985 34.501 5.8612 34.6197 5.89603 34.7347C5.92545 34.834 5.97081 34.9279 6.03033 35.0124C6.09432 35.094 6.17459 35.1611 6.26595 35.2095C6.37745 35.266 6.4965 35.306 6.61937 35.3281C6.75153 35.3529 6.88552 35.3664 7.01992 35.3685H7.46759C7.7447 35.37 8.02164 35.355 8.29697 35.3234C8.52428 35.2993 8.749 35.2548 8.96848 35.1905L9.05565 35.2332L9.16168 35.283L9.28656 35.3376C9.4329 35.4117 9.58701 35.469 9.74601 35.5086C9.88683 35.5456 10.0317 35.5647 10.1772 35.5655C10.3151 35.5667 10.4524 35.5475 10.5848 35.5086C10.7057 35.4734 10.8203 35.4189 10.9241 35.3471C11.0182 35.2775 11.1009 35.1934 11.1691 35.0979ZM9.47741 34.0819C9.45087 34.1559 9.41355 34.2255 9.36667 34.2884C9.31814 34.3507 9.26192 34.4066 9.19938 34.4546C9.13484 34.5043 9.0644 34.5458 8.98968 34.578C8.8925 34.5284 8.79882 34.4721 8.7093 34.4095C8.63833 34.3596 8.57417 34.3005 8.51845 34.2338C8.47004 34.1763 8.43251 34.1103 8.40771 34.0392C8.38545 33.962 8.37434 33.8821 8.37472 33.8018C8.37366 33.7314 8.38815 33.6617 8.41713 33.5976C8.44626 33.5351 8.48798 33.4793 8.53965 33.4338C8.59396 33.3873 8.65624 33.3511 8.72343 33.327C8.79932 33.3012 8.87896 33.2884 8.95905 33.289C9.01428 33.291 9.06899 33.3006 9.12163 33.3175C9.18783 33.3395 9.24994 33.3723 9.30541 33.4149C9.36752 33.4607 9.41964 33.5189 9.45856 33.5858C9.50303 33.6645 9.52504 33.754 9.52218 33.8445C9.52078 33.9256 9.50564 34.0059 9.47741 34.0819Z" fill="#B48E3A"/>
<path d="M12.0996 31.9622L12.6227 32.4986L13.1481 31.9693L12.618 31.4352L12.0996 31.9622Z" fill="#B48E3A"/>
<path d="M12.3468 35.2119C12.3509 35.4067 12.3263 35.6011 12.2738 35.7887C12.2361 35.9375 12.1607 36.0739 12.0549 36.1846C11.9492 36.2953 11.8168 36.3764 11.6706 36.4201C11.4941 36.4729 11.3105 36.4977 11.1263 36.4937H10.7046V37.0753H11.1263C11.3918 37.0801 11.656 37.0367 11.9062 36.9471C12.1193 36.8705 12.312 36.7454 12.4694 36.5816C12.6224 36.4125 12.7381 36.2127 12.8086 35.9952C12.8875 35.7418 12.9257 35.4774 12.9217 35.2119V33.2938H12.3468V35.2119Z" fill="#B48E3A"/>
<path d="M14.2462 30.9865H13.6689V35.3685H14.2462V30.9865Z" fill="#B48E3A"/>
<path d="M17.2549 35.3686V34.2054C17.2549 33.6547 17.1159 33.2559 16.8426 32.9924C16.7441 32.9028 16.6287 32.8342 16.5033 32.7906C16.3731 32.7443 16.236 32.7211 16.098 32.7218C15.9363 32.7197 15.7759 32.7512 15.6268 32.8144C15.4836 32.8763 15.3533 32.9649 15.2427 33.0755C15.1973 33.127 15.1556 33.1818 15.1178 33.2393C15.0724 33.3102 15.033 33.3848 15 33.4624C14.917 33.6731 14.8754 33.898 14.8775 34.1247C14.8718 34.3246 14.9104 34.5233 14.9906 34.7063C15.0578 34.8551 15.1577 34.9866 15.2828 35.0908C15.3989 35.1884 15.5336 35.2611 15.6786 35.3045C15.8194 35.3462 15.9654 35.3677 16.1121 35.3686H16.6729C16.6779 35.537 16.6532 35.705 16.5999 35.8647C16.5534 35.9947 16.4718 36.109 16.3643 36.1947C16.2167 36.3038 16.0469 36.3784 15.8671 36.413C15.612 36.4649 15.3521 36.4888 15.0919 36.4843V37.0635C15.4177 37.0698 15.7429 37.0355 16.0603 36.9614C16.3019 36.904 16.529 36.7965 16.7271 36.6457C16.9016 36.5081 17.0366 36.3262 17.1182 36.1187C17.2115 35.8799 17.2579 35.6252 17.2549 35.3686ZM16.68 34.787H16.1192C16.0933 34.789 16.0673 34.789 16.0415 34.787L15.9378 34.7727C15.8966 34.7653 15.8563 34.7533 15.8176 34.7371C15.7759 34.7227 15.7363 34.7027 15.6998 34.6778C15.6161 34.6154 15.5502 34.5318 15.5088 34.4355C15.4675 34.3392 15.4521 34.2336 15.4642 34.1294C15.4502 33.9144 15.5092 33.7009 15.6315 33.5241C15.6869 33.4525 15.7587 33.3954 15.8408 33.3578C15.9228 33.3202 16.0127 33.3031 16.1027 33.3081H16.197C16.239 33.311 16.2804 33.3207 16.3195 33.3366C16.3666 33.3555 16.4103 33.382 16.4491 33.4149C16.4988 33.4583 16.5389 33.5117 16.5669 33.5716C16.6072 33.6525 16.6357 33.7389 16.6517 33.828C16.6764 33.9522 16.6875 34.0788 16.6847 34.2054L16.68 34.787Z" fill="#B48E3A"/>
<path d="M21.9365 37.3555L22.3771 37.7947L22.7965 37.3555L22.3653 36.9282L21.9365 37.3555Z" fill="#B48E3A"/>
<path d="M21.7789 35.9716L21.2959 36.4653L21.7718 36.9614L22.2666 36.4653L21.7789 35.9716Z" fill="#B48E3A"/>
<path d="M22.6576 35.302C22.7853 35.2567 22.903 35.1865 23.0039 35.0955C23.1106 34.9963 23.1956 34.8758 23.2537 34.7418C23.3214 34.5813 23.3543 34.4082 23.3503 34.2338C23.35 34.1544 23.3445 34.0751 23.3338 33.9965C23.3338 33.9062 23.3126 33.8137 23.2985 33.7163C23.2843 33.619 23.2678 33.5217 23.249 33.4267C23.2301 33.3318 23.2136 33.244 23.1995 33.1656C23.1854 33.0873 23.1689 33.0208 23.1571 32.9686C23.1453 32.9164 23.1359 32.8808 23.1335 32.8689L22.5869 33.0374C22.5869 33.0659 22.6058 33.111 22.6175 33.168C22.6293 33.225 22.6435 33.2891 22.6576 33.3626C22.6717 33.4362 22.6859 33.5169 22.7 33.6C22.7141 33.6831 22.7259 33.7638 22.7377 33.8374C22.7495 33.911 22.7589 33.9893 22.766 34.0582C22.7689 34.1151 22.7689 34.1722 22.766 34.2291C22.7709 34.3347 22.7499 34.4399 22.7047 34.5353C22.6697 34.6016 22.6197 34.6585 22.5586 34.7015C22.5077 34.7364 22.4498 34.7599 22.389 34.7703C22.3462 34.7785 22.3029 34.7833 22.2594 34.7846H19.7689C19.7289 34.7867 19.6888 34.7867 19.6488 34.7846C19.5856 34.7759 19.5242 34.7566 19.4673 34.7276C19.4007 34.6938 19.3432 34.6441 19.3 34.5828C19.2483 34.5034 19.2235 34.4093 19.2294 34.3145V33.2986H18.6521V35.2166C18.6557 35.4113 18.6319 35.6055 18.5814 35.7934C18.5402 35.9428 18.4634 36.0797 18.3576 36.1922C18.2531 36.3024 18.1226 36.384 17.9782 36.4296C17.8016 36.482 17.6181 36.5069 17.434 36.5032H17.0122V37.0848H17.434C17.6945 37.0898 17.9538 37.048 18.1997 36.9613C18.4119 36.8875 18.6046 36.7657 18.7628 36.6053C18.9195 36.4423 19.0379 36.246 19.1092 36.0308C19.1927 35.7841 19.2333 35.5247 19.2294 35.2641C19.3987 35.3418 19.5828 35.3815 19.7689 35.3804H22.2759C22.4066 35.3758 22.5356 35.3493 22.6576 35.302Z" fill="#B48E3A"/>
<path d="M22.4644 36.4582L22.9403 36.9567L23.4351 36.4582L22.9474 35.9668L22.4644 36.4582Z" fill="#B48E3A"/>
<path d="M38.4909 33.9632C38.4514 33.8732 38.4057 33.7859 38.3543 33.7021C38.3171 33.6462 38.277 33.5923 38.2341 33.5407C38.1799 33.4742 38.1187 33.4007 38.048 33.3199L37.8124 33.0636C37.7299 32.9757 37.6474 32.8879 37.5767 32.7977C37.3883 32.5936 37.1809 32.3728 36.9571 32.1378L36.5424 32.5437L36.9241 32.9283C37.0537 33.0565 37.1786 33.1846 37.2987 33.3152C37.4189 33.4458 37.5343 33.5692 37.6286 33.695C37.7198 33.8073 37.8025 33.9263 37.876 34.0511C37.9341 34.1526 37.977 34.2622 38.0032 34.3763C38.0246 34.4697 38.0138 34.5676 37.9726 34.654C37.9198 34.7716 37.8258 34.8654 37.7087 34.9175C37.6552 34.9434 37.5979 34.9603 37.539 34.9674C37.479 34.976 37.4183 34.98 37.3576 34.9792C37.26 34.9799 37.1627 34.9688 37.0678 34.946C36.9751 34.9258 36.8845 34.8972 36.7969 34.8605C36.9421 34.7398 37.0602 34.5893 37.1432 34.419C37.2226 34.2391 37.262 34.0438 37.2587 33.8469C37.2582 33.7668 37.2479 33.6871 37.228 33.6095C37.2056 33.5222 37.1732 33.4378 37.1314 33.3579C37.0878 33.2731 37.0349 33.1934 36.9736 33.1205C36.9113 33.0432 36.8383 32.9752 36.7568 32.9188C36.6715 32.8586 36.5778 32.8114 36.4788 32.7787C36.3709 32.7426 36.2578 32.725 36.1442 32.7265C35.9905 32.7244 35.8377 32.7518 35.6942 32.8072C35.5616 32.8586 35.44 32.9352 35.336 33.0327C35.2326 33.1325 35.1507 33.2527 35.0955 33.3859C35.0404 33.5191 35.0132 33.6623 35.0156 33.8066C35.0125 33.9887 35.0461 34.1697 35.1145 34.3383C35.1891 34.5019 35.2985 34.647 35.435 34.7632C35.3266 34.7775 35.1994 34.787 35.058 34.7917H34.648H32.9351C32.8938 34.7898 32.8528 34.7842 32.8126 34.7751C32.7472 34.7612 32.685 34.7354 32.6288 34.6991C32.5613 34.653 32.5049 34.5921 32.4639 34.5211C32.4123 34.4217 32.3879 34.3103 32.3932 34.1983C32.3929 34.0216 32.3683 33.8459 32.3201 33.676C32.2759 33.5158 32.2024 33.3652 32.1034 33.2321C32.0054 33.1028 31.8797 32.9973 31.7358 32.9235C31.5743 32.8424 31.3955 32.8025 31.2151 32.8072C31.0638 32.8029 30.9134 32.832 30.7745 32.8927C30.6581 32.947 30.5532 33.0236 30.4658 33.1182C30.3801 33.2118 30.3093 33.3183 30.2561 33.4339C30.2017 33.5528 30.1545 33.6748 30.1148 33.7995C30.0747 33.9253 30.0417 34.0368 30.0111 34.165C29.9836 34.2722 29.9498 34.3776 29.9098 34.4807C29.879 34.5625 29.8352 34.6386 29.7802 34.7063C29.757 34.7343 29.7278 34.7566 29.6947 34.7714C29.6616 34.7863 29.6255 34.7932 29.5893 34.7917H28.1521C28.0659 34.7911 27.98 34.7832 27.8952 34.768C27.7954 34.7521 27.699 34.7192 27.6101 34.6706C27.5107 34.6162 27.4227 34.5429 27.351 34.4546C27.2637 34.3468 27.2024 34.22 27.1719 34.0843C27.1578 34.0384 27.1413 33.9791 27.1224 33.9063C27.1036 33.8351 27.0847 33.7591 27.0635 33.6689C27.0423 33.5787 27.0235 33.5027 27.0023 33.4173C26.981 33.3318 26.9646 33.2511 26.9457 33.1799C26.9269 33.1087 26.9104 33.0375 26.8986 32.9805C26.8868 32.9235 26.875 32.8832 26.868 32.857C26.8397 32.7312 26.809 32.5888 26.7713 32.4298C26.7336 32.2707 26.6912 32.0879 26.6441 31.8838L26.081 32.0025L26.1399 32.3348C25.6979 32.4491 25.2924 32.6755 24.9618 32.9924C24.811 33.1476 24.6967 33.335 24.6272 33.5407C24.564 33.7409 24.551 33.9538 24.5895 34.1603C24.6135 34.323 24.6739 34.478 24.7662 34.6137C24.8565 34.7439 24.9771 34.8498 25.1173 34.9223C25.2095 34.9743 25.3087 35.0127 25.4118 35.0362C25.5985 35.074 25.7907 35.074 25.9773 35.0362C26.0577 35.0223 26.1366 35.0009 26.2129 34.9721C26.3208 34.9234 26.4234 34.8638 26.5192 34.7941C26.6093 34.7275 26.6888 34.6475 26.7549 34.5567C26.88 34.8044 27.0751 35.0092 27.3156 35.1454C27.5649 35.2849 27.8458 35.3568 28.1309 35.3543H29.5799C29.7027 35.3573 29.8245 35.3319 29.936 35.28C30.0475 35.2282 30.1457 35.1513 30.2231 35.0552L30.5695 35.2427C30.6674 35.2949 30.7681 35.3416 30.8711 35.3828C30.9622 35.4193 31.0559 35.4486 31.1515 35.4706C31.245 35.4919 31.3407 35.5023 31.4366 35.5015C31.4903 35.5007 31.5438 35.496 31.5968 35.4872C31.6621 35.4755 31.726 35.4572 31.7876 35.4326C31.8586 35.4011 31.9251 35.3604 31.9856 35.3116C32.0562 35.2611 32.1189 35.2003 32.1717 35.1312C32.2765 35.2113 32.3934 35.2738 32.518 35.3163C32.6512 35.3597 32.7904 35.3813 32.9304 35.3804H34.6433C34.9204 35.3819 35.1974 35.3669 35.4727 35.3353C35.7 35.3112 35.9247 35.2667 36.1442 35.2024L36.2314 35.2451L36.3374 35.295L36.4623 35.3496C36.6124 35.4245 36.7705 35.4818 36.9335 35.5205C37.0743 35.5575 37.2192 35.5766 37.3647 35.5774C37.5026 35.5786 37.6399 35.5594 37.7723 35.5205C37.8932 35.4853 38.0078 35.4308 38.1116 35.3591C38.2093 35.2895 38.2952 35.2045 38.3661 35.1074C38.4362 35.0101 38.4881 34.9007 38.5192 34.7846C38.5476 34.6893 38.5673 34.5915 38.5781 34.4926C38.5876 34.4042 38.5876 34.3151 38.5781 34.2267C38.5602 34.1356 38.5309 34.047 38.4909 33.9632ZM26.4273 33.8659C26.4118 33.9946 26.3616 34.1165 26.2823 34.2186C26.203 34.3207 26.0975 34.399 25.9773 34.4451C25.9348 34.4626 25.8906 34.4754 25.8454 34.4831C25.7944 34.4879 25.7432 34.4879 25.6922 34.4831C25.6391 34.4828 25.5861 34.4764 25.5344 34.4641C25.4821 34.4549 25.4318 34.4364 25.3859 34.4095C25.3232 34.373 25.2674 34.3255 25.221 34.2695C25.1734 34.2054 25.1426 34.1303 25.1315 34.0511C25.1071 33.9311 25.1177 33.8066 25.1621 33.6926C25.2091 33.5711 25.2824 33.4617 25.3765 33.3722C25.4905 33.2637 25.619 33.1718 25.7582 33.0992C25.9293 33.0116 26.1084 32.9408 26.293 32.8879L26.4109 33.4149C26.4109 33.4434 26.425 33.5004 26.4344 33.5811C26.4444 33.6759 26.442 33.7717 26.4273 33.8659ZM31.8136 34.5092C31.8028 34.5808 31.7838 34.6509 31.757 34.7181C31.7385 34.7648 31.7113 34.8075 31.6769 34.8439C31.6511 34.8711 31.6208 34.8936 31.5874 34.9104C31.5624 34.9234 31.5352 34.9315 31.5072 34.9341H31.446C31.379 34.9338 31.3124 34.9242 31.2481 34.9057C31.173 34.8846 31.0998 34.8576 31.0289 34.8249C30.9512 34.7917 30.8687 34.7514 30.7792 34.7039L30.487 34.5543C30.5169 34.4594 30.5451 34.3644 30.5719 34.2695C30.5954 34.1745 30.6213 34.0843 30.6449 33.9965C30.6667 33.9161 30.6927 33.8368 30.7226 33.7591C30.7501 33.689 30.7865 33.6227 30.831 33.5621C30.8732 33.5081 30.9262 33.4636 30.9865 33.4315C31.0603 33.3974 31.141 33.3811 31.2222 33.384C31.3036 33.383 31.3843 33.4008 31.4578 33.4363C31.5224 33.468 31.58 33.5124 31.6274 33.5668C31.6737 33.6179 31.7111 33.6765 31.7382 33.7401C31.7653 33.8004 31.7866 33.8632 31.8018 33.9276C31.8154 33.9813 31.8241 34.0361 31.8277 34.0914C31.8277 34.1405 31.8277 34.1761 31.8277 34.1983C31.8325 34.3021 31.8278 34.4062 31.8136 34.5092ZM36.6673 34.0819C36.6407 34.1559 36.6034 34.2255 36.5565 34.2885C36.508 34.3508 36.4518 34.4066 36.3892 34.4546C36.3247 34.5044 36.2543 34.5459 36.1795 34.5781C36.0827 34.5279 35.989 34.4716 35.8992 34.4095C35.8282 34.3596 35.764 34.3006 35.7083 34.2339C35.6597 34.1768 35.6229 34.1107 35.5999 34.0392C35.5757 33.9625 35.5638 33.8823 35.5646 33.8018C35.5635 33.7315 35.578 33.6617 35.607 33.5977C35.6361 33.5351 35.6778 33.4793 35.7295 33.4339C35.7838 33.3873 35.8461 33.3511 35.9133 33.3271C35.9892 33.3013 36.0688 33.2884 36.1489 33.2891C36.2042 33.2908 36.2589 33.3004 36.3115 33.3176C36.3777 33.3395 36.4398 33.3724 36.4953 33.4149C36.5574 33.4607 36.6095 33.5189 36.6484 33.5858C36.6929 33.6645 36.7149 33.7541 36.712 33.8446C36.7106 33.9257 36.6955 34.006 36.6673 34.0819Z" fill="#B48E3A"/>
<path d="M40.4374 34.4474C40.3459 34.4398 40.2544 34.4614 40.1758 34.5092C40.1758 34.2148 40.3667 33.9276 40.7531 33.6475L40.6047 33.5264L40.4751 33.4291C40.2603 33.5579 40.0812 33.7391 39.9543 33.9561C39.8275 34.1731 39.757 34.4189 39.7494 34.6706C39.7442 34.8408 39.7956 35.0079 39.8955 35.1453C39.9449 35.2086 40.0073 35.2604 40.0784 35.2971C40.1495 35.3339 40.2276 35.3548 40.3074 35.3584C40.3872 35.362 40.4669 35.3482 40.541 35.318C40.615 35.2878 40.6818 35.2419 40.7366 35.1833C40.8097 35.1082 40.8525 35.0084 40.8568 34.9032C40.8571 34.7879 40.814 34.6767 40.7361 34.5921C40.6583 34.5076 40.5515 34.4558 40.4374 34.4474Z" fill="#B48E3A"/>
<path d="M45.6089 36.47L46.132 37.0041L46.6574 36.4772L46.1272 35.9407L45.6089 36.47Z" fill="#B48E3A"/>
<path d="M50.1685 31.9575L49.6737 31.459L49.1978 31.9575L49.6808 32.4489L50.1685 31.9575Z" fill="#B48E3A"/>
<path d="M51.337 31.9622L50.8422 31.4661L50.3662 31.9622L50.8492 32.4536L51.337 31.9622Z" fill="#B48E3A"/>
<path d="M60.1064 36.47L60.6319 37.0041L61.1573 36.4772L60.6248 35.9407L60.1064 36.47Z" fill="#B48E3A"/>
<path d="M61.3459 33.2323L60.8275 33.0305L60.4599 32.8952L60.2102 32.8145L60.0547 32.7718C60.0285 32.7643 60.0017 32.7596 59.9746 32.7576H59.9251C59.424 32.7576 59.0949 33.0606 58.9379 33.6667L59.4963 33.8139C59.5179 33.7202 59.5503 33.6294 59.5929 33.5433C59.6194 33.489 59.6553 33.44 59.6989 33.3985C59.7314 33.3709 59.7703 33.3521 59.812 33.3439C59.8481 33.3416 59.8843 33.3416 59.9204 33.3439C59.9581 33.3439 60.0366 33.3653 60.156 33.408C60.2715 33.446 60.4105 33.4934 60.5754 33.5528C60.7403 33.6121 60.917 33.6786 61.1126 33.7522L61.704 33.9896C61.5603 34.0726 61.3953 34.1629 61.2069 34.2578C61.0088 34.3559 60.8059 34.4438 60.599 34.5213C60.3799 34.6043 60.1555 34.6725 59.9274 34.7254C59.7003 34.7788 59.4679 34.8059 59.2347 34.8062H58.4431C58.2812 34.819 58.1201 34.7736 57.9883 34.678C57.9347 34.6243 57.893 34.5596 57.8662 34.4884C57.8394 34.4172 57.828 34.341 57.8328 34.2649V33.3154H57.2556V34.2649C57.2542 34.3521 57.2366 34.4383 57.2037 34.5189C57.1773 34.5826 57.138 34.64 57.0883 34.6875C57.0433 34.7295 56.9893 34.7604 56.9304 34.7777C56.8733 34.7964 56.8137 34.806 56.7537 34.8062C56.5898 34.8209 56.4265 34.7726 56.2966 34.6708C56.2451 34.6114 56.206 34.542 56.1817 34.467C56.1574 34.3919 56.1484 34.3127 56.1552 34.2341V33.313H55.5827V34.2507C55.5872 34.3504 55.5678 34.4497 55.5261 34.5403C55.4962 34.6056 55.4519 34.6633 55.3965 34.7088C55.3509 34.7454 55.2978 34.7713 55.241 34.7848C55.1968 34.7951 55.1519 34.8023 55.1067 34.8062C54.945 34.818 54.7846 34.7689 54.6567 34.6685C54.605 34.6096 54.5658 34.5407 54.5415 34.466C54.5172 34.3913 54.5083 34.3124 54.5153 34.2341V33.313H53.9381V34.2507C53.9396 34.3305 53.9316 34.4102 53.9145 34.4881C53.9012 34.5538 53.8702 34.6146 53.825 34.6637C53.7721 34.7153 53.7073 34.7529 53.6365 34.7729C53.5334 34.7995 53.4271 34.8115 53.3208 34.8085H51.3675C51.3301 34.8051 51.2931 34.7987 51.2567 34.7895C51.2132 34.778 51.1706 34.7629 51.1295 34.7444C51.0863 34.7231 51.0472 34.6941 51.0141 34.659C50.9773 34.6203 50.9478 34.5753 50.9269 34.526C50.9017 34.4644 50.8896 34.3981 50.8915 34.3314V33.3154H50.3143V34.3528C50.3139 34.4057 50.3068 34.4583 50.2931 34.5094C50.2779 34.565 50.2486 34.6157 50.2082 34.6566C50.1525 34.7067 50.0866 34.744 50.015 34.7658C49.902 34.7999 49.7842 34.8152 49.6663 34.8109H48.1136H48.0099C47.9566 34.8042 47.9044 34.7906 47.8544 34.7705C47.7976 34.748 47.7451 34.7159 47.6989 34.6756C47.6451 34.6292 47.6072 34.5669 47.5905 34.4976C47.739 34.4097 47.8568 34.3361 47.9463 34.2744L48.0995 34.17L48.0217 33.6596L46.9379 33.2323C46.7376 33.1516 46.5633 33.0851 46.4195 33.0305L46.052 32.8952L45.8046 32.8145L45.6491 32.7718C45.6206 32.7638 45.5914 32.7591 45.5619 32.7576H45.51C45.0082 32.7576 44.6807 33.0614 44.5228 33.6667L45.0812 33.8139C45.1039 33.7205 45.1363 33.6298 45.1778 33.5433C45.2044 33.4885 45.2412 33.4393 45.2862 33.3985C45.3177 33.3707 45.3559 33.3519 45.3969 33.3439C45.433 33.3416 45.4692 33.3416 45.5053 33.3439C45.543 33.3439 45.6216 33.3653 45.7409 33.408C45.8588 33.446 45.9978 33.4934 46.1603 33.5528C46.3229 33.6121 46.502 33.6786 46.6976 33.7522C46.8931 33.8258 47.091 33.9065 47.289 33.9896C47.1452 34.0726 46.9803 34.1629 46.7918 34.2578C46.5941 34.3568 46.3912 34.4447 46.1839 34.5213C45.965 34.6049 45.7407 34.6732 45.5124 34.7254C45.2861 34.7788 45.0545 34.8059 44.822 34.8062H43.5851V34.2246C43.5851 33.6738 43.4484 33.2695 43.1751 33.0116C43.0762 32.9225 42.9609 32.854 42.8358 32.8098C42.7056 32.7635 42.5685 32.7402 42.4305 32.7409C42.2688 32.7389 42.1084 32.7704 41.9593 32.8335C41.8162 32.8955 41.6859 32.9841 41.5752 33.0946C41.5298 33.1462 41.4881 33.2009 41.4504 33.2584C41.404 33.3288 41.3646 33.4035 41.3326 33.4816C41.2496 33.6923 41.208 33.9172 41.21 34.1439C41.2043 34.3438 41.2429 34.5425 41.3231 34.7254C41.3895 34.8741 41.4886 35.0057 41.6129 35.11C41.7303 35.2072 41.8656 35.2798 42.0111 35.3236C42.1519 35.3655 42.2979 35.3871 42.4447 35.3877H43.0101C43.0157 35.5564 42.9902 35.7246 42.9347 35.8839C42.8883 36.0138 42.8067 36.1281 42.6991 36.2138C42.5519 36.3234 42.3819 36.3981 42.202 36.4322C41.9477 36.4842 41.6886 36.5081 41.4292 36.5034V37.0826C41.7549 37.0889 42.0802 37.0546 42.3975 36.9806C42.6385 36.9232 42.8648 36.8156 43.062 36.6648C43.2372 36.5274 43.3729 36.3455 43.4555 36.1379C43.5447 35.8983 43.5871 35.6435 43.5803 35.3877H44.8173C45.0204 35.3871 45.2229 35.3688 45.4229 35.3331C45.6224 35.2974 45.8198 35.2506 46.0143 35.1931C46.2051 35.1337 46.3912 35.0673 46.5703 34.9913C46.7494 34.9153 46.9167 34.8418 47.0745 34.7539C47.133 34.8948 47.2243 35.0194 47.3408 35.1171C47.4454 35.2025 47.5643 35.2684 47.6919 35.3118C47.8253 35.3574 47.9656 35.3799 48.1065 35.3782H49.6593C49.8297 35.3912 50.0009 35.3695 50.1628 35.3144C50.3247 35.2594 50.474 35.1721 50.6017 35.0578C50.6909 35.167 50.8083 35.2492 50.941 35.2952C51.0981 35.3521 51.2642 35.3794 51.4311 35.3759H53.316C53.6301 35.3961 53.9403 35.297 54.1855 35.0981C54.2019 35.0864 54.2162 35.0719 54.2279 35.0554C54.4557 35.2707 54.7592 35.3859 55.0714 35.3759H55.1114C55.2491 35.3709 55.3847 35.3411 55.512 35.288C55.6446 35.2352 55.7643 35.1543 55.8631 35.0507C55.9799 35.1647 56.119 35.2531 56.2715 35.3103C56.424 35.3675 56.5865 35.3922 56.749 35.383C56.8874 35.3843 57.0249 35.3593 57.1542 35.3094C57.2803 35.2618 57.395 35.1882 57.4912 35.0934L57.5383 35.0435C57.6422 35.1582 57.7725 35.2454 57.9176 35.2975C58.0839 35.3572 58.2595 35.3861 58.436 35.383H59.2277C59.4908 35.3819 59.753 35.3525 60.0099 35.2952C60.2633 35.2376 60.5128 35.1639 60.7568 35.0744C60.986 34.9918 61.2102 34.8958 61.4283 34.7872C61.6357 34.6827 61.8171 34.583 61.9726 34.4928C62.1281 34.4026 62.253 34.3243 62.3449 34.2554L62.5027 34.1486L62.4273 33.6382L61.3459 33.2323ZM43.0101 34.7895H42.4494C42.4235 34.7916 42.3975 34.7916 42.3716 34.7895L42.2656 34.7753C42.2252 34.7675 42.1858 34.7556 42.1478 34.7397C42.1055 34.7248 42.0652 34.7048 42.0276 34.6803C41.9443 34.6176 41.8787 34.534 41.8373 34.4378C41.796 34.3416 41.7804 34.2362 41.792 34.132C41.7787 33.9167 41.8385 33.7032 41.9616 33.5267C42.0169 33.4549 42.0887 33.3977 42.1708 33.36C42.2529 33.3224 42.3428 33.3055 42.4329 33.3107H42.5271C42.5692 33.3139 42.6105 33.3235 42.6497 33.3391C42.6965 33.3586 42.7401 33.385 42.7792 33.4175C42.8284 33.4613 42.8684 33.5146 42.897 33.5741C42.9352 33.656 42.9637 33.742 42.9819 33.8305C43.0053 33.9549 43.0164 34.0813 43.0149 34.208L43.0101 34.7895Z" fill="#B48E3A"/>
<path d="M72.0104 36.0498L71.5298 36.5412L72.0057 37.0397L72.5005 36.5412L72.0104 36.0498Z" fill="#B48E3A"/>
<path d="M70.3604 36.5483L70.8363 37.0444L71.3311 36.5483L70.8434 36.0569L70.3604 36.5483Z" fill="#B48E3A"/>
<path d="M72.1441 35.0956C72.2507 34.9963 72.3357 34.8759 72.3938 34.7419C72.4615 34.5814 72.4944 34.4082 72.4904 34.2339C72.4901 34.1545 72.4846 34.0752 72.4739 33.9965C72.4739 33.9063 72.4527 33.8137 72.4386 33.7164C72.4245 33.6191 72.408 33.5217 72.3891 33.4268C72.3703 33.3318 72.3538 33.244 72.3396 33.1657C72.3255 33.0873 72.309 33.0209 72.2972 32.9686C72.2855 32.9164 72.276 32.8808 72.2737 32.8689L71.727 33.0375C71.727 33.066 71.7459 33.1111 71.7577 33.168C71.7695 33.225 71.7836 33.2891 71.7977 33.3627C71.8119 33.4363 71.826 33.517 71.8401 33.6001C71.8543 33.6831 71.8661 33.7639 71.8778 33.8374C71.8896 33.911 71.899 33.9894 71.9061 34.0582C71.909 34.1151 71.909 34.1722 71.9061 34.2291C71.9111 34.3347 71.89 34.4399 71.8449 34.5353C71.8099 34.6016 71.7598 34.6585 71.6988 34.7015C71.6478 34.7365 71.5899 34.76 71.5291 34.7704C71.4864 34.7786 71.443 34.7833 71.3995 34.7846H70.205C70.0672 34.7873 69.93 34.7656 69.7997 34.7205C69.6754 34.6724 69.5605 34.6025 69.4604 34.514C69.3357 34.4011 69.2214 34.2772 69.1188 34.1437C69.001 33.9933 68.8619 33.8105 68.7017 33.5953L67.6579 32.1188L70.1178 30.9818L69.8822 30.4524L67.1396 31.7176L67.0335 32.2233L67.9972 33.5763C68.0538 33.657 68.1056 33.7377 68.1527 33.8137C68.1967 33.8893 68.2337 33.9688 68.2635 34.0511C68.2904 34.1273 68.304 34.2076 68.3035 34.2885C68.3035 34.3618 68.2865 34.4341 68.2541 34.4997C68.2201 34.5599 68.1693 34.6086 68.108 34.6398C68.0158 34.6849 67.9185 34.7184 67.8182 34.7395C67.672 34.7696 67.524 34.7903 67.3752 34.8012C67.2032 34.8131 67.0006 34.8202 66.7673 34.8202C66.3715 34.8202 66.0204 34.8202 65.7117 34.806C65.4521 34.8034 65.1935 34.7707 64.9413 34.7086C64.86 34.6894 64.781 34.6616 64.7057 34.6255C64.6499 34.5966 64.5997 34.5581 64.5572 34.5116C64.5197 34.4654 64.4917 34.4121 64.4748 34.3549C64.4568 34.2852 64.4481 34.2133 64.4488 34.1413C64.4491 34.0562 64.4562 33.9712 64.47 33.8873C64.47 33.7995 64.4983 33.7211 64.5125 33.6499C64.5266 33.5787 64.5478 33.4956 64.5761 33.4007L64.0247 33.2321C64.0247 33.2321 64.0247 33.2654 63.9988 33.3223C63.9729 33.3793 63.9682 33.4505 63.9493 33.5383C63.9305 33.6262 63.914 33.7211 63.8998 33.8256C63.8839 33.93 63.876 34.0356 63.8763 34.1413C63.8631 34.4141 63.9522 34.6819 64.126 34.8914C64.3028 35.0805 64.5318 35.212 64.7834 35.2689C64.9135 35.3032 65.0457 35.3286 65.1792 35.3448C65.3206 35.3614 65.4738 35.3733 65.6387 35.3828C65.8036 35.3923 65.9803 35.3947 66.1665 35.397H67.2032C67.3493 35.397 67.4906 35.397 67.625 35.3733C67.7529 35.3599 67.8797 35.3369 68.0043 35.3045C68.1181 35.2761 68.2275 35.2322 68.3294 35.1739C68.4254 35.1174 68.5115 35.0452 68.5839 34.9603C68.6611 34.8668 68.7187 34.7586 68.7536 34.6422C68.8502 34.7537 68.9491 34.8558 69.0457 34.9484C69.1404 35.0398 69.2456 35.1195 69.3591 35.1858C69.4762 35.2518 69.6013 35.3021 69.7314 35.3353C69.8619 35.366 69.9955 35.3819 70.1296 35.3828H71.3901C71.5226 35.382 71.6541 35.3588 71.7789 35.314C71.9143 35.2673 72.0386 35.193 72.1441 35.0956Z" fill="#B48E3A"/>
</svg>
