<svg width="134" height="37" viewBox="0 0 134 37" fill="none" xmlns="http://www.w3.org/2000/svg">
<path d="M50.1627 16.3873C49.5958 15.8733 48.8819 15.5495 48.1211 15.4613C47.3604 15.373 46.591 15.5249 45.9212 15.8954C45.7881 15.9692 45.6747 16.0332 45.6747 16.2201C45.6871 16.5988 45.6747 16.98 45.6747 17.4276C46.1307 17.2112 46.5028 16.9972 46.9464 16.9652C47.5564 16.9131 48.1654 17.076 48.6675 17.4256C49.1695 17.7752 49.5329 18.2893 49.6944 18.8786C49.9647 19.8936 50.011 20.9551 49.83 21.9897C49.7538 22.5307 49.5712 23.0514 49.2927 23.5218C49.0915 23.895 48.7895 24.2043 48.4209 24.4148C48.0523 24.6252 47.632 24.7282 47.2077 24.7121C46.7685 24.7236 46.3351 24.6096 45.9587 24.3834C45.5823 24.1573 45.2786 23.8285 45.0832 23.4357C44.7458 22.7771 44.5764 22.0456 44.5903 21.306C44.578 20.3763 44.578 19.4467 44.578 18.5195C44.578 16.4537 44.578 14.3895 44.578 12.3269C44.6017 12.1569 44.5865 11.9837 44.5336 11.8203H42.9958C42.8528 11.8203 42.769 11.8597 42.7814 12.0195C42.7814 12.1081 42.7814 12.1941 42.7814 12.2851V25.7352C42.7814 25.809 42.7814 25.8852 42.7814 25.9566C42.769 26.1189 42.8282 26.2025 43.0032 26.2025C43.3728 26.2025 43.7425 26.2025 44.1122 26.2025C44.2724 26.2025 44.3069 26.1336 44.3069 25.991C44.3069 25.6368 44.3069 25.2802 44.3069 24.9286C44.3069 24.84 44.2404 24.7171 44.4079 24.658C44.5312 24.8105 44.6544 24.9728 44.7924 25.1253C45.033 25.4175 45.329 25.6595 45.6636 25.8371C45.9982 26.0148 46.3646 26.1248 46.7419 26.1607C47.6443 26.2826 48.5619 26.1044 49.3527 25.6536C50.1435 25.2028 50.7633 24.5046 51.1165 23.6669C51.8031 22.1635 51.9501 20.4701 51.533 18.8712C51.3341 17.9256 50.857 17.0608 50.1627 16.3873Z" fill="#040404"/>
<path d="M28.61 16.6751C28.0613 16.0482 27.3139 15.6278 26.4923 15.4842C25.6707 15.3405 24.8245 15.4822 24.0949 15.8856C23.9643 15.9594 23.8485 16.0233 23.8485 16.2103C23.8608 16.589 23.8485 16.9702 23.8485 17.4153C24.3044 17.1989 24.6766 16.9849 25.1202 16.9628C25.7389 16.9147 26.3549 17.0855 26.8601 17.4453C27.3652 17.805 27.7274 18.3308 27.883 18.9303C28.1271 19.9201 28.169 20.9489 28.0062 21.9553C27.9305 22.5866 27.7002 23.1896 27.3358 23.7112C27.1653 23.9715 26.9409 24.1924 26.6778 24.3591C26.4147 24.5258 26.1189 24.6345 25.8103 24.6777C25.2531 24.7859 24.6756 24.6922 24.1815 24.4137C23.6873 24.1351 23.3088 23.6898 23.114 23.1579C22.8658 22.5502 22.7458 21.898 22.7616 21.2421V12.3565C22.7542 12.2689 22.7542 12.1809 22.7616 12.0933C22.801 11.8474 22.6729 11.7982 22.4585 11.8056C22.1184 11.8179 21.7782 11.8056 21.4381 11.8056C20.8959 11.8056 20.9797 11.7441 20.9797 12.2827C20.9797 16.6029 20.9797 20.9223 20.9797 25.2409C20.9797 25.5336 20.854 25.9123 21.029 26.0968C21.204 26.2812 21.6131 26.1607 21.9187 26.1656C22.4905 26.1779 22.4782 26.1656 22.4905 25.5754C22.462 25.2578 22.4753 24.9378 22.5299 24.6236C22.7074 24.6999 22.7591 24.8474 22.8503 24.9581C23.0891 25.2785 23.3895 25.5481 23.734 25.7512C24.0785 25.9543 24.4601 26.0869 24.8565 26.141C25.4336 26.2158 26.0198 26.1765 26.5817 26.0255C27.9742 25.6418 28.8639 24.7023 29.3962 23.4186C29.9143 22.1553 30.0638 20.7715 29.8275 19.4271C29.687 18.4143 29.2653 17.461 28.61 16.6751Z" fill="#040404"/>
<path d="M10.6483 24.7146C10.5177 24.5842 10.3131 24.7146 10.1431 24.7146C9.60087 24.7146 9.37906 24.5424 9.3273 24.0112C9.3273 23.8784 9.31498 23.7456 9.3273 23.6128V18.4851C9.33974 18.1759 9.30989 17.8664 9.23858 17.5653C9.12918 17.1887 8.93577 16.8418 8.67284 16.5504C8.40991 16.2591 8.0843 16.0309 7.72041 15.8831C6.73999 15.4549 5.65609 15.3199 4.60029 15.4945C3.99295 15.5659 3.40757 15.7646 2.88249 16.0774C2.49543 16.2967 2.16675 16.6054 1.92402 16.9777C1.6813 17.35 1.53162 17.775 1.48755 18.217C1.40868 18.8515 1.41608 18.8515 2.04208 18.8515C2.11601 18.8515 2.18995 18.8515 2.26389 18.8515C2.51034 18.8515 2.81348 18.945 3.00325 18.8023C3.1462 18.6916 3.15359 18.4064 3.2226 18.1973C3.23985 18.1432 3.2571 18.0866 3.27928 18.0301C3.36781 17.7703 3.52526 17.5394 3.73487 17.3618C3.94449 17.1843 4.19843 17.0667 4.46966 17.0218C5.18197 16.8813 5.9165 16.899 6.62122 17.0734C6.91297 17.1399 7.17503 17.2995 7.36762 17.5281C7.56021 17.7567 7.67282 18.0417 7.68837 18.34C7.68837 18.4703 7.70316 18.6031 7.70316 18.7359C7.70316 19.9287 7.70316 21.1239 7.70316 22.3167C7.71409 22.5974 7.66301 22.8771 7.55355 23.1359C7.4441 23.3948 7.27893 23.6264 7.06977 23.8144C6.64751 24.2203 6.12859 24.512 5.56198 24.6622C4.99536 24.8124 4.39975 24.816 3.83135 24.6727C3.17084 24.5276 2.84552 24.0702 2.74694 23.4283C2.64836 22.7864 2.81841 22.2282 3.40498 21.8617C3.71134 21.6835 4.04408 21.5548 4.3908 21.4805C4.93864 21.3631 5.49349 21.2809 6.05191 21.2346C6.22936 21.2125 6.32054 21.1682 6.29836 20.9714C6.30913 20.5866 6.29679 20.2014 6.2614 19.818C5.24846 19.9287 4.24539 19.9852 3.27189 20.2459C1.88681 20.6148 1.12033 21.51 0.960136 22.9291C0.85203 23.6453 1.02518 24.3756 1.44348 24.9676C1.86178 25.5596 2.49294 25.9676 3.20535 26.1065C3.68496 26.1924 4.17356 26.2172 4.65944 26.1803C5.53902 26.1689 6.38741 25.8534 7.05991 25.2876C7.28665 25.1031 7.50846 24.9113 7.75492 24.7023C7.87322 24.8351 7.84611 24.9605 7.87814 25.0638C7.94299 25.307 8.074 25.5277 8.25668 25.7013C8.43936 25.8749 8.66659 25.9947 8.91326 26.0475C9.3026 26.1433 9.70852 26.1509 10.1012 26.0696C10.6187 25.9639 10.6877 25.868 10.6877 25.3318V25.2433C10.6853 25.0515 10.7789 24.8424 10.6483 24.7146Z" fill="#040404"/>
<path d="M41.1174 24.6974C40.9853 24.6665 40.8478 24.6665 40.7156 24.6974C40.0576 24.7515 39.8111 24.5351 39.7914 23.8883V18.2908C39.8014 17.8399 39.6869 17.3949 39.4604 17.0045C39.234 16.6141 38.9043 16.2934 38.5074 16.0774C38.2835 15.9333 38.0447 15.8137 37.7951 15.7208C36.9374 15.4335 36.0244 15.3493 35.1285 15.4749C34.4794 15.5409 33.854 15.7537 33.2998 16.0971C32.8743 16.3555 32.5259 16.7228 32.2906 17.1609C32.0553 17.5989 31.9417 18.0918 31.9615 18.5884C31.9615 18.7827 32.0281 18.8343 32.208 18.8343C32.3879 18.8343 32.6516 18.8343 32.8734 18.8343C33.0952 18.8343 33.3096 18.913 33.4748 18.7876C33.6399 18.6622 33.5807 18.4335 33.6596 18.2589C33.6895 18.1914 33.7158 18.1225 33.7385 18.0523C33.8236 17.7752 33.9865 17.5283 34.208 17.3409C34.4295 17.1534 34.7002 17.0333 34.988 16.9948C35.6743 16.8724 36.3787 16.895 37.0558 17.0612C37.3258 17.1167 37.5728 17.2519 37.7649 17.4492C37.9569 17.6465 38.0851 17.8969 38.1328 18.1679C38.1733 18.3545 38.1931 18.545 38.1919 18.736C38.1919 19.9312 38.1919 21.1256 38.1919 22.3192C38.1999 22.5786 38.1548 22.8369 38.0595 23.0783C37.9642 23.3197 37.8205 23.5393 37.6374 23.7235C37.2059 24.1735 36.6596 24.4976 36.0573 24.661C35.455 24.8244 34.8195 24.8208 34.2191 24.6507C33.9717 24.5922 33.7474 24.4611 33.5753 24.2744C33.4031 24.0877 33.2909 23.8539 33.253 23.603C33.041 22.6611 33.3786 22.0241 34.2733 21.6626C34.7455 21.4924 35.236 21.3777 35.7348 21.3207C36.0844 21.3057 36.431 21.2496 36.7674 21.1535C36.7966 20.7878 36.8048 20.4208 36.7921 20.0542V20.0124C36.7921 19.8623 36.7502 19.7984 36.585 19.8205C35.752 19.9337 34.9116 19.9829 34.086 20.1599C33.485 20.2631 32.9202 20.517 32.4446 20.8977C31.6781 21.5519 31.4169 22.4127 31.4366 23.389C31.4637 24.7343 32.2918 25.8164 33.6202 26.0795C35.1309 26.3796 36.5629 26.2099 37.7606 25.0958C37.9159 24.9556 38.081 24.8204 38.2535 24.663C38.3004 24.845 38.3299 24.9728 38.3718 25.0983C38.4536 25.3689 38.6161 25.6083 38.8376 25.7844C39.3306 26.1582 40.4199 26.2296 40.9547 25.9246C41.0631 25.8631 41.1519 25.7992 41.1445 25.6565C41.1615 25.3366 41.1525 25.0158 41.1174 24.6974Z" fill="#040404"/>
<path d="M62.9338 24.685C62.8501 24.685 62.7761 24.685 62.6874 24.685C61.7829 24.7785 61.5882 24.5989 61.5882 23.6791V18.5145C61.5996 18.2754 61.5881 18.0358 61.5537 17.7989C61.3615 16.8151 60.7256 16.1954 59.8285 15.8314C58.8895 15.461 57.8677 15.3506 56.8711 15.5117C56.2518 15.5794 55.6547 15.7808 55.1212 16.1019C54.6947 16.3536 54.3429 16.7141 54.1021 17.1463C53.8613 17.5785 53.7401 18.0669 53.7509 18.5613C53.7509 18.8072 53.8298 18.8687 54.0541 18.849C54.2784 18.8293 54.4386 18.849 54.6308 18.849C54.823 18.849 55.0991 18.9302 55.2765 18.7998C55.454 18.6695 55.38 18.4432 55.4589 18.2686C55.4885 18.2022 55.5106 18.1309 55.5353 18.062C55.6257 17.7786 55.796 17.5271 56.0259 17.3378C56.2559 17.1485 56.5356 17.0294 56.8316 16.9947C57.4158 16.8975 58.0121 16.8975 58.5962 16.9947C59.5328 17.1594 59.9764 17.6857 59.9863 18.6449C60.0035 19.8745 59.9863 21.1214 59.9863 22.3585C59.9893 22.6179 59.9389 22.8751 59.8379 23.1142C59.737 23.3532 59.5878 23.569 59.3997 23.748C58.9777 24.1756 58.4504 24.485 57.8708 24.6451C57.2911 24.8053 56.6795 24.8105 56.0972 24.6604C55.8176 24.6092 55.5623 24.4684 55.3702 24.2594C55.1781 24.0503 55.0595 23.7844 55.0325 23.5021C54.9216 22.8282 55.0325 22.238 55.6782 21.8494C55.9847 21.6719 56.3174 21.5441 56.664 21.4706C57.2275 21.354 57.7968 21.2678 58.3695 21.2124C58.473 21.1977 58.5864 21.2124 58.5864 21.0575C58.5864 20.6394 58.6012 20.2188 58.5864 19.8008C58.2586 19.8327 57.9949 19.8524 57.7312 19.8844C57.0253 19.9462 56.3246 20.0563 55.6339 20.2139C54.0393 20.6369 53.2359 21.6895 53.2482 23.3299C53.2605 24.7194 54.1009 25.8114 55.4663 26.0745C56.9623 26.3598 58.3818 26.1852 59.5624 25.0908C59.7176 24.9481 59.8827 24.8153 60.0553 24.6604C60.1046 24.8424 60.1341 24.9703 60.1785 25.0957C60.2597 25.3653 60.4213 25.6038 60.6418 25.7794C61.1347 26.1532 62.2265 26.2245 62.7613 25.9196C62.8698 25.8581 62.956 25.7917 62.9486 25.6491C62.9704 25.3278 62.9655 25.0054 62.9338 24.685Z" fill="#040404"/>
<path d="M12.7925 11.808C12.2454 11.808 12.3243 11.7588 12.3243 12.2802V25.6688C12.3243 25.7598 12.3243 25.8459 12.3243 25.9344C12.307 26.109 12.3834 26.168 12.5535 26.168C13.0119 26.168 13.4678 26.168 13.9262 26.168C14.1061 26.168 14.1727 26.0918 14.148 25.9221C14.148 25.8483 14.148 25.7746 14.148 25.7008V12.2335C14.1674 12.091 14.1522 11.9459 14.1037 11.8105L12.7925 11.808Z" fill="#040404"/>
<path d="M79.4461 15.4208C79.4461 15.0937 79.3524 15.0174 79.0049 15.0174C78.3649 15.0118 77.7412 15.2195 77.2329 15.6077C76.8596 15.8977 76.5344 16.2446 76.2693 16.6357C76.1929 16.739 76.1559 16.8816 75.9587 16.9603C75.9587 16.5029 75.9587 16.0922 75.9587 15.6839C75.9587 15.4872 75.8897 15.438 75.7123 15.438C75.3722 15.438 75.0321 15.438 74.692 15.438C74.199 15.438 74.273 15.3937 74.273 15.8659V25.8065C74.273 26.1681 74.273 26.173 74.6205 26.173H75.4165C76.0869 26.173 76.0869 26.173 76.0869 25.504C76.0869 23.5882 76.0869 21.6749 76.0869 19.759C76.0869 18.3007 76.91 17.2776 78.268 16.9923C78.5741 16.9411 78.885 16.9254 79.1947 16.9456C79.3795 16.9456 79.4609 16.8964 79.4559 16.6996C79.4461 16.2742 79.4609 15.8487 79.4461 15.4208Z" fill="#040404"/>
<path d="M18.4533 15.4625H16.6641V26.1557H18.4533V15.4625Z" fill="#040404"/>
<path d="M71.5895 15.4381H70.1281C69.9999 15.4381 69.9383 15.4898 69.9457 15.6201C69.9531 15.7504 69.9457 15.8267 69.9457 15.93V25.7821C69.9457 26.2051 69.8989 26.178 70.3548 26.178C70.7097 26.178 71.0621 26.178 71.417 26.178C71.7719 26.178 71.7769 26.178 71.7769 25.8165V20.8265V17.8753V15.7013C71.7818 15.5635 71.8064 15.4381 71.5895 15.4381Z" fill="#040404"/>
<path d="M67.2316 24.208C66.7165 24.208 66.199 24.208 65.6839 24.208C65.5286 24.208 65.4744 24.2646 65.4793 24.4146C65.4793 24.6605 65.4793 24.9065 65.4793 25.1524C65.4793 25.3983 65.4793 25.6812 65.4793 25.9443C65.4793 26.0796 65.499 26.1632 65.6666 26.1632C66.199 26.1632 66.7288 26.1632 67.2612 26.1632C67.3893 26.1632 67.446 26.1189 67.446 25.9837C67.446 25.4549 67.446 24.9212 67.446 24.3949C67.4485 24.2498 67.3696 24.208 67.2316 24.208Z" fill="#040404"/>
<path d="M71.5823 12C71.1004 12 70.6163 12 70.1345 12C69.9893 12 69.9385 12.0532 69.9432 12.1944C69.9432 12.4259 69.9432 12.6573 69.9432 12.8888C69.9432 13.1202 69.9432 13.3864 69.9432 13.634C69.9432 13.7613 69.9616 13.84 70.1184 13.84C70.6163 13.84 71.112 13.84 71.6099 13.84C71.7298 13.84 71.7828 13.7983 71.7828 13.671C71.7828 13.1734 71.7828 12.6712 71.7828 12.1759C71.7851 12.0393 71.7114 12 71.5823 12Z" fill="#040404"/>
<path d="M124.611 7.97632C124.611 8.15831 124.631 8.33784 124.631 8.51737C124.631 15.4379 124.631 22.3577 124.631 29.2766C124.609 29.4548 124.624 29.6357 124.675 29.8078C125.613 29.4655 126.581 29.2095 127.566 29.043C128.571 28.8791 129.593 28.8427 130.607 28.9348C131.618 29.0324 132.609 29.2751 133.55 29.6553C132.949 30.8583 132.078 31.9075 131.007 32.7221L130.467 32.4049C128.87 31.5152 127.131 30.9094 125.326 30.6145C125.114 30.5751 124.853 30.4202 124.69 30.5678C124.527 30.7153 124.641 30.9908 124.636 31.2096C124.604 32.5992 124.697 33.9911 124.577 35.3905C124.517 35.5159 124.466 35.6364 124.402 35.7668C124.233 36.1216 123.971 36.4238 123.643 36.6405C123.315 36.8572 122.934 36.9803 122.541 36.9965C122.415 36.9965 122.294 36.9965 122.164 36.9965H94.0309C93.6817 37.0144 93.3325 36.9634 93.0031 36.8464C92.5794 36.6766 92.2177 36.3816 91.9666 36.001C91.7156 35.6203 91.5871 35.1722 91.5983 34.7166C91.5983 33.6985 91.5983 32.6828 91.5983 31.6646V26.3156C91.4603 26.2541 91.3765 26.3525 91.2853 26.3967C90.5735 26.7433 89.8309 27.0232 89.0672 27.2329C88.9662 27.2822 88.851 27.2944 88.7419 27.2673C88.6778 27.0903 88.8528 27.0411 88.9292 26.9501C89.84 25.9143 90.6404 24.7868 91.3174 23.5857C91.8302 22.708 92.1879 21.7488 92.3747 20.7501C92.3919 20.6517 92.4067 20.5558 92.4141 20.4599C92.4129 20.3971 92.4063 20.3346 92.3944 20.273C91.4092 21.4089 90.1858 22.3148 88.8109 22.9266C87.4409 23.5374 85.9566 23.8509 84.4561 23.8464C84.6113 23.6669 84.7025 23.5439 84.8183 23.4185C87.6254 20.0664 89.5493 16.0679 90.4154 11.7858C90.6494 10.6687 90.7928 9.53454 90.8442 8.3944C90.8442 8.25668 90.8812 8.12142 90.8984 7.9837H104.648C104.717 7.98494 104.787 7.98987 104.855 7.99845C104.88 9.33426 104.815 10.6702 104.66 11.9973C104.455 13.9727 104.028 15.9188 103.386 17.7989C102.696 19.7664 101.747 21.6059 100.313 23.1553C99.1256 24.4814 97.5976 25.4586 95.8941 25.9811L95.8374 25.9172C96.474 25.0296 96.8185 23.9665 96.8232 22.875C96.8672 21.7718 96.6948 20.6707 96.3155 19.6336C96.2964 19.6645 96.2791 19.6965 96.2637 19.7295L96.2416 19.8524C96.0441 21.0423 95.6027 22.1786 94.945 23.1904C94.2872 24.2023 93.4273 25.0677 92.419 25.7327C92.344 25.7801 92.284 25.8478 92.246 25.9279C92.208 26.008 92.1937 26.0973 92.2046 26.1852C92.2046 27.3559 92.2046 28.5265 92.2046 29.6947C92.2046 30.2874 92.1455 30.1866 92.7222 30.1866H123.487C124.025 30.1866 124.025 30.1866 124.025 29.6652V7.99599L124.611 7.97632Z" fill="#010101"/>
<path d="M104.855 7.99607C104.787 7.98749 104.717 7.98256 104.648 7.98132H90.8985C90.8579 7.76303 90.8529 7.53963 90.8837 7.31976C90.8837 5.73349 90.8837 4.14722 90.8837 2.56095C90.8775 1.98473 91.0678 1.42355 91.4234 0.969513C91.779 0.515474 92.2787 0.195553 92.8405 0.0622627C93.0835 0.0114166 93.3319 -0.00841685 93.5799 0.00323874H121.915C122.163 -0.00647904 122.411 0.0141693 122.654 0.0647221C123.204 0.190574 123.696 0.495193 124.053 0.930628C124.41 1.36606 124.611 1.90758 124.626 2.46995C124.656 4.25051 124.638 6.03352 124.638 7.81408C124.631 7.86883 124.62 7.92305 124.606 7.9764L124.022 7.99607C123.884 7.99607 123.746 7.97886 123.606 7.97886H105.269C105.134 7.97886 104.988 7.98869 104.855 7.99607Z" fill="#FBB714"/>
<path d="M124.58 35.3807C124.7 33.9912 124.609 32.5992 124.641 31.1999C124.641 30.981 124.54 30.708 124.695 30.558C124.851 30.408 125.117 30.558 125.331 30.6047C127.136 30.8997 128.876 31.5064 130.472 32.3976L131.012 32.7124C131.656 33.1753 132.247 33.7063 132.777 34.2962C133.147 34.7303 133.465 35.2066 133.723 35.7152C133.878 36.0251 133.876 36.0398 133.568 36.1776C132.356 36.7143 131.044 36.9868 129.718 36.9766C128.392 36.9664 127.084 36.6739 125.881 36.1185C125.433 35.8985 124.998 35.6521 124.58 35.3807Z" fill="#FBB714"/>
<path d="M104.855 7.9961C104.996 7.9961 105.134 7.97888 105.274 7.97888H123.611C123.751 7.97888 123.889 7.97888 124.03 7.9961V29.6776C124.03 30.1965 124.03 30.1965 123.492 30.1965H92.7249C92.1457 30.1965 92.2073 30.2875 92.2073 29.7046C92.2073 28.534 92.2073 27.3634 92.2073 26.1952C92.1962 26.1069 92.2104 26.0172 92.2484 25.9366C92.2863 25.8561 92.3464 25.788 92.4217 25.7402C93.435 25.0795 94.2997 24.2159 94.9607 23.204C95.6217 22.1921 96.0647 21.0542 96.2615 19.8624L96.2837 19.7394C96.2984 19.7054 96.3157 19.6725 96.3354 19.641C96.7135 20.6793 96.886 21.781 96.8431 22.8849C96.837 23.9754 96.4926 25.0373 95.8573 25.9246C95.8228 25.9394 95.771 25.9542 95.8055 25.9984C95.8401 26.0427 95.8795 26.0132 95.914 25.9984C97.6161 25.4767 99.1437 24.5024 100.333 23.18C101.77 21.6306 102.716 19.7984 103.406 17.8236C104.044 15.9341 104.467 13.9789 104.666 11.995C104.819 10.6678 104.882 9.3318 104.855 7.9961ZM111.411 16.0775C111.397 16.198 111.415 16.3201 111.463 16.4316C111.712 17.2286 112.249 17.9049 112.969 18.3296C113.69 18.7544 114.542 18.8973 115.362 18.7308C116.182 18.5643 116.911 18.1002 117.407 17.4283C117.904 16.7564 118.133 15.9246 118.051 15.0937C118.016 14.7076 118.014 14.7052 117.627 14.7863L112.917 15.7479C112.404 15.8586 111.904 15.9693 111.411 16.0775ZM120.284 13.4411C120.263 13.3983 120.233 13.3602 120.197 13.3289C120.161 13.2977 120.119 13.2739 120.074 13.2591C119.477 12.9763 118.799 12.9119 118.159 13.0771C116.348 13.4657 114.534 13.8346 112.72 14.2182C112.607 14.2495 112.488 14.2526 112.374 14.2273C112.26 14.202 112.153 14.149 112.064 14.0731C111.64 13.7362 111.189 13.4288 110.751 13.1091C110.682 13.0599 110.61 13.0156 110.546 12.964C110.408 12.8557 110.27 12.932 110.152 12.9861C110.033 13.0402 110.112 13.1779 110.13 13.2763C110.166 13.469 110.25 13.6493 110.376 13.8001C110.539 14.0092 110.684 14.2305 110.844 14.442C110.895 14.5251 110.929 14.6177 110.942 14.7141C110.956 14.8104 110.951 14.9086 110.926 15.0027C110.911 15.1528 110.679 15.0347 110.625 15.1626C110.741 15.7061 110.696 15.6889 111.315 15.6545C111.371 15.6452 111.426 15.632 111.48 15.6151L119.202 14.1616C119.426 14.1303 119.64 14.049 119.828 13.9239C120.016 13.7987 120.173 13.6328 120.288 13.4386L120.284 13.4411ZM114.122 24.8917C114.033 24.7515 113.942 24.6286 113.876 24.4958C113.78 24.3089 113.674 24.3162 113.511 24.422C113.11 24.673 112.686 24.8847 112.244 25.054C111.235 25.4978 110.142 25.7184 109.04 25.7008C107.83 25.6541 106.615 25.7008 105.403 25.7008C105.124 25.7008 104.843 25.7008 104.567 25.7008C104.36 25.7008 104.284 25.7672 104.321 25.964C104.323 26.0058 104.323 26.0476 104.321 26.0894C104.321 26.4682 104.281 26.4534 104.675 26.4534H109.903C110.042 26.4562 110.18 26.4455 110.317 26.4214C111.399 26.2172 112.445 25.8568 113.422 25.3516C113.679 25.235 113.918 25.0844 114.134 24.904L114.122 24.8917Z" fill="#FEFEFE"/>
<path d="M111.411 16.0774C111.904 15.9717 112.397 15.861 112.905 15.7577C114.475 15.4298 116.045 15.1093 117.614 14.7961C118.006 14.7174 118.006 14.7174 118.038 15.1035C118.101 15.9234 117.861 16.738 117.364 17.3939C116.867 18.0499 116.147 18.502 115.34 18.6652C114.532 18.8284 113.692 18.6914 112.979 18.28C112.265 17.8687 111.727 17.2113 111.465 16.4316C111.415 16.3207 111.396 16.1982 111.411 16.0774Z" fill="#040404"/>
<path d="M120.288 13.4386C120.171 13.63 120.013 13.7931 119.825 13.9161C119.637 14.039 119.424 14.1187 119.201 14.1493C116.627 14.6297 114.052 15.1142 111.477 15.6028C111.424 15.6188 111.37 15.6319 111.315 15.6421C110.696 15.6888 110.741 15.7061 110.625 15.1503C110.689 15.0199 110.911 15.1503 110.925 14.9904C110.95 14.8962 110.955 14.7982 110.941 14.7019C110.927 14.6057 110.894 14.5132 110.844 14.4297C110.684 14.2182 110.538 13.9968 110.376 13.7878C110.25 13.637 110.165 13.4567 110.129 13.2639C110.112 13.1631 110.013 13.0377 110.152 12.9737C110.29 12.9098 110.398 12.8434 110.546 12.9516C110.61 13.0033 110.681 13.0475 110.75 13.0967C111.189 13.4164 111.638 13.7238 112.064 14.0608C112.153 14.1361 112.26 14.1887 112.374 14.214C112.488 14.2393 112.607 14.2365 112.72 14.2059C114.531 13.8198 116.347 13.4509 118.159 13.0647C118.799 12.8995 119.477 12.9639 120.074 13.2467C120.121 13.2613 120.165 13.2859 120.202 13.3191C120.239 13.3522 120.269 13.393 120.288 13.4386Z" fill="#080808"/>
<path d="M114.122 24.8893C113.906 25.0686 113.667 25.2183 113.412 25.3344C112.433 25.84 111.387 26.2011 110.304 26.4067C110.168 26.4316 110.029 26.4432 109.89 26.4411H104.663C104.268 26.4411 104.313 26.4534 104.308 26.0747C104.31 26.0329 104.31 25.991 104.308 25.9492C104.283 25.7525 104.357 25.6738 104.554 25.6861C104.833 25.7008 105.111 25.6861 105.39 25.6861C106.602 25.6861 107.817 25.6467 109.027 25.6984C110.129 25.7139 111.222 25.4933 112.231 25.0516C112.673 24.8804 113.098 24.6679 113.501 24.4171C113.663 24.3113 113.767 24.3039 113.863 24.4908C113.942 24.6261 114.033 24.7491 114.122 24.8893Z" fill="#080808"/>
<path d="M95.8966 25.9811C95.8621 26.0057 95.8153 26.0254 95.7882 25.9811C95.7611 25.9369 95.8054 25.9196 95.8399 25.9073L95.8966 25.9811Z" fill="#010101"/>
</svg>
