<svg width="119" height="37" viewBox="0 0 119 37" fill="none" xmlns="http://www.w3.org/2000/svg">
<path d="M20.0641 27.4618L18.4234 25.829L16.7661 27.4877L18.4399 29.1464L20.0641 27.53L21.7049 29.1629L23.3621 27.5042L21.6883 25.8478L20.0641 27.4618Z" fill="#1B89C0"/>
<path d="M32.0835 25.2013L30.166 27.1095L32.0835 29.0177L34.0009 27.1095L32.0835 25.2013Z" fill="#1B89C0"/>
<path d="M35.4762 20.5023C35.4738 20.1027 35.4342 19.7041 35.358 19.3118C35.2796 18.8893 35.1778 18.4714 35.053 18.0601C34.9254 17.6436 34.7835 17.2296 34.6251 16.8225C34.4667 16.4155 34.306 16.032 34.1523 15.672L31.6936 16.9025C31.8654 17.2288 32.0348 17.5754 32.2019 17.9425C32.3697 18.3071 32.5187 18.6483 32.651 18.9941C32.7834 19.34 32.8875 19.6341 32.9702 19.9094C33.037 20.1096 33.0775 20.3176 33.0908 20.5282C33.1003 20.688 33.077 20.8481 33.0222 20.9987C32.952 21.1553 32.8325 21.285 32.6818 21.3681C32.5118 21.4651 32.3287 21.5372 32.138 21.5822C31.9225 21.6361 31.7025 21.6707 31.4808 21.6857C31.2444 21.7046 31.0245 21.7116 30.8117 21.7116H29.5942C29.3846 21.7243 29.1749 21.688 28.9819 21.6057C28.861 21.5437 28.7571 21.4532 28.6793 21.3422C28.601 21.2163 28.548 21.0765 28.5232 20.9305C28.5018 20.8108 28.4899 20.6897 28.4878 20.5682C28.4878 20.1564 28.4878 19.7353 28.4878 19.3071C28.4878 18.8789 28.5019 18.4648 28.5138 18.0695C28.5311 17.2852 28.5398 16.501 28.5398 15.7167C28.5398 15.2203 28.5398 14.7238 28.5398 14.2321C28.5398 13.7404 28.5256 13.2604 28.5114 12.7969C28.4972 12.3334 28.4759 11.8864 28.4499 11.4605C28.4239 11.0347 28.3885 10.6371 28.3412 10.27L25.6579 10.7594C25.7028 11.4652 25.7335 12.2181 25.7477 12.9851C25.7619 13.7521 25.7737 14.5968 25.7855 15.5191C25.7981 16.5292 25.8155 17.4115 25.8375 18.166C25.8612 18.9236 25.8659 19.5447 25.8564 20.0317C25.855 20.2545 25.82 20.4758 25.7524 20.6882C25.688 20.8969 25.5915 21.0946 25.4664 21.274C25.3543 21.4335 25.2071 21.5655 25.0361 21.6599C24.8687 21.7491 24.6735 21.7718 24.49 21.7234H23.8918C23.7285 21.7308 23.5682 21.677 23.4426 21.5728C23.3241 21.468 23.2311 21.3376 23.1708 21.1916C23.1024 21.0288 23.0547 20.8581 23.0289 20.6834C23.0005 20.4999 22.9793 20.3235 22.9674 20.1517C22.9281 19.6525 22.8594 19.156 22.7618 18.6648C22.6919 18.2931 22.5906 17.9279 22.4592 17.5731L19.946 18.2789C20.0453 18.6271 20.121 18.8977 20.1825 19.0906C20.2439 19.2835 20.2794 19.4365 20.3078 19.5612C20.3336 19.6597 20.3494 19.7606 20.355 19.8623C20.355 19.9447 20.355 20.0505 20.355 20.1752C20.3596 20.4714 20.2573 20.7595 20.0666 20.987C19.8724 21.1992 19.6289 21.3607 19.3574 21.4575C19.0305 21.5774 18.6883 21.6511 18.3408 21.6763C17.9601 21.7116 17.5606 21.7281 17.1469 21.7281H14.8844C15.1914 21.3063 15.4307 20.8396 15.5936 20.3446C15.7648 19.7853 15.8446 19.2022 15.83 18.6177C15.7735 18.1177 15.6064 17.6364 15.3407 17.2084C15.1089 16.8077 14.8014 16.4553 14.4352 16.1708C14.0704 15.8943 13.66 15.6834 13.2224 15.5473C12.7854 15.409 12.3285 15.3438 11.8701 15.3544C11.472 15.361 11.0757 15.4099 10.688 15.5003C10.3493 15.5807 10.0203 15.6975 9.70687 15.8485C9.40898 15.995 9.1256 16.1691 8.8605 16.3684C8.59335 16.5708 8.32147 16.7896 8.04486 17.0296C8.04486 16.5331 8.01177 16.0249 7.9834 15.5097C7.95503 14.9944 7.91956 14.4862 7.87937 13.9898C7.83918 13.4933 7.79662 13.004 7.75171 12.5334C7.70679 12.0628 7.6595 11.6182 7.61222 11.2041L7.51766 10.2935L4.78941 11.0159C4.80833 11.0958 4.83197 11.277 4.8627 11.557C4.89343 11.837 4.93126 12.1781 4.97145 12.5805C5.01164 12.9828 5.04947 13.418 5.0873 13.891C5.12513 14.3639 5.16059 14.8321 5.19605 15.2909C5.23151 15.7497 5.25752 16.1849 5.2788 16.592C5.30007 16.999 5.30716 17.3354 5.30716 17.5989C5.30716 17.7919 5.30716 17.9824 5.30716 18.166C5.30716 18.3495 5.28589 18.5377 5.2717 18.733C5.25752 18.9283 5.23861 19.1306 5.2126 19.3471C5.18659 19.5635 5.15586 19.7964 5.1204 20.0529C4.92654 20.3117 4.76104 20.5305 4.62392 20.7093L4.24565 21.2081C3.96905 21.1281 3.63807 21.0222 3.25271 20.8881C2.86735 20.754 2.43235 20.594 1.95006 20.4176L0.959473 22.9421C1.548 23.2277 2.15542 23.4729 2.77751 23.6762C3.35605 23.8663 3.94687 24.0173 4.5459 24.1279C5.13993 24.2398 5.73979 24.3183 6.34267 24.3632C6.95105 24.4056 7.58149 24.4267 8.234 24.4267C8.47041 24.4267 8.73283 24.4267 9.00707 24.4267C9.28132 24.4267 9.55793 24.4267 9.84399 24.4032C10.1301 24.3797 10.4138 24.3608 10.6998 24.3256C10.9771 24.2888 11.2518 24.2354 11.5225 24.1656C11.7613 24.2384 12.0056 24.2919 12.2531 24.3256C12.5194 24.3616 12.7842 24.3875 13.0474 24.4032C13.3098 24.4173 13.5534 24.4244 13.778 24.4267C14.0025 24.4291 14.1775 24.4267 14.3028 24.4267H17.128C17.5181 24.4267 17.9152 24.4126 18.3101 24.3797C18.7068 24.3507 19.1014 24.2988 19.4921 24.2244C19.8568 24.1572 20.2163 24.0645 20.5678 23.9468C20.8828 23.8415 21.1831 23.6968 21.4615 23.5162C21.7565 23.7953 22.1002 24.0186 22.4757 24.175C22.9179 24.3491 23.3903 24.4347 23.8658 24.4267H24.8966C25.3177 24.4144 25.7332 24.3276 26.1236 24.1703C26.5279 24.009 26.8996 23.7762 27.2206 23.4833C27.5164 23.7652 27.8576 23.9958 28.2301 24.1656C28.6318 24.3452 29.0687 24.4337 29.5091 24.4244H30.7952C31.0718 24.4244 31.3673 24.4244 31.6841 24.3961C32.0203 24.3715 32.3531 24.3124 32.6771 24.2197C33.2307 24.0704 33.7458 23.8048 34.1877 23.4409C34.6171 23.0769 34.9568 22.6197 35.1807 22.1045C35.3895 21.5965 35.4902 21.051 35.4762 20.5023ZM13.2295 19.9847C12.9201 20.3499 12.5418 20.6513 12.1159 20.8717C11.5564 21.1674 10.9614 21.3911 10.3452 21.5375C9.58035 21.7198 8.79583 21.8075 8.0094 21.7987C7.825 21.7987 7.62404 21.7987 7.40654 21.7987C7.18904 21.7987 6.97626 21.7751 6.77531 21.7587C7.12946 21.23 7.53232 20.7354 7.97867 20.2811C8.39129 19.8589 8.84066 19.4739 9.32151 19.1306C9.73646 18.8311 10.1847 18.58 10.6573 18.3824C11.0261 18.2184 11.4237 18.1281 11.8275 18.1166C11.9864 18.1199 12.1446 18.1372 12.3004 18.1683C12.4922 18.2023 12.6794 18.2584 12.8583 18.3354C13.032 18.4082 13.1919 18.5101 13.3311 18.6365C13.4582 18.7529 13.5416 18.9089 13.5675 19.0788C13.5739 19.4136 13.457 19.7391 13.2389 19.9941L13.2295 19.9847Z" fill="#1B89C0"/>
<path d="M47.0558 14.8036L48.6965 16.4364L50.3538 14.7801L48.68 13.1214L47.0558 14.7354L45.4151 13.1025L43.7578 14.7613L45.434 16.42L47.0558 14.8036Z" fill="#1B89C0"/>
<path d="M55.8716 18.0431C55.8832 18.0014 55.8809 18.0061 55.8716 18.0431V18.0431Z" fill="#1B89C0"/>
<path d="M76.3619 19.8482V19.867C76.313 19.432 76.2056 19.0054 76.0427 18.5988C75.8892 18.2146 75.6762 17.8565 75.4115 17.5377C75.0878 17.161 74.6925 16.8515 74.2483 16.6272C73.8075 16.4108 73.3213 16.3019 72.8298 16.3096C72.4004 16.3076 71.9769 16.4093 71.5957 16.606C71.2018 16.8165 70.8526 17.101 70.5673 17.4436C70.36 17.7098 70.1735 17.9914 70.0094 18.2859C69.8415 18.5894 69.6807 18.8953 69.5365 19.2035C69.3805 19.5 69.2174 19.7988 69.0448 20.0976C68.8781 20.3867 68.6807 20.6573 68.4561 20.9046C68.2415 21.1421 67.9861 21.3397 67.7019 21.4881C67.3908 21.6477 67.0448 21.7286 66.6948 21.7233H66.6002C66.4316 21.7208 66.2649 21.6873 66.1085 21.6245C65.9292 21.5556 65.763 21.4569 65.6167 21.3328C65.4547 21.1952 65.3173 21.0313 65.2101 20.8481C65.0895 20.6365 65.0131 20.4028 64.9855 20.1611L64.7018 17.7377L62.3684 18.0624C62.3873 18.2577 62.3944 18.4836 62.3944 18.7377C62.394 19.0002 62.3798 19.2625 62.3518 19.5235C62.3243 19.7909 62.2809 20.0564 62.2218 20.3187C62.1699 20.5621 62.0906 20.7989 61.9854 21.0246C61.9011 21.2097 61.7824 21.3774 61.6355 21.5186C61.5019 21.6419 61.3259 21.7093 61.1438 21.7069C61.0497 21.7122 60.9557 21.6961 60.8688 21.6598C60.782 21.6235 60.7046 21.568 60.6425 21.4975C60.513 21.3399 60.4215 21.1547 60.3754 20.9563C60.3138 20.7149 60.2828 20.4667 60.2832 20.2176C60.2832 19.9446 60.2832 19.6741 60.3045 19.4035C60.3257 19.1329 60.3447 18.8812 60.3754 18.6435C60.4061 18.4059 60.4227 18.2153 60.4345 18.0718L58.172 17.7189C58.1318 17.9542 58.0727 18.2106 57.9994 18.5094C57.9261 18.8082 57.8339 19.1094 57.7323 19.42C57.6306 19.7305 57.5124 20.0317 57.3871 20.3258C57.2732 20.5963 57.1339 20.8554 56.971 21.0999C56.8458 21.2958 56.6855 21.4672 56.4982 21.6057C56.4258 21.6617 56.3416 21.7006 56.2519 21.7194C56.1621 21.7381 56.0693 21.7363 55.9804 21.7139C55.8924 21.688 55.8132 21.6385 55.7515 21.5709C55.6898 21.5033 55.648 21.4201 55.6305 21.3304C55.5599 21.0817 55.5257 20.8242 55.5289 20.5658C55.5259 20.2558 55.5457 19.9459 55.588 19.6388C55.6305 19.3141 55.6778 19.0223 55.7251 18.7612C55.7724 18.5 55.8173 18.2906 55.8551 18.1565C55.8693 18.1024 55.8788 18.0671 55.8858 18.0436L53.5903 17.7189C53.442 18.414 53.2429 19.0973 52.9945 19.7635C52.8344 20.1983 52.6096 20.6067 52.3278 20.9752C52.1338 21.2306 51.8752 21.4303 51.5783 21.5539C51.3049 21.6563 51.0147 21.7074 50.7225 21.7045H50.6634C50.635 21.7045 50.6067 21.7045 50.5759 21.7045C50.4126 21.7119 50.2523 21.6582 50.1268 21.5539C50.0075 21.4498 49.9144 21.3192 49.8549 21.1728C49.7865 21.0099 49.7388 20.8392 49.713 20.6646C49.6847 20.4811 49.6634 20.3046 49.6516 20.1329C49.6122 19.6336 49.5435 19.1371 49.4459 18.6459C49.376 18.2742 49.2747 17.909 49.1433 17.5542L46.6302 18.26C46.7271 18.6083 46.8051 18.8788 46.8666 19.0717C46.928 19.2647 46.9635 19.4176 46.9919 19.5423C47.0165 19.6411 47.0323 19.7419 47.0392 19.8435C47.0392 19.9258 47.0392 20.0317 47.0392 20.1564C47.0425 20.4524 46.9403 20.74 46.7507 20.9681C46.5563 21.18 46.3128 21.3415 46.0415 21.4387C45.7155 21.5588 45.374 21.6325 45.0273 21.6575C44.6443 21.6928 44.2471 21.7092 43.831 21.7092H43.2707C43.0521 21.7101 42.8373 21.6524 42.6489 21.5422C42.4145 21.3934 42.2159 21.1949 42.0673 20.961C41.8335 20.6152 41.6347 20.2472 41.4739 19.8623C41.2722 19.4043 41.0563 18.8318 40.8261 18.1448L38.313 19.2223C38.4974 19.6341 38.6629 20.0129 38.8142 20.3611C38.9655 20.7093 39.0932 21.0387 39.2067 21.354C39.3202 21.6692 39.4124 21.9774 39.488 22.2809C39.5636 22.5911 39.6212 22.9053 39.6606 23.2221C39.6606 23.1985 39.6606 23.1962 39.6606 23.2221C39.6621 23.2479 39.6621 23.2738 39.6606 23.2997C39.6606 23.3326 39.6606 23.3679 39.6606 23.4032C39.6606 23.4385 39.6606 23.462 39.6606 23.4809C39.6596 23.8247 39.5888 24.1648 39.4526 24.4808C39.3062 24.8267 39.1146 25.1518 38.8828 25.4478C38.6275 25.7772 38.3435 26.0834 38.0341 26.363C37.6985 26.6651 37.3465 26.9487 36.9796 27.2124C36.6014 27.4853 36.2074 27.7433 35.7976 27.9865C35.3815 28.2217 34.9701 28.457 34.5635 28.6617L36.1427 30.8357C36.8744 30.4706 37.5756 30.0482 38.2397 29.5722C38.8768 29.1199 39.4647 28.6026 39.994 28.0288C40.4954 27.4844 40.9288 26.8816 41.2848 26.2336C41.63 25.6019 41.8696 24.9185 41.994 24.2102C42.23 24.3116 42.4805 24.3751 42.7364 24.3985C42.8759 24.4102 42.9941 24.4173 43.0957 24.4196H43.143H43.7979C44.1903 24.4196 44.5875 24.4055 44.98 24.3726C45.3767 24.3435 45.7714 24.2916 46.1621 24.2173C46.5267 24.1499 46.8861 24.0571 47.2377 23.9397C47.5528 23.8344 47.853 23.6897 48.1314 23.5091C48.4264 23.7882 48.7701 24.0115 49.1456 24.1679C49.5967 24.3456 50.0791 24.4312 50.5641 24.4196H50.6114H50.7178C51.296 24.4357 51.8721 24.3423 52.4153 24.1444C52.8809 23.9559 53.2816 23.6372 53.569 23.2268C53.8419 23.6015 54.1989 23.9076 54.6116 24.1208C55.0339 24.3376 55.5029 24.449 55.9781 24.4455C56.4799 24.4501 56.9748 24.3296 57.4178 24.0949C57.8613 23.857 58.261 23.546 58.5999 23.175C58.893 23.5578 59.2697 23.8691 59.7016 24.0855C60.15 24.3107 60.6462 24.4253 61.1485 24.4196C61.6005 24.4233 62.0474 24.3252 62.4559 24.1326C62.8592 23.9415 63.2238 23.6783 63.5316 23.3562C63.5611 23.3199 63.5927 23.2854 63.6261 23.2526C63.6636 23.2151 63.6984 23.175 63.7301 23.1327C64.0604 23.5725 64.5051 23.9142 65.0162 24.1208C65.5192 24.3173 66.0552 24.4163 66.5955 24.4126H66.6995C67.0175 24.4154 67.3348 24.3823 67.6452 24.3138C67.9249 24.2511 68.1969 24.158 68.4561 24.0361C68.7122 23.9139 68.9553 23.7665 69.1819 23.5962C69.4218 23.4167 69.6522 23.2251 69.8722 23.0221C70.0046 23.1068 70.1488 23.1962 70.3049 23.2879C70.4609 23.3797 70.6169 23.4691 70.7777 23.5538C70.9385 23.6385 71.0874 23.7185 71.2316 23.7891C71.3758 23.8597 71.5035 23.9208 71.6194 23.9726C71.8984 24.0805 72.1853 24.167 72.4775 24.2314C72.7486 24.291 73.0251 24.3226 73.3026 24.3255C73.4455 24.3259 73.5884 24.3188 73.7305 24.3043C73.8691 24.2892 74.006 24.2616 74.1395 24.222C74.5712 24.093 74.9664 23.865 75.2933 23.5562C75.6546 23.2215 75.9337 22.8085 76.1089 22.3492C76.2113 22.0771 76.2904 21.7969 76.3453 21.5116C76.4004 21.212 76.4281 20.908 76.4281 20.6034C76.4242 20.3504 76.4021 20.098 76.3619 19.8482ZM74.3192 21.4434C74.253 21.601 74.1845 21.6786 74.1159 21.7045L74.0332 21.7186H73.9599C73.8035 21.7092 73.6488 21.6816 73.4989 21.6363C73.2955 21.5822 73.0709 21.5116 72.8298 21.4245C72.5887 21.3375 72.357 21.2434 72.0993 21.1328C71.8801 21.0371 71.6683 20.9254 71.4657 20.7987L71.7328 20.2481C71.974 19.7933 72.1584 19.4521 72.286 19.2247C72.4114 18.9894 72.5225 18.8812 72.5958 18.8812C72.83 18.8837 73.0591 18.9505 73.2577 19.0741C73.4736 19.2037 73.6675 19.3665 73.8322 19.5564C73.9949 19.7432 74.131 19.9514 74.2365 20.1752C74.3326 20.3629 74.3859 20.5693 74.3925 20.7799C74.4187 21.0037 74.3936 21.2305 74.3192 21.4434Z" fill="#1B89C0"/>
<path d="M118.976 5.96431C118.959 2.40925 116.446 0.00470557 112.864 0C104.781 0 96.6975 0 88.6152 0C84.8633 0.00235278 82.4377 2.41631 82.4282 6.15018C82.4282 10.1946 82.4282 14.2414 82.4282 18.2858C82.4282 22.3303 82.4282 26.3794 82.4282 30.4239C82.4282 34.0613 84.8775 36.5411 88.523 36.5599C96.6542 36.585 104.785 36.585 112.914 36.5599C116.479 36.5458 118.959 34.0754 118.973 30.5227C119.008 22.3365 119.009 14.1504 118.976 5.96431ZM110.59 24.0596C110.314 26.6194 108.699 28.3299 105.819 29.0969C104.471 29.4234 103.086 29.5815 101.699 29.5674C98.8284 29.6074 95.9583 29.5674 93.0906 29.591C92.2324 29.591 91.7879 29.4333 91.7927 28.4287C91.8273 21.6715 91.8273 14.9135 91.7927 8.15475C91.7927 7.29363 92.0716 6.97836 92.9487 6.99953C96.3413 7.07717 99.7362 6.89366 103.126 7.14305C104.129 7.217 105.118 7.41701 106.07 7.73831C108.245 8.46296 109.462 9.98757 109.666 12.2486C109.852 14.3426 109.257 16.1095 107.264 17.1894C107.143 17.2553 107.027 17.34 106.779 17.5024C109.826 18.994 110.921 20.9727 110.59 24.0596Z" fill="#1B89C0"/>
<path d="M100.67 19.6669C97.6914 19.6504 97.6914 19.6504 97.6914 22.6149C97.6914 25.6735 97.6914 25.6735 100.58 25.6735C103.55 25.6735 104.824 24.7559 104.819 22.6361C104.812 20.5845 103.559 19.681 100.67 19.6669Z" fill="#1B89C0"/>
<path d="M98.3366 15.7567C99.5731 15.7191 100.826 15.8014 102.046 15.6391C103.266 15.4767 103.821 14.5944 103.843 13.4133C103.864 12.2322 103.398 11.4064 102.188 11.0606C101.528 10.8723 100.866 10.9076 100.202 10.9053C97.6912 10.9053 97.6912 10.9053 97.6936 13.3357C97.6936 13.9051 97.7077 14.4768 97.6936 15.0462C97.6817 15.4979 97.8212 15.7708 98.3366 15.7567Z" fill="#1B89C0"/>
</svg>
