<svg id="Layer_3" data-name="Layer 3" xmlns="http://www.w3.org/2000/svg" xmlns:xlink="http://www.w3.org/1999/xlink" viewBox="0 0 578.16 205.2"><defs><style>.cls-1{fill:url(#linear-gradient);}.cls-2{fill:url(#linear-gradient-2);}.cls-3{fill:url(#linear-gradient-3);}.cls-4{fill:url(#linear-gradient-4);}.cls-5{fill:url(#linear-gradient-5);}.cls-6{fill:url(#linear-gradient-6);}.cls-7{fill:url(#linear-gradient-7);}.cls-8{fill:url(#linear-gradient-8);}.cls-9{fill:url(#linear-gradient-9);}.cls-10{fill:url(#linear-gradient-10);}.cls-11{fill:url(#linear-gradient-11);}.cls-12{fill:url(#linear-gradient-12);}.cls-13{fill:url(#linear-gradient-13);}</style><linearGradient id="linear-gradient" x1="92.18" y1="138.8" x2="562.18" y2="95.59" gradientUnits="userSpaceOnUse"><stop offset="0" stop-color="#6ec386"/><stop offset="0.17" stop-color="#69c18f"/><stop offset="0.41" stop-color="#50b7b7"/><stop offset="0.7" stop-color="#22add8"/><stop offset="1" stop-color="#1eabe2"/></linearGradient><linearGradient id="linear-gradient-2" x1="89.7" y1="111.75" x2="559.7" y2="68.54" xlink:href="#linear-gradient"/><linearGradient id="linear-gradient-3" x1="92.92" y1="146.82" x2="562.92" y2="103.62" xlink:href="#linear-gradient"/><linearGradient id="linear-gradient-4" x1="88.94" y1="103.45" x2="558.94" y2="60.25" xlink:href="#linear-gradient"/><linearGradient id="linear-gradient-5" x1="93.21" y1="149.92" x2="563.21" y2="106.72" xlink:href="#linear-gradient"/><linearGradient id="linear-gradient-6" x1="86.84" y1="80.61" x2="556.84" y2="37.41" xlink:href="#linear-gradient"/><linearGradient id="linear-gradient-7" x1="94.56" y1="164.61" x2="564.56" y2="121.4" xlink:href="#linear-gradient"/><linearGradient id="linear-gradient-8" x1="94.38" y1="162.7" x2="564.38" y2="119.49" xlink:href="#linear-gradient"/><linearGradient id="linear-gradient-9" x1="93.9" y1="157.49" x2="563.9" y2="114.28" xlink:href="#linear-gradient"/><linearGradient id="linear-gradient-10" x1="96.29" y1="183.43" x2="566.29" y2="140.23" xlink:href="#linear-gradient"/><linearGradient id="linear-gradient-11" x1="97.85" y1="200.47" x2="567.85" y2="157.27" xlink:href="#linear-gradient"/><linearGradient id="linear-gradient-12" x1="96.11" y1="181.52" x2="566.11" y2="138.32" xlink:href="#linear-gradient"/><linearGradient id="linear-gradient-13" x1="89.74" y1="112.21" x2="559.74" y2="69" xlink:href="#linear-gradient"/></defs><title>parvazyab0</title><g id="parvazyab"><path class="cls-1" d="M303.78,160.74A18.18,18.18,0,0,0,322,142.56V77.88H303.78Z"/><rect class="cls-2" x="335.13" y="46.92" width="18.18" height="82.86"/><path class="cls-3" d="M399.15,77.88H385.32a18.18,18.18,0,0,0-18.18,18.18v33.72h32v31a18.18,18.18,0,0,0,18.18-18.18V77.88H399.15ZM385.32,111.6V96.06h13.83V111.6Z"/><path class="cls-4" d="M271.38,111.6h-19V46.92H234.23V111.6a18.18,18.18,0,0,0,18.18,18.18h19a18.17,18.17,0,0,0,18.17-18.18V77.88H271.38Z"/><path class="cls-5" d="M477.9,77.88V111.6H444V77.88H425.83v82.86A18.17,18.17,0,0,0,444,142.56V129.78h33.9a18.18,18.18,0,0,0,18.18-18.18V77.88Z"/><circle class="cls-6" cx="312.87" cy="59.83" r="9.09"/><path class="cls-7" d="M271.38,139.26h0a9.09,9.09,0,1,0,0,18.18h0a9.09,9.09,0,1,0,0-18.18Z"/><circle class="cls-8" cx="250.43" cy="148.35" r="9.09"/><circle class="cls-9" cx="193.26" cy="148.35" r="9.09"/><path class="cls-10" d="M477.9,139.26a9.09,9.09,0,1,0,9.09,9.09A9.09,9.09,0,0,0,477.9,139.26Z"/><path class="cls-11" d="M467.09,157.44a9.09,9.09,0,1,0,9.09,9.09A9.09,9.09,0,0,0,467.09,157.44Z"/><path class="cls-12" d="M466.05,148.35a9.09,9.09,0,1,0-9.09,9.09A9.09,9.09,0,0,0,466.05,148.35Z"/><path class="cls-13" d="M160,102.8v-.53a7.8,7.8,0,0,1,7.8-7.79h23.42V80.29H108a12.39,12.39,0,0,0-2.38.24c-.41.09-.78.24-1.18.37s-.7.18-1,.32a11,11,0,0,0-1.51.82c-.16.09-.34.16-.49.26a12.45,12.45,0,0,0-1.73,1.42h0A11.82,11.82,0,0,0,96.13,92s0,0,0,0h0s0,.06,0,.1,0-.07,0-.1v.14H154a2.29,2.29,0,0,1,0,4.57H91.77a11.86,11.86,0,0,0-11.86,11.86h65.43a2.28,2.28,0,0,1,0,4.56h-72a18.16,18.16,0,0,0-10.83,16.6H228.1V110.59H167.8A7.8,7.8,0,0,1,160,102.8Z"/></g></svg>