<svg width="105" height="38" viewBox="0 0 105 38" fill="none" xmlns="http://www.w3.org/2000/svg">
<path d="M19.4429 1.44613e-07C15.7533 0.000458861 12.1468 1.0918 9.07926 3.13602C6.01174 5.18025 3.62102 8.08554 2.20942 11.4845C0.797812 14.8835 0.428709 18.6236 1.14878 22.2317C1.86886 25.8399 3.64577 29.1541 6.25483 31.7553C8.86389 34.3566 12.1879 36.1279 15.8066 36.8455C19.4253 37.563 23.1761 37.1945 26.5847 35.7866C29.9934 34.3786 32.9068 31.9944 34.9565 28.9355C37.0063 25.8766 38.1003 22.2803 38.1003 18.6014C38.1003 16.1584 37.6177 13.7394 36.6801 11.4824C35.7424 9.22542 34.3681 7.17472 32.6355 5.4474C30.903 3.72007 28.8462 2.34995 26.5826 1.41528C24.319 0.480609 21.8929 -0.000304464 19.4429 1.44613e-07ZM19.4429 35.665C16.0582 35.665 12.7496 34.6642 9.93542 32.7893C7.1212 30.9143 4.9278 28.2493 3.63256 25.1313C2.33732 22.0134 1.99842 18.5824 2.65873 15.2724C3.31904 11.9624 4.94889 8.92196 7.34218 6.53556C9.73547 4.14917 12.7847 2.52402 16.1043 1.86562C19.4239 1.20721 22.8647 1.54513 25.9917 2.83664C29.1187 4.12814 31.7914 6.31523 33.6718 9.12133C35.5522 11.9274 36.5558 15.2265 36.5558 18.6014C36.5561 20.8423 36.1137 23.0613 35.2538 25.1317C34.3939 27.2021 33.1334 29.0833 31.5442 30.6679C29.9551 32.2524 28.0684 33.5093 25.9921 34.3667C23.9157 35.2241 21.6903 35.6653 19.4429 35.665Z" fill="#1F2466"/>
<path d="M4.60965 24.3348C9.63571 22.2162 14.9992 21.0044 20.4502 20.756L20.3223 20.64C20.4456 20.4846 20.5735 20.3246 20.7038 20.1762C15.4094 20.4146 10.1795 21.433 5.18419 23.1983L6.04252 22.637C9.93781 20.4469 14.2578 19.1128 18.7127 18.7242C22.4295 14.525 26.8851 11.0389 31.8596 8.43782C29.418 5.48145 25.9954 3.49462 22.2116 2.83711C18.4277 2.17961 14.5328 2.89491 11.2322 4.85348C7.93161 6.81205 5.44349 9.88439 4.21842 13.5142C2.99335 17.1439 3.11234 21.0911 4.55383 24.641L4.60965 24.3348ZM23.0461 11.903C25.1697 10.4205 27.47 9.20745 29.8941 8.2917L30.8827 8.00178C26.2416 10.7438 22.0416 14.1677 18.4242 18.1583L17.3635 16.9986C19.0421 15.0752 20.9505 13.3639 23.0461 11.903Z" fill="#1F2466"/>
<path d="M24.7349 14.7512C23.2835 16.0987 21.9739 17.4347 20.7969 18.7289L20.9504 19.8724C24.2874 15.8288 28.2942 12.3851 32.7971 9.69032C32.5924 9.38107 32.3769 9.08342 32.1505 8.79736C29.5393 10.603 27.0611 12.5927 24.7349 14.7512Z" fill="#1F2466"/>
<path d="M33.0742 10.1124C28.7893 13.4463 24.9309 17.292 21.5857 21.5632C21.6066 21.7951 21.6299 22.027 21.6531 22.2775C15.8882 22.371 10.1599 23.2114 4.6123 24.7778C4.75652 25.1257 4.91159 25.4674 5.07752 25.803C10.4105 23.9228 16.0453 23.0383 21.6997 23.1937L21.7695 24.7569C16.2484 24.5734 10.7259 25.0744 5.32874 26.2483C6.34296 28.1564 7.73344 29.8404 9.41669 31.1992C11.0999 32.5581 13.0412 33.5637 15.124 34.1557C17.2068 34.7478 19.388 34.914 21.5369 34.6444C23.6857 34.3749 25.7577 33.6751 27.6285 32.5871C29.4993 31.4991 31.1303 30.0453 32.4235 28.3131C33.7167 26.5809 34.6456 24.6059 35.1542 22.5068C35.6628 20.4077 35.7407 18.2278 35.3833 16.0979C35.0259 13.968 34.2404 11.9321 33.0742 10.1124Z" fill="#1F2466"/>
<path d="M96.8782 23.9986C96.8674 24.0696 96.8422 24.1377 96.804 24.1986C96.7658 24.2596 96.7156 24.3121 96.6563 24.3529C96.5971 24.3938 96.53 24.4221 96.4594 24.4361C96.3887 24.4502 96.3159 24.4497 96.2455 24.4346C89.3442 22.9991 82.3406 22.1057 75.2992 21.7627C68.5117 21.4426 64.034 21.7766 62.1871 21.9413C58.925 22.1988 55.6838 22.673 52.485 23.3608C47.9701 24.3395 44.8601 25.476 44.8322 25.3833C44.8043 25.2905 48.0771 23.9708 52.1128 22.9154C55.1292 22.1439 58.1999 21.6012 61.2985 21.2919C67.8566 20.5945 74.4654 20.5059 81.0399 21.0275C86.2351 21.4461 91.3931 22.2391 96.4734 23.4002C96.6044 23.4303 96.719 23.5088 96.7941 23.6198C96.8692 23.7309 96.8993 23.8663 96.8782 23.9986Z" fill="#1F2466"/>
<path d="M45.1362 6.98364C44.9813 6.94996 44.8201 6.96041 44.671 7.01379C44.5173 7.08669 44.3837 7.19569 44.2816 7.33144C44.1795 7.46718 44.112 7.6256 44.0848 7.7931C43.9801 8.39846 44.6035 8.60256 45.2827 9.77384C45.8224 10.7016 45.7828 11.1887 46.3225 11.4484C46.6324 11.5914 46.9841 11.6162 47.3111 11.518C48.1484 11.2281 48.1484 10.0893 48.8695 8.68838C49.2975 7.8534 49.7627 7.36634 50.6885 6.39452C51.6735 5.37788 52.7814 4.48736 53.9869 3.74347C55.3897 2.83449 56.8862 2.07793 58.4506 1.48672C58.1302 1.47392 57.8093 1.48244 57.49 1.51224C56.7689 1.5795 55.7803 1.77665 53.752 2.86907C52.5354 3.52545 50.642 4.54598 49.2022 6.07444C48.7768 6.49913 48.3812 6.95247 48.0182 7.43128C47.3901 8.31264 47.1575 8.97134 46.8551 8.92727C46.6574 8.89712 46.6993 8.59096 46.2946 7.96937C46.0759 7.62842 45.7084 7.08337 45.1362 6.98364Z" fill="#E6141F"/>
<path d="M104.521 11.8496C104.519 11.7709 104.5 11.6935 104.467 11.6221C104.434 11.5506 104.386 11.4866 104.328 11.4338C104.269 11.381 104.201 11.3405 104.126 11.3147C104.051 11.2889 103.972 11.2784 103.893 11.2837H103.872C103.718 11.301 103.575 11.3735 103.47 11.4877C103.365 11.6019 103.304 11.7503 103.3 11.9053C103.266 12.6771 102.983 13.4173 102.493 14.0159C101.93 14.7301 101.248 15.3421 100.476 15.825C100.463 15.8333 100.453 15.8454 100.447 15.8598C100.441 15.8741 100.44 15.89 100.443 15.9051C100.447 15.9202 100.455 15.9338 100.467 15.944C100.479 15.9542 100.493 15.9604 100.509 15.9619C101.009 15.9734 101.506 15.8875 101.972 15.7091C102.554 15.4864 103.07 15.121 103.472 14.6468C103.521 14.5888 103.6 14.4752 103.705 14.3522C103.896 14.1124 104.057 13.8499 104.184 13.5706C104.425 13.0297 104.541 12.4413 104.521 11.8496Z" fill="#1F2466"/>
<path d="M100.962 14.6491C101.011 14.5911 101.09 14.4775 101.195 14.3545C101.386 14.1147 101.547 13.8522 101.674 13.5729C101.919 13.0323 102.037 12.4427 102.018 11.8496C102.016 11.771 101.998 11.6937 101.965 11.6222C101.932 11.5508 101.885 11.4868 101.826 11.4339C101.768 11.3811 101.699 11.3405 101.625 11.3147C101.55 11.2889 101.471 11.2784 101.393 11.2837H101.369C101.212 11.2984 101.066 11.3701 100.959 11.485C100.851 11.6 100.789 11.7504 100.786 11.9076C100.751 12.6794 100.468 13.4196 99.9785 14.0182C99.4155 14.7324 98.7333 15.3444 97.9617 15.8273C97.9485 15.8356 97.9383 15.8477 97.9323 15.8621C97.9264 15.8765 97.9252 15.8923 97.9288 15.9074C97.9324 15.9225 97.9406 15.9361 97.9524 15.9463C97.9641 15.9565 97.9788 15.9628 97.9943 15.9642C98.4939 15.9755 98.9908 15.8896 99.4574 15.7114C100.041 15.4894 100.559 15.124 100.962 14.6491Z" fill="#1F2466"/>
<path d="M98.3991 14.6491C98.448 14.5911 98.5271 14.4775 98.6317 14.3545C98.8232 14.1147 98.9842 13.8522 99.1109 13.5729C99.3551 13.0319 99.4728 12.4426 99.4552 11.8496C99.4528 11.771 99.4346 11.6937 99.4016 11.6222C99.3686 11.5508 99.3215 11.4868 99.2631 11.4339C99.2046 11.3811 99.1361 11.3405 99.0616 11.3147C98.9871 11.2889 98.9081 11.2784 98.8295 11.2837H98.8062C98.65 11.2995 98.5049 11.3716 98.3983 11.4865C98.2916 11.6013 98.2307 11.7511 98.227 11.9076C98.2102 12.2495 98.146 12.5875 98.0363 12.9119C97.8976 13.3139 97.6889 13.6884 97.4199 14.0182C96.8569 14.7324 96.1747 15.3444 95.4031 15.8273C95.3899 15.8356 95.3797 15.8477 95.3737 15.8621C95.3678 15.8765 95.3666 15.8923 95.3702 15.9074C95.3738 15.9225 95.382 15.9361 95.3938 15.9463C95.4055 15.9565 95.4202 15.9628 95.4357 15.9642C95.9353 15.9755 96.4322 15.8896 96.8988 15.7114C97.4805 15.4887 97.9966 15.1233 98.3991 14.6491Z" fill="#1F2466"/>
<path d="M93.056 8.20833C93.0473 7.69441 92.9842 7.18285 92.8676 6.68218C92.7559 6.15568 92.6606 5.94462 92.4652 5.81706C92.1302 5.59671 91.6859 5.74979 91.558 5.7985C91.378 5.89796 91.2297 6.04583 91.13 6.22527C90.8974 6.68914 91.1509 7.15301 91.3254 8.14107C91.3254 8.14107 91.358 8.31502 91.451 9.24277C91.6301 11.0264 91.1137 12.7218 90.916 13.3434C90.4136 14.9438 89.8227 15.6628 89.9856 15.7927C90.1484 15.9226 91.123 15.1154 91.765 14.125C92.2721 13.3388 92.4628 12.6546 92.6722 11.8057C93.0025 10.5764 93.0211 9.72288 93.056 8.20833Z" fill="#1F2466"/>
<path d="M56.7392 12.0932C56.7372 12.026 56.7216 11.9599 56.6934 11.8988C56.6651 11.8377 56.6249 11.7829 56.5749 11.7376C56.525 11.6924 56.4664 11.6576 56.4028 11.6355C56.3391 11.6133 56.2716 11.6041 56.2042 11.6085H56.1856C56.0537 11.6235 55.9317 11.6855 55.8419 11.7831C55.7522 11.8807 55.7008 12.0073 55.6972 12.1396C55.6834 12.4328 55.6278 12.7226 55.532 13.0001C55.4142 13.3445 55.2354 13.665 55.004 13.9464C54.5238 14.5593 53.9396 15.0837 53.278 15.4958C53.2666 15.5028 53.2576 15.5133 53.2526 15.5257C53.2476 15.5382 53.2467 15.5519 53.2501 15.5649C53.2535 15.5779 53.2609 15.5895 53.2714 15.5979C53.2819 15.6063 53.2948 15.6112 53.3083 15.6117C53.7356 15.6224 54.1608 15.5491 54.5597 15.396C55.0571 15.2058 55.4987 14.8939 55.8437 14.4892C55.8856 14.4381 55.953 14.3407 56.0344 14.2363C56.1976 14.0302 56.335 13.8052 56.4438 13.566C56.6529 13.1038 56.7539 12.6001 56.7392 12.0932Z" fill="#1F2466"/>
<path d="M95.992 14.4776C96.0641 14.357 96.7201 13.2321 96.2037 12.135C96.1502 12.019 95.6454 10.9753 94.6568 10.9498C93.759 10.9173 92.9565 11.7291 92.8658 12.6012C92.8342 12.8697 92.8675 13.1418 92.963 13.3948C93.0585 13.6478 93.2134 13.8743 93.4147 14.0554C93.8125 14.3662 94.2405 14.2874 94.2963 14.5077C94.3102 14.568 94.3242 14.7559 93.5217 15.3334C92.7192 15.9109 92.2749 16.0292 92.2935 16.0918C92.3307 16.2171 94.9709 16.1429 95.992 14.4776ZM95.1639 13.2019C95.1221 13.3123 95.0496 13.4085 94.9548 13.4792C94.86 13.5499 94.7469 13.5921 94.6289 13.6008C94.2521 13.5591 93.9311 12.8053 94.2009 12.469C94.3025 12.3663 94.4367 12.3021 94.5806 12.2873C94.7244 12.2725 94.869 12.308 94.9895 12.3878C95.1063 12.484 95.1871 12.6168 95.2188 12.7646C95.2505 12.9124 95.2311 13.0665 95.1639 13.2019Z" fill="#1F2466"/>
<path d="M50.9797 9.14068C51.0771 9.22885 51.1992 9.28538 51.3296 9.30278C51.4601 9.32018 51.5928 9.29762 51.71 9.2381C52.1241 9.03399 52.6684 8.78582 53.3197 8.54228C55.141 7.84647 56.1482 7.74442 56.1319 7.54727C56.1133 7.29678 54.4502 7.0834 52.787 7.371C52.2098 7.47253 51.6446 7.63342 51.1006 7.85111C50.9824 7.89722 50.8801 7.97655 50.8062 8.07947C50.7323 8.1824 50.6899 8.30449 50.6842 8.43095C50.6792 8.56605 50.7038 8.70063 50.7564 8.82525C50.8085 8.94445 50.8845 9.05178 50.9797 9.14068Z" fill="#1F2466"/>
<path d="M46.5604 18.1003C45.8626 18.1583 45.2648 18.1746 44.8042 18.1746C44.6729 18.1731 44.5442 18.2114 44.435 18.2842C44.3258 18.3571 44.2413 18.4611 44.1925 18.5828C44.1447 18.7081 44.1248 18.8422 44.134 18.976C44.1433 19.1097 44.1815 19.2398 44.246 19.3574C44.3067 19.4687 44.3987 19.5598 44.5107 19.6195C44.6227 19.6793 44.7498 19.7051 44.8763 19.6937C45.46 19.6504 46.0376 19.5471 46.6 19.3853C48.2282 18.9214 49.6239 17.9936 49.5262 17.7617C49.4517 17.5715 48.5097 17.931 46.5604 18.1003Z" fill="#1F2466"/>
<path d="M79.5882 15.2963C79.4279 15.2958 79.271 15.3428 79.1376 15.4313C79.0041 15.5198 78.9 15.6459 78.8384 15.7935C78.7769 15.941 78.7606 16.1035 78.7918 16.2603C78.823 16.4171 78.9001 16.5611 79.0135 16.6741C79.1268 16.7872 79.2713 16.8641 79.4285 16.8952C79.5857 16.9262 79.7487 16.91 79.8967 16.8487C80.0447 16.7873 80.1711 16.6835 80.2599 16.5504C80.3486 16.4173 80.3958 16.2609 80.3953 16.1011C80.3953 15.8876 80.3103 15.6829 80.1589 15.532C80.0075 15.3811 79.8022 15.2963 79.5882 15.2963Z" fill="#1F2466"/>
<path d="M71.9706 12.4898C72.1308 12.4898 72.2874 12.4424 72.4206 12.3536C72.5537 12.2648 72.6575 12.1386 72.7187 11.991C72.7799 11.8434 72.7958 11.6809 72.7643 11.5243C72.7329 11.3677 72.6556 11.2239 72.5422 11.1111C72.4287 10.9983 72.2843 10.9216 72.1271 10.8907C71.9699 10.8598 71.8071 10.8761 71.6592 10.9376C71.5113 10.999 71.3851 11.1029 71.2964 11.2359C71.2078 11.3689 71.1607 11.5252 71.1611 11.6849C71.1611 11.7908 71.1821 11.8957 71.2228 11.9935C71.2635 12.0913 71.3232 12.1801 71.3984 12.2549C71.4736 12.3296 71.5628 12.3889 71.661 12.4292C71.7592 12.4695 71.8644 12.4901 71.9706 12.4898Z" fill="#1F2466"/>
<path d="M81.3681 15.2963C81.2079 15.2963 81.0513 15.3437 80.9181 15.4325C80.7849 15.5213 80.6812 15.6474 80.62 15.7951C80.5588 15.9427 80.5429 16.1051 80.5743 16.2617C80.6057 16.4184 80.6831 16.5622 80.7965 16.675C80.91 16.7878 81.0544 16.8644 81.2116 16.8953C81.3688 16.9262 81.5316 16.9099 81.6795 16.8484C81.8273 16.787 81.9536 16.6832 82.0423 16.5501C82.1309 16.4171 82.178 16.2608 82.1776 16.1011C82.1776 15.9952 82.1566 15.8904 82.1159 15.7926C82.0752 15.6948 82.0155 15.6059 81.9403 15.5312C81.8651 15.4564 81.7759 15.3972 81.6777 15.3569C81.5795 15.3166 81.4743 15.296 81.3681 15.2963Z" fill="#1F2466"/>
<path d="M101.672 10.6946C101.832 10.6946 101.988 10.6474 102.121 10.559C102.254 10.4707 102.358 10.345 102.419 10.1979C102.48 10.0509 102.497 9.88892 102.466 9.73254C102.436 9.57616 102.359 9.43234 102.247 9.31918C102.134 9.20603 101.991 9.12861 101.834 9.09669C101.677 9.06476 101.515 9.07976 101.367 9.13978C101.219 9.19981 101.092 9.30218 101.002 9.434C100.912 9.56581 100.864 9.72117 100.862 9.88051C100.861 9.98717 100.881 10.093 100.921 10.1919C100.961 10.2908 101.021 10.3807 101.096 10.4564C101.172 10.5322 101.261 10.5923 101.36 10.6331C101.459 10.674 101.565 10.6949 101.672 10.6946Z" fill="#1F2466"/>
<path d="M90.2996 10.1821C90.2533 9.95643 90.1396 9.75 89.9736 9.58984C89.8076 9.42968 89.5969 9.32324 89.3692 9.28448C88.89 9.22881 88.6156 9.6463 87.6595 10.4047C87.1109 10.8702 86.5107 11.2717 85.8708 11.6015C85.0883 11.9986 84.2175 12.1909 83.34 12.1605C81.9444 12.0793 81.2465 11.3441 80.5906 11.7755C80.3929 11.9054 80.4603 11.968 80.0695 12.4713L79.9509 12.6197C79.9826 12.2493 79.9177 11.877 79.7625 11.5389C79.709 11.4253 79.2019 10.3792 78.2133 10.3537C77.3155 10.3212 76.5153 11.133 76.4246 12.0051C76.3916 12.2749 76.424 12.5486 76.5191 12.8033C76.6142 13.0579 76.7693 13.2861 76.9712 13.4686C77.369 13.7794 77.797 13.7006 77.8528 13.9325C77.8691 13.9951 77.8807 14.1807 77.0782 14.7582C76.2757 15.3357 75.8338 15.4679 75.85 15.5166C75.8873 15.628 78.3087 15.5723 79.4066 14.1018C79.7056 14.115 80.004 14.0668 80.2835 13.9603C80.7488 13.7725 80.8697 13.4965 81.3117 13.4547C81.6513 13.4269 81.8467 13.6032 82.156 13.6867C82.7693 13.8455 83.4081 13.8818 84.0355 13.7933C85.2131 13.6836 86.3568 13.3397 87.399 12.7821C88.4202 12.2486 90.4392 11.2165 90.2996 10.1821ZM78.7134 12.6012C78.6726 12.7117 78.6006 12.8082 78.5061 12.8789C78.4116 12.9497 78.2986 12.9918 78.1808 13.0001C77.8016 12.9584 77.469 12.2046 77.7528 11.8683C77.8544 11.7656 77.9888 11.7015 78.1328 11.6871C78.2768 11.6727 78.4212 11.7089 78.5413 11.7894C78.6572 11.8858 78.7373 12.0183 78.7685 12.1655C78.7997 12.3128 78.7803 12.4663 78.7134 12.6012Z" fill="#1F2466"/>
<path d="M75.678 9.8805C75.5467 9.80034 75.3958 9.75791 75.2418 9.75791C75.0879 9.75791 74.937 9.80034 74.8057 9.8805C74.4591 10.1287 74.5312 10.6459 74.494 11.5806C74.4498 12.7658 74.4265 13.3596 74.1869 13.8582C73.9625 14.3102 73.6191 14.693 73.1934 14.9654C72.7677 15.2379 72.2758 15.3899 71.7702 15.4052C71.6306 15.4052 70.521 15.4052 69.8302 14.5494C69.1394 13.6935 69.365 12.5895 69.5022 11.896C69.711 10.9406 70.1963 10.0673 70.8979 9.38416C70.5699 9.55347 69.0603 10.3722 68.5718 12.1094C68.4179 12.6731 68.3877 13.2633 68.4834 13.8397C68.5802 14.2522 68.7486 14.6447 68.9812 14.9994C69.2126 15.3571 69.5064 15.6705 69.8488 15.9248C70.9979 16.7714 72.3935 16.5464 72.5471 16.5209C73.9613 16.2704 74.7406 15.2383 75.0522 14.8254C75.778 13.8629 75.8989 12.9189 76.0083 12.0816C76.099 11.3162 76.2362 10.233 75.678 9.8805Z" fill="#1F2466"/>
<path d="M66.9927 9.49085C66.2553 8.86462 65.1481 9.23571 64.9993 9.28674C64.619 9.42637 64.2726 9.64451 63.9828 9.92689C63.5283 10.3299 63.1617 10.8217 62.9058 11.3719C62.6127 11.9447 62.4662 12.2439 62.5941 12.5524C62.6544 12.6945 62.7545 12.8162 62.8824 12.903C63.0103 12.9898 63.1605 13.038 63.3152 13.0418C63.5241 13.0135 63.7148 12.9084 63.8502 12.7472C64.2596 12.353 64.1758 12.0746 64.548 11.5064C64.7434 11.2049 65.0132 10.799 65.4575 10.7155C65.6575 10.6784 66.0227 10.6807 66.1414 10.8778C66.3577 11.2327 65.6761 12.0607 65.1365 12.5269C64.9853 12.6568 63.6199 13.7956 62.7057 13.3248C62.4644 13.2114 62.2743 13.0119 62.1731 12.7658C62.0544 12.4133 62.2731 12.1929 62.1196 11.9494C62.03 11.8334 61.906 11.7486 61.7653 11.7069C61.6245 11.6653 61.4742 11.669 61.3357 11.7174C61.0542 11.8311 61.0682 12.1326 60.7844 12.4968C60.5822 12.7487 60.3177 12.9438 60.0168 13.0627C60.0129 12.8111 59.9567 12.5631 59.8516 12.3344C59.8051 12.237 59.3725 11.351 58.5258 11.3208C57.7559 11.293 57.072 11.9865 56.9929 12.7333C56.9648 12.9643 56.9924 13.1986 57.0733 13.4168C57.1542 13.635 57.2861 13.8309 57.4581 13.9881C57.7977 14.2525 58.1559 14.1806 58.2118 14.3754C58.2257 14.4265 58.235 14.5865 57.5488 15.0713C56.8626 15.556 56.4835 15.6789 56.4974 15.7207C56.53 15.8204 58.7956 15.7624 59.6632 14.3291L59.6911 14.2827C60.389 14.3244 60.7309 14.1389 60.9123 13.951C61.1449 13.7191 61.2194 13.3712 61.3403 13.392C61.4613 13.4129 61.4241 13.6727 61.5729 13.9417C61.757 14.2225 62.0346 14.4295 62.3568 14.5262C63.1082 14.83 64.4503 14.5726 65.5785 13.8304C66.1065 13.4848 67.4393 12.6197 67.5463 11.1863C67.5603 10.9845 67.637 10.0405 66.9927 9.49085ZM58.9538 13.2506C58.8747 13.4268 58.6863 13.6124 58.4886 13.5915C58.1652 13.5567 57.8815 12.9119 58.1234 12.6243C58.2097 12.5356 58.3246 12.48 58.448 12.4673C58.5713 12.4546 58.6952 12.4855 58.7979 12.5547C58.8983 12.6366 58.9681 12.7497 58.9964 12.8758C59.0246 13.002 59.0096 13.1339 58.9538 13.2506Z" fill="#1F2466"/>
<path d="M53.8271 11.5504C53.7003 11.4313 53.5412 11.3519 53.3696 11.3222C53.198 11.2926 53.0214 11.3138 52.8618 11.3834C52.7106 11.4483 52.6292 11.5481 52.2523 12.2021C51.7499 13.0974 51.6336 13.385 51.3219 13.7074C51.1705 13.8594 51.0019 13.9933 50.8195 14.1063C50.8722 13.8769 50.911 13.6446 50.9358 13.4105C50.9869 12.8979 51.0102 12.6382 50.873 12.4689C50.7543 12.3475 50.5986 12.2687 50.4303 12.2448C50.262 12.2209 50.0905 12.2532 49.9425 12.3367C49.8332 12.4132 49.8169 12.4851 49.5657 13.1786C49.3843 13.6749 49.3191 13.835 49.1633 14.0136C49.0075 14.1922 48.7516 14.38 48.6981 14.3336C48.6446 14.2873 48.7539 14.1156 48.8586 13.835C48.9684 13.5208 49.0395 13.1945 49.0703 12.8632C49.147 12.2694 49.1935 11.8728 48.9563 11.6223C48.9032 11.5649 48.8383 11.5196 48.7661 11.4895C48.6938 11.4595 48.6158 11.4455 48.5376 11.4483C48.2143 11.4715 48.0026 11.8519 47.9188 11.9888C47.4722 12.7147 46.6139 13.0974 45.6067 13.5451C44.8657 13.8899 44.061 14.0779 43.2434 14.0971C43.0802 14.0996 42.917 14.0911 42.755 14.0715C42.0439 13.9658 41.3836 13.6415 40.8662 13.1438C40.5987 12.8214 40.5056 12.7704 40.4731 12.7913C40.3777 12.8469 40.5801 13.5868 41.0872 14.0831C41.2709 14.2617 41.5896 14.503 42.3828 14.6815C43.5255 14.9278 44.7129 14.8726 45.8277 14.5215C46.5109 14.3017 47.1559 13.9778 47.7397 13.5613C47.6706 13.7498 47.6116 13.9418 47.563 14.1365C47.3955 14.7906 47.3117 15.1199 47.442 15.4539C47.5162 15.6311 47.631 15.7884 47.7772 15.9133C47.9235 16.0382 48.0971 16.1271 48.284 16.1729C48.4782 16.203 48.6765 16.191 48.8655 16.1377C49.0546 16.0845 49.2299 15.9913 49.3796 15.8644C49.6606 15.6549 49.8662 15.3604 49.9658 15.0248C50.0658 15.1524 50.1635 15.2823 50.2612 15.4098C50.7922 15.5847 51.3676 15.5708 51.8895 15.3704C52.5873 15.0735 52.9013 14.4751 53.3572 13.5729C53.7527 12.8029 54.176 11.9679 53.8271 11.5504Z" fill="#1F2466"/>
<path d="M60.7563 25.0886C60.4454 24.8044 60.0764 24.5908 59.6747 24.4624C58.6838 24.1562 57.8138 24.5088 57.2184 24.757C56.4973 25.0538 55.0551 25.8216 55.1761 26.4872C55.197 26.6078 55.2831 26.7864 55.8041 27.0601C56.9136 27.6399 57.6952 27.4358 58.6605 27.633C58.7815 27.6562 60.8726 28.0969 61.2774 29.3887C61.6472 30.5647 60.426 31.8821 59.6887 32.6776C58.9943 33.4319 58.1477 34.0311 57.2044 34.4357C56.8415 34.5888 54.0851 35.7461 53.0663 34.5934C52.6011 34.0646 52.6895 33.2644 52.7058 33.1299C52.7802 32.4828 53.1384 32.0769 53.8014 31.3463C54.3067 30.7535 54.9006 30.2419 55.5622 29.8294C56.8555 29.0385 58.2884 28.7277 58.3395 28.8576C58.3628 28.9133 58.1325 29.1011 56.9788 29.681C56.3144 30.0393 55.6906 30.4678 55.1179 30.959C54.241 31.7174 53.2361 32.5825 53.3966 33.5427C53.4146 33.7368 53.4964 33.9194 53.6292 34.0623C54.3736 34.8114 56.6113 33.6309 57.2346 33.3038C57.9235 32.9537 58.5574 32.5052 59.1164 31.9725C59.6956 31.3973 60.7703 30.3351 60.4795 29.4954C60.2911 28.9527 59.6119 28.7347 58.9559 28.5236C57.4812 28.0597 56.9323 28.577 55.7529 28.0969C55.5924 28.0342 54.1875 27.4613 54.1247 26.5266C54.0619 25.5919 55.4133 24.7639 55.9134 24.4624C56.2815 24.249 56.6714 24.0756 57.0765 23.9452C57.6952 23.7272 58.2069 23.5486 58.8652 23.6112C59.3316 23.623 59.7815 23.7858 60.1469 24.0751C60.4497 24.3424 60.6625 24.6964 60.7563 25.0886Z" fill="#1F2466"/>
<path d="M66.288 28.0737C66.2765 27.8617 66.189 27.6609 66.0414 27.5078C65.6949 27.1923 65.0947 27.3477 64.9063 27.3941C63.3967 27.7815 62.7058 29.8202 62.6105 30.1101C62.3779 30.8059 61.9313 32.1975 62.6105 32.7867C63.1757 33.2737 64.2387 32.9861 64.8458 32.6011C65.6832 32.07 65.9228 31.1863 66.2182 30.0939C66.3686 29.4308 66.3923 28.7455 66.288 28.0737ZM65.3087 29.9617C65.1529 30.6389 64.8993 31.736 64.0271 32.1442C63.9154 32.1975 63.4572 32.4132 63.2269 32.2254C62.7919 31.8705 63.5223 30.3699 63.6409 30.1217C64.1061 29.1592 64.9877 27.9183 65.3506 28.0714C65.7135 28.2245 65.3739 29.6833 65.3087 29.9617Z" fill="#1F2466"/>
<path d="M68.4212 27.7396C68.4902 27.6153 68.6044 27.522 68.7402 27.4789C68.876 27.4358 69.0232 27.4461 69.1516 27.5077C69.2088 27.5349 69.2566 27.5785 69.2888 27.6329C69.4284 27.8649 69.1748 28.2012 68.7282 29.0686C68.5311 29.4282 68.3556 29.7992 68.2025 30.1796C68.1677 30.2724 67.5559 31.9446 68.0537 32.2809C68.3398 32.4734 68.8631 32.1348 68.8887 32.1186C69.2214 31.8982 69.3121 31.606 69.7029 30.5739C70.0936 29.5418 69.9355 30.0196 70.2099 29.2704C70.5868 28.2591 70.7403 27.7674 70.9078 27.7837C70.9496 27.7837 71.0101 27.8208 71.0822 27.9901C71.3148 28.5375 71.0683 29.0663 70.6938 30.2677C70.4146 31.1723 70.3984 31.3625 70.1611 31.8519C69.9238 32.3412 69.8122 32.5662 69.5633 32.7796C68.9934 33.2643 67.9932 33.4267 67.4024 32.9652C67.0232 32.6706 66.9511 32.1928 66.9023 31.8658C66.7604 30.9125 67.1488 30.117 67.7745 28.8738C67.942 28.5607 68.1514 28.1687 68.4212 27.7396Z" fill="#1F2466"/>
<path d="M73.0171 29.0478C73.0636 28.9156 73.159 28.8275 73.2497 28.8368C73.3776 28.8484 73.4265 29.0988 73.4311 29.1267C73.4404 29.1796 73.4404 29.2338 73.4311 29.2867C73.4172 29.3772 73.3963 29.4908 73.3707 29.6161C73.3 29.9707 73.2004 30.319 73.0729 30.6575C72.9241 31.0564 72.8264 31.2141 72.8868 31.2698C73.045 31.4136 74.1011 30.6946 74.8082 29.674C75.2269 29.0733 75.6898 28.4054 75.4153 27.8812C75.1966 27.466 74.5849 27.2665 73.8824 27.3222C74.0894 27.0406 74.3949 26.8469 74.7384 26.7795C75.3827 26.6821 75.9735 27.1714 76.2061 27.633C76.7132 28.6373 75.7409 29.9524 75.406 30.3931C74.8262 31.1529 74.0469 31.7381 73.1543 32.0839C73.7813 32.3194 74.3854 32.6113 74.9594 32.956C75.2176 33.1137 75.8316 33.4825 75.7782 33.61C75.7502 33.6796 75.5153 33.6518 75.3129 33.61C74.8223 33.558 74.3437 33.4256 73.8964 33.218C73.1753 32.8817 72.8822 32.4967 72.4635 32.6057C72.0448 32.7147 71.8587 33.2204 71.7029 33.1531C71.6052 33.109 71.6168 32.8794 71.6261 32.7472C71.6738 32.2044 71.8221 31.6752 72.0634 31.1863C72.429 30.4956 72.7476 29.7812 73.0171 29.0478Z" fill="#1F2466"/>
<path d="M82.0423 27.4219C81.8748 27.4543 81.7608 27.9901 81.6445 28.4331C81.4747 29.0825 81.1933 29.7412 80.9723 30.3953C80.3745 32.1464 80.1861 32.3714 80.1349 33.0835C80.1 33.5473 80.121 34.3359 80.3187 34.3081C80.5885 34.2687 80.7839 32.7912 81.7934 30.4347C82.0516 29.834 82.0493 29.2565 82.2796 28.6581C82.3416 28.4855 82.3687 28.3024 82.3596 28.1193C82.3504 27.9362 82.305 27.7567 82.226 27.5912C82.1377 27.4242 82.0772 27.4149 82.0423 27.4219Z" fill="#E01327"/>
<path d="M88.9596 24.4926C88.9271 24.3094 87.8408 24.3952 86.9406 24.4416C86.7188 24.4509 86.4979 24.4578 86.2777 24.4625C86.3428 24.0775 86.3405 23.7806 86.2032 23.704C86.1079 23.653 85.9706 23.7203 85.8706 23.7852L85.6101 24.481C84.7401 24.481 83.8748 24.4602 83.0049 24.4625C82.4164 24.4625 81.9163 24.4625 81.4813 24.4625C81.52 24.1343 81.52 23.8026 81.4813 23.4744C81.4417 23.1219 81.3859 23.0685 81.3487 23.0616C81.1929 23.0384 80.9696 23.7574 80.7532 24.4532C79.1831 24.4346 78.6598 24.4091 77.5898 24.5784C76.6128 24.7338 74.9822 25.0771 74.9962 25.2998C75.0101 25.5224 77.0897 25.3346 80.4462 25.3786C80.1322 26.26 79.7693 27.1251 79.4436 28.0042C78.355 30.9312 78.1038 31.2513 77.8503 32.5385C77.6805 33.3967 77.4781 34.8579 77.6805 34.9089C77.9573 34.9808 78.5714 32.346 80.2392 28.5191C80.6648 27.5426 80.8277 26.4687 81.2277 25.483C81.2402 25.4534 81.2511 25.4233 81.2603 25.3926C81.7255 25.4065 82.2163 25.4227 82.7257 25.4459C83.5757 25.4538 84.4254 25.412 85.2705 25.3207C85.0565 25.8611 84.8681 26.3249 84.7122 26.6937C84.3028 27.6725 84.0353 28.2616 83.6841 29.2891C83.3003 30.4163 83.4329 30.2586 83.191 30.8477C82.8141 31.7592 82.4513 32.2393 82.6304 32.8192C82.7071 33.0697 82.8769 33.3294 83.0025 33.3109C83.27 33.2715 83.1351 32.0167 83.484 31.9193C83.6934 31.8659 83.8888 32.2718 84.3517 32.7055C84.7631 33.0821 85.2499 33.3674 85.7799 33.5428C85.9939 33.5614 86.2172 33.5637 86.2451 33.4779C86.2939 33.3503 85.8869 33.1184 85.2053 32.6104C84.1167 31.8033 84.0656 31.5899 84.0702 31.467C84.0702 31.2026 84.3307 31.0611 84.7913 30.6946C85.3307 30.2266 85.8432 29.7287 86.3265 29.2033C87.0709 28.424 87.7919 27.3988 87.6733 27.2852C87.5547 27.1715 86.1776 28.1804 85.0844 29.2705C84.6075 29.7344 84.3377 30.0823 84.2563 30.029C84.1074 29.9339 84.8657 28.7301 85.5775 26.7819C85.6589 26.5499 85.8915 25.9237 86.073 25.2859H86.3056C87.0788 25.278 87.8415 25.1064 88.5433 24.7826C88.9224 24.604 88.9666 24.5274 88.9596 24.4926Z" fill="#E01327"/>
<path d="M82.7195 27.2015C83.0033 27.2966 83.5429 26.7678 83.6011 26.2158C83.6215 26.1126 83.6176 26.0061 83.5898 25.9047C83.5619 25.8033 83.5108 25.7097 83.4406 25.6313C83.3288 25.558 83.1969 25.5211 83.0632 25.5256C82.9294 25.5302 82.8004 25.576 82.6939 25.6568C82.2217 26.007 82.3799 27.0879 82.7195 27.2015Z" fill="#E01327"/>
</svg>
