<svg width="91" height="37" viewBox="0 0 91 37" fill="none" xmlns="http://www.w3.org/2000/svg">
<path fill-rule="evenodd" clip-rule="evenodd" d="M62.519 7.0218C69.3811 1.44798 78.3244 1.14101 82.4914 6.35952C86.6585 11.578 84.5121 20.2046 77.6573 25.7809C70.8024 31.3571 61.8495 31.6617 57.6848 26.4552C53.5201 21.2488 55.6617 12.5473 62.519 7.03389V7.0218ZM60.8029 5.13405C69.3183 -1.90937 81.0823 -1.66524 87.1492 5.61747C93.2161 12.9002 91.193 24.5482 82.738 31.594C77.6621 35.8215 71.4042 37.4143 65.8908 36.4282C67.9137 36.4813 69.9342 36.2543 71.8949 35.7538C75.7623 34.7749 75.5085 30.7915 71.2205 32.1282C58.1682 36.2372 50.0855 25.6963 54.3734 13.6881C55.7681 10.3369 57.9792 7.3879 60.8053 5.10988L60.8029 5.13405Z" fill="url(#paint0_linear)"/>
<path fill-rule="evenodd" clip-rule="evenodd" d="M67.3577 9.41238H67.4206L67.6623 9.28911C69.9295 8.18691 68.4599 5.36858 66.1927 6.5312C65.2751 7.03213 64.4123 7.62755 63.6185 8.30776C61.0816 10.3295 59.1348 12.9959 57.9818 16.028C57.1262 18.4161 56.9425 21.174 57.9818 23.5645C58.2474 24.2009 58.5978 24.7985 59.0236 25.341C59.2108 25.5804 59.416 25.805 59.6375 26.013C58.2284 22.5831 58.7795 18.4161 60.9839 14.9258C62.5227 12.5044 64.738 10.5875 67.3553 9.41238" fill="url(#paint1_linear)"/>
<path d="M36.4215 14.6792C36.4215 17.193 36.4819 19.6415 36.4215 22.0925C36.4072 23.0734 36.1933 24.0412 35.7927 24.9367C35.3921 25.8323 34.8132 26.6368 34.0914 27.3013C32.1311 29.1383 29.0155 29.5057 26.5573 28.2802C26.3465 28.1907 26.1415 28.0881 25.9434 27.9732C25.9434 28.3431 25.883 28.5872 25.883 28.9546H25.2086C19.2674 28.9546 13.3237 28.8942 7.44293 28.9546C3.52241 29.015 1.07147 26.5641 0.45753 23.0109C0.21582 21.6646 0.273831 20.2555 0.21582 18.9019V15.9047C0.21582 15.6001 0.276247 15.4213 0.583218 15.3536C1.38086 15.1119 2.11566 14.8702 2.91088 14.6285C3.01653 14.6243 3.12168 14.645 3.21785 14.6889V22.5324C3.21785 23.8787 3.45956 25.1042 4.19919 26.2692C4.93882 27.4342 5.91291 27.9829 7.26165 27.9829H23.067V14.7421H25.8346V24.5434C25.8346 26.2595 26.6306 27.3625 28.2227 27.8524C29.9388 28.3358 31.348 27.8524 32.2665 26.4432C32.8938 25.4747 33.234 24.3484 33.2478 23.1946C33.3091 20.929 33.3091 18.6626 33.2478 16.3954C33.2478 15.8443 33.3687 15.4769 33.9198 15.3536C34.5942 15.1699 35.2081 14.9258 35.8801 14.7421C36.0508 14.6696 36.2387 14.6478 36.4215 14.6792Z" fill="#1A2334"/>
<path d="M37.5234 34.5283V14.7419H40.2185V24.6037C40.2185 26.1966 40.8929 27.2383 42.3625 27.729C44.0182 28.3429 45.4249 27.9707 46.4063 26.7622C47.3248 25.5971 47.6922 24.188 47.6922 22.7184V16.0883C47.6725 15.9431 47.7049 15.7957 47.7837 15.6722C47.8624 15.5487 47.9825 15.4572 48.1224 15.4139C49.7757 14.7419 49.8361 14.6888 50.6338 14.8024C50.6404 14.8488 50.6616 14.892 50.6942 14.9256C50.6942 17.3766 50.757 19.8251 50.6338 22.276C50.5551 24.181 49.7427 25.9816 48.3665 27.3012C46.4667 29.1382 43.2906 29.566 40.8324 28.3429C40.619 28.2173 40.393 28.1144 40.1581 28.036V33.4889C40.1537 33.6397 40.1113 33.7868 40.0348 33.9168C39.3 34.1005 38.5652 34.6516 37.5234 34.5283Z" fill="#1A2334"/>
<path d="M9.34233 30.6078C9.8771 30.6128 10.3885 30.8277 10.7664 31.2061C11.1444 31.5845 11.3586 32.0961 11.363 32.6309C11.3478 33.162 11.13 33.6672 10.7543 34.0429C10.3786 34.4186 9.87344 34.6364 9.34233 34.6516C8.79474 34.6358 8.27392 34.4112 7.88656 34.0238C7.49919 33.6365 7.2746 33.1156 7.25879 32.568C7.25879 31.5287 8.23772 30.6078 9.34233 30.6078Z" fill="#1A2334"/>
<path d="M28.5167 30.6078C29.0452 30.6181 29.551 30.8243 29.936 31.1866C30.321 31.5488 30.5577 32.0411 30.6002 32.568C30.5952 33.1191 30.374 33.6461 29.9844 34.0358C29.5947 34.4254 29.0677 34.6465 28.5167 34.6516C27.9925 34.6335 27.4959 34.4125 27.1315 34.0353C26.7671 33.6581 26.5635 33.1541 26.5635 32.6297C26.5635 32.1052 26.7671 31.6013 27.1315 31.2241C27.4959 30.8469 27.9925 30.6259 28.5167 30.6078Z" fill="#1A2334"/>
<path d="M51.2455 5.30566C51.2404 5.84001 51.0259 6.35106 50.6481 6.72893C50.2702 7.10679 49.7591 7.32131 49.2248 7.32635C48.6933 7.31111 48.1878 7.093 47.812 6.71678C47.4362 6.34056 47.2187 5.83477 47.2041 5.30324C47.2085 4.76869 47.4228 4.25728 47.8008 3.87928C48.1788 3.50128 48.6902 3.28697 49.2248 3.28255C50.3898 3.21729 51.2455 4.14303 51.2455 5.30566Z" fill="#1A2334"/>
<path d="M33.5402 30.6078C33.9405 30.6073 34.3318 30.7256 34.6649 30.9476C34.9979 31.1696 35.2576 31.4854 35.4111 31.855C35.5645 32.2246 35.605 32.6315 35.5272 33.0241C35.4494 33.4167 35.2569 33.7774 34.974 34.0606C34.6912 34.3438 34.3307 34.5367 33.9382 34.615C33.5457 34.6932 33.1388 34.6533 32.769 34.5002C32.3992 34.3472 32.0831 34.0879 31.8607 33.7551C31.6382 33.4224 31.5195 33.0311 31.5195 32.6309C31.5239 32.0961 31.7382 31.5845 32.1161 31.2061C32.494 30.8277 33.0054 30.6128 33.5402 30.6078Z" fill="#1A2334"/>
<path d="M17.3066 32.631C17.3116 32.3647 17.3697 32.1021 17.4775 31.8586C17.5854 31.6151 17.7408 31.3955 17.9347 31.2129C18.1285 31.0303 18.3569 30.8883 18.6065 30.7952C18.856 30.7021 19.1216 30.6598 19.3878 30.6708C19.9225 30.6752 20.4342 30.8894 20.8126 31.2674C21.191 31.6453 21.4058 32.1567 21.4109 32.6915C21.3921 33.2325 21.1648 33.7453 20.7764 34.1224C20.388 34.4996 19.8687 34.7118 19.3273 34.7146C18.7931 34.6769 18.2916 34.4435 17.9187 34.0591C17.5459 33.6746 17.3279 33.1662 17.3066 32.631Z" fill="#1A2334"/>
<path d="M16.3864 32.6913C16.3864 33.2362 16.1699 33.7588 15.7846 34.1441C15.3993 34.5294 14.8768 34.7458 14.3319 34.7458C13.787 34.7458 13.2644 34.5294 12.8791 34.1441C12.4938 33.7588 12.2773 33.2362 12.2773 32.6913C12.2961 32.1505 12.5235 31.6379 12.912 31.2612C13.3005 30.8844 13.8197 30.6728 14.3609 30.6706C14.6275 30.667 14.892 30.7168 15.1391 30.8171C15.3861 30.9173 15.6106 31.0659 15.7994 31.2542C15.9881 31.4425 16.1373 31.6666 16.2381 31.9134C16.3389 32.1602 16.3893 32.4247 16.3864 32.6913Z" fill="#1A2334"/>
<path d="M51.2451 10.3308C51.2407 10.8654 51.0264 11.3768 50.6484 11.7548C50.2704 12.1328 49.759 12.3471 49.2245 12.3515C48.6796 12.3515 48.157 12.135 47.7717 11.7497C47.3864 11.3644 47.1699 10.8419 47.1699 10.297C47.1699 9.75207 47.3864 9.22949 47.7717 8.84419C48.157 8.45889 48.6796 8.24243 49.2245 8.24243C50.3895 8.30769 51.308 9.22861 51.2451 10.3308Z" fill="#1A2334"/>
<path d="M45.4875 30.3033H46.8967V31.6496C47.0176 31.4659 47.2037 31.2822 47.3245 31.0985L47.8079 30.6151C47.9781 30.4908 48.1633 30.3885 48.359 30.3105C48.5348 30.2398 48.721 30.1982 48.9101 30.1873C49.0562 30.1776 49.2027 30.1982 49.3404 30.2477L49.7078 30.4314C49.8025 30.4964 49.8844 30.5784 49.9495 30.6731C49.9934 30.7684 50.0141 30.8728 50.0099 30.9777C50.0098 31.0816 49.9883 31.1843 49.9467 31.2796C49.9051 31.3748 49.8443 31.4605 49.7682 31.5312C49.5885 31.6548 49.3747 31.719 49.1567 31.7149C49.0309 31.725 48.9046 31.7034 48.7893 31.652C48.7264 31.5916 48.6032 31.5916 48.5476 31.5312C48.492 31.4707 48.3639 31.4683 48.3059 31.4079C48.2119 31.3573 48.1052 31.3354 47.9989 31.3451C47.8756 31.3451 47.8152 31.4079 47.6919 31.4079C47.5766 31.4694 47.4734 31.5513 47.3874 31.6496C47.2641 31.7729 47.2037 31.8913 47.0804 32.017C46.9571 32.1427 46.8967 32.324 46.7734 32.4472V34.5284H45.3643V30.3033H45.4875Z" fill="#BEA27C"/>
<path d="M44.1397 30.3033C44.2459 30.2873 44.3544 30.3086 44.4466 30.3637C44.538 30.4093 44.6199 30.4716 44.6884 30.5474C44.7512 30.6078 44.8116 30.7311 44.8721 30.7891C44.9227 30.8831 44.9445 30.9898 44.9349 31.0961C44.9512 31.2026 44.9289 31.3115 44.8721 31.403C44.8272 31.4949 44.7648 31.577 44.6884 31.6448C44.6279 31.7076 44.5047 31.768 44.4466 31.8285C44.3527 31.8791 44.2459 31.9009 44.1397 31.8913C44.0331 31.9072 43.9244 31.8849 43.8327 31.8285C43.7413 31.783 43.6593 31.7207 43.591 31.6448C43.5306 31.5843 43.4677 31.4611 43.4073 31.403C43.3584 31.3085 43.3375 31.2021 43.3469 31.0961C43.3311 30.9898 43.3524 30.8814 43.4073 30.7891C43.4535 30.6982 43.5158 30.6163 43.591 30.5474C43.6514 30.487 43.7747 30.4241 43.8327 30.3637C43.956 30.3637 44.0188 30.3033 44.1397 30.3033ZM43.4653 32.6914L44.4466 32.2635H44.8745V34.6516H43.4653V32.6914Z" fill="#BEA27C"/>
<path d="M42.0556 33.0587C42.1788 33.0587 42.2973 33.0587 42.3625 33.1216C42.4538 33.1673 42.5358 33.2296 42.6043 33.3053C42.6647 33.3657 42.7251 33.489 42.788 33.547C42.8484 33.7463 42.8484 33.9591 42.788 34.1585C42.7406 34.2487 42.6785 34.3304 42.6043 34.4002C42.5414 34.4606 42.4206 34.5211 42.3625 34.5839C42.268 34.6328 42.1615 34.6537 42.0556 34.6443C41.9501 34.6602 41.8424 34.6388 41.751 34.5839C41.6608 34.5365 41.5791 34.4745 41.5093 34.4002C41.4489 34.3374 41.3884 34.2165 41.3256 34.1585C41.2652 33.9591 41.2652 33.7463 41.3256 33.547C41.372 33.4561 41.4342 33.3743 41.5093 33.3053C41.5722 33.2424 41.693 33.182 41.751 33.1216C41.809 33.0611 41.9347 33.0587 42.0556 33.0587Z" fill="#BEA27C"/>
<defs>
<linearGradient id="paint0_linear" x1="71.9336" y1="-0.0119456" x2="71.9336" y2="36.7086" gradientUnits="userSpaceOnUse">
<stop stop-color="#42769B"/>
<stop offset="0.17" stop-color="#497CA0"/>
<stop offset="0.41" stop-color="#5B8BAD"/>
<stop offset="0.7" stop-color="#79A5C3"/>
<stop offset="1" stop-color="#A1C8E0"/>
</linearGradient>
<linearGradient id="paint1_linear" x1="68.5681" y1="16.1343" x2="57.0608" y2="16.1343" gradientUnits="userSpaceOnUse">
<stop stop-color="#3D7595"/>
<stop offset="0.17" stop-color="#447A9A"/>
<stop offset="0.4" stop-color="#568AA8"/>
<stop offset="0.68" stop-color="#74A2BE"/>
<stop offset="0.98" stop-color="#9DC5DD"/>
<stop offset="1" stop-color="#A0C7DF"/>
</linearGradient>
</defs>
</svg>
