<svg width="13" height="14" viewBox="0 0 13 14" fill="none" xmlns="http://www.w3.org/2000/svg">
<path d="M6.5 1.64062C9.49609 1.64062 11.9844 4.10352 11.9844 7.125C11.9844 10.1719 9.52148 12.6094 6.5 12.6094C3.45312 12.6094 1.01562 10.1719 1.01562 7.125C1.01562 4.10352 3.45312 1.64062 6.5 1.64062ZM6.5 0.828125C3.02148 0.828125 0.203125 3.67188 0.203125 7.125C0.203125 10.6035 3.02148 13.4219 6.5 13.4219C9.95312 13.4219 12.7969 10.6035 12.7969 7.125C12.7969 3.67188 9.95312 0.828125 6.5 0.828125ZM5.58594 9.5625C5.4082 9.5625 5.28125 9.71484 5.28125 9.86719V10.0703C5.28125 10.248 5.4082 10.375 5.58594 10.375H7.41406C7.56641 10.375 7.71875 10.248 7.71875 10.0703V9.86719C7.71875 9.71484 7.56641 9.5625 7.41406 9.5625H7.10938V6.00781C7.10938 5.85547 6.95703 5.70312 6.80469 5.70312H5.58594C5.4082 5.70312 5.28125 5.85547 5.28125 6.00781V6.21094C5.28125 6.38867 5.4082 6.51562 5.58594 6.51562H5.89062V9.5625H5.58594ZM6.5 3.46875C6.04297 3.46875 5.6875 3.84961 5.6875 4.28125C5.6875 4.73828 6.04297 5.09375 6.5 5.09375C6.93164 5.09375 7.3125 4.73828 7.3125 4.28125C7.3125 3.84961 6.93164 3.46875 6.5 3.46875Z" fill="#B3B3B3"/>
</svg>
