<svg width="12" height="14" viewBox="0 0 12 14" fill="none" xmlns="http://www.w3.org/2000/svg">
<path d="M1.8125 5.375C1.8125 5.15625 1.71875 4.96875 1.53125 4.78125C1.34375 4.625 1.15625 4.53125 0.90625 4.53125C0.65625 4.53125 0.46875 4.625 0.28125 4.78125C0.09375 4.96875 0 5.15625 0 5.375V9C0 9.25 0.09375 9.46875 0.28125 9.625C0.46875 9.8125 0.6875 9.875 0.9375 9.875C1.1875 9.875 1.375 9.8125 1.5625 9.625C1.71875 9.46875 1.8125 9.25 1.8125 9V5.375ZM2.125 10.2812V4.6875H9.875V10.2812C9.875 10.5625 9.78125 10.7812 9.59375 10.9688C9.40625 11.1562 9.1875 11.2188 8.9375 11.2188H8.3125V13.125C8.3125 13.5 8.15625 13.7812 7.875 13.9062C7.5625 14.0312 7.28125 14.0312 7 13.9062C6.71875 13.7812 6.59375 13.5 6.59375 13.125V11.2188H5.40625V13.125C5.40625 13.5 5.25 13.75 4.96875 13.875C4.6875 14.0312 4.40625 14.0312 4.125 13.9062C3.8125 13.7812 3.6875 13.5 3.6875 13.125V11.2188H3.0625C2.8125 11.2188 2.59375 11.1562 2.40625 10.9688C2.21875 10.7812 2.125 10.5625 2.125 10.2812ZM9.875 4.375C9.875 3.75 9.6875 3.15625 9.34375 2.59375C8.96875 2.03125 8.5 1.59375 7.90625 1.28125L8.5 0.1875C8.53125 0.125 8.5 0.0625 8.4375 0.03125C8.375 0 8.3125 0 8.3125 0.0625L7.6875 1.15625C7.15625 0.9375 6.59375 0.8125 6 0.8125C5.40625 0.8125 4.84375 0.9375 4.3125 1.15625L3.6875 0.0625C3.65625 0 3.59375 0 3.53125 0.03125C3.46875 0.0625 3.4375 0.125 3.5 0.1875L4.09375 1.28125C3.46875 1.59375 3 2.03125 2.625 2.59375C2.25 3.15625 2.09375 3.75 2.09375 4.375H9.875ZM4.5625 2.65625C4.5625 2.75 4.53125 2.8125 4.46875 2.875C4.40625 2.9375 4.3125 2.96875 4.21875 2.96875C4.125 2.96875 4.0625 2.9375 4 2.875C3.9375 2.8125 3.90625 2.75 3.90625 2.65625C3.90625 2.59375 3.9375 2.5 4 2.4375C4.0625 2.375 4.125 2.3125 4.21875 2.3125C4.3125 2.3125 4.40625 2.375 4.46875 2.4375C4.53125 2.5 4.5625 2.59375 4.5625 2.65625ZM8.09375 2.65625C8.09375 2.75 8.0625 2.8125 8 2.875C7.9375 2.9375 7.84375 2.96875 7.78125 2.96875C7.6875 2.96875 7.59375 2.9375 7.53125 2.875C7.46875 2.8125 7.4375 2.75 7.4375 2.65625C7.4375 2.59375 7.46875 2.5 7.53125 2.4375C7.59375 2.375 7.6875 2.3125 7.78125 2.3125C7.84375 2.3125 7.9375 2.375 8 2.4375C8.0625 2.5 8.09375 2.59375 8.09375 2.65625ZM11.0625 4.53125C11.3125 4.53125 11.5312 4.625 11.7188 4.78125C11.9062 4.96875 12 5.15625 12 5.375V9C12 9.25 11.9062 9.46875 11.7188 9.625C11.5312 9.8125 11.3125 9.875 11.0625 9.875C10.8125 9.875 10.625 9.8125 10.4375 9.625C10.25 9.46875 10.1875 9.25 10.1875 9V5.40625C10.1875 5.15625 10.25 4.96875 10.4375 4.78125C10.625 4.625 10.8125 4.53125 11.0625 4.53125Z" fill="#666666"/>
</svg>
