<svg width="56" height="56" viewBox="0 0 56 56" fill="none" xmlns="http://www.w3.org/2000/svg">
<path opacity="0.3" fill-rule="evenodd" clip-rule="evenodd" d="M28 56C43.464 56 56 43.464 56 28C56 12.536 43.464 0 28 0C12.536 0 0 12.536 0 28C0 43.464 12.536 56 28 56ZM17.7832 27.8945L16.8555 26.918C16.6113 26.7227 16.6113 26.332 16.8555 26.0879L27.0605 15.8828C27.3047 15.6387 27.6465 15.6387 27.8906 15.8828L38.0957 26.0879C38.3398 26.332 38.3398 26.7227 38.0957 26.918L37.168 27.8945C36.9238 28.1387 36.5332 28.1387 36.3379 27.8945L28.7695 20.3262V36.9766C28.7695 37.3184 28.4766 37.5625 28.1836 37.5625H26.8164C26.4746 37.5625 26.2305 37.3184 26.2305 36.9766V20.3262L18.6133 27.8945C18.418 28.1387 18.0273 28.1387 17.7832 27.8945Z" fill="black"/>
</svg>
