<svg width="14" height="14" viewBox="0 0 14 14" fill="none" xmlns="http://www.w3.org/2000/svg">
<path d="M8.97266 5.15234C8.69336 4.87305 8.38867 4.66992 8.05859 4.49219C7.93164 4.44141 7.80469 4.4668 7.70312 4.56836L7.60156 4.66992C7.37305 4.87305 7.24609 5.15234 7.2207 5.43164C7.19531 5.55859 7.27148 5.68555 7.37305 5.76172C7.55078 5.83789 7.83008 6.01562 7.95703 6.16797C8.79492 7.00586 8.79492 8.35156 7.95703 9.18945L6.05273 11.0938C5.21484 11.9316 3.86914 11.9316 3.03125 11.0938C2.19336 10.2559 2.19336 8.91016 3.03125 8.07227L4.19922 6.9043C4.27539 6.82812 4.30078 6.72656 4.27539 6.625C4.22461 6.37109 4.17383 5.93945 4.14844 5.66016C4.14844 5.40625 3.81836 5.2793 3.64062 5.45703C3.33594 5.76172 2.85352 6.24414 2.04102 7.05664C0.644531 8.45312 0.644531 10.7129 2.04102 12.084C3.41211 13.4805 5.67188 13.4805 7.06836 12.084C9.15039 10.002 9.04883 10.1035 9.20117 9.90039C10.3438 8.5293 10.2676 6.44727 8.97266 5.15234ZM12.9336 1.19141C11.5625 -0.205078 9.30273 -0.205078 7.90625 1.19141C5.82422 3.27344 5.92578 3.17188 5.77344 3.375C4.63086 4.74609 4.70703 6.82812 6.00195 8.12305C6.28125 8.40234 6.58594 8.60547 6.91602 8.7832C7.04297 8.83398 7.16992 8.80859 7.27148 8.70703L7.37305 8.60547C7.60156 8.40234 7.72852 8.12305 7.75391 7.84375C7.7793 7.7168 7.70312 7.58984 7.60156 7.51367C7.42383 7.4375 7.14453 7.25977 7.01758 7.10742C6.17969 6.26953 6.17969 4.92383 7.01758 4.08594L8.92188 2.18164C9.75977 1.34375 11.1055 1.34375 11.9434 2.18164C12.7812 3.01953 12.7812 4.36523 11.9434 5.20312L10.7754 6.37109C10.6992 6.44727 10.6738 6.54883 10.6992 6.65039C10.75 6.9043 10.8008 7.33594 10.8262 7.61523C10.8262 7.86914 11.1562 7.99609 11.334 7.81836C11.6387 7.51367 12.1211 7.03125 12.9336 6.21875C14.3301 4.82227 14.3301 2.5625 12.9336 1.19141Z" fill="#EB384D"/>
</svg>
