<svg width="305" height="237" viewBox="0 0 305 237" fill="none" xmlns="http://www.w3.org/2000/svg">
<g opacity="0.15">
<path d="M26.6156 160.598L6.33496 212.128H12.7504L53.134 168.008L26.6156 160.598Z" fill="url(#paint0_linear)"/>
<path d="M18.6807 180.753C18.6807 180.753 26.5021 174.867 45.3445 176.521L53.1336 168.008L24.7568 165.317L18.6807 180.753Z" fill="#666666"/>
<path d="M268.933 151L279.016 202.967H288.05L291.492 151.972C291.508 151.989 275.558 151.664 268.933 151Z" fill="#404040"/>
<path d="M270.323 158.101L272.731 170.538C272.731 170.538 286.015 157.761 291.089 158.101L291.509 154.242L270.323 158.101Z" fill="#1A1A1A"/>
<path d="M3.60366 25.2408L0 27.3487L22.6077 163.793L26.6154 165.317L34.9539 161.182L3.60366 25.2408Z" fill="#404040"/>
<path d="M157.672 178.596L293.334 153.918L295.807 148.973L158.868 169.922L157.672 178.596Z" fill="#666666"/>
<path d="M193.595 80.694H193.482L16.499 94.1195L31.5924 5.3783C41.3691 4.45408 51.1943 3.5785 60.9872 2.81643C96.7329 0.0599888 131.897 -1.18852 161.372 1.47064C162.568 1.58414 163.732 1.69764 164.879 1.81114C165.008 1.79493 165.235 1.77871 165.105 1.79493C165.041 1.79493 165.008 1.81114 164.96 1.81114C166.301 4.03251 168.111 8.02124 169.598 11.6046C169.953 12.464 170.293 13.3071 170.6 14.1016C176.353 28.6783 182.348 46.4493 183.059 49.4814C183.075 49.5462 183.091 49.5949 183.091 49.6435C183.124 49.7894 183.156 49.8705 183.156 49.8705C186.178 60.426 191.753 72.6192 193.595 80.694Z" fill="url(#paint1_linear)"/>
<path d="M298.861 89.9038C298.861 89.9038 298.99 90.3415 299.2 91.1198C298.409 91.2009 297.633 91.2658 296.841 91.3468H296.76C294.87 91.5414 292.995 91.736 291.104 91.9306C251.9 95.8544 215.282 99.2919 191.317 101.481H191.301C174.85 102.989 164.33 103.913 163.053 104.026C163.005 104.026 162.972 104.026 162.924 104.043L16.79 94.1033L188.699 79.0563C200.011 78.6996 212.826 79.2833 225.56 80.3697C249.331 81.6831 279.162 84.3098 297.778 89.5957C297.972 89.6281 298.166 89.693 298.36 89.7416C298.392 89.7578 298.425 89.7578 298.441 89.774C298.57 89.8227 298.732 89.8551 298.861 89.9038Z" fill="#CCCCCC"/>
<path d="M299.201 91.1361C300.251 95.1573 303.467 117.728 303.305 132.937C303.305 132.937 303.305 132.937 303.305 132.953C303.273 137.866 302.853 142.957 301.916 147.984V148L298.845 148.502L162.908 170.392C162.908 170.376 162.908 170.359 162.924 170.343C162.957 170.149 162.989 169.954 163.021 169.759C163.086 169.419 163.151 169.078 163.199 168.738C163.199 168.722 163.199 168.706 163.215 168.673C163.441 167.425 163.668 166.16 163.862 164.944C166.447 149.346 167.207 135.58 165.219 123.241C165.154 122.803 165.074 122.381 165.009 121.943C164.492 118.927 163.797 106.913 162.924 104.075C162.973 104.059 163.005 104.059 163.054 104.059L163.07 104.043C163.167 104.027 163.296 103.994 163.49 103.962C197.846 97.411 223.088 93.4872 250.867 91.6063C250.996 91.5901 251.109 91.5901 251.222 91.5901C251.384 91.5739 251.513 91.5739 251.675 91.5577C251.723 91.5577 251.755 91.5577 251.755 91.5577C261.516 90.8929 271.616 90.5037 282.54 90.3254C286.919 90.2605 291.428 90.2281 296.114 90.2281C296.68 90.1308 297.213 90.0173 297.763 89.92C297.956 89.8876 298.15 89.8389 298.344 89.8065C298.377 89.8227 298.409 89.8227 298.425 89.8389C298.571 89.8714 298.716 89.9038 298.861 89.9524C298.861 89.9038 298.991 90.3416 299.201 91.1361Z" fill="url(#paint2_linear)"/>
<path d="M16.7734 94.1195L26.6148 160.598L162.73 170.359C162.843 170.376 162.907 170.376 162.907 170.376C168.305 147.367 168.305 121.23 162.907 104.075L16.7734 94.1195Z" fill="url(#paint3_linear)"/>
<path d="M129.117 101.757C129.117 101.757 83.4658 98.919 61.3105 97.1516C61.3105 97.1516 121.716 98.4326 127.905 99.4541L140.736 101.902C140.736 101.902 131.445 102.227 129.117 101.757Z" fill="#F2F2F2"/>
<path d="M301.915 147.984L298.845 148.47C299.313 145.551 299.636 142.763 299.863 140.168C302.675 109.766 292.397 92.2062 292.397 92.2062C257.249 85.4286 222.328 81.3588 189.054 79.105C188.925 79.0888 188.812 79.0888 188.683 79.0888C259.528 78.9915 296.453 89.1417 298.344 89.7579C308.476 114.517 301.915 146.103 301.915 147.984Z" fill="#DDDDDD"/>
<path d="M192.965 78.878L190.654 79.0888C190.654 79.0888 178.922 37.4179 167.077 11.2479C165.445 7.64829 163.344 4.47028 161.356 1.50305C162.568 1.61655 163.764 1.73005 164.944 1.84355C164.944 1.84355 164.976 1.92463 165.073 2.10298C165.542 3.04342 167.222 6.46464 169.501 11.6208C173.185 20.0847 178.179 33.8345 182.461 47.568C182.591 47.9734 182.704 48.4112 182.817 48.8166C182.881 49.0436 182.946 49.2868 183.027 49.5138C183.043 49.5786 183.059 49.6273 183.059 49.6759C183.092 49.8218 183.124 49.9029 183.124 49.9029C186.178 60.426 191.139 70.8032 192.965 78.878Z" fill="#F2F2F2"/>
<path d="M298.424 89.7903C298.004 89.8552 297.762 89.9038 297.762 89.9038V89.6119C297.956 89.6444 298.15 89.7092 298.343 89.7579C298.376 89.7741 298.408 89.7741 298.424 89.7903Z" fill="#F2F2F2"/>
<path opacity="0.38" d="M169.599 11.6371C169.582 11.6371 169.534 11.6208 169.518 11.6208C169.453 11.6208 182.543 47.5681 182.478 47.5681C181.832 47.4708 154.812 10.421 153.972 10.1291C134.16 3.18938 97.0406 0.757227 60.9717 2.83267C96.7174 0.0762241 131.881 -1.17228 161.357 1.48687C162.553 1.60037 163.716 1.71387 164.864 1.82737H164.944C166.318 4.04874 168.112 8.05369 169.599 11.6371Z" fill="#CCCCCC"/>
<path opacity="0.6" d="M76.6621 98.1731C77.2115 98.2217 77.7448 98.2866 78.3104 98.3677C77.8741 98.319 77.3247 98.2542 76.6621 98.1731Z" fill="#909090"/>
<path d="M157.51 103.41C157.51 103.41 115.43 102.324 98.6559 101.124C81.8819 99.9243 57.6582 96.876 57.6582 96.876C57.6582 96.876 84.0635 98.3677 98.769 99.5838C113.474 100.8 141.932 101.773 157.51 103.41Z" fill="#F2F2F2"/>
<path opacity="0.5" d="M251.755 91.5251C251.755 91.5251 181.023 99.5026 177.048 107.74C173.073 115.993 167.53 160.874 162.73 170.343C162.73 170.343 171.57 133.796 162.908 104.059C162.924 104.059 212.745 93.1142 251.755 91.5251Z" fill="url(#paint4_linear)"/>
<path opacity="0.4" d="M303.305 132.953C303.273 137.866 302.852 142.957 301.915 147.984L298.861 148.486H298.845L162.94 170.343L162.746 170.376L162.762 170.343L163.877 164.944L165.105 159.009C165.105 159.009 165.154 159.026 165.251 159.074C165.429 159.155 165.816 159.317 166.334 159.544C169 160.663 175.496 163.128 180.845 163.128C187.778 163.128 289.892 147.935 294.433 146.184C296.388 145.438 298.311 142.876 299.847 140.201C300.154 139.666 300.461 139.131 300.735 138.579C300.832 138.417 300.913 138.239 300.994 138.06C302.351 135.482 303.192 133.245 303.305 132.953Z" fill="#666666"/>
<path d="M17.4203 97.8164L53.1337 96.6003C53.1337 96.6003 19.4726 96.8273 16.79 94.1357L17.4203 97.8164Z" fill="#666666"/>
<path d="M61.3105 90.228C61.3105 90.228 100.369 80.6453 115.285 78.9753C130.2 77.3052 168.305 80.6778 168.305 80.6778L61.3105 90.228Z" fill="#666666"/>
<path d="M3.13477 22.6953C10.7138 16.4852 17.0484 11.0858 31.5762 5.39453L53.1173 96.6003L17.2262 97.8164L3.13477 22.6953Z" fill="url(#paint5_linear)"/>
<path opacity="0.4" d="M11.0371 58.6749L16.7739 94.1195L26.6153 160.598L162.73 170.359C157.834 169.857 58.4018 159.123 48.2534 152.216C34.9376 143.136 27.5202 95.9842 27.5202 95.9842C27.5202 95.9842 50.241 95.3518 75.5636 98.0596C65.496 96.8273 37.911 93.3088 30.3805 90.4064C21.2825 86.8555 11.3441 59.5181 11.0371 58.6749Z" fill="#404040"/>
<path d="M26.6152 160.598V165.317L157.672 178.596L158.868 169.922L26.6152 160.598Z" fill="#404040"/>
<path d="M137.101 176.521L148.655 236.028H158.997L162.94 177.656C162.924 177.656 144.663 177.283 137.101 176.521Z" fill="url(#paint6_linear)"/>
<path d="M162.746 185.958C162.746 185.958 143.613 190.06 142.223 202.966L137.084 176.505L162.924 177.64L162.746 185.958Z" fill="#666666"/>
<path d="M242.043 88.104C229.373 93.3737 202.645 94.1519 202.645 94.1519L175.949 80.8399L126.839 56.3238C126.839 56.3238 126.871 56.3238 126.887 56.2914C174.026 34.4507 234.884 53.8268 234.884 53.8268L236.354 55.886C244.37 68.2738 242.043 88.104 242.043 88.104Z" fill="url(#paint7_linear)"/>
<path d="M202.645 94.152C202.645 94.152 146.861 99.7621 116.545 89.6282C116.448 89.5795 116.351 89.5471 116.271 89.5309C116.141 89.4822 115.996 89.4336 115.899 89.3525C115.818 89.3039 115.753 89.2552 115.705 89.2066C115.608 89.1579 115.527 89.0606 115.463 88.9796C114.8 88.3148 114.461 87.0825 114.412 85.5097C114.364 84.6179 114.412 83.9531 114.412 83.9531C114.461 83.0451 119.018 82.0398 119.195 80.9697C120.698 71.8734 122.04 58.529 126.839 56.2914C126.839 56.2914 126.871 56.2914 126.888 56.259C128.342 55.8699 167.804 44.7468 200.092 60.7666C200.092 60.7666 200.609 62.1124 201.32 64.3338C203.534 71.2249 207.445 86.3366 202.645 94.152Z" fill="url(#paint8_linear)"/>
<path opacity="0.3" d="M119.195 80.9858C119.195 80.9858 149.285 87.9256 168.742 86.6933L182.526 89.5308L178.001 84.0017C178.001 84.0017 187.051 77.6943 189.879 67.6738L189.071 60.9773L186.501 64.5769C186.501 64.5769 148.8 57.702 132.867 63.3446L126.823 64.3823L133.028 65.9389C133.028 65.9389 135.048 74.2731 137.569 75.2622C140.09 76.2512 165.574 75.6675 165.574 75.6675L171.634 68.7115L165.041 72.9759C165.041 72.9759 145.229 73.284 142.498 72.1652C139.767 71.0302 136.923 66.7496 137.553 64.3823C138.183 62.015 177.759 61.7232 184.578 67.69C184.578 67.69 179.456 79.4941 164.896 84.0179C164.896 84.0179 129.538 82.283 119.874 76.5755L119.195 80.9858Z" fill="#DDDDDD"/>
<g style="mix-blend-mode:multiply" opacity="0.3">
<path d="M242.043 88.1039C229.374 93.3736 202.645 94.1519 202.645 94.1519C202.645 94.1519 146.861 99.7621 116.545 89.6281C116.448 89.5794 116.351 89.547 116.271 89.5308C116.141 89.4822 115.996 89.4335 115.899 89.3524C115.818 89.3038 115.753 89.2552 115.705 89.2065C115.608 89.1579 115.527 89.0606 115.463 88.9795C114.719 88.1364 114.477 86.6609 114.412 85.5096C114.364 84.6179 114.412 83.9531 114.412 83.9531C141.108 90.1469 161.583 86.5636 175.949 80.8237C192.917 74.0623 201.32 64.3499 201.32 64.3499C222.877 70.9978 234.884 53.8268 234.884 53.8268L236.355 55.886C244.37 68.2738 242.043 88.1039 242.043 88.1039Z" fill="#F2F2F2"/>
</g>
</g>
<defs>
<linearGradient id="paint0_linear" x1="29.7356" y1="212.13" x2="29.7356" y2="160.591" gradientUnits="userSpaceOnUse">
<stop stop-color="#7E7E7E"/>
<stop offset="1" stop-color="#6A6A6A"/>
</linearGradient>
<linearGradient id="paint1_linear" x1="105.042" y1="94.1243" x2="105.042" y2="0.0113426" gradientUnits="userSpaceOnUse">
<stop stop-color="#7A7A7A"/>
<stop offset="1" stop-color="#B5B5B5"/>
</linearGradient>
<linearGradient id="paint2_linear" x1="233.12" y1="170.369" x2="233.12" y2="89.7611" gradientUnits="userSpaceOnUse">
<stop stop-color="#7A7A7A"/>
<stop offset="1" stop-color="#8F8F8F"/>
</linearGradient>
<linearGradient id="paint3_linear" x1="91.8724" y1="170.359" x2="91.8724" y2="94.1193" gradientUnits="userSpaceOnUse">
<stop stop-color="#545454"/>
<stop offset="1" stop-color="#616161"/>
</linearGradient>
<linearGradient id="paint4_linear" x1="207.25" y1="170.346" x2="207.25" y2="91.5274" gradientUnits="userSpaceOnUse">
<stop stop-color="#4F4F4F"/>
<stop offset="1" stop-color="#5D5D5D"/>
</linearGradient>
<linearGradient id="paint5_linear" x1="28.1312" y1="97.8172" x2="28.1312" y2="5.39226" gradientUnits="userSpaceOnUse">
<stop stop-color="#545454"/>
<stop offset="1" stop-color="#616161"/>
</linearGradient>
<linearGradient id="paint6_linear" x1="150.011" y1="236.019" x2="150.011" y2="176.518" gradientUnits="userSpaceOnUse">
<stop stop-color="#7E7E7E"/>
<stop offset="1" stop-color="#6A6A6A"/>
</linearGradient>
<linearGradient id="paint7_linear" x1="184.6" y1="94.1545" x2="184.6" y2="45.9056" gradientUnits="userSpaceOnUse">
<stop stop-color="#ECECEC"/>
<stop offset="1" stop-color="white"/>
</linearGradient>
<linearGradient id="paint8_linear" x1="159.661" y1="95.7025" x2="159.661" y2="52.173" gradientUnits="userSpaceOnUse">
<stop stop-color="#ECECEC"/>
<stop offset="1" stop-color="white"/>
</linearGradient>
</defs>
</svg>
