<svg width="18" height="21" viewBox="0 0 18 21" fill="none" xmlns="http://www.w3.org/2000/svg">
<path d="M4.50633 14.875H8.25633C8.56883 14.875 8.88133 14.6016 8.88133 14.25V10.5C8.88133 10.1875 8.56883 9.875 8.25633 9.875H4.50633C4.15477 9.875 3.88133 10.1875 3.88133 10.5V14.25C3.88133 14.6016 4.15477 14.875 4.50633 14.875ZM15.7563 3H13.8813V1.125C13.8813 0.8125 13.5688 0.5 13.2563 0.5H12.0063C11.6548 0.5 11.3813 0.8125 11.3813 1.125V3H6.38133V1.125C6.38133 0.8125 6.06883 0.5 5.75633 0.5H4.50633C4.15477 0.5 3.88133 0.8125 3.88133 1.125V3H2.00633C0.951645 3 0.131332 3.85938 0.131332 4.875V18.625C0.131332 19.6797 0.951645 20.5 2.00633 20.5H15.7563C16.772 20.5 17.6313 19.6797 17.6313 18.625V4.875C17.6313 3.85938 16.772 3 15.7563 3ZM15.7563 18.3906C15.7563 18.5469 15.6391 18.625 15.522 18.625H2.24071C2.08446 18.625 2.00633 18.5469 2.00633 18.3906V6.75H15.7563V18.3906Z" fill="#B3B3B3"/>
</svg>
