<svg width="17" height="19" viewBox="0 0 17 19" fill="none" xmlns="http://www.w3.org/2000/svg">
<path d="M8.50391 9.25C10.9648 9.25 13.0039 7.24609 13.0039 4.75C13.0039 2.28906 10.9648 0.25 8.50391 0.25C6.00781 0.25 4.00391 2.28906 4.00391 4.75C4.00391 7.24609 6.00781 9.25 8.50391 9.25ZM11.6328 10.375H11.0352C10.2617 10.7617 9.41797 10.9375 8.50391 10.9375C7.58984 10.9375 6.71094 10.7617 5.9375 10.375H5.33984C2.73828 10.375 0.628906 12.5195 0.628906 15.1211V16.5625C0.628906 17.5117 1.36719 18.25 2.31641 18.25H14.6914C15.6055 18.25 16.3789 17.5117 16.3789 16.5625V15.1211C16.3789 12.5195 14.2344 10.375 11.6328 10.375Z" fill="#B3B3B3"/>
</svg>
