<svg width="15" height="15" viewBox="0 0 15 15" fill="none" xmlns="http://www.w3.org/2000/svg">
<path d="M9.29492 7.375L13.9219 2.79297L14.8652 1.84961C15 1.71484 15 1.49023 14.8652 1.31055L13.877 0.322266C13.6973 0.1875 13.4727 0.1875 13.3379 0.322266L7.8125 5.89258L2.24219 0.322266C2.10742 0.1875 1.88281 0.1875 1.70312 0.322266L0.714844 1.31055C0.580078 1.49023 0.580078 1.71484 0.714844 1.84961L6.28516 7.375L0.714844 12.9453C0.580078 13.0801 0.580078 13.3047 0.714844 13.4844L1.70312 14.4727C1.88281 14.6074 2.10742 14.6074 2.24219 14.4727L7.8125 8.90234L12.3945 13.5293L13.3379 14.4727C13.4727 14.6074 13.6973 14.6074 13.877 14.4727L14.8652 13.4844C15 13.3047 15 13.0801 14.8652 12.9453L9.29492 7.375Z" fill="#1D1D1D"/>
</svg>
