<svg width="70" height="70" viewBox="0 0 70 70" fill="none" xmlns="http://www.w3.org/2000/svg">
<path d="M11.2109 42.6619V20.2288C11.2109 12.6811 17.3146 6.5625 24.844 6.5625H16.543C8.99213 6.5625 2.87109 12.6835 2.87109 20.2344V42.6562C2.87109 50.207 8.99213 56.3281 16.543 56.3281H24.844C17.3146 56.3281 11.2109 50.2095 11.2109 42.6619Z" fill="#C4F0F5"/>
<path d="M53.5938 59.0625H16.4034C7.35861 59.0625 0 51.7039 0 42.6591V20.2344C0 11.188 7.35984 3.82812 16.4062 3.82812H28.7109C30.2211 3.82812 31.4453 5.0523 31.4453 6.5625C31.4453 8.0727 30.2211 9.29688 28.7109 9.29688H16.4062C10.3753 9.29688 5.46875 14.2034 5.46875 20.2344V42.6591C5.46875 48.6884 10.3741 53.5938 16.4034 53.5938H53.5938C59.6247 53.5938 64.5312 48.6872 64.5312 42.6562V38.9648C64.5312 37.4546 65.7554 36.2305 67.2656 36.2305C68.7758 36.2305 70 37.4546 70 38.9648V42.6562C70 51.7027 62.6402 59.0625 53.5938 59.0625ZM50.8594 67.2656C50.8594 65.7554 49.6352 64.5312 48.125 64.5312H21.875C20.3648 64.5312 19.1406 65.7554 19.1406 67.2656C19.1406 68.7758 20.3648 70 21.875 70H48.125C49.6352 70 50.8594 68.7758 50.8594 67.2656Z" fill="#15BBCC"/>
<path d="M36.6401 36.0938C36.2878 36.0938 35.9326 36.0257 35.5942 35.8855C34.5724 35.4622 33.9063 34.4652 33.9063 33.3592L33.907 18.2097C33.8643 13.3755 35.7235 8.81193 39.1432 5.35938C42.5662 1.9034 47.1156 0 51.9532 0C56.8239 0 61.3798 1.89137 64.7813 5.32588C68.1929 8.77037 70.046 13.3509 69.9992 18.2235C69.9531 23.0244 68.044 27.5226 64.6234 30.8891C61.2133 34.2456 56.6922 36.0938 51.8923 36.0938C51.8866 36.0938 51.8806 36.0938 51.8748 36.0938C49.0523 36.0938 46.3534 35.4632 43.855 34.2193C42.1749 33.3828 40.1521 33.715 38.8213 35.0458L38.5741 35.293C38.051 35.8159 37.3516 36.0938 36.6401 36.0938ZM41.9135 28.2922C43.3999 28.2922 44.8982 28.6297 46.2923 29.3238C48.0267 30.1872 49.9058 30.6251 51.8774 30.6251H51.8894C58.7961 30.6255 64.4647 25.0398 64.5306 18.1712C64.5633 14.769 63.2724 11.5741 60.8958 9.17437C58.5292 6.78467 55.3532 5.46875 51.9532 5.46875C48.5863 5.46875 45.4168 6.79656 43.0287 9.20787C40.6406 11.6189 39.3433 14.8021 39.3757 18.1712C39.3757 18.1799 39.3759 18.1887 39.3759 18.1975L39.3753 28.6256C40.2025 28.4044 41.056 28.2922 41.9135 28.2922Z" fill="#EB384D"/>
</svg>
