<svg width="1440" height="361" viewBox="0 0 1440 361" fill="none" xmlns="http://www.w3.org/2000/svg">
<path d="M342 218.004L381 217.737L379.064 208.004L365.028 208.878L342 218.004Z" fill="#29332B"/>
<path d="M1441 0H-2V361H707.968H1441V0Z" fill="#E5E5E5"/>
<g opacity="0.7">
<g clip-path="url(#clip0)">
<path opacity="0.8" d="M308.996 245.495L389.103 247.118C399.307 247.324 407.29 252.185 406.918 257.97L404.872 290.35C404.508 296.135 395.935 300.661 385.73 300.451L380.755 300.352L374.783 306.905L368.715 300.108L305.624 298.828C295.419 298.621 287.436 293.761 287.808 287.975L289.855 255.596C290.219 249.81 298.792 245.289 308.996 245.495Z" fill="white"/>
</g>
</g>
<g opacity="0.8">
<path d="M436.66 66.318L434.739 70.4757L419.249 71.848L433.346 65.1377L436.66 66.318Z" fill="#5BAEB4"/>
<path d="M419.004 71.8095L436.408 66.2815L434.726 62.6439L419.004 71.8095Z" fill="#8FE4F6"/>
<path d="M434.747 74.1222L433.557 75.8114L419.249 71.8409L434.747 74.1222Z" fill="#5BAEB4"/>
<path d="M419.004 71.8186L437.304 69.4392L438.933 74.9014L419.004 71.8186Z" fill="#8FE4F6"/>
<path d="M822.527 61.6211H765.938V280.26H822.527V61.6211Z" fill="#E5E5E5"/>
<path d="M813.281 45.9473H775.184V137.826H813.281V45.9473Z" fill="#E5E5E5"/>
<path d="M804.792 36.0059H783.663V86.9704H804.792V36.0059Z" fill="#E5E5E5"/>
<path d="M801.43 62.1943H787.03V27.4629H792.226H797.37H801.43V62.1943Z" fill="#E5E5E5"/>
<path d="M793.283 47.0683H791.721V12.3369H792.282H792.843H793.283V47.0683Z" fill="#E5E5E5"/>
<path d="M796.739 35.0615H795.177V0.330078H795.743H796.3H796.739V35.0615Z" fill="#E5E5E5"/>
<path d="M824.038 61.0645H764.427V63.3932H824.038V61.0645Z" fill="#E5E5E5"/>
<path d="M814.665 44.8262H773.79V47.0687H814.665V44.8262Z" fill="#E5E5E5"/>
<path d="M805.681 35.0615H782.124V36.782H805.681V35.0615Z" fill="#E5E5E5"/>
<path opacity="0.29" d="M780.459 49.6738H778.687V59.302H780.459V49.6738Z" fill="#E5E5E5"/>
<path opacity="0.29" d="M785.361 49.6738H783.588V59.302H785.361V49.6738Z" fill="#E5E5E5"/>
<path opacity="0.29" d="M790.257 49.6738H788.484V59.302H790.257V49.6738Z" fill="#E5E5E5"/>
<path opacity="0.29" d="M795.158 49.6738H793.386V59.302H795.158V49.6738Z" fill="#E5E5E5"/>
<path opacity="0.29" d="M800.06 49.6738H798.287V59.302H800.06V49.6738Z" fill="#E5E5E5"/>
<path opacity="0.29" d="M804.961 49.6738H803.188V59.302H804.961V49.6738Z" fill="#E5E5E5"/>
<path opacity="0.29" d="M809.862 49.6738H808.09V59.302H809.862V49.6738Z" fill="#E5E5E5"/>
<path d="M775.184 70.3379H770.905V81.7592H775.184V70.3379Z" fill="#E5E5E5"/>
<path opacity="0.29" d="M783.658 70.3379H779.379V81.7592H783.658V70.3379Z" fill="#E5E5E5"/>
<path d="M792.133 70.3379H787.854V81.7592H792.133V70.3379Z" fill="#E5E5E5"/>
<path d="M800.607 70.3379H796.328V81.7592H800.607V70.3379Z" fill="#E5E5E5"/>
<path d="M809.081 70.3379H804.802V81.7592H809.081V70.3379Z" fill="#E5E5E5"/>
<path d="M817.56 70.3379H813.281V81.7592H817.56V70.3379Z" fill="#E5E5E5"/>
<path d="M775.184 88.1406H770.905V99.5619H775.184V88.1406Z" fill="#E5E5E5"/>
<path d="M783.658 88.1406H779.379V99.5619H783.658V88.1406Z" fill="#E5E5E5"/>
<path d="M792.133 88.1406H787.854V99.5619H792.133V88.1406Z" fill="#E5E5E5"/>
<path opacity="0.29" d="M800.607 88.1406H796.328V99.5619H800.607V88.1406Z" fill="#E5E5E5"/>
<path d="M809.081 88.1406H804.802V99.5619H809.081V88.1406Z" fill="#E5E5E5"/>
<path d="M817.56 88.1406H813.281V99.5619H817.56V88.1406Z" fill="#E5E5E5"/>
<path d="M775.184 105.945H770.905V117.367H775.184V105.945Z" fill="#E5E5E5"/>
<path d="M783.658 105.945H779.379V117.367H783.658V105.945Z" fill="#E5E5E5"/>
<path d="M792.133 105.945H787.854V117.367H792.133V105.945Z" fill="#E5E5E5"/>
<path d="M800.607 105.945H796.328V117.367H800.607V105.945Z" fill="#E5E5E5"/>
<path opacity="0.29" d="M809.081 105.945H804.802V117.367H809.081V105.945Z" fill="#E5E5E5"/>
<path opacity="0.29" d="M817.56 105.945H813.281V117.367H817.56V105.945Z" fill="#E5E5E5"/>
<path opacity="0.29" d="M775.184 123.748H770.905V135.169H775.184V123.748Z" fill="#E5E5E5"/>
<path d="M783.658 123.748H779.379V135.169H783.658V123.748Z" fill="#E5E5E5"/>
<path d="M792.133 123.748H787.854V135.169H792.133V123.748Z" fill="#E5E5E5"/>
<path d="M800.607 123.748H796.328V135.169H800.607V123.748Z" fill="#E5E5E5"/>
<path d="M809.081 123.748H804.802V135.169H809.081V123.748Z" fill="#E5E5E5"/>
<path d="M817.56 123.748H813.281V135.169H817.56V123.748Z" fill="#E5E5E5"/>
<path d="M775.184 141.553H770.905V152.974H775.184V141.553Z" fill="#E5E5E5"/>
<path opacity="0.29" d="M783.658 141.553H779.379V152.974H783.658V141.553Z" fill="#E5E5E5"/>
<path d="M792.133 141.553H787.854V152.974H792.133V141.553Z" fill="#E5E5E5"/>
<path opacity="0.29" d="M800.607 141.553H796.328V152.974H800.607V141.553Z" fill="#E5E5E5"/>
<path d="M809.081 141.553H804.802V152.974H809.081V141.553Z" fill="#E5E5E5"/>
<path d="M817.56 141.553H813.281V152.974H817.56V141.553Z" fill="#E5E5E5"/>
<path d="M775.184 159.361H770.905V170.783H775.184V159.361Z" fill="#E5E5E5"/>
<path d="M783.658 159.361H779.379V170.783H783.658V159.361Z" fill="#E5E5E5"/>
<path d="M792.133 159.361H787.854V170.783H792.133V159.361Z" fill="#E5E5E5"/>
<path d="M800.607 159.361H796.328V170.783H800.607V159.361Z" fill="#E5E5E5"/>
<path d="M809.081 159.361H804.802V170.783H809.081V159.361Z" fill="#E5E5E5"/>
<path opacity="0.29" d="M817.56 159.361H813.281V170.783H817.56V159.361Z" fill="#E5E5E5"/>
<path d="M775.184 177.164H770.905V188.585H775.184V177.164Z" fill="#E5E5E5"/>
<path opacity="0.29" d="M783.658 177.164H779.379V188.585H783.658V177.164Z" fill="#E5E5E5"/>
<path opacity="0.29" d="M792.133 177.164H787.854V188.585H792.133V177.164Z" fill="#E5E5E5"/>
<path d="M800.607 177.164H796.328V188.585H800.607V177.164Z" fill="#E5E5E5"/>
<path d="M809.081 177.164H804.802V188.585H809.081V177.164Z" fill="#E5E5E5"/>
<path d="M817.56 177.164H813.281V188.585H817.56V177.164Z" fill="#E5E5E5"/>
<path d="M775.184 194.969H770.905V206.39H775.184V194.969Z" fill="#E5E5E5"/>
<path d="M783.658 194.969H779.379V206.39H783.658V194.969Z" fill="#E5E5E5"/>
<path d="M792.133 194.969H787.854V206.39H792.133V194.969Z" fill="#E5E5E5"/>
<path d="M800.607 194.969H796.328V206.39H800.607V194.969Z" fill="#E5E5E5"/>
<path opacity="0.29" d="M809.081 194.969H804.802V206.39H809.081V194.969Z" fill="#E5E5E5"/>
<path d="M817.56 194.969H813.281V206.39H817.56V194.969Z" fill="#E5E5E5"/>
<path d="M775.184 212.771H770.905V224.193H775.184V212.771Z" fill="#E5E5E5"/>
<path opacity="0.29" d="M783.658 212.771H779.379V224.193H783.658V212.771Z" fill="#E5E5E5"/>
<path d="M792.133 212.771H787.854V224.193H792.133V212.771Z" fill="#E5E5E5"/>
<path d="M800.607 212.771H796.328V224.193H800.607V212.771Z" fill="#E5E5E5"/>
<path d="M809.081 212.771H804.802V224.193H809.081V212.771Z" fill="#E5E5E5"/>
<path d="M817.56 212.771H813.281V224.193H817.56V212.771Z" fill="#E5E5E5"/>
<path d="M775.184 230.576H770.905V241.997H775.184V230.576Z" fill="#E5E5E5"/>
<path d="M783.658 230.576H779.379V241.997H783.658V230.576Z" fill="#E5E5E5"/>
<path d="M792.133 230.576H787.854V241.997H792.133V230.576Z" fill="#E5E5E5"/>
<path opacity="0.29" d="M800.607 230.576H796.328V241.997H800.607V230.576Z" fill="#E5E5E5"/>
<path d="M809.081 230.576H804.802V241.997H809.081V230.576Z" fill="#E5E5E5"/>
<path opacity="0.29" d="M817.56 230.576H813.281V241.997H817.56V230.576Z" fill="#E5E5E5"/>
<path opacity="0.29" d="M775.184 248.381H770.905V259.802H775.184V248.381Z" fill="#E5E5E5"/>
<path d="M783.658 248.381H779.379V259.802H783.658V248.381Z" fill="#E5E5E5"/>
<path opacity="0.29" d="M792.133 248.381H787.854V259.802H792.133V248.381Z" fill="#E5E5E5"/>
<path d="M800.607 248.381H796.328V259.802H800.607V248.381Z" fill="#E5E5E5"/>
<path d="M809.081 248.381H804.802V259.802H809.081V248.381Z" fill="#E5E5E5"/>
<path d="M817.56 248.381H813.281V259.802H817.56V248.381Z" fill="#E5E5E5"/>
<path d="M692.554 69.9375H601.586V254.122H692.554V69.9375Z" fill="#E5E5E5"/>
<path d="M695.141 66.7695H599V71.9763H695.141V66.7695Z" fill="#E5E5E5"/>
<path d="M689.496 60.1055H604.641V84.8501H689.496V60.1055Z" fill="#E5E5E5"/>
<path d="M644.739 49.9824H611.136V77.0195H644.739V49.9824Z" fill="#E5E5E5"/>
<path d="M630.582 57.6043H611.136V43.373H625.083L630.582 57.6043Z" fill="#E5E5E5"/>
<path d="M620.86 31.5566H618.975V63.2557H620.86V31.5566Z" fill="#E5E5E5"/>
<path d="M621.612 29.9138C621.612 30.8217 620.855 31.5571 619.919 31.5571C618.984 31.5571 618.226 30.8217 618.226 29.9138C618.226 29.0059 618.984 28.2705 619.919 28.2705C620.855 28.2705 621.612 29.0059 621.612 29.9138Z" fill="#E5E5E5"/>
<path d="M1435 265H368V292H1435V265Z" fill="#F0E2E7"/>
<path d="M1145.07 285.522H1086.62L1109.4 183.121H1145.07V285.522Z" fill="#EFB9BF"/>
<path d="M1336.73 290.277H0.770752V332.819H1336.73V290.277Z" fill="#F27987"/>
<path d="M727.168 100.231V55.6601H708.398V38.6896H698.357V24.4391H694.833V0H693.925V24.4391H690.402V38.6896H680.355V55.6601H661.731V100.231H657.86V181.155H628.977V273.4H657.86H686.738H730.899V100.231H727.168Z" fill="#EFB9BF"/>
<path d="M835.042 151.434H744.188V152.852H748.304V284.852H830.932V152.852H835.042V151.434Z" fill="#EFB9BF"/>
<path d="M420.758 184.311H340.205V294.271H420.758V184.311Z" fill="#EFB9BF"/>
<path d="M328.068 240.65H189.536V294.273H328.068V240.65Z" fill="#EFB9BF"/>
<path d="M294.208 120.85H263.794V252.529H294.208V120.85Z" fill="#EFB9BF"/>
<path d="M272.086 85.7227H270.509V157.332H272.086V85.7227Z" fill="#EFC9CD"/>
<path d="M277.218 91.1523H275.641V162.762H277.218V91.1523Z" fill="#EFC9CD"/>
<path d="M284.727 112.703H266.139V130.351H284.727V112.703Z" fill="#EFC9CD"/>
<path d="M375.57 203.992H322.645V294.266H375.57V203.992Z" fill="#EFB9BF"/>
<path d="M533.162 108.461H433.814V294.271H533.162V108.461Z" fill="#EFB9BF"/>
<path d="M462.625 200.43H415.813V294.267H462.625V200.43Z" fill="#EFB9BF"/>
<path d="M134.239 196.867H80.5249V294.271H134.239V196.867Z" fill="#EFB9BF"/>
<path d="M204.943 170.395H97.9038V294.266H204.943V170.395Z" fill="#EFB9BF"/>
<path d="M207.709 165.646H91.6613V170.4H207.709V165.646Z" fill="#EFB9BF"/>
<path d="M149.683 152.746H102.642V177.858H149.683V152.746Z" fill="#EFB9BF"/>
<path d="M172.945 152.746H165.047V168.018H172.945V152.746Z" fill="#EFB9BF"/>
<path d="M189.541 152.746H180.849V168.018H189.541V152.746Z" fill="#EFB9BF"/>
<path d="M107.379 256.598H51.2938V294.271H107.379V256.598Z" fill="#EFB9BF"/>
<path d="M43.3904 275.434H-2V294.268H43.3904V275.434Z" fill="#EFB9BF"/>
<path d="M1082.7 252.527H523.401V294.271H1082.7V252.527Z" fill="#EFC9CD"/>
<path d="M1363.82 172.713C1360.29 172.713 1357.4 175.368 1357.12 178.745L1349.23 178.496C1349.26 177.738 1349.27 176.985 1349.27 176.222C1349.27 166.619 1347.57 157.271 1344.33 148.507L1350.91 146.132C1351.95 148.466 1354.32 150.104 1357.09 150.104C1360.81 150.104 1363.82 147.154 1363.82 143.517C1363.82 139.881 1360.81 136.931 1357.09 136.931C1353.38 136.931 1350.36 139.881 1350.36 143.517C1350.36 144.189 1350.47 144.835 1350.66 145.445L1344.07 147.815C1340.32 137.968 1334.6 128.864 1327.11 120.98L1332.26 116.255C1333.47 117.384 1335.11 118.081 1336.91 118.081C1340.62 118.081 1343.64 115.131 1343.64 111.494C1343.64 107.857 1340.62 104.907 1336.91 104.907C1333.19 104.907 1330.18 107.857 1330.18 111.494C1330.18 113.107 1330.77 114.582 1331.75 115.726L1326.6 120.451C1326.07 119.902 1325.52 119.358 1324.98 118.823C1317.18 111.189 1308.1 105.258 1298.2 101.23L1301.04 94.4755C1301.68 94.6739 1302.36 94.7858 1303.07 94.7858C1306.79 94.7858 1309.8 91.8357 1309.8 88.199C1309.8 84.5624 1306.79 81.6123 1303.07 81.6123C1299.36 81.6123 1296.34 84.5624 1296.34 88.199C1296.34 90.8846 1297.99 93.1887 1300.34 94.2161L1297.51 100.955C1288.66 97.4459 1279.19 95.447 1269.41 95.1011L1269.71 85.8695C1269.79 85.8695 1269.85 85.8746 1269.93 85.8746C1273.64 85.8746 1276.66 82.9246 1276.66 79.2879C1276.66 75.6512 1273.64 72.7012 1269.93 72.7012C1266.21 72.7012 1263.2 75.6512 1263.2 79.2879C1263.2 82.6092 1265.71 85.3507 1268.97 85.8085L1268.66 95.0808C1267.89 95.0604 1267.12 95.0502 1266.34 95.0502C1256.92 95.0502 1247.75 96.5761 1239.11 99.5058L1236.4 91.968C1238.84 90.9812 1240.57 88.6263 1240.57 85.8746C1240.57 82.2379 1237.56 79.2879 1233.84 79.2879C1230.13 79.2879 1227.11 82.2379 1227.11 85.8746C1227.11 89.5113 1230.13 92.4613 1233.84 92.4613C1234.48 92.4613 1235.1 92.3698 1235.69 92.207L1238.4 99.7449C1227.92 103.402 1218.25 109.139 1209.91 116.738L1204.99 111.601C1206.09 110.426 1206.76 108.865 1206.76 107.145C1206.76 103.509 1203.75 100.559 1200.04 100.559C1196.32 100.559 1193.31 103.509 1193.31 107.145C1193.31 110.782 1196.32 113.732 1200.04 113.732C1201.73 113.732 1203.27 113.117 1204.46 112.11L1209.37 117.237C1208.81 117.755 1208.25 118.284 1207.7 118.818C1200.77 125.614 1195.21 133.396 1191.17 141.844L1184.92 139.021C1185.15 138.36 1185.27 137.658 1185.27 136.92C1185.27 133.284 1182.26 130.334 1178.54 130.334C1174.83 130.334 1171.82 133.284 1171.82 136.92C1171.82 140.557 1174.83 143.507 1178.54 143.507C1181.25 143.507 1183.57 141.946 1184.64 139.698L1190.86 142.505C1186.4 152.062 1183.87 162.454 1183.48 173.211L1175.45 172.957C1175.35 169.401 1172.38 166.553 1168.73 166.553C1165.01 166.553 1162 169.503 1162 173.14C1162 176.776 1165.01 179.726 1168.73 179.726C1172.26 179.726 1175.15 177.066 1175.43 173.689L1183.45 173.943C1183.43 174.701 1183.42 175.454 1183.42 176.217C1183.42 185.82 1185.11 195.168 1188.35 203.932L1181.77 206.307C1180.74 203.973 1178.36 202.335 1175.59 202.335C1171.88 202.335 1168.86 205.285 1168.86 208.922C1168.86 212.558 1171.88 215.508 1175.59 215.508C1179.31 215.508 1182.32 212.558 1182.32 208.922C1182.32 208.25 1182.22 207.604 1182.03 206.994L1188.61 204.624C1192.36 214.471 1198.08 223.575 1205.57 231.459L1200.42 236.184C1199.21 235.055 1197.58 234.358 1195.77 234.358C1192.06 234.358 1189.05 237.308 1189.05 240.945C1189.05 244.582 1192.06 247.532 1195.77 247.532C1199.49 247.532 1202.5 244.582 1202.5 240.945C1202.5 239.333 1201.91 237.857 1200.93 236.713L1206.08 231.988C1206.61 232.537 1207.15 233.081 1207.7 233.616C1212.95 238.758 1218.79 243.127 1225.06 246.662L1184.48 319.879H1177.19V321.974H1173.63V326.13H1359.04V321.974H1355.47V319.879H1348.19L1307.61 246.662C1313.01 243.615 1318.1 239.948 1322.76 235.701L1329.34 242.572C1327.93 243.778 1327.03 245.553 1327.03 247.532C1327.03 251.168 1330.05 254.118 1333.76 254.118C1337.48 254.118 1340.49 251.168 1340.49 247.532C1340.49 243.895 1337.48 240.945 1333.76 240.945C1332.34 240.945 1331.02 241.377 1329.93 242.12L1323.3 235.202C1323.86 234.684 1324.42 234.155 1324.96 233.621C1331.91 226.83 1337.46 219.043 1341.5 210.595L1348.82 213.906C1348.68 214.425 1348.62 214.964 1348.62 215.519C1348.62 219.155 1351.63 222.105 1355.35 222.105C1359.06 222.105 1362.07 219.155 1362.07 215.519C1362.07 211.882 1359.06 208.932 1355.35 208.932C1352.46 208.932 1350 210.707 1349.04 213.204L1341.81 209.934C1346.27 200.377 1348.8 189.985 1349.19 179.228L1357.08 179.477C1357.17 183.033 1360.15 185.886 1363.8 185.886C1367.51 185.886 1370.53 182.936 1370.53 179.299C1370.55 175.663 1367.54 172.713 1363.82 172.713ZM1347.03 176.227C1347.03 176.965 1347.02 177.697 1346.99 178.429L1323.78 177.692C1323.79 177.209 1323.8 176.721 1323.8 176.232C1323.8 169.534 1322.59 163.105 1320.39 157.143L1342.23 149.275C1345.38 157.794 1347.03 166.889 1347.03 176.227ZM1322.65 177.651L1270.86 176.003C1270.84 175.673 1270.78 175.352 1270.7 175.042L1319.33 157.515C1321.49 163.359 1322.67 169.661 1322.67 176.222C1322.67 176.705 1322.67 177.178 1322.65 177.651ZM1210.03 174.803L1261.82 176.451C1261.84 176.782 1261.89 177.102 1261.98 177.412L1213.35 194.94C1211.19 189.095 1210.01 182.794 1210.01 176.232C1210.01 175.749 1210.01 175.276 1210.03 174.803ZM1269.89 173.475L1307.68 138.807C1312.58 143.995 1316.48 150.099 1319.08 156.828L1270.45 174.355C1270.29 174.04 1270.1 173.745 1269.89 173.475ZM1269.38 172.941C1269.09 172.682 1268.75 172.458 1268.4 172.28L1288.09 125.359C1295.34 128.34 1301.83 132.77 1307.17 138.273L1269.38 172.941ZM1267.71 172.006C1267.44 171.919 1267.15 171.863 1266.86 171.828L1268.54 121.133C1275.19 121.382 1281.53 122.765 1287.39 125.085L1267.71 172.006ZM1266.11 171.802C1265.8 171.817 1265.49 171.863 1265.19 171.939L1247.97 124.098C1253.73 122.145 1259.91 121.082 1266.34 121.082C1266.83 121.082 1267.31 121.087 1267.8 121.102L1266.11 171.802ZM1264.49 172.184C1264.14 172.336 1263.82 172.529 1263.53 172.753L1228.11 135.756C1233.6 130.786 1240.1 126.87 1247.26 124.337L1264.49 172.184ZM1262.99 173.257C1262.76 173.496 1262.57 173.76 1262.4 174.045L1215.36 152.785C1218.36 146.549 1222.52 140.954 1227.57 136.259L1262.99 173.257ZM1262.09 174.706C1261.97 175.027 1261.88 175.368 1261.84 175.713L1210.05 174.065C1210.34 166.736 1212.1 159.773 1215.04 153.446L1262.09 174.706ZM1262.24 178.094C1262.36 178.348 1262.5 178.592 1262.67 178.816L1262.36 179.37L1225 213.642C1220.1 208.454 1216.2 202.35 1213.61 195.621L1262.24 178.094ZM1261.23 181.415L1237.78 223.738C1233.25 221.119 1229.12 217.894 1225.52 214.181L1261.23 181.415ZM1263.79 179.879C1263.95 179.986 1264.11 180.083 1264.28 180.169L1244.6 227.09C1242.7 226.312 1240.86 225.432 1239.07 224.46L1263.79 179.879ZM1264.97 180.449C1265.24 180.535 1265.53 180.591 1265.82 180.627L1264.13 231.322C1257.49 231.072 1251.15 229.689 1245.29 227.37L1264.97 180.449ZM1266.34 231.367C1265.85 231.367 1265.37 231.362 1264.89 231.347L1266.57 180.647C1266.89 180.632 1267.19 180.586 1267.49 180.51L1284.72 228.351C1278.95 230.304 1272.77 231.367 1266.34 231.367ZM1268.19 180.266C1268.44 180.159 1268.67 180.027 1268.9 179.879L1293.61 224.46C1291 225.879 1288.26 227.105 1285.42 228.107L1268.19 180.266ZM1272.35 183.038L1304.56 216.688C1301.62 219.359 1298.38 221.724 1294.9 223.733L1272.35 183.038ZM1270.94 180.495L1270.01 178.816C1270.11 178.684 1270.2 178.546 1270.28 178.409L1317.33 199.67C1314.32 205.906 1310.16 211.5 1305.11 216.195L1270.94 180.495ZM1270.59 177.743C1270.71 177.422 1270.79 177.082 1270.84 176.736L1322.63 178.384C1322.33 185.713 1320.58 192.676 1317.64 199.003L1270.59 177.743ZM1244.17 228.107L1235.33 249.185C1232.63 248.086 1230 246.845 1227.43 245.461L1238.54 225.432C1240.36 226.418 1242.24 227.314 1244.17 228.107ZM1244.86 228.387C1250.84 230.757 1257.32 232.166 1264.1 232.42L1263.34 255.156C1253.84 254.82 1244.62 252.877 1236.02 249.464L1244.86 228.387ZM1264.85 232.446C1265.34 232.456 1265.84 232.466 1266.34 232.466C1272.9 232.466 1279.2 231.383 1285.08 229.389L1292.82 250.873C1284.42 253.722 1275.5 255.207 1266.34 255.207C1265.59 255.207 1264.84 255.197 1264.09 255.176L1264.85 232.446ZM1285.79 229.145C1288.69 228.122 1291.48 226.876 1294.14 225.427L1305.24 245.456C1301.48 247.491 1297.56 249.215 1293.53 250.629L1285.79 229.145ZM1341.97 148.578L1320.13 156.452C1317.48 149.585 1313.5 143.349 1308.5 138.06L1325.47 122.491C1332.76 130.156 1338.32 139.006 1341.97 148.578ZM1323.39 120.38C1323.92 120.899 1324.45 121.428 1324.96 121.957L1307.99 137.526C1302.54 131.905 1295.92 127.389 1288.52 124.347L1297.36 103.27C1306.97 107.186 1315.8 112.949 1323.39 120.38ZM1296.66 102.99L1287.82 124.067C1281.84 121.697 1275.36 120.288 1268.58 120.034L1269.33 97.2984C1278.84 97.6392 1288.06 99.577 1296.66 102.99ZM1266.34 97.2475C1267.09 97.2475 1267.84 97.2577 1268.59 97.278L1267.84 120.003C1267.34 119.993 1266.85 119.983 1266.35 119.983C1259.78 119.983 1253.48 121.067 1247.6 123.06L1239.86 101.576C1248.26 98.7276 1257.19 97.2475 1266.34 97.2475ZM1239.15 101.82L1246.89 123.304C1239.58 125.888 1232.95 129.886 1227.35 134.957L1211.45 118.34C1219.56 110.96 1228.97 105.38 1239.15 101.82ZM1209.29 120.38C1209.82 119.861 1210.36 119.347 1210.9 118.844L1226.81 135.456C1221.65 140.247 1217.41 145.959 1214.35 152.322L1193.21 142.77C1197.14 134.555 1202.54 126.987 1209.29 120.38ZM1192.89 143.441L1214.02 152.993C1211.02 159.453 1209.23 166.558 1208.93 174.04L1185.7 173.303C1186.1 162.835 1188.56 152.734 1192.89 143.441ZM1185.66 176.227C1185.66 175.495 1185.67 174.757 1185.69 174.025L1208.9 174.762C1208.89 175.245 1208.88 175.734 1208.88 176.222C1208.88 182.921 1210.09 189.35 1212.29 195.311L1190.45 203.179C1187.3 194.655 1185.66 185.566 1185.66 176.227ZM1190.71 203.871L1212.55 195.997C1215.2 202.864 1219.18 209.1 1224.18 214.389L1207.21 229.959C1199.93 222.299 1194.36 213.448 1190.71 203.871ZM1209.29 232.074C1208.76 231.556 1208.23 231.027 1207.72 230.498L1224.69 214.929C1228.37 218.728 1232.6 222.024 1237.24 224.699L1226.13 244.739C1220.05 241.306 1214.39 237.064 1209.29 232.074ZM1346.5 319.889H1186.19L1226.37 247.394C1229 248.818 1231.71 250.095 1234.48 251.219L1231.65 257.974C1231 257.775 1230.32 257.663 1229.61 257.663C1225.9 257.663 1222.88 260.613 1222.88 264.25C1222.88 267.887 1225.9 270.837 1229.61 270.837C1233.33 270.837 1236.34 267.887 1236.34 264.25C1236.34 261.565 1234.7 259.261 1232.34 258.233L1235.17 251.494C1244.02 255.003 1253.5 257.002 1263.28 257.348L1263.05 264.255C1259.41 264.337 1256.47 267.251 1256.47 270.837C1256.47 274.474 1259.49 277.424 1263.2 277.424C1266.92 277.424 1269.93 274.474 1269.93 270.837C1269.93 267.393 1267.24 264.571 1263.8 264.276L1264.02 257.368C1264.8 257.389 1265.57 257.399 1266.35 257.399C1275.76 257.399 1284.93 255.873 1293.57 252.943L1295.99 259.662C1293.7 260.715 1292.11 262.989 1292.11 265.629C1292.11 269.265 1295.13 272.215 1298.84 272.215C1302.56 272.215 1305.57 269.265 1305.57 265.629C1305.57 261.992 1302.56 259.042 1298.84 259.042C1298.09 259.042 1297.36 259.164 1296.69 259.388L1294.28 252.704C1298.43 251.255 1302.45 249.48 1306.32 247.389L1346.5 319.889ZM1306.54 244.739L1295.44 224.699C1299 222.644 1302.31 220.223 1305.33 217.492L1321.23 234.109C1316.71 238.229 1311.79 241.784 1306.54 244.739ZM1323.39 232.074C1322.86 232.593 1322.32 233.107 1321.78 233.61L1305.88 216.999C1311.03 212.207 1315.28 206.496 1318.34 200.133L1339.48 209.685C1335.55 217.894 1330.14 225.467 1323.39 232.074ZM1339.79 209.013L1318.66 199.461C1321.66 193.002 1323.45 185.896 1323.75 178.414L1346.97 179.152C1346.58 189.619 1344.13 199.721 1339.79 209.013Z" fill="#EFC9CD"/>
<path d="M1140.63 185.537H1054.26V294.271H1140.63V185.537Z" fill="#B4D8D5"/>
<path d="M1214.36 227.812H1127.99V293.657H1214.36V227.812Z" fill="#B4D8D5"/>
<path d="M841.508 218.141H793.056V273.395H841.508V218.141Z" fill="#EFC9CD"/>
<path d="M1158.54 82.1328H1097.45V294.272H1158.54V82.1328Z" fill="#EFC9CD"/>
<path d="M1259.12 294.273H1178.55V170.396H1239.64L1259.12 294.273Z" fill="#EFC9CD"/>
<path d="M1294.41 265.992H1223.84V294.27H1294.41V265.992Z" fill="#EFC9CD"/>
<path d="M1144.85 37.8125H1142.74V95.4612H1144.85V37.8125Z" fill="#EFC9CD"/>
<path d="M1151.96 50.1816H1149.85V107.83H1151.96V50.1816Z" fill="#EFC9CD"/>
<path d="M1138.4 58.1387H1136.29V115.787H1138.4V58.1387Z" fill="#EFC9CD"/>
<path d="M56.6696 240.65H30.111V294.273H56.6696V240.65Z" fill="#EFB9BF"/>
<path d="M1210.54 160.387H1181.71V179.903H1210.54V160.387Z" fill="#EFC9CD"/>
<path d="M1207.38 153.426H1184.87V164.395H1207.38V153.426Z" fill="#EFC9CD"/>
<path d="M1227.53 166.102H1222V173.98H1227.53V166.102Z" fill="#EFC9CD"/>
<path d="M1237.38 158.908H1229.48V173.979H1237.38V158.908Z" fill="#EFC9CD"/>
<path d="M1131.5 126.318H1058.02V332.819H1131.5V126.318Z" fill="#F34559"/>
<path d="M1136.98 127.539H1052.53V129.632H1136.98V127.539Z" fill="#F34559"/>
<path d="M1134.7 156.547H1054.82V158.635H1134.7V156.547Z" fill="#F34559"/>
<path d="M1134.7 184.643H1054.82V186.731H1134.7V184.643Z" fill="#F34559"/>
<path d="M1134.7 212.732H1054.82V214.821H1134.7V212.732Z" fill="#F34559"/>
<path d="M1134.7 240.822H1054.82V242.91H1134.7V240.822Z" fill="#F34559"/>
<path d="M1134.7 268.912H1054.82V271H1134.7V268.912Z" fill="#F34559"/>
<path d="M1134.7 297.008H1054.82V299.096H1134.7V297.008Z" fill="#F34559"/>
<path d="M1139.78 121.838H1049.74V127.544H1139.78V121.838Z" fill="#F34559"/>
<path opacity="0.29" d="M1072.27 136.42H1064.64V152.916H1072.27V136.42Z" fill="#F34559"/>
<path d="M1089.34 136.42H1081.71V152.916H1089.34V136.42Z" fill="#F34559"/>
<path d="M1106.42 136.42H1098.79V152.916H1106.42V136.42Z" fill="#F34559"/>
<path d="M1123.49 136.42H1115.86V152.916H1123.49V136.42Z" fill="#F34559"/>
<path d="M1072.27 163.389H1064.64V179.885H1072.27V163.389Z" fill="#F34559"/>
<path opacity="0.29" d="M1089.34 163.389H1081.71V179.885H1089.34V163.389Z" fill="#F34559"/>
<path d="M1106.42 163.389H1098.79V179.885H1106.42V163.389Z" fill="#F34559"/>
<path d="M1123.49 163.389H1115.86V179.885H1123.49V163.389Z" fill="#F34559"/>
<path d="M1072.27 191.479H1064.64V207.975H1072.27V191.479Z" fill="#F34559"/>
<path d="M1089.34 191.479H1081.71V207.975H1089.34V191.479Z" fill="#F34559"/>
<path d="M1106.42 191.479H1098.79V207.975H1106.42V191.479Z" fill="#F34559"/>
<path opacity="0.29" d="M1123.49 191.479H1115.86V207.975H1123.49V191.479Z" fill="#F34559"/>
<path opacity="0.29" d="M1089.34 219.572H1081.71V236.069H1089.34V219.572Z" fill="#F34559"/>
<path opacity="0.29" d="M1106.42 219.572H1098.79V236.069H1106.42V219.572Z" fill="#F34559"/>
<path d="M1123.49 219.572H1115.86V236.069H1123.49V219.572Z" fill="#F34559"/>
<path opacity="0.29" d="M1072.27 247.664H1064.64V264.16H1072.27V247.664Z" fill="#F34559"/>
<path d="M1089.34 247.664H1081.71V264.16H1089.34V247.664Z" fill="#F34559"/>
<path d="M1106.42 247.664H1098.79V264.16H1106.42V247.664Z" fill="#F34559"/>
<path d="M1123.49 247.664H1115.86V264.16H1123.49V247.664Z" fill="#F34559"/>
<path d="M1072.27 275.754H1064.64V292.25H1072.27V275.754Z" fill="#F34559"/>
<path d="M1089.34 275.754H1081.71V292.25H1089.34V275.754Z" fill="#F34559"/>
<path opacity="0.29" d="M1106.42 275.754H1098.79V292.25H1106.42V275.754Z" fill="#F34559"/>
<path d="M1123.49 275.754H1115.86V292.25H1123.49V275.754Z" fill="#F34559"/>
<path d="M1072.27 303.848H1064.64V320.344H1072.27V303.848Z" fill="#F34559"/>
<path opacity="0.29" d="M1089.34 303.848H1081.71V320.344H1089.34V303.848Z" fill="#F34559"/>
<path d="M1106.42 303.848H1098.79V320.344H1106.42V303.848Z" fill="#F34559"/>
<path opacity="0.29" d="M1123.49 303.848H1115.86V320.344H1123.49V303.848Z" fill="#F34559"/>
<path d="M1087.65 113.963H1062.66V124.69H1087.65V113.963Z" fill="#F34559"/>
<path d="M1089.34 113.658H1060.97V115.492H1089.34V113.658Z" fill="#F34559"/>
<path d="M952.719 332.818H854.853V136.613L952.719 115.736V332.818Z" fill="#F34559"/>
<path d="M859.153 133.158H850.553V332.817H859.153V133.158Z" fill="#F34559"/>
<path d="M883.621 127.533H875.021V332.817H883.621V127.533Z" fill="#F34559"/>
<path d="M908.084 121.691H899.484V332.817H908.084V121.691Z" fill="#F34559"/>
<path d="M932.552 116.93H923.951V332.817H932.552V116.93Z" fill="#F34559"/>
<path d="M957.019 111.863H948.419V332.817H957.019V111.863Z" fill="#F34559"/>
<path opacity="0.29" d="M872.792 149.912H861.376V165.074H872.792V149.912Z" fill="#F34559"/>
<path opacity="0.29" d="M897.26 149.912H885.844V165.074H897.26V149.912Z" fill="#F34559"/>
<path d="M921.728 149.912H910.312V165.074H921.728V149.912Z" fill="#F34559"/>
<path opacity="0.29" d="M946.196 149.912H934.779V165.074H946.196V149.912Z" fill="#F34559"/>
<path d="M872.792 176.318H861.376V191.48H872.792V176.318Z" fill="#F34559"/>
<path d="M897.26 176.318H885.844V191.48H897.26V176.318Z" fill="#F34559"/>
<path opacity="0.29" d="M921.728 176.318H910.312V191.48H921.728V176.318Z" fill="#F34559"/>
<path opacity="0.29" d="M946.196 176.318H934.779V191.48H946.196V176.318Z" fill="#F34559"/>
<path opacity="0.29" d="M872.792 202.721H861.376V217.883H872.792V202.721Z" fill="#F34559"/>
<path opacity="0.29" d="M897.26 202.721H885.844V217.883H897.26V202.721Z" fill="#F34559"/>
<path opacity="0.29" d="M921.728 202.721H910.312V217.883H921.728V202.721Z" fill="#F34559"/>
<path d="M946.196 202.721H934.779V217.883H946.196V202.721Z" fill="#F34559"/>
<path opacity="0.29" d="M872.792 229.123H861.376V244.285H872.792V229.123Z" fill="#F34559"/>
<path d="M897.26 229.123H885.844V244.285H897.26V229.123Z" fill="#F34559"/>
<path opacity="0.29" d="M921.728 229.123H910.312V244.285H921.728V229.123Z" fill="#F34559"/>
<path opacity="0.29" d="M946.196 229.123H934.779V244.285H946.196V229.123Z" fill="#F34559"/>
<path opacity="0.29" d="M872.792 255.523H861.376V270.685H872.792V255.523Z" fill="#F34559"/>
<path opacity="0.29" d="M897.26 255.523H885.844V270.685H897.26V255.523Z" fill="#F34559"/>
<path d="M921.728 255.523H910.312V270.685H921.728V255.523Z" fill="#F34559"/>
<path opacity="0.29" d="M946.196 255.523H934.779V270.685H946.196V255.523Z" fill="#F34559"/>
<path d="M872.792 281.926H861.376V297.088H872.792V281.926Z" fill="#F34559"/>
<path d="M897.26 281.926H885.844V297.088H897.26V281.926Z" fill="#F34559"/>
<path opacity="0.29" d="M921.728 281.926H910.312V297.088H921.728V281.926Z" fill="#F34559"/>
<path opacity="0.29" d="M946.196 281.926H934.779V297.088H946.196V281.926Z" fill="#F34559"/>
<path opacity="0.29" d="M872.792 308.332H861.376V323.494H872.792V308.332Z" fill="#F34559"/>
<path d="M897.26 308.332H885.844V323.494H897.26V308.332Z" fill="#F34559"/>
<path opacity="0.29" d="M921.728 308.332H910.312V323.494H921.728V308.332Z" fill="#F34559"/>
<path d="M946.196 308.332H934.779V323.494H946.196V308.332Z" fill="#F34559"/>
<path d="M575.665 146.014V148.047H573.338V153.853H614.288V332.817H547.09V163.191V153.853V148.047H544.648V146.014H575.665Z" fill="#F34559"/>
<path d="M747.71 227.303H690.149V332.818H747.71V227.303Z" fill="#F34559"/>
<path d="M486.056 203.117H439.265V332.819H486.056V203.117Z" fill="#F34559"/>
<path d="M527.782 230.141H476.79V332.819H527.782V230.141Z" fill="#F34559"/>
<path d="M476.79 197.91H456.101V213.431H476.79V197.91Z" fill="#F34559"/>
<path d="M534.643 228.447H480.288V232.242H534.643V228.447Z" fill="#F34559"/>
<path d="M579.466 274.182H522.3V332.818H579.466V274.182Z" fill="#F34559"/>
<path d="M384.041 226.48H337.542V332.817H384.041V226.48Z" fill="#F34559"/>
<path d="M358.36 279.475H297.186V332.818H358.36V279.475Z" fill="#F34559"/>
<path d="M351.469 294H205V333H351.469V294Z" fill="#F34559"/>
<path d="M456.101 293.574H384.041V332.818H456.101V293.574Z" fill="#F34559"/>
<path d="M707.608 308H595.248V333H707.608V308Z" fill="#F34559"/>
<path d="M906.672 315.912H794.428V332.817H906.672V315.912Z" fill="#F34559"/>
<path d="M703.293 266.279H660.631L642.592 324.366H703.293V266.279Z" fill="#F34559"/>
<path d="M724.2 181.758H723.013V246.195H724.2V181.758Z" fill="#F34559"/>
<path d="M730.541 203.566H728.958V241.589H730.541V203.566Z" fill="#F34559"/>
<path d="M742.046 210.303H720.462V229.123H742.046V210.303Z" fill="#F34559"/>
<path d="M745.404 208.84H716.818V210.524H745.404V208.84Z" fill="#F34559"/>
<path d="M806.979 278.395H737.236V332.818H806.979V278.395Z" fill="#F34559"/>
<path d="M838.454 218.482H793.647V323.494H838.454V218.482Z" fill="#EFC9CD"/>
<path d="M1040.24 238.225H968.644V332.818H1040.24V238.225Z" fill="#F34559"/>
<path d="M1027.82 297.965H946.196V332.819H1027.82V297.965Z" fill="#F34559"/>
<path d="M1089.34 320.344H1036.27V332.818H1089.34V320.344Z" fill="#F34559"/>
<path d="M1204.31 297.965H1118.02V332.819H1204.31V297.965Z" fill="#F34559"/>
<path d="M1259.78 206.703H1152.4V332.814H1259.78V206.703Z" fill="#F34559"/>
<path d="M1266.04 201.869H1149.62V206.708H1266.04V201.869Z" fill="#F34559"/>
<path d="M1255.03 188.74H1207.83V214.306H1255.03V188.74Z" fill="#F34559"/>
<path d="M1192.41 188.74H1184.49V204.288H1192.41V188.74Z" fill="#F34559"/>
<path d="M1176.57 188.74H1167.85V204.288H1176.57V188.74Z" fill="#F34559"/>
<path d="M1418.6 148.635H1333.6V332.819H1418.6V148.635Z" fill="#F34559"/>
<path d="M1421.01 145.471H1331.18V150.677H1421.01V145.471Z" fill="#F34559"/>
<path d="M1415.74 138.807H1336.45V163.551H1415.74V138.807Z" fill="#F34559"/>
<path d="M1409.67 128.678H1378.28V155.715H1409.67V128.678Z" fill="#F34559"/>
<path d="M1391.5 136.3H1409.67V122.068H1396.64L1391.5 136.3Z" fill="#F34559"/>
<path d="M1402.34 110.258H1400.58V141.957H1402.34V110.258Z" fill="#F34559"/>
<path d="M1399.89 108.614C1399.89 109.522 1400.59 110.257 1401.47 110.257C1402.34 110.257 1403.05 109.522 1403.05 108.614C1403.05 107.706 1402.34 106.971 1401.47 106.971C1400.59 106.971 1399.89 107.706 1399.89 108.614Z" fill="#F34559"/>
<path d="M1445 256.781H1406.96V332.817H1445V256.781Z" fill="#F34559"/>
<path d="M1341.99 219.713H1298.6V332.818H1341.99V219.713Z" fill="#F34559"/>
<path d="M1320.31 332.817H1259.21V272.324L1310.78 292.248L1320.31 332.817Z" fill="#F34559"/>
<path d="M1072.27 219.572H1064.64V236.069H1072.27V219.572Z" fill="#F34559"/>
<path opacity="0.33" d="M1068.45 141.465H1064.64V154.277H1068.45V141.465Z" fill="#E7F3FE"/>
<path opacity="0.33" d="M1087.44 141.465H1083.62V154.277H1087.44V141.465Z" fill="#E7F3FE"/>
<path opacity="0.33" d="M1106.42 141.465H1102.6V154.277H1106.42V141.465Z" fill="#E7F3FE"/>
<path opacity="0.33" d="M1125.4 141.465H1121.58V154.277H1125.4V141.465Z" fill="#E7F3FE"/>
<path opacity="0.33" d="M1068.45 167.832H1064.64V180.644H1068.45V167.832Z" fill="#E7F3FE"/>
<path opacity="0.33" d="M1087.44 167.832H1083.62V180.644H1087.44V167.832Z" fill="#E7F3FE"/>
<path opacity="0.33" d="M1106.42 167.832H1102.6V180.644H1106.42V167.832Z" fill="#E7F3FE"/>
<path opacity="0.33" d="M1125.4 167.832H1121.58V180.644H1125.4V167.832Z" fill="#E7F3FE"/>
<path opacity="0.33" d="M1068.45 194.855H1064.64V207.668H1068.45V194.855Z" fill="#E7F3FE"/>
<path opacity="0.33" d="M1087.44 194.855H1083.62V207.668H1087.44V194.855Z" fill="#E7F3FE"/>
<path opacity="0.33" d="M1106.42 194.855H1102.6V207.668H1106.42V194.855Z" fill="#E7F3FE"/>
<path opacity="0.33" d="M1125.4 194.855H1121.58V207.668H1125.4V194.855Z" fill="#E7F3FE"/>
<path opacity="0.33" d="M1087.44 221.883H1083.62V234.695H1087.44V221.883Z" fill="#E7F3FE"/>
<path opacity="0.33" d="M1106.42 221.883H1102.6V234.695H1106.42V221.883Z" fill="#E7F3FE"/>
<path opacity="0.33" d="M1125.4 221.883H1121.58V234.695H1125.4V221.883Z" fill="#E7F3FE"/>
<path opacity="0.33" d="M1068.45 246.43H1064.64V259.242H1068.45V246.43Z" fill="#E7F3FE"/>
<path opacity="0.33" d="M1087.44 246.43H1083.62V259.242H1087.44V246.43Z" fill="#E7F3FE"/>
<path opacity="0.33" d="M1106.42 246.43H1102.6V259.242H1106.42V246.43Z" fill="#E7F3FE"/>
<path opacity="0.33" d="M1068.45 273.807H1064.64V286.619H1068.45V273.807Z" fill="#E7F3FE"/>
<path opacity="0.33" d="M1087.44 273.807H1083.62V286.619H1087.44V273.807Z" fill="#E7F3FE"/>
<path opacity="0.33" d="M1106.42 273.807H1102.6V286.619H1106.42V273.807Z" fill="#E7F3FE"/>
<path opacity="0.33" d="M1125.4 246.43H1121.58V259.242H1125.4V246.43Z" fill="#E7F3FE"/>
<path opacity="0.33" d="M873.308 154H867.602V165.743H873.308V154Z" fill="#E7F3FE"/>
<path opacity="0.33" d="M873.308 176.465H867.602V188.208H873.308V176.465Z" fill="#E7F3FE"/>
<path opacity="0.33" d="M873.308 198.928H867.602V210.671H873.308V198.928Z" fill="#E7F3FE"/>
<path opacity="0.33" d="M873.308 221.396H867.602V233.14H873.308V221.396Z" fill="#E7F3FE"/>
<path opacity="0.33" d="M873.308 242.574H867.602V254.318H873.308V242.574Z" fill="#E7F3FE"/>
<path opacity="0.33" d="M873.308 265.039H867.602V276.783H873.308V265.039Z" fill="#E7F3FE"/>
<path opacity="0.33" d="M897.776 154H892.07V165.743H897.776V154Z" fill="#E7F3FE"/>
<path opacity="0.33" d="M897.776 176.465H892.07V188.208H897.776V176.465Z" fill="#E7F3FE"/>
<path opacity="0.33" d="M897.776 198.928H892.07V210.671H897.776V198.928Z" fill="#E7F3FE"/>
<path opacity="0.33" d="M897.776 221.396H892.07V233.14H897.776V221.396Z" fill="#E7F3FE"/>
<path opacity="0.33" d="M897.776 242.574H892.07V254.318H897.776V242.574Z" fill="#E7F3FE"/>
<path opacity="0.33" d="M897.776 265.039H892.07V276.783H897.776V265.039Z" fill="#E7F3FE"/>
<path opacity="0.33" d="M922.243 154H916.538V165.743H922.243V154Z" fill="#E7F3FE"/>
<path opacity="0.33" d="M922.243 176.465H916.538V188.208H922.243V176.465Z" fill="#E7F3FE"/>
<path opacity="0.33" d="M922.243 198.928H916.538V210.671H922.243V198.928Z" fill="#E7F3FE"/>
<path opacity="0.33" d="M922.243 221.396H916.538V233.14H922.243V221.396Z" fill="#E7F3FE"/>
<path opacity="0.33" d="M922.243 242.574H916.538V254.318H922.243V242.574Z" fill="#E7F3FE"/>
<path opacity="0.33" d="M922.243 265.039H916.538V276.783H922.243V265.039Z" fill="#E7F3FE"/>
<path opacity="0.33" d="M946.712 154H941.006V165.743H946.712V154Z" fill="#E7F3FE"/>
<path opacity="0.33" d="M946.712 176.465H941.006V188.208H946.712V176.465Z" fill="#E7F3FE"/>
<path opacity="0.33" d="M946.712 198.928H941.006V210.671H946.712V198.928Z" fill="#E7F3FE"/>
<path opacity="0.33" d="M946.712 221.396H941.006V233.14H946.712V221.396Z" fill="#E7F3FE"/>
<path opacity="0.33" d="M946.712 242.574H941.006V254.318H946.712V242.574Z" fill="#E7F3FE"/>
<path opacity="0.33" d="M946.712 265.039H941.006V276.783H946.712V265.039Z" fill="#E7F3FE"/>
<g opacity="0.52">
<path opacity="0.52" d="M186.378 212.639H182.85V215.511H186.378V212.639Z" fill="#E7F3FE"/>
<path opacity="0.52" d="M193.471 212.639H189.942V215.511H193.471V212.639Z" fill="#E7F3FE"/>
<path opacity="0.52" d="M186.377 219.393H182.848V222.265H186.377V219.393Z" fill="#E7F3FE"/>
<path opacity="0.52" d="M193.471 219.393H189.942V222.265H193.471V219.393Z" fill="#E7F3FE"/>
<path opacity="0.52" d="M186.377 225.92H182.848V228.792H186.377V225.92Z" fill="#E7F3FE"/>
<path opacity="0.52" d="M201.353 212.639H197.825V215.511H201.353V212.639Z" fill="#E7F3FE"/>
</g>
<path opacity="0.5" d="M443.624 126.33H441.216V137.178H443.624V126.33Z" fill="#E7F3FE"/>
<path opacity="0.5" d="M451.922 126.33H449.514V137.178H451.922V126.33Z" fill="#E7F3FE"/>
<path opacity="0.5" d="M460.225 126.33H457.817V137.178H460.225V126.33Z" fill="#E7F3FE"/>
<path opacity="0.5" d="M468.522 126.33H466.114V137.178H468.522V126.33Z" fill="#E7F3FE"/>
<path opacity="0.5" d="M476.82 126.33H474.412V137.178H476.82V126.33Z" fill="#E7F3FE"/>
<path opacity="0.5" d="M485.117 126.33H482.709V137.178H485.117V126.33Z" fill="#E7F3FE"/>
<path opacity="0.5" d="M493.415 126.33H491.007V137.178H493.415V126.33Z" fill="#E7F3FE"/>
<path opacity="0.5" d="M501.713 126.33H499.305V137.178H501.713V126.33Z" fill="#E7F3FE"/>
<path opacity="0.5" d="M510.01 126.33H507.602V137.178H510.01V126.33Z" fill="#E7F3FE"/>
<path opacity="0.5" d="M518.308 126.33H515.9V137.178H518.308V126.33Z" fill="#E7F3FE"/>
<path opacity="0.5" d="M526.605 126.33H524.198V137.178H526.605V126.33Z" fill="#E7F3FE"/>
<path opacity="0.5" d="M443.624 141.432H441.216V152.28H443.624V141.432Z" fill="#E7F3FE"/>
<path opacity="0.5" d="M451.922 141.432H449.514V152.28H451.922V141.432Z" fill="#E7F3FE"/>
<path opacity="0.5" d="M460.225 141.432H457.817V152.28H460.225V141.432Z" fill="#E7F3FE"/>
<path opacity="0.5" d="M468.522 141.432H466.114V152.28H468.522V141.432Z" fill="#E7F3FE"/>
<path opacity="0.5" d="M476.82 141.432H474.412V152.28H476.82V141.432Z" fill="#E7F3FE"/>
<path opacity="0.5" d="M485.117 141.432H482.709V152.28H485.117V141.432Z" fill="#E7F3FE"/>
<path opacity="0.5" d="M493.415 141.432H491.007V152.28H493.415V141.432Z" fill="#E7F3FE"/>
<path opacity="0.5" d="M501.713 141.432H499.305V152.28H501.713V141.432Z" fill="#E7F3FE"/>
<path opacity="0.5" d="M510.01 141.432H507.602V152.28H510.01V141.432Z" fill="#E7F3FE"/>
<path opacity="0.5" d="M518.308 141.432H515.9V152.28H518.308V141.432Z" fill="#E7F3FE"/>
<path opacity="0.5" d="M526.605 141.432H524.198V152.28H526.605V141.432Z" fill="#E7F3FE"/>
<path opacity="0.5" d="M443.624 156.537H441.216V167.385H443.624V156.537Z" fill="#E7F3FE"/>
<path opacity="0.5" d="M451.922 156.537H449.514V167.385H451.922V156.537Z" fill="#E7F3FE"/>
<path opacity="0.5" d="M460.225 156.537H457.817V167.385H460.225V156.537Z" fill="#E7F3FE"/>
<path opacity="0.5" d="M468.522 156.537H466.114V167.385H468.522V156.537Z" fill="#E7F3FE"/>
<path opacity="0.5" d="M476.82 156.537H474.412V167.385H476.82V156.537Z" fill="#E7F3FE"/>
<path opacity="0.5" d="M485.117 156.537H482.709V167.385H485.117V156.537Z" fill="#E7F3FE"/>
<path opacity="0.5" d="M493.415 156.537H491.007V167.385H493.415V156.537Z" fill="#E7F3FE"/>
<path opacity="0.5" d="M501.713 156.537H499.305V167.385H501.713V156.537Z" fill="#E7F3FE"/>
<path opacity="0.5" d="M510.01 156.537H507.602V167.385H510.01V156.537Z" fill="#E7F3FE"/>
<path opacity="0.5" d="M518.308 156.537H515.9V167.385H518.308V156.537Z" fill="#E7F3FE"/>
<path opacity="0.5" d="M526.605 156.537H524.198V167.385H526.605V156.537Z" fill="#E7F3FE"/>
<path opacity="0.5" d="M468.522 171.643H466.114V182.49H468.522V171.643Z" fill="#E7F3FE"/>
<path opacity="0.5" d="M476.82 171.643H474.412V182.49H476.82V171.643Z" fill="#E7F3FE"/>
<path opacity="0.5" d="M485.117 171.643H482.709V182.49H485.117V171.643Z" fill="#E7F3FE"/>
<path opacity="0.5" d="M493.415 171.643H491.007V182.49H493.415V171.643Z" fill="#E7F3FE"/>
<path opacity="0.5" d="M501.713 171.643H499.305V182.49H501.713V171.643Z" fill="#E7F3FE"/>
<path opacity="0.5" d="M510.01 171.643H507.602V182.49H510.01V171.643Z" fill="#E7F3FE"/>
<path opacity="0.5" d="M518.308 171.643H515.9V182.49H518.308V171.643Z" fill="#E7F3FE"/>
<path opacity="0.5" d="M526.605 171.643H524.198V182.49H526.605V171.643Z" fill="#E7F3FE"/>
<path opacity="0.5" d="M476.82 187.586H474.412V198.434H476.82V187.586Z" fill="#E7F3FE"/>
<path opacity="0.5" d="M485.117 187.586H482.709V198.434H485.117V187.586Z" fill="#E7F3FE"/>
<path opacity="0.5" d="M493.415 187.586H491.007V198.434H493.415V187.586Z" fill="#E7F3FE"/>
<path opacity="0.5" d="M501.713 187.586H499.305V198.434H501.713V187.586Z" fill="#E7F3FE"/>
<path opacity="0.5" d="M510.01 187.586H507.602V198.434H510.01V187.586Z" fill="#E7F3FE"/>
<path opacity="0.5" d="M518.308 187.586H515.9V198.434H518.308V187.586Z" fill="#E7F3FE"/>
<path opacity="0.5" d="M526.605 187.586H524.198V198.434H526.605V187.586Z" fill="#E7F3FE"/>
<path opacity="0.4" d="M231.493 93.5996H228.483V103.024H231.493V93.5996Z" fill="#E7F3FE"/>
<path opacity="0.4" d="M197.824 109.965H194.815V119.389H197.824V109.965Z" fill="#E7F3FE"/>
<path opacity="0.4" d="M208.447 109.965H205.437V119.389H208.447V109.965Z" fill="#E7F3FE"/>
<path opacity="0.4" d="M220.87 109.965H217.86V119.389H220.87V109.965Z" fill="#E7F3FE"/>
<path opacity="0.4" d="M231.493 109.965H228.483V119.389H231.493V109.965Z" fill="#E7F3FE"/>
<path opacity="0.4" d="M174.229 109.965H171.219V119.389H174.229V109.965Z" fill="#E7F3FE"/>
<path opacity="0.4" d="M184.851 109.965H181.842V119.389H184.851V109.965Z" fill="#E7F3FE"/>
<path opacity="0.4" d="M197.824 126.324H194.815V135.749H197.824V126.324Z" fill="#E7F3FE"/>
<path opacity="0.4" d="M208.447 126.324H205.437V135.749H208.447V126.324Z" fill="#E7F3FE"/>
<path opacity="0.4" d="M220.87 126.324H217.86V135.749H220.87V126.324Z" fill="#E7F3FE"/>
<path opacity="0.4" d="M231.493 126.324H228.483V135.749H231.493V126.324Z" fill="#E7F3FE"/>
<path opacity="0.4" d="M174.229 126.324H171.219V135.749H174.229V126.324Z" fill="#E7F3FE"/>
<path opacity="0.4" d="M184.851 126.324H181.842V135.749H184.851V126.324Z" fill="#E7F3FE"/>
<path opacity="0.5" d="M761.186 165.814H756.521V180.426H761.186V165.814Z" fill="#E7F3FE"/>
<path opacity="0.5" d="M775.461 165.814H770.796V180.426H775.461V165.814Z" fill="#E7F3FE"/>
<path opacity="0.5" d="M788.891 165.814H784.226V180.426H788.891V165.814Z" fill="#E7F3FE"/>
<path opacity="0.33" d="M1081.4 168.852H1077.87V177.068H1081.4V168.852Z" fill="#E7F3FE"/>
<path opacity="0.33" d="M1092.5 168.852H1088.97V177.068H1092.5V168.852Z" fill="#E7F3FE"/>
<path opacity="0.33" d="M1081.4 183.586H1077.87V191.802H1081.4V183.586Z" fill="#E7F3FE"/>
<path opacity="0.33" d="M1092.5 183.586H1088.97V191.802H1092.5V183.586Z" fill="#E7F3FE"/>
<path opacity="0.33" d="M1081.4 199.27H1077.87V207.486H1081.4V199.27Z" fill="#E7F3FE"/>
<path opacity="0.33" d="M1092.5 199.27H1088.97V207.486H1092.5V199.27Z" fill="#E7F3FE"/>
<path opacity="0.33" d="M805.206 224.881H801.402V237.693H805.206V224.881Z" fill="#E7F3FE"/>
<path opacity="0.33" d="M1235.43 212.195H1231.54V219.55H1235.43V212.195Z" fill="#E7F3FE"/>
<path opacity="0.33" d="M1235.43 224.066H1231.54V231.421H1235.43V224.066Z" fill="#E7F3FE"/>
<path opacity="0.33" d="M1245.41 212.195H1241.52V219.55H1245.41V212.195Z" fill="#E7F3FE"/>
</g>
<path d="M234.896 119.35C234.896 119.35 234.28 118.833 233.14 117.953" stroke="#666666" stroke-miterlimit="10"/>
<path d="M649.696 113.541C635.719 103.569 595.925 79.3933 571.326 107.244C533.277 150.331 579.825 206.928 612.303 166.376C624.256 151.453 627.828 118.032 603.336 97.9775C559.829 62.3484 510.615 71.4538 485.314 89.668C468.45 101.812 460.795 116.709 458.125 131.255C452.016 164.554 471.596 195.467 498.044 195.549C534.9 195.666 548.217 151.647 542.847 125.776C531.911 73.0643 483.349 64.6417 447.99 68.0338" stroke="#666666" stroke-miterlimit="10" stroke-dasharray="12.05 12.05"/>
<path d="M25.0869 67.8144C24.3847 67.8925 23.6894 67.9725 22.9999 68.0588" stroke="#666666" stroke-miterlimit="10"/>
<rect x="-4" y="329" width="1445" height="32" fill="#D8D8D8"/>
<g opacity="0.7">
<path d="M326.699 70.7918L263.856 71.4181C255.849 71.4986 249.423 78.0211 249.504 85.9931L249.954 130.595C250.035 138.567 256.586 144.964 264.593 144.884L268.493 144.848L272.941 153.992L277.938 144.759L327.427 144.266C335.434 144.186 341.86 137.663 341.779 129.691L341.329 85.0895C341.257 77.1085 334.706 70.7112 326.699 70.7918Z" fill="white"/>
<path d="M131.519 102.001L208.694 102.771C218.527 102.87 226.417 110.894 226.318 120.701L225.766 175.57C225.667 185.377 217.622 193.247 207.789 193.148L202.999 193.104L197.536 204.353L191.4 192.994L130.625 192.388C120.792 192.289 112.902 184.265 113.001 174.458L113.553 119.59C113.641 109.772 121.686 101.902 131.519 102.001Z" fill="white"/>
<path d="M173.647 27.2615L229.433 26.2426C236.542 26.1145 242.405 31.7414 242.528 38.8196L243.227 78.4242C243.351 85.5024 237.695 91.3434 230.586 91.4714L227.121 91.54L223.405 99.7632L218.738 91.6888L174.8 92.4904C167.691 92.6184 161.828 86.9916 161.705 79.9133L161.006 40.3087C160.883 33.2422 166.539 27.4012 173.647 27.2615Z" fill="white"/>
</g>
<ellipse cx="301.5" cy="344" rx="133.5" ry="2" fill="#29332B" fill-opacity="0.3"/>
<g opacity="0.85">
<path d="M1188.57 156.592C1189.11 154.796 1189.4 152.851 1189.4 150.818C1189.4 141.747 1183.54 134.393 1176.3 134.393C1175.24 134.393 1174.21 134.555 1173.22 134.853C1172.04 110.298 1160.04 91 1145.39 91C1131.45 91 1119.89 108.506 1117.81 131.387C1107.44 137.695 1100.33 150.61 1100.33 165.518C1100.33 172.625 1101.94 179.279 1104.76 184.98C1095.13 190.292 1089 198.3 1089 207.26C1089 223.253 1108.52 236.215 1132.61 236.215C1150.63 236.215 1166.11 228.951 1172.75 218.591C1174.59 218.981 1176.5 219.188 1178.45 219.188C1194.84 219.188 1208.13 204.744 1208.13 186.927C1208.13 172.973 1199.98 161.088 1188.57 156.592Z" fill="#F4F9FD"/>
<path d="M1188.57 156.593C1188.57 156.593 1159.7 146.527 1137.69 164.264C1115.68 181.998 1100.37 154.027 1107.72 141.031C1103.1 147.665 1100.32 156.202 1100.32 165.518C1100.32 172.626 1101.94 179.28 1104.76 184.98C1095.13 190.292 1089 198.3 1089 207.261C1089 223.253 1108.52 236.216 1132.61 236.216C1150.63 236.216 1166.11 228.952 1172.75 218.591C1174.59 218.982 1176.5 219.188 1178.45 219.188C1194.84 219.188 1208.13 204.745 1208.13 186.927C1208.13 172.974 1199.98 161.088 1188.57 156.593Z" fill="#F4F9FD"/>
<path d="M1154.63 346.217C1153.5 346.217 1152.57 345.945 1152.57 344.928V145.426C1152.57 144.409 1153.5 143.584 1154.63 143.584C1155.77 143.584 1156.69 144.409 1156.69 145.426V344.928C1156.69 345.947 1155.77 346.217 1154.63 346.217Z" fill="#9CC3C5"/>
<path d="M1154.63 216.284C1148.79 216.284 1143.86 214.422 1139.96 210.752C1129.05 200.482 1130.1 179.504 1130.15 178.616C1130.21 177.599 1131.17 176.816 1132.31 176.87C1133.44 176.921 1134.31 177.785 1134.26 178.802C1134.25 179.004 1133.25 199.1 1142.94 208.219C1146.08 211.168 1149.9 212.603 1154.63 212.603C1155.76 212.603 1156.68 213.428 1156.68 214.444C1156.69 215.461 1155.77 216.284 1154.63 216.284Z" fill="#9CC3C5"/>
<path d="M1154.92 258.053C1154.78 258.053 1154.64 258.049 1154.51 258.042C1153.37 257.979 1152.51 257.106 1152.58 256.092C1152.65 255.077 1153.62 254.303 1154.76 254.366C1155.54 254.408 1156.33 254.108 1157.15 253.447C1159.69 251.408 1164.51 244.234 1168.26 219.084C1170.43 204.541 1171.17 190.98 1171.18 190.844C1171.24 189.827 1172.2 189.041 1173.34 189.092C1174.47 189.14 1175.35 190.004 1175.29 191.021C1175.28 191.157 1174.53 204.875 1172.34 219.57C1171.05 228.236 1169.51 235.554 1167.78 241.322C1165.51 248.892 1162.93 253.754 1159.9 256.189C1158.35 257.429 1156.68 258.053 1154.92 258.053Z" fill="#9CC3C5"/>
</g>
<g opacity="0.85">
<path d="M1211.78 181.396C1211.32 179.314 1211.06 177.059 1211.06 174.703C1211.06 164.185 1216.12 155.66 1222.37 155.66C1223.29 155.66 1224.18 155.848 1225.03 156.194C1226.05 127.727 1236.41 105.352 1249.05 105.352C1261.08 105.352 1271.06 125.648 1272.86 152.175C1281.81 159.488 1287.95 174.46 1287.95 191.743C1287.95 199.985 1286.55 207.697 1284.12 214.309C1292.43 220.466 1297.72 229.751 1297.72 240.141C1297.72 258.68 1280.87 273.711 1260.08 273.711C1244.52 273.711 1231.17 265.288 1225.44 253.277C1223.84 253.73 1222.2 253.97 1220.51 253.97C1206.36 253.97 1194.9 237.224 1194.9 216.569C1194.9 200.388 1201.94 186.611 1211.78 181.396Z" fill="#F4F9FD"/>
<path d="M1284.12 214.31C1286.55 207.7 1287.95 199.985 1287.95 191.744C1287.95 189.67 1287.86 187.632 1287.69 185.635C1252.92 188.024 1254.3 222.888 1254.3 222.888C1254.3 222.888 1225.54 210.776 1215.96 227.836C1206.37 244.896 1225.44 253.276 1225.44 253.276C1231.17 265.287 1244.52 273.71 1260.09 273.71C1280.87 273.71 1297.72 258.681 1297.72 240.14C1297.72 229.752 1292.43 220.467 1284.12 214.31Z" fill="#F4F9FD"/>
<path d="M1248.67 345.954C1247.69 345.954 1246.9 345.956 1246.9 344.974V195.543C1246.9 194.563 1247.69 193.768 1248.67 193.768C1249.65 193.768 1250.45 194.563 1250.45 195.543V344.976C1250.45 345.956 1249.65 345.954 1248.67 345.954Z" fill="#9CC3C5"/>
<path d="M1248.67 245.418C1243.64 245.418 1239.37 243.623 1236.01 240.085C1226.6 230.185 1227.5 209.963 1227.54 209.108C1227.59 208.129 1228.42 207.371 1229.4 207.425C1230.38 207.474 1231.14 208.307 1231.09 209.287C1231.08 209.498 1230.22 228.857 1238.58 237.644C1241.29 240.486 1244.59 241.869 1248.67 241.869C1249.65 241.869 1250.45 242.665 1250.45 243.645C1250.45 244.625 1249.65 245.418 1248.67 245.418Z" fill="#9CC3C5"/>
<path d="M1250.1 303.497C1249.98 303.497 1249.86 303.493 1249.74 303.486C1248.77 303.426 1248.02 302.584 1248.08 301.606C1248.14 300.628 1248.98 299.882 1249.96 299.943C1250.64 299.983 1251.31 299.694 1252.03 299.057C1254.22 297.091 1258.38 290.176 1261.62 265.933C1263.49 251.914 1264.13 238.842 1264.14 238.71C1264.19 237.73 1265.02 236.972 1266 237.022C1266.98 237.068 1267.73 237.901 1267.69 238.881C1267.68 239.012 1267.03 252.235 1265.14 266.401C1264.02 274.755 1262.7 281.808 1261.2 287.369C1259.24 294.666 1257.02 299.353 1254.4 301.7C1253.07 302.893 1251.62 303.497 1250.1 303.497Z" fill="#9CC3C5"/>
</g>
<g opacity="0.85">
<path d="M1225.78 116.076C1223.99 95.0714 1214.01 79 1201.97 79C1189.34 79 1178.97 96.7169 1177.96 119.26C1177.1 118.986 1176.21 118.836 1175.3 118.836C1169.05 118.836 1163.99 125.588 1163.99 133.916C1163.99 135.782 1164.24 137.567 1164.71 139.216C1154.86 143.345 1147.82 154.254 1147.82 167.066C1147.82 183.423 1159.29 196.681 1173.44 196.681C1184.79 196.681 1194.41 188.15 1197.77 176.335C1202.2 180.233 1207.57 182.515 1213.36 182.515C1228.56 182.515 1240.87 166.798 1240.87 147.409C1240.88 133.722 1234.74 121.866 1225.78 116.076Z" fill="#F4F9FD"/>
<path d="M1220.2 132.062C1194.5 128.623 1190.69 156.401 1190.69 156.401C1160.26 142.643 1147.86 168.571 1147.86 168.571C1148.54 184.227 1159.73 196.68 1173.44 196.68C1184.79 196.68 1194.41 188.148 1197.77 176.333C1202.2 180.231 1207.57 182.513 1213.36 182.513C1222.49 182.513 1230.58 176.837 1235.59 168.101C1235.76 167.553 1245.67 135.474 1220.2 132.062Z" fill="#F4F9FD"/>
<path d="M1198.87 346.218C1197.89 346.218 1196.95 346.837 1196.95 345.863V154.815C1196.95 153.841 1197.74 153.051 1198.72 153.051C1199.7 153.051 1200.5 153.841 1200.5 154.815V345.863C1200.5 346.837 1199.85 346.218 1198.87 346.218Z" fill="#9CC3C5"/>
<path d="M1198.72 222.672C1193.24 222.672 1188.54 219.465 1184.75 213.142C1181.89 208.376 1179.52 201.783 1177.71 193.545C1174.67 179.676 1174.22 165.623 1174.22 165.482C1174.19 164.508 1174.96 163.695 1175.94 163.667C1176.93 163.639 1177.74 164.404 1177.77 165.378C1177.77 165.515 1178.21 179.281 1181.19 192.832C1183.83 204.835 1189.02 219.142 1198.72 219.142C1199.7 219.142 1200.5 219.932 1200.5 220.906C1200.5 221.881 1199.7 222.672 1198.72 222.672Z" fill="#9CC3C5"/>
<path d="M1198.89 262.67C1198.79 262.67 1198.7 262.666 1198.61 262.661C1197.63 262.601 1196.89 261.765 1196.95 260.793C1197.01 259.821 1197.85 259.08 1198.83 259.14C1199.05 259.153 1199.42 259.114 1199.96 258.599C1202.17 256.491 1206.13 247.759 1207.72 212.974C1208.64 192.92 1208.3 173.82 1208.3 173.63C1208.28 172.656 1209.06 171.852 1210.04 171.834C1211.02 171.813 1211.83 172.591 1211.85 173.565C1211.85 173.757 1212.19 192.97 1211.27 213.135C1210.72 225.008 1209.85 234.894 1208.68 242.517C1207.14 252.502 1205.09 258.595 1202.41 261.144C1201.12 262.377 1199.82 262.67 1198.89 262.67Z" fill="#9CC3C5"/>
</g>
<path d="M785.822 179.513C785.822 179.513 786.602 180.083 788.041 181.045" stroke="#666666" stroke-miterlimit="10"/>
<path d="M792.35 185.869C809.95 196.673 859.807 222.317 888.06 186.281C931.76 130.532 871.743 66.199 834.667 118.361C821.023 137.557 818.682 178.408 849.677 200.467C904.737 239.657 964.057 224.08 993.742 199.664C1013.53 183.385 1021.95 164.618 1024.32 146.735C1029.76 105.797 1004.08 70.1203 971.907 72.4584C927.067 75.7133 913.508 130.313 921.591 161.187C938.055 224.091 997.633 229.827 1040.44 222.455" stroke="#666666" stroke-miterlimit="10" stroke-dasharray="12.05 12.05"/>
<path d="M1043.79 222.491C1044.64 222.331 1045.48 222.17 1046.31 222.001" stroke="#666666" stroke-miterlimit="10"/>
<path d="M1120.53 221.521L1118.22 237.312L1067.89 250.878L1108.31 219.208L1120.53 221.521Z" fill="#5BAEB4"/>
<path d="M1067.03 250.868L1119.62 221.538L1110.42 209.621L1067.03 250.868Z" fill="#8FE4F6"/>
<path d="M1121.97 250.183L1119.66 256.849L1067.89 250.83L1121.97 250.183Z" fill="#5BAEB4"/>
<path d="M1067.03 250.972L1125.85 232.224L1136.69 250.671L1067.03 250.972Z" fill="#8FE4F6"/>
<path d="M250.989 339.969C251.619 336.72 249.496 333.574 246.246 332.944C242.997 332.314 239.852 334.437 239.222 337.687C238.591 340.936 240.715 344.081 243.964 344.711C247.214 345.342 250.359 343.218 250.989 339.969Z" fill="#29332B"/>
<path d="M249.171 338.779C249.2 341.025 247.407 342.872 245.156 342.901C242.91 342.93 241.063 341.136 241.034 338.886C241.005 336.635 242.799 334.793 245.049 334.764C247.3 334.735 249.142 336.533 249.171 338.779Z" fill="#434144"/>
<path d="M197.598 343.857C199.99 341.569 200.075 337.776 197.787 335.383C195.5 332.991 191.706 332.906 189.314 335.194C186.922 337.482 186.837 341.275 189.124 343.667C191.412 346.059 195.206 346.144 197.598 343.857Z" fill="#29332B"/>
<path d="M250.989 330.293L187.355 331.152L187.464 339.288L251.099 338.429L250.989 330.293Z" fill="#29332B"/>
<path d="M197.526 339.474C197.555 341.72 195.762 343.567 193.511 343.596C191.261 343.625 189.418 341.832 189.389 339.581C189.36 337.336 191.154 335.488 193.404 335.459C195.655 335.43 197.497 337.229 197.526 339.474Z" fill="#434144"/>
<path d="M204.548 188.691L201.462 188.732L202.137 238.73L205.223 238.688L204.548 188.691Z" fill="#434144"/>
<path d="M231.063 188.333L227.977 188.375L228.652 238.372L231.738 238.33L231.063 188.333Z" fill="#434144"/>
<path d="M227.036 238.547L206.839 238.819C205.342 238.838 204.103 237.633 204.083 236.136C204.064 234.639 205.269 233.399 206.766 233.38L226.963 233.108C228.46 233.088 229.699 234.294 229.719 235.791C229.738 237.288 228.533 238.527 227.036 238.547Z" fill="#1694A1"/>
<path d="M231.06 188.335L201.463 188.734L201.415 185.059C201.4 183.985 202.26 183.105 203.335 183.09L229.043 182.74C230.117 182.726 230.997 183.586 231.011 184.66L231.06 188.335Z" fill="#29332B"/>
<path d="M248.165 333.014L188.262 333.821C183.697 333.884 179.95 330.234 179.887 325.67L178.803 245.108C178.739 240.544 182.39 236.797 186.954 236.733L246.857 235.927C251.422 235.863 255.169 239.514 255.232 244.078L256.316 324.635C256.379 329.204 252.729 332.951 248.165 333.014Z" fill="#97CACF"/>
<path d="M243.032 239.109C244.208 238.891 245.472 239.056 246.614 239.518C247.766 239.97 248.792 240.718 249.633 241.622C250.464 242.536 251.12 243.61 251.514 244.777C251.912 245.934 252.063 247.178 251.878 248.364C251.659 247.188 251.305 246.089 250.809 245.068C250.308 244.053 249.681 243.105 248.918 242.288C248.165 241.457 247.275 240.757 246.293 240.213C245.307 239.659 244.213 239.294 243.032 239.109Z" fill="#9ED3AA"/>
<path d="M198.498 333.679L188.262 333.816C183.697 333.879 179.95 330.228 179.887 325.664L178.803 245.108C178.739 240.543 182.39 236.796 186.954 236.733L197.191 236.597C201.755 236.533 205.502 240.184 205.566 244.748L206.65 325.304C206.708 329.869 203.062 333.621 198.498 333.679Z" fill="#1694A1"/>
<path d="M215.501 322.747C214.777 322.781 214.033 322.572 213.44 322.12C212.847 321.678 212.448 320.939 212.448 320.176L212.283 315.835L212.026 307.154C211.87 301.365 211.773 295.581 211.685 289.792C211.617 284.003 211.559 278.214 211.559 272.424L211.583 263.738L211.632 259.398C211.612 258.635 211.992 257.886 212.57 257.429C213.148 256.958 213.892 256.734 214.611 256.749C213.887 256.783 213.182 257.06 212.662 257.541C212.133 258.013 211.831 258.703 211.885 259.398L212.055 263.738L212.312 272.42C212.468 278.209 212.565 283.993 212.653 289.782C212.721 295.571 212.779 301.36 212.779 307.149L212.755 315.835L212.706 320.176C212.672 320.871 212.993 321.552 213.537 322.009C214.062 322.475 214.777 322.728 215.501 322.747Z" fill="#BDE1D8"/>
<path d="M231.639 322.529C230.914 322.563 230.171 322.354 229.578 321.902C228.985 321.459 228.586 320.72 228.586 319.957L228.421 315.617L228.163 306.935C228.008 301.146 227.911 295.362 227.823 289.573C227.755 283.784 227.697 277.995 227.697 272.206L227.721 263.52L227.77 259.179C227.75 258.416 228.129 257.667 228.708 257.21C229.286 256.739 230.03 256.515 230.749 256.53C230.025 256.564 229.32 256.841 228.8 257.322C228.27 257.794 227.969 258.484 228.022 259.179L228.192 263.52L228.45 272.201C228.606 277.99 228.703 283.774 228.79 289.563C228.858 295.352 228.917 301.142 228.917 306.931L228.892 315.617L228.844 319.957C228.81 320.652 229.131 321.333 229.675 321.79C230.2 322.256 230.914 322.514 231.639 322.529Z" fill="#BDE1D8"/>
<path d="M247.776 322.31C247.052 322.344 246.308 322.135 245.715 321.683C245.122 321.241 244.724 320.502 244.724 319.739L244.558 315.398L244.301 306.717C244.145 300.928 244.048 295.143 243.961 289.354C243.893 283.565 243.834 277.776 243.834 271.987L243.859 263.301L243.907 258.96C243.888 258.197 244.267 257.449 244.845 256.992C245.424 256.52 246.167 256.297 246.887 256.311C246.163 256.345 245.458 256.622 244.938 257.104C244.408 257.575 244.106 258.265 244.16 258.96L244.33 263.301L244.588 271.982C244.743 277.771 244.84 283.555 244.928 289.345C244.996 295.134 245.054 300.923 245.054 306.712L245.03 315.398L244.981 319.739C244.947 320.434 245.268 321.114 245.813 321.571C246.337 322.038 247.052 322.295 247.776 322.31Z" fill="#BDE1D8"/>
<path d="M214.932 256.75C214.67 256.755 214.422 256.799 214.183 256.857C215.418 257.129 216.342 258.092 216.356 259.258L217.178 320.197C217.192 321.364 216.298 322.35 215.068 322.657C215.311 322.71 215.559 322.749 215.817 322.744C217.411 322.725 218.689 321.573 218.675 320.178L217.853 259.239C217.839 257.844 216.531 256.731 214.932 256.75Z" fill="#1694A1"/>
<path d="M230.749 256.535C230.486 256.54 230.238 256.584 230 256.642C231.235 256.915 232.158 257.877 232.173 259.044L232.994 319.982C233.009 321.149 232.115 322.136 230.885 322.442C231.128 322.495 231.376 322.534 231.633 322.529C233.228 322.51 234.506 321.358 234.491 319.963L233.67 259.024C233.655 257.629 232.343 256.516 230.749 256.535Z" fill="#1694A1"/>
<path d="M246.886 256.323C246.624 256.328 246.376 256.371 246.138 256.43C247.372 256.702 248.296 257.664 248.31 258.831L249.132 319.769C249.146 320.936 248.252 321.923 247.022 322.229C247.265 322.282 247.513 322.321 247.771 322.316C249.365 322.297 250.644 321.145 250.629 319.75L249.808 258.811C249.788 257.411 248.481 256.298 246.886 256.323Z" fill="#1694A1"/>
<path d="M236.392 252.132L224.853 252.288C223.439 252.307 222.267 251.165 222.248 249.755C222.228 248.341 223.371 247.169 224.78 247.15L236.32 246.994C237.734 246.975 238.905 248.117 238.925 249.527C238.944 250.941 237.802 252.113 236.392 252.132Z" fill="#EDDFD6"/>
<path d="M223.385 249.736C223.366 248.322 224.508 247.15 225.918 247.131L224.775 247.145C223.361 247.165 222.224 248.336 222.243 249.751C222.262 251.165 223.434 252.303 224.848 252.283L225.991 252.269C224.576 252.288 223.405 251.151 223.385 249.736Z" fill="#896C5E"/>
<path d="M233.908 247.782C234.423 247.675 234.934 247.612 235.459 247.592C235.979 247.573 236.518 247.588 237.058 247.772C237.32 247.874 237.588 248.02 237.792 248.249C237.986 248.482 238.113 248.754 238.166 249.031C238.273 249.585 238.142 250.159 237.84 250.591C237.952 250.081 237.947 249.571 237.797 249.128C237.646 248.676 237.34 248.375 236.893 248.224C236.46 248.064 235.954 248.02 235.449 247.967C234.939 247.923 234.423 247.874 233.908 247.782Z" fill="#FCF9F7"/>
<path d="M265.656 216.071C265.36 215.174 265.244 215.817 265.656 216.071V216.071Z" fill="#15BBCC"/>
<path d="M405.87 215.599C389.407 220.748 371.434 225.874 355.299 219.769C341.898 214.698 332.417 202.779 324.419 190.893C324.724 191.35 293.46 206.1 290.546 207.272C284.603 209.66 278.581 211.844 272.485 213.816C270.966 214.306 265.115 215.183 264.492 216.619C263.794 218.212 266.727 224.036 267.281 225.726C275.136 249.601 284.917 272.843 296.49 295.157C303.55 308.766 311.272 322.033 319.635 334.885C312.675 338.335 305.716 341.78 298.762 345.229C311.004 344.574 323.251 343.918 335.493 343.262C329.679 310.604 323.869 277.946 318.055 245.283C318.328 246.816 325.056 249.721 326.585 250.473C351.669 262.771 382.213 255.752 402.952 238.37C404.051 237.451 405.196 236.467 406.6 236.181C407.667 235.964 408.775 236.181 409.828 236.458C413.481 237.414 416.94 239.123 419.918 241.445C415.24 232.828 410.553 224.216 405.87 215.599Z" fill="#15BBCC"/>
<path d="M267.369 215.387C267.457 215.281 267.271 215.378 267.369 215.387V215.387Z" fill="#15BBCC"/>
<path d="M245.886 89.5229L246.329 85.4499C246.408 84.7849 246.177 84.1199 245.706 83.6443L245.179 83.1178C244.999 82.9377 244.685 83.0347 244.639 83.2887L244.011 86.7891C243.933 87.2324 243.72 87.6388 243.402 87.9574L242.187 89.172L245.032 90.0909C245.166 90.1325 245.886 90.0909 245.886 89.5229Z" fill="url(#paint0_linear)"/>
<path d="M377.267 184.026C382.43 183.813 386.327 184.164 387.814 185.799C389.5 187.651 390.419 187.974 391.033 188.417C391.398 188.68 392.183 189.004 392.617 189.115C393.171 189.253 397.978 190.181 398.209 190.241C398.486 190.311 399.036 190.454 398.694 189.484C398.449 188.787 394.917 187.055 395.475 186.727C398.306 185.046 402.675 185.476 405.75 185.434C405.963 185.429 406.457 185.42 406.512 185.24C406.572 185.046 406.087 184.751 405.926 184.654C404.189 183.596 398.131 183.661 398.131 183.665C398.131 183.665 398.749 183.444 400.707 183.374C404.125 183.259 405.921 183.809 408.327 182.853C408.798 182.668 409.218 182.492 409.209 182.312C409.158 181.393 398.177 181.92 398.163 181.301C398.158 181.144 398.851 180.987 399.193 180.908C402.398 180.174 403.917 181.546 406.355 180.516C406.739 180.354 407.297 180.119 407.283 179.883C407.233 179.094 400.754 179.246 397.766 179.241C393.305 179.232 386.978 179.454 379.234 180.516C378.754 181.43 377.738 183.102 377.267 184.026Z" fill="url(#paint1_linear)"/>
<path d="M318.06 172.817C318.951 172.817 318.951 171.432 318.06 171.432C317.168 171.432 317.168 172.817 318.06 172.817Z" fill="#93002E"/>
<path d="M235.921 101.771C237.445 96.8345 239.079 93.2786 241.121 92.4243C243.43 91.4546 244.621 90.6279 245.244 90.1985C245.614 89.9445 245.873 89.6766 245.914 89.2287C245.979 88.5499 246.122 87.5939 245.891 87.5293C244.367 87.0814 246.334 87.8526 245.485 87.3446C244.852 86.9659 244.681 86.1531 244.556 85.5159C243.919 82.2879 245.785 78.3165 246.773 75.4025C246.842 75.1994 246.999 74.7329 246.847 74.6175C246.681 74.4974 246.242 74.853 246.094 74.9731C244.519 76.2569 242.552 81.9877 242.552 81.9877C242.552 81.9877 242.548 81.332 243.143 79.4617C244.178 76.2061 245.3 74.6914 245.198 72.1099C245.18 71.6066 245.157 71.1494 244.986 71.0986C244.104 70.8354 240.922 81.3643 240.336 81.1704C240.188 81.1196 240.271 80.4176 240.312 80.0713C240.696 76.8064 242.492 75.832 242.34 73.1905C242.317 72.7749 242.28 72.17 242.053 72.1053C241.291 71.8883 239.269 78.044 238.262 80.8563C236.761 85.0587 234.854 91.0897 233.261 98.7463C233.972 99.5037 235.21 101.018 235.921 101.771Z" fill="url(#paint2_linear)"/>
<path d="M387.256 178.257C386.207 176.474 384.203 175.311 382.162 174.969C364.083 171.958 358.67 171.214 346.996 166.878C338.555 163.743 330.288 158.663 323.394 152.641C314.781 143.627 303.998 141.078 297.099 139.54C273.663 134.322 270.666 143.063 258.013 138.843C238.437 132.317 243.693 96.6253 235.399 95.7201C228.592 94.9767 217.864 116.215 220.824 137.282C223.124 153.625 238.668 169.704 254.36 176.862C254.886 177.102 255.376 177.329 255.833 177.546C257.87 193.662 260.179 204.745 265.72 220.908C265.808 221.167 323.874 198.091 329.148 195.787C326.52 191.376 323.791 187.022 320.983 182.727C321.048 182.727 321.113 182.727 321.177 182.727C321.681 183.096 322.207 183.443 322.766 183.752C327.693 186.495 332.736 189.349 338.222 190.43C350.395 192.827 363.621 193.662 376.667 189.557C381.169 188.144 391.093 184.796 387.256 178.257Z" fill="#EB384D"/>
<path d="M305.241 141.578C300.429 139.846 292.564 139.454 292.647 122.266C292.647 122.266 282.687 121.638 282.308 121.762C281.952 121.883 285.582 137.791 271.026 139.274C270.084 139.371 269.913 140.507 270.592 141.199C273.575 144.252 276.346 146.099 283.735 147.023C289.018 147.683 298.586 147.17 305.268 143.652C306.183 143.176 306.247 141.943 305.241 141.578Z" fill="url(#paint3_linear)"/>
<path d="M254.429 76.5104L241.527 89.8147C241.277 90.0133 240.931 89.981 240.751 89.7454L234.438 81.6178C234.078 81.1053 234.179 80.6388 234.438 80.431L251.977 66.3047C252.24 66.0923 252.661 66.1939 252.993 66.7296L254.6 75.6792C254.752 75.9331 254.679 76.3118 254.429 76.5104Z" fill="url(#paint4_linear)"/>
<path d="M255.565 79.5999L242.173 90.2212C241.712 90.683 241.25 90.683 240.936 90.1842L234.484 81.701C234.281 81.4378 234.332 81.0453 234.595 80.8329L252.227 66.6327C252.49 66.4202 252.85 66.4803 253.026 66.7712L258.336 75.9055C259.26 77.2909 257.413 78.2145 255.565 79.5999Z" fill="#26264F"/>
<path d="M257.292 77.3375L241.831 89.7321C241.6 89.9168 241.272 89.8891 241.101 89.6628L235.052 81.6691C234.867 81.4244 234.913 81.0596 235.158 80.861L251.445 67.746C251.69 67.5474 252.027 67.6028 252.189 67.8707L257.449 76.5524C257.597 76.8018 257.527 77.1528 257.292 77.3375Z" fill="#FF653B"/>
<path d="M255.455 72.1188C255.367 72.1928 255.247 72.1696 255.191 72.0771C255.136 71.98 255.159 71.8458 255.251 71.7764C255.339 71.7024 255.459 71.7255 255.515 71.818C255.57 71.9106 255.543 72.0494 255.455 72.1188Z" fill="white"/>
<g opacity="0.66">
<path opacity="0.66" d="M250.134 74.4499C248.961 73.7849 247.525 74.1128 246.92 75.1749C246.32 76.2371 246.782 77.6363 247.955 78.3013L250.134 74.4499Z" fill="#F4F7FA"/>
<path opacity="0.66" d="M247.96 78.3006L250.135 74.4492C250.68 74.7586 250.874 75.4513 250.564 75.9962L249.507 77.8711C249.197 78.416 248.505 78.61 247.96 78.3006Z" fill="#F4F7FA"/>
<path opacity="0.66" d="M246.944 79.9831C245.771 79.3181 244.335 79.646 243.73 80.7081C243.129 81.7703 243.591 83.1695 244.764 83.8345L246.944 79.9831Z" fill="#F4F7FA"/>
<path opacity="0.66" d="M244.764 83.8338L246.939 79.9824C247.484 80.2918 247.678 80.9845 247.368 81.5294L246.311 83.4043C246.006 83.9492 245.313 84.1432 244.764 83.8338Z" fill="#F4F7FA"/>
<path opacity="0.66" d="M244.829 81.7275L243.609 81.0394C244.039 78.8644 245.184 76.8417 247.041 74.9668L248.26 75.6549L244.829 81.7275Z" fill="#F4F7FA"/>
</g>
<g opacity="0.3">
<path opacity="0.3" d="M246.209 76.9577C248.251 74.3716 250.573 75.0551 252.425 72.603C253.437 71.2684 253.797 69.6798 253.852 68.1605L253.026 66.7751C252.85 66.4842 252.494 66.4241 252.227 66.6366L234.595 80.8322C234.332 81.0446 234.281 81.4325 234.484 81.7003L240.054 89.029C242.007 87.7221 243.088 86.3091 243.72 85.1038C245.466 81.7881 244.099 79.6361 246.209 76.9577Z" fill="#F4F7FA"/>
</g>
<path d="M406.111 215.367L421.35 243.075L406.111 235.686L396.875 218.138L404.264 215.829" fill="#29332B"/>
<path d="M298.051 345.132L335.456 343.414L333.609 333.125L320.217 334.049L298.051 345.132Z" fill="#29332B"/>
<path opacity="0.24" d="M320.679 260.624C315.294 253.296 312.242 247.412 309.891 242C309.217 240.444 308.552 238.883 307.896 237.318C307.568 236.533 307.245 235.752 306.926 234.967C306.834 234.741 306.46 234.159 306.608 233.914C306.765 233.646 307.065 233.743 307.222 233.965C310.057 238.001 310.847 239.151 312.828 241.234C315.202 243.732 317.908 245.852 317.908 245.852C318.831 250.927 319.755 255.545 320.679 260.624Z" fill="#1A1A1A"/>
<path opacity="0.24" d="M320.807 182.524L312.366 175.652L322.969 198.29L328.99 195.971L320.807 182.524Z" fill="#1A1A1A"/>
<path opacity="0.24" d="M282.812 125.318C282.812 125.318 284.483 130.846 295.192 135.238C295.192 135.238 293.114 132.338 292.814 126.519C292.814 126.524 287.891 129.013 282.812 125.318Z" fill="#1A1A1A"/>
<path d="M286.127 94.6405C286.127 94.6405 290.717 89.8009 294.407 95.6888C294.407 95.6888 297.252 94.091 299.247 96.9357C299.247 96.9357 304.386 95.3886 305.633 103.073C305.633 103.073 308.275 102.574 308.626 105.714C308.977 108.855 307.379 110.951 307.379 110.951C307.379 110.951 308.866 112.064 308.192 114.955C307.619 117.412 305.587 117.786 305.587 117.786C305.587 117.786 305.037 121.928 303.241 123.175C301.445 124.422 299.002 123.821 299.002 123.821C299.002 123.821 298.355 126.066 296.259 125.867C294.162 125.669 291.572 123.674 289.226 124.57C286.88 125.465 280.798 124.519 280.798 124.519C280.798 124.519 273.963 121.475 276.009 114.493C276.009 114.493 272.416 111.251 275.561 107.358C275.561 107.358 273.266 101.272 277.805 97.6838C282.336 94.091 286.127 94.6405 286.127 94.6405Z" fill="#07345A"/>
<path d="M290.431 101.379C285.573 99.7069 279.884 103.323 278.655 108.236C277.732 111.931 277.787 112.633 277.732 115.625C277.602 122.824 282.58 130.051 285.845 130.051C289.115 130.051 298.148 125.392 298.475 115.172C298.679 108.864 295.529 103.133 290.431 101.379Z" fill="url(#paint5_linear)"/>
<path d="M296.069 115.981C296.069 117.569 297.122 118.857 298.42 118.857C299.718 118.857 300.77 117.569 300.77 115.981C300.77 114.392 299.718 113.104 298.42 113.104C297.122 113.104 296.069 114.392 296.069 115.981Z" fill="url(#paint6_linear)"/>
<path d="M276.268 97.794C272.892 100.468 271.71 104.532 273.626 106.873C275.543 109.21 279.833 108.937 283.208 106.263C286.584 103.589 287.766 99.5257 285.85 97.1844C283.938 94.8477 279.643 95.1202 276.268 97.794Z" fill="#07345A"/>
<path d="M297.367 99.0221C294.693 95.6464 290.629 94.4642 288.288 96.3806C285.951 98.2971 286.602 101.627 289.276 105.002C291.95 108.378 300.793 113.846 303.13 111.929C305.467 110.008 300.041 102.398 297.367 99.0221Z" fill="#07345A"/>
<path opacity="0.53" d="M298.512 111.463C298.512 111.463 299.898 112.848 302.668 112.386C302.668 112.386 307.748 113.31 305.439 117.928C305.439 117.928 304.977 125.317 298.974 123.47C298.974 123.47 298.512 126.24 296.203 125.779L294.352 125.363C295.072 124.555 295.903 123.47 296.665 122.084C297.321 120.893 297.755 119.784 298.051 118.852C298.286 118.926 298.831 119.059 299.436 118.852C300.304 118.556 300.674 117.776 300.821 117.466C301.389 116.261 300.96 115.079 300.821 114.695C300.674 114.284 300.47 113.73 299.898 113.31C299.357 112.913 298.78 112.858 298.512 112.848V111.463Z" fill="#082233"/>
<path d="M244.944 90.6831L246.842 89.4177C247.387 89.0529 247.715 88.4434 247.715 87.7876V84.2964C247.715 83.6592 246.911 83.3775 246.514 83.8762L245.937 84.5966C245.891 84.652 245.858 84.7167 245.831 84.7813L245.406 87.4505C245.341 87.626 244.528 88.4711 244.616 88.6373L244.944 89.2977V90.6831Z" fill="#EFB44B"/>
<path opacity="0.33" d="M451.539 235H448V243.216H451.539V235Z" fill="#E7F3FE"/>
<path opacity="0.33" d="M462.639 235H459.1V243.216H462.639V235Z" fill="#E7F3FE"/>
<path opacity="0.33" d="M473.121 235H469.582V243.216H473.121V235Z" fill="#E7F3FE"/>
<path opacity="0.33" d="M484.221 235H480.682V243.216H484.221V235Z" fill="#E7F3FE"/>
<path opacity="0.33" d="M451.539 249.734H448V257.951H451.539V249.734Z" fill="#E7F3FE"/>
<path opacity="0.33" d="M462.639 249.734H459.1V257.951H462.639V249.734Z" fill="#E7F3FE"/>
<path opacity="0.33" d="M473.121 249.734H469.582V257.951H473.121V249.734Z" fill="#E7F3FE"/>
<path opacity="0.33" d="M484.221 249.734H480.682V257.951H484.221V249.734Z" fill="#E7F3FE"/>
<path opacity="0.33" d="M451.539 265.418H448V273.634H451.539V265.418Z" fill="#E7F3FE"/>
<path opacity="0.33" d="M462.639 265.418H459.1V273.634H462.639V265.418Z" fill="#E7F3FE"/>
<path opacity="0.33" d="M473.121 265.418H469.582V273.634H473.121V265.418Z" fill="#E7F3FE"/>
<path opacity="0.33" d="M484.221 265.418H480.682V273.634H484.221V265.418Z" fill="#E7F3FE"/>
<path opacity="0.33" d="M496.348 235H492.809V243.216H496.348V235Z" fill="#E7F3FE"/>
<path opacity="0.33" d="M496.348 249.734H492.809V257.951H496.348V249.734Z" fill="#E7F3FE"/>
<path opacity="0.33" d="M507.443 235H503.904V243.216H507.443V235Z" fill="#E7F3FE"/>
<path d="M483.891 242.341L487.896 251.009L520.188 253.87L490.799 239.88L483.891 242.341Z" fill="#5BAEB4"/>
<path d="M520.7 253.791L484.417 242.266L487.925 234.683L520.7 253.791Z" fill="#8FE4F6"/>
<path d="M487.879 258.61L490.36 262.132L520.188 253.855L487.879 258.61Z" fill="#5BAEB4"/>
<path d="M520.7 253.808L482.548 248.848L479.153 260.235L520.7 253.808Z" fill="#8FE4F6"/>
<defs>
<linearGradient id="paint0_linear" x1="244.423" y1="90.9554" x2="243.379" y2="65.4563" gradientUnits="userSpaceOnUse">
<stop stop-color="#FFC444"/>
<stop offset="0.9964" stop-color="#F36F56"/>
</linearGradient>
<linearGradient id="paint1_linear" x1="376.112" y1="190.599" x2="477.398" y2="149.9" gradientUnits="userSpaceOnUse">
<stop stop-color="#FFC444"/>
<stop offset="0.9964" stop-color="#F36F56"/>
</linearGradient>
<linearGradient id="paint2_linear" x1="240.833" y1="105.084" x2="236.369" y2="-3.97782" gradientUnits="userSpaceOnUse">
<stop stop-color="#FFC444"/>
<stop offset="0.9964" stop-color="#F36F56"/>
</linearGradient>
<linearGradient id="paint3_linear" x1="286.329" y1="179.162" x2="289.317" y2="114.607" gradientUnits="userSpaceOnUse">
<stop stop-color="#FFC444"/>
<stop offset="0.9964" stop-color="#F36F56"/>
</linearGradient>
<linearGradient id="paint4_linear" x1="242.448" y1="72.2471" x2="250.082" y2="84.5135" gradientUnits="userSpaceOnUse">
<stop stop-color="#444B8C"/>
<stop offset="0.9964" stop-color="#26264F"/>
</linearGradient>
<linearGradient id="paint5_linear" x1="288.107" y1="130.051" x2="288.107" y2="103.237" gradientUnits="userSpaceOnUse">
<stop stop-color="#FFCD69"/>
<stop offset="0.4337" stop-color="#FEAC6A"/>
<stop offset="1" stop-color="#FC7C6B"/>
</linearGradient>
<linearGradient id="paint6_linear" x1="296.067" y1="115.981" x2="300.77" y2="115.981" gradientUnits="userSpaceOnUse">
<stop stop-color="#F49C53"/>
<stop offset="1" stop-color="#FC7C6B"/>
</linearGradient>
<clipPath id="clip0">
<rect width="119.14" height="61.4224" fill="white" transform="translate(287.801 245.486)"/>
</clipPath>
</defs>
</svg>
