<svg width="414" height="155" viewBox="0 0 414 155" fill="none" xmlns="http://www.w3.org/2000/svg">
<g opacity="0.8">
<path d="M198.658 45.0449H178.435V123.179H198.658V45.0449Z" fill="#E5E5E5"/>
<path d="M195.353 39.4414H181.739V72.2757H195.353V39.4414Z" fill="#E5E5E5"/>
<path d="M192.32 35.8887H184.769V54.1016H192.32V35.8887Z" fill="#E5E5E5"/>
<path d="M191.118 45.2478H185.972V32.8359H187.829H189.667H191.118V45.2478Z" fill="#E5E5E5"/>
<path d="M188.207 39.8425H187.648V27.4307H187.849H188.049H188.207V39.8425Z" fill="#E5E5E5"/>
<path d="M189.442 35.5515H188.884V23.1396H189.086H189.285H189.442V35.5515Z" fill="#E5E5E5"/>
<path d="M199.197 44.8438H177.895V45.676H199.197V44.8438Z" fill="#E5E5E5"/>
<path d="M195.848 39.041H181.241V39.8424H195.848V39.041Z" fill="#E5E5E5"/>
<path d="M192.637 35.5527H184.219V36.1676H192.637V35.5527Z" fill="#E5E5E5"/>
<path opacity="0.29" d="M183.624 40.7734H182.991V44.2142H183.624V40.7734Z" fill="#E5E5E5"/>
<path opacity="0.29" d="M185.376 40.7734H184.742V44.2142H185.376V40.7734Z" fill="#E5E5E5"/>
<path opacity="0.29" d="M187.125 40.7734H186.492V44.2142H187.125V40.7734Z" fill="#E5E5E5"/>
<path opacity="0.29" d="M188.877 40.7734H188.244V44.2142H188.877V40.7734Z" fill="#E5E5E5"/>
<path opacity="0.29" d="M190.628 40.7734H189.995V44.2142H190.628V40.7734Z" fill="#E5E5E5"/>
<path opacity="0.29" d="M192.38 40.7734H191.747V44.2142H192.38V40.7734Z" fill="#E5E5E5"/>
<path opacity="0.29" d="M194.132 40.7734H193.498V44.2142H194.132V40.7734Z" fill="#E5E5E5"/>
<path d="M181.739 48.1582H180.21V52.2398H181.739V48.1582Z" fill="#E5E5E5"/>
<path opacity="0.29" d="M184.767 48.1582H183.238V52.2398H184.767V48.1582Z" fill="#E5E5E5"/>
<path d="M187.796 48.1582H186.266V52.2398H187.796V48.1582Z" fill="#E5E5E5"/>
<path d="M190.824 48.1582H189.295V52.2398H190.824V48.1582Z" fill="#E5E5E5"/>
<path d="M193.852 48.1582H192.323V52.2398H193.852V48.1582Z" fill="#E5E5E5"/>
<path d="M196.883 48.1582H195.353V52.2398H196.883V48.1582Z" fill="#E5E5E5"/>
<path d="M181.739 54.5215H180.21V58.6031H181.739V54.5215Z" fill="#E5E5E5"/>
<path d="M184.767 54.5215H183.238V58.6031H184.767V54.5215Z" fill="#E5E5E5"/>
<path d="M187.796 54.5215H186.266V58.6031H187.796V54.5215Z" fill="#E5E5E5"/>
<path opacity="0.29" d="M190.824 54.5215H189.295V58.6031H190.824V54.5215Z" fill="#E5E5E5"/>
<path d="M193.852 54.5215H192.323V58.6031H193.852V54.5215Z" fill="#E5E5E5"/>
<path d="M196.883 54.5215H195.353V58.6031H196.883V54.5215Z" fill="#E5E5E5"/>
<path d="M181.739 60.8828H180.21V64.9644H181.739V60.8828Z" fill="#E5E5E5"/>
<path d="M184.767 60.8828H183.238V64.9644H184.767V60.8828Z" fill="#E5E5E5"/>
<path d="M187.796 60.8828H186.266V64.9644H187.796V60.8828Z" fill="#E5E5E5"/>
<path d="M190.824 60.8828H189.295V64.9644H190.824V60.8828Z" fill="#E5E5E5"/>
<path opacity="0.29" d="M193.852 60.8828H192.323V64.9644H193.852V60.8828Z" fill="#E5E5E5"/>
<path opacity="0.29" d="M196.883 60.8828H195.353V64.9644H196.883V60.8828Z" fill="#E5E5E5"/>
<path opacity="0.29" d="M181.739 67.2461H180.21V71.3277H181.739V67.2461Z" fill="#E5E5E5"/>
<path d="M184.767 67.2461H183.238V71.3277H184.767V67.2461Z" fill="#E5E5E5"/>
<path d="M187.796 67.2461H186.266V71.3277H187.796V67.2461Z" fill="#E5E5E5"/>
<path d="M190.824 67.2461H189.295V71.3277H190.824V67.2461Z" fill="#E5E5E5"/>
<path d="M193.852 67.2461H192.323V71.3277H193.852V67.2461Z" fill="#E5E5E5"/>
<path d="M196.883 67.2461H195.353V71.3277H196.883V67.2461Z" fill="#E5E5E5"/>
<path d="M181.739 73.6074H180.21V77.689H181.739V73.6074Z" fill="#E5E5E5"/>
<path opacity="0.29" d="M184.767 73.6074H183.238V77.689H184.767V73.6074Z" fill="#E5E5E5"/>
<path d="M187.796 73.6074H186.266V77.689H187.796V73.6074Z" fill="#E5E5E5"/>
<path opacity="0.29" d="M190.824 73.6074H189.295V77.689H190.824V73.6074Z" fill="#E5E5E5"/>
<path d="M193.852 73.6074H192.323V77.689H193.852V73.6074Z" fill="#E5E5E5"/>
<path d="M196.883 73.6074H195.353V77.689H196.883V73.6074Z" fill="#E5E5E5"/>
<path d="M181.739 79.9727H180.21V84.0542H181.739V79.9727Z" fill="#E5E5E5"/>
<path d="M184.767 79.9727H183.238V84.0542H184.767V79.9727Z" fill="#E5E5E5"/>
<path d="M187.796 79.9727H186.266V84.0542H187.796V79.9727Z" fill="#E5E5E5"/>
<path d="M190.824 79.9727H189.295V84.0542H190.824V79.9727Z" fill="#E5E5E5"/>
<path d="M193.852 79.9727H192.323V84.0542H193.852V79.9727Z" fill="#E5E5E5"/>
<path opacity="0.29" d="M196.883 79.9727H195.353V84.0542H196.883V79.9727Z" fill="#E5E5E5"/>
<path d="M181.739 86.334H180.21V90.4156H181.739V86.334Z" fill="#E5E5E5"/>
<path opacity="0.29" d="M184.767 86.334H183.238V90.4156H184.767V86.334Z" fill="#E5E5E5"/>
<path opacity="0.29" d="M187.796 86.334H186.266V90.4156H187.796V86.334Z" fill="#E5E5E5"/>
<path d="M190.824 86.334H189.295V90.4156H190.824V86.334Z" fill="#E5E5E5"/>
<path d="M193.852 86.334H192.323V90.4156H193.852V86.334Z" fill="#E5E5E5"/>
<path d="M196.883 86.334H195.353V90.4156H196.883V86.334Z" fill="#E5E5E5"/>
<path d="M181.739 92.6973H180.21V96.7788H181.739V92.6973Z" fill="#E5E5E5"/>
<path d="M184.767 92.6973H183.238V96.7788H184.767V92.6973Z" fill="#E5E5E5"/>
<path d="M187.796 92.6973H186.266V96.7788H187.796V92.6973Z" fill="#E5E5E5"/>
<path d="M190.824 92.6973H189.295V96.7788H190.824V92.6973Z" fill="#E5E5E5"/>
<path opacity="0.29" d="M193.852 92.6973H192.323V96.7788H193.852V92.6973Z" fill="#E5E5E5"/>
<path d="M196.883 92.6973H195.353V96.7788H196.883V92.6973Z" fill="#E5E5E5"/>
<path d="M181.739 99.0605H180.21V103.142H181.739V99.0605Z" fill="#E5E5E5"/>
<path opacity="0.29" d="M184.767 99.0605H183.238V103.142H184.767V99.0605Z" fill="#E5E5E5"/>
<path d="M187.796 99.0605H186.266V103.142H187.796V99.0605Z" fill="#E5E5E5"/>
<path d="M190.824 99.0605H189.295V103.142H190.824V99.0605Z" fill="#E5E5E5"/>
<path d="M193.852 99.0605H192.323V103.142H193.852V99.0605Z" fill="#E5E5E5"/>
<path d="M196.883 99.0605H195.353V103.142H196.883V99.0605Z" fill="#E5E5E5"/>
<path d="M181.739 105.422H180.21V109.503H181.739V105.422Z" fill="#E5E5E5"/>
<path d="M184.767 105.422H183.238V109.503H184.767V105.422Z" fill="#E5E5E5"/>
<path d="M187.796 105.422H186.266V109.503H187.796V105.422Z" fill="#E5E5E5"/>
<path opacity="0.29" d="M190.824 105.422H189.295V109.503H190.824V105.422Z" fill="#E5E5E5"/>
<path d="M193.852 105.422H192.323V109.503H193.852V105.422Z" fill="#E5E5E5"/>
<path opacity="0.29" d="M196.883 105.422H195.353V109.503H196.883V105.422Z" fill="#E5E5E5"/>
<path opacity="0.29" d="M181.739 111.783H180.21V115.865H181.739V111.783Z" fill="#E5E5E5"/>
<path d="M184.767 111.783H183.238V115.865H184.767V111.783Z" fill="#E5E5E5"/>
<path opacity="0.29" d="M187.796 111.783H186.266V115.865H187.796V111.783Z" fill="#E5E5E5"/>
<path d="M190.824 111.783H189.295V115.865H190.824V111.783Z" fill="#E5E5E5"/>
<path d="M193.852 111.783H192.323V115.865H193.852V111.783Z" fill="#E5E5E5"/>
<path d="M196.883 111.783H195.353V115.865H196.883V111.783Z" fill="#E5E5E5"/>
<path d="M152.21 48.0176H119.701V113.839H152.21V48.0176Z" fill="#E5E5E5"/>
<path d="M153.134 46.8848H118.777V48.7455H153.134V46.8848Z" fill="#E5E5E5"/>
<path d="M151.117 44.5039H120.792V53.3468H151.117V44.5039Z" fill="#E5E5E5"/>
<path d="M135.122 40.8867H123.114V50.5488H135.122V40.8867Z" fill="#E5E5E5"/>
<path d="M130.063 43.6111H123.114V38.5254H128.098L130.063 43.6111Z" fill="#E5E5E5"/>
<path d="M126.589 34.3008H125.915V45.6289H126.589V34.3008Z" fill="#E5E5E5"/>
<path d="M126.857 33.7142C126.857 34.0387 126.587 34.3015 126.252 34.3015C125.918 34.3015 125.647 34.0387 125.647 33.7142C125.647 33.3898 125.918 33.127 126.252 33.127C126.587 33.127 126.857 33.3898 126.857 33.7142Z" fill="#E5E5E5"/>
<path d="M266.164 63.5802V31.2277H260.583V22.56H258.589V9.84969H247.604V0.508789H246.626V9.84969H244.475V0.50879L243.497 0.508789V9.84969H236.553V31.2277H232.964V63.5802H229.891V122.512H268.326V63.5802H266.164Z" fill="#E5E5E5"/>
<path d="M508 117.648H36.2253V127.465H508V117.648Z" fill="#F0E2E7"/>
<path d="M313.925 125.058H293.035L301.176 88.4629H313.925V125.058Z" fill="#EFB9BF"/>
<path d="M382.415 126.482H-95.0099V141.96H382.415V126.482Z" fill="#F27987"/>
<path d="M164.579 57.3396V41.1236H157.872V34.9493H154.283V29.7646H153.024V20.873H152.7V29.7646H151.441V34.9493H147.85V41.1236H141.195V57.3396H139.811V86.7817H129.489V120.343H139.811H150.131H165.913V57.3396H164.579Z" fill="#EFB9BF"/>
<path d="M203.13 75.9668H170.662V76.4827H172.133V124.508H201.661V76.4827H203.13V75.9668Z" fill="#EFB9BF"/>
<path d="M55.0791 87.9316H26.2923V127.938H55.0791V87.9316Z" fill="#EFB9BF"/>
<path d="M21.9549 108.428H-27.5518V127.937H21.9549V108.428Z" fill="#EFB9BF"/>
<path d="M9.85446 64.8418H-1.01453V112.75H9.85446V64.8418Z" fill="#EFB9BF"/>
<path d="M1.94894 52.0605H1.38519V78.1138H1.94894V52.0605Z" fill="#EFC9CD"/>
<path d="M3.78299 54.0371H3.21924V80.0904H3.78299V54.0371Z" fill="#EFC9CD"/>
<path d="M6.46635 61.877H-0.176331V68.2978H6.46635V61.877Z" fill="#EFC9CD"/>
<path d="M38.9304 95.0918H20.0168V127.936H38.9304V95.0918Z" fill="#EFB9BF"/>
<path d="M95.2485 60.334H59.7449V127.936H95.2485V60.334Z" fill="#EFB9BF"/>
<path d="M70.0409 93.7949H53.3118V127.935H70.0409V93.7949Z" fill="#EFB9BF"/>
<path d="M291.634 112.75H91.7601V127.937H291.634V112.75Z" fill="#EFC9CD"/>
<path d="M392.097 83.7108C390.836 83.7108 389.804 84.6768 389.702 85.9055L386.885 85.8149C386.892 85.5391 386.896 85.2653 386.896 84.9877C386.896 81.4939 386.29 78.0927 385.132 74.9042L387.484 74.0401C387.854 74.8894 388.703 75.4853 389.692 75.4853C391.02 75.4853 392.097 74.412 392.097 73.0889C392.097 71.7658 391.02 70.6925 389.692 70.6925C388.365 70.6925 387.288 71.7658 387.288 73.0889C387.288 73.3332 387.325 73.5682 387.393 73.7902L385.041 74.6526C383.7 71.07 381.656 67.7576 378.978 64.8893L380.82 63.1702C381.253 63.581 381.836 63.8345 382.48 63.8345C383.808 63.8345 384.885 62.7612 384.885 61.4381C384.885 60.115 383.808 59.0417 382.48 59.0417C381.152 59.0417 380.075 60.115 380.075 61.4381C380.075 62.0247 380.287 62.5613 380.636 62.9777L378.794 64.6968C378.605 64.497 378.412 64.299 378.217 64.1047C375.43 61.327 372.184 59.1693 368.648 57.7037L369.66 55.2463C369.89 55.3184 370.134 55.3591 370.388 55.3591C371.716 55.3591 372.793 54.2858 372.793 52.9627C372.793 51.6396 371.716 50.5663 370.388 50.5663C369.06 50.5663 367.983 51.6396 367.983 52.9627C367.983 53.9398 368.57 54.7781 369.411 55.1519L368.401 57.6038C365.239 56.327 361.852 55.5997 358.357 55.4739L358.467 52.1152C358.493 52.1152 358.517 52.117 358.543 52.117C359.871 52.117 360.948 51.0437 360.948 49.7206C360.948 48.3975 359.871 47.3242 358.543 47.3242C357.215 47.3242 356.138 48.3975 356.138 49.7206C356.138 50.929 357.035 51.9264 358.199 52.093L358.09 55.4665C357.813 55.4591 357.538 55.4554 357.26 55.4554C353.895 55.4554 350.618 56.0105 347.53 57.0764L346.56 54.334C347.435 53.975 348.052 53.1182 348.052 52.117C348.052 50.7939 346.975 49.7206 345.647 49.7206C344.319 49.7206 343.242 50.7939 343.242 52.117C343.242 53.4402 344.319 54.5135 345.647 54.5135C345.877 54.5135 346.098 54.4801 346.308 54.4209L347.277 57.1634C343.532 58.4939 340.074 60.5813 337.094 63.346L335.337 61.4769C335.731 61.0495 335.971 60.4814 335.971 59.8559C335.971 58.5328 334.894 57.4595 333.566 57.4595C332.238 57.4595 331.161 58.5328 331.161 59.8559C331.161 61.179 332.238 62.2523 333.566 62.2523C334.171 62.2523 334.723 62.0284 335.146 61.662L336.901 63.5273C336.7 63.7161 336.502 63.9085 336.307 64.1028C333.828 66.5751 331.841 69.4064 330.398 72.4801L328.164 71.453C328.246 71.2125 328.291 70.9571 328.291 70.6888C328.291 69.3657 327.214 68.2924 325.886 68.2924C324.558 68.2924 323.481 69.3657 323.481 70.6888C323.481 72.0119 324.558 73.0852 325.886 73.0852C326.851 73.0852 327.683 72.5171 328.066 71.6992L330.287 72.7206C328.693 76.1978 327.789 79.9784 327.648 83.8922L324.781 83.7997C324.746 82.5062 323.684 81.4699 322.378 81.4699C321.05 81.4699 319.974 82.5432 319.974 83.8663C319.974 85.1894 321.05 86.2627 322.378 86.2627C323.639 86.2627 324.671 85.2949 324.774 84.0661L327.639 84.1587C327.631 84.4344 327.628 84.7083 327.628 84.9858C327.628 88.4796 328.233 91.8808 329.392 95.0693L327.039 95.9335C326.669 95.0841 325.821 94.4882 324.831 94.4882C323.503 94.4882 322.426 95.5615 322.426 96.8846C322.426 98.2077 323.503 99.281 324.831 99.281C326.159 99.281 327.236 98.2077 327.236 96.8846C327.236 96.6404 327.199 96.4053 327.13 96.1833L329.483 95.3209C330.823 98.9035 332.868 102.216 335.545 105.084L333.703 106.803C333.271 106.393 332.688 106.139 332.043 106.139C330.716 106.139 329.639 107.212 329.639 108.535C329.639 109.859 330.716 110.932 332.043 110.932C333.371 110.932 334.448 109.859 334.448 108.535C334.448 107.949 334.236 107.412 333.885 106.996L335.727 105.277C335.917 105.477 336.11 105.675 336.305 105.869C338.182 107.74 340.267 109.329 342.509 110.615L328.006 137.254H325.403V138.016H324.129V139.528H390.389V138.016H389.115V137.254H386.511L372.009 110.615C373.94 109.507 375.758 108.173 377.424 106.628L379.775 109.128C379.27 109.566 378.95 110.212 378.95 110.932C378.95 112.255 380.027 113.328 381.355 113.328C382.683 113.328 383.76 112.255 383.76 110.932C383.76 109.609 382.683 108.535 381.355 108.535C380.846 108.535 380.374 108.693 379.984 108.963L377.617 106.446C377.817 106.257 378.016 106.065 378.211 105.871C380.692 103.4 382.677 100.567 384.12 97.4935L386.736 98.6981C386.688 98.8869 386.664 99.083 386.664 99.2847C386.664 100.608 387.741 101.681 389.068 101.681C390.396 101.681 391.473 100.608 391.473 99.2847C391.473 97.9616 390.396 96.8883 389.068 96.8883C388.038 96.8883 387.159 97.5342 386.816 98.4428L384.231 97.2529C385.824 93.7758 386.729 89.9952 386.87 86.0813L389.687 86.172C389.722 87.4655 390.784 88.5037 392.09 88.5037C393.417 88.5037 394.494 87.4304 394.494 86.1073C394.502 84.7841 393.426 83.7108 392.097 83.7108ZM386.095 84.9895C386.095 85.2579 386.092 85.5243 386.084 85.7908L377.788 85.5225C377.791 85.3467 377.795 85.169 377.795 84.9914C377.795 82.5543 377.364 80.2152 376.577 78.0464L384.382 75.1837C385.507 78.2833 386.095 81.592 386.095 84.9895ZM377.385 85.5077L358.875 84.9081C358.87 84.7878 358.849 84.6712 358.82 84.5584L376.198 78.1815C376.971 80.3077 377.392 82.6005 377.392 84.9877C377.392 85.1635 377.39 85.3356 377.385 85.5077ZM337.137 84.4714L355.646 85.071C355.652 85.1912 355.672 85.3078 355.702 85.4207L338.323 91.7976C337.551 89.6713 337.129 87.3786 337.129 84.9914C337.129 84.8156 337.131 84.6435 337.137 84.4714ZM358.528 83.9884L372.035 71.3753C373.786 73.2628 375.181 75.4835 376.107 77.9317L358.729 84.3086C358.673 84.1938 358.606 84.0865 358.528 83.9884ZM358.346 83.7941C358.242 83.6997 358.123 83.6183 357.997 83.5535L365.033 66.4826C367.625 67.567 369.944 69.1788 371.853 71.181L358.346 83.7941ZM357.75 83.4536C357.654 83.4222 357.551 83.4018 357.447 83.3888L358.049 64.9448C360.422 65.0355 362.689 65.5388 364.784 66.3826L357.75 83.4536ZM357.18 83.3796C357.067 83.3851 356.957 83.4018 356.851 83.4296L350.696 66.0236C352.755 65.313 354.963 64.9263 357.262 64.9263C357.436 64.9263 357.609 64.9281 357.782 64.9337L357.18 83.3796ZM356.599 83.5184C356.476 83.5739 356.361 83.6442 356.257 83.7256L343.601 70.265C345.561 68.4571 347.883 67.0322 350.443 66.1106L356.599 83.5184ZM356.062 83.9088C355.982 83.9958 355.914 84.092 355.854 84.1957L339.042 76.4605C340.115 74.1918 341.603 72.1562 343.406 70.4482L356.062 83.9088ZM355.741 84.4362C355.698 84.5528 355.668 84.6768 355.654 84.8026L337.146 84.2031C337.25 81.5365 337.876 79.0031 338.929 76.7011L355.741 84.4362ZM355.795 85.6687C355.837 85.7612 355.889 85.85 355.949 85.9314L355.839 86.1332L342.488 98.6019C340.737 96.7144 339.343 94.4938 338.416 92.0455L355.795 85.6687ZM355.436 86.8771L347.054 102.275C345.435 101.322 343.959 100.149 342.672 98.7981L355.436 86.8771ZM356.348 86.3182C356.406 86.3571 356.465 86.3922 356.526 86.4237L349.491 103.495C348.813 103.212 348.156 102.891 347.517 102.538L356.348 86.3182ZM356.771 86.5255C356.868 86.5569 356.97 86.5773 357.074 86.5902L356.473 105.034C354.099 104.944 351.832 104.44 349.738 103.596L356.771 86.5255ZM357.262 105.051C357.087 105.051 356.914 105.049 356.742 105.044L357.343 86.5976C357.457 86.5921 357.566 86.5754 357.672 86.5477L363.828 103.954C361.768 104.664 359.559 105.051 357.262 105.051ZM357.923 86.4588C358.012 86.42 358.095 86.3719 358.175 86.3182L367.007 102.538C366.074 103.054 365.096 103.5 364.08 103.865L357.923 86.4588ZM359.408 87.4674L370.921 99.7104C369.868 100.682 368.711 101.542 367.469 102.273L359.408 87.4674ZM358.905 86.5421L358.573 85.9314C358.608 85.8833 358.64 85.8334 358.669 85.7834L375.481 93.5185C374.408 95.7873 372.921 97.8228 371.118 99.5309L358.905 86.5421ZM358.781 85.541C358.823 85.4244 358.853 85.3004 358.868 85.1746L377.376 85.7742C377.272 88.4407 376.646 90.9741 375.593 93.2761L358.781 85.541ZM349.338 103.865L346.178 111.533C345.214 111.134 344.273 110.682 343.357 110.179L347.325 102.891C347.975 103.25 348.648 103.576 349.338 103.865ZM349.585 103.967C351.723 104.829 354.038 105.341 356.46 105.434L356.19 113.706C352.794 113.584 349.5 112.877 346.425 111.635L349.585 103.967ZM356.727 105.443C356.903 105.447 357.082 105.451 357.26 105.451C359.605 105.451 361.857 105.056 363.959 104.331L366.724 112.148C363.722 113.184 360.534 113.724 357.262 113.724C356.992 113.724 356.725 113.721 356.458 113.713L356.727 105.443ZM364.212 104.242C365.248 103.87 366.245 103.417 367.196 102.89L371.164 110.177C369.82 110.917 368.42 111.544 366.977 112.059L364.212 104.242ZM384.287 74.9302L376.482 77.7947C375.537 75.2966 374.115 73.0278 372.327 71.1033L378.393 65.4389C380.996 68.2276 382.983 71.4475 384.287 74.9302ZM377.65 64.6709C377.84 64.8597 378.027 65.0521 378.211 65.2446L372.147 70.909C370.199 68.8642 367.833 67.2209 365.187 66.1143L368.347 58.4458C371.781 59.8707 374.937 61.9673 377.65 64.6709ZM368.097 58.344L364.936 66.0125C362.799 65.1502 360.483 64.6376 358.062 64.5451L358.331 56.2733C361.728 56.3973 365.022 57.1023 368.097 58.344ZM357.262 56.2548C357.529 56.2548 357.798 56.2585 358.066 56.2659L357.796 64.534C357.62 64.5303 357.442 64.5266 357.264 64.5266C354.918 64.5266 352.666 64.9207 350.564 65.6461L347.799 57.8296C350.8 56.7933 353.99 56.2548 357.262 56.2548ZM347.545 57.9184L350.31 65.735C347.697 66.675 345.327 68.1295 343.328 69.9745L337.644 63.9289C340.542 61.2438 343.905 59.2138 347.545 57.9184ZM336.873 64.6709C337.062 64.4822 337.256 64.2953 337.449 64.1121L343.133 70.1558C341.291 71.899 339.774 73.9771 338.68 76.2921L331.126 72.8169C332.53 69.8283 334.461 67.0747 336.873 64.6709ZM331.013 73.0611L338.565 76.5364C337.491 78.8866 336.851 81.4717 336.745 84.1938L328.445 83.9255C328.586 80.1171 329.464 76.442 331.013 73.0611ZM328.428 84.9895C328.428 84.7231 328.432 84.4547 328.439 84.1883L336.736 84.4566C336.732 84.6324 336.728 84.81 336.728 84.9877C336.728 87.4248 337.159 89.7639 337.946 91.9327L330.142 94.7954C329.015 91.6939 328.428 88.3871 328.428 84.9895ZM330.235 95.0471L338.039 92.1825C338.984 94.6807 340.407 96.9494 342.195 98.8739L336.128 104.538C333.527 101.751 331.538 98.5316 330.235 95.0471ZM336.873 105.308C336.684 105.119 336.496 104.927 336.312 104.735L342.377 99.0701C343.693 100.452 345.203 101.652 346.861 102.625L342.893 109.916C340.719 108.667 338.695 107.124 336.873 105.308ZM385.906 137.257H328.617L342.977 110.882C343.918 111.4 344.886 111.865 345.875 112.273L344.863 114.731C344.633 114.659 344.39 114.618 344.135 114.618C342.808 114.618 341.731 115.691 341.731 117.014C341.731 118.338 342.808 119.411 344.135 119.411C345.463 119.411 346.54 118.338 346.54 117.014C346.54 116.037 345.953 115.199 345.112 114.825L346.122 112.373C349.285 113.65 352.671 114.378 356.166 114.503L356.084 117.016C354.783 117.046 353.735 118.106 353.735 119.411C353.735 120.734 354.812 121.807 356.14 121.807C357.468 121.807 358.545 120.734 358.545 119.411C358.545 118.158 357.581 117.131 356.352 117.024L356.434 114.511C356.71 114.518 356.985 114.522 357.264 114.522C360.628 114.522 363.906 113.967 366.994 112.901L367.857 115.345C367.038 115.728 366.472 116.556 366.472 117.516C366.472 118.839 367.549 119.912 368.877 119.912C370.204 119.912 371.281 118.839 371.281 117.516C371.281 116.193 370.204 115.12 368.877 115.12C368.607 115.12 368.347 115.164 368.106 115.245L367.246 112.814C368.73 112.286 370.167 111.641 371.549 110.88L385.906 137.257ZM371.628 109.916L367.66 102.625C368.932 101.877 370.117 100.996 371.194 100.003L376.878 106.048C375.262 107.547 373.502 108.841 371.628 109.916ZM377.65 105.308C377.461 105.497 377.268 105.684 377.075 105.867L371.391 99.8232C373.233 98.0801 374.75 96.0019 375.844 93.6869L383.397 97.1622C381.994 100.149 380.061 102.904 377.65 105.308ZM383.509 96.9179L375.957 93.4427C377.03 91.0925 377.671 88.5074 377.777 85.7853L386.075 86.0536C385.938 89.8619 385.059 93.5371 383.509 96.9179Z" fill="#EFC9CD"/>
<path d="M312.337 88.377H281.472V127.937H312.337V88.377Z" fill="#B4D8D5"/>
<path d="M338.686 103.756H307.82V127.712H338.686V103.756Z" fill="#B4D8D5"/>
<path d="M205.441 100.238H188.125V120.341H205.441V100.238Z" fill="#EFC9CD"/>
<path d="M318.735 50.7539H296.905V127.936H318.735V50.7539Z" fill="#EFC9CD"/>
<path d="M354.682 127.936H325.888V82.8672H347.719L354.682 127.936Z" fill="#EFC9CD"/>
<path d="M367.291 117.648H342.072V127.937H367.291V117.648Z" fill="#EFC9CD"/>
<path d="M313.843 34.6309H313.09V55.6049H313.843V34.6309Z" fill="#EFC9CD"/>
<path d="M316.384 39.1309H315.631V60.1049H316.384V39.1309Z" fill="#EFC9CD"/>
<path d="M311.538 42.0254H310.785V62.9994H311.538V42.0254Z" fill="#EFC9CD"/>
<path d="M337.321 79.2246H327.017V86.3252H337.321V79.2246Z" fill="#EFC9CD"/>
<path d="M336.192 76.6934H328.147V80.6841H336.192V76.6934Z" fill="#EFC9CD"/>
<path d="M343.391 81.3047H341.414V84.1712H343.391V81.3047Z" fill="#EFC9CD"/>
<path d="M346.912 78.6875H344.09V84.1707H346.912V78.6875Z" fill="#EFC9CD"/>
<path d="M308.013 68.166H281.841V141.962H308.013V68.166Z" fill="#F34559"/>
<path d="M309.968 68.6016H279.885V69.3494H309.968V68.6016Z" fill="#F34559"/>
<path d="M309.154 78.9668H280.699V79.713H309.154V78.9668Z" fill="#F34559"/>
<path d="M309.154 89.0078H280.699V89.754H309.154V89.0078Z" fill="#F34559"/>
<path d="M309.154 99.0449H280.699V99.7912H309.154V99.0449Z" fill="#F34559"/>
<path d="M309.154 109.084H280.699V109.83H309.154V109.084Z" fill="#F34559"/>
<path d="M309.154 119.123H280.699V119.869H309.154V119.123Z" fill="#F34559"/>
<path d="M309.154 129.162H280.699V129.908H309.154V129.162Z" fill="#F34559"/>
<path d="M310.963 66.5625H278.891V68.6017H310.963V66.5625Z" fill="#F34559"/>
<path opacity="0.29" d="M286.915 71.7734H284.196V77.6687H286.915V71.7734Z" fill="#F34559"/>
<path d="M292.997 71.7734H290.279V77.6687H292.997V71.7734Z" fill="#F34559"/>
<path d="M299.08 71.7734H296.361V77.6687H299.08V71.7734Z" fill="#F34559"/>
<path d="M305.163 71.7734H302.444V77.6687H305.163V71.7734Z" fill="#F34559"/>
<path d="M286.915 81.4121H284.196V87.3074H286.915V81.4121Z" fill="#F34559"/>
<path opacity="0.29" d="M292.997 81.4121H290.279V87.3074H292.997V81.4121Z" fill="#F34559"/>
<path d="M299.08 81.4121H296.361V87.3074H299.08V81.4121Z" fill="#F34559"/>
<path d="M305.163 81.4121H302.444V87.3074H305.163V81.4121Z" fill="#F34559"/>
<path d="M286.915 91.4512H284.196V97.3464H286.915V91.4512Z" fill="#F34559"/>
<path d="M292.997 91.4512H290.279V97.3464H292.997V91.4512Z" fill="#F34559"/>
<path d="M299.08 91.4512H296.361V97.3464H299.08V91.4512Z" fill="#F34559"/>
<path opacity="0.29" d="M305.163 91.4512H302.444V97.3464H305.163V91.4512Z" fill="#F34559"/>
<path opacity="0.29" d="M292.997 101.492H290.279V107.387H292.997V101.492Z" fill="#F34559"/>
<path opacity="0.29" d="M299.08 101.492H296.361V107.387H299.08V101.492Z" fill="#F34559"/>
<path d="M305.163 101.492H302.444V107.387H305.163V101.492Z" fill="#F34559"/>
<path opacity="0.29" d="M286.915 111.529H284.196V117.425H286.915V111.529Z" fill="#F34559"/>
<path d="M292.997 111.529H290.279V117.425H292.997V111.529Z" fill="#F34559"/>
<path d="M299.08 111.529H296.361V117.425H299.08V111.529Z" fill="#F34559"/>
<path d="M305.163 111.529H302.444V117.425H305.163V111.529Z" fill="#F34559"/>
<path d="M286.915 121.566H284.196V127.462H286.915V121.566Z" fill="#F34559"/>
<path d="M292.997 121.566H290.279V127.462H292.997V121.566Z" fill="#F34559"/>
<path opacity="0.29" d="M299.08 121.566H296.361V127.462H299.08V121.566Z" fill="#F34559"/>
<path d="M305.163 121.566H302.444V127.462H305.163V121.566Z" fill="#F34559"/>
<path d="M286.915 131.609H284.196V137.505H286.915V131.609Z" fill="#F34559"/>
<path opacity="0.29" d="M292.997 131.609H290.279V137.505H292.997V131.609Z" fill="#F34559"/>
<path d="M299.08 131.609H296.361V137.505H299.08V131.609Z" fill="#F34559"/>
<path opacity="0.29" d="M305.163 131.609H302.444V137.505H305.163V131.609Z" fill="#F34559"/>
<path d="M292.395 63.748H283.493V67.5814H292.395V63.748Z" fill="#F34559"/>
<path d="M292.997 63.6406H282.889V64.296H292.997V63.6406Z" fill="#F34559"/>
<path d="M244.329 141.96H209.467V71.8435L244.329 64.3828V141.96Z" fill="#F34559"/>
<path d="M210.999 70.6074H207.935V141.959H210.999V70.6074Z" fill="#F34559"/>
<path d="M219.714 68.5977H216.651V141.959H219.714V68.5977Z" fill="#F34559"/>
<path d="M228.429 66.5098H225.365V141.959H228.429V66.5098Z" fill="#F34559"/>
<path d="M237.145 64.8086H234.081V141.959H237.145V64.8086Z" fill="#F34559"/>
<path d="M245.861 62.998H242.797V141.959H245.861V62.998Z" fill="#F34559"/>
<path opacity="0.29" d="M215.857 76.5957H211.79V82.014H215.857V76.5957Z" fill="#F34559"/>
<path opacity="0.29" d="M224.573 76.5957H220.506V82.014H224.573V76.5957Z" fill="#F34559"/>
<path d="M233.289 76.5957H229.222V82.014H233.289V76.5957Z" fill="#F34559"/>
<path opacity="0.29" d="M242.005 76.5957H237.938V82.014H242.005V76.5957Z" fill="#F34559"/>
<path d="M215.857 86.0312H211.79V91.4496H215.857V86.0312Z" fill="#F34559"/>
<path d="M224.573 86.0312H220.506V91.4496H224.573V86.0312Z" fill="#F34559"/>
<path opacity="0.29" d="M233.289 86.0312H229.222V91.4496H233.289V86.0312Z" fill="#F34559"/>
<path opacity="0.29" d="M242.005 86.0312H237.938V91.4496H242.005V86.0312Z" fill="#F34559"/>
<path opacity="0.29" d="M215.857 95.4668H211.79V100.885H215.857V95.4668Z" fill="#F34559"/>
<path opacity="0.29" d="M224.573 95.4668H220.506V100.885H224.573V95.4668Z" fill="#F34559"/>
<path opacity="0.29" d="M233.289 95.4668H229.222V100.885H233.289V95.4668Z" fill="#F34559"/>
<path d="M242.005 95.4668H237.938V100.885H242.005V95.4668Z" fill="#F34559"/>
<path opacity="0.29" d="M215.857 104.902H211.79V110.321H215.857V104.902Z" fill="#F34559"/>
<path d="M224.573 104.902H220.506V110.321H224.573V104.902Z" fill="#F34559"/>
<path opacity="0.29" d="M233.289 104.902H229.222V110.321H233.289V104.902Z" fill="#F34559"/>
<path opacity="0.29" d="M242.005 104.902H237.938V110.321H242.005V104.902Z" fill="#F34559"/>
<path opacity="0.29" d="M215.857 114.338H211.79V119.756H215.857V114.338Z" fill="#F34559"/>
<path opacity="0.29" d="M224.573 114.338H220.506V119.756H224.573V114.338Z" fill="#F34559"/>
<path d="M233.289 114.338H229.222V119.756H233.289V114.338Z" fill="#F34559"/>
<path opacity="0.29" d="M242.005 114.338H237.938V119.756H242.005V114.338Z" fill="#F34559"/>
<path d="M215.857 123.773H211.79V129.192H215.857V123.773Z" fill="#F34559"/>
<path d="M224.573 123.773H220.506V129.192H224.573V123.773Z" fill="#F34559"/>
<path opacity="0.29" d="M233.289 123.773H229.222V129.192H233.289V123.773Z" fill="#F34559"/>
<path opacity="0.29" d="M242.005 123.773H237.938V129.192H242.005V123.773Z" fill="#F34559"/>
<path opacity="0.29" d="M215.857 133.209H211.79V138.627H215.857V133.209Z" fill="#F34559"/>
<path d="M224.573 133.209H220.506V138.627H224.573V133.209Z" fill="#F34559"/>
<path opacity="0.29" d="M233.289 133.209H229.222V138.627H233.289V133.209Z" fill="#F34559"/>
<path d="M242.005 133.209H237.938V138.627H242.005V133.209Z" fill="#F34559"/>
<path d="M110.014 75.2051V75.9318H109.185V78.0067H123.772V141.962H99.8347V81.3437V78.0067V75.9318H98.965V75.2051H110.014Z" fill="#F34559"/>
<path d="M171.3 104.254H150.795V141.961H171.3V104.254Z" fill="#F34559"/>
<path d="M78.0931 95.6152H61.4252V141.966H78.0931V95.6152Z" fill="#F34559"/>
<path d="M92.9567 105.271H74.7922V141.965H92.9567V105.271Z" fill="#F34559"/>
<path d="M74.7922 93.7539H67.4226V99.3004H74.7922V93.7539Z" fill="#F34559"/>
<path d="M95.4008 104.666H76.0384V106.022H95.4008V104.666Z" fill="#F34559"/>
<path d="M111.368 121.008H91.0038V141.962H111.368V121.008Z" fill="#F34559"/>
<path d="M41.753 103.961H25.189V141.962H41.753V103.961Z" fill="#F34559"/>
<path d="M32.6051 122.898H10.8133V141.961H32.6051V122.898Z" fill="#F34559"/>
<path d="M30.15 128.09H-22.0253V142.027H30.15V128.09Z" fill="#F34559"/>
<path d="M67.4226 127.938H41.7531V141.962H67.4226V127.938Z" fill="#F34559"/>
<path d="M157.015 133.092H116.99V142.026H157.015V133.092Z" fill="#F34559"/>
<path d="M227.926 135.92H187.942V141.961H227.926V135.92Z" fill="#F34559"/>
<path d="M155.478 118.182H140.281L133.855 138.94H155.478V118.182Z" fill="#F34559"/>
<path d="M162.925 87.9785H162.503V111.006H162.925V87.9785Z" fill="#F34559"/>
<path d="M165.184 95.7715H164.62V109.359H165.184V95.7715Z" fill="#F34559"/>
<path d="M169.282 98.1777H161.594V104.904H169.282V98.1777Z" fill="#F34559"/>
<path d="M170.479 97.6562H160.296V98.2581H170.479V97.6562Z" fill="#F34559"/>
<path d="M192.413 122.512H167.569V141.961H192.413V122.512Z" fill="#F34559"/>
<path d="M203.625 101.104H187.664V138.631H203.625V101.104Z" fill="#EFC9CD"/>
<path d="M275.504 108.156H250.002V141.961H275.504V108.156Z" fill="#F34559"/>
<path d="M271.081 129.506H242.005V141.961H271.081V129.506Z" fill="#F34559"/>
<path d="M292.997 137.504H274.091V141.962H292.997V137.504Z" fill="#F34559"/>
<path d="M333.951 129.506H303.212V141.961H333.951V129.506Z" fill="#F34559"/>
<path d="M353.71 96.8945H315.458V141.962H353.71V96.8945Z" fill="#F34559"/>
<path d="M355.941 95.166H314.47V96.8953H355.941V95.166Z" fill="#F34559"/>
<path d="M352.017 90.4746H335.207V99.6111H352.017V90.4746Z" fill="#F34559"/>
<path d="M329.714 90.4746H326.891V96.0308H329.714V90.4746Z" fill="#F34559"/>
<path d="M324.071 90.4746H320.964V96.0308H324.071V90.4746Z" fill="#F34559"/>
<path d="M410.284 76.1426H380.007V141.964H410.284V76.1426Z" fill="#F34559"/>
<path d="M411.145 75.0117H379.146V76.8724H411.145V75.0117Z" fill="#F34559"/>
<path d="M409.266 72.627H381.023V81.4698H409.266V72.627Z" fill="#F34559"/>
<path d="M407.106 69.0098H395.922V78.6719H407.106V69.0098Z" fill="#F34559"/>
<path d="M400.632 71.7342H407.104V66.6484H402.462L400.632 71.7342Z" fill="#F34559"/>
<path d="M404.495 62.4258H403.868V73.7539H404.495V62.4258Z" fill="#F34559"/>
<path d="M403.62 61.8392C403.62 62.1637 403.872 62.4265 404.183 62.4265C404.495 62.4265 404.747 62.1637 404.747 61.8392C404.747 61.5148 404.495 61.252 404.183 61.252C403.872 61.252 403.62 61.5148 403.62 61.8392Z" fill="#F34559"/>
<path d="M419.69 114.789H406.14V141.962H419.69V114.789Z" fill="#F34559"/>
<path d="M382.994 101.541H367.541V141.961H382.994V101.541Z" fill="#F34559"/>
<path d="M375.274 141.962H353.506V120.344L371.878 127.464L375.274 141.962Z" fill="#F34559"/>
<path d="M286.915 101.492H284.196V107.387H286.915V101.492Z" fill="#F34559"/>
<path opacity="0.33" d="M285.555 73.5781H284.196V78.1568H285.555V73.5781Z" fill="#E7F3FE"/>
<path opacity="0.33" d="M292.319 73.5781H290.959V78.1568H292.319V73.5781Z" fill="#E7F3FE"/>
<path opacity="0.33" d="M299.08 73.5781H297.72V78.1568H299.08V73.5781Z" fill="#E7F3FE"/>
<path opacity="0.33" d="M305.841 73.5781H304.482V78.1568H305.841V73.5781Z" fill="#E7F3FE"/>
<path opacity="0.33" d="M285.555 83.002H284.196V87.5806H285.555V83.002Z" fill="#E7F3FE"/>
<path opacity="0.33" d="M292.319 83.002H290.959V87.5806H292.319V83.002Z" fill="#E7F3FE"/>
<path opacity="0.33" d="M299.08 83.002H297.72V87.5806H299.08V83.002Z" fill="#E7F3FE"/>
<path opacity="0.33" d="M305.841 83.002H304.482V87.5806H305.841V83.002Z" fill="#E7F3FE"/>
<path opacity="0.33" d="M285.555 92.6602H284.196V97.2388H285.555V92.6602Z" fill="#E7F3FE"/>
<path opacity="0.33" d="M292.319 92.6602H290.959V97.2388H292.319V92.6602Z" fill="#E7F3FE"/>
<path opacity="0.33" d="M299.08 92.6602H297.72V97.2388H299.08V92.6602Z" fill="#E7F3FE"/>
<path opacity="0.33" d="M305.841 92.6602H304.482V97.2388H305.841V92.6602Z" fill="#E7F3FE"/>
<path opacity="0.33" d="M292.319 102.316H290.959V106.895H292.319V102.316Z" fill="#E7F3FE"/>
<path opacity="0.33" d="M299.08 102.316H297.72V106.895H299.08V102.316Z" fill="#E7F3FE"/>
<path opacity="0.33" d="M305.841 102.316H304.482V106.895H305.841V102.316Z" fill="#E7F3FE"/>
<path opacity="0.33" d="M285.555 111.09H284.196V115.668H285.555V111.09Z" fill="#E7F3FE"/>
<path opacity="0.33" d="M292.319 111.09H290.959V115.668H292.319V111.09Z" fill="#E7F3FE"/>
<path opacity="0.33" d="M299.08 111.09H297.72V115.668H299.08V111.09Z" fill="#E7F3FE"/>
<path opacity="0.33" d="M285.555 120.871H284.196V125.45H285.555V120.871Z" fill="#E7F3FE"/>
<path opacity="0.33" d="M292.319 120.871H290.959V125.45H292.319V120.871Z" fill="#E7F3FE"/>
<path opacity="0.33" d="M299.08 120.871H297.72V125.45H299.08V120.871Z" fill="#E7F3FE"/>
<path opacity="0.33" d="M305.841 111.09H304.482V115.668H305.841V111.09Z" fill="#E7F3FE"/>
<path opacity="0.33" d="M216.041 78.0566H214.008V82.2534H216.041V78.0566Z" fill="#E7F3FE"/>
<path opacity="0.33" d="M216.041 86.084H214.008V90.2807H216.041V86.084Z" fill="#E7F3FE"/>
<path opacity="0.33" d="M216.041 94.1152H214.008V98.312H216.041V94.1152Z" fill="#E7F3FE"/>
<path opacity="0.33" d="M216.041 102.143H214.008V106.339H216.041V102.143Z" fill="#E7F3FE"/>
<path opacity="0.33" d="M216.041 109.711H214.008V113.908H216.041V109.711Z" fill="#E7F3FE"/>
<path opacity="0.33" d="M216.041 117.738H214.008V121.935H216.041V117.738Z" fill="#E7F3FE"/>
<path opacity="0.33" d="M224.757 78.0566H222.724V82.2534H224.757V78.0566Z" fill="#E7F3FE"/>
<path opacity="0.33" d="M224.757 86.084H222.724V90.2807H224.757V86.084Z" fill="#E7F3FE"/>
<path opacity="0.33" d="M224.757 94.1152H222.724V98.312H224.757V94.1152Z" fill="#E7F3FE"/>
<path opacity="0.33" d="M224.757 102.143H222.724V106.339H224.757V102.143Z" fill="#E7F3FE"/>
<path opacity="0.33" d="M224.757 109.711H222.724V113.908H224.757V109.711Z" fill="#E7F3FE"/>
<path opacity="0.33" d="M224.757 117.738H222.724V121.935H224.757V117.738Z" fill="#E7F3FE"/>
<path opacity="0.33" d="M233.473 78.0566H231.44V82.2534H233.473V78.0566Z" fill="#E7F3FE"/>
<path opacity="0.33" d="M233.473 86.084H231.44V90.2807H233.473V86.084Z" fill="#E7F3FE"/>
<path opacity="0.33" d="M233.473 94.1152H231.44V98.312H233.473V94.1152Z" fill="#E7F3FE"/>
<path opacity="0.33" d="M233.473 102.143H231.44V106.339H233.473V102.143Z" fill="#E7F3FE"/>
<path opacity="0.33" d="M233.473 109.711H231.44V113.908H233.473V109.711Z" fill="#E7F3FE"/>
<path opacity="0.33" d="M233.473 117.738H231.44V121.935H233.473V117.738Z" fill="#E7F3FE"/>
<path opacity="0.33" d="M242.189 78.0566H240.156V82.2534H242.189V78.0566Z" fill="#E7F3FE"/>
<path opacity="0.33" d="M242.189 86.084H240.156V90.2807H242.189V86.084Z" fill="#E7F3FE"/>
<path opacity="0.33" d="M242.189 94.1152H240.156V98.312H242.189V94.1152Z" fill="#E7F3FE"/>
<path opacity="0.33" d="M242.189 102.143H240.156V106.339H242.189V102.143Z" fill="#E7F3FE"/>
<path opacity="0.33" d="M242.189 109.711H240.156V113.908H242.189V109.711Z" fill="#E7F3FE"/>
<path opacity="0.33" d="M242.189 117.738H240.156V121.935H242.189V117.738Z" fill="#E7F3FE"/>
<path opacity="0.5" d="M62.536 67.0957H61.6755V70.9724H62.536V67.0957Z" fill="#E7F3FE"/>
<path opacity="0.5" d="M65.5013 67.0957H64.6409V70.9724H65.5013V67.0957Z" fill="#E7F3FE"/>
<path opacity="0.5" d="M68.4684 67.0957H67.6079V70.9724H68.4684V67.0957Z" fill="#E7F3FE"/>
<path opacity="0.5" d="M71.4337 67.0957H70.5732V70.9724H71.4337V67.0957Z" fill="#E7F3FE"/>
<path opacity="0.5" d="M74.399 67.0957H73.5386V70.9724H74.399V67.0957Z" fill="#E7F3FE"/>
<path opacity="0.5" d="M77.3641 67.0957H76.5037V70.9724H77.3641V67.0957Z" fill="#E7F3FE"/>
<path opacity="0.5" d="M80.3295 67.0957H79.4691V70.9724H80.3295V67.0957Z" fill="#E7F3FE"/>
<path opacity="0.5" d="M83.2949 67.0957H82.4344V70.9724H83.2949V67.0957Z" fill="#E7F3FE"/>
<path opacity="0.5" d="M86.2599 67.0957H85.3995V70.9724H86.2599V67.0957Z" fill="#E7F3FE"/>
<path opacity="0.5" d="M89.2254 67.0957H88.3649V70.9724H89.2254V67.0957Z" fill="#E7F3FE"/>
<path opacity="0.5" d="M92.1906 67.0957H91.3301V70.9724H92.1906V67.0957Z" fill="#E7F3FE"/>
<path opacity="0.5" d="M62.536 72.4941H61.6755V76.3708H62.536V72.4941Z" fill="#E7F3FE"/>
<path opacity="0.5" d="M65.5013 72.4941H64.6409V76.3708H65.5013V72.4941Z" fill="#E7F3FE"/>
<path opacity="0.5" d="M68.4684 72.4941H67.6079V76.3708H68.4684V72.4941Z" fill="#E7F3FE"/>
<path opacity="0.5" d="M71.4337 72.4941H70.5732V76.3708H71.4337V72.4941Z" fill="#E7F3FE"/>
<path opacity="0.5" d="M74.399 72.4941H73.5386V76.3708H74.399V72.4941Z" fill="#E7F3FE"/>
<path opacity="0.5" d="M77.3641 72.4941H76.5037V76.3708H77.3641V72.4941Z" fill="#E7F3FE"/>
<path opacity="0.5" d="M80.3295 72.4941H79.4691V76.3708H80.3295V72.4941Z" fill="#E7F3FE"/>
<path opacity="0.5" d="M83.2949 72.4941H82.4344V76.3708H83.2949V72.4941Z" fill="#E7F3FE"/>
<path opacity="0.5" d="M86.2599 72.4941H85.3995V76.3708H86.2599V72.4941Z" fill="#E7F3FE"/>
<path opacity="0.5" d="M89.2254 72.4941H88.3649V76.3708H89.2254V72.4941Z" fill="#E7F3FE"/>
<path opacity="0.5" d="M92.1906 72.4941H91.3301V76.3708H92.1906V72.4941Z" fill="#E7F3FE"/>
<path opacity="0.5" d="M62.536 77.8926H61.6755V81.7692H62.536V77.8926Z" fill="#E7F3FE"/>
<path opacity="0.5" d="M65.5013 77.8926H64.6409V81.7692H65.5013V77.8926Z" fill="#E7F3FE"/>
<path opacity="0.5" d="M68.4684 77.8926H67.6079V81.7692H68.4684V77.8926Z" fill="#E7F3FE"/>
<path opacity="0.5" d="M71.4337 77.8926H70.5732V81.7692H71.4337V77.8926Z" fill="#E7F3FE"/>
<path opacity="0.5" d="M74.399 77.8926H73.5386V81.7692H74.399V77.8926Z" fill="#E7F3FE"/>
<path opacity="0.5" d="M77.3641 77.8926H76.5037V81.7692H77.3641V77.8926Z" fill="#E7F3FE"/>
<path opacity="0.5" d="M80.3295 77.8926H79.4691V81.7692H80.3295V77.8926Z" fill="#E7F3FE"/>
<path opacity="0.5" d="M83.2949 77.8926H82.4344V81.7692H83.2949V77.8926Z" fill="#E7F3FE"/>
<path opacity="0.5" d="M86.2599 77.8926H85.3995V81.7692H86.2599V77.8926Z" fill="#E7F3FE"/>
<path opacity="0.5" d="M89.2254 77.8926H88.3649V81.7692H89.2254V77.8926Z" fill="#E7F3FE"/>
<path opacity="0.5" d="M92.1906 77.8926H91.3301V81.7692H92.1906V77.8926Z" fill="#E7F3FE"/>
<path opacity="0.5" d="M71.4337 83.291H70.5732V87.1677H71.4337V83.291Z" fill="#E7F3FE"/>
<path opacity="0.5" d="M74.399 83.291H73.5386V87.1677H74.399V83.291Z" fill="#E7F3FE"/>
<path opacity="0.5" d="M77.3641 83.291H76.5037V87.1677H77.3641V83.291Z" fill="#E7F3FE"/>
<path opacity="0.5" d="M80.3295 83.291H79.4691V87.1677H80.3295V83.291Z" fill="#E7F3FE"/>
<path opacity="0.5" d="M83.2949 83.291H82.4344V87.1677H83.2949V83.291Z" fill="#E7F3FE"/>
<path opacity="0.5" d="M86.2599 83.291H85.3995V87.1677H86.2599V83.291Z" fill="#E7F3FE"/>
<path opacity="0.5" d="M89.2254 83.291H88.3649V87.1677H89.2254V83.291Z" fill="#E7F3FE"/>
<path opacity="0.5" d="M92.1906 83.291H91.3301V87.1677H92.1906V83.291Z" fill="#E7F3FE"/>
<path opacity="0.5" d="M74.399 88.9883H73.5386V92.865H74.399V88.9883Z" fill="#E7F3FE"/>
<path opacity="0.5" d="M77.3641 88.9883H76.5037V92.865H77.3641V88.9883Z" fill="#E7F3FE"/>
<path opacity="0.5" d="M80.3295 88.9883H79.4691V92.865H80.3295V88.9883Z" fill="#E7F3FE"/>
<path opacity="0.5" d="M83.2949 88.9883H82.4344V92.865H83.2949V88.9883Z" fill="#E7F3FE"/>
<path opacity="0.5" d="M86.2599 88.9883H85.3995V92.865H86.2599V88.9883Z" fill="#E7F3FE"/>
<path opacity="0.5" d="M89.2254 88.9883H88.3649V92.865H89.2254V88.9883Z" fill="#E7F3FE"/>
<path opacity="0.5" d="M92.1906 88.9883H91.3301V92.865H92.1906V88.9883Z" fill="#E7F3FE"/>
<path opacity="0.5" d="M176.022 81.207H174.354V86.4288H176.022V81.207Z" fill="#E7F3FE"/>
<path opacity="0.5" d="M181.123 81.207H179.456V86.4288H181.123V81.207Z" fill="#E7F3FE"/>
<path opacity="0.5" d="M185.923 81.207H184.255V86.4288H185.923V81.207Z" fill="#E7F3FE"/>
<path opacity="0.33" d="M290.457 82.291H289.192V85.2272H290.457V82.291Z" fill="#E7F3FE"/>
<path opacity="0.33" d="M294.423 82.291H293.159V85.2272H294.423V82.291Z" fill="#E7F3FE"/>
<path opacity="0.33" d="M290.457 87.5586H289.192V90.4948H290.457V87.5586Z" fill="#E7F3FE"/>
<path opacity="0.33" d="M294.423 87.5586H293.159V90.4948H294.423V87.5586Z" fill="#E7F3FE"/>
<path opacity="0.33" d="M290.457 93.1621H289.192V96.0983H290.457V93.1621Z" fill="#E7F3FE"/>
<path opacity="0.33" d="M294.423 93.1621H293.159V96.0983H294.423V93.1621Z" fill="#E7F3FE"/>
<path opacity="0.33" d="M191.753 102.318H190.394V106.897H191.753V102.318Z" fill="#E7F3FE"/>
<path opacity="0.33" d="M345.501 97.7832H344.112V100.411H345.501V97.7832Z" fill="#E7F3FE"/>
<path opacity="0.33" d="M345.501 102.025H344.112V104.654H345.501V102.025Z" fill="#E7F3FE"/>
<path opacity="0.33" d="M349.065 97.7832H347.676V100.411H349.065V97.7832Z" fill="#E7F3FE"/>
</g>
<path d="M63.1529 149.676C63.4923 147.926 62.3489 146.232 60.5989 145.893C58.849 145.553 57.1552 146.697 56.8158 148.447C56.4764 150.197 57.6199 151.89 59.3698 152.23C61.1198 152.569 62.8135 151.426 63.1529 149.676Z" fill="#29332B"/>
<path d="M62.1739 149.035C62.1896 150.245 61.2237 151.24 60.0117 151.255C58.8023 151.271 57.8076 150.305 57.7919 149.093C57.7762 147.881 58.7421 146.889 59.9541 146.873C61.1661 146.858 62.1582 147.826 62.1739 149.035Z" fill="#434144"/>
<path d="M34.3993 151.771C35.6875 150.539 35.7332 148.496 34.5013 147.207C33.2693 145.919 31.2263 145.873 29.9381 147.105C28.6498 148.337 28.6041 150.38 29.8361 151.669C31.068 152.957 33.111 153.002 34.3993 151.771Z" fill="#29332B"/>
<path d="M63.153 144.465L28.883 144.928L28.9422 149.309L63.2122 148.847L63.153 144.465Z" fill="#29332B"/>
<path d="M34.3606 149.41C34.3763 150.62 33.4104 151.615 32.1984 151.63C30.9864 151.646 29.9943 150.68 29.9786 149.468C29.9629 148.259 30.9288 147.264 32.1408 147.248C33.3528 147.233 34.3449 148.201 34.3606 149.41Z" fill="#434144"/>
<path d="M38.1425 68.2061L36.4804 68.2285L36.8439 95.154L38.506 95.1316L38.1425 68.2061Z" fill="#434144"/>
<path d="M52.4217 68.0147L50.7596 68.0371L51.1232 94.9626L52.7852 94.9402L52.4217 68.0147Z" fill="#434144"/>
<path d="M50.2528 95.0563L39.3763 95.2029C38.57 95.2133 37.9025 94.5641 37.892 93.7579C37.8816 92.9516 38.5307 92.2841 39.337 92.2737L50.2135 92.1271C51.0198 92.1166 51.6873 92.7658 51.6977 93.572C51.7082 94.3783 51.059 95.0458 50.2528 95.0563Z" fill="#1694A1"/>
<path d="M52.4201 68.015L36.4809 68.2297L36.4547 66.2507C36.4469 65.6722 36.9102 65.1984 37.4887 65.1905L51.3337 65.0021C51.9122 64.9942 52.386 65.4575 52.3939 66.036L52.4201 68.015Z" fill="#29332B"/>
<path d="M61.6319 145.931L29.3714 146.365C26.9134 146.399 24.8952 144.433 24.8612 141.975L24.2774 98.5898C24.2434 96.1318 26.2093 94.1135 28.6673 94.0795L60.9277 93.645C63.3857 93.6109 65.404 95.5768 65.438 98.0348L66.0217 141.418C66.0558 143.878 64.0899 145.897 61.6319 145.931Z" fill="#97CACF"/>
<path d="M58.8677 95.3601C59.5012 95.2423 60.1818 95.3313 60.7969 95.5799C61.4173 95.8234 61.9696 96.2265 62.4225 96.7134C62.8701 97.2055 63.2235 97.784 63.4355 98.4123C63.6502 99.0353 63.7313 99.7054 63.6319 100.344C63.5141 99.7107 63.323 99.1191 63.056 98.5694C62.7864 98.0223 62.4487 97.5118 62.0377 97.072C61.632 96.6244 61.1529 96.2475 60.6241 95.9543C60.0928 95.6559 59.5038 95.4595 58.8677 95.3601Z" fill="#9ED3AA"/>
<path d="M34.8843 146.289L29.3714 146.363C26.9134 146.397 24.8952 144.431 24.8612 141.973L24.2774 98.5899C24.2434 96.1319 26.2093 94.1136 28.6673 94.0796L34.1801 94.0063C36.6382 93.9723 38.6564 95.9381 38.6904 98.3962L39.2742 141.779C39.3056 144.237 37.3423 146.258 34.8843 146.289Z" fill="#1694A1"/>
<path d="M44.0408 140.403C43.6508 140.421 43.2503 140.309 42.9309 140.065C42.6115 139.827 42.3969 139.429 42.3969 139.018L42.3079 136.68L42.1691 132.005C42.0854 128.888 42.033 125.772 41.9859 122.655C41.9493 119.537 41.9178 116.419 41.9178 113.302L41.9309 108.624L41.9571 106.286C41.9466 105.875 42.1508 105.472 42.4623 105.226C42.7738 104.972 43.1743 104.852 43.5618 104.86C43.1717 104.878 42.7922 105.027 42.5121 105.286C42.2267 105.54 42.0644 105.912 42.0932 106.286L42.1849 108.624L42.3236 113.299C42.4074 116.417 42.4597 119.532 42.5068 122.65C42.5435 125.767 42.5749 128.885 42.5749 132.003L42.5618 136.68L42.5356 139.018C42.5173 139.392 42.6901 139.759 42.9832 140.005C43.266 140.256 43.6508 140.392 44.0408 140.403Z" fill="#BDE1D8"/>
<path d="M52.7316 140.284C52.3416 140.302 51.941 140.189 51.6217 139.946C51.3023 139.708 51.0877 139.31 51.0877 138.899L50.9987 136.561L50.8599 131.886C50.7762 128.768 50.7238 125.653 50.6767 122.536C50.6401 119.418 50.6086 116.3 50.6086 113.183L50.6217 108.505L50.6479 106.167C50.6374 105.756 50.8416 105.353 51.1531 105.107C51.4646 104.853 51.8651 104.733 52.2526 104.741C51.8625 104.759 51.483 104.908 51.2029 105.167C50.9175 105.421 50.7552 105.793 50.784 106.167L50.8756 108.505L51.0144 113.18C51.0982 116.298 51.1505 119.413 51.1976 122.53C51.2343 125.648 51.2657 128.766 51.2657 131.883L51.2526 136.561L51.2264 138.899C51.2081 139.273 51.3809 139.64 51.674 139.886C51.9568 140.137 52.3416 140.276 52.7316 140.284Z" fill="#BDE1D8"/>
<path d="M61.4224 140.164C61.0324 140.183 60.6319 140.07 60.3125 139.827C59.9932 139.589 59.7785 139.191 59.7785 138.78L59.6895 136.442L59.5508 131.767C59.467 128.649 59.4147 125.534 59.3676 122.417C59.3309 119.299 59.2995 116.181 59.2995 113.064L59.3126 108.386L59.3388 106.048C59.3283 105.637 59.5325 105.234 59.844 104.988C60.1555 104.734 60.556 104.614 60.9434 104.621C60.5534 104.64 60.1738 104.789 59.8937 105.048C59.6084 105.302 59.4461 105.674 59.4749 106.048L59.5665 108.386L59.7052 113.061C59.789 116.179 59.8414 119.294 59.8885 122.411C59.9251 125.529 59.9565 128.647 59.9565 131.764L59.9435 136.442L59.9173 138.78C59.899 139.154 60.0717 139.521 60.3649 139.767C60.6476 140.018 61.0324 140.157 61.4224 140.164Z" fill="#BDE1D8"/>
<path d="M43.7347 104.86C43.5933 104.862 43.4598 104.886 43.3315 104.917C43.9964 105.064 44.4938 105.582 44.5017 106.21L44.944 139.028C44.9519 139.656 44.4702 140.188 43.808 140.353C43.9388 140.382 44.0723 140.403 44.2111 140.4C45.0697 140.389 45.7581 139.769 45.7503 139.018L45.3079 106.2C45.3 105.448 44.5959 104.849 43.7347 104.86Z" fill="#1694A1"/>
<path d="M52.2524 104.742C52.1111 104.745 51.9776 104.768 51.8493 104.8C52.5142 104.946 53.0116 105.465 53.0194 106.093L53.4618 138.911C53.4697 139.539 52.988 140.071 52.3257 140.236C52.4566 140.264 52.5901 140.285 52.7288 140.283C53.5875 140.272 54.2759 139.652 54.2681 138.901L53.8257 106.083C53.8178 105.331 53.111 104.732 52.2524 104.742Z" fill="#1694A1"/>
<path d="M60.9433 104.629C60.8019 104.632 60.6684 104.655 60.5402 104.687C61.2051 104.833 61.7024 105.352 61.7103 105.98L62.1527 138.798C62.1605 139.426 61.6789 139.957 61.0166 140.122C61.1475 140.151 61.281 140.172 61.4197 140.17C62.2783 140.159 62.9668 139.539 62.9589 138.787L62.5165 105.969C62.506 105.215 61.8019 104.616 60.9433 104.629Z" fill="#1694A1"/>
<path d="M55.2917 102.372L49.0773 102.456C48.3155 102.467 47.6847 101.852 47.6742 101.092C47.6637 100.331 48.2789 99.6998 49.038 99.6894L55.2524 99.6056C56.0142 99.5951 56.645 100.21 56.6555 100.969C56.666 101.731 56.0508 102.362 55.2917 102.372Z" fill="#EDDFD6"/>
<path d="M48.2872 101.083C48.2768 100.321 48.8919 99.6902 49.651 99.6797L49.0359 99.6875C48.2741 99.698 47.6616 100.329 47.6721 101.091C47.6825 101.852 48.3134 102.465 49.0752 102.454L49.6903 102.447C48.9286 102.457 48.2977 101.845 48.2872 101.083Z" fill="#896C5E"/>
<path d="M53.954 100.031C54.2315 99.9738 54.5064 99.9398 54.7891 99.9293C55.0692 99.9188 55.3597 99.9267 55.6503 100.026C55.7917 100.081 55.9356 100.16 56.0456 100.283C56.1503 100.408 56.2183 100.555 56.2471 100.704C56.3047 101.003 56.234 101.311 56.0718 101.544C56.132 101.27 56.1293 100.995 56.0482 100.756C55.967 100.513 55.8021 100.351 55.5613 100.27C55.3283 100.183 55.0561 100.16 54.7838 100.131C54.509 100.107 54.2315 100.081 53.954 100.031Z" fill="#FCF9F7"/>
<path d="M92.0445 83.0221C91.885 82.5387 91.8227 82.885 92.0445 83.0221V83.0221Z" fill="#15BBCC"/>
<path d="M167.556 82.7681C158.69 85.5411 149.01 88.3016 140.321 85.0139C133.104 82.2832 127.998 75.8643 123.691 69.4629C123.855 69.7091 107.018 77.6524 105.449 78.2841C102.248 79.5699 99.0051 80.7462 95.7223 81.8082C94.9041 82.0718 91.7531 82.5443 91.4174 83.3177C91.0418 84.1757 92.6211 87.3118 92.9195 88.222C97.1498 101.08 102.417 113.596 108.65 125.613C112.452 132.943 116.61 140.088 121.114 147.009C117.366 148.867 113.618 150.722 109.873 152.58C116.466 152.226 123.061 151.873 129.654 151.52C126.523 133.932 123.395 116.345 120.264 98.7543C120.41 99.58 124.034 101.144 124.857 101.55C138.366 108.172 154.815 104.392 165.984 95.0313C166.576 94.5364 167.193 94.0067 167.949 93.8525C168.523 93.7356 169.12 93.8525 169.687 94.0017C171.654 94.5165 173.517 95.4367 175.121 96.6876C172.602 92.047 170.077 87.4088 167.556 82.7681Z" fill="#15BBCC"/>
<path d="M92.9668 82.6559C93.0149 82.5978 92.9137 82.6509 92.9668 82.6559V82.6559Z" fill="#15BBCC"/>
<path d="M81.3975 14.8713L81.6362 12.6778C81.6785 12.3196 81.5541 11.9615 81.3005 11.7054L81.0169 11.4218C80.92 11.3249 80.7508 11.3771 80.726 11.5139L80.3877 13.399C80.3455 13.6377 80.2311 13.8566 80.0595 14.0282L79.4054 14.6823L80.9374 15.1772C81.0095 15.1995 81.3975 15.1772 81.3975 14.8713Z" fill="url(#paint0_linear)"/>
<path d="M152.151 65.7649C154.932 65.6505 157.031 65.8395 157.832 66.7199C158.739 67.7172 159.234 67.8913 159.565 68.13C159.762 68.2718 160.184 68.4459 160.418 68.5055C160.717 68.5801 163.306 69.08 163.43 69.1124C163.579 69.1497 163.875 69.2268 163.691 68.7045C163.559 68.329 161.657 67.3964 161.958 67.2198C163.482 66.3145 165.835 66.5458 167.491 66.5234C167.605 66.5209 167.872 66.516 167.901 66.419C167.934 66.3145 167.673 66.1554 167.586 66.1031C166.65 65.5336 163.388 65.5684 163.388 65.5709C163.388 65.5709 163.721 65.4516 164.775 65.4142C166.616 65.3521 167.583 65.648 168.879 65.1332C169.132 65.0337 169.359 64.9392 169.354 64.8422C169.326 64.3473 163.412 64.6309 163.405 64.2976C163.402 64.213 163.776 64.1285 163.96 64.0862C165.686 63.6908 166.504 64.4294 167.817 63.8748C168.023 63.7878 168.324 63.6609 168.317 63.5341C168.289 63.1088 164.8 63.1909 163.191 63.1884C160.789 63.1834 157.382 63.3028 153.211 63.8748C152.952 64.3672 152.405 65.2675 152.151 65.7649Z" fill="url(#paint1_linear)"/>
<path d="M120.266 59.7305C120.746 59.7305 120.746 58.9844 120.266 58.9844C119.786 58.9844 119.786 59.7305 120.266 59.7305Z" fill="#93002E"/>
<path d="M76.0309 21.4673C76.8516 18.8087 77.732 16.8938 78.8313 16.4337C80.0747 15.9114 80.7164 15.4663 81.0521 15.235C81.2511 15.0982 81.3903 14.9539 81.4127 14.7127C81.4475 14.3471 81.5246 13.8323 81.4003 13.7975C80.5796 13.5563 81.639 13.9716 81.1814 13.698C80.8407 13.4941 80.7487 13.0564 80.6816 12.7132C80.3384 10.9748 81.3431 8.83602 81.8753 7.26675C81.9126 7.15732 81.9972 6.90614 81.9151 6.84397C81.8256 6.77931 81.5893 6.9708 81.5097 7.03546C80.6617 7.72684 79.6022 10.8132 79.6022 10.8132C79.6022 10.8132 79.5997 10.46 79.9205 9.45279C80.4776 7.69948 81.082 6.88376 81.0272 5.49355C81.0173 5.22247 81.0049 4.97626 80.9128 4.9489C80.4378 4.80715 78.7243 10.4774 78.4085 10.373C78.3289 10.3456 78.3737 9.96759 78.396 9.78107C78.6025 8.02279 79.5699 7.49804 79.4878 6.0755C79.4754 5.85167 79.4555 5.52588 79.3336 5.49106C78.9233 5.37417 77.834 8.68929 77.2918 10.2039C76.4836 12.467 75.4565 15.715 74.5984 19.8383C74.9814 20.2462 75.6479 21.0619 76.0309 21.4673Z" fill="url(#paint2_linear)"/>
<path d="M157.531 62.6589C156.966 61.6989 155.887 61.0722 154.788 60.8882C145.051 59.2667 142.137 58.8663 135.85 56.531C131.304 54.8424 126.852 52.1067 123.139 48.8637C118.501 44.0092 112.694 42.6364 108.978 41.8082C96.3568 38.9979 94.7427 43.7057 87.9285 41.4327C77.3862 37.9186 80.2164 18.6969 75.7498 18.2094C72.084 17.809 66.3068 29.2466 67.901 40.5921C69.1395 49.3934 77.5106 58.053 85.9613 61.9078C86.2448 62.0371 86.5084 62.159 86.7546 62.2759C87.8514 70.9554 89.0949 76.9241 92.0792 85.6284C92.1265 85.7677 123.397 73.3404 126.238 72.0994C124.823 69.7243 123.353 67.3791 121.841 65.0662C121.875 65.0662 121.91 65.0662 121.945 65.0662C122.216 65.2652 122.5 65.4517 122.801 65.6184C125.454 67.0956 128.17 68.6325 131.124 69.2145C137.68 70.5052 144.803 70.9554 151.828 68.7445C154.253 67.9835 159.598 66.1804 157.531 62.6589Z" fill="#EB384D"/>
<path d="M113.363 42.905C110.771 41.9724 106.536 41.761 106.581 32.5045C106.581 32.5045 101.216 32.1663 101.013 32.2334C100.821 32.2981 102.776 40.8657 94.9369 41.664C94.4296 41.7162 94.3376 42.328 94.7031 42.701C96.3097 44.3449 97.8019 45.3397 101.781 45.8371C104.626 46.1927 109.779 45.9167 113.378 44.0216C113.87 43.7655 113.905 43.1014 113.363 42.905Z" fill="url(#paint3_linear)"/>
<path d="M85.9984 7.86346L79.0498 15.0284C78.9155 15.1353 78.729 15.1179 78.632 14.9911L75.2323 10.614C75.0383 10.338 75.093 10.0868 75.2323 9.97489L84.6778 2.36728C84.8195 2.25288 85.0459 2.30759 85.2249 2.59608L86.0904 7.41581C86.1724 7.55259 86.1327 7.75652 85.9984 7.86346Z" fill="url(#paint4_linear)"/>
<path d="M86.6106 9.52725L79.3984 15.2473C79.1497 15.496 78.901 15.496 78.7319 15.2274L75.2576 10.6588C75.1482 10.5171 75.1755 10.3057 75.3173 10.1913L84.8125 2.54387C84.9543 2.42947 85.1482 2.4618 85.2427 2.61848L88.1027 7.53768C88.6001 8.28377 87.6054 8.78116 86.6106 9.52725Z" fill="#26264F"/>
<path d="M87.5403 8.30863L79.214 14.9836C79.0896 15.0831 78.913 15.0682 78.821 14.9463L75.5631 10.6414C75.4636 10.5096 75.4885 10.3131 75.6203 10.2062L84.3918 3.14321C84.5236 3.03627 84.7052 3.06612 84.7922 3.21036L87.6249 7.88585C87.7044 8.02014 87.6671 8.20915 87.5403 8.30863Z" fill="#FF653B"/>
<path d="M86.5511 5.49907C86.5037 5.53893 86.439 5.52648 86.4091 5.47665C86.3792 5.42432 86.3916 5.35207 86.4414 5.3147C86.4888 5.27483 86.5536 5.28729 86.5835 5.33712C86.6134 5.38695 86.5984 5.4617 86.5511 5.49907Z" fill="white"/>
<g opacity="0.66">
<path opacity="0.66" d="M83.6852 6.75386C83.0535 6.39574 82.2801 6.57231 81.9543 7.14431C81.631 7.71631 81.8797 8.46986 82.5114 8.82798L83.6852 6.75386Z" fill="#F4F7FA"/>
<path opacity="0.66" d="M82.5142 8.82803L83.6855 6.75391C83.979 6.92053 84.0834 7.29358 83.9168 7.58704L83.3473 8.59674C83.1807 8.8902 82.8076 8.99466 82.5142 8.82803Z" fill="#F4F7FA"/>
<path opacity="0.66" d="M81.9671 9.73335C81.3354 9.37523 80.5619 9.5518 80.2361 10.1238C79.9128 10.6958 80.1615 11.4494 80.7932 11.8075L81.9671 9.73335Z" fill="#F4F7FA"/>
<path opacity="0.66" d="M80.7928 11.8075L81.9642 9.7334C82.2577 9.90002 82.3621 10.2731 82.1955 10.5665L81.626 11.5762C81.4618 11.8697 81.0888 11.9741 80.7928 11.8075Z" fill="#F4F7FA"/>
<path opacity="0.66" d="M80.8278 10.6731L80.1713 10.3026C80.4026 9.13122 81.0193 8.04193 82.0191 7.03223L82.6756 7.40278L80.8278 10.6731Z" fill="#F4F7FA"/>
</g>
<g opacity="0.3">
<path opacity="0.3" d="M81.572 8.10418C82.6712 6.71148 83.9222 7.07955 84.9194 5.75898C85.4641 5.04024 85.6581 4.18473 85.6879 3.36652L85.2427 2.62043C85.1482 2.46375 84.9567 2.43142 84.8125 2.54582L75.3173 10.1907C75.1755 10.3051 75.1482 10.514 75.2576 10.6583L78.2569 14.6051C79.3089 13.9013 79.8908 13.1403 80.2315 12.4912C81.1716 10.7055 80.4354 9.54662 81.572 8.10418Z" fill="#F4F7FA"/>
</g>
<path d="M167.685 82.6426L175.892 97.5643L167.685 93.5852L162.711 84.1348L166.691 82.8913" fill="#29332B"/>
<path d="M109.491 152.529L129.635 151.603L128.64 146.062L121.428 146.56L109.491 152.529Z" fill="#29332B"/>
<path opacity="0.24" d="M121.676 107.015C118.777 103.068 117.133 99.8997 115.867 96.985C115.504 96.1469 115.146 95.3063 114.793 94.4632C114.616 94.0405 114.442 93.6202 114.27 93.1974C114.221 93.0755 114.019 92.7622 114.099 92.6303C114.183 92.4861 114.345 92.5383 114.429 92.6577C115.956 94.8313 116.382 95.4506 117.449 96.5722C118.727 97.9176 120.184 99.0591 120.184 99.0591C120.682 101.792 121.179 104.279 121.676 107.015Z" fill="#1A1A1A"/>
<path opacity="0.24" d="M121.746 64.9584L117.2 61.2578L122.91 73.4489L126.153 72.2004L121.746 64.9584Z" fill="#1A1A1A"/>
<path opacity="0.24" d="M101.284 34.1484C101.284 34.1484 102.184 37.1253 107.951 39.4904C107.951 39.4904 106.832 37.9286 106.67 34.795C106.67 34.7975 104.019 36.138 101.284 34.1484Z" fill="#1A1A1A"/>
<path d="M103.069 17.6277C103.069 17.6277 105.541 15.0214 107.528 18.1923C107.528 18.1923 109.06 17.3318 110.134 18.8638C110.134 18.8638 112.902 18.0306 113.574 22.1689C113.574 22.1689 114.996 21.9003 115.185 23.5915C115.374 25.2826 114.514 26.4117 114.514 26.4117C114.514 26.4117 115.315 27.011 114.952 28.5679C114.643 29.8909 113.549 30.0924 113.549 30.0924C113.549 30.0924 113.253 32.3232 112.286 32.9947C111.318 33.6661 110.003 33.3428 110.003 33.3428C110.003 33.3428 109.654 34.5515 108.525 34.4446C107.396 34.3376 106.001 33.2632 104.738 33.7457C103.474 34.2282 100.199 33.7184 100.199 33.7184C100.199 33.7184 96.5183 32.0795 97.62 28.3192C97.62 28.3192 95.6852 26.5733 97.3788 24.4768C97.3788 24.4768 96.1428 21.199 98.5875 19.2666C101.027 17.3318 103.069 17.6277 103.069 17.6277Z" fill="#07345A"/>
<path d="M105.387 21.2551C102.771 20.3548 99.707 22.3021 99.0455 24.9482C98.5481 26.9378 98.5779 27.3158 98.5481 28.9273C98.4784 32.8045 101.159 36.6966 102.918 36.6966C104.678 36.6966 109.543 34.1872 109.72 28.6836C109.829 25.2864 108.133 22.2001 105.387 21.2551Z" fill="url(#paint5_linear)"/>
<path d="M108.424 29.1197C108.424 29.9752 108.991 30.6691 109.689 30.6691C110.388 30.6691 110.955 29.9752 110.955 29.1197C110.955 28.2642 110.388 27.5703 109.689 27.5703C108.991 27.5703 108.424 28.2642 108.424 29.1197Z" fill="url(#paint6_linear)"/>
<path d="M97.7592 19.3255C95.9413 20.7654 95.3046 22.9539 96.3367 24.2148C97.3688 25.4732 99.6792 25.3265 101.497 23.8865C103.315 22.4466 103.952 20.2581 102.92 18.9972C101.89 17.7388 99.5772 17.8855 97.7592 19.3255Z" fill="#07345A"/>
<path d="M109.122 19.9881C107.682 18.1701 105.494 17.5334 104.233 18.5655C102.975 19.5976 103.325 21.3907 104.765 23.2087C106.205 25.0266 110.968 27.9712 112.226 26.9391C113.484 25.9045 110.562 21.806 109.122 19.9881Z" fill="#07345A"/>
<path opacity="0.53" d="M109.739 26.6875C109.739 26.6875 110.485 27.4336 111.977 27.1849C111.977 27.1849 114.713 27.6823 113.469 30.1692C113.469 30.1692 113.221 34.1484 109.987 33.1536C109.987 33.1536 109.739 34.6458 108.495 34.3971L107.498 34.1733C107.886 33.738 108.334 33.1536 108.744 32.4075C109.097 31.7659 109.331 31.169 109.49 30.6666C109.617 30.7064 109.91 30.7785 110.236 30.6666C110.704 30.5075 110.903 30.0872 110.982 29.9205C111.288 29.2715 111.057 28.6348 110.982 28.4284C110.903 28.207 110.793 27.9086 110.485 27.6823C110.194 27.4684 109.883 27.4386 109.739 27.4336V26.6875Z" fill="#082233"/>
<path d="M80.89 15.4965L81.9121 14.8151C82.2056 14.6186 82.3822 14.2903 82.3822 13.9372V12.0571C82.3822 11.7139 81.9494 11.5622 81.7355 11.8307L81.4247 12.2187C81.3998 12.2486 81.3824 12.2834 81.3675 12.3182L81.1387 13.7557C81.1039 13.8502 80.6661 14.3053 80.7134 14.3948L80.89 14.7504V15.4965Z" fill="#EFB44B"/>
<ellipse cx="93" cy="153" rx="70" ry="1" fill="#29332B" fill-opacity="0.3"/>
<path d="M252.993 78.1921C252.993 78.1921 253.287 78.4071 253.829 78.7695" stroke="#666666" stroke-miterlimit="10"/>
<path d="M255.454 80.5862C262.088 84.6583 280.88 94.3246 291.53 80.7412C308.002 59.7275 285.379 35.4783 271.404 55.14C266.261 62.3755 265.379 77.7739 277.062 86.0886C297.816 100.86 320.176 94.9892 331.365 85.7858C338.823 79.6498 341.996 72.5756 342.892 65.835C344.94 50.4042 335.264 36.9564 323.135 37.8377C306.233 39.0646 301.122 59.6452 304.169 71.2824C310.375 94.9931 332.832 97.1552 348.968 94.3765" stroke="#666666" stroke-miterlimit="10" stroke-dasharray="12.05 12.05"/>
<path d="M350.23 94.3917C350.55 94.3315 350.867 94.2707 351.181 94.2072" stroke="#666666" stroke-miterlimit="10"/>
<path d="M379.157 94.0262L378.287 99.9783L359.314 105.092L374.55 93.1545L379.157 94.0262Z" fill="#5BAEB4"/>
<path d="M358.991 105.088L378.813 94.0331L375.347 89.5411L358.991 105.088Z" fill="#8FE4F6"/>
<path d="M379.698 104.831L378.827 107.344L359.314 105.075L379.698 104.831Z" fill="#5BAEB4"/>
<path d="M358.991 105.127L381.16 98.0601L385.246 105.013L358.991 105.127Z" fill="#8FE4F6"/>
<defs>
<linearGradient id="paint0_linear" x1="80.6096" y1="15.6427" x2="80.0475" y2="1.9104" gradientUnits="userSpaceOnUse">
<stop stop-color="#FFC444"/>
<stop offset="0.9964" stop-color="#F36F56"/>
</linearGradient>
<linearGradient id="paint1_linear" x1="151.53" y1="69.3049" x2="206.076" y2="47.3866" gradientUnits="userSpaceOnUse">
<stop stop-color="#FFC444"/>
<stop offset="0.9964" stop-color="#F36F56"/>
</linearGradient>
<linearGradient id="paint2_linear" x1="78.6764" y1="23.2514" x2="76.2721" y2="-35.4828" gradientUnits="userSpaceOnUse">
<stop stop-color="#FFC444"/>
<stop offset="0.9964" stop-color="#F36F56"/>
</linearGradient>
<linearGradient id="paint3_linear" x1="103.178" y1="63.1454" x2="104.787" y2="28.3798" gradientUnits="userSpaceOnUse">
<stop stop-color="#FFC444"/>
<stop offset="0.9964" stop-color="#F36F56"/>
</linearGradient>
<linearGradient id="paint4_linear" x1="79.5459" y1="5.56748" x2="83.6574" y2="12.1735" gradientUnits="userSpaceOnUse">
<stop stop-color="#444B8C"/>
<stop offset="0.9964" stop-color="#26264F"/>
</linearGradient>
<linearGradient id="paint5_linear" x1="104.136" y1="36.6964" x2="104.136" y2="22.2561" gradientUnits="userSpaceOnUse">
<stop stop-color="#FFCD69"/>
<stop offset="0.4337" stop-color="#FEAC6A"/>
<stop offset="1" stop-color="#FC7C6B"/>
</linearGradient>
<linearGradient id="paint6_linear" x1="108.423" y1="29.1197" x2="110.955" y2="29.1197" gradientUnits="userSpaceOnUse">
<stop stop-color="#F49C53"/>
<stop offset="1" stop-color="#FC7C6B"/>
</linearGradient>
</defs>
</svg>
