<svg width="30" height="57" viewBox="0 0 30 57" fill="none" xmlns="http://www.w3.org/2000/svg">
<line x1="15.5" y1="0.0207519" x2="15.5" y2="13.5208" stroke="#E0E0E0"/>
<circle cx="15" cy="28.0208" r="14" fill="#F7F7F7" stroke="#E0E0E0"/>
<path d="M14.6465 34.1991L15.2324 33.6425C15.3789 33.496 15.3789 33.2616 15.2324 33.1444L10.6914 28.5741H20.7109C20.8867 28.5741 21.0625 28.4276 21.0625 28.2225V27.4022C21.0625 27.2264 20.8867 27.0507 20.7109 27.0507H10.6914L15.2324 22.5096C15.3789 22.3925 15.3789 22.1581 15.2324 22.0116L14.6465 21.455C14.5293 21.3085 14.2949 21.3085 14.1484 21.455L8.02539 27.578C7.87891 27.7245 7.87891 27.9296 8.02539 28.076L14.1484 34.1991C14.2949 34.3456 14.5293 34.3456 14.6465 34.1991Z" fill="#9F9F9F"/>
<line x1="15.5" y1="42.5208" x2="15.5" y2="56.0208" stroke="#E0E0E0"/>
</svg>
