<svg width="489" height="209" viewBox="0 0 489 209" fill="none" xmlns="http://www.w3.org/2000/svg">
<rect x="34" width="386" height="202" fill="white"/>
<path fill-rule="evenodd" clip-rule="evenodd" d="M64.4767 43.0012C64.4767 43.0012 64.4766 43.0013 64.4766 43.0013H53.2937L53.2937 43.0013L47.2744 43.0013H34.3415C34.128 42.3187 34 41.6361 34 40.8683C34 37.1142 37.0305 34.0853 40.7866 34.0853C42.7927 34.0853 44.628 34.9812 45.8658 36.3463L45.8664 36.347L45.8674 36.3463C46.8064 35.6637 47.9161 35.2798 49.1539 35.2798C49.8795 35.2798 50.6052 35.4078 51.2454 35.6637L51.2842 35.6797L51.2876 35.6638C52.1413 32.2509 55.2144 29.734 58.8851 29.734C62.0863 29.734 64.8607 31.6537 66.0559 34.4266C66.0559 34.4266 66.0559 34.4267 66.0559 34.4267C69.1285 34.939 71.5183 37.6264 71.5183 40.8682C71.5183 41.5934 71.3902 42.3186 71.1768 43.0012H64.4767Z" fill="#D0EFEF"/>
<path d="M168.187 97.1341C168.187 97.8594 168.315 98.5846 168.528 99.2671H181.461C181.674 98.5846 181.802 97.902 181.802 97.1341C181.802 93.3801 178.772 90.3512 175.016 90.3512C173.01 90.3512 171.174 91.2471 169.937 92.6122C168.827 93.8067 168.187 95.4277 168.187 97.1341Z" fill="#D0EFEF"/>
<path d="M161.018 97.1342C161.018 97.9021 161.146 98.5847 161.444 99.2672H171.816C172.072 98.6273 172.243 97.9021 172.243 97.1342C172.243 95.2999 171.347 93.6361 169.938 92.6123C168.999 91.9297 167.889 91.5458 166.652 91.5458C165.926 91.5458 165.2 91.6738 164.56 91.9297C162.469 92.7829 161.018 94.7879 161.018 97.1342Z" fill="#D0EFEF"/>
<path d="M149.108 93.8068C149.108 95.9398 149.962 97.8595 151.328 99.2673H162.511C163.877 97.8595 164.73 95.9398 164.73 93.8068C164.73 93.1669 164.645 92.527 164.517 91.9297C163.663 88.5169 160.59 86 156.919 86C153.718 86 150.944 87.9197 149.749 90.6926C149.364 91.6311 149.108 92.6976 149.108 93.8068Z" fill="#D0EFEF"/>
<path d="M144.285 97.1342C144.285 97.8594 144.413 98.5846 144.627 99.2672H156.962C157.175 98.5846 157.303 97.902 157.303 97.1342C157.303 93.5507 154.401 90.6072 150.773 90.6072C150.432 90.6072 150.09 90.6498 149.749 90.6925C146.675 91.2044 144.285 93.892 144.285 97.1342Z" fill="#D0EFEF"/>
<path d="M409.92 44.054C409.92 44.9498 410.091 45.7604 410.389 46.5282H422.511C422.81 45.7604 422.981 44.9072 422.981 44.054C422.981 41.8783 421.914 39.9586 420.292 38.7641C419.225 37.9536 417.859 37.527 416.45 37.527C415.597 37.527 414.786 37.6976 414.017 37.9962C411.585 38.9348 409.92 41.2811 409.92 44.054Z" fill="#D0EFEF"/>
<path d="M396.006 40.1292C396.006 42.6035 396.988 44.8645 398.609 46.4856H411.713C413.335 44.8219 414.317 42.6035 414.317 40.1292C414.317 39.3614 414.231 38.6361 414.061 37.9536C413.079 33.9435 409.494 31 405.183 31C401.427 31 398.225 33.261 396.817 36.5031C396.262 37.6123 396.006 38.8494 396.006 40.1292Z" fill="#D0EFEF"/>
<path d="M390.285 44.054C390.285 44.9072 390.413 45.7604 390.712 46.5283H405.181C405.438 45.7604 405.608 44.9072 405.608 44.054C405.608 39.8306 402.194 36.4178 397.968 36.4178C397.541 36.4178 397.157 36.4605 396.773 36.5032C393.102 37.0577 390.285 40.2146 390.285 44.054Z" fill="#D0EFEF"/>
<path d="M279.653 163.724C279.603 162.018 274.991 154.126 262.058 158.776C260.404 152.633 250.98 148.921 244.162 151.737C242.859 148.281 236.493 141.285 228.121 140.261C217.043 138.896 207.419 142.991 200.1 149.988C194.185 145.423 183.859 145.636 178.194 150.372C172.229 145.722 163.507 143.589 155.386 144.783C147.315 146.02 140.047 150.542 136.438 156.643C131.124 152.547 121.299 153.742 117.64 158.904C113.228 154.424 103.704 154.424 99.2929 158.904C98.6413 155.192 95.6838 151.779 91.5733 150.116C87.4628 148.495 82.3498 148.665 78.4398 150.542C74.7805 147.641 69.3667 146.362 64.404 147.257C59.4414 148.153 55.1805 151.182 53.3258 155.064C50.2179 151.993 44.6537 150.756 40.092 152.121C28.9135 155.491 32.5729 169.057 32.5729 176.736H279.603C279.903 176.736 279.703 164.876 279.653 163.724Z" fill="#DAF5F5"/>
<path d="M420.262 176.711H33.876V203.711H420.262V176.711Z" fill="#DAF5F5"/>
<path fill-rule="evenodd" clip-rule="evenodd" d="M420.42 147.339V176.736H279.07C279.07 175.31 278.943 173.681 278.809 171.952C278.218 164.37 277.478 154.865 286.628 152.121C291.214 150.756 296.807 151.993 299.931 155.064C301.795 151.182 306.078 148.153 311.067 147.258C316.055 146.362 321.497 147.641 325.176 150.542C329.106 148.665 334.246 148.495 338.378 150.116C342.51 151.779 345.483 155.192 346.138 158.904C350.572 154.424 360.146 154.424 364.58 158.904C368.258 153.742 378.134 152.547 383.476 156.643C387.104 150.542 394.41 146.02 402.523 144.783C408.62 143.891 415.055 144.855 420.42 147.339Z" fill="#DAF5F5"/>
<path d="M183.755 100.166H131.041L129.932 89.2021H184.864L183.755 100.166Z" fill="#C5EBEB"/>
<path d="M178.285 100H136.285V197H178.285V100Z" fill="#C5EBEB"/>
<path d="M178.078 100.166H136.676V103.707H178.078V100.166Z" fill="#C1E6E6"/>
<path d="M187.511 50.8934H127.285V61.8571H187.511V50.8934Z" fill="#C5EBEB"/>
<path d="M176.03 46.4994H138.768V51.0641H176.03V46.4994Z" fill="#C5EBEB"/>
<path d="M176.03 48.8031H138.768V51.1067H176.03V48.8031Z" fill="#C1E6E6"/>
<path d="M158.521 46.6786V4.8717H156.259V46.6786H158.521Z" fill="#C5EBEB"/>
<path d="M178.08 50.8916V32.3772H175.818V50.8916H178.08Z" fill="#C1E6E4"/>
<path d="M176.969 32.8057C178.384 32.8057 179.53 31.526 179.53 29.9475C179.53 28.3689 178.384 27.0892 176.969 27.0892C175.555 27.0892 174.408 28.3689 174.408 29.9475C174.408 31.526 175.555 32.8057 176.969 32.8057Z" fill="#C1E6E4"/>
<path d="M184.608 61.8572V62.0278L184.138 65.5686L180.937 89.2023H133.815L130.657 65.5686L130.187 62.0278L130.145 61.8572H184.608Z" fill="#D3F2F2"/>
<path d="M166.768 61.8572V62.0278L166.597 65.6539L165.487 89.9701H149.268L148.158 65.6539L148.03 62.0278L147.987 61.8572H166.768Z" stroke="#C5EBEB" stroke-width="2.7844" stroke-miterlimit="10"/>
<path d="M130.188 61.6438H184.608L184.139 65.1419H130.657L130.188 61.6438Z" fill="#C1E6E6"/>
<path d="M289.973 45.3904L287.711 44.7079L267.906 48.0354L277.766 51.0216L289.973 45.3904Z" fill="#BFE3E2"/>
<path d="M350.198 44.4092L332.826 58.7857C324.631 62.0278 305.936 56.3967 303.375 55.6288C298.21 54.0931 237.985 35.9199 231.582 34.0002C228.765 33.147 217.369 35.4933 212.631 36.4318C211.265 36.6878 210.838 38.4368 211.82 39.4607C223.643 52.1734 308.027 73.3754 308.027 73.3754C330.009 79.2198 341.789 69.3654 343.198 66.4218L355.064 45.9023L350.198 44.4092Z" fill="#CBECEC"/>
<path d="M228.679 38.3086C229.277 38.4792 229.917 38.138 230.088 37.4981C230.259 36.8582 229.917 36.1756 229.277 36.005L223.856 34.3839C222.106 34.6399 220.271 34.9812 218.563 35.2798L228.679 38.3086Z" fill="#B9DCDB"/>
<path d="M283.613 54.5623C283.784 53.9224 284.424 53.5385 285.022 53.7091C285.619 53.8798 285.961 54.5623 285.79 55.2022C285.619 55.8421 284.979 56.2261 284.382 56.0554C283.784 55.8848 283.443 55.2022 283.613 54.5623Z" fill="#B9DCDB"/>
<path d="M305.595 61.2172C305.765 60.5773 306.406 60.1934 307.003 60.364C307.601 60.5347 307.942 61.2172 307.771 61.8571C307.601 62.4971 306.961 62.881 306.363 62.7104C305.765 62.5397 305.424 61.8571 305.595 61.2172Z" fill="#B9DCDB"/>
<path d="M276.273 52.3439C276.444 51.704 277.084 51.3201 277.682 51.4907C278.28 51.6614 278.621 52.3439 278.45 52.9838C278.28 53.6237 277.639 54.0077 277.042 53.837C276.444 53.6664 276.103 53.0265 276.273 52.3439Z" fill="#B9DCDB"/>
<path d="M290.955 56.7807C291.126 56.1408 291.766 55.7569 292.364 55.9275C292.961 56.0981 293.303 56.7807 293.132 57.4206C292.961 58.0605 292.321 58.4444 291.723 58.2738C291.126 58.1032 290.742 57.4206 290.955 56.7807Z" fill="#B9DCDB"/>
<path d="M298.255 58.9988C298.426 58.3589 299.066 57.975 299.663 58.1456C300.261 58.3163 300.602 58.9988 300.432 59.6387C300.261 60.2786 299.621 60.6626 299.023 60.4919C298.468 60.3213 298.084 59.6387 298.255 58.9988Z" fill="#B9DCDB"/>
<path d="M268.93 50.1683C269.1 49.5284 269.741 49.1444 270.338 49.3151C270.936 49.4857 271.277 50.1683 271.107 50.8082C270.936 51.4481 270.296 51.832 269.698 51.6614C269.1 51.4907 268.759 50.8082 268.93 50.1683Z" fill="#B9DCDB"/>
<path d="M261.59 47.95C261.761 47.3101 262.401 46.9262 262.998 47.0968C263.596 47.2675 263.937 47.95 263.767 48.5899C263.596 49.2298 262.956 49.6138 262.358 49.4431C261.761 49.2725 261.419 48.5899 261.59 47.95Z" fill="#B9DCDB"/>
<path d="M254.247 45.7318C254.418 45.0919 255.058 44.7079 255.656 44.8786C256.253 45.0492 256.595 45.7318 256.424 46.3717C256.253 47.0116 255.613 47.3955 255.015 47.2249C254.418 47.0542 254.076 46.3717 254.247 45.7318Z" fill="#B9DCDB"/>
<path d="M246.907 43.5134C247.078 42.8735 247.718 42.4895 248.316 42.6602C248.913 42.8308 249.255 43.5134 249.084 44.1533C248.913 44.7932 248.273 45.1771 247.675 45.0065C247.121 44.8358 246.736 44.1533 246.907 43.5134Z" fill="#B9DCDB"/>
<path d="M239.607 41.2951C239.778 40.6552 240.418 40.2713 241.016 40.4419C241.614 40.6125 241.955 41.2951 241.784 41.935C241.614 42.5749 240.973 42.9588 240.376 42.7882C239.778 42.6176 239.437 41.9777 239.607 41.2951Z" fill="#B9DCDB"/>
<path d="M348.576 76.0202L344.18 74.6977L332.101 63.6914L342.515 66.8056L348.576 76.0202Z" fill="#BFE3E2"/>
<path d="M274.009 73.1194L261.973 69.4933L264.448 60.2361L276.485 63.8622C278.918 64.5874 280.326 67.275 279.643 69.7919C278.96 72.3515 276.442 73.8446 274.009 73.1194Z" fill="#CBECEC"/>
<path d="M264.917 70.3466L261.246 69.2374L263.679 60.0228L267.35 61.132L264.917 70.3466Z" fill="#BFE3E2"/>
<path d="M297.612 84.3816L292.661 82.8885L259.582 52.6852L281.051 59.1695L297.612 84.3816Z" fill="#BFE3E2"/>
<path fill-rule="evenodd" clip-rule="evenodd" d="M148.053 195.228H198.29V101.618H148.053V195.228ZM148.053 97.3252H198.29V4.54021H148.053V97.3252ZM203.241 195.228H253.479V101.618H203.241V195.228ZM203.241 97.3252H253.479V4.54021H203.241V97.3252ZM258.729 195.228H308.967V101.618H258.729V195.228ZM258.729 97.3252H308.967V4.54021H258.729V97.3252ZM313.491 195.228H363.729V101.618H313.491V195.228ZM313.491 97.3252H363.729V4.54021H313.491V97.3252ZM368.68 195.228H418.917V101.618H368.68V195.228ZM368.68 97.3252H418.917V4.54021H368.68V97.3252ZM92.5649 195.228H142.803V101.618H92.5649V195.228ZM92.5649 97.3252H142.803V4.54021H92.5649V97.3252ZM423.382 0H88V202H423.382V0Z" fill="#ECFCFC"/>
<path d="M434.979 154.984C431.949 151.059 431.01 143.508 433.144 139.029C434.339 140.735 435.875 142.186 437.668 143.21C436.686 140.821 435.918 138.304 435.491 135.744C436.772 134.763 438.095 133.739 439.375 132.758C439.888 133.867 440.272 136.171 441.296 137.323C440.272 135.616 440.613 131.777 441.851 130.668C443.302 129.345 445.138 128.449 447.016 127.852C449.406 127.084 451.839 126.444 454.314 126.103C455.979 125.89 457.814 125.89 459.052 126.956C460.845 128.492 460.418 131.521 458.924 133.312C457.388 135.104 455.125 136.043 453.034 137.109C445.394 140.949 438.949 147.305 434.979 154.984Z" fill="#AEDCDB"/>
<path d="M422.175 136.683C425.206 132.758 426.145 125.207 424.01 120.728C422.815 122.434 421.279 123.885 419.486 124.909C420.468 122.52 421.236 120.003 421.663 117.443C420.382 116.462 419.059 115.438 417.779 114.457C417.267 115.566 416.882 117.87 415.858 119.021C416.882 117.315 416.541 113.476 415.303 112.367C413.852 111.044 412.017 110.148 410.138 109.551C407.748 108.783 405.315 108.143 402.84 107.802C401.175 107.589 399.34 107.589 398.102 108.655C396.309 110.191 396.736 113.22 398.23 115.011C399.767 116.803 402.029 117.742 404.12 118.808C411.803 122.648 418.248 129.047 422.175 136.683Z" fill="#C6ECEC"/>
<path d="M430.413 128.663C432.078 126.444 434.596 125.079 436.687 123.245C438.779 121.41 440.529 118.68 439.846 115.993C438.608 116.376 437.37 116.76 436.09 117.144C440.145 115.011 442.151 109.636 440.443 105.37C440.017 105.455 439.59 105.541 439.163 105.583C440.742 104.73 441.681 103.024 441.98 101.275C442.279 99.5257 442.023 97.734 441.639 95.985C440.998 93.0841 440.059 90.2258 438.822 87.4956C437.712 88.2635 436.303 88.3488 435.023 88.6048C433.742 88.9034 432.334 89.5859 431.992 90.8657C431.437 92.9134 433.828 94.7478 433.529 96.8382C432.419 95.3877 430.925 94.2359 429.218 93.596C429.133 95.1744 427.297 96.3262 427.468 97.862C427.553 98.3739 427.852 98.8432 428.151 99.3124C429.858 101.787 431.608 104.304 433.315 106.778C430.157 105.583 427.084 104.09 424.139 102.384C424.779 111.599 426.273 120.514 430.413 128.663Z" fill="#C6ECEC"/>
<path d="M455.083 132.203C455.083 132.203 455.041 132.246 454.955 132.289C454.87 132.331 454.742 132.417 454.571 132.502C454.23 132.715 453.717 132.971 453.077 133.355C451.797 134.123 450.004 135.36 447.955 137.024C447.443 137.451 446.931 137.92 446.376 138.389C445.864 138.901 445.309 139.413 444.754 139.967C443.644 141.077 442.535 142.314 441.425 143.679C440.87 144.361 440.358 145.129 439.845 145.855C439.589 146.239 439.291 146.622 439.035 147.006C438.778 147.39 438.522 147.817 438.309 148.201C437.797 149.011 437.37 149.907 436.9 150.761C436.644 151.187 436.474 151.656 436.26 152.126C436.047 152.595 435.833 153.021 435.663 153.491C434.126 157.245 433.144 161.042 432.589 164.497C432.035 167.952 431.864 171.152 431.864 173.797C431.821 175.119 431.906 176.314 431.949 177.38C432.035 178.447 432.077 179.343 432.163 180.068C432.248 180.793 432.291 181.39 432.333 181.774C432.333 181.945 432.376 182.116 432.376 182.201C432.376 182.286 432.376 182.372 432.376 182.372C432.376 182.372 432.376 182.329 432.333 182.201C432.333 182.073 432.291 181.945 432.248 181.774C432.205 181.39 432.12 180.793 432.035 180.068C431.949 179.343 431.864 178.404 431.778 177.338C431.736 176.271 431.65 175.077 431.65 173.754C431.65 171.067 431.778 167.91 432.333 164.412C432.888 160.914 433.827 157.117 435.406 153.363C435.577 152.893 435.833 152.424 436.047 151.955C436.26 151.486 436.431 151.016 436.687 150.59C437.156 149.737 437.583 148.841 438.095 148.03C438.352 147.604 438.608 147.22 438.821 146.793C439.077 146.409 439.376 146.025 439.632 145.641C440.144 144.873 440.656 144.148 441.211 143.466C442.321 142.1 443.431 140.863 444.583 139.754C445.138 139.2 445.693 138.688 446.248 138.176C446.803 137.707 447.315 137.237 447.827 136.811C449.919 135.104 451.711 133.952 452.992 133.185C453.632 132.801 454.144 132.545 454.486 132.331C454.656 132.246 454.784 132.161 454.87 132.118C455.041 132.246 455.083 132.203 455.083 132.203Z" fill="#AEDCDB"/>
<path d="M427.381 181.348C427.381 181.348 427.381 181.305 427.381 181.177C427.381 181.049 427.381 180.878 427.338 180.622C427.338 180.153 427.296 179.428 427.253 178.532C427.21 177.636 427.21 176.527 427.168 175.247C427.168 173.967 427.125 172.474 427.125 170.853C427.125 167.611 427.168 163.729 427.296 159.463C427.466 155.197 427.68 150.462 428.064 145.556C428.448 140.607 428.918 135.915 429.387 131.649C429.899 127.383 430.412 123.586 430.924 120.344C431.137 118.723 431.393 117.315 431.607 116.035C431.82 114.755 431.991 113.689 432.162 112.793C432.332 111.897 432.46 111.214 432.546 110.745C432.588 110.532 432.631 110.361 432.631 110.233C432.674 110.105 432.674 110.063 432.674 110.063C432.674 110.063 432.674 110.105 432.674 110.233C432.674 110.361 432.631 110.532 432.588 110.788C432.503 111.257 432.418 111.982 432.247 112.836C432.076 113.731 431.905 114.841 431.735 116.078C431.521 117.357 431.308 118.808 431.094 120.386C430.625 123.586 430.113 127.425 429.601 131.691C429.131 135.957 428.662 140.65 428.277 145.556C427.893 150.504 427.68 155.197 427.509 159.463C427.381 163.729 427.296 167.611 427.296 170.853C427.296 172.474 427.296 173.925 427.296 175.247C427.296 176.527 427.296 177.636 427.338 178.532C427.338 179.428 427.338 180.11 427.381 180.622C427.381 180.836 427.381 181.049 427.381 181.177C427.381 181.262 427.381 181.348 427.381 181.348Z" fill="#AEDCDB"/>
<path d="M413.895 122.52C413.895 122.52 413.98 122.605 414.151 122.818C414.321 123.031 414.535 123.33 414.791 123.714C415.09 124.098 415.388 124.567 415.773 125.122C416.157 125.676 416.584 126.316 417.01 127.041C417.437 127.767 417.949 128.535 418.419 129.388C418.931 130.241 419.401 131.18 419.955 132.161C420.98 134.123 422.004 136.341 422.986 138.73C423.925 141.119 424.693 143.466 425.333 145.599C425.632 146.665 425.931 147.689 426.144 148.67C426.401 149.609 426.571 150.547 426.742 151.358C426.913 152.168 427.041 152.936 427.169 153.576C427.297 154.216 427.382 154.813 427.425 155.282C427.468 155.752 427.51 156.093 427.553 156.349C427.596 156.605 427.596 156.733 427.596 156.733C427.596 156.733 427.553 156.605 427.51 156.349C427.468 156.093 427.382 155.709 427.34 155.282C427.254 154.813 427.169 154.259 427.041 153.619C426.913 152.979 426.785 152.211 426.571 151.4C426.401 150.59 426.187 149.694 425.931 148.713C425.718 147.732 425.419 146.75 425.12 145.684C424.48 143.551 423.712 141.247 422.773 138.858C421.834 136.469 420.809 134.251 419.785 132.289C419.273 131.307 418.803 130.369 418.291 129.516C417.821 128.663 417.352 127.852 416.925 127.127C416.498 126.402 416.071 125.762 415.73 125.207C415.388 124.653 415.047 124.183 414.791 123.757C414.535 123.373 414.321 123.074 414.193 122.861C413.98 122.648 413.895 122.52 413.895 122.52Z" fill="#AEDCDB"/>
<g opacity="0.2">
<path d="M434.979 154.984C431.949 151.059 431.01 143.508 433.144 139.029C434.339 140.735 435.875 142.186 437.668 143.21C436.686 140.821 435.918 138.304 435.491 135.744C436.772 134.763 438.095 133.739 439.375 132.758C439.888 133.867 440.272 136.171 441.296 137.323C440.272 135.616 440.613 131.777 441.851 130.668C443.302 129.345 445.138 128.449 447.016 127.852C449.406 127.084 451.839 126.444 454.314 126.103C455.979 125.89 457.814 125.89 459.052 126.956C460.845 128.492 460.418 131.521 458.924 133.312C457.388 135.104 455.125 136.043 453.034 137.109C445.394 140.949 438.949 147.305 434.979 154.984Z" fill="#D9FAF9"/>
</g>
<path d="M413.937 148.755C412.058 149.054 410.437 150.121 408.644 150.761C406.851 151.4 404.674 151.571 403.266 150.291C403.906 149.651 404.546 149.054 405.187 148.414C402.583 150.163 398.741 149.609 396.735 147.22C396.906 147.006 397.12 146.75 397.29 146.537C396.266 147.177 394.943 147.22 393.79 146.836C392.638 146.452 391.656 145.727 390.717 144.916C389.181 143.594 387.772 142.101 386.534 140.479C387.345 140.053 387.857 139.242 388.455 138.56C389.052 137.877 391.272 137.237 391.272 137.237L393.918 140.309C393.406 139.2 393.193 137.92 393.363 136.683C394.302 137.152 395.626 136.384 396.479 137.024C396.778 137.237 397.973 137.408 398.187 137.707C399.723 139.669 400.235 141.119 400.235 141.119C400.534 138.816 400.363 138.816 400.278 136.512C405.528 139.882 410.351 143.636 413.937 148.755Z" fill="#AEDCDB"/>
<g opacity="0.3">
<path opacity="0.3" d="M413.937 148.755C412.058 149.054 410.437 150.121 408.644 150.761C406.851 151.4 404.674 151.571 403.266 150.291C403.906 149.651 404.546 149.054 405.187 148.414C402.583 150.163 398.741 149.609 396.735 147.22C396.906 147.006 397.12 146.75 397.29 146.537C396.266 147.177 394.943 147.22 393.79 146.836C392.638 146.452 391.656 145.727 390.717 144.916C389.181 143.594 387.772 142.101 386.534 140.479C387.345 140.053 387.857 139.242 388.455 138.56C389.052 137.877 391.272 137.237 391.272 137.237L393.918 140.309C393.406 139.2 393.193 137.92 393.363 136.683C394.302 137.152 395.626 136.384 396.479 137.024C396.778 137.237 397.973 137.408 398.187 137.707C399.723 139.669 400.235 141.119 400.235 141.119C400.534 138.816 400.363 138.816 400.278 136.512C405.528 139.882 410.351 143.636 413.937 148.755Z" fill="#D9FAF9"/>
</g>
<path d="M401.046 144.233C401.046 144.233 401.686 143.978 402.924 143.892C404.162 143.807 405.997 143.935 408.089 144.745C410.18 145.556 412.4 147.092 414.448 149.182C416.497 151.315 418.418 153.917 420.21 156.776C422.046 159.634 423.454 162.535 424.521 165.265C425.588 167.995 426.229 170.555 426.613 172.773C426.997 174.949 427.082 176.74 427.125 177.978C427.125 178.618 427.125 179.087 427.082 179.385C427.082 179.556 427.082 179.641 427.082 179.769C427.082 179.855 427.082 179.897 427.082 179.897C427.082 179.897 427.082 179.855 427.082 179.769C427.082 179.684 427.082 179.556 427.082 179.385C427.082 179.044 427.082 178.575 427.04 177.978C426.954 176.74 426.869 174.949 426.442 172.773C426.058 170.597 425.375 168.038 424.308 165.35C423.241 162.62 421.832 159.762 420.04 156.904C418.247 154.045 416.326 151.486 414.32 149.353C412.314 147.22 410.137 145.727 408.089 144.916C406.04 144.106 404.247 143.935 403.009 143.978C402.412 144.02 401.9 144.063 401.601 144.148C401.473 144.191 401.345 144.191 401.217 144.233C401.089 144.233 401.046 144.233 401.046 144.233Z" fill="#AEDCDB"/>
<path d="M413.254 189.368C413.254 199.265 421.278 207.285 431.181 207.285C441.083 207.285 449.107 199.265 449.107 189.368C449.107 184.889 447.443 180.793 444.711 177.636H417.65C414.919 180.793 413.254 184.889 413.254 189.368Z" fill="#B3E0DF"/>
<path d="M435.704 202.849H440.228C443.985 199.564 446.332 194.743 446.332 189.368C446.332 186.254 445.564 183.353 444.155 180.836H439.546C440.783 183.353 441.509 186.211 441.509 189.197C441.552 194.573 439.289 199.393 435.704 202.849Z" fill="#CFF3F4"/>
<path d="M420.04 206.645H442.32C443.601 206.645 444.625 207.669 444.625 208.949H417.692C417.735 207.669 418.759 206.645 420.04 206.645Z" fill="#B3E0DF"/>
<rect x="87" width="5" height="199" fill="#ECFCFC"/>
<rect x="180" width="4.54491" height="144" transform="rotate(90 180 0)" fill="#ECFCFC"/>
<rect x="180" y="195.275" width="6.72504" height="144" transform="rotate(90 180 195.275)" fill="#ECFCFC"/>
<rect x="103.201" y="97.3604" width="4.23017" height="67.2008" transform="rotate(90 103.201 97.3604)" fill="#ECFCFC"/>
<rect x="32" width="5" height="199" fill="#ECFCFC"/>
<path d="M26.1179 167.055H20.293V177.029H26.1179V167.055Z" fill="#A7D4D3"/>
<path d="M12.2712 182.946H8.16504V205.518H12.2712V182.946Z" fill="#A7D4D3"/>
<path d="M13.1307 205.47H7.30566V208.858H13.1307V205.47Z" fill="#A7D4D3"/>
<path d="M137.653 205.47H131.828V208.858H137.653V205.47Z" fill="#A7D4D3"/>
<path d="M138.704 207.188H130.826V208.906H138.704V207.188Z" fill="#A7D4D3"/>
<path d="M14.1799 207.188H6.30176V208.906H14.1799V207.188Z" fill="#A7D4D3"/>
<path d="M136.841 182.946H132.734V205.518H136.841V182.946Z" fill="#A7D4D3"/>
<path d="M58.9676 167.055H53.1426V177.029H58.9676V167.055Z" fill="#A7D4D3"/>
<path d="M91.8632 167.055H86.0381V177.029H91.8632V167.055Z" fill="#A7D4D3"/>
<path d="M124.713 167.055H118.888V177.029H124.713V167.055Z" fill="#A7D4D3"/>
<path d="M98.8822 170.443H78.9721C77.2055 170.443 75.8208 168.916 76.0118 167.15L77.9216 149.16C78.0649 147.633 79.3541 146.487 80.8819 146.487H96.9247C98.4525 146.487 99.7417 147.633 99.8849 149.16L101.795 167.15C102.033 168.916 100.649 170.443 98.8822 170.443Z" fill="#C4EEEF"/>
<path d="M66.0335 170.443H46.0755C44.3089 170.443 42.9243 168.916 43.1153 167.15L45.0251 149.16C45.1684 147.633 46.4575 146.487 47.9854 146.487H64.0281C65.556 146.487 66.8452 147.633 66.9884 149.16L68.8982 167.15C69.1847 168.916 67.8001 170.443 66.0335 170.443Z" fill="#C4EEEF"/>
<path d="M33.1351 170.443H13.2249C11.4583 170.443 10.0737 168.916 10.2647 167.15L12.1746 149.16C12.3178 147.633 13.6069 146.487 15.1348 146.487H31.1776C32.7054 146.487 33.9946 147.633 34.1378 149.16L36.0476 167.15C36.2864 168.916 34.9017 170.443 33.1351 170.443Z" fill="#C4EEEF"/>
<path d="M33.1352 170.443H13.225C11.4583 170.443 10.0737 168.916 10.2647 167.15V167.007C17.5221 167.532 24.4931 164.478 28.5037 158.847C30.7478 155.65 32.5145 151.164 32.419 146.726C33.3739 147.155 34.0901 148.062 34.1856 149.16L36.0954 167.15C36.2864 168.916 34.9018 170.443 33.1352 170.443Z" fill="#AEDCDB"/>
<path d="M65.9858 170.443H46.0755C44.3089 170.443 42.9243 168.916 43.1153 167.15V167.007C50.3727 167.532 57.3437 164.478 61.3544 158.847C63.5985 155.65 65.3651 151.164 65.2696 146.726C66.2245 147.155 66.9407 148.062 67.0362 149.16L68.9461 167.15C69.1848 168.916 67.8001 170.443 65.9858 170.443Z" fill="#AEDCDB"/>
<path d="M98.8822 170.443H78.9721C77.2055 170.443 75.8208 168.916 76.0118 167.15V167.007C83.2692 167.532 90.2402 164.478 94.2509 158.847C96.4949 155.65 98.2615 151.164 98.166 146.726C99.121 147.155 99.8372 148.062 99.9327 149.16L101.843 167.15C102.034 168.916 100.649 170.443 98.8822 170.443Z" fill="#AEDCDB"/>
<path d="M131.78 170.443H111.87C110.103 170.443 108.718 168.916 108.909 167.15L110.819 149.16C110.962 147.633 112.252 146.487 113.779 146.487H129.822C131.35 146.487 132.639 147.633 132.782 149.16L134.692 167.15C134.931 168.916 133.546 170.443 131.78 170.443Z" fill="#C4EEEF"/>
<path d="M131.78 170.443H111.87C110.103 170.443 108.718 168.916 108.909 167.15V167.007C116.167 167.532 123.138 164.478 127.148 158.847C129.392 155.65 131.159 151.164 131.063 146.726C132.018 147.155 132.735 148.062 132.83 149.16L134.74 167.15C134.931 168.916 133.546 170.443 131.78 170.443Z" fill="#AEDCDB"/>
<path d="M140.04 182.946H2.96024C1.33687 182.946 0 181.61 0 179.987C0 178.365 1.33687 177.029 2.96024 177.029H140.04C141.663 177.029 143 178.365 143 179.987C143 181.61 141.711 182.946 140.04 182.946Z" fill="#CCEDEC"/>
</svg>
