<svg width="14" height="15" viewBox="0 0 14 15" fill="none" xmlns="http://www.w3.org/2000/svg">
<path d="M8.41797 7.75L12.8438 3.36719L13.7461 2.46484C13.875 2.33594 13.875 2.12109 13.7461 1.94922L12.8008 1.00391C12.6289 0.875 12.4141 0.875 12.2852 1.00391L7 6.33203L1.67188 1.00391C1.54297 0.875 1.32812 0.875 1.15625 1.00391L0.210938 1.94922C0.0820312 2.12109 0.0820312 2.33594 0.210938 2.46484L5.53906 7.75L0.210938 13.0781C0.0820312 13.207 0.0820312 13.4219 0.210938 13.5938L1.15625 14.5391C1.32812 14.668 1.54297 14.668 1.67188 14.5391L7 9.21094L11.3828 13.6367L12.2852 14.5391C12.4141 14.668 12.6289 14.668 12.8008 14.5391L13.7461 13.5938C13.875 13.4219 13.875 13.207 13.7461 13.0781L8.41797 7.75Z" fill="#858585"/>
</svg>
