<svg width="12" height="11" viewBox="0 0 12 11" fill="none" xmlns="http://www.w3.org/2000/svg">
<path d="M5.625 1.75H7.125C7.3125 1.75 7.5 1.58594 7.5 1.375V0.625C7.5 0.4375 7.3125 0.25 7.125 0.25H5.625C5.41406 0.25 5.25 0.4375 5.25 0.625V1.375C5.25 1.58594 5.41406 1.75 5.625 1.75ZM5.625 4.75H8.625C8.8125 4.75 9 4.58594 9 4.375V3.625C9 3.4375 8.8125 3.25 8.625 3.25H5.625C5.41406 3.25 5.25 3.4375 5.25 3.625V4.375C5.25 4.58594 5.41406 4.75 5.625 4.75ZM11.625 9.25H5.625C5.41406 9.25 5.25 9.4375 5.25 9.625V10.375C5.25 10.5859 5.41406 10.75 5.625 10.75H11.625C11.8125 10.75 12 10.5859 12 10.375V9.625C12 9.4375 11.8125 9.25 11.625 9.25ZM5.625 7.75H10.125C10.3125 7.75 10.5 7.58594 10.5 7.375V6.625C10.5 6.4375 10.3125 6.25 10.125 6.25H5.625C5.41406 6.25 5.25 6.4375 5.25 6.625V7.375C5.25 7.58594 5.41406 7.75 5.625 7.75ZM4.125 7.75H3V0.625C3 0.4375 2.8125 0.25 2.625 0.25H1.875C1.66406 0.25 1.5 0.4375 1.5 0.625V7.75H0.375C0.0234375 7.75 -0.140625 8.17188 0.09375 8.40625L1.96875 10.6562C2.03906 10.7031 2.15625 10.75 2.25 10.75C2.32031 10.75 2.4375 10.7031 2.50781 10.6562L4.38281 8.40625C4.61719 8.17188 4.45312 7.75 4.125 7.75Z" fill="#656565"/>
</svg>
