<svg width="9" height="12" viewBox="0 0 9 12" fill="none" xmlns="http://www.w3.org/2000/svg">
<path d="M4.44531 11.1602C4.63867 11.4609 5.08984 11.4609 5.2832 11.1602C8.41992 6.64844 9 6.17578 9 4.5C9 2.22266 7.15234 0.375 4.875 0.375C2.57617 0.375 0.75 2.22266 0.75 4.5C0.75 6.17578 1.30859 6.64844 4.44531 11.1602ZM4.875 6.21875C3.9082 6.21875 3.15625 5.4668 3.15625 4.5C3.15625 3.55469 3.9082 2.78125 4.875 2.78125C5.82031 2.78125 6.59375 3.55469 6.59375 4.5C6.59375 5.4668 5.82031 6.21875 4.875 6.21875Z" fill="#CCCCCC"/>
</svg>
