<svg width="11" height="16" viewBox="0 0 11 16" fill="none" xmlns="http://www.w3.org/2000/svg">
<path d="M1.5 1C1.5 0.723858 1.72386 0.5 2 0.5H9C9.27614 0.5 9.5 0.723858 9.5 1V5.5H1.5V1Z" stroke="#848484"/>
<path d="M0.59023 10.5L1.42356 5.5H9.57644L10.4098 10.5H0.59023Z" stroke="#848484"/>
<path d="M0.5 11.2C0.5 10.8134 0.813401 10.5 1.2 10.5H9.8C10.1866 10.5 10.5 10.8134 10.5 11.2V13.5H0.5V11.2Z" stroke="#848484"/>
<rect x="0.5" y="13.5" width="2" height="2" rx="0.5" stroke="#848484"/>
<rect x="8.5" y="13.5" width="2" height="2" rx="0.5" stroke="#848484"/>
<rect x="3.5" y="3.5" width="4" height="3" rx="0.5" fill="white" stroke="#848484"/>
</svg>
