<svg width="33" height="30" viewBox="0 0 33 30" fill="none" xmlns="http://www.w3.org/2000/svg">
<path d="M31.8683 4.60045C32.3203 4.60045 32.7723 4.20494 32.7723 3.69643V1.88839C32.7723 1.43638 32.3203 0.984375 31.8683 0.984375H1.1317C0.623186 0.984375 0.227678 1.43638 0.227678 1.88839V3.69643C0.227678 4.20494 0.623186 4.60045 1.1317 4.60045H1.97921V26.2969H1.1317C0.623186 26.2969 0.227678 26.7489 0.227678 27.2009V29.0089C0.227678 29.5174 0.623186 29.9129 1.1317 29.9129H14.692V25.3929C14.692 24.9408 15.0875 24.4888 15.596 24.4888H17.404C17.856 24.4888 18.308 24.9408 18.308 25.3929V29.9129H31.8683C32.3203 29.9129 32.7723 29.5174 32.7723 29.0089V27.2009C32.7723 26.7489 32.3203 26.2969 31.8683 26.2969H30.9643V4.60045H31.8683ZM14.692 7.143C14.692 6.80399 15.031 6.40848 15.37 6.40848H17.5735C17.9125 6.40848 18.308 6.80399 18.308 7.143V9.34654C18.308 9.68555 17.9125 10.0246 17.5735 10.0246H15.37C15.031 10.0246 14.692 9.68555 14.692 9.34654V7.143ZM14.692 12.5671C14.692 12.2281 15.031 11.8326 15.37 11.8326H17.5735C17.9125 11.8326 18.308 12.2281 18.308 12.5671V14.7706C18.308 15.1097 17.9125 15.4487 17.5735 15.4487H15.37C15.031 15.4487 14.692 15.1097 14.692 14.7706V12.5671ZM7.45982 7.143C7.45982 6.80399 7.79883 6.40848 8.13783 6.40848H10.3414C10.6804 6.40848 11.0759 6.80399 11.0759 7.143V9.34654C11.0759 9.68555 10.6804 10.0246 10.3414 10.0246H8.13783C7.79883 10.0246 7.45982 9.68555 7.45982 9.34654V7.143ZM10.3414 15.4487H8.13783C7.79883 15.4487 7.45982 15.1097 7.45982 14.7706V12.5671C7.45982 12.2281 7.79883 11.8326 8.13783 11.8326H10.3414C10.6804 11.8326 11.0759 12.2281 11.0759 12.5671V14.7706C11.0759 15.1097 10.6804 15.4487 10.3414 15.4487ZM11.0759 22.6808C11.0759 19.6862 13.4489 17.2567 16.5 17.2567C19.4946 17.2567 21.9241 19.6862 21.9241 22.6808H11.0759ZM25.5402 14.7706C25.5402 15.1097 25.1447 15.4487 24.8057 15.4487H22.6021C22.2631 15.4487 21.9241 15.1097 21.9241 14.7706V12.5671C21.9241 12.2281 22.2631 11.8326 22.6021 11.8326H24.8057C25.1447 11.8326 25.5402 12.2281 25.5402 12.5671V14.7706ZM25.5402 9.34654C25.5402 9.68555 25.1447 10.0246 24.8057 10.0246H22.6021C22.2631 10.0246 21.9241 9.68555 21.9241 9.34654V7.143C21.9241 6.80399 22.2631 6.40848 22.6021 6.40848H24.8057C25.1447 6.40848 25.5402 6.80399 25.5402 7.143V9.34654Z" fill="#EB384D"/>
</svg>
