<svg width="29" height="26" viewBox="0 0 29 26" fill="none" xmlns="http://www.w3.org/2000/svg">
<path d="M27.6287 3.60547C28.0193 3.60547 28.4099 3.26367 28.4099 2.82422V1.26172C28.4099 0.871094 28.0193 0.480469 27.6287 0.480469H1.06618C0.626723 0.480469 0.284926 0.871094 0.284926 1.26172V2.82422C0.284926 3.26367 0.626723 3.60547 1.06618 3.60547H1.7986V22.3555H1.06618C0.626723 22.3555 0.284926 22.7461 0.284926 23.1367V24.6992C0.284926 25.1387 0.626723 25.4805 1.06618 25.4805H12.7849V21.5742C12.7849 21.1836 13.1267 20.793 13.5662 20.793H15.1287C15.5193 20.793 15.9099 21.1836 15.9099 21.5742V25.4805H27.6287C28.0193 25.4805 28.4099 25.1387 28.4099 24.6992V23.1367C28.4099 22.7461 28.0193 22.3555 27.6287 22.3555H26.8474V3.60547H27.6287ZM12.7849 5.80273C12.7849 5.50977 13.0779 5.16797 13.3709 5.16797H15.2752C15.5681 5.16797 15.9099 5.50977 15.9099 5.80273V7.70703C15.9099 8 15.5681 8.29297 15.2752 8.29297H13.3709C13.0779 8.29297 12.7849 8 12.7849 7.70703V5.80273ZM12.7849 10.4902C12.7849 10.1973 13.0779 9.85547 13.3709 9.85547H15.2752C15.5681 9.85547 15.9099 10.1973 15.9099 10.4902V12.3945C15.9099 12.6875 15.5681 12.9805 15.2752 12.9805H13.3709C13.0779 12.9805 12.7849 12.6875 12.7849 12.3945V10.4902ZM6.53493 5.80273C6.53493 5.50977 6.8279 5.16797 7.12086 5.16797H9.02516C9.31813 5.16797 9.65993 5.50977 9.65993 5.80273V7.70703C9.65993 8 9.31813 8.29297 9.02516 8.29297H7.12086C6.8279 8.29297 6.53493 8 6.53493 7.70703V5.80273ZM9.02516 12.9805H7.12086C6.8279 12.9805 6.53493 12.6875 6.53493 12.3945V10.4902C6.53493 10.1973 6.8279 9.85547 7.12086 9.85547H9.02516C9.31813 9.85547 9.65993 10.1973 9.65993 10.4902V12.3945C9.65993 12.6875 9.31813 12.9805 9.02516 12.9805ZM9.65993 19.2305C9.65993 16.6426 11.7107 14.543 14.3474 14.543C16.9353 14.543 19.0349 16.6426 19.0349 19.2305H9.65993ZM22.1599 12.3945C22.1599 12.6875 21.8181 12.9805 21.5252 12.9805H19.6209C19.3279 12.9805 19.0349 12.6875 19.0349 12.3945V10.4902C19.0349 10.1973 19.3279 9.85547 19.6209 9.85547H21.5252C21.8181 9.85547 22.1599 10.1973 22.1599 10.4902V12.3945ZM22.1599 7.70703C22.1599 8 21.8181 8.29297 21.5252 8.29297H19.6209C19.3279 8.29297 19.0349 8 19.0349 7.70703V5.80273C19.0349 5.50977 19.3279 5.16797 19.6209 5.16797H21.5252C21.8181 5.16797 22.1599 5.50977 22.1599 5.80273V7.70703Z" fill="#EB384D"/>
</svg>
