<svg width="18" height="16" viewBox="0 0 18 16" fill="none" xmlns="http://www.w3.org/2000/svg">
<path d="M17.5 2C17.75 2 18 1.78125 18 1.5V0.5C18 0.25 17.75 0 17.5 0H0.5C0.21875 0 0 0.25 0 0.5V1.5C0 1.78125 0.21875 2 0.5 2H0.96875V14H0.5C0.21875 14 0 14.25 0 14.5V15.5C0 15.7812 0.21875 16 0.5 16H8V13.5C8 13.25 8.21875 13 8.5 13H9.5C9.75 13 10 13.25 10 13.5V16H17.5C17.75 16 18 15.7812 18 15.5V14.5C18 14.25 17.75 14 17.5 14H17V2H17.5ZM8 3.40625C8 3.21875 8.1875 3 8.375 3H9.59375C9.78125 3 10 3.21875 10 3.40625V4.625C10 4.8125 9.78125 5 9.59375 5H8.375C8.1875 5 8 4.8125 8 4.625V3.40625ZM8 6.40625C8 6.21875 8.1875 6 8.375 6H9.59375C9.78125 6 10 6.21875 10 6.40625V7.625C10 7.8125 9.78125 8 9.59375 8H8.375C8.1875 8 8 7.8125 8 7.625V6.40625ZM4 3.40625C4 3.21875 4.1875 3 4.375 3H5.59375C5.78125 3 6 3.21875 6 3.40625V4.625C6 4.8125 5.78125 5 5.59375 5H4.375C4.1875 5 4 4.8125 4 4.625V3.40625ZM5.59375 8H4.375C4.1875 8 4 7.8125 4 7.625V6.40625C4 6.21875 4.1875 6 4.375 6H5.59375C5.78125 6 6 6.21875 6 6.40625V7.625C6 7.8125 5.78125 8 5.59375 8ZM6 12C6 10.3438 7.3125 9 9 9C10.6562 9 12 10.3438 12 12H6ZM14 7.625C14 7.8125 13.7812 8 13.5938 8H12.375C12.1875 8 12 7.8125 12 7.625V6.40625C12 6.21875 12.1875 6 12.375 6H13.5938C13.7812 6 14 6.21875 14 6.40625V7.625ZM14 4.625C14 4.8125 13.7812 5 13.5938 5H12.375C12.1875 5 12 4.8125 12 4.625V3.40625C12 3.21875 12.1875 3 12.375 3H13.5938C13.7812 3 14 3.21875 14 3.40625V4.625Z" fill="#666666"/>
</svg>
