<svg width="20" height="20" viewBox="0 0 20 20" fill="none" xmlns="http://www.w3.org/2000/svg">
<path d="M18.25 0.125C18.5938 0.125 18.9375 0.296875 19.1953 0.554688C19.4531 0.8125 19.625 1.15625 19.625 1.5V18C19.625 18.3867 19.4531 18.7305 19.1953 18.9883C18.9375 19.2461 18.5938 19.375 18.25 19.375H1.75C1.36328 19.375 1.01953 19.2461 0.761719 18.9883C0.503906 18.7305 0.375 18.3867 0.375 18V1.5C0.375 1.15625 0.503906 0.8125 0.761719 0.554688C1.01953 0.296875 1.36328 0.125 1.75 0.125H18.25ZM6.17578 16.625H6.21875V7.42969H3.33984V16.625H6.17578ZM4.75781 6.18359C5.1875 6.18359 5.57422 6.05469 5.91797 5.71094C6.26172 5.36719 6.43359 4.98047 6.43359 4.55078C6.43359 4.12109 6.26172 3.73438 5.91797 3.39062C5.57422 3.04688 5.1875 2.875 4.75781 2.875C4.28516 2.875 3.89844 3.04688 3.59766 3.39062C3.25391 3.73438 3.125 4.12109 3.125 4.55078C3.125 4.98047 3.25391 5.36719 3.59766 5.71094C3.89844 6.05469 4.28516 6.18359 4.75781 6.18359ZM16.875 16.625V11.5977C16.875 10.1797 16.6602 9.14844 16.2734 8.46094C15.7148 7.64453 14.7695 7.21484 13.4805 7.21484C12.793 7.21484 12.2344 7.38672 11.7188 7.6875C11.2891 7.94531 10.9453 8.28906 10.7734 8.67578H10.7305V7.42969H7.98047V16.625H10.8164V12.0703C10.8164 11.3828 10.9023 10.8242 11.1172 10.4375C11.375 9.96484 11.8477 9.70703 12.5352 9.70703C13.1797 9.70703 13.6094 10.0078 13.8242 10.5234C13.9531 10.8672 14.0391 11.4258 14.0391 12.1562V16.625H16.875Z" fill="#EB384D"/>
</svg>
