<svg width="16" height="21" viewBox="0 0 16 21" fill="none" xmlns="http://www.w3.org/2000/svg">
<path d="M7.25633 20.1094C7.60789 20.6562 8.42821 20.6562 8.77977 20.1094C14.4829 11.9062 15.5376 11.0469 15.5376 8C15.5376 3.85938 12.1782 0.5 8.03758 0.5C3.85789 0.5 0.537582 3.85938 0.537582 8C0.537582 11.0469 1.55321 11.9062 7.25633 20.1094ZM8.03758 11.125C6.27977 11.125 4.91258 9.75781 4.91258 8C4.91258 6.28125 6.27977 4.875 8.03758 4.875C9.75633 4.875 11.1626 6.28125 11.1626 8C11.1626 9.75781 9.75633 11.125 8.03758 11.125Z" fill="#B3B3B3"/>
</svg>
