<svg width="122" height="42" viewBox="0 0 122 42" fill="none" xmlns="http://www.w3.org/2000/svg">
<path d="M67.6241 26.7897L67.5596 10.7576" stroke="#EB384D" stroke-width="2.59632" stroke-miterlimit="10"/>
<path d="M46.7805 26.7897L46.7158 10.7576" stroke="#EB384D" stroke-width="2.59632" stroke-miterlimit="10"/>
<path d="M33.274 26.7901C33.274 26.7901 33.6196 17.1095 29.9912 10.7549" stroke="#15BBCC" stroke-width="2.59632" stroke-miterlimit="10"/>
<path d="M5.28283 26.7896C5.28283 26.7896 5.62839 17.1089 2 10.7544L3.88139 14.7717C4.18535 15.4195 4.6621 15.9775 5.27323 16.3681C5.72758 16.6595 6.29712 16.8857 6.92425 16.8361C8.51447 16.7121 9.44236 15.8132 9.74953 14.874C10.0375 13.9967 10.0471 10.9992 9.9735 10.4103C9.9735 10.4103 10.0919 17.2391 13.3875 16.6316C16.3216 16.0891 14.6354 10.308 14.6354 10.308" stroke="#15BBCC" stroke-width="2.59632" stroke-miterlimit="10"/>
<path d="M18.1094 26.5827C18.1094 26.5827 20.3587 19.8685 27.9451 16.8493C27.9451 16.8493 19.6676 19.5772 19.498 15.4017C19.3412 11.496 23.8431 10.9535 26.0061 11.899" stroke="#15BBCC" stroke-width="2.59632" stroke-miterlimit="10"/>
<path d="M41.3668 16.0332V24.6351C41.3668 26.4423 40.7236 28.2092 39.5014 29.6723C38.7558 30.5619 37.604 31.4485 36.2793 32.4156" stroke="#EB384D" stroke-width="2.59632" stroke-miterlimit="10"/>
<path d="M73.0669 16.0332V24.6351C73.0669 26.4423 72.4238 28.2092 71.2016 29.6723C70.456 30.5619 69.3042 31.4485 67.9795 32.4156" stroke="#EB384D" stroke-width="2.59632" stroke-miterlimit="10"/>
<path d="M54.7577 14.4363L61.3778 20.8497C63.0928 22.5112 61.8769 25.3506 59.4548 25.3506H50.6846" stroke="#EB384D" stroke-width="2.59632" stroke-miterlimit="10"/>
<path d="M106.155 25.2285C103.835 25.2285 101.947 23.3996 101.947 21.1523C101.947 18.9049 103.835 17.076 106.155 17.076C108.474 17.076 110.362 18.9049 110.362 21.1523C110.362 23.3996 108.474 25.2285 106.155 25.2285Z" fill="#15BBCC"/>
<path d="M106.156 17.149C108.437 17.149 110.283 18.9407 110.283 21.1477C110.283 23.3548 108.434 25.1465 106.156 25.1465C103.878 25.1465 102.028 23.3548 102.028 21.1477C102.028 18.9407 103.875 17.149 106.156 17.149ZM106.156 16.994C105.01 16.994 103.932 17.4249 103.123 18.2122C102.313 18.9965 101.865 20.0411 101.865 21.1508C101.865 22.2606 102.31 23.3052 103.123 24.0894C103.932 24.8737 105.01 25.3077 106.156 25.3077C107.301 25.3077 108.38 24.8768 109.189 24.0894C109.999 23.3052 110.447 22.2606 110.447 21.1508C110.447 20.0411 110.002 18.9965 109.189 18.2122C108.38 17.4249 107.301 16.994 106.156 16.994Z" fill="#15BBCC"/>
<path d="M106.154 30.6745C101.7 30.6745 97.7901 27.7638 96.651 23.5977L96.6318 23.5233L99.118 22.8847L99.1372 22.9591C99.9787 26.0341 102.865 28.1823 106.154 28.1823C110.064 28.1823 113.321 25.1042 113.411 21.3193L113.414 21.2418L115.987 21.3007L115.983 21.3782C115.923 23.8735 114.873 26.2108 113.027 27.9591C111.181 29.7104 108.739 30.6745 106.154 30.6745Z" fill="#EB384D"/>
<path d="M113.494 21.3218L115.907 21.3776C115.846 23.8543 114.806 26.173 112.976 27.9057C111.142 29.6416 108.72 30.5994 106.157 30.5994C101.738 30.5994 97.8637 27.7135 96.731 23.5815L99.0636 22.9833C99.9147 26.0924 102.833 28.2653 106.16 28.2653C110.109 28.2591 113.401 25.1469 113.494 21.3218ZM113.34 21.1637L113.337 21.3187C113.248 25.0601 110.026 28.1072 106.16 28.1072C102.906 28.1072 100.052 25.9839 99.2204 22.9399L99.1788 22.7911L99.0252 22.8314L96.6926 23.4296L96.5391 23.4699L96.5807 23.6187C97.7325 27.8189 101.671 30.7513 106.16 30.7513C108.768 30.7513 111.229 29.778 113.091 28.0142C114.95 26.2535 116.009 23.8946 116.07 21.3776L116.073 21.2226L115.913 21.2195L113.5 21.1637H113.34Z" fill="#EB384D"/>
<path d="M108.147 33.5548L108.227 33.5424C114.438 32.5721 119.013 27.4389 119.106 21.3385V21.261L121.679 21.2982V21.3757C121.624 24.928 120.271 28.3564 117.862 31.0315C115.478 33.6818 112.201 35.4456 108.637 36.0036L108.557 36.016L108.147 33.5548Z" fill="#EB384D"/>
<path d="M119.184 21.3376L121.597 21.3717C121.542 24.9055 120.195 28.3152 117.799 30.978C115.428 33.6128 112.167 35.3704 108.622 35.9252L108.238 33.619C114.49 32.6426 119.091 27.4783 119.184 21.3376ZM119.027 21.1826L119.024 21.3376C118.931 27.4039 114.385 32.5031 108.212 33.4671L108.056 33.4919L108.081 33.6438L108.465 35.95L108.491 36.1019L108.648 36.0771C112.231 35.5192 115.524 33.743 117.92 31.0803C120.339 28.3896 121.702 24.9427 121.757 21.3748L121.76 21.2198L121.6 21.2167L119.187 21.1826H119.027Z" fill="#EB384D"/>
<path d="M103.595 35.9894C100.008 35.4128 96.7255 33.6149 94.3513 30.9243C91.9484 28.2058 90.627 24.734 90.627 21.1476C90.627 19.4613 90.9117 17.806 91.4781 16.2282L91.5036 16.1538L93.9354 16.9691L93.9098 17.0434C93.4394 18.3609 93.2027 19.7403 93.2027 21.1507C93.2027 27.3161 97.7525 32.5238 104.021 33.5343L104.101 33.5467L103.678 36.0049L103.595 35.9894Z" fill="#EB384D"/>
<path d="M91.5545 16.2533L93.8326 17.0158C93.3591 18.3394 93.1191 19.7312 93.1191 21.1478C93.1191 27.3536 97.6978 32.5923 104.004 33.609L103.611 35.9152C100.043 35.3418 96.7795 33.5532 94.415 30.875C92.0248 28.1689 90.7098 24.7157 90.7098 21.1509C90.7066 19.4709 90.9914 17.8249 91.5545 16.2533ZM91.4553 16.058L91.4041 16.2037C90.8378 17.7908 90.5498 19.4554 90.5498 21.1478C90.5498 24.7498 91.8809 28.2402 94.2934 30.9742C96.6803 33.6772 99.9791 35.4844 103.585 36.0671L103.742 36.0919L103.768 35.94L104.161 33.6338L104.187 33.4819L104.03 33.4571C97.8002 32.4559 93.2791 27.2792 93.2791 21.1509C93.2791 19.7529 93.5159 18.3797 93.983 17.0716L94.0342 16.9259L93.8838 16.8763L91.6057 16.1138L91.4553 16.058Z" fill="#EB384D"/>
<path d="M93.4746 12.4625L93.5226 12.4005C96.0119 9.03415 99.8579 6.7899 104.075 6.24123L104.155 6.23193L104.497 8.70247L104.417 8.71177C100.901 9.16744 97.6918 11.0428 95.6152 13.8512L95.5672 13.9132L93.4746 12.4625Z" fill="#15BBCC"/>
<path d="M104.079 6.31556L104.399 8.6311C100.861 9.08986 97.6322 10.9745 95.5428 13.8046L93.5814 12.4438C96.0579 9.09296 99.8847 6.86112 104.079 6.31556ZM104.217 6.14197L104.057 6.16367C99.8175 6.71543 95.9523 8.97207 93.4502 12.3539L93.3574 12.481L93.4886 12.5709L95.45 13.9317L95.5812 14.0216L95.674 13.8945C97.7377 11.1016 100.928 9.23865 104.422 8.78609L104.582 8.76439L104.559 8.6094L104.239 6.29386L104.217 6.14197Z" fill="#15BBCC"/>
<path d="M106.161 41.4994C99.9414 41.4994 94.0796 38.8522 90.0737 34.2335L90.0225 34.1746L91.9902 32.572L92.0414 32.6309C95.5547 36.6823 100.703 39.0072 106.161 39.0072C110.42 39.0072 114.42 37.6402 117.728 35.055L117.789 35.0054L119.405 36.9458L119.344 36.9954C115.626 39.8999 110.945 41.4994 106.161 41.4994Z" fill="#EB384D"/>
<path d="M91.9803 32.6796C95.5095 36.7496 100.68 39.0837 106.161 39.0837C110.439 39.0837 114.455 37.7105 117.776 35.1129L119.289 36.9325C115.587 39.8277 110.925 41.421 106.158 41.421C99.9634 41.421 94.1209 38.783 90.1309 34.183L91.9803 32.6796ZM91.9995 32.4595L91.8779 32.5587L90.0317 34.0621L89.9102 34.1613L90.0125 34.279C94.0313 38.9132 99.9186 41.5729 106.161 41.5729C110.964 41.5729 115.661 39.9672 119.392 37.0503L119.516 36.9542L119.417 36.8333L117.904 35.0137L117.805 34.8928L117.68 34.9889C114.387 37.5648 110.404 38.9225 106.164 38.9225C100.731 38.9225 95.6055 36.607 92.1083 32.5742L91.9995 32.4595Z" fill="#EB384D"/>
<path d="M87.4506 30.406C85.9276 27.5232 85.1533 24.408 85.1533 21.147C85.1533 17.5016 86.1612 13.9245 88.0682 10.7999L88.1098 10.7317L90.3239 11.9995L90.2823 12.0677C88.6089 14.8048 87.7258 17.9449 87.7258 21.1439C87.7258 24.005 88.4041 26.739 89.7384 29.2684L89.7736 29.3366L87.4858 30.4711L87.4506 30.406Z" fill="#EB384D"/>
<path d="M88.1382 10.8404L90.2148 12.0307C88.535 14.7803 87.6487 17.9327 87.6487 21.1472C87.6487 24.0207 88.3302 26.7671 89.6709 29.3059L87.5239 30.3691C86.0073 27.4956 85.2362 24.3927 85.2362 21.1441C85.2362 17.5174 86.2376 13.9526 88.1382 10.8404ZM88.0807 10.6296L88.0007 10.7629C86.0873 13.8968 85.0762 17.4895 85.0762 21.1472C85.0762 24.4206 85.8505 27.5483 87.3799 30.4404L87.4535 30.5799L87.5975 30.5086L89.7445 29.4454L89.8885 29.3741L89.8149 29.2346C88.4838 26.7175 87.8119 23.9959 87.8119 21.1472C87.8119 17.9606 88.6918 14.8361 90.3556 12.1082L90.4356 11.9749L90.298 11.8975L88.2214 10.7071L88.0807 10.6296Z" fill="#EB384D"/>
<path d="M119.918 9.26583C118.091 7.28196 115.8 5.69177 113.288 4.67194L113.215 4.64094L114.21 2.34399L114.284 2.37499C117.144 3.53741 119.755 5.34769 121.835 7.60744L121.889 7.66633L119.969 9.32472L119.918 9.26583Z" fill="#15BBCC"/>
<path d="M114.251 2.44726C117.05 3.58488 119.652 5.35486 121.773 7.66111L119.972 9.2172C118.087 7.16824 115.783 5.60905 113.313 4.60472L114.251 2.44726ZM114.164 2.24268L114.103 2.38527L113.169 4.53962L113.108 4.68221L113.256 4.74111C115.755 5.75784 118.036 7.33873 119.856 9.3164L119.962 9.43109L120.08 9.32879L121.882 7.7727L122 7.67041L121.895 7.55571C120.842 6.41189 119.652 5.37966 118.359 4.48692C117.092 3.61278 115.732 2.87813 114.311 2.30157L114.164 2.24268Z" fill="#15BBCC"/>
<path d="M120.069 5.90805L105.188 20.324L107.007 22.0862L121.888 7.67031L120.069 5.90805Z" fill="#15BBCC"/>
<path d="M120.068 6.01843L121.774 7.67061L107.008 21.9761L105.302 20.324L120.068 6.01843ZM120.068 5.79834L119.956 5.90683L105.19 20.2124L105.078 20.3209L105.19 20.4294L106.896 22.0815L107.008 22.19L107.119 22.0815L121.886 7.77601L121.998 7.66751L121.886 7.55902L120.18 5.90683L120.068 5.79834Z" fill="#15BBCC"/>
<path d="M96.7139 18.5022L96.7363 18.4278C97.3282 16.5028 98.5697 14.7731 100.23 13.5518C101.948 12.2933 103.999 11.6268 106.159 11.6268C108.034 11.6268 109.852 12.1352 111.419 13.0992L111.503 13.1519L109.628 14.9684L109.576 14.9405C108.537 14.4011 107.356 14.116 106.162 14.116C102.976 14.116 100.112 16.1804 99.2032 19.1376L99.1808 19.212L96.7139 18.5022Z" fill="#EB384D"/>
<path d="M106.154 11.7C108.032 11.7 109.83 12.2146 111.369 13.16L109.606 14.868C108.56 14.3256 107.379 14.0342 106.154 14.0342C102.932 14.0342 100.036 16.1203 99.1179 19.1116L96.8078 18.4452C97.3933 16.5357 98.6252 14.8184 100.273 13.6095C101.978 12.3634 104.01 11.7 106.154 11.7ZM106.154 11.545C103.975 11.545 101.908 12.2177 100.177 13.4855C98.5004 14.7161 97.2493 16.4613 96.6542 18.4018L96.6094 18.5506L96.763 18.594L99.0731 19.2604L99.2267 19.3038L99.2715 19.155C100.171 16.2319 103.002 14.1892 106.154 14.1892C107.335 14.1892 108.502 14.4712 109.53 15.0044L109.635 15.0571L109.718 14.9765L111.481 13.2685L111.622 13.1321L111.453 13.0298C109.875 12.0596 108.042 11.545 106.154 11.545Z" fill="#EB384D"/>
<path d="M113.688 10.9345C111.893 9.68843 109.781 8.90418 107.58 8.6717L107.5 8.6624L107.778 6.18567L107.858 6.19497C110.636 6.48945 113.282 7.50618 115.509 9.13666L115.582 9.18936L113.742 10.9717L113.688 10.9345Z" fill="#EB384D"/>
<path d="M107.848 6.27193C110.638 6.56641 113.252 7.58314 115.457 9.19813L113.732 10.8689C111.931 9.6166 109.826 8.82925 107.586 8.59057L107.848 6.27193ZM107.707 6.10144L107.691 6.25643L107.429 8.57817L107.413 8.73316L107.573 8.74866C109.762 8.98114 111.861 9.75919 113.643 10.9991L113.752 11.0766L113.848 10.9836L115.572 9.31282L115.703 9.18573L115.556 9.07723C113.32 7.43745 110.661 6.41452 107.867 6.12004L107.707 6.10144Z" fill="#EB384D"/>
<path d="M90.4297 7.65625L90.4841 7.59735C94.4644 3.27934 100.176 0.802612 106.15 0.802612C108.482 0.802612 110.786 1.17769 112.997 1.91854L113.077 1.94643L112.133 4.26508L112.059 4.24028C110.149 3.61412 108.162 3.29484 106.153 3.29484C100.909 3.29484 95.8979 5.4678 92.4039 9.25884L92.3495 9.31774L90.4297 7.65625Z" fill="#EB384D"/>
<path d="M106.149 0.878622C108.495 0.878622 110.795 1.263 112.968 1.98835L112.081 4.1644C110.187 3.54134 108.184 3.21586 106.149 3.21586C100.883 3.21586 95.8496 5.39812 92.3396 9.20466L90.5414 7.64856C94.5089 3.34605 100.198 0.878622 106.149 0.878622ZM106.149 0.723633C100.153 0.723633 94.4193 3.20966 90.423 7.54627L90.3174 7.66096L90.4358 7.76326L92.234 9.31935L92.3524 9.42164L92.458 9.30695C95.9392 5.53451 100.927 3.37085 106.149 3.37085C108.152 3.37085 110.13 3.68703 112.03 4.31319L112.174 4.35969L112.229 4.2233L113.115 2.04724L113.176 1.89535L113.019 1.84266C110.802 1.09871 108.491 0.723633 106.149 0.723633Z" fill="#EB384D"/>
</svg>
