<svg width="20" height="17" viewBox="0 0 20 17" fill="none" xmlns="http://www.w3.org/2000/svg">
<path d="M19.4844 3.07812C19.7422 3.07812 20 2.86328 20 2.5625V1.1875C20 0.929688 19.7422 0.671875 19.4844 0.671875H1.26562C0.964844 0.671875 0.75 0.929688 0.75 1.1875V2.5625C0.75 2.86328 0.964844 3.07812 1.26562 3.07812H19.4844ZM19.4844 9.95312C19.7422 9.95312 20 9.73828 20 9.4375V8.0625C20 7.80469 19.7422 7.54688 19.4844 7.54688H1.26562C0.964844 7.54688 0.75 7.80469 0.75 8.0625V9.4375C0.75 9.73828 0.964844 9.95312 1.26562 9.95312H19.4844ZM19.4844 16.8281C19.7422 16.8281 20 16.6133 20 16.3125V14.9375C20 14.6797 19.7422 14.4219 19.4844 14.4219H1.26562C0.964844 14.4219 0.75 14.6797 0.75 14.9375V16.3125C0.75 16.6133 0.964844 16.8281 1.26562 16.8281H19.4844Z" fill="#656565"/>
</svg>
