<svg width="6" height="21" viewBox="0 0 6 21" fill="none" xmlns="http://www.w3.org/2000/svg">
<path d="M2.875 8.28125C1.55664 8.28125 0.53125 9.35547 0.53125 10.625C0.53125 11.9434 1.55664 12.9688 2.875 12.9688C4.14453 12.9688 5.21875 11.9434 5.21875 10.625C5.21875 9.35547 4.14453 8.28125 2.875 8.28125ZM0.53125 3.20312C0.53125 4.52148 1.55664 5.54688 2.875 5.54688C4.14453 5.54688 5.21875 4.52148 5.21875 3.20312C5.21875 1.93359 4.14453 0.859375 2.875 0.859375C1.55664 0.859375 0.53125 1.93359 0.53125 3.20312ZM0.53125 18.0469C0.53125 19.3652 1.55664 20.3906 2.875 20.3906C4.14453 20.3906 5.21875 19.3652 5.21875 18.0469C5.21875 16.7773 4.14453 15.7031 2.875 15.7031C1.55664 15.7031 0.53125 16.7773 0.53125 18.0469Z" fill="white"/>
</svg>
