<svg width="146" height="39" viewBox="0 0 146 39" fill="none" xmlns="http://www.w3.org/2000/svg">
<rect x="0.381787" y="1.08766" width="144.29" height="37.2969" rx="8.40936" stroke="#444444" stroke-width="0.763574"/>
<path d="M31.1953 17.6117C29.4122 17.6117 27.9666 18.8117 27.9666 20.4732C27.9666 22.1193 29.4208 23.3346 31.1953 23.3346C32.9697 23.3346 34.4239 22.1193 34.4239 20.4732C34.4326 18.8117 32.9784 17.6117 31.1953 17.6117ZM31.1953 22.2039C30.2172 22.2039 29.3775 21.4885 29.3775 20.4732C29.3775 19.4424 30.2172 18.7424 31.1953 18.7424C32.1734 18.7424 33.013 19.4501 33.013 20.4732C33.013 21.4885 32.1734 22.2039 31.1953 22.2039ZM24.1494 17.6117C22.3663 17.6117 20.9207 18.8117 20.9207 20.4732C20.9207 22.1193 22.3749 23.3346 24.1494 23.3346C25.9325 23.3346 27.378 22.1193 27.378 20.4732C27.3867 18.8117 25.9325 17.6117 24.1494 17.6117ZM24.1494 22.2039C23.1713 22.2039 22.3316 21.4885 22.3316 20.4732C22.3316 19.4424 23.1713 18.7424 24.1494 18.7424C25.1275 18.7424 25.9671 19.4501 25.9671 20.4732C25.9671 21.4885 25.1275 22.2039 24.1494 22.2039ZM15.7705 18.4886V19.7039H19.0337C18.9385 20.3886 18.6789 20.8808 18.2893 21.2347C17.8133 21.6578 17.0689 22.1193 15.7705 22.1193C13.7623 22.1193 12.1869 20.6809 12.1869 18.8886C12.1869 17.0963 13.7623 15.6579 15.7705 15.6579C16.8525 15.6579 17.6488 16.0348 18.2287 16.5271L19.1895 15.6733C18.3759 14.981 17.2852 14.4502 15.7618 14.4502C13.0092 14.4502 10.6895 16.4425 10.6895 18.8886C10.6895 21.3347 13.0092 23.327 15.7618 23.327C17.2506 23.327 18.3672 22.8962 19.2501 22.0808C20.1504 21.2808 20.436 20.1501 20.436 19.2424C20.436 18.9578 20.41 18.704 20.3667 18.4809H15.7705V18.4886ZM50.0478 19.4347C49.7795 18.7963 48.9658 17.6117 47.2952 17.6117C45.6333 17.6117 44.257 18.7732 44.257 20.4732C44.257 22.0731 45.6247 23.3346 47.4511 23.3346C48.9226 23.3346 49.7795 22.5347 50.1344 22.0654L49.0351 21.4193C48.6715 21.8962 48.1695 22.2116 47.4511 22.2116C46.7326 22.2116 46.2219 21.9193 45.893 21.3424L50.195 19.7578L50.0478 19.4347ZM45.6593 20.3885C45.6247 19.2809 46.6201 18.7194 47.3385 18.7194C47.9012 18.7194 48.3772 18.9655 48.533 19.327L45.6593 20.3885ZM42.1623 23.1577H43.5732V14.7502H42.1623V23.1577ZM39.8512 18.2501H39.7992C39.479 17.9117 38.8731 17.6117 38.1027 17.6117C36.4927 17.6117 35.0212 18.8655 35.0212 20.4809C35.0212 22.0808 36.4927 23.327 38.1027 23.327C38.8731 23.327 39.479 23.027 39.7992 22.6808H39.8512V23.0962C39.8512 24.1885 39.1933 24.7731 38.1287 24.7731C37.2631 24.7731 36.7264 24.2192 36.51 23.7577L35.2809 24.2115C35.6358 24.9731 36.5706 25.9038 38.1373 25.9038C39.7992 25.9038 41.1928 25.0346 41.1928 22.927V17.7963H39.8512V18.2501ZM38.2239 22.2039C37.2458 22.2039 36.4321 21.4808 36.4321 20.4809C36.4321 19.4732 37.2458 18.7347 38.2239 18.7347C39.1847 18.7347 39.9464 19.4732 39.9464 20.4809C39.9464 21.4808 39.1933 22.2039 38.2239 22.2039ZM56.6782 14.7502H53.2938V23.1577H54.7047V19.9732H56.6782C58.245 19.9732 59.7771 18.9655 59.7771 17.3655C59.7771 15.7656 58.2363 14.7502 56.6782 14.7502ZM56.7129 18.804H54.7047V15.9194H56.7129C57.7689 15.9194 58.3661 16.6963 58.3661 17.3578C58.3661 18.0117 57.7689 18.804 56.7129 18.804ZM65.438 17.5963C64.4166 17.5963 63.3606 17.9963 62.9192 18.8809L64.1743 19.3424C64.4426 18.8809 64.9446 18.727 65.464 18.727C66.1911 18.727 66.9355 19.1193 66.9528 19.8116V19.8963C66.6931 19.7655 66.1478 19.5732 65.4813 19.5732C64.131 19.5732 62.7547 20.2347 62.7547 21.4655C62.7547 22.5885 63.8626 23.3116 65.1004 23.3116C66.0526 23.3116 66.5719 22.9347 66.9009 22.4885H66.9528V23.1346H68.3118V19.9116C68.3031 18.4271 67.0567 17.5963 65.438 17.5963ZM65.2649 22.2039C64.8061 22.2039 64.1569 21.9962 64.1569 21.4885C64.1569 20.8424 64.9619 20.5885 65.6544 20.5885C66.2776 20.5885 66.5633 20.7039 66.9441 20.8732C66.8316 21.6501 66.0786 22.2039 65.2649 22.2039ZM73.2716 17.7809L71.653 21.427H71.601L69.9218 17.7809H68.3983L70.9172 22.8731L69.4803 25.7038H70.9518L74.8297 17.7809H73.2716ZM60.5561 23.1577H61.967V14.7502H60.5561V23.1577Z" fill="#4F4F4F"/>
<path d="M120.989 11.3551C120.778 11.5806 120.654 11.9299 120.654 12.3737V28.4666C120.654 28.9176 120.778 29.2669 120.989 29.4851L121.04 29.536L130.054 20.5292V20.4201V20.311L121.04 11.3042L120.989 11.3551Z" fill="url(#paint0_linear)"/>
<path d="M133.055 23.534L130.051 20.5293V20.4202V20.311L133.055 17.3063L133.121 17.3427L136.679 19.3652C137.697 19.94 137.697 20.8858 136.679 21.4678L133.121 23.4903L133.055 23.534Z" fill="url(#paint1_linear)"/>
<path d="M133.121 23.4903L130.051 20.4201L120.986 29.4851C121.321 29.8416 121.874 29.8852 122.5 29.5287L133.121 23.4903Z" fill="url(#paint2_linear)"/>
<path d="M133.121 17.3499L122.492 11.3114C121.866 10.9549 121.313 10.9985 120.979 11.355L130.051 20.42L133.121 17.3499Z" fill="url(#paint3_linear)"/>
<path opacity="0.2" d="M133.056 23.4248L122.492 29.4269C121.903 29.7616 121.372 29.7397 121.037 29.4342L120.986 29.4851L121.037 29.536C121.379 29.8416 121.903 29.8634 122.492 29.5288L133.121 23.4903L133.056 23.4248Z" fill="black"/>
<path opacity="0.12" d="M120.985 29.3833C120.774 29.1578 120.65 28.8085 120.65 28.3647V28.4739C120.65 28.9249 120.774 29.2742 120.985 29.4924L121.036 29.4415L120.985 29.3833Z" fill="black"/>
<path opacity="0.12" d="M136.685 21.3659L133.055 23.4248L133.12 23.4903L136.678 21.4677C137.187 21.1767 137.442 20.7984 137.442 20.4201C137.405 20.762 137.151 21.104 136.685 21.3659Z" fill="black"/>
<path opacity="0.25" d="M122.492 11.4145L136.679 19.4755C137.138 19.7374 137.4 20.0721 137.443 20.4213C137.443 20.043 137.189 19.6574 136.679 19.3737L122.492 11.3127C121.474 10.7379 120.645 11.2181 120.645 12.3821V12.4913C120.645 11.3199 121.481 10.8398 122.492 11.4145Z" fill="white"/>
<path d="M79.5218 21.0387C79.5923 21.2607 79.6645 21.4934 79.7386 21.7366C79.8161 21.9762 79.8848 22.2194 79.9448 22.4662C80.0082 22.7129 80.0593 22.9596 80.0981 23.2063C80.1368 23.4495 80.1562 23.6875 80.1562 23.9201C80.1562 24.2373 80.1069 24.5457 80.0082 24.8453C79.913 25.1484 79.7791 25.4392 79.6064 25.7176C79.4372 25.9996 79.2345 26.2675 78.9984 26.5213C78.7658 26.775 78.512 27.0147 78.2371 27.2403C77.9621 27.4659 77.6714 27.6756 77.3647 27.8694C77.0581 28.0633 76.7479 28.2378 76.4342 28.3928L75.8315 27.1821C76.0818 27.0588 76.3285 26.9213 76.5717 26.7697C76.8149 26.6217 77.0457 26.4631 77.2643 26.2939C77.4863 26.1247 77.6907 25.9467 77.8776 25.7599C78.0679 25.5731 78.23 25.3793 78.364 25.1784C78.5014 24.9775 78.6089 24.7713 78.6865 24.5598C78.764 24.3483 78.8028 24.1351 78.8028 23.9201C78.8028 23.7192 78.7799 23.5077 78.734 23.2856C78.6882 23.0636 78.6318 22.8451 78.5649 22.6301C78.5014 22.4115 78.4344 22.2018 78.364 22.0009C78.297 21.8 78.2406 21.622 78.1948 21.4669L79.5218 21.0387ZM79.6857 18.7864L78.6706 19.8015L77.6608 18.7864L78.6706 17.7766L79.6857 18.7864ZM82.5616 16.143C82.6497 16.8162 82.7114 17.4594 82.7467 18.0727C82.7819 18.6825 82.803 19.2799 82.8101 19.865C82.8171 20.362 82.8189 20.8219 82.8154 21.2449C82.8154 21.6678 82.8119 22.0626 82.8048 22.4292C82.7978 22.7922 82.7872 23.1323 82.7731 23.4495C82.759 23.7632 82.7449 24.0575 82.7308 24.3325L81.3456 24.5439C81.4196 23.3808 81.4566 22.3534 81.4566 21.4616C81.4566 21.1021 81.4514 20.7655 81.4408 20.4518C81.4126 19.7293 81.3809 19.0508 81.3456 18.4164C81.3104 17.7784 81.2628 17.1686 81.2029 16.5871L82.5616 16.143ZM87.9126 22.4767C88.0465 22.5613 88.2069 22.6477 88.3937 22.7358C88.584 22.8239 88.7796 22.9032 88.9805 22.9737C89.185 23.0442 89.3841 23.1024 89.578 23.1482C89.7753 23.194 89.948 23.2169 90.0961 23.2169C90.156 23.2169 90.23 23.2152 90.3181 23.2116C90.4063 23.2081 90.4997 23.2011 90.5983 23.1905C90.697 23.1764 90.7957 23.157 90.8944 23.1323C90.9931 23.1041 91.0812 23.0671 91.1588 23.0213C91.2398 22.972 91.305 22.912 91.3544 22.8415C91.4037 22.7675 91.4302 22.6776 91.4337 22.5719C91.4337 22.5649 91.4337 22.5596 91.4337 22.556C91.4337 22.4151 91.3932 22.2564 91.3121 22.0802C91.2345 21.9005 91.127 21.7137 90.9896 21.5198C90.8521 21.3224 90.6935 21.125 90.5138 20.9277C90.334 20.7303 90.1472 20.5417 89.9533 20.362C89.7595 20.1787 89.5639 20.0113 89.3665 19.8597C89.1726 19.7046 88.9911 19.5742 88.8219 19.4685L89.6097 18.3C89.9339 18.5221 90.2529 18.7723 90.5666 19.0508C90.8838 19.3292 91.1746 19.6271 91.439 19.9443C91.7068 20.258 91.9377 20.5858 92.1316 20.9277C92.3289 21.2696 92.4699 21.615 92.5545 21.9639C92.6003 22.1648 92.6232 22.3569 92.6232 22.5402C92.6232 22.7164 92.5898 22.9279 92.5228 23.1746C92.4594 23.4213 92.3131 23.6645 92.084 23.9042C91.8549 24.1404 91.5641 24.3219 91.2116 24.4488C90.9085 24.558 90.5754 24.6127 90.2124 24.6127C90.1525 24.6127 90.0908 24.6109 90.0274 24.6074C89.7947 24.6074 89.5586 24.5845 89.3189 24.5387C89.0792 24.4964 88.8431 24.4364 88.6104 24.3589C88.3813 24.2814 88.1593 24.1932 87.9443 24.0945C87.7328 23.9923 87.5354 23.8848 87.3522 23.772L87.9126 22.4767ZM93.3081 26.9336C93.8262 26.8314 94.2933 26.694 94.7092 26.5213C95.1286 26.3521 95.4916 26.1617 95.7983 25.9503C96.1049 25.7388 96.3534 25.5132 96.5437 25.2735C96.7376 25.0339 96.8662 24.7942 96.9297 24.5545C96.6442 24.5545 96.3657 24.5457 96.0943 24.5281C95.8229 24.5105 95.5656 24.4752 95.3224 24.4223C95.0828 24.373 94.8607 24.3025 94.6563 24.2109C94.4554 24.1157 94.2809 23.9923 94.1329 23.8408C93.9884 23.6857 93.8756 23.4989 93.7945 23.2804C93.7135 23.0618 93.6729 22.801 93.6729 22.4979C93.6729 22.304 93.6941 22.1014 93.7364 21.8899C93.7787 21.6784 93.8386 21.4722 93.9161 21.2713C93.9972 21.0669 94.0959 20.8748 94.2122 20.695C94.3285 20.5118 94.4624 20.3514 94.614 20.2139C94.7656 20.0729 94.933 19.9619 95.1163 19.8808C95.2995 19.7998 95.4969 19.7592 95.7084 19.7592C96.2547 19.7592 96.7535 20.0024 97.2046 20.4888C97.3526 20.6545 97.4866 20.8395 97.6064 21.044C97.7263 21.2484 97.8302 21.4669 97.9183 21.6996C98.0065 21.9322 98.077 22.1754 98.1298 22.4292C98.1862 22.6794 98.2215 22.9367 98.2356 23.2011H98.5898V24.5545H98.1245C98.0047 25.0762 97.802 25.5449 97.5165 25.9608C97.231 26.3803 96.8874 26.7451 96.4856 27.0552C96.0873 27.3654 95.6432 27.6209 95.1533 27.8219C94.6633 28.0228 94.154 28.1673 93.6253 28.2554L93.3081 26.9336ZM95.7084 21.118C95.6168 21.118 95.5181 21.1568 95.4123 21.2343C95.3066 21.3118 95.2097 21.4123 95.1215 21.5357C95.0334 21.6555 94.9594 21.7894 94.8995 21.9375C94.8431 22.0855 94.8149 22.23 94.8149 22.371C94.8149 22.519 94.8484 22.6424 94.9154 22.7411C94.9858 22.8398 95.074 22.9191 95.1797 22.979C95.289 23.0389 95.4106 23.0847 95.5445 23.1165C95.682 23.1447 95.8177 23.164 95.9516 23.1746C96.0256 23.1817 96.1067 23.187 96.1948 23.1905C96.2829 23.1905 96.3728 23.1922 96.4644 23.1958C96.5596 23.1993 96.653 23.2011 96.7446 23.2011C96.8363 23.2011 96.9226 23.2011 97.0037 23.2011C96.9931 23.0706 96.9667 22.9297 96.9244 22.7781C96.8856 22.623 96.8345 22.4679 96.7711 22.3128C96.7076 22.1578 96.6354 22.0097 96.5543 21.8687C96.4732 21.7242 96.3851 21.5973 96.29 21.4881C96.1983 21.3753 96.1032 21.2854 96.0045 21.2184C95.9058 21.1515 95.8071 21.118 95.7084 21.118ZM98.374 23.2011H98.76C98.8868 23.2011 99.0049 23.1905 99.1142 23.1693C99.2235 23.1482 99.3204 23.1041 99.405 23.0372C99.4896 22.9667 99.5583 22.8697 99.6112 22.7464C99.664 22.623 99.6975 22.4574 99.7116 22.2494C99.7116 22.1683 99.7134 22.0273 99.7169 21.8264C99.7239 21.622 99.7292 21.3806 99.7328 21.1021C99.7363 20.8202 99.7398 20.5118 99.7433 20.1769C99.7469 19.8421 99.7486 19.5002 99.7486 19.1512C99.7486 18.8798 99.7469 18.6137 99.7433 18.3529C99.7433 18.0886 99.7398 17.8348 99.7328 17.5916C99.7292 17.3484 99.7204 17.1193 99.7063 16.9043C99.6958 16.6893 99.6799 16.4937 99.6587 16.3174L101.007 16.143C101.032 16.3333 101.051 16.5483 101.065 16.788C101.079 17.0276 101.09 17.2832 101.097 17.5546C101.107 17.8225 101.113 18.1044 101.113 18.4005C101.116 18.693 101.118 18.9891 101.118 19.2887C101.118 19.9549 101.111 20.5347 101.097 21.0281C101.086 21.5216 101.081 21.9586 101.081 22.3393C101.081 22.6072 101.15 22.8186 101.287 22.9737C101.425 23.1253 101.629 23.2011 101.9 23.2011H102.017V24.5545H101.9C101.879 24.5545 101.86 24.5545 101.842 24.5545C101.705 24.5545 101.569 24.5422 101.435 24.5175C101.305 24.4964 101.178 24.4629 101.054 24.4171C100.935 24.3748 100.824 24.3236 100.721 24.2637C100.619 24.2038 100.529 24.1421 100.452 24.0787C100.35 24.1774 100.237 24.2584 100.113 24.3219C99.9936 24.3818 99.8702 24.4294 99.7433 24.4646C99.6164 24.4999 99.4913 24.5228 99.368 24.5334C99.2446 24.5475 99.1336 24.5545 99.0349 24.5545H98.374V23.2011ZM101.806 23.2011H102.657C102.823 23.2011 102.992 23.1922 103.165 23.1746C103.341 23.1535 103.499 23.1129 103.64 23.053C103.781 22.9896 103.896 22.8997 103.984 22.7834C104.076 22.6671 104.122 22.512 104.122 22.3181C104.122 22.2265 104.102 22.0978 104.063 21.9322C104.025 21.7665 103.974 21.5832 103.91 21.3823C103.847 21.1814 103.771 20.9735 103.683 20.7585C103.598 20.5435 103.508 20.3426 103.413 20.1558L104.634 19.5531C104.723 19.754 104.811 19.9672 104.899 20.1928C104.987 20.4184 105.064 20.651 105.131 20.8907C105.202 21.1268 105.258 21.3647 105.301 21.6044C105.343 21.8441 105.364 22.0785 105.364 22.3076C105.364 22.7023 105.297 23.0424 105.163 23.3279C105.029 23.6099 104.842 23.8425 104.603 24.0258C104.363 24.2056 104.076 24.3377 103.741 24.4223C103.41 24.5105 103.045 24.5545 102.647 24.5545H101.806V23.2011ZM104.508 17.7608L103.492 18.7759L102.483 17.7608L103.492 16.751L104.508 17.7608ZM107.808 16.143C107.896 16.8162 107.958 17.4594 107.993 18.0727C108.028 18.6825 108.049 19.2799 108.056 19.865C108.063 20.362 108.065 20.8219 108.062 21.2449C108.062 21.6678 108.058 22.0626 108.051 22.4292C108.044 22.7922 108.033 23.1323 108.019 23.4495C108.005 23.7632 107.991 24.0575 107.977 24.3325L106.592 24.5439C106.666 23.3808 106.703 22.3534 106.703 21.4616C106.703 21.1021 106.698 20.7655 106.687 20.4518C106.659 19.7293 106.627 19.0508 106.592 18.4164C106.557 17.7784 106.509 17.1686 106.449 16.5871L107.808 16.143ZM109.478 22.4767C109.612 22.5613 109.772 22.6477 109.959 22.7358C110.149 22.8239 110.345 22.9032 110.546 22.9737C110.75 23.0442 110.949 23.1024 111.143 23.1482C111.34 23.194 111.513 23.2169 111.661 23.2169C111.721 23.2169 111.795 23.2152 111.883 23.2116C111.971 23.2081 112.065 23.2011 112.163 23.1905C112.262 23.1764 112.361 23.157 112.459 23.1323C112.558 23.1041 112.646 23.0671 112.724 23.0213C112.805 22.972 112.87 22.912 112.919 22.8415C112.969 22.7675 112.995 22.6776 112.999 22.5719C112.999 22.5649 112.999 22.5596 112.999 22.556C112.999 22.4151 112.958 22.2564 112.877 22.0802C112.8 21.9005 112.692 21.7137 112.555 21.5198C112.417 21.3224 112.259 21.125 112.079 20.9277C111.899 20.7303 111.712 20.5417 111.518 20.362C111.324 20.1787 111.129 20.0113 110.931 19.8597C110.738 19.7046 110.556 19.5742 110.387 19.4685L111.175 18.3C111.499 18.5221 111.818 18.7723 112.132 19.0508C112.449 19.3292 112.74 19.6271 113.004 19.9443C113.272 20.258 113.503 20.5858 113.697 20.9277C113.894 21.2696 114.035 21.615 114.12 21.9639C114.165 22.1648 114.188 22.3569 114.188 22.5402C114.188 22.7164 114.155 22.9279 114.088 23.1746C114.024 23.4213 113.878 23.6645 113.649 23.9042C113.42 24.1404 113.129 24.3219 112.777 24.4488C112.474 24.558 112.14 24.6127 111.777 24.6127C111.717 24.6127 111.656 24.6109 111.592 24.6074C111.36 24.6074 111.124 24.5845 110.884 24.5387C110.644 24.4964 110.408 24.4364 110.175 24.3589C109.946 24.2814 109.724 24.1932 109.509 24.0945C109.298 23.9923 109.1 23.8848 108.917 23.772L109.478 22.4767Z" fill="#4F4F4F"/>
<defs>
<linearGradient id="paint0_linear" x1="129.253" y1="12.2061" x2="117.044" y2="24.4158" gradientUnits="userSpaceOnUse">
<stop stop-color="#00A0FF"/>
<stop offset="0.00657445" stop-color="#00A1FF"/>
<stop offset="0.2601" stop-color="#00BEFF"/>
<stop offset="0.5122" stop-color="#00D2FF"/>
<stop offset="0.7604" stop-color="#00DFFF"/>
<stop offset="1" stop-color="#00E3FF"/>
</linearGradient>
<linearGradient id="paint1_linear" x1="138.006" y1="20.4212" x2="120.402" y2="20.4212" gradientUnits="userSpaceOnUse">
<stop stop-color="#FFE000"/>
<stop offset="0.4087" stop-color="#FFBD00"/>
<stop offset="0.7754" stop-color="#FFA500"/>
<stop offset="1" stop-color="#FF9C00"/>
</linearGradient>
<linearGradient id="paint2_linear" x1="131.453" y1="22.0906" x2="114.896" y2="38.6479" gradientUnits="userSpaceOnUse">
<stop stop-color="#FF3A44"/>
<stop offset="1" stop-color="#C31162"/>
</linearGradient>
<linearGradient id="paint3_linear" x1="118.699" y1="5.99765" x2="126.093" y2="13.3912" gradientUnits="userSpaceOnUse">
<stop stop-color="#32A071"/>
<stop offset="0.0685" stop-color="#2DA771"/>
<stop offset="0.4762" stop-color="#15CF74"/>
<stop offset="0.8009" stop-color="#06E775"/>
<stop offset="1" stop-color="#00F076"/>
</linearGradient>
</defs>
</svg>
