<svg width="70" height="70" viewBox="0 0 70 70" fill="none" xmlns="http://www.w3.org/2000/svg">
<path d="M64.1439 15.7454C63.0112 16.5078 61.6472 16.9531 60.1791 16.9531C56.2527 16.9531 53.0697 13.7702 53.0697 9.84375C53.0697 5.91732 56.2527 2.73438 60.1791 2.73438C61.6472 2.73438 63.0112 3.17967 64.1439 3.94201C62.2472 5.21869 60.9994 7.38541 60.9994 9.84375C60.9994 12.3021 62.2472 14.4687 64.1439 15.7454ZM60.9766 34.5898C60.9766 32.1315 62.2244 29.9649 64.1211 28.6881C62.9884 27.9256 61.6243 27.4805 60.1562 27.4805C56.2298 27.4805 53.0469 30.6634 53.0469 34.5898C53.0469 38.5163 56.2298 41.6992 60.1562 41.6992C61.6243 41.6992 62.9884 41.2539 64.1211 40.4916C62.2244 39.2148 60.9766 37.0482 60.9766 34.5898ZM60.9766 60.1562C60.9766 57.6979 62.2244 55.5313 64.1211 54.2545C62.9884 53.492 61.6243 53.0469 60.1562 53.0469C56.2298 53.0469 53.0469 56.2298 53.0469 60.1562C53.0469 64.0827 56.2298 67.2656 60.1562 67.2656C61.6243 67.2656 62.9884 66.8203 64.1211 66.058C62.2244 64.7812 60.9766 62.6146 60.9766 60.1562ZM15.8627 64.0649C15.8627 52.5 10.9375 46.4844 10.9375 46.4844V34.9513C10.9375 30.9042 13.4993 27.4555 17.0898 26.1382C16.0821 25.7685 14.9933 25.5664 13.8573 25.5664H12.1193C6.93615 25.5664 2.73438 29.7682 2.73438 34.9513V46.4844C2.73438 46.4844 7.65953 52.5 7.65953 64.0649C7.65953 65.8818 9.32928 67.2656 11.1461 67.2656H14.8304C15.6636 67.2656 16.4653 66.974 17.0898 66.4836C16.3527 65.9047 15.8627 65.0486 15.8627 64.0649Z" fill="#C4F0F5"/>
<path d="M60.1562 44.5703C54.7284 44.5703 50.3125 40.1544 50.3125 34.7266C50.3125 29.2987 54.7284 24.8828 60.1562 24.8828C65.5841 24.8828 70 29.2987 70 34.7266C70 40.1544 65.5841 44.5703 60.1562 44.5703ZM60.1562 30.3516C57.7438 30.3516 55.7812 32.3142 55.7812 34.7266C55.7812 37.139 57.7438 39.1016 60.1562 39.1016C62.5687 39.1016 64.5312 37.139 64.5312 34.7266C64.5312 32.3142 62.5687 30.3516 60.1562 30.3516ZM60.1562 19.6875C54.7284 19.6875 50.3125 15.2716 50.3125 9.84375C50.3125 4.41588 54.7284 0 60.1562 0C65.5841 0 70 4.41588 70 9.84375C70 15.2716 65.5841 19.6875 60.1562 19.6875ZM60.1562 5.46875C57.7438 5.46875 55.7812 7.43135 55.7812 9.84375C55.7812 12.2562 57.7438 14.2188 60.1562 14.2188C62.5687 14.2188 64.5312 12.2562 64.5312 9.84375C64.5312 7.43135 62.5687 5.46875 60.1562 5.46875ZM14.8304 70H11.1461C7.71586 70 4.92516 67.3375 4.92516 64.0649C4.92516 53.7646 0.661719 48.2692 0.618652 48.2166C0.218613 47.728 0 47.1159 0 46.4844V34.9513C0 28.2688 5.43676 22.832 12.1193 22.832H13.8573C20.5398 22.832 25.9766 28.2688 25.9766 34.9513V46.4844C25.9766 47.1253 25.7748 47.7177 25.3642 48.2091C25.1907 48.4333 21.0514 53.9103 21.0514 64.0649C21.0514 67.3375 18.2607 70 14.8304 70ZM5.46875 45.609C6.92057 47.7865 10.3938 54.0437 10.3938 64.0649C10.3938 64.2448 10.738 64.5312 11.146 64.5312H14.8303C15.2383 64.5312 15.5825 64.2448 15.5825 64.0649C15.5825 54.0438 19.0559 47.7865 20.5077 45.609V34.9513C20.5078 31.2843 17.5243 28.3008 13.8573 28.3008H12.1193C8.45223 28.3008 5.46875 31.2843 5.46875 34.9513V45.609ZM23.2422 46.4844H23.2436H23.2422ZM12.8516 18.5938C7.72529 18.5938 3.55469 14.4231 3.55469 9.29688C3.55469 4.17061 7.72529 0 12.8516 0C17.9778 0 22.1484 4.17061 22.1484 9.29688C22.1484 14.4231 17.9778 18.5938 12.8516 18.5938ZM12.8516 5.46875C10.7408 5.46875 9.02344 7.18607 9.02344 9.29688C9.02344 11.4077 10.7408 13.125 12.8516 13.125C14.9624 13.125 16.6797 11.4077 16.6797 9.29688C16.6797 7.18607 14.9624 5.46875 12.8516 5.46875ZM60.1562 70C54.7284 70 50.3125 65.5841 50.3125 60.1562C50.3125 54.7284 54.7284 50.3125 60.1562 50.3125C65.5841 50.3125 70 54.7284 70 60.1562C70 65.5841 65.5841 70 60.1562 70ZM60.1562 55.7812C57.7438 55.7812 55.7812 57.7438 55.7812 60.1562C55.7812 62.5687 57.7438 64.5312 60.1562 64.5312C62.5687 64.5312 64.5312 62.5687 64.5312 60.1562C64.5312 57.7438 62.5687 55.7812 60.1562 55.7812Z" fill="#15BBCC"/>
<path d="M42.7926 57.5586C39.7337 57.5586 37.2451 55.0699 37.2451 52.0111V37.4609H42.5192C44.0294 37.4609 45.2536 36.2368 45.2536 34.7266C45.2536 33.2164 44.0294 31.9922 42.5192 31.9922H37.2451V17.8522C37.2451 14.7934 39.7337 12.3047 42.7926 12.3047C44.3028 12.3047 45.527 11.0805 45.527 9.57031C45.527 8.06012 44.3028 6.83594 42.7926 6.83594C36.7182 6.83594 31.7764 11.7778 31.7764 17.8522V52.0111C31.7764 58.0855 36.7182 63.0273 42.7926 63.0273C44.3028 63.0273 45.527 61.8032 45.527 60.293C45.527 58.7828 44.3028 57.5586 42.7926 57.5586Z" fill="#EB384D"/>
</svg>
