<svg width="24" height="24" viewBox="0 0 24 24" fill="none" xmlns="http://www.w3.org/2000/svg">
<path fill-rule="evenodd" clip-rule="evenodd" d="M0.743174 16.2133C0.658846 16.1287 0.574518 15.951 0.481757 15.7818C0.397429 15.4348 0.481757 15.0964 0.650413 14.8341C0.91183 14.5718 1.24914 14.3179 1.76354 14.1487C2.10929 14.0641 2.53936 13.9795 3.05376 13.8864C3.99823 13.8018 4.94271 13.8864 5.37278 13.8864H5.45711L9.83373 9.06331L2.04072 5.5997L1.25757 6.39793C0.996158 6.66024 0.481757 6.66024 0.228773 6.39793C-0.0326435 6.13563 -0.116972 5.61947 0.228773 5.36563L3.14652 2.43794C3.49227 2.09102 4.00667 1.92179 4.52107 2.00641L6.663 2.42948L8.03755 1.05026C8.29896 0.787949 8.81336 0.787949 9.06635 1.05026C9.32776 1.31256 9.41209 1.82872 9.06635 2.08256L8.38329 2.68333L10.7023 3.11487L12.1612 1.73564C12.3298 1.56641 12.5724 1.56641 12.6756 1.56641C12.9011 1.5664 13.0411 1.6594 13.19 1.82872C13.4562 2.13153 13.5357 2.60717 13.19 2.86102L12.5069 3.46179L15.256 3.97794H15.4247C18.3424 0.534104 21.4373 -0.328971 23.1491 0.102566C23.3178 0.187182 23.4949 0.271797 23.6635 0.364873C23.8322 0.534104 23.9249 0.711796 23.9249 0.881026C24.2707 2.60717 23.4949 5.70409 20.0627 8.63177V8.71639L20.5771 11.4748L21.2602 10.7895C21.5216 10.5272 22.036 10.5272 22.289 10.7895C22.5504 11.0518 22.6347 11.5679 22.289 11.8218L20.8301 13.2856L21.2602 15.6125L21.9432 14.9271C22.2047 14.6648 22.7191 14.6648 22.972 14.9271C23.225 15.1894 23.3178 15.7056 22.972 15.9594L21.5975 17.3387L22.0276 19.4964C22.1119 20.0125 21.9432 20.5287 21.5975 20.8756L18.6797 23.8033C18.4183 24.0656 17.9039 24.0656 17.6509 23.8033C17.3895 23.541 17.3281 23.0936 17.6509 22.771L20.5687 19.8433L18.5111 8.98716C18.4268 8.38639 18.5954 7.87024 19.0255 7.52332C22.289 4.68025 22.4576 2.26871 22.4576 1.58333V1.49872H22.3733C21.6903 1.49872 19.2869 1.66795 16.4535 4.94255C16.1077 5.37409 15.509 5.54332 14.9103 5.45871L4.17532 3.37717L3.06219 4.57871L10.9637 8.02254C11.1324 8.10716 11.2251 8.19178 11.3095 8.28485C11.7395 8.71639 11.7395 9.40177 11.3938 9.83331L6.50278 15.1725C6.24136 15.4348 5.90405 15.5194 5.5583 15.5194C5.21256 15.5194 4.26809 15.4348 3.23928 15.4348C3.07063 15.4348 2.97787 15.4348 2.80921 15.5194H2.54779L6.24136 17.4148C6.32569 17.4994 6.41002 17.4994 6.50278 17.5841C6.5871 17.6687 6.67143 17.7533 6.67143 17.8464L8.56038 21.5525L8.64471 21.2056C8.64471 21.0364 8.64471 20.9433 8.72904 20.774C8.81336 19.8264 8.72904 18.8787 8.64471 18.4471C8.64471 18.1002 8.72904 17.7617 8.99045 17.4994L14.3115 12.5918C14.7416 12.1602 15.4247 12.2448 15.8548 12.6764C15.9391 12.761 16.0234 12.9387 16.1162 13.1079L17.7437 17.5841C17.828 17.7533 17.8492 17.9752 17.7437 18.1848C17.6467 18.3776 17.5186 18.4643 17.3136 18.5317C17.019 18.6286 16.7634 18.5818 16.5088 18.4048C16.3901 18.3223 16.2764 18.1002 16.2764 18.1002L14.9018 14.2248L10.1795 18.5317V18.6164C10.2638 19.0479 10.2638 19.9956 10.1795 20.9433C10.1795 21.4594 10.0951 21.891 9.91806 22.2379C9.7494 22.754 9.57232 23.101 9.235 23.3548C8.97359 23.6171 8.63628 23.7017 8.29053 23.524C8.12187 23.4394 7.94479 23.3548 7.86046 23.2617C7.77613 23.2617 7.77613 23.1771 7.6918 23.0925L5.45711 18.701L0.996158 16.3741C0.91183 16.2979 0.827502 16.2979 0.743174 16.2133Z" fill="#EB384D"/>
</svg>
