<svg width="172" height="40" viewBox="0 0 172 40" fill="none" xmlns="http://www.w3.org/2000/svg">
<rect x="0.5" y="0.5" width="171" height="39" rx="14.5" stroke="#444444"/>
<path d="M34.7398 17.5883C32.8494 17.5883 31.3169 18.9503 31.3169 20.8361C31.3169 22.7045 32.8586 24.0839 34.7398 24.0839C36.6211 24.0839 38.1628 22.7045 38.1628 20.8361C38.1719 18.9503 36.6302 17.5883 34.7398 17.5883ZM34.7398 22.8005C33.7028 22.8005 32.8127 21.9886 32.8127 20.8361C32.8127 19.6662 33.7028 18.8717 34.7398 18.8717C35.7768 18.8717 36.6669 19.6749 36.6669 20.8361C36.6669 21.9886 35.7768 22.8005 34.7398 22.8005ZM27.2699 17.5883C25.3795 17.5883 23.847 18.9503 23.847 20.8361C23.847 22.7045 25.3887 24.0839 27.2699 24.0839C29.1603 24.0839 30.6928 22.7045 30.6928 20.8361C30.702 18.9503 29.1603 17.5883 27.2699 17.5883ZM27.2699 22.8005C26.2329 22.8005 25.3428 21.9886 25.3428 20.8361C25.3428 19.6662 26.2329 18.8717 27.2699 18.8717C28.3069 18.8717 29.197 19.6749 29.197 20.8361C29.197 21.9886 28.3069 22.8005 27.2699 22.8005ZM18.3868 18.5836V19.9631H21.8464C21.7455 20.7401 21.4702 21.2989 21.0572 21.7005C20.5525 22.1807 19.7633 22.7045 18.3868 22.7045C16.2578 22.7045 14.5876 21.0719 14.5876 19.0376C14.5876 17.0034 16.2578 15.3707 18.3868 15.3707C19.5339 15.3707 20.3781 15.7985 20.993 16.3573L22.0116 15.3882C21.149 14.6024 19.9927 14 18.3776 14C15.4594 14 13 16.2612 13 19.0376C13 21.814 15.4594 24.0752 18.3776 24.0752C19.956 24.0752 21.1398 23.5863 22.0758 22.6608C23.0302 21.7529 23.3331 20.4694 23.3331 19.4392C23.3331 19.1162 23.3055 18.8281 23.2596 18.5749H18.3868V18.5836ZM54.7269 19.6575C54.4424 18.9328 53.5798 17.5883 51.8086 17.5883C50.0467 17.5883 48.5876 18.9066 48.5876 20.8361C48.5876 22.6521 50.0375 24.0839 51.9738 24.0839C53.5339 24.0839 54.4424 23.176 54.8186 22.6434L53.6532 21.91C53.2677 22.4513 52.7355 22.8093 51.9738 22.8093C51.2121 22.8093 50.6707 22.4775 50.322 21.8227L54.8829 20.0242L54.7269 19.6575ZM50.0742 20.7401C50.0375 19.4829 51.0929 18.8455 51.8545 18.8455C52.451 18.8455 52.9557 19.1249 53.1209 19.5353L50.0742 20.7401ZM46.3668 23.8831H47.8626V14.3405H46.3668V23.8831ZM43.9166 18.313H43.8615C43.522 17.9288 42.8796 17.5883 42.0629 17.5883C40.356 17.5883 38.796 19.0114 38.796 20.8449C38.796 22.6608 40.356 24.0752 42.0629 24.0752C42.8796 24.0752 43.522 23.7347 43.8615 23.3418H43.9166V23.8133C43.9166 25.0531 43.2192 25.7166 42.0904 25.7166C41.1727 25.7166 40.6038 25.088 40.3744 24.5641L39.0713 25.0792C39.4475 25.9436 40.4386 27 42.0996 27C43.8615 27 45.339 26.0134 45.339 23.6212V17.7979H43.9166V18.313ZM42.1914 22.8005C41.1544 22.8005 40.2918 21.9799 40.2918 20.8449C40.2918 19.7011 41.1544 18.863 42.1914 18.863C43.21 18.863 44.0175 19.7011 44.0175 20.8449C44.0175 21.9799 43.2192 22.8005 42.1914 22.8005ZM61.7563 14.3405H58.1682V23.8831H59.664V20.2686H61.7563C63.4173 20.2686 65.0416 19.1249 65.0416 17.3089C65.0416 15.4929 63.4081 14.3405 61.7563 14.3405ZM61.793 18.9416H59.664V15.6676H61.793C62.9126 15.6676 63.5458 16.5494 63.5458 17.3002C63.5458 18.0423 62.9126 18.9416 61.793 18.9416ZM71.0432 17.5709C69.9603 17.5709 68.8408 18.0248 68.3727 19.0289L69.7034 19.5527C69.9879 19.0289 70.5201 18.8543 71.0707 18.8543C71.8416 18.8543 72.6308 19.2995 72.6491 20.0853V20.1813C72.3738 20.0329 71.7957 19.8146 71.0891 19.8146C69.6575 19.8146 68.1984 20.5655 68.1984 21.9624C68.1984 23.2371 69.373 24.0578 70.6853 24.0578C71.6947 24.0578 72.2453 23.63 72.5941 23.1236H72.6491V23.857H74.0899V20.1988C74.0807 18.5138 72.7592 17.5709 71.0432 17.5709ZM70.8597 22.8005C70.3733 22.8005 69.685 22.5648 69.685 21.9886C69.685 21.2552 70.5385 20.9671 71.2726 20.9671C71.9333 20.9671 72.2362 21.0981 72.6399 21.2901C72.5206 22.1719 71.7223 22.8005 70.8597 22.8005ZM79.3482 17.7804L77.6321 21.9187H77.5771L75.7968 17.7804H74.1816L76.8521 23.5601L75.3287 26.773H76.8888L81 17.7804H79.3482ZM65.8675 23.8831H67.3633V14.3405H65.8675V23.8831Z" fill="#444444"/>
<path d="M139.472 7.3991C139.182 7.7091 139.012 8.1891 139.012 8.7991V30.9191C139.012 31.5391 139.182 32.0191 139.472 32.3191L139.542 32.3891L151.932 20.0091V19.8591V19.7091L139.542 7.3291L139.472 7.3991Z" fill="url(#paint0_linear)"/>
<path d="M156.06 24.1386L151.93 20.0086V19.8586V19.7086L156.06 15.5786L156.15 15.6286L161.04 18.4086C162.44 19.1986 162.44 20.4986 161.04 21.2986L156.15 24.0786L156.06 24.1386Z" fill="url(#paint1_linear)"/>
<path d="M156.149 24.0789L151.929 19.8589L139.469 32.3189C139.929 32.8089 140.689 32.8689 141.549 32.3789L156.149 24.0789Z" fill="url(#paint2_linear)"/>
<path d="M156.151 15.6389L141.541 7.33887C140.681 6.84887 139.921 6.90887 139.461 7.39887L151.931 19.8589L156.151 15.6389Z" fill="url(#paint3_linear)"/>
<path opacity="0.2" d="M156.063 23.9888L141.543 32.2388C140.733 32.6988 140.003 32.6688 139.543 32.2488L139.473 32.3188L139.543 32.3888C140.013 32.8088 140.733 32.8388 141.543 32.3788L156.153 24.0788L156.063 23.9888Z" fill="black"/>
<path opacity="0.12" d="M139.472 32.1788C139.182 31.8688 139.012 31.3888 139.012 30.7788V30.9288C139.012 31.5488 139.182 32.0288 139.472 32.3288L139.542 32.2588L139.472 32.1788Z" fill="black"/>
<path opacity="0.12" d="M161.041 21.1589L156.051 23.9889L156.141 24.0789L161.031 21.2989C161.731 20.8989 162.081 20.3789 162.081 19.8589C162.031 20.3289 161.681 20.7989 161.041 21.1589Z" fill="black"/>
<path opacity="0.25" d="M141.54 7.47883L161.04 18.5588C161.67 18.9188 162.03 19.3788 162.09 19.8588C162.09 19.3388 161.74 18.8088 161.04 18.4188L141.54 7.33882C140.14 6.54882 139 7.20882 139 8.80883V8.95882C139 7.34882 140.15 6.68883 141.54 7.47883Z" fill="white"/>
<path d="M88.6071 19.9035C88.6923 20.1551 88.7816 20.431 88.8749 20.7313C88.9723 21.0275 89.0596 21.3319 89.1367 21.6443C89.2178 21.9568 89.2848 22.2693 89.3375 22.5817C89.3903 22.8901 89.4167 23.1803 89.4167 23.4522C89.4167 23.8336 89.3639 24.2049 89.2584 24.5661C89.157 24.9313 89.0109 25.2843 88.8201 25.6252C88.6335 25.9661 88.4103 26.2928 88.1506 26.6052C87.8909 26.9177 87.6028 27.2119 87.2862 27.4878C86.9697 27.7678 86.6309 28.0255 86.2697 28.2609C85.9085 28.5003 85.5352 28.7154 85.1497 28.9061L84.0419 27.3661C84.3341 27.22 84.6303 27.0536 84.9306 26.867C85.2268 26.6843 85.5109 26.4875 85.7828 26.2765C86.0587 26.0655 86.3143 25.8443 86.5497 25.613C86.7891 25.3817 86.9961 25.1464 87.1706 24.907C87.3491 24.6675 87.4891 24.4241 87.5906 24.1765C87.692 23.933 87.7428 23.6936 87.7428 23.4583C87.7428 23.2878 87.7184 23.1032 87.6697 22.9043C87.6251 22.7055 87.5622 22.4925 87.481 22.2652C87.3999 22.0339 87.3045 21.7904 87.1949 21.5348C87.0894 21.2751 86.9738 20.9991 86.848 20.707L88.6071 19.9035ZM87.5723 18.7165L86.221 17.3652L87.5723 16.0139L88.9236 17.3652L87.5723 18.7165ZM90.6732 24.3835C90.6935 24.0507 90.7137 23.7058 90.734 23.3487C90.7543 22.9916 90.7706 22.6386 90.7827 22.2896C90.799 21.9406 90.8091 21.6017 90.8132 21.273C90.8172 20.9443 90.8132 20.642 90.801 20.3661C90.7766 19.7899 90.7523 19.2846 90.728 18.8504C90.7077 18.4122 90.6853 18.0246 90.661 17.6878C90.6407 17.351 90.6184 17.0568 90.594 16.8052C90.5737 16.5496 90.5514 16.3162 90.5271 16.1052C90.5027 15.8942 90.4764 15.6974 90.448 15.5148C90.4195 15.3281 90.3891 15.1354 90.3566 14.9365L92.2375 14.3157C92.3268 14.8594 92.3978 15.4072 92.4506 15.9591C92.5074 16.511 92.55 17.0406 92.5784 17.5478C92.6068 18.051 92.6251 18.5197 92.6332 18.9539C92.6453 19.3881 92.6514 19.7594 92.6514 20.0678C92.6514 20.3478 92.6494 20.6501 92.6453 20.9748C92.6453 21.2994 92.6413 21.6362 92.6332 21.9852C92.6291 22.3342 92.621 22.6872 92.6088 23.0443C92.5966 23.4014 92.5784 23.7504 92.554 24.0913L90.6732 24.3835ZM98.2642 21.5226C98.4347 21.6322 98.6335 21.7417 98.8608 21.8513C99.0921 21.9609 99.3274 22.0623 99.5669 22.1557C99.8103 22.2449 100.046 22.318 100.273 22.3748C100.5 22.4316 100.697 22.46 100.863 22.46C100.957 22.46 101.085 22.4519 101.247 22.4357C101.413 22.4194 101.576 22.389 101.734 22.3443C101.896 22.2957 102.036 22.2287 102.154 22.1435C102.276 22.0583 102.34 21.9467 102.349 21.8087C102.353 21.6504 102.304 21.4719 102.203 21.273C102.105 21.0742 101.971 20.8672 101.801 20.6522C101.634 20.433 101.44 20.2139 101.216 19.9948C100.997 19.7716 100.77 19.5586 100.535 19.3557C100.299 19.1487 100.064 18.958 99.8286 18.7835C99.5932 18.6049 99.3761 18.4528 99.1773 18.327L100.255 16.7261C100.648 17.002 101.038 17.3125 101.423 17.6574C101.813 17.9983 102.17 18.3594 102.495 18.7409C102.823 19.1223 103.107 19.518 103.347 19.9278C103.59 20.3336 103.765 20.7435 103.87 21.1574C103.903 21.2751 103.925 21.3948 103.937 21.5165C103.949 21.6342 103.956 21.7478 103.956 21.8574C103.956 22.2348 103.883 22.5817 103.736 22.8983C103.59 23.2107 103.385 23.4826 103.122 23.7139C102.862 23.9412 102.549 24.1177 102.184 24.2435C101.819 24.3693 101.417 24.4322 100.979 24.4322C100.947 24.4322 100.914 24.4301 100.882 24.4261C100.849 24.4261 100.817 24.4261 100.784 24.4261C100.504 24.4261 100.216 24.3957 99.9199 24.3348C99.6277 24.278 99.3376 24.2009 99.0495 24.1035C98.7654 24.0061 98.4874 23.8925 98.2156 23.7626C97.9477 23.6328 97.6982 23.4968 97.4669 23.3548L98.2642 21.5226ZM104.342 26.7817C104.914 26.6681 105.436 26.5241 105.907 26.3496C106.377 26.1791 106.789 25.9864 107.142 25.7713C107.499 25.5603 107.794 25.3351 108.025 25.0957C108.26 24.8562 108.427 24.6128 108.524 24.3652C108.35 24.3652 108.165 24.3612 107.97 24.353C107.775 24.349 107.615 24.3429 107.489 24.3348C107.088 24.3023 106.722 24.2252 106.394 24.1035C106.065 23.9858 105.781 23.8235 105.541 23.6165C105.306 23.4055 105.123 23.1499 104.994 22.8496C104.864 22.5493 104.799 22.2043 104.799 21.8148C104.799 21.5672 104.825 21.3136 104.878 21.0539C104.931 20.7942 105.006 20.5406 105.103 20.293C105.205 20.0455 105.328 19.8122 105.474 19.593C105.625 19.3739 105.793 19.1812 105.98 19.0148C106.166 18.8484 106.371 18.7186 106.594 18.6252C106.822 18.5278 107.065 18.4791 107.325 18.4791C107.633 18.4791 107.917 18.5359 108.177 18.6496C108.437 18.7591 108.674 18.9093 108.889 19.1C109.108 19.2907 109.301 19.5159 109.468 19.7757C109.638 20.0313 109.784 20.3072 109.906 20.6035C110.032 20.8957 110.133 21.2 110.21 21.5165C110.291 21.829 110.348 22.1374 110.381 22.4417H110.642V24.3652H110.253C110.094 24.9617 109.841 25.5014 109.492 25.9843C109.147 26.4713 108.733 26.8954 108.25 27.2565C107.767 27.6177 107.23 27.9159 106.637 28.1513C106.049 28.3867 105.434 28.553 104.793 28.6504L104.342 26.7817ZM107.325 20.4087C107.24 20.3925 107.142 20.4229 107.033 20.5C106.923 20.573 106.822 20.6745 106.728 20.8043C106.635 20.9301 106.556 21.0701 106.491 21.2243C106.426 21.3786 106.396 21.5267 106.4 21.6687C106.404 21.8067 106.448 21.9203 106.534 22.0096C106.619 22.0988 106.728 22.1739 106.862 22.2348C106.996 22.2916 107.146 22.3342 107.313 22.3626C107.483 22.391 107.652 22.4113 107.818 22.4235C107.984 22.4357 108.141 22.4417 108.287 22.4417H108.664C108.603 22.1901 108.53 21.9487 108.445 21.7174C108.364 21.4861 108.268 21.2791 108.159 21.0965C108.049 20.9139 107.925 20.7617 107.788 20.64C107.65 20.5183 107.495 20.4412 107.325 20.4087ZM110.394 22.4417H110.79C110.972 22.4417 111.126 22.4133 111.252 22.3565C111.382 22.2957 111.488 22.2125 111.569 22.107C111.654 21.9974 111.715 21.8696 111.751 21.7235C111.792 21.5774 111.812 21.4171 111.812 21.2426C111.816 21.0032 111.818 20.713 111.818 20.3722C111.818 20.0272 111.816 19.658 111.812 19.2643C111.808 18.8667 111.802 18.4568 111.794 18.0348C111.786 17.6087 111.776 17.1948 111.763 16.793C111.751 16.3872 111.739 16.0038 111.727 15.6426C111.715 15.2774 111.703 14.9588 111.69 14.687L113.626 14.3339L113.693 21.6322C113.693 21.8838 113.756 22.0826 113.882 22.2287C114.012 22.3707 114.202 22.4417 114.454 22.4417H114.588V24.3652H114.454C114.288 24.3693 114.119 24.3551 113.949 24.3226C113.782 24.2901 113.624 24.2435 113.474 24.1826C113.324 24.1258 113.19 24.0568 113.072 23.9757C112.954 23.8945 112.863 23.8072 112.798 23.7139C112.713 23.8194 112.614 23.9128 112.5 23.9939C112.386 24.0751 112.248 24.142 112.086 24.1948C111.928 24.2516 111.741 24.2942 111.526 24.3226C111.311 24.351 111.061 24.3652 110.777 24.3652H110.394V22.4417ZM114.345 22.4417H115.167C115.337 22.4417 115.524 22.4275 115.727 22.3991C115.934 22.3707 116.124 22.3261 116.299 22.2652C116.478 22.2003 116.626 22.1151 116.743 22.0096C116.865 21.9 116.926 21.7661 116.926 21.6078C116.926 21.5104 116.898 21.3664 116.841 21.1757C116.784 20.9809 116.709 20.7658 116.615 20.5304C116.522 20.291 116.417 20.0414 116.299 19.7817C116.181 19.522 116.064 19.2745 115.946 19.0391L117.687 18.1748C117.8 18.4304 117.912 18.7023 118.022 18.9904C118.135 19.2786 118.237 19.5707 118.326 19.867C118.415 20.1632 118.486 20.4594 118.539 20.7557C118.596 21.0478 118.624 21.3278 118.624 21.5957C118.624 22.0826 118.543 22.5006 118.381 22.8496C118.218 23.1986 117.991 23.4867 117.699 23.7139C117.407 23.9371 117.058 24.1014 116.652 24.207C116.246 24.3125 115.8 24.3652 115.313 24.3652H114.345V22.4417ZM116.287 17.5357L114.935 16.1843L116.287 14.833L117.638 16.1843L116.287 17.5357ZM119.74 24.3835C119.76 24.0507 119.78 23.7058 119.8 23.3487C119.821 22.9916 119.837 22.6386 119.849 22.2896C119.865 21.9406 119.876 21.6017 119.88 21.273C119.884 20.9443 119.88 20.642 119.867 20.3661C119.843 19.7899 119.819 19.2846 119.794 18.8504C119.774 18.4122 119.752 18.0246 119.727 17.6878C119.707 17.351 119.685 17.0568 119.66 16.8052C119.64 16.5496 119.618 16.3162 119.593 16.1052C119.569 15.8942 119.543 15.6974 119.514 15.5148C119.486 15.3281 119.456 15.1354 119.423 14.9365L121.304 14.3157C121.393 14.8594 121.464 15.4072 121.517 15.9591C121.574 16.511 121.616 17.0406 121.645 17.5478C121.673 18.051 121.691 18.5197 121.7 18.9539C121.712 19.3881 121.718 19.7594 121.718 20.0678C121.718 20.3478 121.716 20.6501 121.712 20.9748C121.712 21.2994 121.708 21.6362 121.7 21.9852C121.696 22.3342 121.687 22.6872 121.675 23.0443C121.663 23.4014 121.645 23.7504 121.62 24.0913L119.74 24.3835ZM123.092 21.5226C123.263 21.6322 123.462 21.7417 123.689 21.8513C123.92 21.9609 124.156 22.0623 124.395 22.1557C124.638 22.2449 124.874 22.318 125.101 22.3748C125.328 22.4316 125.525 22.46 125.692 22.46C125.785 22.46 125.913 22.4519 126.075 22.4357C126.241 22.4194 126.404 22.389 126.562 22.3443C126.724 22.2957 126.864 22.2287 126.982 22.1435C127.104 22.0583 127.169 21.9467 127.177 21.8087C127.181 21.6504 127.132 21.4719 127.031 21.273C126.933 21.0742 126.799 20.8672 126.629 20.6522C126.463 20.433 126.268 20.2139 126.045 19.9948C125.825 19.7716 125.598 19.5586 125.363 19.3557C125.127 19.1487 124.892 18.958 124.657 18.7835C124.421 18.6049 124.204 18.4528 124.005 18.327L125.083 16.7261C125.476 17.002 125.866 17.3125 126.252 17.6574C126.641 17.9983 126.998 18.3594 127.323 18.7409C127.652 19.1223 127.936 19.518 128.175 19.9278C128.418 20.3336 128.593 20.7435 128.698 21.1574C128.731 21.2751 128.753 21.3948 128.765 21.5165C128.778 21.6342 128.784 21.7478 128.784 21.8574C128.784 22.2348 128.711 22.5817 128.565 22.8983C128.418 23.2107 128.214 23.4826 127.95 23.7139C127.69 23.9412 127.378 24.1177 127.012 24.2435C126.647 24.3693 126.245 24.4322 125.807 24.4322C125.775 24.4322 125.742 24.4301 125.71 24.4261C125.677 24.4261 125.645 24.4261 125.612 24.4261C125.332 24.4261 125.044 24.3957 124.748 24.3348C124.456 24.278 124.166 24.2009 123.878 24.1035C123.594 24.0061 123.316 23.8925 123.044 23.7626C122.776 23.6328 122.526 23.4968 122.295 23.3548L123.092 21.5226Z" fill="#444444"/>
<defs>
<linearGradient id="paint0_linear" x1="150.831" y1="8.5688" x2="134.049" y2="25.3512" gradientUnits="userSpaceOnUse">
<stop stop-color="#00A0FF"/>
<stop offset="0.00657445" stop-color="#00A1FF"/>
<stop offset="0.2601" stop-color="#00BEFF"/>
<stop offset="0.5122" stop-color="#00D2FF"/>
<stop offset="0.7604" stop-color="#00DFFF"/>
<stop offset="1" stop-color="#00E3FF"/>
</linearGradient>
<linearGradient id="paint1_linear" x1="162.864" y1="19.86" x2="138.667" y2="19.86" gradientUnits="userSpaceOnUse">
<stop stop-color="#FFE000"/>
<stop offset="0.4087" stop-color="#FFBD00"/>
<stop offset="0.7754" stop-color="#FFA500"/>
<stop offset="1" stop-color="#FF9C00"/>
</linearGradient>
<linearGradient id="paint2_linear" x1="153.856" y1="22.155" x2="131.097" y2="44.9133" gradientUnits="userSpaceOnUse">
<stop stop-color="#FF3A44"/>
<stop offset="1" stop-color="#C31162"/>
</linearGradient>
<linearGradient id="paint3_linear" x1="136.328" y1="0.0350738" x2="146.491" y2="10.1976" gradientUnits="userSpaceOnUse">
<stop stop-color="#32A071"/>
<stop offset="0.0685" stop-color="#2DA771"/>
<stop offset="0.4762" stop-color="#15CF74"/>
<stop offset="0.8009" stop-color="#06E775"/>
<stop offset="1" stop-color="#00F076"/>
</linearGradient>
</defs>
</svg>
