<svg width="23" height="21" viewBox="0 0 23 21" fill="none" xmlns="http://www.w3.org/2000/svg">
<path d="M13.6875 5.42188C13.6875 4.91406 13.2578 4.48438 12.75 4.48438C12.2031 4.48438 11.8125 4.91406 11.8125 5.42188C11.8125 5.96875 12.2031 6.35938 12.75 6.35938C13.2578 6.35938 13.6875 5.96875 13.6875 5.42188ZM12.75 14.25C12.9453 14.25 13.1406 14.1719 13.2578 14.0156C14.625 12.4531 18.2188 8.15625 18.2188 5.8125C18.2188 2.88281 15.7578 0.5 12.75 0.5C9.70312 0.5 7.24219 2.88281 7.24219 5.8125C7.24219 8.15625 10.8359 12.4531 12.2031 14.0156C12.3594 14.1719 12.5547 14.25 12.75 14.25ZM12.75 2.375C14.7422 2.375 16.3438 3.9375 16.3438 5.8125C16.3438 6.63281 15.1328 8.89844 12.75 11.75C10.3672 8.89844 9.11719 6.63281 9.11719 5.8125C9.11719 3.9375 10.7188 2.375 12.75 2.375ZM22.125 6.75C22.0469 6.75 21.9688 6.78906 21.8906 6.82812L19 7.88281C18.6875 8.66406 18.2188 9.52344 17.6719 10.3828L20.875 9.17188V16.7109L15.875 18.4688V12.8828C15.3281 13.5469 14.7812 14.2109 14.1953 14.875C14.1172 14.9141 14.0391 14.9922 14 15.0703V18.2344L9 16.4766V12.0625C8.25781 11.125 7.63281 10.1484 7.125 9.21094V16.2422H7.08594L2.125 18.0781V10.5391L6.92969 8.85938C6.61719 8.27344 6.38281 7.6875 6.22656 7.14062L1.03125 8.9375C0.5625 9.13281 0.25 9.60156 0.25 10.1094V19.875C0.25 20.2656 0.523438 20.5 0.875 20.5C0.953125 20.5 1.03125 20.5 1.10938 20.4609L7.75 18L14.4688 20.3828C14.9766 20.5391 15.5234 20.5781 16.0312 20.3828L21.9297 18.3125C22.4375 18.1562 22.75 17.6875 22.75 17.1797V7.375C22.75 7.02344 22.4375 6.75 22.125 6.75Z" fill="#EB384D"/>
</svg>
