<svg width="120" height="40" viewBox="0 0 120 40" fill="none" xmlns="http://www.w3.org/2000/svg">
<path d="M32.6247 25.0286C32.6247 25.0286 32.9631 15.5492 29.4102 9.32666" stroke="white" stroke-width="2.87173" stroke-miterlimit="10"/>
<path d="M5.21461 25.0286C5.21461 25.0286 5.55299 15.5491 2 9.32662L3.84229 13.2605C4.13994 13.8949 4.60678 14.4412 5.20521 14.8237C5.65012 15.109 6.20781 15.3306 6.82191 15.282C8.37909 15.1606 9.2877 14.2803 9.58848 13.3606C9.87046 12.5016 9.87986 9.56641 9.8078 8.98969C9.8078 8.98969 9.92373 15.6766 13.1509 15.0817C16.024 14.5505 14.3728 8.88953 14.3728 8.88953" stroke="white" stroke-width="2.87173" stroke-miterlimit="10"/>
<path d="M17.7773 24.8253C17.7773 24.8253 19.9799 18.2507 27.4086 15.2942C27.4086 15.2942 19.3032 17.9654 19.1371 13.8767C18.9836 10.0521 23.3919 9.52096 25.5099 10.4467" stroke="white" stroke-width="2.87173" stroke-miterlimit="10"/>
<path d="M66.2618 25.0284L66.1986 9.32947M45.8517 25.0284L45.7884 9.32947M40.5481 14.4957V22.9189C40.5481 24.6885 39.9184 26.4186 38.7215 27.8513C37.9915 28.7225 36.8635 29.5906 35.5664 30.5376M71.5904 14.4957V22.9189C71.5904 24.6885 70.9607 26.4186 69.7638 27.8513C69.0338 28.7225 67.9058 29.5906 66.6087 30.5376M53.6618 12.9324L60.1443 19.2126C61.8237 20.8396 60.6331 23.62 58.2613 23.62H49.6733" stroke="white" stroke-width="2.87173" stroke-miterlimit="10"/>
<path d="M103.987 23.9955C101.716 23.9955 99.8672 22.2046 99.8672 20.004C99.8672 17.8033 101.716 16.0125 103.987 16.0125C106.259 16.0125 108.107 17.8033 108.107 20.004C108.107 22.2046 106.259 23.9955 103.987 23.9955Z" fill="white"/>
<path d="M103.993 16.0844C106.226 16.0844 108.034 17.8388 108.034 20C108.034 22.1612 106.223 23.9156 103.993 23.9156C101.762 23.9156 99.9508 22.1612 99.9508 20C99.9508 17.8388 101.759 16.0844 103.993 16.0844ZM103.993 15.9326C102.871 15.9326 101.815 16.3545 101.022 17.1255C100.23 17.8935 99.791 18.9164 99.791 20.0031C99.791 21.0897 100.227 22.1126 101.022 22.8806C101.815 23.6485 102.871 24.0735 103.993 24.0735C105.114 24.0735 106.17 23.6516 106.963 22.8806C107.755 22.1126 108.194 21.0897 108.194 20.0031C108.194 18.9164 107.759 17.8935 106.963 17.1255C106.17 16.3545 105.114 15.9326 103.993 15.9326Z" fill="white"/>
<path d="M103.99 29.3297C99.6289 29.3297 95.8002 26.4794 94.6848 22.3999L94.666 22.327L97.1005 21.7018L97.1193 21.7746C97.9433 24.7857 100.769 26.8892 103.99 26.8892C107.819 26.8892 111.009 23.8751 111.096 20.1689L111.099 20.093L113.618 20.1507L113.615 20.2266C113.556 22.67 112.528 24.9587 110.72 26.6707C108.912 28.3857 106.522 29.3297 103.99 29.3297Z" fill="white"/>
<path d="M111.177 20.1702L113.539 20.2248C113.48 22.6501 112.461 24.9205 110.669 26.6173C108.874 28.3171 106.502 29.255 103.992 29.255C99.6656 29.255 95.8713 26.4291 94.7622 22.383L97.0463 21.7971C97.8797 24.8416 100.737 26.9694 103.996 26.9694C107.862 26.9633 111.086 23.9158 111.177 20.1702ZM111.026 20.0154L111.023 20.1671C110.936 23.8308 107.78 26.8146 103.996 26.8146C100.809 26.8146 98.0144 24.7354 97.1998 21.7546L97.1591 21.6089L97.0087 21.6484L94.7246 22.2342L94.5742 22.2737L94.6149 22.4194C95.7429 26.5323 99.5998 29.4038 103.996 29.4038C106.549 29.4038 108.959 28.4507 110.782 26.7235C112.602 24.9995 113.64 22.6895 113.699 20.2248L113.702 20.0731L113.546 20.07L111.183 20.0154H111.026Z" fill="white"/>
<path d="M105.941 32.1494L106.02 32.1372C112.101 31.1871 116.582 26.1606 116.672 20.187V20.1111L119.191 20.1475V20.2234C119.138 23.7019 117.813 27.059 115.454 29.6786C113.119 32.2738 109.911 34.0009 106.421 34.5473L106.342 34.5594L105.941 32.1494Z" fill="white"/>
<path d="M116.749 20.1852L119.111 20.2186C119.058 23.6789 117.739 27.0178 115.392 29.6252C113.07 32.2053 109.878 33.9264 106.406 34.4697L106.03 32.2114C112.152 31.2552 116.658 26.1983 116.749 20.1852ZM116.595 20.0334L116.592 20.1852C116.501 26.1254 112.049 31.1186 106.005 32.0626L105.852 32.0869L105.877 32.2357L106.253 34.494L106.278 34.6427L106.431 34.6184C109.94 34.0721 113.164 32.3328 115.511 29.7254C117.88 27.0907 119.214 23.7154 119.268 20.2216L119.271 20.0699L119.114 20.0668L116.752 20.0334H116.595Z" fill="white"/>
<path d="M101.484 34.5343C97.9715 33.9697 94.7569 32.2092 92.4321 29.5745C90.0791 26.9125 88.7852 23.5129 88.7852 20.0009C88.7852 18.3497 89.064 16.7288 89.6186 15.1838L89.6436 15.111L92.0248 15.9093L91.9998 15.9821C91.5392 17.2721 91.3073 18.6229 91.3073 20.004C91.3073 26.0413 95.7627 31.1407 101.9 32.1303L101.979 32.1424L101.565 34.5495L101.484 34.5343Z" fill="white"/>
<path d="M89.6947 15.2071L91.9255 15.9538C91.4618 17.2499 91.2269 18.6128 91.2269 19.9999C91.2269 26.0768 95.7104 31.2065 101.886 32.2021L101.5 34.4605C98.007 33.8989 94.8112 32.1475 92.4958 29.5249C90.1553 26.8751 88.8676 23.4937 88.8676 20.003C88.8645 18.3578 89.1433 16.746 89.6947 15.2071ZM89.5976 15.0159L89.5475 15.1585C88.9929 16.7126 88.7109 18.3426 88.7109 19.9999C88.7109 23.527 90.0143 26.9449 92.3767 29.6221C94.714 32.2689 97.9443 34.0385 101.475 34.6092L101.629 34.6335L101.654 34.4847L102.039 32.2264L102.064 32.0777L101.911 32.0534C95.8106 31.073 91.3835 26.0039 91.3835 20.003C91.3835 18.634 91.6154 17.2894 92.0728 16.0084L92.1229 15.8658L91.9757 15.8172L89.7449 15.0705L89.5976 15.0159Z" fill="white"/>
<path d="M91.5742 11.4956L91.6212 11.4349C94.0588 8.13851 97.8249 5.9409 101.954 5.40364L102.033 5.39453L102.368 7.81372L102.29 7.82283C98.8463 8.26903 95.7037 10.1054 93.6703 12.8555L93.6233 12.9162L91.5742 11.4956Z" fill="white"/>
<path d="M101.956 5.47601L102.27 7.74343C98.8043 8.19266 95.6429 10.0382 93.597 12.8095L91.6764 11.4769C94.1014 8.1957 97.8487 6.01024 101.956 5.47601ZM102.091 5.30603L101.934 5.32728C97.7829 5.86757 93.998 8.07732 91.5479 11.3889L91.457 11.5134L91.5855 11.6014L93.5061 12.9339L93.6346 13.0219L93.7254 12.8975C95.7463 10.1626 98.8701 8.33836 102.291 7.8952L102.448 7.87395L102.426 7.72218L102.113 5.45476L102.091 5.30603Z" fill="white"/>
<path d="M103.999 39.928C97.9081 39.928 92.1682 37.3358 88.2454 32.8131L88.1953 32.7554L90.1222 31.1862L90.1723 31.2438C93.6125 35.2111 98.6538 37.4876 103.999 37.4876C108.169 37.4876 112.086 36.149 115.325 33.6175L115.385 33.5689L116.967 35.4691L116.908 35.5176C113.267 38.3618 108.683 39.928 103.999 39.928Z" fill="white"/>
<path d="M90.1111 31.2914C93.567 35.2769 98.6302 37.5625 103.997 37.5625C108.186 37.5625 112.118 36.2178 115.371 33.6742L116.853 35.456C113.227 38.291 108.662 39.8512 103.994 39.8512C97.9283 39.8512 92.2072 37.2681 88.3002 32.7636L90.1111 31.2914ZM90.1299 31.0759L90.0109 31.1731L88.203 32.6452L88.084 32.7423L88.1842 32.8577C92.1195 37.3956 97.8845 39.9999 103.997 39.9999C108.7 39.9999 113.3 38.4276 116.953 35.5713L117.075 35.4772L116.978 35.3588L115.496 33.5771L115.399 33.4587L115.277 33.5528C112.053 36.0752 108.152 37.4047 104 37.4047C98.6803 37.4047 93.661 35.1373 90.2365 31.1882L90.1299 31.0759Z" fill="white"/>
<path d="M85.6754 29.0666C84.184 26.2437 83.4258 23.1932 83.4258 20C83.4258 16.4304 84.4127 12.9276 86.2801 9.86793L86.3208 9.80115L88.4889 11.0426L88.4482 11.1094C86.8096 13.7896 85.9448 16.8645 85.9448 19.997C85.9448 22.7986 86.609 25.4758 87.9156 27.9527L87.95 28.0194L85.7098 29.1304L85.6754 29.0666Z" fill="white"/>
<path d="M86.35 9.90709L88.3834 11.0727C86.7385 13.765 85.8706 16.852 85.8706 19.9997C85.8706 22.8135 86.538 25.5028 87.8508 27.9888L85.7484 29.0299C84.2633 26.2161 83.5082 23.1777 83.5082 19.9967C83.5082 16.4453 84.4889 12.9546 86.35 9.90709ZM86.2936 9.70068L86.2153 9.8312C84.3416 12.9 83.3516 16.418 83.3516 19.9997C83.3516 23.205 84.1098 26.2677 85.6074 29.0997L85.6795 29.2363L85.8205 29.1665L87.9228 28.1254L88.0638 28.0556L87.9918 27.919C86.6884 25.4543 86.0304 22.7892 86.0304 19.9997C86.0304 16.8793 86.892 13.8197 88.5213 11.1486L88.5996 11.018L88.4649 10.9421L86.4315 9.77657L86.2936 9.70068Z" fill="white"/>
<path d="M117.466 8.36575C115.677 6.42311 113.434 4.86597 110.974 3.86733L110.902 3.83698L111.877 1.58777L111.949 1.61812C114.75 2.75639 117.307 4.52904 119.343 6.74183L119.396 6.7995L117.516 8.42342L117.466 8.36575Z" fill="white"/>
<path d="M111.919 1.68801C114.661 2.80199 117.208 4.53518 119.285 6.7935L117.521 8.31725C115.676 6.31087 113.42 4.78408 111.001 3.80062L111.919 1.68801ZM111.835 1.48767L111.775 1.6273L110.86 3.73688L110.801 3.87651L110.945 3.93418C113.392 4.92978 115.626 6.47782 117.409 8.41439L117.512 8.52669L117.628 8.42653L119.392 6.90277L119.508 6.8026L119.404 6.6903C118.374 5.57024 117.208 4.55947 115.942 3.68528C114.702 2.8293 113.37 2.10992 111.979 1.54534L111.835 1.48767Z" fill="white"/>
<path d="M117.62 5.07683L103.049 19.1931L104.83 20.9187L119.401 6.80246L117.62 5.07683Z" fill="white"/>
<path d="M117.614 5.18438L119.284 6.80224L104.825 20.8105L103.155 19.1926L117.614 5.18438ZM117.614 4.96887L117.505 5.07511L103.045 19.0834L102.936 19.1896L103.045 19.2958L104.715 20.9137L104.825 21.0199L104.934 20.9137L119.394 6.90544L119.504 6.7992L119.394 6.69296L117.724 5.07511L117.614 4.96887Z" fill="white"/>
<path d="M94.748 17.4087L94.77 17.3359C95.3496 15.4509 96.5653 13.7572 98.1914 12.5612C99.8739 11.3289 101.882 10.6763 103.997 10.6763C105.833 10.6763 107.613 11.1741 109.148 12.1181L109.229 12.1697L107.393 13.9484L107.343 13.9211C106.325 13.3929 105.169 13.1137 104 13.1137C100.88 13.1137 98.0754 15.1352 97.1856 18.031L97.1637 18.1038L94.748 17.4087Z" fill="white"/>
<path d="M103.989 10.748C105.828 10.748 107.589 11.2518 109.096 12.1776L107.369 13.8501C106.345 13.3189 105.189 13.0336 103.989 13.0336C100.834 13.0336 97.9982 15.0764 97.099 18.0055L94.8368 17.3529C95.4102 15.4831 96.6165 13.8015 98.23 12.6177C99.9 11.3975 101.89 10.748 103.989 10.748ZM103.989 10.5962C101.855 10.5962 99.8311 11.2549 98.136 12.4963C96.4943 13.7014 95.2692 15.4103 94.6864 17.3104L94.6426 17.4561L94.793 17.4986L97.0551 18.1512L97.2055 18.1937L97.2494 18.048C98.1298 15.1857 100.903 13.1854 103.989 13.1854C105.145 13.1854 106.288 13.4616 107.294 13.9837L107.398 14.0353L107.479 13.9563L109.205 12.2839L109.343 12.1503L109.177 12.0501C107.633 11.1001 105.837 10.5962 103.989 10.5962Z" fill="white"/>
<path d="M111.364 9.99796C109.606 8.77774 107.539 8.00979 105.383 7.78214L105.305 7.77304L105.577 5.34778L105.656 5.35688C108.375 5.64524 110.966 6.64084 113.147 8.23745L113.219 8.28905L111.417 10.0344L111.364 9.99796Z" fill="white"/>
<path d="M105.651 5.43342C108.383 5.72178 110.943 6.71738 113.101 8.29881L111.413 9.93487C109.649 8.70859 107.587 7.9376 105.394 7.70388L105.651 5.43342ZM105.513 5.26648L105.497 5.41825L105.24 7.69174L105.225 7.84351L105.381 7.85868C107.524 8.08633 109.58 8.84821 111.325 10.0624L111.431 10.1382L111.525 10.0472L113.214 8.41112L113.343 8.28667L113.198 8.18043C111.008 6.57472 108.405 5.57305 105.67 5.28469L105.513 5.26648Z" fill="white"/>
<path d="M88.5938 6.78823L88.647 6.73056C92.5447 2.50229 98.1373 0.0770264 103.987 0.0770264C106.271 0.0770264 108.527 0.444306 110.692 1.16976L110.77 1.19708L109.846 3.46754L109.774 3.44325C107.903 2.83011 105.958 2.51746 103.99 2.51746C98.8548 2.51746 93.9483 4.64526 90.5269 8.35752L90.4736 8.41519L88.5938 6.78823Z" fill="white"/>
<path d="M103.985 0.151769C106.282 0.151769 108.535 0.528154 110.662 1.23843L109.794 3.36926C107.939 2.75915 105.978 2.44044 103.985 2.44044C98.8281 2.44044 93.8996 4.57734 90.4626 8.30477L88.7017 6.78102C92.5869 2.56792 98.1576 0.151769 103.985 0.151769ZM103.985 0C98.1137 0 92.4991 2.43437 88.5858 6.68085L88.4824 6.79316L88.5984 6.89333L90.3592 8.41708L90.4751 8.51725L90.5785 8.40494C93.9874 4.7109 98.872 2.59221 103.985 2.59221C105.947 2.59221 107.883 2.90181 109.744 3.51496L109.885 3.56049L109.938 3.42693L110.806 1.2961L110.866 1.14737L110.712 1.09577C108.541 0.36728 106.279 0 103.985 0Z" fill="white"/>
</svg>
