<svg width="37" height="40" viewBox="0 0 37 40" fill="none" xmlns="http://www.w3.org/2000/svg">
<path d="M20.6396 23.9952C18.3681 23.9952 16.5195 22.2043 16.5195 20.0037C16.5195 17.8031 18.3681 16.0122 20.6396 16.0122C22.9111 16.0122 24.7596 17.8031 24.7596 20.0037C24.7596 22.2043 22.9111 23.9952 20.6396 23.9952Z" fill="white"/>
<path d="M20.641 16.0844C22.8749 16.0844 24.6827 17.8388 24.6827 20C24.6827 22.1612 22.8717 23.9156 20.641 23.9156C18.4102 23.9156 16.5992 22.1612 16.5992 20C16.5992 17.8388 18.407 16.0844 20.641 16.0844ZM20.641 15.9326C19.5193 15.9326 18.4634 16.3545 17.6708 17.1255C16.8781 17.8935 16.4395 18.9164 16.4395 20.003C16.4395 21.0897 16.875 22.1126 17.6708 22.8806C18.4634 23.6485 19.5193 24.0735 20.641 24.0735C21.7626 24.0735 22.8185 23.6515 23.6112 22.8806C24.4038 22.1126 24.8425 21.0897 24.8425 20.003C24.8425 18.9164 24.407 17.8935 23.6112 17.1255C22.8185 16.3545 21.7626 15.9326 20.641 15.9326Z" fill="white"/>
<path d="M20.6465 29.3284C16.2852 29.3284 12.4565 26.4782 11.3411 22.3987L11.3223 22.3258L13.7567 21.7005L13.7755 21.7734C14.5995 24.7845 17.4256 26.888 20.6465 26.888C24.4752 26.888 27.6648 23.8739 27.7525 20.1677L27.7556 20.0918L30.2747 20.1495L30.2715 20.2254C30.212 22.6688 29.1843 24.9575 27.3765 26.6694C25.5687 28.3844 23.1781 29.3284 20.6465 29.3284Z" fill="white"/>
<path d="M27.8311 20.1699L30.1935 20.2246C30.1339 22.6498 29.1157 24.9203 27.3235 26.617C25.5282 28.3168 23.1564 29.2548 20.6468 29.2548C16.3199 29.2548 12.5256 26.4288 11.4165 22.3827L13.7006 21.7969C14.534 24.8414 17.3914 26.9691 20.6499 26.9691C24.5162 26.9631 27.7402 23.9156 27.8311 20.1699ZM27.6807 20.0151L27.6775 20.1669C27.5898 23.8306 24.4347 26.8143 20.6499 26.8143C17.4635 26.8143 14.6687 24.7351 13.8541 21.7544L13.8134 21.6087L13.663 21.6482L11.3789 22.234L11.2285 22.2734L11.2692 22.4191C12.3972 26.532 16.2541 29.4035 20.6499 29.4035C23.2034 29.4035 25.6128 28.4504 27.4363 26.7233C29.2567 24.9992 30.2937 22.6893 30.3533 20.2246L30.3564 20.0728L30.1997 20.0698L27.8373 20.0151H27.6807Z" fill="white"/>
<path d="M22.5918 32.1482L22.6701 32.1361C28.7515 31.186 33.2319 26.1595 33.3228 20.1859V20.11L35.8418 20.1464V20.2223C35.7886 23.7008 34.4632 27.0579 32.104 29.6774C29.7698 32.2727 26.5615 33.9998 23.0712 34.5461L22.9928 34.5583L22.5918 32.1482Z" fill="white"/>
<path d="M33.399 20.1853L35.7614 20.2187C35.7082 23.679 34.3891 27.0179 32.0424 29.6253C29.7207 32.2054 26.528 33.9264 23.0565 34.4697L22.6805 32.2114C28.8027 31.2553 33.3082 26.1984 33.399 20.1853ZM33.2455 20.0336L33.2424 20.1853C33.1515 26.1255 28.6993 31.1187 22.6555 32.0627L22.502 32.087L22.527 32.2357L22.903 34.494L22.9281 34.6428L23.0816 34.6185C26.5907 34.0721 29.8147 32.3329 32.1615 29.7255C34.5301 27.0908 35.8648 23.7155 35.9181 20.2218L35.9212 20.07L35.7646 20.067L33.4022 20.0336H33.2455Z" fill="white"/>
<path d="M18.14 34.5331C14.6277 33.9685 11.4131 32.208 9.08836 29.5733C6.73538 26.9113 5.44141 23.5117 5.44141 19.9998C5.44141 18.3486 5.72025 16.7277 6.27481 15.1827L6.29988 15.1099L8.68106 15.9082L8.65599 15.981C8.19542 17.271 7.96357 18.6218 7.96357 20.0029C7.96357 26.0402 12.4189 31.1396 18.5567 32.1291L18.635 32.1413L18.2214 34.5483L18.14 34.5331Z" fill="white"/>
<path d="M6.351 15.2072L8.58178 15.9539C8.11808 17.25 7.88309 18.6129 7.88309 20C7.88309 26.0768 12.3666 31.2066 18.542 32.2022L18.1566 34.4605C14.6632 33.899 11.4674 32.1476 9.15201 29.525C6.81156 26.8751 5.52384 23.4937 5.52384 20.0031C5.52071 18.3579 5.79956 16.7461 6.351 15.2072ZM6.25387 15.016L6.20374 15.1587C5.64918 16.7128 5.36719 18.3427 5.36719 20C5.36719 23.5271 6.67057 26.9449 9.03295 29.6221C11.3703 32.269 14.6005 34.0386 18.1316 34.6092L18.2851 34.6335L18.3102 34.4848L18.6955 32.2265L18.7206 32.0777L18.5671 32.0535C12.4669 31.073 8.03975 26.004 8.03975 20.0031C8.03975 18.6341 8.2716 17.2895 8.72904 16.0086L8.77917 15.8659L8.63192 15.8173L6.40112 15.0706L6.25387 15.016Z" fill="white"/>
<path d="M8.22656 11.4951L8.27356 11.4344C10.7112 8.13801 14.4772 5.94041 18.6067 5.40315L18.685 5.39404L19.0203 7.81323L18.9419 7.82233C15.4986 8.26853 12.3561 10.1049 10.3226 12.855L10.2756 12.9157L8.22656 11.4951Z" fill="white"/>
<path d="M18.6163 5.47613L18.9297 7.74354C15.4644 8.19277 12.3031 10.0383 10.2571 12.8095L8.33651 11.477C10.7616 8.19581 14.5088 6.01035 18.6163 5.47613ZM18.7511 5.30615L18.5944 5.3274C14.443 5.86769 10.6582 8.07743 8.20805 11.389L8.11719 11.5135L8.24565 11.6015L10.1663 12.934L10.2947 13.022L10.3856 12.8976C12.4065 10.1627 15.5302 8.33847 18.9516 7.89531L19.1082 7.87406L19.0863 7.72229L18.773 5.45488L18.7511 5.30615Z" fill="white"/>
<path d="M20.6493 39.9268C14.5584 39.9268 8.81853 37.3346 4.89583 32.8119L4.8457 32.7542L6.77259 31.1849L6.82271 31.2426C10.2629 35.2098 15.3041 37.4863 20.6493 37.4863C24.8195 37.4863 28.7359 36.1477 31.9756 33.6163L32.0351 33.5677L33.6174 35.4678L33.5578 35.5164C29.9171 38.3605 25.3333 39.9268 20.6493 39.9268Z" fill="white"/>
<path d="M6.76542 31.2916C10.2213 35.277 15.2844 37.5626 20.6515 37.5626C24.8405 37.5626 28.7725 36.2179 32.0247 33.6743L33.5067 35.4561C29.8817 38.2911 25.3167 39.8513 20.6483 39.8513C14.5826 39.8513 8.86148 37.2682 4.95446 32.7637L6.76542 31.2916ZM6.78422 31.076L6.66516 31.1732L4.85734 32.6453L4.73828 32.7425L4.83854 32.8578C8.77376 37.3957 14.5387 40 20.6515 40C25.3543 40 29.9537 38.4277 33.607 35.5714L33.7292 35.4773L33.632 35.3589L32.1501 33.5772L32.0529 33.4588L31.9307 33.5529C28.7068 36.0753 24.806 37.4048 20.6546 37.4048C15.3345 37.4048 10.3153 35.1374 6.89074 31.1884L6.78422 31.076Z" fill="white"/>
<path d="M2.32575 29.0667C0.834387 26.2438 0.0761719 23.1933 0.0761719 20.0001C0.0761719 16.4305 1.06311 12.9277 2.93044 9.86805L2.97117 9.80127L5.13928 11.0427L5.09855 11.1095C3.45993 13.7897 2.5952 16.8645 2.5952 19.997C2.5952 22.7987 3.25942 25.4759 4.56592 27.9527L4.60039 28.0195L2.36022 29.1304L2.32575 29.0667Z" fill="white"/>
<path d="M2.99843 9.90733L5.03184 11.0729C3.38693 13.7653 2.51905 16.8522 2.51905 19.9999C2.51905 22.8137 3.18641 25.503 4.4992 27.9889L2.39686 29.0301C0.911748 26.2163 0.156658 23.1779 0.156658 19.9969C0.156658 16.4455 1.13733 12.9548 2.99843 9.90733ZM2.94203 9.70093L2.8637 9.83145C0.990074 12.9002 0 16.4182 0 19.9999C0 23.2052 0.758223 26.2679 2.25587 29.0999L2.32793 29.2365L2.46893 29.1667L4.57127 28.1255L4.71226 28.0557L4.6402 27.9191C3.3368 25.4544 2.67885 22.7894 2.67885 19.9999C2.67885 16.8795 3.54046 13.8199 5.1697 11.1488L5.24803 11.0183L5.11331 10.9424L3.07989 9.77681L2.94203 9.70093Z" fill="white"/>
<path d="M34.1186 8.36524C32.3296 6.42261 30.0863 4.86547 27.6268 3.86683L27.5547 3.83648L28.5291 1.58728L28.6012 1.61763C31.4022 2.75589 33.9589 4.52854 35.9954 6.74132L36.0487 6.79899L34.1688 8.42291L34.1186 8.36524Z" fill="white"/>
<path d="M28.5717 1.68788C31.3132 2.80186 33.8604 4.53505 35.9377 6.79335L34.1737 8.3171C32.3283 6.31073 30.0724 4.78395 27.6536 3.80049L28.5717 1.68788ZM28.4871 1.48755L28.4275 1.62718L27.5127 3.73675L27.4531 3.87637L27.5973 3.93405C30.0442 4.92964 32.2782 6.47768 34.0609 8.41423L34.1643 8.52654L34.2802 8.42638L36.0442 6.90263L36.1601 6.80246L36.0567 6.69015C35.0259 5.5701 33.8604 4.55933 32.5946 3.68515C31.3539 2.82918 30.0223 2.1098 28.6312 1.54522L28.4871 1.48755Z" fill="white"/>
<path d="M34.2663 5.07663L19.6953 19.1929L21.4765 20.9185L36.0475 6.80226L34.2663 5.07663Z" fill="white"/>
<path d="M34.2646 5.18475L35.9345 6.80259L21.4752 20.8108L19.8053 19.1929L34.2646 5.18475ZM34.2646 4.96924L34.1549 5.07548L19.6956 19.0837L19.5859 19.1899L19.6956 19.2961L21.3655 20.914L21.4752 21.0202L21.5849 20.914L36.0442 6.9058L36.1539 6.79956L36.0442 6.69332L34.3743 5.07548L34.2646 4.96924Z" fill="white"/>
<path d="M11.3984 17.4083L11.4204 17.3355C12 15.4505 13.2157 13.7568 14.8417 12.5609C16.5242 11.3285 18.5326 10.6759 20.6474 10.6759C22.4835 10.6759 24.2631 11.1737 25.7983 12.1177L25.8798 12.1693L24.0438 13.948L23.9936 13.9207C22.9754 13.3925 21.8192 13.1133 20.6506 13.1133C17.53 13.1133 14.7258 15.1348 13.836 18.0306L13.8141 18.1034L11.3984 17.4083Z" fill="white"/>
<path d="M20.643 10.7481C22.4822 10.7481 24.243 11.252 25.75 12.1777L24.0237 13.8502C22.9991 13.319 21.843 13.0337 20.643 13.0337C17.488 13.0337 14.6525 15.0765 13.7533 18.0056L11.4911 17.353C12.0645 15.4832 13.2708 13.8017 14.8843 12.6179C16.5543 11.3976 18.5438 10.7481 20.643 10.7481ZM20.643 10.5963C18.5094 10.5963 16.4853 11.255 14.7903 12.4964C13.1486 13.7015 11.9235 15.4104 11.3407 17.3105L11.2969 17.4562L11.4473 17.4987L13.7094 18.1513L13.8598 18.1938L13.9037 18.0481C14.7841 15.1858 17.5569 13.1855 20.643 13.1855C21.7991 13.1855 22.9427 13.4617 23.9485 13.9838L24.0519 14.0354L24.1333 13.9565L25.8597 12.284L25.9976 12.1504L25.8315 12.0502C24.2869 11.1002 22.4916 10.5963 20.643 10.5963Z" fill="white"/>
<path d="M28.0184 9.99831C26.2607 8.77809 24.1929 8.01015 22.0373 7.7825L21.959 7.77339L22.2316 5.34814L22.3099 5.35725C25.0294 5.64561 27.6205 6.6412 29.8012 8.2378L29.8732 8.2894L28.0717 10.0347L28.0184 9.99831Z" fill="white"/>
<path d="M22.2991 5.43281C25.0312 5.72117 27.591 6.71677 29.7497 8.29819L28.061 9.93424C26.297 8.70796 24.2354 7.93698 22.0422 7.70326L22.2991 5.43281ZM22.1613 5.26587L22.1456 5.41764L21.8887 7.69112L21.873 7.84288L22.0297 7.85806C24.1728 8.08571 26.2281 8.84759 27.9732 10.0617L28.0798 10.1376L28.1738 10.0466L29.8625 8.4105L29.991 8.28605L29.8469 8.17981C27.6568 6.57411 25.0532 5.57244 22.3179 5.28408L22.1613 5.26587Z" fill="white"/>
<path d="M5.24023 6.78796L5.2935 6.73029C9.19113 2.50203 14.7838 0.0767822 20.6333 0.0767822C22.9174 0.0767822 25.1733 0.444061 27.3383 1.16951L27.4166 1.19683L26.4923 3.46728L26.4202 3.44299C24.5498 2.82985 22.6041 2.51721 20.6365 2.51721C15.5013 2.51721 10.5948 4.645 7.17339 8.35724L7.12012 8.41491L5.24023 6.78796Z" fill="white"/>
<path d="M20.6375 0.151768C22.9341 0.151768 25.1869 0.528152 27.3143 1.23843L26.4464 3.36925C24.5916 2.75914 22.6302 2.44043 20.6375 2.44043C15.4804 2.44043 10.552 4.57732 7.11492 8.30474L5.35409 6.78099C9.23918 2.56791 14.8099 0.151768 20.6375 0.151768ZM20.6375 0C14.766 0 9.15145 2.43436 5.23816 6.68082L5.13477 6.79313L5.2507 6.8933L7.01152 8.41705L7.12745 8.51721L7.23084 8.40491C10.6397 4.71088 15.5243 2.5922 20.6375 2.5922C22.5989 2.5922 24.5352 2.9018 26.3963 3.51494L26.5372 3.56047L26.5905 3.42692L27.4584 1.2961L27.5179 1.14737L27.3644 1.09576C25.1931 0.367278 22.931 0 20.6375 0Z" fill="white"/>
</svg>
