<svg width="21" height="29" viewBox="0 0 21 29" fill="none" xmlns="http://www.w3.org/2000/svg">
<path d="M9.40625 27.9531C9.89844 28.7188 11.0469 28.7188 11.5391 27.9531C19.5234 16.4688 21 15.2656 21 11C21 5.20312 16.2969 0.5 10.5 0.5C4.64844 0.5 0 5.20312 0 11C0 15.2656 1.42188 16.4688 9.40625 27.9531ZM10.5 15.375C8.03906 15.375 6.125 13.4609 6.125 11C6.125 8.59375 8.03906 6.625 10.5 6.625C12.9062 6.625 14.875 8.59375 14.875 11C14.875 13.4609 12.9062 15.375 10.5 15.375Z" fill="#EB384D"/>
</svg>
