<svg width="55" height="55" viewBox="0 0 55 55" fill="none" xmlns="http://www.w3.org/2000/svg">
<path d="M27.5 0.734375C12.7832 0.734375 0.859375 12.6582 0.859375 27.375C0.859375 42.0918 12.7832 54.0156 27.5 54.0156C42.2168 54.0156 54.1406 42.0918 54.1406 27.375C54.1406 12.6582 42.2168 0.734375 27.5 0.734375ZM50.7031 27.375C50.7031 40.1582 40.2832 50.5781 27.5 50.5781C14.7168 50.5781 4.29688 40.2656 4.29688 27.375C4.29688 14.6992 14.6094 4.17188 27.5 4.17188C40.1758 4.17188 50.7031 14.5918 50.7031 27.375ZM34.6973 36.9355C35.2344 37.3652 36.0938 37.1504 36.416 36.6133L37.3828 35.4316C37.8125 34.7871 37.5977 34.0352 37.0605 33.6055L29.541 28.127V12.3359C29.541 11.6914 28.8965 11.0469 28.252 11.0469H26.748C25.9961 11.0469 25.459 11.6914 25.459 12.3359V29.5234C25.459 29.9531 25.5664 30.2754 25.8887 30.5977L34.6973 36.9355Z" fill="#EB384D"/>
</svg>
