<svg width="15" height="21" viewBox="0 0 15 21" fill="none" xmlns="http://www.w3.org/2000/svg">
<path d="M2.1875 2.6875C3.64583 1.22917 5.41667 0.5 7.5 0.5C9.58333 0.5 11.3542 1.22917 12.8125 2.6875C14.2708 4.14583 15 5.91667 15 8C15 8.41667 14.987 8.78125 14.9609 9.09375C14.9349 9.38021 14.8438 9.73177 14.6875 10.1484C14.5312 10.5651 14.388 10.9167 14.2578 11.2031C14.1276 11.4896 13.8672 11.9583 13.4766 12.6094C13.0859 13.2604 12.7344 13.8203 12.4219 14.2891C12.1354 14.7578 11.6406 15.5391 10.9375 16.6328C10.2604 17.7266 9.64844 18.7161 9.10156 19.6016C8.73698 20.2005 8.20312 20.5 7.5 20.5C6.79688 20.5 6.26302 20.2005 5.89844 19.6016C5.35156 18.7161 4.72656 17.7266 4.02344 16.6328C3.34635 15.5391 2.85156 14.7578 2.53906 14.2891C2.2526 13.8203 1.91406 13.2604 1.52344 12.6094C1.13281 11.9583 0.872396 11.4896 0.742188 11.2031C0.611979 10.9167 0.46875 10.5651 0.3125 10.1484C0.15625 9.73177 0.0651042 9.38021 0.0390625 9.09375C0.0130208 8.78125 0 8.41667 0 8C0 5.91667 0.729167 4.14583 2.1875 2.6875ZM7.5 18.625C8.02083 17.7917 8.58073 16.9062 9.17969 15.9688C9.77865 15.0312 10.2214 14.3281 10.5078 13.8594C10.8203 13.3646 11.1458 12.8438 11.4844 12.2969C11.8229 11.75 12.0573 11.3464 12.1875 11.0859C12.3438 10.7995 12.5 10.5 12.6562 10.1875C12.8125 9.875 12.9167 9.61458 12.9688 9.40625C13.0208 9.19792 13.0599 8.98958 13.0859 8.78125C13.112 8.54688 13.125 8.28646 13.125 8C13.125 6.4375 12.5781 5.10938 11.4844 4.01562C10.3906 2.92188 9.0625 2.375 7.5 2.375C5.9375 2.375 4.60938 2.92188 3.51562 4.01562C2.42188 5.10938 1.875 6.4375 1.875 8C1.875 8.28646 1.88802 8.54688 1.91406 8.78125C1.9401 8.98958 1.97917 9.21094 2.03125 9.44531C2.08333 9.65365 2.1875 9.91406 2.34375 10.2266C2.5 10.5391 2.65625 10.8385 2.8125 11.125C2.96875 11.3854 3.21615 11.7891 3.55469 12.3359C3.89323 12.8828 4.20573 13.4036 4.49219 13.8984C4.80469 14.3672 5.2474 15.0703 5.82031 16.0078C6.41927 16.9193 6.97917 17.7917 7.5 18.625ZM5.27344 10.2266C4.67448 9.60156 4.375 8.85938 4.375 8C4.375 7.14062 4.67448 6.41146 5.27344 5.8125C5.89844 5.1875 6.64062 4.875 7.5 4.875C8.35938 4.875 9.08854 5.1875 9.6875 5.8125C10.3125 6.41146 10.625 7.14062 10.625 8C10.625 8.85938 10.3125 9.60156 9.6875 10.2266C9.08854 10.8255 8.35938 11.125 7.5 11.125C6.64062 11.125 5.89844 10.8255 5.27344 10.2266Z" fill="#EB384D"/>
</svg>
