<svg width="15" height="15" viewBox="0 0 15 15" fill="none" xmlns="http://www.w3.org/2000/svg">
<path d="M14.6484 0.109375H13.8281C13.623 0.109375 13.4766 0.285156 13.4766 0.490234L13.5352 3.36133C12.2461 1.42773 10.0195 0.109375 7.5 0.109375C3.92578 0.109375 0.966797 2.6582 0.351562 6.02734C0.292969 6.26172 0.46875 6.4375 0.703125 6.4375H1.52344C1.69922 6.4375 1.8457 6.34961 1.875 6.17383C2.43164 3.5957 4.7168 1.63281 7.5 1.63281C9.81445 1.63281 11.8066 3.03906 12.7148 5.03125L9.02344 4.94336C8.81836 4.94336 8.67188 5.08984 8.67188 5.29492V6.08594C8.67188 6.29102 8.81836 6.4375 9.02344 6.4375H14.6484C14.8242 6.4375 15 6.29102 15 6.08594V0.460938C15 0.285156 14.8242 0.109375 14.6484 0.109375ZM14.2676 8.3125H13.4473C13.2715 8.3125 13.125 8.42969 13.0957 8.60547C12.5391 11.1836 10.2539 13.1172 7.5 13.1172C5.15625 13.1172 3.16406 11.7402 2.25586 9.74805L5.94727 9.83594C6.15234 9.83594 6.32812 9.68945 6.32812 9.48438V8.66406C6.32812 8.48828 6.15234 8.3125 5.97656 8.3125H0.351562C0.146484 8.3125 0 8.48828 0 8.66406V14.2891C0 14.4941 0.146484 14.6406 0.351562 14.6406H1.14258C1.34766 14.6406 1.49414 14.4941 1.49414 14.2891L1.43555 11.418C2.72461 13.3516 4.95117 14.6406 7.5 14.6406C11.0449 14.6406 14.0039 12.1211 14.6191 8.75195C14.6777 8.51758 14.502 8.3125 14.2676 8.3125Z" fill="#EB384D"/>
</svg>
