<svg width="598" height="207" viewBox="0 0 598 207" fill="none" xmlns="http://www.w3.org/2000/svg">
<path d="M80.6043 41.5266C80.6043 42.5922 80.4516 43.6577 80.1461 44.5711H61.052C60.7465 43.6577 60.5938 42.5922 60.5938 41.5266C60.5938 36.0465 65.0236 31.632 70.5227 31.632C73.425 31.632 76.1745 32.8498 78.0075 34.9809C79.6878 36.6554 80.6043 39.091 80.6043 41.5266Z" fill="#D2ECED"/>
<path d="M91.1417 41.5267C91.1417 42.5923 90.989 43.6578 90.5307 44.5712H75.2555C74.7973 43.6578 74.6445 42.5923 74.6445 41.5267C74.6445 38.7866 76.0193 36.351 78.0051 34.8288C79.3798 33.9154 81.0601 33.3065 82.8931 33.3065C83.9624 33.3065 85.0317 33.4587 85.9482 33.9154C89.0032 35.1332 91.1417 38.1777 91.1417 41.5267Z" fill="#D2ECED"/>
<path d="M108.553 36.6554C108.553 39.6999 107.331 42.5922 105.346 44.5711H88.8484C86.8626 42.44 85.6406 39.6999 85.6406 36.6554C85.6406 35.7421 85.7934 34.8287 85.9461 33.9154C87.1681 28.8919 91.7507 25.2385 97.097 25.2385C101.832 25.2385 105.804 28.1308 107.637 32.0887C108.248 33.4587 108.553 35.1332 108.553 36.6554Z" fill="#D2ECED"/>
<path d="M115.742 41.5267C115.742 42.5923 115.59 43.6578 115.284 44.5712H97.1067C96.8012 43.6578 96.6484 42.5923 96.6484 41.5267C96.6484 36.1988 100.926 31.9365 106.272 31.9365C106.73 31.9365 107.341 31.9365 107.799 32.0887C112.229 32.8499 115.742 36.8077 115.742 41.5267Z" fill="#D2ECED"/>
<path d="M48.6697 95.9011C57.8348 96.2056 64.2504 103.208 66.8472 108.688C69.444 114.473 68.5275 119.8 67.1527 123.454C66.2362 126.194 66.6944 129.086 68.3747 131.37C70.5132 134.11 72.499 137.915 72.8045 142.786C73.4155 152.985 65.9307 165.468 52.183 167.295C39.3518 168.969 27.8954 160.292 24.6876 150.398C22.2436 142.634 25.4514 135.936 28.0481 131.978C29.5757 129.695 29.7284 126.955 28.8119 124.367C27.5899 121.17 26.5206 116.756 27.8954 111.732C30.1867 104.273 38.1298 95.5967 48.6697 95.9011Z" fill="#A3CFCF"/>
<path opacity="0.3" d="M61.6541 164.098C66.0839 159.227 68.3752 152.833 67.9169 147.201C67.6114 142.33 65.4729 138.524 63.4871 135.784C61.8068 133.501 61.1958 130.456 62.2651 127.868C63.6399 124.215 64.5564 118.887 61.9596 113.102C59.3628 107.47 52.9472 100.62 43.7821 100.315C39.8105 100.163 36.2972 101.381 33.2422 103.208C37.061 98.9455 42.4073 95.901 48.8229 96.0532C57.988 96.3576 64.4036 103.36 67.0004 108.84C69.5972 114.625 68.6807 120.105 67.3059 123.606C66.3894 126.346 66.8477 129.238 68.5279 131.522C70.6665 134.262 72.6522 138.067 72.9577 142.938C73.416 150.55 69.2917 159.379 61.6541 164.098Z" fill="#B1DFE0"/>
<path d="M45.6133 199.719V122.693" stroke="#A7D6D5" stroke-width="2.97068" stroke-miterlimit="10" stroke-linecap="round"/>
<path d="M45.6133 155.726L54.9311 146.44" stroke="#A7D6D5" stroke-width="2.97068" stroke-miterlimit="10" stroke-linecap="round"/>
<path d="M70.9725 144.126L62.2656 135.297" stroke="#A7D6D5" stroke-width="2.97068" stroke-miterlimit="10" stroke-linecap="round"/>
<path d="M560.391 89.2527C569.403 89.5571 575.666 96.2551 578.11 101.735C580.707 107.367 579.79 112.695 578.416 116.197C577.499 118.784 577.957 121.677 579.638 123.96C581.623 126.548 583.762 130.353 584.067 135.072C584.678 144.967 577.346 157.145 563.904 158.82C551.378 160.494 540.227 152.122 537.172 142.379C534.881 134.92 537.936 128.375 540.38 124.417C541.908 122.286 542.06 119.393 541.144 116.958C539.922 113.913 538.853 109.499 540.227 104.78C542.366 97.3206 550.156 88.9482 560.391 89.2527Z" fill="#B1DFE0"/>
<path opacity="0.2" d="M578.874 150.449C575.513 154.712 570.32 158.061 563.904 158.822C551.378 160.496 540.227 152.124 537.172 142.381C534.881 134.922 537.936 128.377 540.38 124.419C541.908 122.288 542.06 119.395 540.991 116.96C539.769 113.915 538.7 109.501 540.227 104.782C541.602 100.063 545.116 95.0394 550.004 91.9949C548.171 94.4305 546.796 97.0183 546.032 99.6061C544.657 104.477 545.574 108.74 546.796 111.784C547.865 114.22 547.56 116.96 546.185 119.243C543.588 123.049 540.533 129.594 542.977 137.206C546.032 146.948 557.183 155.32 569.709 153.646C573.222 153.342 576.277 152.124 578.874 150.449Z" fill="#9FD4D1"/>
<path d="M561.461 182.567V107.672" stroke="#A7D6D5" stroke-width="2.97068" stroke-miterlimit="10" stroke-linecap="round"/>
<path d="M560.696 148.164L551.531 139.03" stroke="#A7D6D5" stroke-width="2.97068" stroke-miterlimit="10" stroke-linecap="round"/>
<path d="M526.782 68.5501C537.627 68.8545 545.112 77.0747 548.015 83.6204C551.07 90.3183 550 96.7117 548.473 100.974C547.251 104.171 547.862 107.672 549.848 110.26C552.292 113.456 554.736 118.023 555.041 123.656C555.805 135.529 546.945 150.143 530.906 152.274C515.784 154.253 502.494 144.206 498.828 132.485C496.079 123.503 499.745 115.588 502.8 111.021C504.633 108.433 504.786 105.084 503.564 102.192C502.036 98.5384 500.814 93.3628 502.494 87.426C505.244 78.2925 514.562 68.2456 526.782 68.5501Z" fill="#C1E5E8"/>
<path d="M549.087 142.075C544.963 147.251 538.853 151.208 531.063 152.274C515.94 154.253 502.651 144.206 498.985 132.485C496.235 123.503 499.901 115.588 502.956 111.021C504.789 108.433 504.942 105.084 503.72 102.192C502.193 98.5385 501.123 93.3629 502.651 87.4261C504.178 81.7938 508.455 75.7048 514.413 72.0514C512.121 74.9437 510.441 78.1404 509.677 81.1849C507.997 86.9694 509.219 92.2973 510.747 95.9507C511.969 98.843 511.663 102.192 509.983 104.78C506.928 109.347 503.262 117.262 506.011 126.244C509.677 137.965 523.12 148.012 538.089 146.033C542.213 145.424 545.88 144.054 549.087 142.075Z" fill="#B1DFE0"/>
<path d="M528.16 190.026V99.9084" stroke="#A7D6D5" stroke-width="2.97068" stroke-miterlimit="10" stroke-linecap="round"/>
<path d="M595.983 205.248C600.565 194.744 596.899 183.784 589.414 179.674C582.388 175.869 574.444 179.522 573.375 179.979C571.389 171.302 559.78 165.974 551.532 169.932C550.004 165.061 542.214 155.014 531.979 153.491C518.537 151.513 506.775 157.449 497.916 167.344C490.736 160.798 478.211 161.103 471.184 167.953C463.852 161.255 453.312 158.21 443.383 160.037C433.454 161.712 424.747 168.257 420.318 176.934C413.902 171.15 401.835 172.824 397.405 180.131C392.058 173.737 380.449 173.737 375.103 180.131C374.339 174.803 370.673 169.932 365.632 167.648C360.592 165.365 354.481 165.517 349.593 168.257C345.164 164.147 338.595 162.321 332.485 163.538C326.528 164.756 321.182 169.171 318.89 174.651C315.071 170.236 308.35 168.562 302.698 170.388C289.104 175.107 293.533 194.592 293.533 205.552C394.655 205.4 495.319 205.248 595.983 205.248Z" fill="#B1DFE0"/>
<path d="M311.854 202.428C316.437 191.925 312.771 180.965 305.286 176.855C298.259 173.049 290.316 176.702 289.247 177.159C287.261 168.482 275.652 163.154 267.403 167.112C265.876 162.241 258.085 152.194 247.851 150.672C234.409 148.693 222.647 154.63 213.787 164.524C206.608 157.979 194.082 158.283 187.056 165.133C179.723 158.435 169.184 155.391 159.255 157.218C149.326 158.892 140.619 165.438 136.189 174.115C129.774 168.33 117.706 170.004 113.276 177.311C107.93 170.918 96.3208 170.918 90.9745 177.311C90.2107 171.983 86.5447 167.112 81.5039 164.829C76.463 162.545 70.353 162.698 65.4649 165.438C61.0351 161.328 54.4667 159.501 48.3566 160.719C42.3993 161.937 37.053 166.351 34.7617 171.831C26.2076 163.915 12.6126 164.981 5.43327 173.658C-1.74608 182.487 -0.0658064 195.883 9.40483 202.733C110.374 202.581 211.038 202.428 311.854 202.428Z" fill="#A3CFCF"/>
<path d="M473.323 135.906C473.323 138.037 473.323 140.321 473.323 142.452C473.323 163.459 473.17 184.466 473.17 205.321H368.688V147.627C373.576 131.492 378.311 115.508 383.199 99.3721C404.126 107.744 425.053 116.269 445.98 124.641C455.145 128.447 464.158 132.1 473.323 135.906Z" fill="#C1E5E8"/>
<path opacity="0.5" d="M473.319 135.906C473.319 138.037 473.319 140.321 473.319 142.452L466.14 139.712L390.986 110.484L385.334 108.201L384.57 107.897C384.112 107.744 383.959 107.136 384.112 106.679L385.639 102.264C385.792 101.808 386.251 101.503 386.709 101.655L387.473 101.96L445.824 124.794C455.142 128.447 464.154 132.1 473.319 135.906Z" fill="#9FD4D1"/>
<path d="M384.112 103.787C383.959 104.243 384.112 104.852 384.57 105.004L385.334 105.309L390.986 107.44L473.166 139.559H478.054C478.513 139.712 479.582 135.145 479.124 134.993L462.321 128.447L387.32 99.2198L386.556 98.9154C386.098 98.7632 385.639 98.9154 385.487 99.5243L384.112 103.787Z" fill="#ADDBDA"/>
<path d="M384.878 102.264C384.725 102.721 384.878 103.33 385.336 103.482L386.1 103.787L391.751 105.918L466.905 135.145L477.904 139.407C478.362 139.559 478.82 139.407 478.973 138.798L480.5 134.384C480.653 133.927 480.5 133.318 480.042 133.166L463.239 126.62L388.238 97.393L387.474 97.0886C387.016 96.9364 386.558 97.0886 386.405 97.6975L384.878 102.264Z" fill="#B1DFE0"/>
<path d="M386.731 206.003L462.344 206.003L462.344 146.787L386.731 146.787L386.731 206.003Z" fill="#DBEFF1"/>
<path d="M390.093 206.046L458.984 206.046L458.984 149.57L390.093 149.57L390.093 206.046Z" fill="#ADDBDA"/>
<path d="M388.938 206.046L457.523 206.046L457.523 149.57L388.938 149.57L388.938 206.046Z" fill="#ADDBDA"/>
<path d="M388.938 156.88L457.523 156.88L457.523 152.77L388.938 152.77L388.938 156.88Z" fill="#C1E5E8"/>
<path d="M388.938 164.22L457.523 164.22L457.523 160.11L388.938 160.11L388.938 164.22Z" fill="#C1E5E8"/>
<path d="M388.938 171.56L457.523 171.56L457.523 167.45L388.938 167.45L388.938 171.56Z" fill="#C1E5E8"/>
<path d="M388.938 178.9L457.523 178.9L457.523 174.79L388.938 174.79L388.938 178.9Z" fill="#C1E5E8"/>
<path d="M388.938 186.24L457.523 186.24L457.523 182.13L388.938 182.13L388.938 186.24Z" fill="#C1E5E8"/>
<path d="M388.938 193.993L457.523 193.993L457.523 189.883L388.938 189.883L388.938 193.993Z" fill="#C1E5E8"/>
<path d="M388.938 201.333L457.523 201.333L457.523 197.223L388.938 197.223L388.938 201.333Z" fill="#C1E5E8"/>
<path opacity="0.6" d="M388.688 149.606V152.346H454.829V206.082H457.579V149.606H388.688Z" fill="#9FD4D1"/>
<path d="M85.8276 206.02L261.34 206.02L261.34 76.3246L85.8276 76.3246L85.8276 206.02Z" fill="#C1E5E8"/>
<path d="M125.353 88.2596H97.0938V144.735H125.353V88.2596Z" fill="#A3CFCF"/>
<path d="M124.286 88.2596H96.0273V144.735H124.286V88.2596Z" fill="#C1E5E8"/>
<path d="M121.997 91.6086H98.3203V144.735H121.997V91.6086Z" fill="#A3CFCF"/>
<path d="M121.991 91.6086V94.9576H100.453V144.735H98.9258V91.6086H121.991Z" fill="#9FD4D1"/>
<path d="M101.983 118.705C102.489 118.705 102.899 118.16 102.899 117.487C102.899 116.814 102.489 116.269 101.983 116.269C101.477 116.269 101.066 116.814 101.066 117.487C101.066 118.16 101.477 118.705 101.983 118.705Z" fill="#C1E5E8"/>
<path d="M93.3305 146.254L197.66 146.254L197.66 133.924L93.3305 133.924L93.3305 146.254Z" fill="#DBEFF1"/>
<path d="M53.8031 146.254L158.133 146.254L158.133 133.924L53.8031 133.924L53.8031 146.254Z" fill="#B1DFE0"/>
<path d="M93.3305 119.033L197.66 119.033L197.66 114.466L93.3305 114.466L93.3305 119.033Z" fill="#DBEFF1"/>
<path d="M53.8031 119.033L158.133 119.033L158.133 114.466L53.8031 114.466L53.8031 119.033Z" fill="#B1DFE0"/>
<path d="M53.8403 133.792L56.5898 133.792L56.5898 119.026L53.8403 119.026L53.8403 133.792Z" fill="#B1DFE0"/>
<path d="M56.7147 133.792L58.2422 133.792L58.2422 119.026L56.7147 119.026L56.7147 133.792Z" fill="#DBEFF1"/>
<path d="M70.8866 133.792L72.4141 133.792L72.4141 119.026L70.8866 119.026L70.8866 133.792Z" fill="#DBEFF1"/>
<path d="M84.4334 133.792L85.9609 133.792L85.9609 119.026L84.4334 119.026L84.4334 133.792Z" fill="#DBEFF1"/>
<path d="M98.1444 133.792L99.6719 133.792L99.6719 119.026L98.1444 119.026L98.1444 133.792Z" fill="#DBEFF1"/>
<path d="M111.847 133.792L113.375 133.792L113.375 119.026L111.847 119.026L111.847 133.792Z" fill="#DBEFF1"/>
<path d="M125.222 133.792L126.75 133.792L126.75 119.026L125.222 119.026L125.222 133.792Z" fill="#DBEFF1"/>
<path d="M138.824 133.792L140.352 133.792L140.352 119.026L138.824 119.026L138.824 133.792Z" fill="#DBEFF1"/>
<path d="M152.34 133.792L153.867 133.792L153.867 119.026L152.34 119.026L152.34 133.792Z" fill="#DBEFF1"/>
<path d="M165.597 133.792L167.125 133.792L167.125 119.026L165.597 119.026L165.597 133.792Z" fill="#DBEFF1"/>
<path d="M179.305 133.792L180.832 133.792L180.832 119.026L179.305 119.026L179.305 133.792Z" fill="#DBEFF1"/>
<path d="M192.855 133.792L194.383 133.792L194.383 119.026L192.855 119.026L192.855 133.792Z" fill="#DBEFF1"/>
<path d="M68.2114 133.792L70.9609 133.792L70.9609 119.026L68.2114 119.026L68.2114 133.792Z" fill="#B1DFE0"/>
<path d="M81.7231 133.792L84.4727 133.792L84.4727 119.026L81.7231 119.026L81.7231 133.792Z" fill="#B1DFE0"/>
<path d="M95.3833 133.792L98.1328 133.792L98.1328 119.026L95.3833 119.026L95.3833 133.792Z" fill="#B1DFE0"/>
<path d="M108.895 133.792L111.645 133.792L111.645 119.026L108.895 119.026L108.895 133.792Z" fill="#B1DFE0"/>
<path d="M122.403 133.792L125.152 133.792L125.152 119.026L122.403 119.026L122.403 133.792Z" fill="#B1DFE0"/>
<path d="M136.067 133.792L138.816 133.792L138.816 119.026L136.067 119.026L136.067 133.792Z" fill="#B1DFE0"/>
<path d="M149.575 133.792L152.324 133.792L152.324 119.026L149.575 119.026L149.575 133.792Z" fill="#B1DFE0"/>
<path d="M163.094 133.792L165.844 133.792L165.844 119.026L163.094 119.026L163.094 133.792Z" fill="#B1DFE0"/>
<path d="M176.602 133.792L179.352 133.792L179.352 119.026L176.602 119.026L176.602 133.792Z" fill="#B1DFE0"/>
<path d="M190.266 133.792L193.016 133.792L193.016 119.026L190.266 119.026L190.266 133.792Z" fill="#B1DFE0"/>
<path d="M261.301 72.1239V206.082H389.002V74.1028L327.901 13.2128L326.679 11.995L324.082 14.5828L322.096 16.5617L323.318 17.9318L261.301 72.1239Z" fill="#DBEFF1"/>
<path opacity="0.5" d="M316.754 16.5617L318.129 17.9318L320.725 20.5196L322.711 22.4985L383.659 83.2363L389.006 88.412V79.2785L383.659 74.1028L324.086 14.5828L322.711 13.2128L321.336 11.995L316.754 16.5617Z" fill="#9FD4D1"/>
<path d="M320.719 15.9526L322.705 17.9316L383.653 78.6694L388.999 83.845H395.109L383.653 69.5359L324.079 10.0159L320.719 15.9526Z" fill="#B1DFE0"/>
<path d="M323.467 12.1472C323.162 12.4517 323.162 13.0606 323.467 13.365L324.078 13.9739L328.661 18.5407L389.609 79.2785L394.039 83.693C394.344 83.9975 394.955 83.9975 395.261 83.693L398.621 80.344C398.927 80.0396 398.927 79.4307 398.621 79.1263L389.609 70.145L328.661 9.55941L328.05 8.95051C327.744 8.64606 327.133 8.64606 326.828 8.95051L323.467 12.1472Z" fill="#C1E5E8"/>
<path d="M239.001 146.866H219.602V180.051H239.001V146.866Z" fill="#DBEFF1"/>
<path d="M237.778 146.866H218.379V180.051H237.778V146.866Z" fill="#A3CFCF"/>
<path d="M240.831 180.052H235.332V185.075H240.831V180.052Z" fill="#DBEFF1"/>
<path d="M235.789 180.052H215.32V185.075H235.789V180.052Z" fill="#A3CFCF"/>
<path d="M236.399 148.084H220.207V178.529H236.399V148.084Z" fill="#DBEFF1"/>
<path d="M239.001 91.6086H219.602V124.794H239.001V91.6086Z" fill="#DBEFF1"/>
<path d="M237.778 91.6086H218.379V124.794H237.778V91.6086Z" fill="#A3CFCF"/>
<path d="M240.831 124.794H235.332V129.817H240.831V124.794Z" fill="#DBEFF1"/>
<path d="M235.789 124.794H215.32V129.817H235.789V124.794Z" fill="#A3CFCF"/>
<path d="M236.399 92.8264H220.207V123.271H236.399V92.8264Z" fill="#DBEFF1"/>
<path d="M67.3086 83.8453H251.528L328.057 8.34167H143.837L67.3086 83.8453Z" fill="#B1DFE0"/>
<path opacity="0.5" d="M238.392 108.962H85.793V83.8452H261.305L238.392 108.962Z" fill="#9FD4D1"/>
<path d="M67.4308 88.0703L255.469 88.0703L255.469 83.9602L67.4308 83.9602L67.4308 88.0703Z" fill="#A3CFCF"/>
<path d="M252.143 84.7584L255.504 88.1074C255.809 88.4118 256.42 88.4118 256.726 88.1074L268.487 76.3861L327.45 17.6272L331.269 13.8216C331.574 13.5171 331.574 12.9082 331.269 12.6038L327.908 9.25483C327.603 8.95038 326.992 8.95038 326.686 9.25483L251.99 83.6929C251.685 83.8451 251.685 84.3018 252.143 84.7584Z" fill="#C1E5E8"/>
<path d="M330.959 124.678L368.23 124.678L368.23 91.493L330.959 91.493L330.959 124.678Z" fill="#A3CFCF"/>
<path d="M332.4 124.678L369.672 124.678L369.672 91.493L332.4 91.493L332.4 124.678Z" fill="#C1E5E8"/>
<path d="M329.339 129.749L370.582 129.749L370.582 124.726L329.339 124.726L329.339 129.749Z" fill="#A3CFCF"/>
<path d="M334.583 129.749L373.688 129.749L373.688 124.726L334.583 124.726L334.583 129.749Z" fill="#C1E5E8"/>
<path d="M351.797 123.364L367.988 123.364L367.988 92.9186L351.797 92.9186L351.797 123.364Z" fill="white"/>
<path d="M333.882 123.364L350.074 123.364L350.074 92.9186L333.882 92.9186L333.882 123.364Z" fill="white"/>
<path d="M287.093 124.678L306.492 124.678L306.492 91.493L287.093 91.493L287.093 124.678Z" fill="#A3CFCF"/>
<path d="M288.304 124.678L307.703 124.678L307.703 91.493L288.304 91.493L288.304 124.678Z" fill="#C1E5E8"/>
<path d="M285.31 129.749L290.809 129.749L290.809 124.726L285.31 124.726L285.31 129.749Z" fill="#A3CFCF"/>
<path d="M290.367 129.749L310.836 129.749L310.836 124.726L290.367 124.726L290.367 129.749Z" fill="#C1E5E8"/>
<path d="M289.699 123.364L305.891 123.364L305.891 92.9186L289.699 92.9186L289.699 123.364Z" fill="white"/>
<path d="M287.093 179.962L306.492 179.962L306.492 146.777L287.093 146.777L287.093 179.962Z" fill="#A3CFCF"/>
<path d="M288.304 179.962L307.703 179.962L307.703 146.777L288.304 146.777L288.304 179.962Z" fill="#C1E5E8"/>
<path d="M285.31 185.033L290.809 185.033L290.809 180.01L285.31 180.01L285.31 185.033Z" fill="#A3CFCF"/>
<path d="M290.367 185.033L310.836 185.033L310.836 180.01L290.367 180.01L290.367 185.033Z" fill="#C1E5E8"/>
<path d="M289.699 178.648L305.891 178.648L305.891 148.203L289.699 148.203L289.699 178.648Z" fill="white"/>
<path d="M331.616 206.101L367.207 206.101L367.207 143.08L331.616 143.08L331.616 206.101Z" fill="#A3CFCF"/>
<path d="M333.112 206.101L368.703 206.101L368.703 143.08L333.112 143.08L333.112 206.101Z" fill="#C1E5E8"/>
<path d="M335.857 206.004L365.797 206.004L365.797 146.788L335.857 146.788L335.857 206.004Z" fill="#A3CFCF"/>
<path d="M335.84 146.866V150.52H363.183V206.082H365.016V146.866H335.84Z" fill="#9FD4D1"/>
<path d="M361.046 177.159C361.721 177.159 362.268 176.546 362.268 175.789C362.268 175.032 361.721 174.419 361.046 174.419C360.371 174.419 359.824 175.032 359.824 175.789C359.824 176.546 360.371 177.159 361.046 177.159Z" fill="#C1E5E8"/>
<path opacity="0.6" d="M324.39 11.995H140.477" stroke="#A3CFCF" stroke-width="1.114" stroke-miterlimit="10"/>
<path opacity="0.6" d="M313.238 22.9552H129.324" stroke="#A3CFCF" stroke-width="1.114" stroke-miterlimit="10"/>
<path opacity="0.6" d="M302.242 33.9155H118.328" stroke="#A3CFCF" stroke-width="1.114" stroke-miterlimit="10"/>
<path opacity="0.6" d="M291.085 44.8755H107.172" stroke="#A3CFCF" stroke-width="1.114" stroke-miterlimit="10"/>
<path opacity="0.6" d="M279.937 55.8358H96.0234" stroke="#A3CFCF" stroke-width="1.114" stroke-miterlimit="10"/>
<path opacity="0.6" d="M268.937 66.7959H85.0234" stroke="#A3CFCF" stroke-width="1.114" stroke-miterlimit="10"/>
<path opacity="0.6" d="M257.789 77.7561H73.875" stroke="#A3CFCF" stroke-width="1.114" stroke-miterlimit="10"/>
<path d="M139.44 7.65466L157.465 7.65466L157.465 0.95676L139.44 0.95676L139.44 7.65466Z" fill="#A3CFCF"/>
<path d="M157.398 7.65466L185.199 7.65466L185.199 0.95676L157.398 0.95676L157.398 7.65466Z" fill="#C1E5E8"/>
<path d="M145.633 55.3884L158.77 55.3884L158.77 7.74199L145.633 7.74199L145.633 55.3884Z" fill="#A3CFCF"/>
<path d="M158.844 55.3884L179.16 55.3884L179.16 7.74199L158.844 7.74199L158.844 55.3884Z" fill="#C1E5E8"/>
<path opacity="0.5" d="M145.543 16.5093L179.301 16.5093L179.301 7.68023L145.543 7.68023L145.543 16.5093Z" fill="#9FD4D1"/>
<path opacity="0.5" d="M85.7942 146.257V179.442H165.378L198.678 146.105H85.3359" fill="#9FD4D1"/>
<path d="M528.16 138.421L539.006 127.613" stroke="#A7D6D5" stroke-width="2.97068" stroke-miterlimit="10" stroke-linecap="round"/>
<path d="M528.162 116.805L517.164 105.845" stroke="#A7D6D5" stroke-width="2.97068" stroke-miterlimit="10" stroke-linecap="round"/>
<path d="M562.066 121.829L571.232 112.695" stroke="#A7D6D5" stroke-width="2.97068" stroke-miterlimit="10" stroke-linecap="round"/>
<path d="M487.379 47.0066C487.379 48.8333 487.684 50.5078 488.143 52.1822H519.915C520.526 50.5078 520.679 48.8333 520.679 47.0066C520.679 37.8731 513.194 30.4141 504.029 30.4141C498.988 30.4141 494.558 32.5452 491.503 36.0464C489.059 38.9387 487.379 42.7443 487.379 47.0066Z" fill="#DBEFF1"/>
<path d="M469.812 47.0067C469.812 48.8334 470.118 50.6601 470.882 52.1823H496.239C496.85 50.5078 497.308 48.8334 497.308 47.0067C497.308 42.4399 495.017 38.4821 491.656 35.8942C489.365 34.2197 486.615 33.3064 483.56 33.3064C481.727 33.3064 480.047 33.6108 478.519 34.2197C473.479 36.3509 469.812 41.2221 469.812 47.0067Z" fill="#DBEFF1"/>
<path d="M440.645 38.7866C440.645 43.9622 442.783 48.6812 446.144 52.1824H473.639C476.999 48.6812 479.138 43.9622 479.138 38.7866C479.138 37.2643 478.985 35.7421 478.527 34.2198C476.541 25.8474 468.904 19.6062 459.891 19.6062C451.948 19.6062 445.227 24.3252 442.325 31.0231C441.256 33.6109 440.645 36.1987 440.645 38.7866Z" fill="#DBEFF1"/>
<path d="M428.727 47.0067C428.727 48.8334 429.032 50.5079 429.643 52.1824H460.041C460.652 50.5079 460.957 48.8334 460.957 47.0067C460.957 38.1776 453.778 31.0231 444.918 31.0231C444.002 31.0231 443.238 31.0231 442.474 31.1753C434.531 32.3931 428.727 39.091 428.727 47.0067Z" fill="#DBEFF1"/>
</svg>
