<svg width="70" height="70" viewBox="0 0 70 70" fill="none" xmlns="http://www.w3.org/2000/svg">
<path d="M64.1439 66.058C63.0112 66.8205 61.6472 67.2656 60.1791 67.2656C56.2527 67.2656 53.0697 64.0827 53.0697 60.1562C53.0697 56.2298 56.2527 53.0469 60.1791 53.0469C61.6472 53.0469 63.0112 53.4922 64.1439 54.2545C62.2472 55.5312 60.9994 57.6979 60.9994 60.1562C60.9994 62.6146 62.2472 64.7812 64.1439 66.058ZM35.957 60.0195C35.957 57.5612 37.2049 55.3946 39.1016 54.1178C37.9688 53.3553 36.6048 52.9102 35.1367 52.9102C31.2103 52.9102 28.0273 56.0931 28.0273 60.0195C28.0273 63.946 31.2103 67.1289 35.1367 67.1289C36.6048 67.1289 37.9688 66.6836 39.1016 65.9213C37.2049 64.6445 35.957 62.4779 35.957 60.0195ZM10.6641 60.1562C10.6641 57.6979 11.9119 55.5313 13.8086 54.2545C12.6759 53.4922 11.3118 53.0469 9.84375 53.0469C5.91732 53.0469 2.73438 56.2298 2.73438 60.1562C2.73438 64.0827 5.91732 67.2656 9.84375 67.2656C11.3118 67.2656 12.6759 66.8203 13.8086 66.058C11.9119 64.7812 10.6641 62.6146 10.6641 60.1562Z" fill="#C4F0F5"/>
<path d="M42.3825 17.7734C42.3825 15.909 41.5548 14.1061 40.1117 12.827C38.737 11.6085 36.9217 10.9375 34.9997 10.9375C33.6747 10.9375 32.6755 10.3497 32.6755 9.57031C32.6755 8.81645 33.2888 8.20312 34.0426 8.20312C35.0139 8.20312 36.1953 8.31305 38.2469 9.11094C39.6544 9.65809 41.2391 8.96096 41.7864 7.55357C42.3337 6.14605 41.6364 4.56135 40.229 4.01406C39.3528 3.67336 38.5734 3.42275 37.8708 3.2375V2.73438C37.8708 1.22418 36.6466 0 35.1364 0C33.6262 0 32.402 1.22418 32.402 2.73438V2.9348C29.4226 3.67172 27.2067 6.36658 27.2067 9.57031C27.2067 13.4675 30.557 16.4062 34.9997 16.4062C36.0372 16.4062 36.9137 17.0324 36.9137 17.7734C36.9137 18.5145 36.2563 19.1406 35.4782 19.1406C34.9067 19.1406 32.9548 18.9543 30.8144 18.1036C29.4114 17.5459 27.8211 18.2312 27.2634 19.6346C26.7056 21.038 27.391 22.6278 28.7944 23.1856C30.0458 23.683 31.2876 24.027 32.4022 24.253V24.6094C32.4022 26.1196 33.6263 27.3438 35.1365 27.3438C36.6467 27.3438 37.8709 26.1196 37.8709 24.6094V24.1857C40.5021 23.22 42.3825 20.7103 42.3825 17.7734Z" fill="#EB384D"/>
<path d="M60.293 45.5274C58.7828 45.5274 57.5586 44.3032 57.5586 42.793V30.3487C57.5586 25.2748 53.9719 20.7876 49.0304 19.679C47.5568 19.3485 46.6303 17.886 46.9608 16.4124C47.2914 14.939 48.7534 14.0127 50.2275 14.3429C53.8057 15.1456 57.0542 17.1647 59.3742 20.0281C61.7299 22.9354 63.0273 26.6007 63.0273 30.3487V42.793C63.0273 44.3032 61.8032 45.5274 60.293 45.5274ZM12.3047 42.793V30.3487C12.3047 25.2748 15.8914 20.7876 20.8329 19.679C22.3065 19.3485 23.233 17.886 22.9024 16.4124C22.5719 14.9389 21.1091 14.0123 19.6358 14.3429C16.0576 15.1456 12.809 17.1647 10.4891 20.0281C8.13326 22.9354 6.83594 26.6007 6.83594 30.3487V42.793C6.83594 44.3032 8.06012 45.5274 9.57031 45.5274C11.0805 45.5274 12.3047 44.3032 12.3047 42.793ZM37.8711 42.5196V34.1797C37.8711 32.6695 36.6469 31.4453 35.1367 31.4453C33.6265 31.4453 32.4023 32.6695 32.4023 34.1797V42.5196C32.4023 44.0297 33.6265 45.2539 35.1367 45.2539C36.6469 45.2539 37.8711 44.0297 37.8711 42.5196ZM44.9805 60.1563C44.9805 54.7284 40.5646 50.3125 35.1367 50.3125C29.7088 50.3125 25.293 54.7284 25.293 60.1563C25.293 65.5841 29.7088 70 35.1367 70C40.5646 70 44.9805 65.5841 44.9805 60.1563ZM39.5117 60.1563C39.5117 62.5687 37.5491 64.5313 35.1367 64.5313C32.7243 64.5313 30.7617 62.5687 30.7617 60.1563C30.7617 57.7439 32.7243 55.7813 35.1367 55.7813C37.5491 55.7813 39.5117 57.7439 39.5117 60.1563ZM70 60.1563C70 54.7284 65.5841 50.3125 60.1562 50.3125C54.7284 50.3125 50.3125 54.7284 50.3125 60.1563C50.3125 65.5841 54.7284 70 60.1562 70C65.5841 70 70 65.5841 70 60.1563ZM64.5312 60.1563C64.5312 62.5687 62.5687 64.5313 60.1562 64.5313C57.7438 64.5313 55.7812 62.5687 55.7812 60.1563C55.7812 57.7439 57.7438 55.7813 60.1562 55.7813C62.5687 55.7813 64.5312 57.7439 64.5312 60.1563ZM19.6875 60.1563C19.6875 54.7284 15.2716 50.3125 9.84375 50.3125C4.41588 50.3125 0 54.7284 0 60.1563C0 65.5841 4.41588 70 9.84375 70C15.2716 70 19.6875 65.5841 19.6875 60.1563ZM14.2188 60.1563C14.2188 62.5687 12.2562 64.5313 9.84375 64.5313C7.43135 64.5313 5.46875 62.5687 5.46875 60.1563C5.46875 57.7439 7.43135 55.7813 9.84375 55.7813C12.2562 55.7813 14.2188 57.7439 14.2188 60.1563Z" fill="#15BBCC"/>
</svg>
