<svg width="26" height="26" viewBox="0 0 26 26" fill="none" xmlns="http://www.w3.org/2000/svg">
<path d="M0.292891 24.2929C-0.0976334 24.6834 -0.0976334 25.3166 0.292891 25.7071C0.683416 26.0976 1.31658 26.0976 1.70711 25.7071L6.50711 20.9071C6.89763 20.5166 6.89763 19.8834 6.50711 19.4929C6.11658 19.1024 5.48342 19.1024 5.09289 19.4929L0.292891 24.2929ZM15.4 21.2C21.2542 21.2 26 16.4542 26 10.6C26 4.74578 21.2542 0 15.4 0C9.54578 0 4.8 4.74578 4.8 10.6C4.8 16.4542 9.54578 21.2 15.4 21.2ZM15.4 19.2C10.6504 19.2 6.8 15.3496 6.8 10.6C6.8 5.85035 10.6504 2 15.4 2C20.1496 2 24 5.85035 24 10.6C24 15.3496 20.1496 19.2 15.4 19.2ZM20.3333 9.8C20.3333 10.1682 20.6318 10.4667 21 10.4667C21.3682 10.4667 21.6667 10.1682 21.6667 9.8C21.6667 6.78084 19.2192 4.33333 16.2 4.33333C15.8318 4.33333 15.5333 4.63181 15.5333 5C15.5333 5.36819 15.8318 5.66667 16.2 5.66667C18.4828 5.66667 20.3333 7.51722 20.3333 9.8Z" fill="#EB384D"/>
</svg>
