<svg width="14" height="13" viewBox="0 0 14 13" fill="none" xmlns="http://www.w3.org/2000/svg">
<path d="M12.6875 0.625H1.3125C0.574219 0.625 0 1.22656 0 1.9375V11.5625C0 12.3008 0.574219 12.875 1.3125 12.875H12.6875C13.3984 12.875 14 12.3008 14 11.5625V1.9375C14 1.22656 13.3984 0.625 12.6875 0.625ZM12.5234 11.5625H1.47656C1.36719 11.5625 1.3125 11.5078 1.3125 11.3984V2.10156C1.3125 2.01953 1.36719 1.9375 1.47656 1.9375H12.5234C12.6055 1.9375 12.6875 2.01953 12.6875 2.10156V11.3984C12.6875 11.5078 12.6055 11.5625 12.5234 11.5625ZM11.375 9.04688C11.375 8.88281 11.2109 8.71875 11.0469 8.71875H5.57812C5.38672 8.71875 5.25 8.88281 5.25 9.04688V9.70312C5.25 9.89453 5.38672 10.0312 5.57812 10.0312H11.0469C11.2109 10.0312 11.375 9.89453 11.375 9.70312V9.04688ZM11.375 6.42188C11.375 6.25781 11.2109 6.09375 11.0469 6.09375H5.57812C5.38672 6.09375 5.25 6.25781 5.25 6.42188V7.07812C5.25 7.26953 5.38672 7.40625 5.57812 7.40625H11.0469C11.2109 7.40625 11.375 7.26953 11.375 7.07812V6.42188ZM11.375 3.79688C11.375 3.63281 11.2109 3.46875 11.0469 3.46875H5.57812C5.38672 3.46875 5.25 3.63281 5.25 3.79688V4.45312C5.25 4.64453 5.38672 4.78125 5.57812 4.78125H11.0469C11.2109 4.78125 11.375 4.64453 11.375 4.45312V3.79688ZM4.48438 4.125C4.48438 3.60547 4.01953 3.14062 3.5 3.14062C2.95312 3.14062 2.51562 3.60547 2.51562 4.125C2.51562 4.67188 2.95312 5.10938 3.5 5.10938C4.01953 5.10938 4.48438 4.67188 4.48438 4.125ZM4.48438 6.75C4.48438 6.23047 4.01953 5.76562 3.5 5.76562C2.95312 5.76562 2.51562 6.23047 2.51562 6.75C2.51562 7.29688 2.95312 7.73438 3.5 7.73438C4.01953 7.73438 4.48438 7.29688 4.48438 6.75ZM4.48438 9.375C4.48438 8.85547 4.01953 8.39062 3.5 8.39062C2.95312 8.39062 2.51562 8.85547 2.51562 9.375C2.51562 9.92188 2.95312 10.3594 3.5 10.3594C4.01953 10.3594 4.48438 9.92188 4.48438 9.375Z" fill="#999999"/>
</svg>
