<svg width="14" height="16" viewBox="0 0 14 16" fill="none" xmlns="http://www.w3.org/2000/svg">
<path d="M11 10C10.2812 10 9.625 10.25 9.125 10.6562L5.90625 8.65625C5.9375 8.5 6 8.1875 6 8C6 7.84375 5.9375 7.53125 5.90625 7.375L9.125 5.375C9.625 5.78125 10.2812 6 11 6C12.6562 6 14 4.6875 14 3C14 1.34375 12.6562 0 11 0C9.3125 0 8 1.34375 8 3C8 3.25 8 3.46875 8.0625 3.65625L4.84375 5.65625C4.34375 5.25 3.6875 5 3 5C1.3125 5 0 6.34375 0 8C0 9.6875 1.3125 11 3 11C3.6875 11 4.34375 10.7812 4.84375 10.375L8.0625 12.375C8.03125 12.5312 8 12.8438 8 13C8 14.6875 9.3125 16 11 16C12.6562 16 14 14.6875 14 13C14 11.3438 12.6562 10 11 10Z" fill="#666666"/>
</svg>
