<svg width="22" height="22" viewBox="0 0 22 22" fill="none" xmlns="http://www.w3.org/2000/svg">
<path d="M11 0.09375C12.8906 0.09375 14.6953 0.609375 16.3281 1.55469C17.9609 2.5 19.25 3.78906 20.1953 5.42188C21.1406 7.05469 21.6562 8.85938 21.6562 10.75C21.6562 12.6836 21.1406 14.4453 20.1953 16.0781C19.25 17.7109 17.9609 19.043 16.3281 19.9883C14.6953 20.9336 12.8906 21.4062 11 21.4062C9.06641 21.4062 7.30469 20.9336 5.67188 19.9883C4.03906 19.043 2.70703 17.7109 1.76172 16.0781C0.816406 14.4453 0.34375 12.6836 0.34375 10.75C0.34375 8.85938 0.816406 7.05469 1.76172 5.42188C2.70703 3.78906 4.03906 2.5 5.67188 1.55469C7.30469 0.609375 9.06641 0.09375 11 0.09375ZM16.2422 7.39844C16.2852 7.05469 16.2422 6.83984 16.0703 6.66797C15.8984 6.49609 15.7266 6.45312 15.5117 6.53906L5.24219 10.5352C4.85547 10.6641 4.64062 10.793 4.64062 10.9648C4.64062 11.1367 4.76953 11.2656 5.11328 11.3516L7.73438 12.168L13.8359 8.34375C13.9648 8.25781 14.0938 8.25781 14.1797 8.25781C14.2656 8.30078 14.2656 8.34375 14.1797 8.42969L9.23828 12.8984L9.02344 15.6055C9.19531 15.6055 9.41016 15.5195 9.58203 15.3477L10.8711 14.1016L13.5352 16.0781C14.0508 16.3789 14.3516 16.25 14.4805 15.6484L16.2422 7.39844Z" fill="#EB384D"/>
</svg>
