<svg width="18" height="13" viewBox="0 0 18 13" fill="none" xmlns="http://www.w3.org/2000/svg">
<path d="M13.375 6.75C14.8242 6.75 16 5.57422 16 4.125C16 2.67578 14.8242 1.5 13.375 1.5C11.9258 1.5 10.75 2.67578 10.75 4.125C10.75 5.57422 11.9258 6.75 13.375 6.75ZM13.375 2.8125C14.0859 2.8125 14.6875 3.41406 14.6875 4.125C14.6875 4.86328 14.0859 5.4375 13.375 5.4375C12.6367 5.4375 12.0625 4.86328 12.0625 4.125C12.0625 3.41406 12.6367 2.8125 13.375 2.8125ZM7.6875 7.29688C7.35938 7.29688 7.03125 7.35156 6.70312 7.46094C6.32031 7.57031 5.91016 7.625 5.47266 7.625C5.0625 7.625 4.65234 7.57031 4.26953 7.46094C3.94141 7.35156 3.61328 7.29688 3.28516 7.29688C2.30078 7.29688 1.34375 7.76172 0.769531 8.58203C0.441406 9.10156 0.25 9.70312 0.25 10.3594V11.5625C0.25 12.3008 0.824219 12.875 1.5625 12.875H9.4375C10.1484 12.875 10.75 12.3008 10.75 11.5625V10.3594C10.75 9.70312 10.5312 9.10156 10.2031 8.58203C9.62891 7.76172 8.67188 7.29688 7.6875 7.29688ZM9.4375 11.5625H1.5625V10.3594C1.5625 9.56641 2.05469 8.88281 2.76562 8.63672C3.03906 8.52734 3.33984 8.52734 3.64062 8.63672C4.24219 8.82812 4.87109 8.9375 5.5 8.9375C6.12891 8.9375 6.73047 8.82812 7.35938 8.63672C7.63281 8.52734 7.93359 8.52734 8.23438 8.63672C8.91797 8.88281 9.4375 9.56641 9.4375 10.3594V11.5625ZM5.5 6.75C7.16797 6.75 8.5625 5.38281 8.5625 3.6875C8.5625 2.01953 7.16797 0.625 5.5 0.625C3.80469 0.625 2.4375 2.01953 2.4375 3.6875C2.4375 5.38281 3.80469 6.75 5.5 6.75ZM5.5 1.9375C6.45703 1.9375 7.25 2.73047 7.25 3.6875C7.25 4.67188 6.45703 5.4375 5.5 5.4375C4.51562 5.4375 3.75 4.67188 3.75 3.6875C3.75 2.73047 4.51562 1.9375 5.5 1.9375ZM17.2852 8.44531C16.8203 7.73438 16.0273 7.35156 15.1797 7.35156C14.4414 7.35156 14.25 7.625 13.375 7.625C12.5 7.625 12.3086 7.35156 11.543 7.35156C11.1602 7.35156 10.832 7.43359 10.5039 7.59766C10.6406 7.73438 10.8047 7.92578 10.9414 8.08984C11.0508 8.28125 11.1602 8.5 11.2695 8.69141C11.3516 8.69141 11.4336 8.66406 11.543 8.66406C12.0078 8.66406 12.3359 8.9375 13.375 8.9375C14.3867 8.9375 14.7148 8.66406 15.1797 8.66406C15.6172 8.66406 16 8.85547 16.1914 9.15625C16.3555 9.375 16.4375 9.62109 16.4375 9.89453V10.6875H11.625V11.5625C11.625 11.7266 11.5977 11.8633 11.5703 12H16.6562C17.2578 12 17.75 11.5352 17.75 10.9062V9.89453C17.75 9.34766 17.5859 8.85547 17.2852 8.44531Z" fill="#1899A7"/>
</svg>
