<svg width="20" height="22" viewBox="0 0 20 22" fill="none" xmlns="http://www.w3.org/2000/svg">
<path d="M19.9822 8.09204H20V18.1567C20 20.0025 18.4738 21.5 16.5927 21.5H3.40729C1.52619 21.5 0 20.0025 0 18.1567V4.90547C0 3.28607 1.43746 1.96269 3.22983 1.89303V3.77363C3.22983 4.83582 4.11713 5.70647 5.19965 5.70647C6.28217 5.70647 7.16946 4.83582 7.16946 3.77363V1.89303H12.7418V3.75622C12.7418 4.81841 13.6291 5.68905 14.7116 5.68905C15.7941 5.68905 16.6815 4.81841 16.6815 3.75622V1.87562C18.5093 1.92786 19.9822 3.26866 19.9822 4.90547V8.09204ZM18.5093 18.1567V8.09204H1.49069V18.1567C1.49069 19.1841 2.34251 20.0373 3.40729 20.0373H16.5927C17.6397 20.0373 18.5093 19.2015 18.5093 18.1567ZM4.34784 1.33582C4.34784 0.883085 4.73824 0.5 5.19965 0.5C5.67879 0.5 6.0692 0.883085 6.05145 1.33582V3.75622C6.05145 4.20895 5.67879 4.59204 5.19965 4.59204C4.73824 4.59204 4.34784 4.22637 4.34784 3.75622V1.33582ZM14.7116 0.5C15.1908 0.5 15.5634 0.883085 15.5634 1.33582V3.75622C15.5634 4.20895 15.1908 4.59204 14.7116 4.59204C14.2502 4.59204 13.8598 4.22637 13.8598 3.75622V1.33582C13.8598 0.883085 14.2325 0.5 14.7116 0.5ZM3.17657 14.7264C2.82165 14.7264 2.51997 14.4478 2.53772 14.0821C2.53772 13.7338 2.82165 13.4552 3.17657 13.4552H15.2085L12.3336 10.6343C12.0852 10.3905 12.0852 9.99005 12.3336 9.74627C12.4578 9.62438 12.6353 9.55473 12.795 9.55473C12.9548 9.55473 13.1145 9.62438 13.2387 9.74627L17.2138 13.6468C17.4623 13.8905 17.4623 14.291 17.2138 14.5348L13.2387 18.4353C12.9902 18.6791 12.5821 18.6791 12.3336 18.4353C12.0852 18.1915 12.0852 17.791 12.3336 17.5473L15.2085 14.7264H3.17657Z" fill="#C5C5C5"/>
</svg>
