<svg width="20" height="22" viewBox="0 0 20 22" fill="none" xmlns="http://www.w3.org/2000/svg">
<path d="M0.0177612 8.09204H0V18.1567C0 20.0025 1.52619 21.5 3.40729 21.5H16.5927C18.4738 21.5 20 20.0025 20 18.1567V4.90547C20 3.28607 18.5626 1.96269 16.7702 1.89303V3.77363C16.7702 4.83582 15.8829 5.70647 14.8004 5.70647C13.7178 5.70647 12.8305 4.83582 12.8305 3.77363V1.89303H7.25818V3.75622C7.25818 4.81841 6.37091 5.68905 5.28839 5.68905C4.20587 5.68905 3.31854 4.81841 3.31854 3.75622V1.87562C1.49068 1.92786 0.0177612 3.26866 0.0177612 4.90547V8.09204ZM1.49066 18.1567V8.09204H18.5093V18.1567C18.5093 19.1841 17.6575 20.0373 16.5927 20.0373H3.40729C2.36026 20.0373 1.49066 19.2015 1.49066 18.1567ZM15.6522 1.33582C15.6522 0.883085 15.2618 0.5 14.8004 0.5C14.3212 0.5 13.9308 0.883085 13.9485 1.33582V3.75622C13.9485 4.20895 14.3212 4.59204 14.8004 4.59204C15.2618 4.59204 15.6522 4.22637 15.6522 3.75622V1.33582ZM5.28839 0.5C4.80924 0.5 4.43658 0.883085 4.43658 1.33582V3.75622C4.43658 4.20895 4.80924 4.59204 5.28839 4.59204C5.74979 4.59204 6.1402 4.22637 6.1402 3.75622V1.33582C6.1402 0.883085 5.76754 0.5 5.28839 0.5ZM16.8234 14.7264C17.1784 14.7264 17.48 14.4478 17.4623 14.0821C17.4623 13.7338 17.1784 13.4552 16.8234 13.4552H4.7915L7.66638 10.6343C7.91483 10.3905 7.91483 9.99005 7.66638 9.74627C7.54216 9.62438 7.36467 9.55473 7.20496 9.55473C7.04524 9.55473 6.88552 9.62438 6.76129 9.74627L2.78613 13.6468C2.53769 13.8905 2.53769 14.291 2.78613 14.5348L6.76129 18.4353C7.00974 18.6791 7.41793 18.6791 7.66638 18.4353C7.91483 18.1915 7.91483 17.791 7.66638 17.5473L4.7915 14.7264H16.8234Z" fill="#C8C8C8"/>
</svg>
