<svg width="13" height="15" viewBox="0 0 13 15" fill="none" xmlns="http://www.w3.org/2000/svg">
<path d="M8.93359 9.0625C8.14062 9.0625 7.78516 9.5 6.5 9.5C5.1875 9.5 4.83203 9.0625 4.03906 9.0625C2.01562 9.0625 0.375 10.7305 0.375 12.7539V13.4375C0.375 14.1758 0.949219 14.75 1.6875 14.75H11.3125C12.0234 14.75 12.625 14.1758 12.625 13.4375V12.7539C12.625 10.7305 10.957 9.0625 8.93359 9.0625ZM11.3125 13.4375H1.6875V12.7539C1.6875 11.4414 2.72656 10.375 4.03906 10.375C4.44922 10.375 5.07812 10.8125 6.5 10.8125C7.89453 10.8125 8.52344 10.375 8.93359 10.375C10.2461 10.375 11.3125 11.4414 11.3125 12.7539V13.4375ZM6.5 8.625C8.66016 8.625 10.4375 6.875 10.4375 4.6875C10.4375 2.52734 8.66016 0.75 6.5 0.75C4.3125 0.75 2.5625 2.52734 2.5625 4.6875C2.5625 6.875 4.3125 8.625 6.5 8.625ZM6.5 2.0625C7.92188 2.0625 9.125 3.26562 9.125 4.6875C9.125 6.13672 7.92188 7.3125 6.5 7.3125C5.05078 7.3125 3.875 6.13672 3.875 4.6875C3.875 3.26562 5.05078 2.0625 6.5 2.0625Z" fill="#1899A7"/>
</svg>
