<svg width="26" height="27" viewBox="0 0 26 27" fill="none" xmlns="http://www.w3.org/2000/svg">
<path d="M0.292891 24.3136C-0.0976334 24.7042 -0.0976334 25.3373 0.292891 25.7279C0.683414 26.1184 1.31658 26.1184 1.70711 25.7279L6.50711 20.9279C6.89763 20.5373 6.89763 19.9042 6.50711 19.5136C6.11658 19.1231 5.48342 19.1231 5.09289 19.5136L0.292891 24.3136ZM15.4 21.2208C21.2542 21.2208 26 16.475 26 10.6208C26 4.76653 21.2542 0.020752 15.4 0.020752C9.54578 0.020752 4.8 4.76653 4.8 10.6208C4.8 16.475 9.54578 21.2208 15.4 21.2208ZM15.4 19.2208C10.6504 19.2208 6.8 15.3704 6.8 10.6208C6.8 5.8711 10.6504 2.02075 15.4 2.02075C20.1496 2.02075 24 5.8711 24 10.6208C24 15.3704 20.1496 19.2208 15.4 19.2208Z" fill="white"/>
</svg>
