<svg id="Layer_1" data-name="Layer 1" xmlns="http://www.w3.org/2000/svg" viewBox="0 0 255 182"><defs><style>.cls-1{fill:#fff;}.cls-2{opacity:0.15;}.cls-3{fill:#e70008;}.cls-4{fill:#303338;opacity:0.1;}.cls-4,.cls-5{isolation:isolate;}.cls-5{fill:#fff5f4;opacity:0.4;}.cls-6{fill:#fce7be;}.cls-7{fill:none;stroke:#fce7be;stroke-miterlimit:10;stroke-width:0.9px;}.cls-8{fill:#eb384d;}.cls-9{fill:#15bbcc;}</style></defs><title>Artboard 60</title><rect class="cls-1" width="255" height="182"/><g class="cls-2"><path class="cls-3" d="M207.94,144.55c.41-.9,1.93.2,4.68.7,2.21.41,5.21-1.69,6.68-3.49,1.89-2.34,2.63-7,.17-11.28-1.6-2.83-6.16-6.52-11-5.82a9.3,9.3,0,0,0-7.87,7.62,7,7,0,0,0,1.81,6.89c1.92,2.26,1.27,3.08.08,3.49a18.63,18.63,0,0,1-2,.58s1.68,1.06,2.58.41-.12,1.14.17,1.8a2.32,2.32,0,0,0,.53.86s.7-2.54,1.43-2.38c.17,0-1.18,1.73-.24,3.32.49.87.61.78.61.78s-.2-2.13.74-2.54,0,.66.74,1.56c.45.62.41.66.41.66A9.38,9.38,0,0,1,207.94,144.55Z"/><path class="cls-4" d="M219.42,130.48c-1.59-2.83-6.15-6.52-11-5.82a9.3,9.3,0,0,0-7.87,7.62,7,7,0,0,0,1.8,6.89,7.68,7.68,0,0,1,1.77-6.89,10.61,10.61,0,0,1,9.88-3.65A21.68,21.68,0,0,1,219.42,130.48Z"/><path class="cls-5" d="M212.33,143.6s1.27.41,1.64-.24.16-1.72-.61-1.64-1.81.33-1.93.61A1.33,1.33,0,0,0,212.33,143.6Z"/><path class="cls-5" d="M215.82,142.05s.12-.74-.25-.87-.78,0-.7.46.17.69.33.73A.45.45,0,0,0,215.82,142.05Z"/><path class="cls-3" d="M151,147.05c.78.62-.66,1.85-1.73,4.39-.86,2.05.45,5.46,1.89,7.3,1.89,2.38,6.23,4.1,11,2.71,3.12-.94,7.71-4.55,8.12-9.39s-2.5-7.88-5.66-9.4a7.06,7.06,0,0,0-7.13.21c-2.63,1.39-3.29.57-3.45-.7-.08-.78-.12-2-.12-2s-1.44,1.4-1,2.42-1.06-.37-1.76-.25a2.22,2.22,0,0,0-.94.33s2.33,1.23,2,1.93c-.09.16-1.4-1.56-3.16-1-.95.28-.86.41-.86.41s2.13.28,2.29,1.27-.65-.13-1.68.37c-.7.33-.74.24-.74.24A10.59,10.59,0,0,1,151,147.05Z"/><path class="cls-4" d="M162.14,161.41c3.12-.95,7.71-4.55,8.12-9.39s-2.5-7.88-5.66-9.4a7.08,7.08,0,0,0-7.14.21,7.7,7.7,0,0,1,6.32,3.24,10.56,10.56,0,0,1,1.31,10.46A19.31,19.31,0,0,1,162.14,161.41Z"/><path class="cls-3" d="M258.38,46.28c-.41.91-1.93-.2-4.68-.69-2.21-.41-5.21,1.68-6.68,3.48-1.89,2.34-2.63,7-.17,11.28,1.6,2.83,6.15,6.52,11,5.83a9.32,9.32,0,0,0,7.88-7.63,7,7,0,0,0-1.81-6.89c-1.92-2.26-1.27-3.08-.08-3.49a17.64,17.64,0,0,1,2-.57s-1.68-1.07-2.58-.41.12-1.15-.17-1.81a2.49,2.49,0,0,0-.53-.86s-.7,2.54-1.44,2.38c-.16,0,1.19-1.72.25-3.32-.49-.87-.62-.78-.62-.78s.21,2.13-.73,2.54-.05-.66-.74-1.56c-.45-.61-.41-.66-.41-.66A9.38,9.38,0,0,1,258.38,46.28Z"/><path class="cls-4" d="M246.89,60.35c1.6,2.83,6.15,6.52,11,5.83a9.32,9.32,0,0,0,7.88-7.63A7,7,0,0,0,264,51.66a7.66,7.66,0,0,1-1.76,6.89,10.61,10.61,0,0,1-9.88,3.65A21.85,21.85,0,0,1,246.89,60.35Z"/><path class="cls-5" d="M254,47.23s-1.27-.41-1.64.24-.17,1.73.61,1.64,1.81-.33,1.93-.61A1.33,1.33,0,0,0,254,47.23Z"/><path class="cls-5" d="M250.5,48.78s-.12.74.25.87.78,0,.7-.45-.17-.7-.33-.74A.46.46,0,0,0,250.5,48.78Z"/><path class="cls-3" d="M210.82,170.83c.77.62-.66,1.85-1.73,4.39-.86,2.05.45,5.46,1.89,7.3,1.89,2.38,6.23,4.1,11,2.71,3.12-.94,7.71-4.55,8.12-9.39s-2.5-7.88-5.66-9.4a7.06,7.06,0,0,0-7.13.21c-2.63,1.39-3.29.57-3.45-.7-.08-.78-.12-2-.12-2s-1.44,1.4-1,2.42-1.06-.37-1.76-.24a2.15,2.15,0,0,0-.94.32s2.33,1.23,2,1.93c-.09.17-1.4-1.56-3.16-1-.95.28-.86.41-.86.41s2.13.28,2.29,1.27-.65-.12-1.68.37c-.7.33-.74.24-.74.24A10.59,10.59,0,0,1,210.82,170.83Z"/><path class="cls-4" d="M221.93,185.19c3.12-.94,7.71-4.55,8.12-9.39s-2.5-7.88-5.66-9.4a7.08,7.08,0,0,0-7.14.21,7.7,7.7,0,0,1,6.32,3.24,10.56,10.56,0,0,1,1.31,10.46A19.65,19.65,0,0,1,221.93,185.19Z"/><path class="cls-5" d="M150.9,151.56s-.65,1.15-.12,1.65,1.64.53,1.72-.21.08-1.85-.16-2A1.33,1.33,0,0,0,150.9,151.56Z"/><path class="cls-5" d="M151.68,155.3s.7.28.9,0,.13-.78-.28-.78-.7,0-.78.16A.44.44,0,0,0,151.68,155.3Z"/><path class="cls-3" d="M218.93,77c.36-.91,1.92.08,4.67.41,2.22.24,5.09-2,6.44-3.9,1.76-2.46,2.17-7.14-.53-11.28-1.77-2.71-6.57-6.11-11.32-5.13a9.27,9.27,0,0,0-7.38,8.08A7,7,0,0,0,213,72c2.09,2.13,1.48,3,.29,3.49-.74.32-1.93.69-1.93.69s1.72,1,2.58.25,0,1.15.25,1.76a2.94,2.94,0,0,0,.57.82s.54-2.58,1.27-2.46c.17,0-1.1,1.77-.08,3.33.54.82.66.73.66.73s-.33-2.13.57-2.58.09.66.82,1.52c.5.57.45.61.45.61A12.07,12.07,0,0,1,218.93,77Z"/><path class="cls-4" d="M229.55,62.23c-1.77-2.71-6.56-6.11-11.32-5.13a9.27,9.27,0,0,0-7.38,8.08A7,7,0,0,0,213.06,72a7.7,7.7,0,0,1,1.31-7,10.58,10.58,0,0,1,9.68-4.23A21.23,21.23,0,0,1,229.55,62.23Z"/><path class="cls-5" d="M223.27,75.81s1.31.32,1.6-.37,0-1.73-.7-1.6-1.8.45-1.88.74A1.32,1.32,0,0,0,223.27,75.81Z"/><path class="cls-5" d="M226.64,74s.08-.74-.29-.86-.78.08-.66.49.21.7.37.7A.42.42,0,0,0,226.64,74Z"/><path class="cls-3" d="M237.6,15.46c.37-.9,1.92.08,4.67.41,2.22.25,5.09-2,6.44-3.9,1.76-2.46,2.17-7.13-.53-11.28-1.77-2.7-6.56-6.11-11.32-5.12a9.25,9.25,0,0,0-7.38,8.08,7,7,0,0,0,2.21,6.77c2.09,2.13,1.48,2.95.29,3.48-.74.33-1.93.7-1.93.7s1.72,1,2.58.24,0,1.15.25,1.77a3,3,0,0,0,.58.82s.53-2.59,1.27-2.46c.16,0-1.11,1.76-.09,3.32.54.82.66.74.66.74s-.33-2.13.57-2.59.09.66.83,1.52c.49.58.45.62.45.62A12,12,0,0,1,237.6,15.46Z"/><path class="cls-4" d="M248.22.69c-1.76-2.7-6.56-6.11-11.32-5.12a9.25,9.25,0,0,0-7.38,8.08,7,7,0,0,0,2.21,6.77,7.71,7.71,0,0,1,1.32-7,10.54,10.54,0,0,1,9.67-4.22A21.3,21.3,0,0,1,248.22.69Z"/><path class="cls-5" d="M241.94,14.27s1.32.33,1.6-.37,0-1.72-.69-1.6S241,12.75,241,13A1.32,1.32,0,0,0,241.94,14.27Z"/><path class="cls-5" d="M245.31,12.47s.08-.74-.29-.87-.78.09-.66.5.21.69.37.69A.41.41,0,0,0,245.31,12.47Z"/><path class="cls-3" d="M134.13,110.18c-.9-.37.16-1.93.53-4.68.33-2.21-1.84-5.16-3.69-6.56-2.42-1.8-7-2.38-11.28.21-2.78,1.68-6.31,6.35-5.45,11.15s4.43,7,7.87,7.63a7.11,7.11,0,0,0,6.85-2c2.18-2,3-1.39,3.49-.2.29.73.65,2,.65,2s1-1.69.33-2.59,1.15.08,1.77-.2a2.21,2.21,0,0,0,.86-.58s-2.55-.61-2.42-1.35c0-.17,1.76,1.15,3.32.16.82-.53.74-.65.74-.65s-2.13.28-2.54-.66.65-.08,1.51-.78c.58-.49.66-.41.66-.41A11,11,0,0,1,134.13,110.18Z"/><path class="cls-4" d="M119.69,99.15c-2.78,1.68-6.31,6.35-5.45,11.15s4.43,7,7.87,7.63a7.11,7.11,0,0,0,6.85-2A7.62,7.62,0,0,1,122,114.4a10.71,10.71,0,0,1-4-9.76A22.63,22.63,0,0,1,119.69,99.15Z"/><path class="cls-5" d="M133.06,105.79s.33-1.31-.32-1.6-1.73-.12-1.64.66.4,1.8.69,1.88A1.25,1.25,0,0,0,133.06,105.79Z"/><path class="cls-5" d="M131.38,102.39s-.74-.13-.86.28.08.78.49.7.7-.2.7-.37A.45.45,0,0,0,131.38,102.39Z"/><path class="cls-3" d="M171.8,3.37c.46.86-1.35,1.4-3.4,3.28-1.64,1.52-1.84,5.17-1.31,7.43.7,3,3.94,6.31,8.86,7,3.24.45,8.9-.9,11.27-5.17s1-8.2-1.23-10.91a7.09,7.09,0,0,0-6.56-2.79c-3,.17-3.2-.86-2.83-2.09.25-.78.74-1.93.74-1.93s-1.89.66-1.89,1.81-.82-.78-1.51-1a2.26,2.26,0,0,0-1-.12s1.6,2.09,1,2.58c-.13.13-.62-2-2.46-2.21-1-.12-1,0-1,0S172.26.46,172,1.44s-.57-.37-1.68-.37c-.78,0-.74-.08-.74-.08A11.9,11.9,0,0,1,171.8,3.37Z"/><path class="cls-4" d="M175.91,21.09c3.24.45,8.89-.9,11.27-5.17s1-8.2-1.23-10.91a7.09,7.09,0,0,0-6.56-2.79,7.7,7.7,0,0,1,4.39,5.58,10.56,10.56,0,0,1-3.16,10.09A21.53,21.53,0,0,1,175.91,21.09Z"/><path class="cls-5" d="M169.84,7.43s-1.11.78-.78,1.44,1.27,1.19,1.68.53.86-1.64.7-1.89A1.36,1.36,0,0,0,169.84,7.43Z"/><path class="cls-5" d="M168.93,11.12s.5.54.86.33.46-.65.09-.82-.66-.29-.78-.16A.43.43,0,0,0,168.93,11.12Z"/><path class="cls-6" d="M24.71,92.75a5.16,5.16,0,0,0-.46.49,3.78,3.78,0,0,1-.49.49c-.12,0,0,.21.09.17s.36-.33.49-.49l.49-.54C25,92.79,24.83,92.67,24.71,92.75Z"/><path class="cls-3" d="M79.43,156.78c-.66-.74.94-1.68,2.5-4,1.23-1.85.53-5.46-.53-7.51-1.4-2.66-5.38-5.16-10.3-4.63-3.24.33-8.4,3.07-9.72,7.75s1,8.2,3.86,10.25a7,7,0,0,0,7.05,1.11c2.83-.9,3.33,0,3.24,1.31,0,.78-.24,2.06-.24,2.06S76.93,162,76.68,161s1,.58,1.68.58a2.69,2.69,0,0,0,1-.13s-2-1.64-1.6-2.25c.12-.13,1.1,1.76,2.91,1.56,1-.13.94-.25.94-.25s-2-.66-2-1.68.62.2,1.72-.08c.74-.21.74-.13.74-.13A11,11,0,0,1,79.43,156.78Z"/><path class="cls-4" d="M71.1,140.62c-3.24.33-8.4,3.07-9.72,7.75s1,8.2,3.86,10.25a7,7,0,0,0,7.05,1.11,7.64,7.64,0,0,1-5.62-4.35,10.6,10.6,0,0,1,.62-10.54A22.86,22.86,0,0,1,71.1,140.62Z"/><path class="cls-5" d="M80.33,152.39s.86-1,.41-1.6-1.52-.82-1.76-.12-.41,1.8-.21,2A1.35,1.35,0,0,0,80.33,152.39Z"/><path class="cls-5" d="M80.29,148.57s-.62-.41-.9-.12-.29.74.12.82.7.12.78,0S80.62,148.82,80.29,148.57Z"/><path class="cls-3" d="M52,109.82c-.66-.74.94-1.68,2.5-4,1.23-1.85.53-5.45-.53-7.51-1.4-2.66-5.37-5.16-10.29-4.63-3.25.33-8.41,3.08-9.73,7.75a9.31,9.31,0,0,0,3.86,10.26,7,7,0,0,0,7,1.1c2.83-.9,3.33,0,3.24,1.32,0,.77-.24,2.05-.24,2.05s1.64-1.11,1.39-2.18,1,.58,1.68.58a2.69,2.69,0,0,0,1-.13s-2.05-1.64-1.6-2.25c.12-.13,1.11,1.76,2.91,1.56,1-.13.94-.25.94-.25s-2.05-.66-2.05-1.68.62.2,1.73-.08c.73-.21.73-.13.73-.13A11,11,0,0,1,52,109.82Z"/><path class="cls-4" d="M43.71,93.66c-3.25.33-8.41,3.07-9.73,7.75a9.29,9.29,0,0,0,3.86,10.25,7,7,0,0,0,7,1.11,7.64,7.64,0,0,1-5.62-4.35,10.61,10.61,0,0,1,.62-10.54A22.71,22.71,0,0,1,43.71,93.66Z"/><path class="cls-5" d="M52.93,105.43s.86-1,.41-1.6-1.51-.82-1.76-.12-.41,1.8-.21,2A1.35,1.35,0,0,0,52.93,105.43Z"/><path class="cls-5" d="M52.89,101.62s-.61-.41-.9-.13-.29.74.12.82.7.13.78,0S53.22,101.86,52.89,101.62Z"/><path class="cls-3" d="M-3.41,132.81c.41-.9,1.93.21,4.68.7,2.21.41,5.2-1.68,6.68-3.48,1.89-2.34,2.63-7,.16-11.28-1.6-2.83-6.15-6.53-11-5.83a9.32,9.32,0,0,0-7.87,7.63,7,7,0,0,0,1.8,6.89c1.93,2.26,1.28,3.08.09,3.49a20.32,20.32,0,0,1-2,.57s1.68,1.07,2.58.41-.12,1.15.17,1.81a2.45,2.45,0,0,0,.53.86s.7-2.55,1.43-2.38c.17,0-1.19,1.72-.24,3.32.49.86.61.78.61.78s-.2-2.13.74-2.54,0,.65.74,1.56c.45.61.41.65.41.65A9.41,9.41,0,0,1-3.41,132.81Z"/><path class="cls-4" d="M8.07,118.75c-1.6-2.83-6.15-6.53-11-5.83a9.32,9.32,0,0,0-7.87,7.63A7,7,0,0,0-9,127.44a7.68,7.68,0,0,1,1.77-6.89,10.61,10.61,0,0,1,9.88-3.65A21.23,21.23,0,0,1,8.07,118.75Z"/><path class="cls-5" d="M1,131.87s1.27.41,1.64-.25S2.78,129.9,2,130s-1.8.33-1.92.62A1.32,1.32,0,0,0,1,131.87Z"/><path class="cls-5" d="M4.46,130.31s.13-.74-.24-.86-.78,0-.7.45.17.7.33.74A.45.45,0,0,0,4.46,130.31Z"/><path class="cls-3" d="M34.67,28.7c.25-.95,1.93-.13,4.72-.08,2.25,0,4.88-2.51,6-4.56,1.47-2.62,1.43-7.3-1.73-11.15-2-2.55-7.13-5.42-11.77-3.9s-6.31,5.33-6.52,8.82a7.07,7.07,0,0,0,2.91,6.52c2.3,1.89,1.77,2.79.66,3.44a19.37,19.37,0,0,1-1.84.91s1.8.78,2.58,0,.08,1.14.45,1.72a2.32,2.32,0,0,0,.66.78s.24-2.63,1-2.59c.16,0-.9,1.89.29,3.33.61.73.74.65.74.65s-.54-2.09.28-2.62.17.65,1,1.39c.57.54.49.58.49.58A10.18,10.18,0,0,1,34.67,28.7Z"/><path class="cls-6" d="M35.65,26.89a8.37,8.37,0,0,1,3.53-.49c2.59,0,5.46-2.67,5.21-5s.41-4.56-1.89-7.1-6.39-4.26-9.14-3.81-4.72,1.6-5.46,4-2,3.57-.73,6,4.26,4.59,4.88,5.7S35.65,26.89,35.65,26.89Z"/><path class="cls-3" d="M33.15,22.34a18.2,18.2,0,0,0,.41-2.63c.08-1-1.6-3.11-3.28-2.95a2.05,2.05,0,0,0-1.64,3A12.22,12.22,0,0,0,32,23.61C32.58,23.94,33.28,22.87,33.15,22.34Z"/><path class="cls-3" d="M35.57,17.38c.33-.58,1-1.56,1.77-1.73,1.92-.45,1.47-2.29-.25-3.11s-4.31-.74-5.54.49-1,2.38,0,2.91a24.34,24.34,0,0,1,2.14,1.44C34.43,17.91,35.25,18,35.57,17.38Z"/><path class="cls-3" d="M36.8,25.17a5.56,5.56,0,0,0,3.65-.82c1.4-1.15,2.75-2.05,2.79-3.4s0-4-1.68-4.84-2.75.12-4.55,2.13a10.5,10.5,0,0,0-2.79,5.54C34.1,24.76,35,25.25,36.8,25.17Z"/><path class="cls-7" d="M40.17,23.86c1.51.9,1.84-.9,1.14-1.52a1.5,1.5,0,0,0-2.05,0C39.06,23,39.55,23.45,40.17,23.86Z"/><path class="cls-7" d="M38.4,18.77c1.52.9,1.85-.9,1.15-1.52s-1.93-.32-2,0C37.3,17.91,37.79,18.4,38.4,18.77Z"/><path class="cls-7" d="M38.48,23c1.4-1.07-.16-2.05-1-1.64s-1,1.68-.7,1.92C37.26,23.78,37.91,23.49,38.48,23Z"/><path class="cls-7" d="M40.82,21.27c.29,1.73,1.73,1.4,2.13.54s-.53-2.26-.94-2.18S40.7,20.62,40.82,21.27Z"/><path class="cls-7" d="M36.27,19.76c.29,1.72,1.72,1.39,2.13.53s-.53-2.26-.94-2.17S36.15,19.06,36.27,19.76Z"/><path class="cls-7" d="M38.48,20.53c.25,1.56,1.56,1.28,1.93.5s-.49-2.05-.82-2S38.4,19.92,38.48,20.53Z"/><path class="cls-7" d="M41.56,19.47c1.31-.86.53-2-.33-2s-1.68,1.27-1.43,1.56A1.72,1.72,0,0,0,41.56,19.47Z"/><path class="cls-7" d="M40.41,17.38c1.36-.41,1-1.52.21-1.77s-1.77.66-1.64.95S39.88,17.54,40.41,17.38Z"/><path class="cls-7" d="M36.68,21.72c.45-1.35-.74-1.64-1.31-1.14s-.45,1.8-.12,1.88S36.52,22.26,36.68,21.72Z"/><path class="cls-7" d="M35.16,24.64c1.31.9,2-.29,1.68-1.07s-1.84-1-2-.74S34.63,24.27,35.16,24.64Z"/><path class="cls-7" d="M38.77,25.13c1.6-.17,1.35-1.52.58-1.89s-2.05.37-2,.74S38.16,25.17,38.77,25.13Z"/><path class="cls-7" d="M32.78,14.71c.74-1.6-1.1-1.72-1.68-.94a1.54,1.54,0,0,0,.29,2.05C32.05,15.94,32.46,15.37,32.78,14.71Z"/><path class="cls-7" d="M33.69,20.08c-.25-1.72-1.85-.86-1.93.09s.94,1.72,1.35,1.55C33.73,21.52,33.77,20.82,33.69,20.08Z"/><path class="cls-7" d="M33.11,14.42c-1.39,1.07.17,2,1,1.64s1-1.68.69-1.92C34.3,13.69,33.69,14,33.11,14.42Z"/><path class="cls-7" d="M30.78,19.06c-.29-1.72-1.73-1.4-2.14-.53s.53,2.25.95,2.17S30.86,19.76,30.78,19.06Z"/><path class="cls-7" d="M34.55,17.79c1.27,0,1.23-1.11.61-1.48s-1.68.12-1.68.45S34.06,17.79,34.55,17.79Z"/><path class="cls-7" d="M38.44,14.83c.29-1.27-.78-1.43-1.31-.94s-.24,1.68,0,1.72S38.32,15.33,38.44,14.83Z"/><path class="cls-7" d="M32.7,18.16c-.24-1.56-1.56-1.28-1.92-.5s.49,2.05.82,2S32.78,18.77,32.7,18.16Z"/><path class="cls-7" d="M29.91,20.82c-.12,1.6,1.23,1.6,1.77.9s0-2.09-.37-2.09S30,20.21,29.91,20.82Z"/><path class="cls-7" d="M32.29,21.72c-1.39,0-1.39,1.15-.78,1.6s1.85-.08,1.85-.41S32.82,21.72,32.29,21.72Z"/><path class="cls-7" d="M34.88,15c-.45,1.35.73,1.64,1.31,1.15s.45-1.81.12-1.89S35,14.46,34.88,15Z"/><path class="cls-3" d="M31.53,150.37c.25-.94,1.93-.12,4.72-.08,2.26,0,4.88-2.5,6-4.55,1.48-2.63,1.44-7.3-1.72-11.16-2.05-2.54-7.14-5.41-11.77-3.89s-6.32,5.33-6.52,8.82A7,7,0,0,0,25.18,146c2.3,1.88,1.76,2.79.66,3.44-.7.41-1.85.9-1.85.9s1.8.78,2.58,0,.09,1.15.45,1.73a2.32,2.32,0,0,0,.66.78s.25-2.63,1-2.59c.17,0-.9,1.89.29,3.32.62.74.74.66.74.66s-.53-2.09.29-2.62.16.65,1,1.39c.58.53.49.57.49.57A10.49,10.49,0,0,1,31.53,150.37Z"/><path class="cls-6" d="M32.52,148.57a8.31,8.31,0,0,1,3.53-.49c2.58,0,5.45-2.67,5.21-5s.4-4.55-1.89-7.09-6.4-4.27-9.15-3.82-4.71,1.6-5.45,4-2,3.57-.74,6,4.27,4.6,4.88,5.7S32.52,148.57,32.52,148.57Z"/><path class="cls-3" d="M30,144a18.2,18.2,0,0,0,.41-2.63c.08-1-1.6-3.11-3.28-2.95a2,2,0,0,0-1.64,3,12.23,12.23,0,0,0,3.36,3.86C29.44,145.62,30.14,144.55,30,144Z"/><path class="cls-3" d="M32.44,139.05c.33-.57,1-1.55,1.76-1.72,1.93-.45,1.48-2.3-.24-3.12s-4.31-.73-5.54.5-1,2.38,0,2.91c.61.29,1.19.82,2.13,1.43C31.29,139.59,32.11,139.63,32.44,139.05Z"/><path class="cls-3" d="M33.67,146.85a5.63,5.63,0,0,0,3.65-.82c1.39-1.15,2.75-2.05,2.79-3.41s0-4-1.68-4.84-2.75.13-4.56,2.14a10.59,10.59,0,0,0-2.79,5.53C31,146.44,31.82,146.93,33.67,146.85Z"/><path class="cls-7" d="M37,145.53c1.52.91,1.85-.9,1.15-1.51s-1.93-.33-2,0C35.92,144.63,36.42,145.12,37,145.53Z"/><path class="cls-7" d="M35.27,140.45c1.52.9,1.84-.9,1.15-1.52s-1.93-.33-2.06,0C34.16,139.59,34.65,140.08,35.27,140.45Z"/><path class="cls-7" d="M35.35,144.71c1.39-1.06-.17-2.05-1-1.64s-1,1.69-.69,1.93C34.12,145.45,34.78,145.17,35.35,144.71Z"/><path class="cls-7" d="M37.69,143c.28,1.72,1.72,1.4,2.13.53s-.53-2.25-.94-2.17S37.56,142.29,37.69,143Z"/><path class="cls-7" d="M33.14,141.43c.28,1.73,1.72,1.4,2.13.54s-.54-2.26-1-2.18S33,140.74,33.14,141.43Z"/><path class="cls-7" d="M35.35,142.21c.25,1.56,1.56,1.27,1.93.49s-.49-2-.82-2S35.27,141.6,35.35,142.21Z"/><path class="cls-7" d="M38.43,141.15c1.31-.87.53-2-.33-2s-1.68,1.27-1.44,1.56A1.78,1.78,0,0,0,38.43,141.15Z"/><path class="cls-7" d="M37.28,139.05c1.35-.41.94-1.51.2-1.76s-1.76.66-1.64.94S36.74,139.22,37.28,139.05Z"/><path class="cls-7" d="M33.54,143.4c.46-1.35-.73-1.64-1.31-1.15s-.45,1.81-.12,1.89S33.38,143.94,33.54,143.4Z"/><path class="cls-7" d="M32,146.31c1.31.91,2-.28,1.68-1.06s-1.85-1-2-.74S31.49,146,32,146.31Z"/><path class="cls-7" d="M35.64,146.81c1.6-.17,1.35-1.52.57-1.89s-2.05.37-2,.74S35,146.85,35.64,146.81Z"/><path class="cls-7" d="M29.65,136.39c.74-1.6-1.11-1.72-1.68-.95a1.54,1.54,0,0,0,.28,2.06C28.91,137.62,29.32,137,29.65,136.39Z"/><path class="cls-7" d="M30.55,141.76c-.24-1.72-1.85-.86-1.93.08s.95,1.73,1.36,1.56C30.59,143.2,30.63,142.5,30.55,141.76Z"/><path class="cls-7" d="M30,136.1c-1.4,1.07.16,2.05,1,1.64s1-1.68.7-1.93C31.17,135.36,30.55,135.65,30,136.1Z"/><path class="cls-7" d="M27.64,140.74c-.29-1.73-1.72-1.4-2.13-.54s.53,2.26.94,2.18S27.72,141.43,27.64,140.74Z"/><path class="cls-7" d="M31.41,139.46c1.27,0,1.23-1.1.62-1.47s-1.68.12-1.68.45S30.92,139.46,31.41,139.46Z"/><path class="cls-7" d="M35.31,136.51c.29-1.27-.78-1.43-1.31-.94s-.25,1.68,0,1.72S35.18,137,35.31,136.51Z"/><path class="cls-7" d="M29.57,139.83c-.25-1.55-1.56-1.27-1.93-.49s.49,2,.82,2S29.65,140.45,29.57,139.83Z"/><path class="cls-7" d="M26.78,142.5c-.12,1.6,1.23,1.6,1.76.9s0-2.09-.37-2.09S26.82,141.88,26.78,142.5Z"/><path class="cls-7" d="M29.16,143.4c-1.4,0-1.4,1.15-.78,1.6s1.84-.08,1.84-.41S29.69,143.4,29.16,143.4Z"/><path class="cls-7" d="M31.74,136.68c-.45,1.35.74,1.64,1.31,1.14s.45-1.8.13-1.88S31.9,136.14,31.74,136.68Z"/><path class="cls-3" d="M114.22,193.31c.24-.94,1.93-.12,4.71-.08,2.26,0,4.89-2.5,6-4.55,1.48-2.63,1.44-7.3-1.72-11.16-2-2.54-7.14-5.41-11.77-3.89s-6.31,5.33-6.52,8.82a7.07,7.07,0,0,0,2.91,6.52c2.3,1.88,1.77,2.79.66,3.44-.7.41-1.85.9-1.85.9s1.81.78,2.59,0,.08,1.15.45,1.73a2.32,2.32,0,0,0,.66.78s.24-2.63,1-2.59c.16,0-.9,1.89.29,3.32.61.74.73.66.73.66s-.53-2.09.29-2.62.17.65,1,1.39c.57.53.49.57.49.57A10.17,10.17,0,0,1,114.22,193.31Z"/><path class="cls-6" d="M115.2,191.51a8.31,8.31,0,0,1,3.53-.49c2.58,0,5.46-2.67,5.21-5s.41-4.55-1.89-7.09-6.4-4.27-9.14-3.82-4.72,1.6-5.46,4-2,3.57-.73,6,4.26,4.6,4.87,5.7S115.2,191.51,115.2,191.51Z"/><path class="cls-3" d="M112.7,187a18.2,18.2,0,0,0,.41-2.63c.08-1-1.6-3.12-3.28-3a2,2,0,0,0-1.64,3,12.36,12.36,0,0,0,3.36,3.86C112.13,188.56,112.83,187.49,112.7,187Z"/><path class="cls-3" d="M115.12,182c.33-.57,1-1.55,1.76-1.72,1.93-.45,1.48-2.3-.24-3.12s-4.31-.73-5.54.5-1,2.38,0,2.91a24.72,24.72,0,0,1,2.13,1.43C114,182.53,114.79,182.57,115.12,182Z"/><path class="cls-3" d="M116.35,189.79A5.62,5.62,0,0,0,120,189c1.4-1.15,2.75-2.05,2.79-3.41s0-4-1.68-4.84-2.75.13-4.55,2.14a10.51,10.51,0,0,0-2.79,5.53C113.64,189.38,114.51,189.87,116.35,189.79Z"/><path class="cls-7" d="M118,183.39c1.52.9,1.85-.9,1.15-1.52s-1.93-.33-2,0C116.84,182.53,117.34,183,118,183.39Z"/><path class="cls-7" d="M121.11,184.09c1.31-.87.53-2-.33-2s-1.68,1.27-1.43,1.56A1.76,1.76,0,0,0,121.11,184.09Z"/><path class="cls-7" d="M120,182c1.35-.41.94-1.51.21-1.76s-1.77.66-1.64.94S119.43,182.16,120,182Z"/><path class="cls-7" d="M112.33,179.33c.74-1.6-1.1-1.72-1.68-1a1.56,1.56,0,0,0,.29,2.06C111.59,180.56,112,180,112.33,179.33Z"/><path class="cls-7" d="M112.66,179c-1.39,1.07.17,2.05,1,1.64s1-1.68.69-1.93C113.85,178.3,113.23,178.59,112.66,179Z"/><path class="cls-7" d="M110.32,183.68c-.28-1.73-1.72-1.4-2.13-.54s.53,2.26.94,2.18S110.41,184.37,110.32,183.68Z"/><path class="cls-7" d="M114.1,182.4c1.27,0,1.23-1.1.61-1.47s-1.68.12-1.68.45S113.6,182.4,114.1,182.4Z"/><path class="cls-7" d="M118,179.45c.29-1.27-.78-1.43-1.31-.94s-.25,1.68,0,1.72S117.87,179.94,118,179.45Z"/><path class="cls-7" d="M112.25,182.77c-.24-1.56-1.56-1.27-1.93-.49s.5,2.05.82,2S112.33,183.39,112.25,182.77Z"/><path class="cls-7" d="M114.42,179.62c-.45,1.35.74,1.64,1.32,1.14s.45-1.8.12-1.88S114.59,179.08,114.42,179.62Z"/><path class="cls-3" d="M171,113.54c.49.84-1.28,1.45-3.28,3.4-1.62,1.56-1.68,5.22-1,7.48.81,2.9,4.15,6.18,9.1,6.67,3.25.35,8.88-1.22,11.08-5.57s.7-8.23-1.62-10.85a7.07,7.07,0,0,0-6.67-2.55c-3,.29-3.22-.72-2.9-2,.2-.78.66-1.94.66-1.94s-1.82.72-1.79,1.85-.87-.75-1.54-.9a2.25,2.25,0,0,0-1-.08s1.69,2,1.11,2.55c-.12.11-.7-2-2.56-2.15-.95-.08-1,.06-1,.06s1.85,1.1,1.65,2.06-.58-.35-1.68-.29c-.78,0-.75-.06-.75-.06A10.33,10.33,0,0,1,171,113.54Z"/><path class="cls-6" d="M171.59,115.51a8.29,8.29,0,0,1-2.15,2.85c-1.82,1.82-2,5.74-.17,7.19s2.93,3.51,6.35,3.68,7.54-1.5,9.16-3.77,2.21-4.46,1-6.7-1.1-3.94-3.74-4.78-6.27-.23-7.48-.58S171.59,115.51,171.59,115.51Z"/><path class="cls-3" d="M176.58,117a18.56,18.56,0,0,0,1.56,2.14c.67.78,3.34,1.07,4.41-.23a2,2,0,0,0-1-3.28,12.26,12.26,0,0,0-5.1-.35C175.85,115.43,176.11,116.68,176.58,117Z"/><path class="cls-3" d="M178.38,122.19a3.48,3.48,0,0,1,0,2.46c-1,1.68.58,2.67,2.37,2s3.57-2.52,3.57-4.26-1-2.41-2.06-2.06a24.6,24.6,0,0,1-2.52.49C178.81,121,178.2,121.55,178.38,122.19Z"/><path class="cls-3" d="M172,117.55a5.6,5.6,0,0,0-2,3.16c-.17,1.8-.49,3.39.44,4.38s2.87,2.81,4.61,2.23,1.86-2,1.71-4.73a10.54,10.54,0,0,0-1.94-5.89C174.2,115.92,173.24,116.18,172,117.55Z"/><path class="cls-7" d="M170.55,120.85c-1.72.44-.67,1.94.26,1.89s1.59-1.13,1.42-1.48C172,120.71,171.27,120.71,170.55,120.85Z"/><path class="cls-7" d="M175.39,123.2c-1.71.44-.67,1.94.26,1.89s1.6-1.14,1.42-1.48C176.78,123,176.08,123,175.39,123.2Z"/><path class="cls-7" d="M172.31,120.24c-.23,1.74,1.57,1.34,1.89.44s-.49-1.89-.87-1.86C172.66,118.85,172.4,119.52,172.31,120.24Z"/><path class="cls-7" d="M171.91,123.14c-1.42-1-2.21.23-1.89,1.13s2,1.22,2.21.87S172.46,123.52,171.91,123.14Z"/><path class="cls-7" d="M176.2,121c-1.42-1-2.2.23-1.88,1.13s2,1.22,2.2.87S176.78,121.4,176.2,121Z"/><path class="cls-7" d="M174.08,122c-1.27-.93-2,.21-1.71,1s1.8,1.1,2,.81A1.82,1.82,0,0,0,174.08,122Z"/><path class="cls-7" d="M172.66,124.94c-.32,1.54,1,1.77,1.63,1.16s.29-2.09-.09-2.12S172.81,124.33,172.66,124.94Z"/><path class="cls-7" d="M175,125.61c-.66,1.25.41,1.74,1.11,1.39s.78-1.71.49-1.83S175.21,125.12,175,125.61Z"/><path class="cls-7" d="M174.52,119.89c.64,1.28,1.68.64,1.74-.11s-1-1.6-1.25-1.42S174.26,119.4,174.52,119.89Z"/><path class="cls-7" d="M173.53,116.76c-1.56.29-1.22,1.63-.43,1.95s2-.58,1.94-.9S174.17,116.65,173.53,116.76Z"/><path class="cls-7" d="M170.63,119c-1,1.24.12,2,.93,1.74s1.19-1.71.9-1.95S171,118.5,170.63,119Z"/><path class="cls-7" d="M182.23,122.1c.61,1.65,2,.44,1.86-.52s-1.33-1.45-1.65-1.25C181.89,120.71,182,121.4,182.23,122.1Z"/><path class="cls-7" d="M177.8,118.94c1.39,1,1.91-.7,1.3-1.42s-1.89-.55-2.06-.15C176.75,118,177.22,118.47,177.8,118.94Z"/><path class="cls-7" d="M182.2,122.53c.23-1.73-1.56-1.33-1.88-.43s.49,1.88.87,1.85C181.88,123.9,182.12,123.26,182.2,122.53Z"/><path class="cls-7" d="M180.58,117.6c1.42,1,2.2-.23,1.88-1.13s-2-1.22-2.2-.87A2.08,2.08,0,0,0,180.58,117.6Z"/><path class="cls-7" d="M178.81,121.17c-.9.9-.09,1.65.61,1.48s1.1-1.28.87-1.51S179.16,120.82,178.81,121.17Z"/><path class="cls-7" d="M178.14,126c.7,1.11,1.57.47,1.6-.26s-1-1.36-1.25-1.19A1.48,1.48,0,0,0,178.14,126Z"/><path class="cls-7" d="M179.85,119.61c1.28.92,2-.21,1.71-1s-1.79-1.1-2-.81S179.36,119.23,179.85,119.61Z"/><path class="cls-7" d="M179.94,115.75c-1-1.22-2-.26-1.88.61s1.5,1.45,1.74,1.21A1.69,1.69,0,0,0,179.94,115.75Z"/><path class="cls-7" d="M177.62,116.79c1-1,.18-1.8-.58-1.68s-1.25,1.36-1,1.6S177.24,117.17,177.62,116.79Z"/><path class="cls-7" d="M180.55,123.37c-.64-1.27-1.68-.63-1.74.12s1,1.6,1.25,1.42S180.81,123.87,180.55,123.37Z"/><path class="cls-3" d="M238.71,99.73c.49.84-1.28,1.45-3.28,3.39-1.62,1.57-1.68,5.22-1,7.49.81,2.89,4.15,6.17,9.1,6.67,3.25.34,8.88-1.22,11.08-5.57s.7-8.24-1.62-10.85a7.07,7.07,0,0,0-6.67-2.55c-3,.29-3.22-.73-2.9-2a20.21,20.21,0,0,1,.66-2s-1.82.73-1.79,1.86-.87-.75-1.54-.9a2.39,2.39,0,0,0-1-.09s1.69,2,1.11,2.55c-.12.12-.7-2-2.56-2.14-1-.09-1,.06-1,.06s1.85,1.1,1.65,2.06-.58-.35-1.68-.29c-.78,0-.75-.06-.75-.06A10.1,10.1,0,0,1,238.71,99.73Z"/><path class="cls-6" d="M239.29,101.7a8.22,8.22,0,0,1-2.15,2.84c-1.82,1.83-2,5.75-.17,7.2s2.93,3.5,6.35,3.68,7.54-1.51,9.16-3.77,2.21-4.47,1-6.7-1.1-3.94-3.74-4.78-6.27-.24-7.48-.59S239.29,101.7,239.29,101.7Z"/><path class="cls-3" d="M244.28,103.15a19.26,19.26,0,0,0,1.56,2.15c.67.78,3.34,1.07,4.41-.23a2,2,0,0,0-1-3.28,12.09,12.09,0,0,0-5.1-.35C243.55,101.62,243.81,102.86,244.28,103.15Z"/><path class="cls-3" d="M246.08,108.37a3.5,3.5,0,0,1,0,2.47c-1.05,1.68.58,2.67,2.37,2s3.57-2.53,3.57-4.26-1-2.41-2.06-2.06a24.6,24.6,0,0,1-2.52.49C246.51,107.18,245.9,107.73,246.08,108.37Z"/><path class="cls-3" d="M239.69,103.73a5.61,5.61,0,0,0-2,3.16c-.17,1.8-.49,3.4.44,4.38s2.87,2.81,4.61,2.24,1.86-2,1.71-4.73a10.51,10.51,0,0,0-1.94-5.89C241.9,102.11,240.94,102.37,239.69,103.73Z"/><path class="cls-7" d="M238.25,107c-1.72.43-.67,1.94.26,1.88s1.59-1.13,1.42-1.48C239.67,106.89,239,106.89,238.25,107Z"/><path class="cls-7" d="M243.09,109.39c-1.71.43-.67,1.94.26,1.88s1.59-1.13,1.42-1.48C244.48,109.21,243.78,109.21,243.09,109.39Z"/><path class="cls-7" d="M240,106.43c-.23,1.74,1.57,1.33,1.89.43S241.41,105,241,105C240.36,105,240.1,105.7,240,106.43Z"/><path class="cls-7" d="M239.61,109.33c-1.42-1-2.21.23-1.89,1.13s2,1.22,2.21.87S240.16,109.71,239.61,109.33Z"/><path class="cls-7" d="M243.9,107.18c-1.42-1-2.2.24-1.88,1.13s2,1.22,2.2.87S244.48,107.59,243.9,107.18Z"/><path class="cls-7" d="M241.78,108.2c-1.27-.93-2,.2-1.71,1s1.8,1.11,2,.82S242.28,108.57,241.78,108.2Z"/><path class="cls-7" d="M240.36,111.13c-.32,1.53,1,1.77,1.63,1.16s.29-2.09-.09-2.12S240.51,110.52,240.36,111.13Z"/><path class="cls-7" d="M242.65,111.79c-.66,1.25.41,1.74,1.11,1.4s.78-1.71.49-1.83S242.91,111.3,242.65,111.79Z"/><path class="cls-7" d="M242.22,106.08c.64,1.28,1.68.64,1.74-.11s-1-1.6-1.25-1.43S242,105.59,242.22,106.08Z"/><path class="cls-7" d="M241.23,103c-1.56.29-1.22,1.62-.43,1.94s2-.58,1.94-.9S241.87,102.83,241.23,103Z"/><path class="cls-7" d="M238.33,105.15c-1,1.25.12,2,.93,1.74s1.19-1.71.9-1.94S238.74,104.69,238.33,105.15Z"/><path class="cls-7" d="M249.93,108.28c.61,1.66,2,.44,1.86-.52s-1.34-1.45-1.66-1.24C249.58,106.89,249.7,107.59,249.93,108.28Z"/><path class="cls-7" d="M245.5,105.12c1.39,1,1.91-.69,1.3-1.42s-1.89-.55-2.06-.14C244.45,104.14,244.92,104.66,245.5,105.12Z"/><path class="cls-7" d="M249.9,108.72c.23-1.74-1.56-1.33-1.88-.43s.49,1.88.87,1.85C249.58,110.08,249.82,109.44,249.9,108.72Z"/><path class="cls-7" d="M248.28,103.79c1.42,1,2.2-.23,1.88-1.13s-2-1.22-2.2-.87A2.08,2.08,0,0,0,248.28,103.79Z"/><path class="cls-7" d="M246.51,107.36c-.9.9-.09,1.65.61,1.48s1.1-1.28.87-1.51S246.86,107,246.51,107.36Z"/><path class="cls-7" d="M245.84,112.2c.7,1.1,1.57.46,1.6-.26s-1-1.36-1.25-1.19A1.47,1.47,0,0,0,245.84,112.2Z"/><path class="cls-7" d="M247.55,105.79c1.28.93,2-.2,1.71-1s-1.79-1.11-2-.82S247.06,105.41,247.55,105.79Z"/><path class="cls-7" d="M247.64,101.94c-1-1.22-2-.27-1.88.6s1.5,1.45,1.74,1.22A1.69,1.69,0,0,0,247.64,101.94Z"/><path class="cls-7" d="M245.32,103c1-1,.18-1.8-.58-1.68s-1.25,1.36-1,1.59S244.94,103.35,245.32,103Z"/><path class="cls-7" d="M248.25,109.56c-.64-1.27-1.68-.64-1.74.12s1,1.59,1.25,1.42S248.51,110.05,248.25,109.56Z"/><path class="cls-7" d="M59.48,23.88c.91.91,1.6.09,1.48-.57s-1.27-1.11-1.44-.86A1.4,1.4,0,0,0,59.48,23.88Z"/><path class="cls-7" d="M57.76,22.08c-1.6.16-1.35,1.52-.57,1.89s2.05-.37,2-.74S58.38,22,57.76,22.08Z"/><path class="cls-3" d="M15,76.75c.37-.9,1.92.09,4.67.41,2.22.25,5.09-2,6.44-3.89,1.76-2.46,2.18-7.14-.53-11.28-1.76-2.71-6.56-6.11-11.32-5.13a9.26,9.26,0,0,0-7.38,8.08,7,7,0,0,0,2.21,6.77c2.1,2.13,1.48,3,.29,3.48-.74.33-1.93.7-1.93.7s1.73,1,2.59.25,0,1.15.24,1.76a2.8,2.8,0,0,0,.58.82s.53-2.58,1.27-2.46c.16,0-1.11,1.76-.08,3.32.53.82.65.74.65.74s-.33-2.13.57-2.58.09.65.82,1.52c.5.57.46.61.46.61A12,12,0,0,1,15,76.75Z"/><path class="cls-4" d="M25.65,62c-1.76-2.71-6.56-6.11-11.32-5.13A9.26,9.26,0,0,0,7,64.94a7,7,0,0,0,2.21,6.77,7.69,7.69,0,0,1,1.32-7,10.55,10.55,0,0,1,9.67-4.23A21.09,21.09,0,0,1,25.65,62Z"/><path class="cls-5" d="M19.38,75.56s1.31.33,1.59-.37.05-1.72-.69-1.59-1.81.45-1.89.73A1.31,1.31,0,0,0,19.38,75.56Z"/><path class="cls-5" d="M22.74,73.76s.08-.74-.29-.86-.78.08-.66.49.21.7.37.7A.42.42,0,0,0,22.74,73.76Z"/><path class="cls-3" d="M102.5,4.15c-.69-.69.91-1.72,2.34-4.1,1.15-1.92.29-5.45-.86-7.46-1.52-2.63-5.58-4.92-10.5-4.19-3.2.5-8.28,3.45-9.35,8.17A9.35,9.35,0,0,0,88.44,6.66a7,7,0,0,0,7.09.78c2.79-1,3.32-.13,3.28,1.19,0,.77-.16,2-.16,2s1.6-1.15,1.31-2.26,1,.53,1.72.49a1.86,1.86,0,0,0,1-.2S100.54,7.15,101,6.53c.08-.16,1.14,1.73,3,1.44,1-.16.94-.29.94-.29s-2.09-.57-2.09-1.6.66.21,1.72-.12c.74-.21.74-.12.74-.12A10.93,10.93,0,0,1,102.5,4.15Z"/><path class="cls-4" d="M93.48-11.6c-3.2.5-8.28,3.45-9.35,8.17A9.35,9.35,0,0,0,88.44,6.66a7,7,0,0,0,7.09.78,7.82,7.82,0,0,1-5.82-4.11,10.48,10.48,0,0,1,.16-10.54A22.32,22.32,0,0,1,93.48-11.6Z"/><path class="cls-5" d="M103.2-.28s.82-1.06.33-1.59-1.56-.78-1.76,0-.33,1.81-.13,2A1.29,1.29,0,0,0,103.2-.28Z"/></g><rect class="cls-8" x="36.56" y="25.93" width="182.47" height="82.64" rx="7.15"/><rect class="cls-1" x="45.49" y="92.1" width="3.78" height="3.78" transform="translate(-52.59 61.04) rotate(-45.01)"/><polygon class="cls-1" points="48.47 90.01 48.91 80.92 48.91 75.87 45.57 75.87 45.57 80.92 46.16 90.01 48.47 90.01"/><path class="cls-1" d="M69.42,93c-.12-.58-.26-1.16-.43-1.73s-.34-1.12-.52-1.64-.36-1-.52-1.39-.31-.74-.43-1a2.69,2.69,0,0,0-.21-.43L64,88.63a5.41,5.41,0,0,0,.23.54l.42,1c.17.37.35.78.53,1.22s.37.89.52,1.34.29.9.41,1.34a6.19,6.19,0,0,1,.19,1.16,3.44,3.44,0,0,1-.19,1.32,4,4,0,0,1-.65,1.16,5.24,5.24,0,0,1-1,1,6.48,6.48,0,0,1-1.32.73,7.55,7.55,0,0,1-1.53.46A8.27,8.27,0,0,1,60,100a7.4,7.4,0,0,1-2-.35,5.82,5.82,0,0,1-1.73-.91A4.4,4.4,0,0,1,55,97.34a3.56,3.56,0,0,1-.46-1.81,8.16,8.16,0,0,1,.21-1.8,14.53,14.53,0,0,1,.5-1.76,13.37,13.37,0,0,1,.63-1.49,7.58,7.58,0,0,1,.57-1l-2.71-2a15.65,15.65,0,0,0-1.88,3.89,13.27,13.27,0,0,0-.63,4,10.9,10.9,0,0,0,.16,1.82A9.38,9.38,0,0,0,51.87,99a7.45,7.45,0,0,0,.83,1.55,7.08,7.08,0,0,0,1.18,1.33,6.43,6.43,0,0,0,1.48,1,9.39,9.39,0,0,0,1.65.61,10.45,10.45,0,0,0,1.73.3c.59,0,1.15.08,1.71.08a11.26,11.26,0,0,0,2.88-.34,9.32,9.32,0,0,0,2.32-.95,7.91,7.91,0,0,0,1.78-1.44,8.36,8.36,0,0,0,1.25-1.79,8.83,8.83,0,0,0,.74-2,9.66,9.66,0,0,0,.24-2.13v-.24a1.55,1.55,0,0,0,0-.23A11.83,11.83,0,0,0,69.42,93Z"/><rect class="cls-1" x="58.56" y="84.73" width="3.78" height="3.78" transform="translate(-43.54 68.11) rotate(-45)"/><polygon class="cls-1" points="87.95 82.05 90.23 84.34 92.55 82.02 90.21 79.69 87.95 81.96 85.66 79.67 83.35 81.99 85.68 84.32 87.95 82.05"/><path class="cls-1" d="M100.24,86.59h0C100.26,86.53,100.26,86.54,100.24,86.59Z"/><path class="cls-1" d="M123,86.63c-.17-.59-.37-1.16-.59-1.73s-.44-1.11-.67-1.62L118.27,85c.25.46.48,1,.72,1.46s.44,1,.62,1.47a12.62,12.62,0,0,1,.45,1.29,3.5,3.5,0,0,1,.17.86,1.73,1.73,0,0,1-.1.65,1.09,1.09,0,0,1-.48.52,2.8,2.8,0,0,1-.75.3,5.2,5.2,0,0,1-.92.15c-.32,0-.64,0-.93,0H115.2a2,2,0,0,1-.68-.14,2.73,2.73,0,0,1-.69-.41,2.52,2.52,0,0,1-.56-.68,2.47,2.47,0,0,1-.32-1l-.4-3.39-3.25.45a9,9,0,0,1,0,1,10.67,10.67,0,0,1-.24,2.22,4.8,4.8,0,0,1-.32,1,2,2,0,0,1-.49.69,1,1,0,0,1-.69.27.85.85,0,0,1-.69-.3,1.81,1.81,0,0,1-.38-.76,4,4,0,0,1-.12-1,10.85,10.85,0,0,1,0-1.14c0-.38,0-.73.09-1.07s.07-.6.09-.8l-3.18-.45c-.06.32-.14.69-.24,1.1s-.23.85-.38,1.28-.3.86-.48,1.27a6.5,6.5,0,0,1-.58,1.09,3,3,0,0,1-.66.71.86.86,0,0,1-.72.15.7.7,0,0,1-.49-.54,4.12,4.12,0,0,1-.15-1.07,9.8,9.8,0,0,1,.09-1.3c.06-.46.12-.87.19-1.23s.13-.65.18-.85l0-.16L97,86.14A19,19,0,0,1,96.21,89a6.44,6.44,0,0,1-.93,1.7,2.58,2.58,0,0,1-1,.81,3.31,3.31,0,0,1-1.19.22h-.2a.93.93,0,0,1-.63-.22,1.47,1.47,0,0,1-.38-.53,3.23,3.23,0,0,1-.2-.71,6.85,6.85,0,0,1-.08-.75,19.33,19.33,0,0,0-.29-2.08,9.41,9.41,0,0,0-.42-1.53l-3.51,1c.14.49.25.87.32,1.14s.14.49.18.65a1.91,1.91,0,0,1,.06.42c0,.12,0,.27,0,.44a1.71,1.71,0,0,1-.41,1.14,2.45,2.45,0,0,1-1,.67,5.64,5.64,0,0,1-1.42.3c-.53,0-1.09.08-1.66.08H82.35a11.22,11.22,0,0,0-1.51-4.81,7.87,7.87,0,0,0-.91-1.25,4.93,4.93,0,0,0-3.68-1.79,3.76,3.76,0,0,0-1.81.47,5.13,5.13,0,0,0-1.58,1.36,8.44,8.44,0,0,0-.64,1,10.32,10.32,0,0,0-.51,1.17,8.91,8.91,0,0,0-.34,1.28,7.15,7.15,0,0,0-.12,1.3,6,6,0,0,0,.21,1.61,4.1,4.1,0,0,0,.72,1.41A4.67,4.67,0,0,0,74,94.85a8.22,8.22,0,0,0,2.56.62l.9,0,1,0a4.6,4.6,0,0,1-1,1.45,8.41,8.41,0,0,1-1.71,1.34,14.36,14.36,0,0,1-2.42,1.14,19.84,19.84,0,0,1-3.08.85l.89,3.7a16.72,16.72,0,0,0,3.67-1,14,14,0,0,0,3.18-1.77,11.71,11.71,0,0,0,2.46-2.51,9.91,9.91,0,0,0,1.5-3.2h1.36c.54,0,1.1,0,1.66-.07a14.4,14.4,0,0,0,1.64-.21,11,11,0,0,0,1.5-.39,4.94,4.94,0,0,0,1.24-.61,4.85,4.85,0,0,0,1.42.93,5.12,5.12,0,0,0,2,.35h.22a6.48,6.48,0,0,0,2.36-.38A3.65,3.65,0,0,0,97,93.86a4.2,4.2,0,0,0,1.46,1.25,4.1,4.1,0,0,0,1.9.46,4.16,4.16,0,0,0,2-.5,6.15,6.15,0,0,0,1.64-1.29,4.42,4.42,0,0,0,3.55,1.75,4.22,4.22,0,0,0,1.83-.4,5.15,5.15,0,0,0,1.5-1.09h0l.13-.15a.73.73,0,0,0,.14-.16,4.25,4.25,0,0,0,1.8,1.38,6,6,0,0,0,2.2.41H117c.39,0,.8,0,1.24,0a6.58,6.58,0,0,0,1.39-.25,5.5,5.5,0,0,0,2.11-1.09,5.24,5.24,0,0,0,1.38-1.87,5.61,5.61,0,0,0,.43-2.23,9,9,0,0,0-.16-1.67A16.51,16.51,0,0,0,123,86.63ZM78.39,91.71H77.31a3.43,3.43,0,0,1-.48,0,8,8,0,0,1-.82-.11,3.22,3.22,0,0,1-.78-.24,1.69,1.69,0,0,1-.58-.43,1,1,0,0,1-.23-.67,2.17,2.17,0,0,1,.19-.87,3.55,3.55,0,0,1,.46-.81,2.78,2.78,0,0,1,.6-.59,1,1,0,0,1,.58-.24.85.85,0,0,1,.25,0,1.11,1.11,0,0,1,.27.13l.26.17.21.18c.16.18.33.39.5.62a6.77,6.77,0,0,1,.48.8,7.85,7.85,0,0,1,.4,1,6,6,0,0,1,.27,1.11Z"/><rect class="cls-1" x="116.94" y="97.41" width="3.78" height="3.78" transform="translate(-35.41 113.09) rotate(-44.99)"/><path class="cls-1" d="M140.11,86.66c-.18-.62-.39-1.23-.62-1.82a12.26,12.26,0,0,0-.73-1.53L135.33,85l.57,1.12c.24.45.47.92.7,1.41s.42,1,.58,1.45a3.68,3.68,0,0,1,.25,1.23,1.09,1.09,0,0,1-.13.55,1.7,1.7,0,0,1-.72.47,5.58,5.58,0,0,1-1.09.3c-.4.07-.82.12-1.25.16s-.84,0-1.2,0H131.7l-.11,0h-.69a1.71,1.71,0,0,1-.47-.08,1,1,0,0,1-.38-.21,1,1,0,0,1-.27-.42,4.92,4.92,0,0,1-.33-1.51,12.17,12.17,0,0,1,0-1.6c0-.55.08-1.12.13-1.69a17,17,0,0,0,.06-1.76c0-.69,0-1.43,0-2.22s-.05-1.59-.09-2.37-.1-1.54-.17-2.26a17.84,17.84,0,0,0-.25-1.87l-3.6,1.09a21,21,0,0,1,.28,2.18c.07.84.12,1.71.16,2.61s.06,1.81.07,2.71,0,1.74,0,2.5,0,1.41,0,2,0,1,0,1.28v.18c0,.22,0,.48,0,.78a4.89,4.89,0,0,0,.13,1,5.08,5.08,0,0,0,.37,1,4,4,0,0,0,.74,1A4.92,4.92,0,0,0,129,95.16a6.58,6.58,0,0,0,1.7.33h.15l.24,0h2.62l1.05,0c.37,0,.74,0,1.1-.09a5.5,5.5,0,0,0,3-1.25,5.13,5.13,0,0,0,1.38-1.87,5.62,5.62,0,0,0,.44-2.23,8.88,8.88,0,0,0-.17-1.56A16.25,16.25,0,0,0,140.11,86.66Z"/><polygon class="cls-1" points="136.68 79.75 134.39 77.46 132.08 79.79 134.42 82.11 136.68 79.85 138.97 82.14 141.28 79.81 138.94 77.49 136.68 79.75"/><rect class="cls-1" x="176.13" y="101.24" width="3.05" height="3.03" transform="translate(-20.61 155.76) rotate(-45.01)"/><path class="cls-1" d="M184.38,85.9c-.45-.16-.9-.34-1.33-.54l-1.29-.6-1.36-.62c-.46-.2-.92-.39-1.39-.55a12.5,12.5,0,0,0-1.42-.39,6.85,6.85,0,0,0-1.42-.15,4.83,4.83,0,0,0-1.84.36,6.66,6.66,0,0,0-1.62,1,8.93,8.93,0,0,0-1.38,1.37,11.43,11.43,0,0,0-1.09,1.58L173,89.11a4.17,4.17,0,0,1,.36-.5,7.21,7.21,0,0,1,.73-.75,5.3,5.3,0,0,1,1-.69,2.15,2.15,0,0,1,1.08-.3,6.15,6.15,0,0,1,1.63.22c.54.15,1.09.33,1.64.54s1.1.42,1.65.65,1.1.41,1.64.57c-.81.37-1.65.74-2.49,1.09a23.94,23.94,0,0,1-5.75,1.55,24.7,24.7,0,0,1-3.58.24h-2.3a1.87,1.87,0,0,1-.86-.16,1.25,1.25,0,0,1-.42-.36h0a1.87,1.87,0,0,1-.22-.58,3.44,3.44,0,0,1,0-.51c0-.58,0-1.17,0-1.77s0-1.18,0-1.73c0-1.11,0-2.21,0-3.31,0-.7,0-1.4,0-2.09s0-1.36,0-2-.05-1.27-.09-1.87-.08-1.16-.15-1.67l-3.74.69q.09,1.5.12,3.12c0,1.07,0,2.26.06,3.55s0,2.65.07,3.71,0,1.93,0,2.61a3.26,3.26,0,0,1-.14.92,2.85,2.85,0,0,1-.4.82,1.7,1.7,0,0,1-.6.54,1,1,0,0,1-.76.1h-.76a2.6,2.6,0,0,1-1-.16,1,1,0,0,1-.55-.53q0-.09-.09-.33a7.6,7.6,0,0,1-.16-.81c-.06-.37-.13-.88-.21-1.51s-.19-1.45-.31-2.43c0-.06,0-.22-.05-.49s-.06-.57-.1-.94-.08-.74-.12-1.16-.08-.8-.12-1.17-.07-.68-.1-.94,0-.44,0-.51l-3.76.81.06.76c0,.17,0,.36,0,.55s0,.38,0,.57c-.39.16-.84.36-1.34.61a10.12,10.12,0,0,0-1.52.94A10.47,10.47,0,0,0,150,86.3a7,7,0,0,0-1.18,1.78,4.07,4.07,0,0,0-.21.69,5.17,5.17,0,0,0-.08.92,4.11,4.11,0,0,0,.19,1.21,3.43,3.43,0,0,0,.6,1.17,4.7,4.7,0,0,0,2,1.31,8.23,8.23,0,0,0,2.93.46l1.12,0,1.18-.12a4.53,4.53,0,0,0,.73.77,4.33,4.33,0,0,0,.89.55,3.39,3.39,0,0,0,.73.27,6.53,6.53,0,0,0,.71.16,5.3,5.3,0,0,0,.66.07l.4,0h1.47a4.89,4.89,0,0,0,1.71-.36,5.07,5.07,0,0,0,1.53-1,5.36,5.36,0,0,0,1.41,1,4.23,4.23,0,0,0,1.89.37h2.32a21.49,21.49,0,0,0,3-.2,22.17,22.17,0,0,0,2.65-.53,20.28,20.28,0,0,0,2.39-.78c.76-.3,1.5-.62,2.22-1s1.42-.68,2.11-1,1.39-.7,2.09-1l1.71-.82.3-3.7a7,7,0,0,1-1.55-.17A9.75,9.75,0,0,1,184.38,85.9ZM154.62,90a4.78,4.78,0,0,1-.53,0l-.8,0c-.3,0-.58-.05-.85-.09a4.06,4.06,0,0,1-.67-.17c-.18-.07-.27-.16-.27-.26a1,1,0,0,1,.34-.68,4.76,4.76,0,0,1,.84-.72c.33-.24.69-.46,1.06-.68l1-.55.12,1.11c0,.39.08.75.12,1.09s.09.64.13.91Z"/><polygon class="cls-1" points="177.65 99.23 175.39 96.96 173.05 99.29 175.36 101.61 177.65 99.33 179.92 101.59 182.25 99.27 179.94 96.94 177.65 99.23"/><path class="cls-1" d="M209.71,86.66a18.6,18.6,0,0,0-.63-1.82,11,11,0,0,0-.72-1.53L204.93,85c.14.3.33.67.57,1.12s.47.92.69,1.41.42,1,.59,1.45A3.9,3.9,0,0,1,207,90.2a1,1,0,0,1-.13.55,1.6,1.6,0,0,1-.71.47,5.5,5.5,0,0,1-1.1.3c-.4.07-.81.12-1.25.16s-.83,0-1.19,0H201.3l-.12,0h-.68a1.71,1.71,0,0,1-.47-.08.89.89,0,0,1-.38-.21,1,1,0,0,1-.27-.42,5.25,5.25,0,0,1-.34-1.51,14.23,14.23,0,0,1,0-1.6c0-.55.07-1.12.13-1.69a17,17,0,0,0,.06-1.76c0-.69,0-1.43,0-2.22s-.05-1.59-.1-2.37-.1-1.54-.16-2.26a17.84,17.84,0,0,0-.25-1.87l-3.6,1.09a21,21,0,0,1,.28,2.18c.07.84.12,1.71.16,2.61s0,1.81.06,2.71,0,1.74,0,2.5,0,1.41,0,2,0,1,0,1.28v.18c0,.22,0,.48,0,.78a5.82,5.82,0,0,0,.14,1,4.55,4.55,0,0,0,.37,1,3.79,3.79,0,0,0,.74,1,4.76,4.76,0,0,0,1.83,1.12,6.49,6.49,0,0,0,1.7.33h.14l.24,0h2.63l1.05,0c.37,0,.73,0,1.09-.09a5.42,5.42,0,0,0,.91-.16,5.5,5.5,0,0,0,2.11-1.09,5.24,5.24,0,0,0,1.38-1.87,5.61,5.61,0,0,0,.43-2.23,8.76,8.76,0,0,0-.16-1.56Q210,87.59,209.71,86.66Z"/><polygon class="cls-1" points="206.28 79.75 203.99 77.46 201.68 79.79 204.01 82.11 206.28 79.85 208.57 82.14 210.88 79.81 208.54 77.49 206.28 79.75"/><rect class="cls-1" x="58.48" y="42.32" width="3.78" height="3.78" transform="translate(-13.58 55.63) rotate(-45)"/><path class="cls-1" d="M69.34,50.59c-.12-.59-.26-1.16-.43-1.73s-.34-1.12-.52-1.64-.36-1-.53-1.39-.3-.74-.42-1a2.69,2.69,0,0,0-.21-.43L64,46.22c0,.09.1.27.22.54s.27.58.43,1,.34.78.53,1.22.36.89.52,1.34.29.9.4,1.33a5.73,5.73,0,0,1,.2,1.17,3.36,3.36,0,0,1-.19,1.31,4.21,4.21,0,0,1-.65,1.17,5.9,5.9,0,0,1-1,1,6.48,6.48,0,0,1-1.32.73,8.48,8.48,0,0,1-1.53.46,8.37,8.37,0,0,1-1.67.14,6.72,6.72,0,0,1-2-.35,5.58,5.58,0,0,1-1.73-.9,4.69,4.69,0,0,1-1.21-1.38,3.65,3.65,0,0,1-.45-1.81,8.16,8.16,0,0,1,.21-1.8,13.49,13.49,0,0,1,.5-1.77,14,14,0,0,1,.63-1.48,6.06,6.06,0,0,1,.57-1l-2.71-2A15.31,15.31,0,0,0,51.77,49a13.27,13.27,0,0,0-.63,4,9.94,9.94,0,0,0,.16,1.82,8.65,8.65,0,0,0,.49,1.71,7.71,7.71,0,0,0,.83,1.55,6.74,6.74,0,0,0,1.18,1.33,6.54,6.54,0,0,0,1.48,1,8.84,8.84,0,0,0,1.65.61,10.27,10.27,0,0,0,1.73.3c.58,0,1.15.08,1.71.08a11.25,11.25,0,0,0,2.88-.35,8.62,8.62,0,0,0,2.32-1,7.82,7.82,0,0,0,1.78-1.43,8.18,8.18,0,0,0,1.25-1.8,8.59,8.59,0,0,0,.74-2,9.68,9.68,0,0,0,.24-2.14V52.5a1.77,1.77,0,0,0,0-.24A11.7,11.7,0,0,0,69.34,50.59Z"/><polygon class="cls-1" points="87.87 39.64 90.16 41.93 92.47 39.6 90.13 37.28 87.87 39.55 85.58 37.26 83.27 39.58 85.6 41.91 87.87 39.64"/><path class="cls-1" d="M100.16,44.18h0C100.18,44.12,100.18,44.13,100.16,44.18Z"/><path class="cls-1" d="M128.38,50.23a6.19,6.19,0,0,0,.32-1.18,6.59,6.59,0,0,0,.12-1.27,8.35,8.35,0,0,0-.07-1.07v0A7.38,7.38,0,0,0,128.3,45a5.8,5.8,0,0,0-.88-1.49,5.38,5.38,0,0,0-1.61-1.28,4.39,4.39,0,0,0-2-.44,3.79,3.79,0,0,0-1.72.41,4.9,4.9,0,0,0-1.46,1.18,8.27,8.27,0,0,0-.77,1.18c-.24.42-.46.85-.67,1.29h0c-.22.41-.45.83-.69,1.25a6.29,6.29,0,0,1-.82,1.13,3.64,3.64,0,0,1-1,.82,3,3,0,0,1-1.4.31h-.14a1.76,1.76,0,0,1-.68-.14,2.25,2.25,0,0,1-.69-.41,2.4,2.4,0,0,1-.57-.68,2.53,2.53,0,0,1-.31-1l-.4-3.4-3.25.46c0,.28,0,.59,0,1a10.56,10.56,0,0,1-.06,1.1,9.88,9.88,0,0,1-.18,1.11,4.9,4.9,0,0,1-.32,1,2.3,2.3,0,0,1-.49.69,1,1,0,0,1-.69.27.88.88,0,0,1-.7-.3,1.93,1.93,0,0,1-.37-.76,4.6,4.6,0,0,1-.13-1q0-.57,0-1.14c0-.38.06-.73.1-1.07s.07-.6.09-.8l-3.18-.46c-.06.33-.14.7-.25,1.11a13.08,13.08,0,0,1-.37,1.28c-.14.43-.3.86-.48,1.27a6.79,6.79,0,0,1-.58,1.08,2.69,2.69,0,0,1-.66.71.8.8,0,0,1-.72.15.67.67,0,0,1-.49-.53,4.12,4.12,0,0,1-.15-1.07,9.8,9.8,0,0,1,.09-1.3c.06-.46.12-.87.19-1.23s.13-.65.18-.85l0-.16L97,43.72a20.42,20.42,0,0,1-.83,2.87,6.44,6.44,0,0,1-.93,1.7,2.58,2.58,0,0,1-1,.81,3.31,3.31,0,0,1-1.19.21h-.2a.92.92,0,0,1-.63-.21,1.47,1.47,0,0,1-.38-.53,3.23,3.23,0,0,1-.2-.71,6.85,6.85,0,0,1-.08-.75A19.53,19.53,0,0,0,91.18,45a9.55,9.55,0,0,0-.42-1.52l-3.51,1c.14.49.24.87.32,1.14s.14.49.18.65a1.91,1.91,0,0,1,.06.42c0,.12,0,.27,0,.44a1.71,1.71,0,0,1-.41,1.14,2.34,2.34,0,0,1-1,.66,5.22,5.22,0,0,1-1.42.31c-.53,0-1.09.07-1.66.07H82.27A11,11,0,0,0,82,47.59a10.87,10.87,0,0,0-1.23-3.08,7.84,7.84,0,0,0-.92-1.26,4.91,4.91,0,0,0-3.67-1.78,3.76,3.76,0,0,0-1.81.47,5.14,5.14,0,0,0-1.59,1.36,10.88,10.88,0,0,0-.63,1,8.39,8.39,0,0,0-.51,1.18,8.91,8.91,0,0,0-.34,1.28,7.15,7.15,0,0,0-.12,1.3,6,6,0,0,0,.21,1.6,3.93,3.93,0,0,0,.72,1.41,4.69,4.69,0,0,0,1.84,1.36,8.22,8.22,0,0,0,2.56.62l.9,0,1,0a4.63,4.63,0,0,1-1,1.44,8.1,8.1,0,0,1-1.71,1.35,14.36,14.36,0,0,1-2.42,1.14,19.84,19.84,0,0,1-3.08.85l.89,3.7a17.29,17.29,0,0,0,3.67-1A14,14,0,0,0,78,58.83a11.43,11.43,0,0,0,2.45-2.51,9.51,9.51,0,0,0,1.5-3.2h1.37c.54,0,1.09,0,1.66-.07a14.4,14.4,0,0,0,1.64-.21,12,12,0,0,0,1.49-.39,5.81,5.81,0,0,0,1.25-.61,4.64,4.64,0,0,0,1.42.92,4.93,4.93,0,0,0,2,.36H93a6.32,6.32,0,0,0,2.37-.39A3.52,3.52,0,0,0,97,51.44a4.22,4.22,0,0,0,5.37,1.22A6.15,6.15,0,0,0,104,51.37a4.39,4.39,0,0,0,3.55,1.75,4.37,4.37,0,0,0,1.83-.4,5.34,5.34,0,0,0,1.5-1.09h0l.13-.15a.79.79,0,0,0,.14-.17,4.19,4.19,0,0,0,1.8,1.39,6,6,0,0,0,2.2.41h.15a6,6,0,0,0,1.31-.14,5.2,5.2,0,0,0,1.13-.39,5.77,5.77,0,0,0,1-.61,11.89,11.89,0,0,0,1-.81l.6.37.66.37c.22.13.43.24.63.34l.54.25a7.24,7.24,0,0,0,1.2.37,6,6,0,0,0,1.15.13,5.74,5.74,0,0,0,.6,0,3.23,3.23,0,0,0,.57-.12,4,4,0,0,0,1.61-.93A4.45,4.45,0,0,0,128.38,50.23ZM78.31,49.3H77.22a3.38,3.38,0,0,1-.47,0,8,8,0,0,1-.82-.11,3.22,3.22,0,0,1-.78-.24,1.69,1.69,0,0,1-.58-.43,1,1,0,0,1-.23-.67,2.14,2.14,0,0,1,.19-.87,3.55,3.55,0,0,1,.46-.81,2.78,2.78,0,0,1,.6-.59,1,1,0,0,1,.58-.24.85.85,0,0,1,.25.05,1.59,1.59,0,0,1,.27.12l.26.18.21.18a7.06,7.06,0,0,1,.5.62,6,6,0,0,1,.48.8,8.37,8.37,0,0,1,.4,1,6.43,6.43,0,0,1,.27,1.11ZM125.9,49c-.1.22-.19.34-.29.36l-.11,0h-.1a2.66,2.66,0,0,1-.65-.12c-.28-.07-.59-.17-.93-.29s-.68-.26-1-.41a5.92,5.92,0,0,1-.88-.47l.37-.77h0c.34-.63.59-1.11.77-1.43s.32-.49.43-.49a1.73,1.73,0,0,1,.93.28,3.4,3.4,0,0,1,.8.67,3.68,3.68,0,0,1,.56.87A2,2,0,0,1,126,48,2.22,2.22,0,0,1,125.9,49Z"/><rect class="cls-1" x="131.73" y="37.75" width="3.78" height="3.78" transform="translate(11.1 106.08) rotate(-44.99)"/><path class="cls-1" d="M137,49.13c-.08-.39-.16-.78-.26-1.17s-.19-.77-.29-1.13c-.22-.83-.49-1.67-.79-2.54l-3.48,1.59c.24.58.48,1.12.69,1.63s.41,1,.56,1.45a11.1,11.1,0,0,1,.38,1.27,4.94,4.94,0,0,1,.14,1.09,3.55,3.55,0,0,1-.31,1.43,6.55,6.55,0,0,1-.82,1.44,11.21,11.21,0,0,1-1.23,1.4,16.28,16.28,0,0,1-1.52,1.31,19,19,0,0,1-1.7,1.18c-.59.36-1.17.69-1.75,1l2.2,3a19.42,19.42,0,0,0,2.21-1.27,17.08,17.08,0,0,0,2-1.52,14.83,14.83,0,0,0,1.71-1.75,11.8,11.8,0,0,0,1.33-2,9.25,9.25,0,0,0,.87-2.09,7.81,7.81,0,0,0,.31-2.21,9.9,9.9,0,0,0-.07-1C137.18,49.9,137.12,49.52,137,49.13Z"/><rect class="cls-1" x="172.37" y="58.82" width="3.05" height="3.03" transform="translate(8.26 140.63) rotate(-45)"/><polygon class="cls-1" points="173.88 56.82 171.62 54.55 169.28 56.88 171.6 59.2 173.88 56.91 176.15 59.18 178.49 56.85 176.17 54.53 173.88 56.82"/><path class="cls-1" d="M180.62,43.49c-.46-.17-.9-.35-1.33-.54l-1.3-.6-1.36-.62c-.46-.2-.92-.39-1.39-.55a12,12,0,0,0-1.42-.39,6.78,6.78,0,0,0-1.42-.15,4.74,4.74,0,0,0-1.83.36,6.53,6.53,0,0,0-1.63,1,8.93,8.93,0,0,0-1.38,1.37,11,11,0,0,0-1.08,1.57l2.78,1.8a3.86,3.86,0,0,1,.37-.5,5.1,5.1,0,0,1,.73-.75,5.58,5.58,0,0,1,1-.69,2.15,2.15,0,0,1,1.08-.3,6.15,6.15,0,0,1,1.63.22c.55.15,1.09.33,1.64.54s1.1.42,1.65.65a15.28,15.28,0,0,0,1.65.56c-.82.38-1.65.75-2.5,1.09a23,23,0,0,1-5.75,1.56,26.17,26.17,0,0,1-3.58.23h-2.3a1.89,1.89,0,0,1-.86-.15,1.25,1.25,0,0,1-.42-.36h0a1.63,1.63,0,0,1-.21-.58,3.62,3.62,0,0,1-.05-.51c0-.58,0-1.17,0-1.77s0-1.18,0-1.73c0-1.11,0-2.22,0-3.32,0-.69,0-1.39,0-2.08s0-1.36,0-2-.05-1.28-.08-1.87-.09-1.16-.15-1.67l-3.75.68c.06,1,.11,2.05.13,3.12s0,2.26,0,3.56,0,2.65.07,3.71,0,1.93,0,2.61a3,3,0,0,1-.15.92,2.72,2.72,0,0,1-.4.82,1.62,1.62,0,0,1-.6.54,1,1,0,0,1-.76.09H157a2.65,2.65,0,0,1-1-.15,1.09,1.09,0,0,1-.55-.53q0-.09-.09-.33t-.15-.81c-.06-.38-.13-.88-.22-1.51s-.19-1.45-.31-2.44c0,0,0-.21,0-.48s-.06-.58-.1-.94-.07-.75-.12-1.16-.08-.8-.12-1.17-.07-.68-.09-.94-.05-.44-.06-.51l-3.76.81.06.76c0,.17,0,.36,0,.55s0,.38,0,.57c-.39.16-.84.36-1.34.61a10.35,10.35,0,0,0-1.52.93,11.23,11.23,0,0,0-1.47,1.32A7.13,7.13,0,0,0,145,45.66a3.67,3.67,0,0,0-.2.7,4.35,4.35,0,0,0-.09.92,4.47,4.47,0,0,0,.19,1.21,3.45,3.45,0,0,0,.61,1.17,4.7,4.7,0,0,0,2,1.31,8.33,8.33,0,0,0,2.94.46l1.11,0,1.19-.12a3.86,3.86,0,0,0,.73.77,4,4,0,0,0,.88.55,5.39,5.39,0,0,0,.73.27,7.1,7.1,0,0,0,.71.16c.23,0,.45.06.66.07h1.88a5,5,0,0,0,3.24-1.33,4.87,4.87,0,0,0,1.41,1,4.21,4.21,0,0,0,1.88.37h2.32a21.64,21.64,0,0,0,3-.2,23,23,0,0,0,2.65-.53,21.56,21.56,0,0,0,2.39-.78c.76-.3,1.5-.62,2.21-1s1.43-.68,2.12-1,1.38-.7,2.08-1l1.71-.82.3-3.7a7.75,7.75,0,0,1-1.55-.17A11,11,0,0,1,180.62,43.49Zm-29.77,4.14a4.7,4.7,0,0,1-.52,0l-.81,0q-.45,0-.84-.09a3.81,3.81,0,0,1-.67-.17c-.18-.07-.27-.16-.27-.26a1.05,1.05,0,0,1,.33-.68,5.09,5.09,0,0,1,.84-.72A10.28,10.28,0,0,1,150,45c.37-.21.71-.39,1-.55l.12,1.11c0,.39.08.75.13,1.09s.08.64.12.91Z"/><rect class="cls-1" x="192.72" y="37.75" width="3.78" height="3.78" transform="translate(28.97 149.22) rotate(-45)"/><path class="cls-1" d="M198,49.13c-.07-.39-.16-.78-.25-1.17l-.29-1.13c-.23-.83-.49-1.67-.8-2.54l-3.48,1.59.7,1.63c.22.51.4,1,.56,1.45a11,11,0,0,1,.37,1.27,4.94,4.94,0,0,1,.14,1.09,3.71,3.71,0,0,1-.3,1.43,7,7,0,0,1-.82,1.44,11.21,11.21,0,0,1-1.23,1.4,17.67,17.67,0,0,1-1.52,1.31,20.53,20.53,0,0,1-1.7,1.18c-.59.36-1.17.69-1.75,1l2.19,3a20.46,20.46,0,0,0,2.22-1.27,18.91,18.91,0,0,0,2-1.52,16.59,16.59,0,0,0,1.71-1.75,12.45,12.45,0,0,0,1.33-2,10.26,10.26,0,0,0,.87-2.09,8.18,8.18,0,0,0,.3-2.21,7.78,7.78,0,0,0-.07-1C198.16,49.9,198.1,49.52,198,49.13Z"/><path class="cls-1" d="M203.89,42.41c0-.86-.06-1.79-.11-2.79s-.14-2-.25-3.13-.25-2.18-.43-3.26l-3.72,1.23c.07.4.13.77.18,1.14s.11.76.16,1.17.09.88.14,1.38.08,1.09.13,1.76.09,1.43.13,2.29.09,1.87.14,3c0,.54,0,1.14,0,1.79s0,1.32-.05,2-.06,1.39-.1,2.1-.08,1.39-.12,2l3.72-.57c.05-.68.08-1.37.11-2.07s0-1.41,0-2.1,0-1.36,0-2V44.62C203.92,44,203.91,43.27,203.89,42.41Z"/><path class="cls-9" d="M162.69,153.54A3.24,3.24,0,1,1,166,150.3,3.29,3.29,0,0,1,162.69,153.54Z"/><path class="cls-9" d="M162.7,147.12a3.18,3.18,0,1,1-3.28,3.18A3.24,3.24,0,0,1,162.7,147.12Zm0-.12a3.41,3.41,0,0,0-2.41,1,3.23,3.23,0,0,0,0,4.67,3.48,3.48,0,0,0,4.82,0,3.23,3.23,0,0,0,0-4.67A3.43,3.43,0,0,0,162.7,147Z"/><path class="cls-8" d="M162.7,157.87a7.79,7.79,0,0,1-7.56-5.62v-.06l2-.51,0,.06a5.79,5.79,0,0,0,11.34-1.3v-.06l2,0v.06a7.44,7.44,0,0,1-2.35,5.23A7.91,7.91,0,0,1,162.7,157.87Z"/><path class="cls-8" d="M168.53,150.44l1.91,0a7.34,7.34,0,0,1-2.32,5.19,7.86,7.86,0,0,1-5.42,2.14,7.71,7.71,0,0,1-7.49-5.58l1.85-.47a5.86,5.86,0,0,0,11.47-1.32Zm-.13-.13v.13a5.73,5.73,0,0,1-11.22,1.28l0-.11-.12,0-1.85.47-.13,0,0,.11a7.83,7.83,0,0,0,7.61,5.67,8,8,0,0,0,5.51-2.17,7.48,7.48,0,0,0,2.36-5.28v-.12h-.13l-1.92-.05Z"/><path class="cls-8" d="M164.28,160.16h.06a10.07,10.07,0,0,0,8.65-9.7v-.06l2,0v.06a11.73,11.73,0,0,1-3,7.67,12.45,12.45,0,0,1-7.33,3.95h-.07Z"/><path class="cls-8" d="M173.05,150.45l1.92,0a11.72,11.72,0,0,1-3,7.63,12.4,12.4,0,0,1-7.29,3.93l-.31-1.83A10.13,10.13,0,0,0,173.05,150.45Zm-.13-.12v.12a10,10,0,0,1-8.59,9.64l-.12,0,0,.12.3,1.83,0,.12.13,0a12.47,12.47,0,0,0,7.36-4,11.75,11.75,0,0,0,3.05-7.71v-.12H175l-1.92,0Z"/><path class="cls-8" d="M160.66,162.09a12.35,12.35,0,0,1-7.34-4,11.73,11.73,0,0,1-3-7.77,11.56,11.56,0,0,1,.67-3.91l0-.06L153,147l0,.06a9.51,9.51,0,0,0-.56,3.26,10,10,0,0,0,8.59,9.84h.07l-.34,2Z"/><path class="cls-8" d="M151.1,146.41l1.81.61a9.59,9.59,0,0,0-.57,3.28,10.1,10.1,0,0,0,8.65,9.9l-.31,1.84a12.39,12.39,0,0,1-7.31-4,11.67,11.67,0,0,1-3-7.73A11.46,11.46,0,0,1,151.1,146.41Zm-.08-.15,0,.11a11.74,11.74,0,0,0,2.29,11.74,12.57,12.57,0,0,0,7.39,4l.12,0,0-.13.31-1.83,0-.12-.12,0a10,10,0,0,1-8.54-9.78,9.4,9.4,0,0,1,.56-3.24l0-.11-.12,0-1.81-.61Z"/><path class="cls-9" d="M152.62,143.4l0-.05a12.41,12.41,0,0,1,8.38-4.89h.07l.27,2h-.07a10.38,10.38,0,0,0-7,4.08l0,.05Z"/><path class="cls-9" d="M161.05,138.51l.25,1.84a10.46,10.46,0,0,0-7,4.12l-1.56-1.09A12.41,12.41,0,0,1,161.05,138.51Zm.11-.13H161a12.57,12.57,0,0,0-8.43,4.92l-.07.1.1.08,1.56,1.08.11.07.07-.1a10.31,10.31,0,0,1,6.95-4.06l.13,0,0-.12-.25-1.84Z"/><path class="cls-8" d="M162.7,166.47a16.87,16.87,0,0,1-12.78-5.77l0,0,1.56-1.27,0,0a15,15,0,0,0,20.41,1.93l.05,0,1.28,1.54,0,0A17.1,17.1,0,0,1,162.7,166.47Z"/><path class="cls-8" d="M151.43,159.46a15.05,15.05,0,0,0,20.5,1.94l1.2,1.44A17,17,0,0,1,150,160.66Zm0-.17-.1.08-1.47,1.19-.09.08.08.09a16.92,16.92,0,0,0,12.83,5.8,17.15,17.15,0,0,0,10.51-3.59l.1-.08-.07-.1L172,161.32l-.08-.1-.1.08a14.93,14.93,0,0,1-20.32-1.92Z"/><path class="cls-8" d="M147.83,157.66A15.6,15.6,0,0,1,146,150.3a15.8,15.8,0,0,1,2.31-8.22l0-.06,1.76,1,0,.06a13.81,13.81,0,0,0-.43,13.66l0,.06-1.82.9Z"/><path class="cls-8" d="M148.38,142.11l1.65.95a13.83,13.83,0,0,0-2,7.24,13.67,13.67,0,0,0,1.61,6.48l-1.71.85a15.49,15.49,0,0,1-1.82-7.33A15.72,15.72,0,0,1,148.38,142.11Zm0-.17-.06.11A15.82,15.82,0,0,0,146,150.3a15.61,15.61,0,0,0,1.83,7.39l.05.11.12-.06,1.7-.85.12,0-.06-.11a13.6,13.6,0,0,1-1.59-6.43,13.81,13.81,0,0,1,2-7.18l.06-.11-.11-.06-1.65-.95Z"/><path class="cls-9" d="M173.63,140.86a14.66,14.66,0,0,0-5.27-3.65l-.06,0,.79-1.82.06,0a16.87,16.87,0,0,1,6,4.16l0,.05-1.53,1.32Z"/><path class="cls-9" d="M169.13,135.44a16.74,16.74,0,0,1,6,4.14l-1.43,1.24a14.81,14.81,0,0,0-5.29-3.67Zm-.07-.16-.05.11-.74,1.71-.05.12.12,0a14.73,14.73,0,0,1,5.24,3.64l.09.09.09-.08,1.43-1.24.1-.08-.09-.09a16.42,16.42,0,0,0-2.81-2.44,16.87,16.87,0,0,0-3.21-1.74Z"/><path class="cls-9" d="M173.75,138.19l-11.82,11.46,1.44,1.4,11.83-11.46Z"/><path class="cls-9" d="M173.75,138.28l1.36,1.31L163.37,151,162,149.65Zm0-.18-.09.09-11.73,11.37-.09.08.09.09,1.35,1.31.09.09.09-.09,11.74-11.37.08-.08-.08-.09-1.36-1.31Z"/><path class="cls-8" d="M155.19,148.2l0-.06a7.66,7.66,0,0,1,2.78-3.88,7.89,7.89,0,0,1,4.71-1.53,8,8,0,0,1,4.18,1.17l.06,0-1.49,1.44,0,0a5.87,5.87,0,0,0-2.71-.66,5.78,5.78,0,0,0-5.53,4l0,.06Z"/><path class="cls-8" d="M162.7,142.79a7.9,7.9,0,0,1,4.14,1.16l-1.4,1.36a6,6,0,0,0-2.74-.66,5.85,5.85,0,0,0-5.59,4l-1.84-.53a7.54,7.54,0,0,1,2.75-3.84A7.89,7.89,0,0,1,162.7,142.79Zm0-.12a7.93,7.93,0,0,0-4.75,1.54,7.65,7.65,0,0,0-2.8,3.91l0,.12.12,0,1.84.53.12,0,0-.11a5.71,5.71,0,0,1,5.47-3.95,5.8,5.8,0,0,1,2.68.65l.08,0,.07-.06,1.4-1.36.11-.11-.13-.08A8.05,8.05,0,0,0,162.7,142.67Z"/><path class="cls-8" d="M168.68,142.18a10.36,10.36,0,0,0-4.85-1.79h-.07l.23-2h.06a12.45,12.45,0,0,1,6.08,2.34l.06,0-1.47,1.41Z"/><path class="cls-8" d="M164,138.48a12.44,12.44,0,0,1,6.05,2.32l-1.37,1.33a10.6,10.6,0,0,0-4.89-1.81Zm-.11-.14v.13l-.21,1.84,0,.13h.13a10.32,10.32,0,0,1,4.83,1.79l.08.06.08-.08,1.37-1.32.1-.1-.11-.09a12.57,12.57,0,0,0-6.11-2.35Z"/><path class="cls-8" d="M150.2,139.58l0-.05A17.06,17.06,0,0,1,168.13,135l.07,0-.75,1.84-.06,0a15.29,15.29,0,0,0-4.69-.75,14.89,14.89,0,0,0-10.93,4.74l0,.05Z"/><path class="cls-8" d="M162.69,134.19a17.06,17.06,0,0,1,5.42.89l-.71,1.72a15.17,15.17,0,0,0-4.71-.75,15,15,0,0,0-11,4.76l-1.43-1.24A16.88,16.88,0,0,1,162.69,134.19Zm0-.12a17.06,17.06,0,0,0-12.5,5.42l-.08.09.09.08,1.43,1.24.1.08.08-.09a14.82,14.82,0,0,1,10.88-4.72,15.11,15.11,0,0,1,4.67.75l.12,0,0-.11.71-1.73,0-.12-.12,0A17.16,17.16,0,0,0,162.69,134.07Z"/><rect class="cls-8" x="134.89" y="136.18" width="2.6" height="13.6" transform="matrix(1, 0, 0, 1, -0.56, 0.53)"/><rect class="cls-8" x="117.71" y="136.18" width="2.6" height="13.6" transform="translate(-0.56 0.47) rotate(-0.22)"/><path class="cls-9" d="M109.2,149.82l-2.6-.09c0-.08.23-7.9-2.53-12.89l2.26-1.33C109.47,141.17,109.22,149.47,109.2,149.82Z"/><path class="cls-9" d="M86.13,149.82l-2.61-.09a33.15,33.15,0,0,0-1.6-10.84l-1-2.15,2.31-1.23a16.94,16.94,0,0,1,1.06,2.33l.54,1.17a1.88,1.88,0,0,0,.67.8,1,1,0,0,0,.56.19c.91-.08,1.14-.59,1.19-.75a15.67,15.67,0,0,0,.15-2.64c0-.32,0-.57,0-.7l2.59-.19a6,6,0,0,1,0,.64c.09,1.29.44,3,1,3.43a.27.27,0,0,0,.26.05c.09,0,.11,0,.16-.11.38-.63.16-2.47-.14-3.56l2.5-.75c.17.62,1,3.82-.14,5.72a2.85,2.85,0,0,1-4.29.72,4.07,4.07,0,0,1-.41-.42,4,4,0,0,1-2.67,1.23,2.74,2.74,0,0,1-.7,0A39.54,39.54,0,0,1,86.13,149.82Z"/><path class="cls-9" d="M96.63,150l-2.46-.85a15.41,15.41,0,0,1,3.91-5.88,3.83,3.83,0,0,1-1.54-.63,3.09,3.09,0,0,1-1.3-2.5A4.27,4.27,0,0,1,97,136.38a5.85,5.85,0,0,1,5.42-.46l-1,2.45a3.37,3.37,0,0,0-2.91.22,1.56,1.56,0,0,0-.63,1.47c0,.3.1.36.17.41.82.58,3.48.14,5.08-.4l.89,2.52A13.27,13.27,0,0,0,96.63,150Z"/><path class="cls-8" d="M111.15,155.63l-1.54-2.16a15.21,15.21,0,0,0,2.43-2.11,5.39,5.39,0,0,0,1.23-3.41v-7.3h2.61V148a8.15,8.15,0,0,1-1.85,5.13A16.42,16.42,0,0,1,111.15,155.63Z"/><path class="cls-8" d="M137.28,155.63l-1.53-2.16a14.67,14.67,0,0,0,2.42-2.11,5.34,5.34,0,0,0,1.24-3.41v-7.3H142V148a8.14,8.14,0,0,1-1.84,5.13A16.92,16.92,0,0,1,137.28,155.63Z"/><path class="cls-8" d="M129.49,149.9h-7.23v-2.68h7.23a.91.91,0,0,0,.88-.59.83.83,0,0,0-.2-.93l-5.46-5.44,1.81-1.92,5.46,5.44a3.58,3.58,0,0,1-2.49,6.12Z"/><polygon class="cls-9" points="81.96 161.41 82.06 159.41 82.06 158.29 81.32 158.29 81.32 159.41 81.45 161.41 81.96 161.41"/><rect class="cls-9" x="81.3" y="161.88" width="0.84" height="0.84" transform="translate(-90.83 105.35) rotate(-45.01)"/><rect class="cls-9" x="85.16" y="158.44" width="0.84" height="0.84" transform="translate(-87.27 107.04) rotate(-45)"/><path class="cls-9" d="M96.1,160.83c0-.11-.07-.21-.1-.31l-.11-.28a2.2,2.2,0,0,0-.09-.21l-.06-.12-.66.37a2,2,0,0,1,.12.25c0,.1.09.2.14.31s.08.22.11.33a1.13,1.13,0,0,1,0,.3.24.24,0,0,1,0,.15.35.35,0,0,1-.1.11l-.14.07-.15,0a.29.29,0,0,1-.19-.07.32.32,0,0,1-.09-.16.88.88,0,0,1,0-.24,2.09,2.09,0,0,1,0-.25l0-.25a1.91,1.91,0,0,0,0-.2l-.68-.11c0,.07,0,.15,0,.24l-.06.28c0,.09-.06.18-.1.27a.84.84,0,0,1-.12.23.86.86,0,0,1-.15.17.39.39,0,0,1-.2.08.13.13,0,0,1-.12,0,.33.33,0,0,1,0-.15.92.92,0,0,1,0-.23c0-.08,0-.17,0-.26a2.21,2.21,0,0,1,0-.25,2.18,2.18,0,0,1,.06-.22l-.71-.13c0,.16-.09.31-.13.46a2.53,2.53,0,0,1-.17.4,1.16,1.16,0,0,1-.24.29.52.52,0,0,1-.33.1H86.75l-.27,0a1.77,1.77,0,0,0,.16-.34,1,1,0,0,0,.06-.36,1.2,1.2,0,0,0-.09-.45,1.29,1.29,0,0,0-.23-.39,1,1,0,0,0-.34-.28.82.82,0,0,0-.43-.12.87.87,0,0,0-.45.1,1.23,1.23,0,0,0-.39.33,1.76,1.76,0,0,0-.24.42,1.62,1.62,0,0,0-.08.49.63.63,0,0,0,0,.19.49.49,0,0,0,.06.17.53.53,0,0,0,.08.15l.09.13h-.52a.32.32,0,0,1-.19,0,.51.51,0,0,1-.18-.18,2.44,2.44,0,0,1-.19-.34c-.06-.14-.12-.32-.2-.53l-.77.33.16.36a2.34,2.34,0,0,1,.12.3L83,162a2.68,2.68,0,0,1,0,.3h0v.08a.82.82,0,0,1-.07.31,1.52,1.52,0,0,1-.17.3,3.58,3.58,0,0,1-.27.29l-.32.26-.37.24-.38.21.49.67a4.3,4.3,0,0,0,.65-.39,3.09,3.09,0,0,0,.54-.48,2.9,2.9,0,0,0,.39-.55,1.82,1.82,0,0,0,.22-.63l.23.06h.56l.4,0a3.37,3.37,0,0,0,.36-.06,1.09,1.09,0,0,0,.26-.1,1.45,1.45,0,0,0,.31.11l.29.06.17,0h5.53a1.42,1.42,0,0,0,.31,0l.23-.07.17-.11.13-.12.13.15a.64.64,0,0,0,.16.11.54.54,0,0,0,.19.07.85.85,0,0,0,.23,0,1.12,1.12,0,0,0,.27,0,.66.66,0,0,0,.21-.08.5.5,0,0,0,.17-.11.93.93,0,0,0,.14-.14l.13.14a.88.88,0,0,0,.37.19,1.09,1.09,0,0,0,.26,0,1.44,1.44,0,0,0,.53-.09,1,1,0,0,0,.37-.23,1.09,1.09,0,0,0,.22-.36,1.43,1.43,0,0,0,.07-.48,2,2,0,0,0,0-.34C96.15,161.06,96.13,161,96.1,160.83ZM86,161.26l-.09.15a.86.86,0,0,1-.13.14.57.57,0,0,1-.13.1.4.4,0,0,1-.17-.09.64.64,0,0,1-.15-.13.72.72,0,0,1-.11-.15.19.19,0,0,1,0-.11.46.46,0,0,1,0-.21.44.44,0,0,1,.12-.15.71.71,0,0,1,.14-.1l.14-.05.13.06.13.1.1.14a.33.33,0,0,1,0,.17A.35.35,0,0,1,86,161.26Z"/><rect class="cls-9" x="100.98" y="159.08" width="0.84" height="0.84" transform="translate(-83.08 118.42) rotate(-45)"/><rect class="cls-9" x="112.38" y="158.29" width="0.67" height="0.67" transform="translate(-79.16 126.2) rotate(-45.01)"/><polygon class="cls-9" points="112.71 159.4 113.22 159.91 113.73 159.39 113.21 158.88 112.71 159.38 112.21 158.88 111.7 159.39 112.21 159.9 112.71 159.4"/><path class="cls-9" d="M114.52,161.17c0-.11,0-.22-.08-.34a2.81,2.81,0,0,0-.1-.31,2.91,2.91,0,0,0-.1-.28,2.2,2.2,0,0,0-.09-.21l-.06-.12-.66.37.12.25c0,.1.09.2.14.31s.07.22.1.33a1.17,1.17,0,0,1,0,.3.24.24,0,0,1,0,.15.35.35,0,0,1-.1.11l-.14.07-.15,0a.29.29,0,0,1-.19-.07.44.44,0,0,1-.1-.16.88.88,0,0,1,0-.24,2.11,2.11,0,0,1,0-.25l0-.25c0-.08,0-.15,0-.2l-.68-.11c0,.07,0,.15,0,.24a2.29,2.29,0,0,1-.07.28,1.43,1.43,0,0,1-.09.27.84.84,0,0,1-.12.23.66.66,0,0,1-.16.17.33.33,0,0,1-.19.08.12.12,0,0,1-.12,0,.25.25,0,0,1,0-.15.61.61,0,0,1,0-.23c0-.08,0-.17,0-.26a2.21,2.21,0,0,1,0-.25c0-.09,0-.16.05-.22l-.7-.13c0,.16-.09.31-.13.46a2.53,2.53,0,0,1-.17.4,1.16,1.16,0,0,1-.24.29.53.53,0,0,1-.34.1h-4.85a.14.14,0,0,1-.12-.08.84.84,0,0,1-.07-.18,1.22,1.22,0,0,1,0-.26s0,0,0,0v0a1.17,1.17,0,0,0-.39-.82,1,1,0,0,0-.69-.26q-.54,0-.9.72l0,.07,0,.08-.08.16a2.48,2.48,0,0,1-.19.31.74.74,0,0,1-.54.33h0a.24.24,0,0,1-.15,0,.27.27,0,0,1-.09-.12.88.88,0,0,1,0-.15,1,1,0,0,1,0-.17,2,2,0,0,0,0-.43,3.1,3.1,0,0,0-.1-.36l-.76.19c0,.11.06.2.08.26a1.57,1.57,0,0,0,0,.16.38.38,0,0,1,0,.1v.08a.42.42,0,0,1-.19.37,1.18,1.18,0,0,1-.56.11h0l-.19,0a.3.3,0,0,1-.13-.09.56.56,0,0,1-.1-.15,1.59,1.59,0,0,0-.09-.2c-.13-.33-.26-.62-.36-.88l-.28-.67L99,159.2l-.78.33.22.51.23.53.24.53.22.51a.86.86,0,0,1-.22.12l-.08,0-.1,0h-.38l-.21-.06-.24-.12a1.46,1.46,0,0,1-.25-.2l-.48.68a1.75,1.75,0,0,0,.61.43,1.89,1.89,0,0,0,.69.14,2.54,2.54,0,0,0,.41,0,1.69,1.69,0,0,0,.34-.09l.19-.09.15-.09.14.12a.51.51,0,0,0,.18.09.64.64,0,0,0,.22.06,1.14,1.14,0,0,0,.28,0h0a2.88,2.88,0,0,0,.63-.07,1.32,1.32,0,0,0,.45-.2,1.08,1.08,0,0,0,.31.19,1,1,0,0,0,.32.07h.11a1.51,1.51,0,0,0,.44-.06,1.15,1.15,0,0,0,.27-.14.56.56,0,0,0,.18-.21,2.8,2.8,0,0,0,1.14.39.78.78,0,0,0,.56-.21.71.71,0,0,0,.54.23h4.9a1.42,1.42,0,0,0,.31,0l.23-.07.17-.11.12-.12.14.15a.83.83,0,0,0,.15.11.68.68,0,0,0,.2.07.85.85,0,0,0,.23,0,1.12,1.12,0,0,0,.27,0,.66.66,0,0,0,.21-.08.62.62,0,0,0,.17-.11,1.85,1.85,0,0,0,.14-.14l.13.14a.64.64,0,0,0,.16.11.66.66,0,0,0,.21.08,1.09,1.09,0,0,0,.26,0,1.35,1.35,0,0,0,.52-.09.87.87,0,0,0,.37-.23,1,1,0,0,0,.23-.36,1.73,1.73,0,0,0,.07-.48A2,2,0,0,0,114.52,161.17Zm-10,.48c0,.14,0,.21-.1.22s-.38-.08-.82-.34c.15-.36.26-.56.34-.59s.14,0,.25.08a.62.62,0,0,1,.25.26A.58.58,0,0,1,104.54,161.65Z"/><path class="cls-9" d="M120.88,160.67a1.73,1.73,0,0,0-.24-.23,3,3,0,0,0-.63-.35l-.45-.21-.33-.14-.35-.16-.34-.16-.27-.17-.51.76.13.08a1.12,1.12,0,0,0-.18.2,1.49,1.49,0,0,0-.14.24,2.76,2.76,0,0,0-.08.27,1.23,1.23,0,0,0,0,.27,1.5,1.5,0,0,0,0,.37,2,2,0,0,0,.14.34h-.48a2.5,2.5,0,0,0-.06-.38,2.47,2.47,0,0,0-.11-.36,3.18,3.18,0,0,0-.16-.32,2.83,2.83,0,0,0-.2-.28,1.08,1.08,0,0,0-.81-.39.83.83,0,0,0-.41.1,1.37,1.37,0,0,0-.35.3c0,.07-.09.15-.14.23a2,2,0,0,0-.11.26,1.28,1.28,0,0,0-.07.28,1.43,1.43,0,0,0,0,.29,1.34,1.34,0,0,0,0,.35.94.94,0,0,0,.15.32,1.13,1.13,0,0,0,.41.29,1.7,1.7,0,0,0,.57.14h.43a1.13,1.13,0,0,1-.21.31,1.68,1.68,0,0,1-.38.3,2.69,2.69,0,0,1-.54.25,3.92,3.92,0,0,1-.68.19l.2.82a3.73,3.73,0,0,0,.81-.22,2.8,2.8,0,0,0,.7-.39,2.39,2.39,0,0,0,.54-.56,2,2,0,0,0,.34-.7h.11l.37,0a2.31,2.31,0,0,0,.37,0l.35-.05a1.84,1.84,0,0,0,.29-.06l.23.07.26,0a1.15,1.15,0,0,0,.26,0h.47l.26,0a1.83,1.83,0,0,0,.25-.06.76.76,0,0,0,.2-.08A1.39,1.39,0,0,0,121,162a1.16,1.16,0,0,0,.15-.57,1.44,1.44,0,0,0-.06-.4A1.07,1.07,0,0,0,120.88,160.67Zm-4.58,1.12H116l-.18,0a.85.85,0,0,1-.17-.06.3.3,0,0,1-.13-.09.25.25,0,0,1,0-.15.43.43,0,0,1,0-.19.77.77,0,0,1,.1-.18.43.43,0,0,1,.14-.13.19.19,0,0,1,.13-.06h0l.06,0,.06,0,0,0a.76.76,0,0,1,.11.14.78.78,0,0,1,.11.18,2.2,2.2,0,0,1,.09.21,1.05,1.05,0,0,1,.06.24Zm2.81-.51a.52.52,0,0,1-.12.19.42.42,0,0,1-.18.11.67.67,0,0,1-.19,0,.7.7,0,0,1-.14-.08.71.71,0,0,1-.13-.12.76.76,0,0,1-.11-.14.27.27,0,0,1,0-.14.44.44,0,0,1,0-.22,1.71,1.71,0,0,1,.13-.23.9.9,0,0,1,.18-.16.26.26,0,0,1,.18,0,.34.34,0,0,1,.14,0,.53.53,0,0,1,.14.12.61.61,0,0,1,.12.16.26.26,0,0,1,0,.17A.65.65,0,0,1,119.11,161.28Zm1.29.37a.43.43,0,0,1-.19.13,1.14,1.14,0,0,1-.29.06h-.38a2,2,0,0,0,.12-.21,1.6,1.6,0,0,0,.1-.23,2.25,2.25,0,0,0,.08-.24,2.12,2.12,0,0,0,0-.24v-.05a1.2,1.2,0,0,1,.21.13,1.1,1.1,0,0,1,.21.14,1.06,1.06,0,0,1,.15.15.24.24,0,0,1,0,.14A.4.4,0,0,1,120.4,161.65Z"/><path class="cls-9" d="M123.75,161.75l-.06-.26a2.33,2.33,0,0,0-.07-.25,4.43,4.43,0,0,0-.17-.56l-.77.35c0,.13.11.25.15.37s.09.21.13.32.06.19.08.28a1,1,0,0,1,0,.24.7.7,0,0,1-.07.31,1.14,1.14,0,0,1-.18.32,2.61,2.61,0,0,1-.27.31,3.24,3.24,0,0,1-.34.29c-.12.09-.24.18-.37.26l-.39.22.49.67a4.2,4.2,0,0,0,1.31-1,3,3,0,0,0,.29-.43,2.14,2.14,0,0,0,.2-.47,1.91,1.91,0,0,0,.06-.48,1.77,1.77,0,0,0,0-.23C123.78,161.92,123.76,161.84,123.75,161.75Z"/><polygon class="cls-9" points="126.37 163.58 125.86 163.07 125.35 163.59 125.87 164.1 126.37 163.6 126.88 164.11 127.39 163.59 126.87 163.08 126.37 163.58"/><polygon class="cls-9" points="128.75 159.66 129.26 160.16 129.77 159.65 129.26 159.13 128.75 159.63 128.25 159.13 127.74 159.64 128.25 160.16 128.75 159.66"/><path class="cls-9" d="M139,161.51a2,2,0,0,0,0-.34,2.29,2.29,0,0,0-.07-.34,2.81,2.81,0,0,0-.1-.31l-.1-.28-.1-.21,0-.12-.66.37.12.25c0,.1.09.2.13.31s.08.22.11.33a1.17,1.17,0,0,1,.05.3.33.33,0,0,1,0,.15.52.52,0,0,1-.1.11l-.14.07-.15,0a.27.27,0,0,1-.19-.07.34.34,0,0,1-.1-.16.88.88,0,0,1,0-.24,2.09,2.09,0,0,1,0-.25l0-.25a1.91,1.91,0,0,0,0-.2l-.68-.11c0,.07,0,.15,0,.24a1.27,1.27,0,0,1-.06.28l-.09.27a2.42,2.42,0,0,1-.12.23.66.66,0,0,1-.16.17.36.36,0,0,1-.19.08.14.14,0,0,1-.13,0,.53.53,0,0,1-.05-.15,1.93,1.93,0,0,1,0-.23c0-.08,0-.17,0-.26l.06-.25c0-.09,0-.16,0-.22l-.71-.13c0,.16-.08.31-.13.46a1.46,1.46,0,0,1-.17.4,1,1,0,0,1-.23.29.55.55,0,0,1-.34.1h-4.87a.2.2,0,0,1-.14,0,.27.27,0,0,1-.09-.12.75.75,0,0,1,0-.16c0-.06,0-.11,0-.16a3,3,0,0,0-.06-.46,1.56,1.56,0,0,0-.1-.34l-.77.22c0,.1,0,.19.07.25s0,.1,0,.14a.34.34,0,0,1,0,.09v.1a.33.33,0,0,1-.09.25.44.44,0,0,1-.22.15,1.29,1.29,0,0,1-.31.07h-.57a.2.2,0,0,1-.14,0,.27.27,0,0,1-.09-.12.75.75,0,0,1,0-.16,1,1,0,0,1,0-.16,3,3,0,0,0-.06-.46,1.56,1.56,0,0,0-.1-.34l-.77.22c0,.1,0,.19.07.25s0,.1,0,.14a.34.34,0,0,1,0,.09v.1a.33.33,0,0,1-.09.25.44.44,0,0,1-.22.15,1.29,1.29,0,0,1-.31.07h-.7l-.1,0a.16.16,0,0,1-.09-.05l-.06-.09a1.3,1.3,0,0,1-.07-.33,2.16,2.16,0,0,1,0-.36c0-.12,0-.24,0-.37s0-.26,0-.39,0-.31,0-.49,0-.35,0-.53,0-.34,0-.49a4.05,4.05,0,0,0,0-.42l-.8.24a3.12,3.12,0,0,1,.06.49c0,.18,0,.37,0,.57s0,.4,0,.6,0,.39,0,.55,0,.32,0,.44v.5a.82.82,0,0,0,0,.21,1,1,0,0,0,.08.23.85.85,0,0,0,.17.23,1,1,0,0,0,.4.24,1.41,1.41,0,0,0,.53.08h.21l.37,0a2.23,2.23,0,0,0,.36-.05l.33-.08a1,1,0,0,0,.28-.14,1,1,0,0,0,.31.21,1.15,1.15,0,0,0,.44.08h.2l.37,0a2.23,2.23,0,0,0,.36-.05l.33-.08a1,1,0,0,0,.28-.14,1.13,1.13,0,0,0,.31.21,1.15,1.15,0,0,0,.44.08h4.92a1.32,1.32,0,0,0,.3,0,1,1,0,0,0,.23-.07.71.71,0,0,0,.17-.11l.13-.12.13.15a.91.91,0,0,0,.16.11.62.62,0,0,0,.19.07.88.88,0,0,0,.24,0,1.12,1.12,0,0,0,.27,0,.9.9,0,0,0,.21-.08.46.46,0,0,0,.16-.11.93.93,0,0,0,.14-.14l.13.14.17.11a.66.66,0,0,0,.21.08,1,1,0,0,0,.26,0,1.38,1.38,0,0,0,.52-.09.93.93,0,0,0,.37-.23A1,1,0,0,0,139,162,1.43,1.43,0,0,0,139,161.51Z"/><path class="cls-9" d="M141.73,161.39l0-.16a2.09,2.09,0,0,0-.23-.54,2.92,2.92,0,0,0-.37-.52,5.21,5.21,0,0,0-.47-.47,6.11,6.11,0,0,0-.51-.41l-.47.7.28.2.31.25.3.28a3.4,3.4,0,0,1,.26.29,1.69,1.69,0,0,1,.17.27.39.39,0,0,1,.06.24.13.13,0,0,1,0,.1.24.24,0,0,1-.09.08l-.13.05-.15,0-.13,0h-.11a.85.85,0,0,1-.25,0,1.81,1.81,0,0,1-.31-.09l-.31-.13-.26-.15-.35.8a2.57,2.57,0,0,0,.33.18l.36.15a2.66,2.66,0,0,0,.38.1,1.69,1.69,0,0,0,.38,0h.09a1.46,1.46,0,0,0,.52-.08,1.09,1.09,0,0,0,.41-.23,1,1,0,0,0,.27-.36,1,1,0,0,0,.1-.45A.76.76,0,0,0,141.73,161.39Z"/></svg>