<svg width="12" height="12" viewBox="0 0 12 12" fill="none" xmlns="http://www.w3.org/2000/svg">
<path d="M6.12695 11.1602L6.63477 10.6777C6.76172 10.5508 6.76172 10.3477 6.63477 10.2461L2.69922 6.28516H11.3828C11.5352 6.28516 11.6875 6.1582 11.6875 5.98047V5.26953C11.6875 5.11719 11.5352 4.96484 11.3828 4.96484H2.69922L6.63477 1.0293C6.76172 0.927734 6.76172 0.724609 6.63477 0.597656L6.12695 0.115234C6.02539 -0.0117188 5.82227 -0.0117188 5.69531 0.115234L0.388672 5.42188C0.261719 5.54883 0.261719 5.72656 0.388672 5.85352L5.69531 11.1602C5.82227 11.2871 6.02539 11.2871 6.12695 11.1602Z" fill="white"/>
</svg>
