<svg width="25" height="26" viewBox="0 0 25 26" fill="none" xmlns="http://www.w3.org/2000/svg">
<path d="M24.7088 13.2768C24.7088 12.2526 24.6257 11.5051 24.4458 10.73H12.75V15.3529H19.6152C19.4768 16.5018 18.7294 18.2319 17.0684 19.3945L17.0451 19.5493L20.7431 22.4141L20.9993 22.4397C23.3523 20.2666 24.7088 17.0693 24.7088 13.2768Z" fill="#4285F4"/>
<path d="M12.7494 25.4571C16.1128 25.4571 18.9364 24.3497 20.9988 22.4397L17.0679 19.3946C16.0159 20.1282 14.6041 20.6403 12.7494 20.6403C9.45526 20.6403 6.65936 18.4673 5.6627 15.4637L5.51661 15.4761L1.67138 18.452L1.62109 18.5918C3.66957 22.6611 7.8773 25.4571 12.7494 25.4571Z" fill="#34A853"/>
<path d="M5.66329 15.4637C5.40031 14.6886 5.24812 13.8581 5.24812 13C5.24812 12.1417 5.40032 11.3113 5.64946 10.5362L5.64249 10.3711L1.74908 7.34747L1.62169 7.40806C0.777415 9.09671 0.292969 10.993 0.292969 13C0.292969 15.0069 0.777415 16.9031 1.62169 18.5917L5.66329 15.4637Z" fill="#FBBC05"/>
<path d="M12.7494 5.35967C15.0886 5.35967 16.6664 6.37007 17.5661 7.21444L21.0818 3.7818C18.9226 1.77484 16.1128 0.542969 12.7494 0.542969C7.8773 0.542969 3.66957 3.33887 1.62109 7.40814L5.64886 10.5363C6.65936 7.53276 9.45526 5.35967 12.7494 5.35967Z" fill="#EB4335"/>
</svg>
