<svg width="88" height="100" viewBox="0 0 88 100" fill="none" xmlns="http://www.w3.org/2000/svg">
<path d="M25.4399 28.5576C24.8071 28.0531 23.8848 28.1568 23.3803 28.7898C19.6381 33.4834 17.6602 39.1422 17.6602 45.1542C17.6602 59.6397 29.4451 71.4244 43.9305 71.4244C58.416 71.4244 70.2009 59.6395 70.2009 45.1542C70.2009 30.669 58.416 18.884 43.9305 18.884C38.1774 18.884 32.7138 20.7105 28.1306 24.1659C27.4844 24.653 27.3554 25.572 27.8426 26.2182C28.3301 26.8648 29.2487 26.9938 29.8951 26.5062C33.9658 23.4374 38.8191 21.8151 43.9305 21.8151C56.8 21.8151 67.2698 32.285 67.2698 45.1542C67.2698 51.8975 64.3942 57.9807 59.8063 62.2452V60.0039C59.8063 58.2505 58.8635 56.6163 57.3461 55.7392L56.7775 55.4101C56.0768 55.005 55.1803 55.2444 54.775 55.9447C54.3697 56.6455 54.6091 57.542 55.3096 57.9473L55.8786 58.2765C56.4934 58.6318 56.8752 59.2938 56.8752 60.0039V64.5651C55.7477 65.3195 54.5509 65.9777 53.2967 66.5293V65.0016C53.2967 64.192 52.6408 63.5361 51.8312 63.5361C51.0216 63.5361 50.3657 64.192 50.3657 65.0016V67.5907C48.3207 68.1781 46.1619 68.4935 43.9305 68.4935C41.684 68.4935 39.511 68.1736 37.4536 67.5784V65.0016C37.4536 64.192 36.7974 63.5361 35.9881 63.5361C35.1787 63.5361 34.5225 64.192 34.5225 65.0016V66.5111C33.3403 65.9882 32.2095 65.3701 31.1395 64.6665V60.0041C31.1395 59.294 31.5213 58.6322 32.136 58.2765L39.4088 54.0708C40.2333 55.7235 41.9405 56.862 43.9094 56.862C45.9131 56.862 47.6464 55.6831 48.4534 53.9829L49.789 54.7553C50.0202 54.8892 50.2724 54.9525 50.5214 54.9525C51.0275 54.9525 51.5197 54.69 51.7913 54.2205C52.1966 53.5197 51.9572 52.6232 51.2565 52.2181L48.9366 50.8765V49.3324C51.7773 47.6261 53.6825 44.5154 53.6825 40.9673V31.2786C53.6825 28.6192 51.5187 26.4554 48.8591 26.4554H39.6662L36.9649 25.5679C36.3203 25.3563 35.6066 25.4671 35.0566 25.8651C34.5067 26.2631 34.1784 26.906 34.1784 27.5851V40.9671C34.1784 44.498 36.0647 47.5964 38.8824 49.3082V50.9892L30.6687 55.739C29.1512 56.6165 28.2084 58.2507 28.2084 60.0039V62.3883C23.5305 58.1173 20.5911 51.9727 20.5911 45.1542C20.5911 39.8128 22.3479 34.786 25.672 30.617C26.1765 29.9843 26.0726 29.0621 25.4399 28.5576ZM38.9743 29.3134C39.1218 29.3619 39.2762 29.3867 39.4317 29.3867H48.8593C49.9027 29.3867 50.7516 30.2356 50.7516 31.2788V34.2281H37.1097V28.7008L38.9743 29.3134ZM37.1095 37.159H50.7514V40.9673C50.7514 44.7282 47.6915 47.7881 43.9303 47.7881C40.1692 47.7881 37.1095 44.7282 37.1095 40.9673V37.159ZM43.9303 50.7194C44.6426 50.7194 45.3363 50.6406 46.0056 50.4949V51.835C46.0056 52.9908 45.0653 53.9311 43.9096 53.9311C42.754 53.9311 41.8135 52.9908 41.8135 51.835V50.4853C42.4957 50.6367 43.2034 50.7194 43.9303 50.7194Z" fill="#15BBCC"/>
<path d="M76.3148 60.0902H72.5555C70.6683 60.0902 69.1328 61.6255 69.1328 63.5131V67.2724C69.1328 69.1598 70.6681 70.6953 72.5555 70.6953H76.3148C78.2022 70.6953 79.7377 69.16 79.7377 67.2724V63.5131C79.7377 61.6255 78.2022 60.0902 76.3148 60.0902ZM76.8066 67.2724C76.8066 67.5436 76.586 67.7642 76.3148 67.7642H72.5555C72.2845 67.7642 72.0639 67.5436 72.0639 67.2724V63.5131C72.0639 63.2419 72.2845 63.0213 72.5555 63.0213H76.3148C76.586 63.0213 76.8066 63.2419 76.8066 63.5131V67.2724Z" fill="#15BBCC"/>
<path d="M16.3188 79.8355C17.1282 79.8355 17.7844 79.1795 17.7844 78.37C17.7844 77.5604 17.1282 76.9044 16.3188 76.9044H12.7077C11.8984 76.9044 11.2422 77.5604 11.2422 78.37C11.2422 79.1795 11.8984 79.8355 12.7077 79.8355H16.3188Z" fill="#15BBCC"/>
<path d="M75.4907 76.9044H71.8796C71.07 76.9044 70.4141 77.5604 70.4141 78.37C70.4141 79.1795 71.07 79.8355 71.8796 79.8355H75.4907C76.3003 79.8355 76.9562 79.1795 76.9562 78.37C76.9562 77.5604 76.3001 76.9044 75.4907 76.9044Z" fill="#15BBCC"/>
<path d="M21.9538 76.9044C21.1445 76.9044 20.4883 77.5604 20.4883 78.37C20.4883 79.1795 21.1445 79.8355 21.9538 79.8355H65.9649C66.7745 79.8355 67.4305 79.1795 67.4305 78.37C67.4305 77.5604 66.7745 76.9044 65.9649 76.9044H21.9538Z" fill="#15BBCC"/>
<path d="M75.4921 85.4975H13.1609C12.3515 85.4975 11.6953 86.1535 11.6953 86.963C11.6953 87.7726 12.3515 88.4286 13.1609 88.4286H75.4919C76.3014 88.4286 76.9574 87.7726 76.9574 86.963C76.9574 86.1535 76.3014 85.4975 75.4921 85.4975Z" fill="#15BBCC"/>
<path d="M82.1348 0H5.86779C2.92087 0 0.523438 2.39744 0.523438 5.34435V64.771C0.523438 65.5806 1.17961 66.2366 1.98898 66.2366C2.79835 66.2366 3.45453 65.5806 3.45453 64.771V11.3885H84.548V98.5345C84.548 99.344 85.204 100 86.0135 100C86.8231 100 87.4791 99.344 87.4791 98.5345V5.34435C87.4791 2.39744 85.0817 0 82.1348 0V0ZM3.45472 8.45737V5.34435C3.45472 4.01364 4.53727 2.93109 5.86799 2.93109H82.1348C83.4657 2.93109 84.5482 4.01364 84.5482 5.34435V8.45756H3.45472V8.45737Z" fill="#15BBCC"/>
<path d="M1.98898 69.5515C1.17961 69.5515 0.523438 70.2074 0.523438 71.017V98.5347C0.523438 99.3442 1.17961 100 1.98898 100C2.79835 100 3.45453 99.3442 3.45453 98.5347V71.017C3.45453 70.2074 2.79835 69.5515 1.98898 69.5515Z" fill="#15BBCC"/>
</svg>
