<svg width="79" height="72" viewBox="0 0 79 72" fill="none" xmlns="http://www.w3.org/2000/svg">
<path d="M18.8642 56.1717C18.5443 55.6202 17.8357 55.4317 17.2816 55.7498L14.0728 57.593V53.9063C14.0728 53.2695 13.554 52.7535 12.9141 52.7535C12.2743 52.7535 11.7555 53.2695 11.7555 53.9063V57.593L8.5467 55.7498C7.99241 55.4316 7.28395 55.6202 6.96401 56.1717C6.64407 56.723 6.83393 57.4281 7.38807 57.7464L10.5969 59.5897L7.38807 61.433C6.83393 61.7513 6.64407 62.4564 6.96401 63.0077C7.17859 63.3775 7.56804 63.5843 7.96847 63.5843C8.16497 63.5843 8.36426 63.5345 8.5467 63.4296L11.7555 61.5864V65.2729C11.7555 65.9097 12.2743 66.4257 12.9141 66.4257C13.554 66.4257 14.0728 65.9097 14.0728 65.2729V61.5864L17.2816 63.4296C17.464 63.5345 17.6633 63.5843 17.8598 63.5843C18.2602 63.5843 18.6497 63.3775 18.8642 63.0077C19.1842 62.4564 18.9943 61.7513 18.4402 61.433L15.2314 59.5897L18.4402 57.7464C18.9943 57.4281 19.1842 56.723 18.8642 56.1717Z" fill="#15BBCC"/>
<path d="M54.3135 56.1717C53.9935 55.6202 53.2851 55.4317 52.7308 55.7498L49.522 57.593V53.9063C49.522 53.2695 49.0032 52.7535 48.3633 52.7535C47.7235 52.7535 47.2047 53.2695 47.2047 53.9063V57.593L43.9959 55.7498C43.4416 55.4316 42.7332 55.6202 42.4132 56.1717C42.0933 56.723 42.2832 57.4281 42.8373 57.7464L46.0461 59.5897L42.8373 61.433C42.2832 61.7513 42.0933 62.4564 42.4132 63.0077C42.6278 63.3775 43.0173 63.5843 43.4177 63.5843C43.6142 63.5843 43.8135 63.5345 43.9959 63.4296L47.2047 61.5864V65.2729C47.2047 65.9097 47.7235 66.4257 48.3633 66.4257C49.0032 66.4257 49.522 65.9097 49.522 65.2729V61.5864L52.7308 63.4296C52.9132 63.5345 53.1125 63.5843 53.309 63.5843C53.7094 63.5843 54.0989 63.3775 54.3135 63.0077C54.6334 62.4564 54.4435 61.7513 53.8894 61.433L50.6806 59.5897L53.8894 57.7464C54.4435 57.4281 54.6334 56.723 54.3135 56.1717Z" fill="#15BBCC"/>
<path d="M36.5869 56.1717C36.267 55.6202 35.5583 55.4317 35.0042 55.7498L31.7954 57.593V53.9063C31.7954 53.2695 31.2767 52.7535 30.6368 52.7535C29.9969 52.7535 29.4782 53.2695 29.4782 53.9063V57.593L26.2694 55.7498C25.7151 55.4316 25.0066 55.6202 24.6867 56.1717C24.3667 56.723 24.5566 57.4281 25.1107 57.7464L28.3195 59.5897L25.1107 61.433C24.5566 61.7513 24.3667 62.4564 24.6867 63.0077C24.9012 63.3775 25.2907 63.5843 25.6911 63.5843C25.8876 63.5843 26.0869 63.5345 26.2694 63.4296L29.4782 61.5864V65.2729C29.4782 65.9097 29.9969 66.4257 30.6368 66.4257C31.2767 66.4257 31.7954 65.9097 31.7954 65.2729V61.5864L35.0042 63.4296C35.1867 63.5345 35.3859 63.5843 35.5824 63.5843C35.9829 63.5843 36.3723 63.3775 36.5869 63.0077C36.9068 62.4564 36.717 61.7513 36.1628 61.433L32.9541 59.5897L36.1628 57.7464C36.717 57.4281 36.9068 56.723 36.5869 56.1717Z" fill="#15BBCC"/>
<path d="M64.9274 65.2731C64.9274 65.9099 65.4461 66.4259 66.086 66.4259C66.7259 66.4259 67.2446 65.9099 67.2446 65.2731V61.5865L70.4534 63.4298C70.6359 63.5346 70.8352 63.5844 71.0317 63.5844C71.4321 63.5844 71.8215 63.3777 72.0361 63.0079C72.3561 62.4565 72.1662 61.7515 71.6121 61.4331L68.4033 59.5899L71.6121 57.7466C72.1662 57.4283 72.3561 56.7232 72.0361 56.1719C71.716 55.6203 71.0076 55.4319 70.4534 55.7499L67.2446 57.5932V53.9063C67.2446 53.2695 66.7259 52.7535 66.086 52.7535C65.4461 52.7535 64.9274 53.2695 64.9274 53.9063V57.593L61.7186 55.7498C61.1644 55.4316 60.4558 55.6202 60.1359 56.1717C59.8159 56.723 60.0058 57.4281 60.5599 57.7464L63.7687 59.5897L60.5599 61.433C60.0058 61.7513 59.8159 62.4564 60.1359 63.0077C60.3505 63.3775 60.7399 63.5843 61.1403 63.5843C61.3368 63.5843 61.5361 63.5345 61.7186 63.4296L64.9274 61.5864V65.2731Z" fill="#15BBCC"/>
<path d="M74.1015 45.882H4.8987C2.19754 45.882 0 48.0685 0 50.756V67.1259C0 69.8135 2.19754 72 4.8987 72H58.979C59.6189 72 60.1377 71.484 60.1377 70.8472C60.1377 70.2104 59.6189 69.6944 58.979 69.6944H4.8987C3.47528 69.6944 2.31727 68.5422 2.31727 67.1259V50.756C2.31727 49.3398 3.47528 48.1876 4.8987 48.1876H74.1015C75.5249 48.1876 76.6829 49.3398 76.6829 50.756V67.1259C76.6829 68.5422 75.5249 69.6944 74.1015 69.6944H64.386C63.7461 69.6944 63.2273 70.2104 63.2273 70.8472C63.2273 71.484 63.7461 72 64.386 72H74.1015C76.8027 72 79.0002 69.8135 79.0002 67.1259V50.756C79.0002 48.0685 76.8027 45.882 74.1015 45.882Z" fill="#15BBCC"/>
<path d="M6.84375 7.58567C6.84375 8.22248 7.36251 8.73848 8.00238 8.73848H10.0783V22.6427C10.0783 23.2796 10.5971 23.7956 11.237 23.7956C11.8769 23.7956 12.3956 23.2796 12.3956 22.6427V7.58567C12.3956 6.94886 11.8769 6.43286 11.237 6.43286H8.00238C7.36251 6.43286 6.84375 6.94886 6.84375 7.58567Z" fill="#15BBCC"/>
<path d="M49.3621 8.53275C49.2802 7.55456 48.7054 6.76158 47.8977 6.51257C47.5168 6.39483 46.5302 6.24497 45.599 7.38164C44.7459 8.42301 40.4693 16.1106 39.6208 17.641C39.4227 17.9981 39.429 18.4328 39.6374 18.7842C39.8458 19.1352 40.2253 19.3509 40.6351 19.3509H47.0366C47.0283 20.514 47.0195 21.6354 47.0108 22.6321C47.0053 23.2687 47.5195 23.7892 48.1594 23.7947H48.1696C48.8047 23.7947 49.3225 23.2852 49.3279 22.6517C49.3313 22.2609 49.3421 20.9859 49.3539 19.3507H50.1381C50.7779 19.3507 51.2967 18.8347 51.2967 18.1979C51.2967 17.5611 50.7779 17.0451 50.1381 17.0451H49.3693C49.3924 13.3269 49.4073 9.07504 49.3621 8.53275ZM47.0519 17.0451H42.6025C44.2221 14.152 46.2213 10.6439 47.0677 9.31651C47.0828 10.6267 47.0717 13.7865 47.0519 17.0451Z" fill="#15BBCC"/>
<path d="M24.408 12.1346C24.4168 12.0968 24.4237 12.0586 24.4285 12.0202L24.5033 11.4377C24.5096 11.3892 24.5127 11.3404 24.5127 11.2916C24.5127 8.5315 22.2558 6.28613 19.4819 6.28613C17.0832 6.28613 15.0071 7.98384 14.5454 10.3228C14.4221 10.9475 14.8312 11.5535 15.459 11.6762C16.0871 11.7989 16.6958 11.3918 16.8192 10.7672C17.0681 9.50678 18.1878 8.59191 19.4819 8.59191C20.9557 8.59191 22.159 9.767 22.1947 11.2249L22.138 11.6674C21.9367 12.4849 21.4602 13.4316 20.7213 14.4821C18.3176 17.8992 16.8826 19.7689 16.1117 20.7733C15.1848 21.9808 14.905 22.3454 15.1132 23.0189C15.2314 23.4015 15.5246 23.6957 15.9176 23.8262C16.0704 23.8768 16.279 23.9461 19.1847 23.9461C20.3248 23.9461 21.8804 23.9355 24.0103 23.9087C24.6502 23.9008 25.1623 23.3783 25.1543 22.7415C25.1462 22.1099 24.6292 21.6033 23.9959 21.6033C23.991 21.6033 23.9861 21.6033 23.9811 21.6034C21.9875 21.6282 19.8519 21.6425 18.3638 21.6368C19.206 20.5336 20.5633 18.7277 22.6198 15.8043C23.5456 14.4874 24.1473 13.2529 24.408 12.1346Z" fill="#15BBCC"/>
<path d="M32.3161 21.6678C30.9698 21.6678 29.8144 20.6696 29.6287 19.3457C29.6112 19.2215 29.6024 19.0946 29.6024 18.9679C29.6024 18.3311 29.0837 17.8151 28.4438 17.8151C27.8039 17.8151 27.2852 18.3311 27.2852 18.9679C27.2852 19.2009 27.3015 19.4353 27.3337 19.6645C27.6782 22.1209 29.8201 23.9734 32.3161 23.9734C35.0902 23.9734 37.347 21.728 37.347 18.9679C37.347 17.4199 36.637 16.0339 35.5241 15.1151C36.637 14.1962 37.347 12.8102 37.347 11.2622C37.347 8.50208 35.0902 6.25671 32.3161 6.25671C29.9174 6.25671 27.8413 7.95442 27.3795 10.2934C27.2563 10.9181 27.6653 11.5241 28.2932 11.6468C28.9213 11.7691 29.5301 11.3624 29.6534 10.7378C29.9021 9.47736 31.022 8.56249 32.3161 8.56249C33.8124 8.56249 35.0298 9.77371 35.0298 11.2624C35.0298 12.751 33.8124 13.9622 32.3161 13.9622C31.6762 13.9622 31.1575 14.4782 31.1575 15.1151C31.1575 15.7519 31.6762 16.2679 32.3161 16.2679C33.8124 16.2679 35.0298 17.4791 35.0298 18.9679C35.0298 20.4566 33.8124 21.6678 32.3161 21.6678Z" fill="#15BBCC"/>
<path d="M5.70219 29.8195H40.7176C41.1137 29.8195 41.4947 29.9855 41.7624 30.2746L52.834 42.2345C53.3334 42.7745 54.0173 43.0636 54.7205 43.0634C55.0357 43.0634 55.3547 43.0053 55.6627 42.8859C56.6582 42.4995 57.3015 41.5628 57.3015 40.4993V4.84195C57.3015 2.1722 55.1185 0.000153623 52.4352 0.000153623H14.9265C14.2866 0.000153623 13.7678 0.516151 13.7678 1.15296C13.7678 1.78978 14.2866 2.30577 14.9265 2.30577H52.4352C53.8407 2.30577 54.9842 3.44336 54.9842 4.84195V40.499C54.9842 40.6152 54.9292 40.6956 54.8205 40.7378C54.7127 40.7798 54.6176 40.7581 54.5387 40.6726L43.4667 28.7123C42.7613 27.9506 41.7593 27.5137 40.7176 27.5137H5.70219C4.2967 27.5137 3.1532 26.376 3.1532 24.9775V4.8418C3.1532 3.44321 4.2967 2.30562 5.70219 2.30562H9.5195C10.1594 2.30562 10.6781 1.78962 10.6781 1.15281C10.6781 0.515997 10.1594 0 9.5195 0H5.70219C3.01896 0 0.835938 2.17205 0.835938 4.8418V24.9775C0.835938 27.6474 3.01896 29.8195 5.70219 29.8195Z" fill="#15BBCC"/>
</svg>
