<svg width="76" height="78" viewBox="0 0 76 78" fill="none" xmlns="http://www.w3.org/2000/svg">
<g clip-path="url(#clip0)">
<path d="M67.1642 7.74454H55.041V6.49008C55.041 2.91119 52.2044 0 48.7173 0H20.5229C19.8996 0 19.3945 0.518921 19.3945 1.15865C19.3945 1.79837 19.8996 2.3167 20.5229 2.3167H48.7173C50.9595 2.3167 52.7837 4.18886 52.7837 6.49008V7.74454H39.5693C36.7861 7.74454 34.4273 9.64288 33.6561 12.2434H12.0793C9.31934 12.2434 7.07422 14.5482 7.07422 17.3809V61.319C7.07422 64.1504 9.31934 66.4546 12.0793 66.4546H45.6338C48.3938 66.4546 50.6395 64.1504 50.6395 61.319V38.5793L51.4257 37.8622H52.7837V62.8823C52.7837 63.522 53.2893 64.0409 53.9126 64.0409C54.5359 64.0409 55.0416 63.522 55.0416 62.8823V37.8616H67.1642C70.5718 37.8616 73.344 35.0164 73.344 31.5197V14.087C73.3434 10.5897 70.5713 7.74454 67.1642 7.74454ZM48.3822 61.319C48.3822 62.8733 47.1494 64.1379 45.6338 64.1379H12.0793C10.5642 64.1379 9.33151 62.8733 9.33151 61.319V17.3809C9.33151 15.8259 10.5642 14.5607 12.0793 14.5607H33.3894V31.5197C33.3894 34.6213 35.5702 37.21 38.4403 37.7557V47.1284C38.4403 47.5848 38.7013 47.9984 39.1066 48.1853C39.255 48.2537 39.4127 48.287 39.5687 48.287C39.8401 48.287 40.1079 48.1864 40.319 47.9942L48.3822 40.6383V61.319ZM71.0862 31.5197C71.0862 33.7394 69.3269 35.5449 67.1642 35.5449H50.9961C50.7195 35.5449 50.4528 35.649 50.2463 35.8377L40.6976 44.5492V36.7035C40.6976 36.0638 40.192 35.5449 39.5687 35.5449C37.4059 35.5449 35.6467 33.7394 35.6467 31.5197V14.087C35.6467 11.8673 37.4059 10.0612 39.5687 10.0612H67.1636C69.3264 10.0612 71.0862 11.8673 71.0862 14.087V31.5197Z" fill="#15BBCC"/>
<path d="M53.9124 66.3582C53.2891 66.3582 52.7834 66.8765 52.7834 67.5163V71.5081C52.7834 73.8105 50.9593 75.6833 48.7171 75.6833H8.99554C6.75333 75.6833 4.92917 73.8105 4.92917 71.5081V6.49008C4.92917 4.18886 6.75333 2.3167 8.99554 2.3167H16.0075C16.6308 2.3167 17.1364 1.79837 17.1364 1.15865C17.1364 0.518921 16.6308 0 16.0075 0H8.99554C5.50842 0 2.67188 2.91119 2.67188 6.49008V71.5081C2.67188 75.0876 5.50842 78 8.99554 78H48.7171C52.2042 78 55.0413 75.0876 55.0413 71.5081V67.5163C55.0413 66.8765 54.5357 66.3582 53.9124 66.3582Z" fill="#15BBCC"/>
<path d="M32.2406 71.3201C32.2406 69.4039 30.722 67.8447 28.855 67.8447C26.9879 67.8447 25.4688 69.4039 25.4688 71.3201C25.4688 73.2363 26.9873 74.7954 28.855 74.7954C30.722 74.7954 32.2406 73.2363 32.2406 71.3201ZM27.726 71.3201C27.726 70.6815 28.2322 70.162 28.855 70.162C29.4771 70.162 29.9833 70.6815 29.9833 71.3201C29.9833 71.9586 29.4771 72.4787 28.855 72.4787C28.2322 72.4787 27.726 71.9592 27.726 71.3201Z" fill="#15BBCC"/>
<path d="M34.7259 7.84221C35.3498 7.84221 35.8548 7.32388 35.8548 6.68416C35.8548 6.04443 35.3498 5.52551 34.7259 5.52551H22.9883C22.365 5.52551 21.8594 6.04443 21.8594 6.68416C21.8594 7.32388 22.365 7.84221 22.9883 7.84221H34.7259Z" fill="#15BBCC"/>
<path d="M18.6991 7.84214C19.2505 7.84214 19.7364 7.41545 19.8158 6.85488C19.8854 6.36452 19.6378 5.87297 19.2064 5.651C18.775 5.42903 18.2439 5.51711 17.9012 5.86524C17.2002 6.57756 17.7191 7.84214 18.6991 7.84214Z" fill="#15BBCC"/>
<path d="M65.2187 17.0114H62.0586C61.4353 17.0114 60.9297 17.5297 60.9297 18.17C60.9297 18.8097 61.4353 19.328 62.0586 19.328H65.2187C65.842 19.328 66.3471 18.8097 66.3471 18.17C66.3471 17.5297 65.842 17.0114 65.2187 17.0114Z" fill="#15BBCC"/>
<path d="M41.5157 19.328H57.5423C58.1656 19.328 58.6712 18.8097 58.6712 18.17C58.6712 17.5297 58.1656 17.0114 57.5423 17.0114H41.5157C40.8923 17.0114 40.3867 17.5297 40.3867 18.17C40.3867 18.8097 40.8923 19.328 41.5157 19.328Z" fill="#15BBCC"/>
<path d="M65.2175 22.3398H41.5157C40.8923 22.3398 40.3867 22.8582 40.3867 23.4979C40.3867 24.1376 40.8923 24.6565 41.5157 24.6565H65.2175C65.8409 24.6565 66.3459 24.1376 66.3459 23.4979C66.3459 22.8582 65.8409 22.3398 65.2175 22.3398Z" fill="#15BBCC"/>
<path d="M65.2161 27.6682H51.8985C51.2751 27.6682 50.7695 28.1871 50.7695 28.8269C50.7695 29.4666 51.2751 29.9849 51.8985 29.9849H65.2161C65.8394 29.9849 66.3445 29.4666 66.3445 28.8269C66.3445 28.1871 65.8394 27.6682 65.2161 27.6682Z" fill="#15BBCC"/>
<path d="M47.3847 27.6682H41.5157C40.8923 27.6682 40.3867 28.1871 40.3867 28.8269C40.3867 29.4666 40.8923 29.9849 41.5157 29.9849H47.3847C48.0081 29.9849 48.5131 29.4666 48.5131 28.8269C48.5131 28.1871 48.0081 27.6682 47.3847 27.6682Z" fill="#15BBCC"/>
</g>
<defs>
<clipPath id="clip0">
<rect width="76" height="78" fill="white"/>
</clipPath>
</defs>
</svg>
