<svg width="34" height="38" viewBox="0 0 34 38" fill="none" xmlns="http://www.w3.org/2000/svg">
<path d="M19.605 22.2582C17.4979 22.2582 15.7832 20.597 15.7832 18.5557C15.7832 16.5144 17.4979 14.8531 19.605 14.8531C21.712 14.8531 23.4267 16.5144 23.4267 18.5557C23.4267 20.597 21.712 22.2582 19.605 22.2582Z" fill="#15BBCC"/>
<path d="M19.6063 14.92C21.6785 14.92 23.3554 16.5474 23.3554 18.5521C23.3554 20.5568 21.6756 22.1842 19.6063 22.1842C17.537 22.1842 15.8572 20.5568 15.8572 18.5521C15.8572 16.5474 17.5341 14.92 19.6063 14.92ZM19.6063 14.7792C18.5659 14.7792 17.5864 15.1705 16.8512 15.8857C16.1159 16.5981 15.709 17.5469 15.709 18.5549C15.709 19.5629 16.113 20.5118 16.8512 21.2241C17.5864 21.9365 18.5659 22.3306 19.6063 22.3306C20.6468 22.3306 21.6262 21.9393 22.3615 21.2241C23.0968 20.5118 23.5037 19.5629 23.5037 18.5549C23.5037 17.5469 23.0997 16.5981 22.3615 15.8857C21.6262 15.1705 20.6468 14.7792 19.6063 14.7792Z" fill="#15BBCC"/>
<path d="M19.6062 27.2051C15.5606 27.2051 12.0091 24.5612 10.9745 20.7771L10.957 20.7095L13.2152 20.1295L13.2327 20.1971C13.997 22.9901 16.6185 24.9414 19.6062 24.9414C23.1577 24.9414 26.1164 22.1455 26.1978 18.7076L26.2007 18.6372L28.5373 18.6907L28.5344 18.7611C28.4792 21.0277 27.5259 23.1506 25.849 24.7386C24.1721 26.3295 21.9545 27.2051 19.6062 27.2051Z" fill="#EB384D"/>
<path d="M26.2717 18.7098L28.463 18.7604C28.4078 21.0101 27.4633 23.1162 25.8009 24.6901C24.1355 26.2668 21.9354 27.1369 19.6075 27.1369C15.5939 27.1369 12.0743 24.5155 11.0455 20.7623L13.1642 20.2189C13.9373 23.043 16.5878 25.0167 19.6104 25.0167C23.1968 25.0111 26.1874 22.1842 26.2717 18.7098ZM26.1322 18.5662L26.1293 18.7069C26.0479 22.1054 23.1212 24.8731 19.6104 24.8731C16.6547 24.8731 14.0622 22.9444 13.3066 20.1795L13.2688 20.0444L13.1293 20.081L11.0106 20.6244L10.8711 20.661L10.9089 20.7961C11.9551 24.6113 15.5328 27.2748 19.6104 27.2748C21.979 27.2748 24.214 26.3907 25.9055 24.7887C27.5941 23.1894 28.556 21.0467 28.6113 18.7604L28.6142 18.6197L28.4689 18.6168L26.2775 18.5662H26.1322Z" fill="#EB384D"/>
<path d="M21.416 29.821L21.4887 29.8097C27.1298 28.9285 31.2858 24.2658 31.3701 18.7247V18.6543L33.7068 18.6881V18.7585C33.6574 21.9852 32.428 25.0992 30.2396 27.5291C28.0744 29.9364 25.0983 31.5385 21.8607 32.0453L21.788 32.0566L21.416 29.821Z" fill="#EB384D"/>
<path d="M31.4402 18.7238L33.6316 18.7548C33.5822 21.9646 32.3586 25.0617 30.1818 27.4803C28.0282 29.8736 25.0667 31.4701 21.8464 31.9741L21.4977 29.8792C27.1766 28.9923 31.3559 24.3015 31.4402 18.7238ZM31.2978 18.583L31.2949 18.7238C31.2106 24.2339 27.0807 28.8656 21.4744 29.7413L21.332 29.7638L21.3553 29.9018L21.704 31.9966L21.7273 32.1345L21.8697 32.112C25.1248 31.6052 28.1154 29.9919 30.2922 27.5733C32.4894 25.1293 33.7275 21.9983 33.7769 18.7576L33.7798 18.6168L33.6345 18.614L31.4431 18.583H31.2978Z" fill="#EB384D"/>
<path d="M17.2831 32.0332C14.0252 31.5095 11.0433 29.8764 8.88684 27.4325C6.70421 24.9632 5.50391 21.8097 5.50391 18.5521C5.50391 17.0204 5.76256 15.5168 6.27698 14.0837L6.30023 14.0161L8.50902 14.7566L8.48577 14.8242C8.05854 16.0208 7.84348 17.2738 7.84348 18.5549C7.84348 24.1551 11.9762 28.8853 17.6697 29.8032L17.7423 29.8145L17.3587 32.0473L17.2831 32.0332Z" fill="#EB384D"/>
<path d="M6.34618 14.1062L8.41546 14.7989C7.98533 16.0011 7.76736 17.2653 7.76736 18.5521C7.76736 24.1889 11.9263 28.9473 17.6546 29.8708L17.2971 31.9656C14.0566 31.4447 11.0922 29.8201 8.94441 27.3874C6.7734 24.9294 5.57891 21.7928 5.57891 18.5549C5.576 17.0288 5.83467 15.5337 6.34618 14.1062ZM6.25608 13.9288L6.20958 14.0612C5.69517 15.5028 5.43359 17.0147 5.43359 18.5521C5.43359 21.8238 6.64262 24.9942 8.83397 27.4775C11.0021 29.9328 13.9985 31.5743 17.2739 32.1036L17.4163 32.1261L17.4395 31.9881L17.797 29.8933L17.8203 29.7554L17.6779 29.7328C12.0193 28.8234 7.91267 24.1213 7.91267 18.5549C7.91267 17.285 8.12774 16.0377 8.55206 14.8495L8.59856 14.7172L8.46197 14.6722L6.39267 13.9795L6.25608 13.9288Z" fill="#EB384D"/>
<path d="M8.08789 10.6627L8.13149 10.6064C10.3926 7.54861 13.886 5.51011 17.7165 5.01174L17.7892 5.0033L18.1002 7.24734L18.0275 7.25579C14.8335 7.66968 11.9184 9.37312 10.0322 11.9241L9.98863 11.9804L8.08789 10.6627Z" fill="#15BBCC"/>
<path d="M17.7234 5.07943L18.0141 7.18268C14.7997 7.59939 11.8672 9.31128 9.96939 11.8819L8.18782 10.6459C10.4373 7.60221 13.9133 5.57497 17.7234 5.07943ZM17.8484 4.92175L17.7031 4.94146C13.8522 5.44264 10.3414 7.4924 8.06866 10.5642L7.98438 10.6797L8.10354 10.7613L9.88511 11.9974L10.0043 12.079L10.0885 11.9636C11.9631 9.42672 14.8607 7.73454 18.0344 7.32346L18.1797 7.30376L18.1594 7.16297L17.8687 5.05972L17.8484 4.92175Z" fill="#15BBCC"/>
<path d="M19.6126 37.0364C13.9627 37.0364 8.63833 34.6319 4.99962 30.4367L4.95312 30.3832L6.74051 28.9275L6.78701 28.981C9.97814 32.661 14.6544 34.7727 19.6126 34.7727C23.4809 34.7727 27.1138 33.531 30.1189 31.1828L30.1741 31.1377L31.6418 32.9003L31.5866 32.9454C28.2095 35.5836 23.9575 37.0364 19.6126 37.0364Z" fill="#EB384D"/>
<path d="M6.73194 29.0261C9.9376 32.723 14.6342 34.8431 19.6127 34.8431C23.4984 34.8431 27.1458 33.5958 30.1626 31.2363L31.5373 32.8891C28.1747 35.5189 23.9402 36.9661 19.6098 36.9661C13.9832 36.9661 8.67626 34.57 5.05209 30.3917L6.73194 29.0261ZM6.74938 28.8262L6.63894 28.9163L4.962 30.2818L4.85156 30.3719L4.94456 30.4789C8.59488 34.6883 13.9425 37.1041 19.6127 37.1041C23.9751 37.1041 28.2415 35.6456 31.6303 32.9961L31.7436 32.9088L31.6535 32.799L30.2788 31.1462L30.1887 31.0364L30.0754 31.1237C27.0848 33.4635 23.4665 34.6967 19.6156 34.6967C14.6807 34.6967 10.0248 32.5935 6.84819 28.9303L6.74938 28.8262Z" fill="#EB384D"/>
<path d="M2.61601 26.9623C1.23262 24.3438 0.529297 21.5141 0.529297 18.5521C0.529297 15.241 1.44478 11.9918 3.17693 9.15362L3.21471 9.09167L5.22586 10.2433L5.18808 10.3052C3.66809 12.7914 2.86596 15.6436 2.86596 18.5493C2.86596 21.1481 3.48208 23.6315 4.69401 25.929L4.72598 25.991L2.64798 27.0215L2.61601 26.9623Z" fill="#EB384D"/>
<path d="M3.24034 9.19012L5.12654 10.2713C3.60072 12.7688 2.79567 15.6322 2.79567 18.552C2.79567 21.1621 3.41471 23.6567 4.63246 25.9627L2.68232 26.9284C1.30472 24.3184 0.604301 21.5 0.604301 18.5492C0.604301 15.2549 1.51398 12.017 3.24034 9.19012ZM3.18802 8.99866L3.11536 9.11973C1.37738 11.9663 0.458984 15.2296 0.458984 18.552C0.458984 21.5253 1.16231 24.3662 2.55154 26.9932L2.61838 27.1199L2.74917 27.0551L4.69931 26.0894L4.83009 26.0246L4.76325 25.8979C3.55422 23.6117 2.94389 21.1396 2.94389 18.552C2.94389 15.6576 3.74313 12.8194 5.25442 10.3417L5.32708 10.2206L5.2021 10.1502L3.3159 9.06905L3.18802 8.99866Z" fill="#EB384D"/>
<path d="M32.1063 7.75979C30.4468 5.9578 28.3659 4.51339 26.0844 3.58706L26.0176 3.5589L26.9214 1.47253L26.9883 1.50069C29.5865 2.55654 31.9581 4.20086 33.8472 6.25344L33.8966 6.30693L32.1528 7.81329L32.1063 7.75979Z" fill="#15BBCC"/>
<path d="M26.9614 1.56559C29.5044 2.59892 31.8672 4.20663 33.7941 6.30144L32.1579 7.71488C30.4461 5.85376 28.3535 4.43751 26.1098 3.52525L26.9614 1.56559ZM26.8829 1.37976L26.8277 1.50928L25.979 3.46613L25.9238 3.59564L26.0575 3.64914C28.3274 4.57266 30.3995 6.00862 32.0532 7.80498L32.1491 7.90916L32.2567 7.81624L33.8929 6.40281L34.0005 6.30989L33.9046 6.20571C32.9484 5.16675 31.8672 4.22916 30.6931 3.41826C29.5422 2.62426 28.307 1.95696 27.0166 1.43326L26.8829 1.37976Z" fill="#15BBCC"/>
<path d="M32.2465 4.70932L18.7305 17.8036L20.3827 19.4043L33.8988 6.31001L32.2465 4.70932Z" fill="#15BBCC"/>
<path d="M32.2429 4.80916L33.792 6.30988L20.3794 19.3039L18.8304 17.8032L32.2429 4.80916ZM32.2429 4.60925L32.1412 4.7078L18.7287 17.7018L18.627 17.8004L18.7287 17.8989L20.2777 19.3996L20.3794 19.4982L20.4812 19.3996L33.8937 6.40561L33.9954 6.30707L33.8937 6.20852L32.3446 4.7078L32.2429 4.60925Z" fill="#15BBCC"/>
<path d="M11.0293 16.148L11.0496 16.0804C11.5873 14.3319 12.715 12.7608 14.2233 11.6514C15.784 10.5083 17.647 9.90295 19.6087 9.90295C21.3118 9.90295 22.9626 10.3647 24.3867 11.2404L24.4622 11.2882L22.7591 12.9382L22.7126 12.9128C21.7681 12.4229 20.6957 12.1639 19.6116 12.1639C16.7169 12.1639 14.1158 14.0391 13.2904 16.7252L13.2701 16.7928L11.0293 16.148Z" fill="#EB384D"/>
<path d="M19.607 9.96988C21.313 9.96988 22.9464 10.4373 24.3443 11.296L22.7429 12.8474C21.7926 12.3547 20.7201 12.09 19.607 12.09C16.6804 12.09 14.0502 13.9849 13.2161 16.702L11.1177 16.0966C11.6496 14.3622 12.7685 12.8024 14.2652 11.7043C15.8143 10.5724 17.6598 9.96988 19.607 9.96988ZM19.607 9.8291C17.6278 9.8291 15.7503 10.4401 14.178 11.5917C12.6551 12.7095 11.5188 14.2947 10.9782 16.0572L10.9375 16.1924L11.077 16.2318L13.1754 16.8371L13.3149 16.8766L13.3556 16.7414C14.1722 14.0863 16.7443 12.2308 19.607 12.2308C20.6794 12.2308 21.7403 12.487 22.6732 12.9713L22.7691 13.0192L22.8447 12.946L24.446 11.3946L24.5739 11.2707L24.4199 11.1778C22.9871 10.2965 21.3217 9.8291 19.607 9.8291Z" fill="#EB384D"/>
<path d="M26.4489 9.27456C24.8185 8.14269 22.9003 7.43034 20.9008 7.21917L20.8281 7.21073L21.081 4.96106L21.1536 4.96951C23.6763 5.23699 26.0798 6.16051 28.1026 7.64151L28.1694 7.68938L26.4983 9.30835L26.4489 9.27456Z" fill="#EB384D"/>
<path d="M21.1433 5.03987C23.6776 5.30735 26.052 6.23087 28.0545 7.6978L26.488 9.21541C24.8517 8.07791 22.9394 7.36274 20.905 7.14594L21.1433 5.03987ZM21.0154 4.88501L21.0009 5.02579L20.7626 7.13468L20.748 7.27546L20.8934 7.28954C22.8813 7.50071 24.7878 8.20742 26.4066 9.33367L26.5054 9.40406L26.5926 9.31959L28.1591 7.80198L28.2783 7.68654L28.1446 7.58799C26.1131 6.09854 23.6979 5.16939 21.1607 4.9019L21.0154 4.88501Z" fill="#EB384D"/>
<path d="M5.32422 6.29648L5.37363 6.24298C8.98908 2.32084 14.1768 0.071167 19.6029 0.071167C21.7216 0.071167 23.8142 0.411856 25.8224 1.08479L25.8951 1.11013L25.0377 3.2162L24.9709 3.19368C23.2358 2.62492 21.431 2.33492 19.6058 2.33492C14.8424 2.33492 10.2911 4.30866 7.11742 7.75215L7.068 7.80564L5.32422 6.29648Z" fill="#EB384D"/>
<path d="M19.6011 0.14078C21.7315 0.14078 23.8211 0.489916 25.7945 1.14877L24.9894 3.12533C23.2689 2.55939 21.4495 2.26375 19.6011 2.26375C14.8173 2.26375 10.2457 4.24594 7.0575 7.70351L5.42414 6.29007C9.02797 2.382 14.1954 0.14078 19.6011 0.14078ZM19.6011 0C14.1547 0 8.9466 2.25812 5.31661 6.19716L5.2207 6.30133L5.32824 6.39425L6.96159 7.80768L7.06912 7.9006L7.16503 7.79642C10.3271 4.36982 14.858 2.40453 19.6011 2.40453C21.4205 2.40453 23.2166 2.69172 24.9429 3.26048L25.0737 3.30271L25.1231 3.17882L25.9282 1.20227L25.9834 1.0643L25.841 1.01643C23.8269 0.340689 21.7285 0 19.6011 0Z" fill="#EB384D"/>
</svg>
