<svg width="140" height="141" viewBox="0 0 140 141" fill="none" xmlns="http://www.w3.org/2000/svg">
                                    <g clip-path="url(#clip0)">
                                        <path opacity="0.4" d="M69.9625 140.163C108.602 140.163 139.925 108.84 139.925 70.2008C139.925 31.5616 108.602 0.238281 69.9625 0.238281C31.3233 0.238281 0 31.5616 0 70.2008C0 108.84 31.3233 140.163 69.9625 140.163Z" fill="#ECEBED"/>
                                        <path d="M86.2922 110.126H22.9963C20.2247 110.126 17.9775 107.879 17.9775 105.107V67.5791C17.9775 64.8076 20.2247 62.5604 22.9963 62.5604H86.2922C89.0637 62.5604 91.3109 64.8076 91.3109 67.5791V105.182C91.3109 107.954 89.0637 110.126 86.2922 110.126Z" fill="white"/>
                                        <path opacity="0.15" d="M29.1386 108.553H22.7715C20 108.553 17.7528 106.306 17.7528 103.609V66.0061C17.7528 63.2345 20 60.9873 22.7715 60.9873H29.1386C26.367 60.9873 24.1198 63.2345 24.1198 66.0061V103.609C24.1198 106.306 26.367 108.553 29.1386 108.553Z" fill="#00BBCC"/>
                                        <path d="M86.2922 110.126H22.9963C20.2247 110.126 17.9775 107.879 17.9775 105.107V67.5791C17.9775 64.8076 20.2247 62.5604 22.9963 62.5604H86.2922C89.0637 62.5604 91.3109 64.8076 91.3109 67.5791V105.182C91.3109 107.954 89.0637 110.126 86.2922 110.126Z" stroke="#00BBCC" stroke-width="4.4849" stroke-miterlimit="10" stroke-linejoin="round"/>
                                        <path d="M81.648 74.9199H29.5131" stroke="#FF536D" stroke-width="4.4849" stroke-miterlimit="10" stroke-linecap="round"/>
                                        <path d="M81.648 99.4143H49.1386" stroke="#FF536D" stroke-width="4.4849" stroke-miterlimit="10" stroke-linecap="round"/>
                                        <path d="M81.648 87.8038H29.3633" stroke="#FF536D" stroke-width="4.4849" stroke-miterlimit="10" stroke-linecap="round"/>
                                        <path d="M122.247 38.5154V80.3881C122.247 84.0585 119.251 87.1297 115.506 87.1297H53.0337C49.3633 87.1297 46.2921 84.1334 46.2921 80.3881V38.5154C46.2921 34.845 49.2884 31.7739 53.0337 31.7739H115.506C119.176 31.7739 122.247 34.845 122.247 38.5154Z" fill="white"/>
                                        <path d="M122.247 68.5529V80.3881C122.247 84.0585 119.251 87.1297 115.506 87.1297H75.2809L73.558 85.4068C70.9363 82.7851 70.9363 78.5154 73.558 75.8937L76.4794 72.9724L96.779 52.6727C99.4007 50.051 103.67 50.051 106.292 52.6727L122.247 68.5529Z" fill="white" stroke="#00BBCC" stroke-width="4.4849" stroke-miterlimit="10" stroke-linejoin="round"/>
                                        <path opacity="0.15" d="M59.4007 87.0548H53.0337C49.3633 87.0548 46.2921 84.0585 46.2921 80.3132V38.5154C46.2921 34.845 49.2884 31.7739 53.0337 31.7739H59.4007C55.7303 31.7739 52.6592 34.7701 52.6592 38.5154V80.3881C52.6592 84.0585 55.7303 87.0548 59.4007 87.0548Z" fill="#00BBCC"/>
                                        <path d="M90.6367 87.0548H53.0337C49.3633 87.0548 46.2921 84.0585 46.2921 80.3132V77.0173L58.7266 64.6578C61.3483 62.036 65.618 62.036 68.2397 64.6578L76.4794 72.8975L90.6367 87.0548Z" fill="white" stroke="#00BBCC" stroke-width="4.4849" stroke-miterlimit="10" stroke-linejoin="round"/>
                                        <path opacity="0.1" d="M72.6592 69.0772C70.1872 67.9536 67.1161 68.4031 65.0936 70.4255L52.6592 82.86V86.1559C52.6592 86.4555 52.6592 86.83 52.7341 87.1297C49.2135 86.9799 46.2921 83.9836 46.2921 80.3881V77.0922L58.7266 64.6578C61.3483 62.036 65.618 62.036 68.2397 64.6578L72.6592 69.0772Z" fill="#00BBCC"/>
                                        <path opacity="0.1" d="M110.037 58.6653C107.566 57.5417 104.494 57.9911 102.472 60.0136L84.4944 77.9911L78.1273 72.2233L96.1049 54.2458C98.7266 51.624 102.996 51.624 105.618 54.2458L110.037 58.6653Z" fill="#00BBCC"/>
                                        <path d="M71.3108 54.1709C74.9927 54.1709 77.9775 51.1861 77.9775 47.5042C77.9775 43.8223 74.9927 40.8375 71.3108 40.8375C67.6289 40.8375 64.6442 43.8223 64.6442 47.5042C64.6442 51.1861 67.6289 54.1709 71.3108 54.1709Z" fill="#FF536D"/>
                                        <path d="M122.247 38.5154V80.3881C122.247 84.0585 119.251 87.1297 115.506 87.1297H53.0337C49.3633 87.1297 46.2921 84.1334 46.2921 80.3881V38.5154C46.2921 34.845 49.2884 31.7739 53.0337 31.7739H115.506C119.176 31.7739 122.247 34.845 122.247 38.5154Z" stroke="#00BBCC" stroke-width="4.4849" stroke-miterlimit="10" stroke-linejoin="round"/>
                                    </g>
                                    <defs>
                                        <clipPath id="clip0">
                                            <rect width="140" height="140" fill="white" transform="translate(0 0.238281)"/>
                                        </clipPath>
                                    </defs>
                                </svg>
                            