 <svg width="140" height="141" viewBox="0 0 140 141" fill="none" xmlns="http://www.w3.org/2000/svg">
                                    <g clip-path="url(#clip0)">
                                        <path opacity="0.4" d="M69.9625 140.163C108.602 140.163 139.925 108.84 139.925 70.2008C139.925 31.5616 108.602 0.238281 69.9625 0.238281C31.3233 0.238281 0 31.5616 0 70.2008C0 108.84 31.3233 140.163 69.9625 140.163Z" fill="#ECEBED"/>
                                        <path d="M82.2472 5.03229C78.8764 7.72892 71.0112 14.6952 69.0637 25.9312C67.4157 35.2196 69.588 48.4031 75.3558 49.9012C76.4794 50.2008 77.603 49.9761 78.5019 49.6765" stroke="#FF536D" stroke-width="4.4849" stroke-miterlimit="10" stroke-linecap="round"/>
                                        <path d="M33.8577 108.927C32.809 112.148 34.5318 115.594 37.7528 116.643L74.382 128.553C77.603 129.602 81.0487 127.879 82.0974 124.658L100.899 68.0285C101.273 66.4555 101.124 64.8076 100.375 63.3844L87.7903 38.6653C86.2921 35.669 82.6217 34.4705 79.6255 36.0435L54.9064 48.6278C53.4082 49.3769 52.3596 50.5754 51.985 52.1484L33.8577 108.927Z" fill="white" stroke="#00BBCC" stroke-width="4.4849" stroke-miterlimit="10" stroke-linejoin="round"/>
                                        <path opacity="0.15" d="M80.5993 123.684L79.8502 125.931C78.8015 129.227 75.4307 130.875 72.1348 129.826L35.5056 117.916C32.2097 116.868 30.5618 113.497 31.6105 110.201L49.7378 53.4218C50.1124 51.8488 51.236 50.6503 52.6592 49.9012L55.7303 48.3282L37.9775 103.759C36.9288 107.055 38.6517 110.426 41.8727 111.474L78.5019 123.384C79.3258 123.609 79.9251 123.684 80.5993 123.684Z" fill="#00BBCC"/>
                                        <path opacity="0.3" d="M80.6742 53.7964C83.7769 53.7964 86.2921 51.2811 86.2921 48.1784C86.2921 45.0756 83.7769 42.5604 80.6742 42.5604C77.5714 42.5604 75.0562 45.0756 75.0562 48.1784C75.0562 51.2811 77.5714 53.7964 80.6742 53.7964Z" fill="#9DE0DE"/>
                                        <path d="M59.6255 90.3506L69.6629 59.7888" stroke="#00BBCC" stroke-width="4.4849" stroke-miterlimit="10" stroke-linecap="round" stroke-linejoin="round"/>
                                        <path d="M71.236 94.6952L81.2734 64.2083" stroke="#00BBCC" stroke-width="4.4849" stroke-miterlimit="10" stroke-linecap="round" stroke-linejoin="round"/>
                                        <path d="M76.1049 111.025C75.6554 113.047 75.5805 113.047 73.633 112.523C71.985 112.073 72.1348 112.073 71.4607 113.572C70.8614 114.845 70.2622 116.044 69.2884 117.017C68.9139 117.467 68.4644 117.542 67.9401 117.242C67.1161 116.718 66.2172 116.268 65.3933 115.744C64.794 115.369 64.794 115.145 65.2434 114.62C66.367 113.272 67.3408 111.774 67.7903 110.051C68.015 109.302 68.0899 108.403 68.015 107.579C67.7154 105.632 65.6929 104.957 64.1948 106.231C63.5955 106.755 63.1461 107.354 62.6217 107.879C61.4981 109.152 60.5993 110.575 59.4008 111.774C57.8277 113.347 55.8802 113.946 53.633 113.422C50.9363 112.823 48.839 110.65 48.4644 107.879C48.3895 107.429 48.3146 106.905 48.3146 106.456C48.2397 106.006 48.0899 105.706 47.5655 105.557C46.9663 105.407 46.2921 105.257 45.6929 105.032C44.9438 104.808 44.794 104.583 44.9438 103.759C45.0936 103.16 45.2434 102.485 45.3933 101.886C45.618 101.212 45.9176 100.987 46.6667 101.137C47.191 101.212 47.7154 101.362 48.2397 101.512C48.764 101.662 49.0637 101.437 49.3633 100.912C49.8876 99.8637 50.4869 98.8151 51.0861 97.7664C51.5356 97.0173 51.985 96.9424 52.7341 97.3918C53.4831 97.8413 54.1573 98.2158 54.9064 98.6652C55.6554 99.1147 55.6554 99.3394 55.1311 100.014C54.0075 101.437 53.1835 103.085 52.9588 104.882C52.8839 105.482 52.9588 106.156 53.2584 106.68C53.7079 107.654 54.8315 107.954 55.7303 107.354C56.5543 106.755 57.2285 106.006 57.9026 105.257C58.7266 104.283 59.4757 103.235 60.2996 102.261C62.4719 99.7139 65.9176 98.9649 68.839 100.388C71.3109 101.587 72.5094 103.684 72.809 106.381C72.9588 107.729 73.0337 107.879 74.382 108.178C74.9064 108.328 75.4307 108.478 75.9551 108.628C76.4794 108.778 76.6292 109.077 76.5543 109.602C76.3296 110.201 76.2547 110.575 76.1049 111.025Z" fill="#FF536D"/>
                                        <path d="M103.97 13.6465C104.345 15.1446 107.266 28.1784 98.427 39.0398C91.2359 47.8787 81.1985 49.227 79.1011 49.4518" stroke="#FF536D" stroke-width="4.4849" stroke-miterlimit="10" stroke-linecap="round"/>
                                    </g>
                                    <defs>
                                        <clipPath id="clip0">
                                            <rect width="140" height="140" fill="white" transform="translate(0 0.238281)"/>
                                        </clipPath>
                                    </defs>
                                </svg>
