<svg width="143" height="141" viewBox="0 0 143 141" fill="none" xmlns="http://www.w3.org/2000/svg">
                                    <g clip-path="url(#clip0)">
                                        <path opacity="0.4" d="M70.8614 140.163C109.501 140.163 140.824 108.84 140.824 70.2008C140.824 31.5616 109.501 0.238281 70.8614 0.238281C32.2222 0.238281 0.89888 31.5616 0.89888 70.2008C0.89888 108.84 32.2222 140.163 70.8614 140.163Z" fill="#ECEBED"/>
                                        <path d="M126.966 79.5641V102.785C126.966 111.699 119.775 118.89 110.861 118.89H42.6966L32.0599 129.527L21.4232 118.89H17.2285C8.31461 118.89 1.1236 111.699 1.1236 102.785V79.5641C1.1236 70.6503 8.31461 63.4593 17.2285 63.4593H110.861C119.775 63.5342 126.966 70.7252 126.966 79.5641Z" fill="white"/>
                                        <path opacity="0.15" d="M30.0375 113.197L37.5281 120.688L32.0599 126.156L21.4232 115.519H17.2285C8.31461 115.519 1.1236 108.328 1.1236 99.4143V76.1933C1.1236 67.2795 8.31461 60.0885 17.2285 60.0885H17.603C12.8839 62.86 9.73783 68.0285 9.73783 73.8712V97.0922C9.73783 105.931 16.9288 113.197 25.8427 113.197H30.0375Z" fill="#00BBCC"/>
                                        <path d="M127.491 78.4405V101.662C127.491 110.575 120.3 117.766 111.386 117.766H43.221L32.5843 128.403L21.9476 117.766H17.8277C8.91385 117.766 1.72284 110.575 1.72284 101.662V78.4405C1.64793 69.6016 8.83895 62.4106 17.7528 62.4106H111.386C120.225 62.4106 127.491 69.6016 127.491 78.4405Z" stroke="#00BBCC" stroke-width="4.4849" stroke-miterlimit="10" stroke-linejoin="round"/>
                                        <path d="M113.408 88.6278H59.3258" stroke="#00BBCC" stroke-width="4.4849" stroke-miterlimit="10" stroke-linecap="round" stroke-linejoin="round"/>
                                        <path d="M22.5468 97.242L24.1948 100.538L27.8652 101.062C28.5393 101.137 28.764 101.961 28.3146 102.411L25.6929 104.957L26.2921 108.553C26.367 109.227 25.6929 109.677 25.1685 109.377L21.9476 107.654L18.7266 109.377C18.1273 109.677 17.4532 109.227 17.603 108.553L18.2022 104.957L15.5805 102.411C15.1311 101.961 15.3558 101.137 16.03 101.062L19.7004 100.538L21.3483 97.242C21.4232 96.6428 22.2472 96.6428 22.5468 97.242Z" fill="#FF536D"/>
                                        <path d="M38.9513 97.242L40.5992 100.538L44.2697 101.062C44.9438 101.137 45.1685 101.961 44.7191 102.411L42.0974 104.957L42.6966 108.553C42.7715 109.227 42.0974 109.677 41.573 109.377L38.3521 107.654L35.1311 109.377C34.5318 109.677 33.8577 109.227 34.0075 108.553L34.6067 104.957L31.985 102.411C31.5356 101.961 31.7603 101.137 32.4345 101.062L36.1049 100.538L37.7528 97.242C37.7528 96.6428 38.6517 96.6428 38.9513 97.242Z" fill="#FF536D"/>
                                        <path d="M140.824 40.9873V64.2083C140.824 73.1222 133.633 80.3132 124.719 80.3132H56.5543L45.9176 90.9499L35.2809 80.3132H31.161C22.2472 80.3132 15.0562 73.1222 15.0562 64.2083V40.9873C15.0562 32.0735 22.2472 24.8825 31.161 24.8825H124.794C133.633 24.9574 140.824 32.1484 140.824 40.9873Z" fill="white"/>
                                        <path opacity="0.15" d="M42.5468 74.0959L50.0374 81.5866L44.5693 87.0548L33.9326 76.4181H29.8127C20.8989 76.4181 13.7079 69.227 13.7079 60.3132V37.0922C13.7079 28.1783 20.8989 20.9873 29.8127 20.9873H30.1873C25.4682 23.8338 22.3221 29.0023 22.3221 34.845V58.066C22.3221 66.9049 29.5131 74.1709 38.427 74.1709H42.5468V74.0959Z" fill="#00BBCC"/>
                                        <path d="M140.824 38.7401V61.9611C140.824 70.875 133.633 78.066 124.719 78.066H56.5543L45.9176 88.6278L35.2809 77.9911H31.161C22.2472 77.9911 15.0562 70.8001 15.0562 61.8862V38.6652C15.0562 29.7514 22.2472 22.5604 31.161 22.5604H124.794C133.633 22.6353 140.824 29.9012 140.824 38.7401Z" stroke="#00BBCC" stroke-width="4.4849" stroke-miterlimit="10" stroke-linejoin="round"/>
                                        <path d="M122.772 38.2907H35.8801" stroke="#00BBCC" stroke-width="4.4849" stroke-miterlimit="10" stroke-linecap="round" stroke-linejoin="round"/>
                                        <path d="M122.772 53.6465H102.921" stroke="#00BBCC" stroke-width="4.4849" stroke-miterlimit="10" stroke-linecap="round" stroke-linejoin="round"/>
                                        <path d="M40.2996 54.5454L41.9476 57.8413L45.618 58.3656C46.2921 58.4405 46.5168 59.2645 46.0674 59.7139L43.4457 62.2607L44.0449 65.8563C44.1198 66.5304 43.4457 66.9798 42.9213 66.6802L39.7004 64.9574L36.4794 66.6802C35.8801 66.9798 35.206 66.5304 35.3558 65.8563L35.955 62.2607L33.3333 59.7139C32.8839 59.2645 33.1086 58.4405 33.7828 58.3656L37.4532 57.8413L39.1011 54.5454C39.176 53.9461 40 54.021 40.2996 54.5454Z" fill="#FF536D"/>
                                        <path d="M56.6292 54.5454L58.2771 57.8413L61.9476 58.3656C62.6217 58.4405 62.8464 59.2645 62.397 59.7139L59.7753 62.2607L60.3745 65.8563C60.4494 66.5304 59.7753 66.9798 59.2509 66.6802L56.03 64.9574L52.809 66.6802C52.2097 66.9798 51.5356 66.5304 51.6854 65.8563L52.2846 62.2607L49.6629 59.7139C49.2135 59.2645 49.4382 58.4405 50.1124 58.3656L53.7828 57.8413L55.4307 54.5454C55.5056 53.9461 56.4045 54.021 56.6292 54.5454Z" fill="#FF536D"/>
                                        <path d="M73.0337 54.5454L74.6816 57.8413L78.3521 58.3656C79.0262 58.4405 79.2509 59.2645 78.8015 59.7139L76.1798 62.2607L76.779 65.8562C76.8539 66.5304 76.1798 66.9798 75.6554 66.6802L72.4345 64.9574L69.2135 66.6802C68.6142 66.9798 67.9401 66.5304 68.0899 65.8562L68.6891 62.2607L65.9176 59.7888C65.4682 59.3394 65.6929 58.5154 66.367 58.4405L70.0375 57.9162L71.6854 54.6203C71.9101 53.9461 72.7341 54.021 73.0337 54.5454Z" fill="#FF536D"/>
                                    </g>
                                    <defs>
                                        <clipPath id="clip0">
                                            <rect width="142.472" height="140" fill="white" transform="translate(0 0.238281)"/>
                                        </clipPath>
                                     </defs>
                                </svg>

