<svg width="73" height="72" viewBox="0 0 73 72" fill="none" xmlns="http://www.w3.org/2000/svg">
<path d="M44.7901 15.1198H28.7001C21.5701 15.1198 15.7801 20.8998 15.7801 28.0398V44.1298C15.7801 51.2598 21.5601 57.0498 28.7001 57.0498H44.7901C51.9201 57.0498 57.7101 51.2698 57.7101 44.1298V28.0398C57.7101 20.9098 51.9301 15.1198 44.7901 15.1198ZM53.6901 42.5898C53.6901 48.3598 49.0201 53.0298 43.2501 53.0298H30.2501C24.4801 53.0298 19.8101 48.3598 19.8101 42.5898V29.5898C19.8101 23.8298 24.4801 19.1498 30.2501 19.1498H43.2501C49.0101 19.1498 53.6901 23.8298 53.6901 29.5898V42.5898ZM37.3101 25.1198C31.2101 25.1198 26.2701 30.0598 26.2701 36.1598C26.2701 42.2598 31.2101 47.1998 37.3101 47.1998C43.4101 47.1998 48.3501 42.2498 48.3501 36.1598C48.3501 30.0598 43.4101 25.1198 37.3101 25.1198ZM37.3101 42.7998C33.6401 42.7998 30.6601 39.8198 30.6601 36.1598C30.6601 32.4898 33.6301 29.5198 37.3101 29.5198C40.9801 29.5198 43.9501 32.4898 43.9501 36.1598C43.9501 39.8298 40.9801 42.7998 37.3101 42.7998ZM36.5001 71.9098C16.7001 71.9098 0.590088 55.7998 0.590088 35.9998C0.590088 16.1998 16.7001 0.0898438 36.5001 0.0898438C56.3001 0.0898438 72.4101 16.1998 72.4101 35.9998C72.4101 55.7998 56.3001 71.9098 36.5001 71.9098ZM47.5901 22.1298C46.0401 22.1298 44.7801 23.3898 44.7801 24.9398C44.7801 26.4898 46.0401 27.7498 47.5901 27.7498C49.1401 27.7498 50.4001 26.4898 50.4001 24.9398C50.4001 23.3898 49.1401 22.1298 47.5901 22.1298Z" fill="#FF51A3"/>
</svg>
