<svg width="77" height="76" viewBox="0 0 77 76" fill="none" xmlns="http://www.w3.org/2000/svg">
<path fill-rule="evenodd" clip-rule="evenodd" d="M36.5 75.9098C16.7 75.9098 0.589966 59.7998 0.589966 39.9998C0.589966 20.1998 16.7 4.08984 36.5 4.08984C56.3 4.08984 72.41 20.1998 72.41 39.9998C72.41 59.7998 56.3 75.9098 36.5 75.9098ZM18 25.5094C18 27.9375 19.9595 29.9031 22.4953 29.9031C24.9159 29.9031 26.8754 27.9375 26.8754 25.5094C26.8754 23.0812 24.9159 21 22.4953 21C19.9595 21 18 23.0812 18 25.5094ZM26.2991 58V33.3719H18.6916V58H26.2991ZM55 58H47.2773V45.975C47.2773 43.2 47.2773 39.5 43.3583 39.5C39.324 39.5 38.7477 42.6219 38.7477 45.8594V58H31.1402V33.3719H38.4019V36.725H38.5171C39.5545 34.7594 42.0903 32.6781 45.7788 32.6781C53.5016 32.6781 55 37.8812 55 44.4719V58Z" fill="#2593E2"/>
</svg>
