<svg width="73" height="72" viewBox="0 0 73 72" fill="none" xmlns="http://www.w3.org/2000/svg">
<path d="M54.5601 19.3598C54.2601 19.3598 53.9401 19.4298 53.6201 19.5798L18.4601 33.1498C16.0601 34.1198 16.0901 35.4598 18.0301 36.0398L27.0601 38.8698L27.0801 38.8498L27.1101 38.8598L30.2001 49.0498C30.6301 50.1798 30.4101 50.6298 31.6001 50.6298C32.5101 50.6298 32.9101 50.1998 33.4201 49.7198C33.7401 49.4098 35.6101 47.5898 37.7201 45.5398C37.7501 45.5098 37.7701 45.4898 37.7701 45.4898L46.8401 52.1798C47.4701 52.5198 48.0401 52.6698 48.5201 52.6198C49.3601 52.5598 49.9601 51.9198 50.2301 50.6298L56.2201 22.4098C56.7401 20.3998 55.8001 19.2998 54.5601 19.3598ZM36.5001 71.9098C16.7001 71.9098 0.590088 55.7998 0.590088 35.9998C0.590088 16.1998 16.7001 0.0898438 36.5001 0.0898438C56.3001 0.0898438 72.4101 16.1998 72.4101 35.9998C72.4101 55.7998 56.3001 71.9098 36.5001 71.9098Z" fill="#37AEE2"/>
</svg>
