<svg width="73" height="72" viewBox="0 0 73 72" fill="none" xmlns="http://www.w3.org/2000/svg">
<path d="M55.42 20.5198C53.83 21.4598 52.07 22.1498 50.2 22.5198C48.7 20.9198 46.57 19.9198 44.2 19.9198C39.66 19.9198 35.99 23.5998 35.99 28.1298C35.99 28.7698 36.06 29.3998 36.2 30.0098C29.37 29.6598 23.31 26.3898 19.27 21.4298C18.57 22.6398 18.16 24.0498 18.16 25.5598C18.16 28.4098 19.61 30.9298 21.82 32.3998C20.47 32.3598 19.2 31.9898 18.1 31.3698C18.1 31.4098 18.1 31.4398 18.1 31.4698C18.1 35.4498 20.93 38.7698 24.69 39.5198C24 39.7098 23.28 39.8098 22.53 39.8098C22 39.8098 21.49 39.7598 20.99 39.6598C22.04 42.9298 25.07 45.2998 28.66 45.3698C25.85 47.5698 22.31 48.8898 18.46 48.8898C17.8 48.8898 17.15 48.8498 16.5 48.7798C20.14 51.1098 24.45 52.4698 29.09 52.4698C44.2 52.4698 52.47 39.9498 52.47 29.0898C52.47 28.7298 52.46 28.3798 52.45 28.0298C54.06 26.8698 55.45 25.4198 56.55 23.7798C55.08 24.4298 53.49 24.8698 51.83 25.0698C53.5 24.0398 54.8 22.4298 55.42 20.5198ZM36.5 71.9098C16.7 71.9098 0.589966 55.7998 0.589966 35.9998C0.589966 16.1998 16.7 0.0898438 36.5 0.0898438C56.3 0.0898438 72.41 16.1998 72.41 35.9998C72.41 55.7998 56.3 71.9098 36.5 71.9098Z" fill="#1DA1F2"/>
</svg>
